<svg width="58" height="58" viewBox="0 0 58 58" fill="none" xmlns="http://www.w3.org/2000/svg">
<g clip-path="url(#clip0_10636_109759)">
<path d="M58 29C58 38.5949 53.3396 47.1012 46.1598 52.3801C39.3772 47.3358 35.4208 52.405 29 52.405C28.0394 52.405 27.0889 52.3586 26.1521 52.2668C24.7554 52.1298 23.3869 51.8953 22.0559 51.5668C21.3648 51.398 20.684 51.2043 20.0145 50.9856C17.8055 50.2663 15.7144 49.2898 13.775 48.0913C13.0149 47.6212 12.2786 52.7132 11.5683 52.1785C4.54258 46.8848 0 38.4726 0 29C0 12.9843 12.9843 0 29 0C45.0157 0 58 12.9843 58 29Z" fill="#FD3581"/>
<path d="M46.159 50.449V52.3804C41.3536 55.9125 35.4199 58.0003 28.9991 58.0003C25.8624 58.0003 22.8423 57.5019 20.0137 56.5809V50.449C20.0137 45.5099 22.7528 41.2109 26.7947 38.9872C28.6616 37.9608 30.806 39.011 33.0863 39.011C35.3667 39.011 37.5111 37.9608 39.3768 38.9872C43.4187 41.2097 46.159 45.5099 46.159 50.449Z" fill="#0ED2B3"/>
<path d="M32.896 39.0082C28.8734 41.2365 26.1512 45.5242 26.1512 50.4485V57.8616C24.0295 57.6543 21.9757 57.2193 20.0137 56.5804V50.4485C20.0137 45.5095 22.7528 41.2104 26.7947 38.9867C28.6106 37.9898 30.6859 38.9539 32.896 39.0082Z" fill="#0AB69F"/>
<path d="M43.7814 19.3046L41.6061 9.42998H22.7895L21.081 7.72147C20.6216 7.26211 19.8768 7.26211 19.4173 7.72147C18.958 8.18083 18.958 8.92565 19.4173 9.38512L19.4622 9.42998H19.2564C16.5296 9.42998 14.319 11.6404 14.319 14.3673C14.319 15.5268 14.7197 16.592 15.3887 17.4345H14.6978C14.0481 17.4345 13.5215 17.9612 13.5215 18.6109C13.5215 19.2605 14.0481 19.7872 14.6978 19.7872H20.6763V19.3046H43.7814Z" fill="#DEDBEE"/>
<path d="M51.4757 17.4345H50.7848C51.4539 16.5921 51.8545 15.5268 51.8545 14.3673C51.8545 11.6405 49.6441 9.42998 46.9172 9.42998H46.7113L46.7562 9.38512C47.2156 8.92576 47.2156 8.18094 46.7562 7.72147C46.2968 7.26211 45.552 7.26211 45.0926 7.72147L43.384 9.42998H41.6068L41.9278 10.8865L40.8652 11.9491L42.5282 13.6121L43.7822 19.3048H45.4972V19.7874H51.4757C52.1254 19.7874 52.652 19.2608 52.652 18.6111C52.652 17.9614 52.1254 17.4345 51.4757 17.4345Z" fill="#F5F8F9"/>
<path d="M39.3762 38.9874C39.2639 42.3611 36.486 45.071 33.0869 45.071C32.2518 45.071 31.4413 44.9098 30.6768 44.5929C28.3818 43.64 26.8765 41.4554 26.7949 38.9874C28.6616 37.9611 30.8054 37.377 33.086 37.377C35.3666 37.377 37.5104 37.9613 39.3762 38.9874Z" fill="#FFB09E"/>
<path d="M37.5693 30.7422V38.777C37.5693 41.2525 35.561 43.2608 33.0872 43.2608C32.479 43.2608 31.8995 43.1401 31.3712 42.9209C29.747 42.2465 28.6035 40.6459 28.6035 38.777V30.7422H37.5693Z" fill="#FFCEBF"/>
<path d="M31.3704 35.9303V42.92C29.7464 42.2461 28.6035 40.645 28.6035 38.7774V33.7812L31.3704 35.9303Z" fill="#FFB09E"/>
<path d="M44.6514 28.1381H21.3952C17.6841 28.1381 14.6758 25.1297 14.6758 21.4187C14.6758 19.0981 16.557 17.2168 18.8777 17.2168H47.1689C49.4896 17.2168 51.3709 19.0981 51.3709 21.4187C51.3708 25.1297 48.3623 28.1381 44.6514 28.1381Z" fill="#FFB09E"/>
<path d="M21.3955 25.8731C18.9395 25.8731 16.9414 23.8749 16.9414 21.419C16.9414 20.3512 17.8102 19.4824 18.8779 19.4824H47.1693C48.237 19.4824 49.1058 20.3512 49.1058 21.419C49.1058 23.875 47.1076 25.8731 44.6517 25.8731H21.3955Z" fill="#F89580"/>
<path d="M19.863 24.2965H21.5796V20.8633H19.863C18.915 20.8633 18.1465 21.6318 18.1465 22.5798C18.1465 23.528 18.915 24.2965 19.863 24.2965Z" fill="#F5F8F9"/>
<path d="M46.3083 24.2965H44.5918V20.8633H46.3083C47.2564 20.8633 48.0249 21.6318 48.0249 22.5798C48.0249 23.528 47.2564 24.2965 46.3083 24.2965Z" fill="#F5F8F9"/>
<path d="M33.0861 1.87695C25.8663 1.87695 20.0137 7.72963 20.0137 14.9494V24.5645C20.0137 31.7841 25.8663 37.6369 33.0861 37.6369C40.3057 37.6369 46.1585 31.7842 46.1585 24.5645V14.9494C46.1585 7.72963 40.3059 1.87695 33.0861 1.87695Z" fill="#FFCEBF"/>
<path d="M36.4639 37.1959C35.3865 37.4834 34.2545 37.6369 33.0861 37.6369C25.8657 37.6369 20.0137 31.7849 20.0137 24.5645V14.9494C20.0137 7.73008 25.8657 1.87695 33.0861 1.87695C34.2545 1.87695 35.3864 2.03034 36.4639 2.31796C30.8813 3.80681 26.7682 8.89847 26.7682 14.9494V24.5645C26.7681 30.6165 30.8812 35.7082 36.4639 37.1959Z" fill="#FFB09E"/>
<path d="M24.0687 17.0898C23.0736 17.0898 22.3915 18.0978 22.7665 19.0196C23.5287 20.8937 25.368 22.2149 27.5159 22.2149C29.6638 22.2149 31.5031 20.8936 32.2653 19.0196C32.6403 18.0978 31.9581 17.0898 30.963 17.0898H24.0687Z" fill="#FFB09E"/>
<path d="M27.5169 20.9616C29.6556 20.9616 31.3893 19.2279 31.3893 17.0892C31.3893 14.9505 29.6556 13.2168 27.5169 13.2168C25.3783 13.2168 23.6445 14.9505 23.6445 17.0892C23.6445 19.2279 25.3783 20.9616 27.5169 20.9616Z" fill="#F5F8F9"/>
<path d="M28.4889 20.8377C28.1773 20.9179 27.8526 20.9605 27.5164 20.9605C25.3774 20.9605 23.6445 19.2276 23.6445 17.0886C23.6445 14.9497 25.3774 13.2168 27.5164 13.2168C27.8526 13.2168 28.1773 13.2595 28.4889 13.3396C26.8194 13.7703 25.587 15.2846 25.587 17.0886C25.587 18.8928 26.8194 20.4071 28.4889 20.8377Z" fill="#DEDBEE"/>
<path d="M35.2094 17.0898C34.2142 17.0898 33.5321 18.0978 33.9071 19.0196C34.6694 20.8937 36.5086 22.2149 38.6565 22.2149C40.8045 22.2149 42.6437 20.8936 43.406 19.0196C43.7809 18.0978 43.0987 17.0898 42.1037 17.0898H35.2094Z" fill="#FFB09E"/>
<path d="M38.6556 20.9616C40.7943 20.9616 42.528 19.2279 42.528 17.0892C42.528 14.9505 40.7943 13.2168 38.6556 13.2168C36.5169 13.2168 34.7832 14.9505 34.7832 17.0892C34.7832 19.2279 36.5169 20.9616 38.6556 20.9616Z" fill="#F5F8F9"/>
<path d="M39.6276 20.8377C39.3159 20.9179 38.9913 20.9605 38.655 20.9605C36.5161 20.9605 34.7832 19.2276 34.7832 17.0886C34.7832 14.9497 36.5161 13.2168 38.655 13.2168C38.9913 13.2168 39.3159 13.2595 39.6276 13.3396C37.958 13.7703 36.7256 15.2846 36.7256 17.0886C36.7256 18.8928 37.958 20.4071 39.6276 20.8377Z" fill="#DEDBEE"/>
<path d="M28.2395 18.6119C29.0935 18.6119 29.7857 17.9196 29.7857 17.0657C29.7857 16.2118 29.0935 15.5195 28.2395 15.5195C27.3856 15.5195 26.6934 16.2118 26.6934 17.0657C26.6934 17.9196 27.3856 18.6119 28.2395 18.6119Z" fill="#444444"/>
<path d="M37.8977 18.6119C38.7517 18.6119 39.4439 17.9196 39.4439 17.0657C39.4439 16.2118 38.7517 15.5195 37.8977 15.5195C37.0438 15.5195 36.3516 16.2118 36.3516 17.0657C36.3516 17.9196 37.0438 18.6119 37.8977 18.6119Z" fill="#444444"/>
<path d="M36.8976 23.4922H29.2748C26.9733 23.4922 25.1074 25.358 25.1074 27.6596C25.1074 28.7612 26.0005 29.6542 27.1021 29.6542C28.2037 29.6542 29.0967 28.7611 29.0967 27.6596C29.0967 28.7612 29.9898 29.6542 31.0914 29.6542C32.193 29.6542 33.086 28.7611 33.086 27.6596C33.086 28.7612 33.9792 29.6542 35.0807 29.6542C36.1824 29.6542 37.0754 28.7611 37.0754 27.6596C37.0754 28.7612 37.9685 29.6542 39.07 29.6542C40.1716 29.6542 41.0647 28.7611 41.0647 27.6596C41.0651 25.358 39.1993 23.4922 36.8976 23.4922Z" fill="#F5F8F9"/>
<path d="M30.6868 27.6594C30.6868 28.2101 30.9096 28.7092 31.2709 29.0706C31.4466 29.2463 31.6559 29.3893 31.8869 29.4899C31.6432 29.5959 31.3743 29.6548 31.0916 29.6548C29.9903 29.6548 29.0972 28.7618 29.0972 27.6594C29.0972 28.7617 28.2042 29.6548 27.1019 29.6548C26.5512 29.6548 26.0531 29.431 25.6916 29.0706C25.3302 28.7092 25.1074 28.2101 25.1074 27.6594C25.1074 25.358 26.9732 23.4923 29.2746 23.4923H34.8538C32.5526 23.4923 30.6868 25.3581 30.6868 27.6594Z" fill="#DEDBEE"/>
<path d="M33.0875 24.1466C32.339 24.1466 31.7324 23.5399 31.7324 22.7916V11.3164H34.4426V22.7916C34.4426 23.5399 33.8359 24.1466 33.0875 24.1466Z" fill="#FFB09E"/>
<path d="M39.4476 11.5591H26.5999C26.0118 11.5591 25.5352 11.0825 25.5352 10.4944C25.5352 9.90637 26.0118 9.42969 26.5999 9.42969H39.4475C40.0355 9.42969 40.5122 9.90637 40.5122 10.4944C40.5123 11.0823 40.0356 11.5591 39.4476 11.5591Z" fill="#FFB09E"/>
<path d="M38.0052 7.87751H28.0413C27.4533 7.87751 26.9766 7.40082 26.9766 6.81278C26.9766 6.22473 27.4533 5.74805 28.0413 5.74805H38.0052C38.5932 5.74805 39.0699 6.22473 39.0699 6.81278C39.07 7.40082 38.5932 7.87751 38.0052 7.87751Z" fill="#FFB09E"/>
<path d="M29.838 15.7206L25.5815 13.8209C24.9255 13.528 24.6311 12.759 24.9238 12.103C25.2166 11.447 25.9857 11.1525 26.6417 11.4453L30.8982 13.345C31.5542 13.6378 31.8487 14.4069 31.5559 15.0629C31.2632 15.7189 30.494 16.0134 29.838 15.7206Z" fill="#F89580"/>
<path d="M36.3878 13.1034L40.6443 11.2037C41.3003 10.9109 41.5948 10.1418 41.302 9.48578C41.0092 8.82977 40.2401 8.53535 39.5841 8.82807L35.3276 10.7278C34.6716 11.0206 34.3771 11.7897 34.6699 12.4457C34.9627 13.1017 35.7318 13.3961 36.3878 13.1034Z" fill="#F89580"/>
<path d="M22.0559 42.0091V57.1616C21.3649 56.9928 20.6841 56.7991 20.0146 56.5805C16.9413 55.5802 14.0945 54.0803 11.5684 52.1784V42.0091L16.9424 39.4863L22.0559 42.0091Z" fill="#0ED2B3"/>
<path d="M13.7751 42.0091V53.6861C13.015 53.216 12.2786 52.713 11.5684 52.1784V42.0091L12.6989 39.4863L13.7751 42.0091Z" fill="#0AB69F"/>
<path d="M20.1024 31.4473C19.411 31.4473 18.8049 31.8073 18.4574 32.3491C18.11 31.8073 17.504 31.4473 16.8125 31.4473C16.1211 31.4473 15.515 31.8073 15.1675 32.3491C14.8201 31.8073 14.214 31.4473 13.5226 31.4473C12.4432 31.4473 11.5684 32.3223 11.5684 33.4015V42.0085H22.0565V33.4015C22.0567 32.3221 21.1817 31.4473 20.1024 31.4473Z" fill="#FFCEBF"/>
<path d="M13.7737 33.4014C13.7737 32.8621 13.9924 32.3739 14.3458 32.0193C14.4308 31.9344 14.5225 31.8573 14.6222 31.7894C14.3095 31.573 13.93 31.4473 13.5211 31.4473C12.9819 31.4473 12.4925 31.6659 12.1391 32.0193C11.7856 32.3739 11.567 32.8621 11.567 33.4014V34.6673L10.0072 35.8374C9.37421 36.3122 9.24134 37.2082 9.7093 37.8463L11.567 40.3795V42.0085H13.7737V33.4014Z" fill="#FFB09E"/>
<path d="M11.9781 12.3396L11.798 12.7434C11.3856 13.6672 10.3578 14.1484 9.38428 13.8733L4.83762 12.5891C3.64273 12.2515 3.02524 10.9326 3.53126 9.79861L4.26589 8.15263C4.77192 7.0188 6.16607 6.59762 7.21517 7.26168L11.2073 9.7883C12.0622 10.3293 12.3904 11.4157 11.9781 12.3396Z" fill="#FFE177"/>
<path d="M11.4457 18.6832L11.4884 19.1232C11.586 20.1302 10.9299 21.0561 9.94754 21.2978L5.35966 22.4261C4.15389 22.7227 2.96568 21.8807 2.84583 20.6449L2.67183 18.8508C2.55198 17.6149 3.55622 16.5602 4.79653 16.6196L9.51572 16.8452C10.5262 16.8936 11.348 17.6763 11.4457 18.6832Z" fill="#FFE177"/>
<path d="M16.1654 8.1082L16.5214 7.84619C17.3361 7.24647 17.5873 6.13972 17.111 5.24706L14.8872 1.07854C14.3028 -0.017008 12.8826 -0.33918 11.8827 0.396922L10.431 1.4655C9.43103 2.20149 9.31673 3.65331 10.189 4.5369L13.5084 7.89886C14.2192 8.61876 15.3507 8.70792 16.1654 8.1082Z" fill="#FFE177"/>
</g>
<defs>
<clipPath id="clip0_10636_109759">
<rect width="58" height="58" fill="white"/>
</clipPath>
</defs>
</svg>
