<svg width="58" height="58" viewBox="0 0 58 58" fill="none" xmlns="http://www.w3.org/2000/svg">
<path d="M58 29C58 34.593 56.4167 39.8162 53.6738 44.2458C51.2753 48.1193 47.3185 50.2077 43.4301 52.5841C42.995 52.8501 43.2239 54.2831 42.7741 54.5263C38.6766 56.7421 33.9852 58 29 58C12.9837 58 0 45.0163 0 29C0 12.9837 12.9837 0 29 0C45.0163 0 58 12.9837 58 29Z" fill="#FD4755"/>
<path d="M44.4912 12.8079V26.8174C44.4912 27.7845 43.7304 28.5686 42.792 28.5686H9.76562C8.8272 28.5686 8.06641 27.7845 8.06641 26.8174V12.8079C8.06641 11.8407 8.8272 11.0566 9.76562 11.0566H42.792C43.7304 11.0566 44.4912 11.8408 44.4912 12.8079ZM53.4171 38.7664C53.4171 37.7992 52.6563 37.0152 51.7179 37.0152H18.6915C17.7531 37.0152 16.9923 37.7992 16.9923 38.7664V52.7759C16.9923 53.7431 17.7531 54.5271 18.6915 54.5271H42.7741C47.1023 52.1867 50.7679 48.7776 53.4171 44.6534V38.7664Z" fill="#DD4D58"/>
<path d="M36.1581 33.5182V47.5277C36.1581 48.4949 35.3973 49.2789 34.4589 49.2789H13.7718C12.8333 49.2789 12.0725 48.4949 12.0725 47.5277V33.5182C12.0725 32.551 12.8333 31.767 13.7718 31.767H34.4589C35.3973 31.767 36.1581 32.551 36.1581 33.5182ZM29.4371 7.76293V21.7724C29.4371 22.7396 28.6763 23.5236 27.7379 23.5236H7.05078C6.11236 23.5236 5.35156 22.7396 5.35156 21.7724V7.76293C5.35156 6.79574 6.11236 6.01172 7.05078 6.01172H27.7379C28.6763 6.01183 29.4371 6.79585 29.4371 7.76293Z" fill="#DEECF1"/>
<path d="M54.4884 33.5182V47.5277C54.4884 48.4949 53.7968 49.2789 52.9437 49.2789H33.2392C28.9736 49.2789 25.5157 45.3587 25.5157 40.523C25.5157 35.6872 28.9736 31.767 33.2392 31.767H52.9437C53.7967 31.767 54.4884 32.551 54.4884 33.5182ZM47.7674 7.76293V21.7724C47.7674 22.7396 46.8807 23.5236 45.7867 23.5236H20.5207C15.0511 23.5236 10.6172 19.6034 10.6172 14.7677C10.6172 9.93193 15.0511 6.01172 20.5207 6.01172H45.7867C46.8807 6.01183 47.7674 6.79585 47.7674 7.76293Z" fill="white"/>
<path d="M49.2227 39.8379H29.3984C28.9292 39.8379 28.5488 39.4575 28.5488 38.9883C28.5488 38.5191 28.9292 38.1387 29.3984 38.1387H49.2227C49.6919 38.1387 50.0723 38.5191 50.0723 38.9883C50.0723 39.4575 49.6919 39.8379 49.2227 39.8379ZM41.0098 42.1035C41.0098 41.6343 40.6294 41.2539 40.1602 41.2539H29.3984C28.9292 41.2539 28.5488 41.6343 28.5488 42.1035C28.5488 42.5727 28.9292 42.9531 29.3984 42.9531H40.1602C40.6294 42.9531 41.0098 42.5727 41.0098 42.1035Z" fill="#A8D3D8"/>
<path d="M22.7946 40.5222C22.7946 42.5599 22.2137 44.462 21.2085 46.0718C20.5593 47.1117 20.5152 47.0815 19.5992 48.0619C19.5992 48.0619 16.6567 48.0171 15.2998 48.0171C9.53126 48.0171 4.80664 43.2927 4.80664 37.5242C4.80664 35.5068 5.37599 33.6224 6.36279 32.0228C6.47255 31.8449 6.6222 31.6952 6.80028 31.5854C8.39981 30.5986 10.2842 30.0293 12.3017 30.0293C18.0702 30.0292 22.7946 34.7537 22.7946 40.5222Z" fill="#FF5757"/>
<path d="M1.76562 40.5665C1.76562 36.7726 3.63205 33.3512 6.83927 31.5625C5.86709 33.1538 5.3068 35.0241 5.3068 37.0254C5.3068 40.777 7.27574 44.0687 10.2366 45.9237C8.53124 46.4934 7.02097 47.4889 5.83186 48.7842C3.11141 46.8582 1.76562 43.9206 1.76562 40.5665Z" fill="#FF4343"/>
<path d="M12.8579 36.7246V44.3126H6.30859V36.7246C6.30859 36.4118 6.56223 36.1582 6.875 36.1582H12.2915C12.6043 36.1582 12.8579 36.4117 12.8579 36.7246Z" fill="#FFB509"/>
<path d="M18.2544 36.7246V44.3126H11.7891V36.7246C11.7891 36.4118 12.0427 36.1582 12.3555 36.1582H17.688C18.0007 36.1582 18.2544 36.4117 18.2544 36.7246Z" fill="#FFC143"/>
<path d="M12.072 45.3848C10.298 45.3848 8.85989 46.8229 8.85989 48.5969V49.0654C8.85989 49.7385 8.1495 50.1855 7.54956 49.8802C6.61069 49.4025 5.75338 48.7876 5.00391 48.0621C5.25856 46.5426 6.57987 45.3848 8.1717 45.3848H12.072Z" fill="#00D1FC"/>
<path d="M19.6005 48.0621C17.7121 49.8903 15.1389 51.0154 12.3029 51.0154C10.5619 51.0154 8.91985 50.5914 7.47461 49.8409V48.5969C7.47461 46.8229 8.91272 45.3848 10.6867 45.3848H16.4328C18.0245 45.3848 19.3458 46.5426 19.6005 48.0621Z" fill="#64DCFC"/>
<path d="M18.497 39.6496V40.1085C18.497 40.7421 17.9834 41.2556 17.3498 41.2556C17.2365 41.2556 17.1272 41.239 17.0238 41.2085C16.4614 42.6922 15.22 43.8418 13.6788 44.2777V45.8444C13.6788 46.6046 13.0624 47.221 12.3022 47.221C11.542 47.221 10.9256 46.6047 10.9256 45.8444V44.2777C9.38442 43.8418 8.14286 42.6922 7.58064 41.2085C7.47733 41.239 7.3679 41.2556 7.25462 41.2556C6.62104 41.2556 6.10742 40.742 6.10742 40.1085V39.6496C6.10742 39.016 6.62104 38.5024 7.25462 38.5024V37.5847C7.25462 34.797 9.51447 32.5371 12.3022 32.5371C15.0899 32.5371 17.3498 34.797 17.3498 37.5847V38.5024C17.9834 38.5024 18.497 39.016 18.497 39.6496Z" fill="#FFBFAB"/>
<path d="M17.3498 37.5843V39.4198C17.3498 41.6917 15.8487 43.613 13.7843 44.2462C11.7198 43.613 10.2188 41.6917 10.2188 39.4198V37.5843C10.2188 35.3123 11.7198 33.3911 13.7843 32.7578C15.8487 33.3911 17.3498 35.3123 17.3498 37.5843Z" fill="#FFCEBF"/>
<path d="M11.2017 39.1577C11.2017 39.5048 10.9204 39.7862 10.5733 39.7862H9.94489C9.5978 39.7862 9.31641 39.5048 9.31641 39.1577C9.31641 38.8106 9.5978 38.5293 9.94489 38.5293H10.5733C10.9205 38.5293 11.2017 38.8106 11.2017 39.1577ZM14.6582 38.5293H14.0298C13.6827 38.5293 13.4013 38.8107 13.4013 39.1577C13.4013 39.5048 13.6827 39.7862 14.0298 39.7862H14.6582C15.0053 39.7862 15.2867 39.5048 15.2867 39.1577C15.2866 38.8106 15.0052 38.5293 14.6582 38.5293Z" fill="#614648"/>
<path d="M10.5168 36.9508L10.218 37.0144H6.30859V36.9508C6.30859 34.8801 7.6819 33.1303 9.56736 32.5621C9.53937 32.4511 9.52442 32.3348 9.52442 32.2151V32.1758C9.52442 31.3938 10.1583 30.7598 10.9404 30.7598H13.6212C13.8413 30.7598 14.0498 30.8101 14.2357 30.8997C14.2872 30.9246 13.7327 31.6751 13.7327 32.1758V32.2151C13.7327 32.3348 13.7477 32.4511 13.7756 32.5621C11.8901 33.1302 10.5168 34.8801 10.5168 36.9508Z" fill="#FFB509"/>
<path d="M18.2537 36.9515V37.0151H10.2188V36.9515C10.2188 34.8809 11.5921 33.131 13.4775 32.5628C13.4495 32.4518 13.4346 32.3356 13.4346 32.2158V32.1765C13.4346 31.6146 13.7618 31.1291 14.2362 30.9004C14.7105 31.1292 15.0377 31.6146 15.0377 32.1765V32.2158C15.0377 32.3356 15.0228 32.4518 14.9948 32.5628C16.8804 33.1309 18.2537 34.8809 18.2537 36.9515Z" fill="#FFC143"/>
<path d="M38.4004 21.4174C36.43 19.5099 35.2051 16.8369 35.2051 13.8778C35.2051 8.08265 39.903 3.38477 45.6981 3.38477C51.4932 3.38477 56.1911 8.08265 56.1911 13.8778C56.1911 16.8369 54.9662 19.5099 52.9958 21.4174C52.9556 21.4562 38.4405 21.4563 38.4004 21.4174Z" fill="#FFC143"/>
<path d="M38.3991 21.4164C36.3141 19.5541 35.0801 16.8359 35.0801 13.8767C35.0801 8.08162 39.7849 3.28982 45.6831 3.37014C46.2791 3.37829 46.8772 3.43357 47.4461 3.52907C42.4837 4.3618 38.7025 8.6777 38.7025 13.8767C38.7025 16.8359 39.9274 19.5089 41.8978 21.4164C41.9146 21.4327 38.4232 21.438 38.3991 21.4164Z" fill="#FFAA00"/>
<path d="M45.4685 18.7402C43.6945 18.7402 42.2564 20.1783 42.2564 21.9523V22.4028C42.2564 23.0951 41.5236 23.5326 40.9079 23.2162C39.984 22.7413 39.1397 22.1333 38.4004 21.4176C38.655 19.8982 39.9764 18.7403 41.5682 18.7403H45.4685V18.7402Z" fill="#FF4FB8"/>
<path d="M52.9951 21.4157C51.1067 23.2438 48.5335 24.3689 45.6975 24.3689C43.9565 24.3689 42.3145 23.9449 40.8691 23.1944V21.9504C40.8691 20.1763 42.3072 18.7383 44.0812 18.7383H49.8273C51.4191 18.7384 52.7404 19.8962 52.9951 21.4157Z" fill="#FF73C6"/>
<path d="M51.8915 13.0031V13.462C51.8915 14.0956 51.3779 14.6091 50.7443 14.6091C50.631 14.6091 50.5217 14.5927 50.4183 14.5621C49.856 16.0457 48.6145 17.1954 47.0733 17.6312V19.1979C47.0733 19.9582 46.457 20.5745 45.6967 20.5745C44.9364 20.5745 44.3201 19.9581 44.3201 19.1979V17.6312C42.779 17.1953 41.5375 16.0457 40.9752 14.5621C40.8719 14.5927 40.7624 14.6091 40.6492 14.6091C40.0156 14.6091 39.502 14.0956 39.502 13.462V13.0031C39.502 12.3695 40.0156 11.8559 40.6492 11.8559V10.9382C40.6492 8.15047 42.909 5.89062 45.6967 5.89062C48.4845 5.89062 50.7443 8.15047 50.7443 10.9382V11.8559C51.3779 11.8559 51.8915 12.3695 51.8915 13.0031Z" fill="#883F2E"/>
<path d="M50.7463 10.9378V12.7733C50.7463 15.0453 49.2452 16.9665 47.1808 17.5998C45.1163 16.9665 43.6152 15.0453 43.6152 12.7733V10.9378C43.6152 8.66582 45.1163 6.74457 47.1808 6.11133C49.2452 6.74457 50.7463 8.66582 50.7463 10.9378Z" fill="#A44F3E"/>
<path d="M44.5982 12.5131C44.5982 12.8602 44.3168 13.1416 43.9697 13.1416H43.3414C42.9943 13.1416 42.7129 12.8602 42.7129 12.5131C42.7129 12.1662 42.9943 11.8848 43.3414 11.8848H43.9697C44.317 11.8848 44.5982 12.166 44.5982 12.5131ZM48.0547 11.8848H47.4263C47.0792 11.8848 46.7978 12.1662 46.7978 12.5131C46.7978 12.8602 47.0792 13.1416 47.4263 13.1416H48.0547C48.4018 13.1416 48.6832 12.8602 48.6832 12.5131C48.683 12.166 48.4017 11.8848 48.0547 11.8848Z" fill="#55271A"/>
<path d="M46.6411 14.7748V14.8377C46.6411 15.3582 46.2302 15.0655 45.7097 15.0655C45.189 15.0655 44.7559 15.3582 44.7559 14.8377V14.7748C44.7559 14.636 44.8685 14.5234 45.0072 14.5234H46.3897C46.5285 14.5234 46.6411 14.636 46.6411 14.7748Z" fill="#FFF5F5"/>
<path d="M46.9563 5.94089C48.6597 6.39164 48.508 8.719 46.7484 8.81212C46.4417 8.82832 46.0119 8.84384 45.6972 8.84384C45.2238 8.84384 44.8773 8.8179 44.4227 8.78153C44.3311 8.77417 44.1212 8.92903 44.0306 8.9203C43.0692 8.82775 42.1584 8.6567 41.3223 8.41971C42.0603 6.75142 43.827 5.77539 45.6972 5.77539C46.126 5.77539 46.5494 5.83328 46.9563 5.94089Z" fill="#55271A"/>
<path d="M46.9186 5.92969C48.3036 6.2846 49.5028 7.21747 50.0729 8.41848C48.7663 8.78868 47.2777 8.99825 45.6978 8.99825C45.1291 8.99825 44.5722 8.97106 44.0312 8.91907C44.4726 7.51268 45.5587 6.4262 46.9186 5.92969Z" fill="#6D3326"/>
<path d="M15.96 19V10.36H17.214V17.818H21.126V19H15.96ZM22.7447 11.458V10.24H23.9987V11.458H22.7447ZM22.7447 19V12.52H23.9987V19H22.7447ZM29.1545 19.18C28.5105 19.18 27.9445 19.04 27.4565 18.76C26.9725 18.476 26.5945 18.082 26.3225 17.578C26.0545 17.07 25.9205 16.482 25.9205 15.814C25.9205 15.106 26.0525 14.492 26.3165 13.972C26.5845 13.452 26.9565 13.05 27.4325 12.766C27.9085 12.482 28.4625 12.34 29.0945 12.34C29.7545 12.34 30.3165 12.494 30.7805 12.802C31.2445 13.106 31.5905 13.54 31.8185 14.104C32.0505 14.668 32.1425 15.338 32.0945 16.114H30.8405V15.658C30.8325 14.906 30.6885 14.35 30.4085 13.99C30.1325 13.63 29.7105 13.45 29.1425 13.45C28.5145 13.45 28.0425 13.648 27.7265 14.044C27.4105 14.44 27.2525 15.012 27.2525 15.76C27.2525 16.472 27.4105 17.024 27.7265 17.416C28.0425 17.804 28.4985 17.998 29.0945 17.998C29.4865 17.998 29.8245 17.91 30.1085 17.734C30.3965 17.554 30.6205 17.298 30.7805 16.966L32.0105 17.356C31.7585 17.936 31.3765 18.386 30.8645 18.706C30.3525 19.022 29.7825 19.18 29.1545 19.18ZM26.8445 16.114V15.136H31.4705V16.114H26.8445Z" fill="#FD4755"/>
<path d="M13.2231 41.3959V41.4588C13.2231 41.9793 12.8122 41.6866 12.2917 41.6866C11.7711 41.6866 11.3379 41.9793 11.3379 41.4588V41.3959C11.3379 41.2571 11.4505 41.1445 11.5893 41.1445H12.9717C13.1105 41.1445 13.2231 41.2571 13.2231 41.3959Z" fill="#FFF5F5"/>
</svg>
