<svg width="58" height="58" viewBox="0 0 58 58" fill="none" xmlns="http://www.w3.org/2000/svg">
<path d="M9.06261 50.0595C3.48147 44.7739 0 37.2936 0 29.0002C0 14.6636 10.4032 2.75688 24.0725 0.417169C25.6739 0.143028 27.3204 3.31909 29 3.31909C32.6769 3.31909 36.1939 0.684512 39.4308 1.93264C50.2934 6.12144 58 16.6608 58 29.0002C58 29.5324 57.9845 30.0609 57.9556 30.586C57.9478 30.7279 57.5155 31.0109 57.5155 31.0109H9.48889V49.8439C9.48889 49.8439 9.20342 50.1928 9.06261 50.0595Z" fill="#FD4755"/>
<path d="M57.9564 30.5859C57.133 45.8646 44.4832 58 28.999 58C22.6545 58 16.7858 55.9625 12.0117 52.5063V30.5859H57.9564Z" fill="#FFC143"/>
<path d="M12.2758 30.5859V52.6932C11.1422 51.8915 10.0679 51.0116 9.0625 50.0594V30.5859H12.2758Z" fill="#FFB509"/>
<path d="M35.7973 49.8438H25.8418V31.7188H35.7973V49.8438Z" fill="#E5F2FD"/>
<path d="M26.7416 49.8438H22.2031V31.7188H26.7416V49.8438Z" fill="#BDE2FD"/>
<path d="M54.6016 4.53125V38.7591H3.39844V4.53125H54.6016Z" fill="#0055CA"/>
<path d="M7.43318 4.53125V38.7591H3.39844V4.53125H7.43318Z" fill="#00429C"/>
<path d="M54.6016 3.68164H3.39844C2.92923 3.68164 2.54883 4.06204 2.54883 4.53125V38.7591C2.54883 39.2283 2.92923 39.6087 3.39844 39.6087H54.6016C55.0708 39.6087 55.4512 39.2283 55.4512 38.7591V4.53125C55.4512 4.06204 55.0708 3.68164 54.6016 3.68164ZM53.752 37.9095H4.24805V5.38086H53.752V37.9095Z" fill="#003278"/>
<path d="M43.4434 49.8438C43.4434 50.313 43.063 50.6934 42.5938 50.6934H15.4062C14.937 50.6934 14.5566 50.313 14.5566 49.8438C14.5566 49.3745 14.937 48.9941 15.4062 48.9941H42.5938C43.063 48.9941 43.4434 49.3745 43.4434 49.8438Z" fill="#FFF5F5"/>
<path d="M50.6434 9.12129V33.9844C50.6434 34.61 50.1362 35.1172 49.5106 35.1172H24.4121C23.7865 35.1172 23.2793 34.61 23.2793 33.9844V1.13281C23.2793 0.50716 23.7865 0 24.4121 0H41.522L42.4171 2.24172L48.6954 8.52L50.6434 9.12129Z" fill="#FFC7E8"/>
<path d="M26.6765 35.1172H24.4121C23.7865 35.1172 23.2793 34.61 23.2793 33.9844V1.13281C23.2793 0.50716 23.7865 0 24.4121 0H26.6765C26.0508 0 25.5437 0.50716 25.5437 1.13281V33.9844C25.5437 34.61 26.0508 35.1172 26.6765 35.1172Z" fill="#FFAFE2"/>
<path d="M50.6448 9.12129H41.5234V0L50.6448 9.12129Z" fill="#FF5757"/>
<path d="M48.0716 21.524C48.0716 27.401 43.3073 32.1652 37.4304 32.1652C31.5534 32.1652 26.7891 27.401 26.7891 21.524C26.7891 15.647 31.5533 10.8828 37.4302 10.8828C43.3072 10.8828 48.0716 15.647 48.0716 21.524Z" fill="#FF5757"/>
<path d="M37.4291 10.4141C31.3037 10.4141 26.3203 15.3974 26.3203 21.5229C26.3203 27.6483 31.3037 32.6317 37.4291 32.6317C43.5546 32.6317 48.5379 27.6483 48.5379 21.5229C48.5379 15.3974 43.5546 10.4141 37.4291 10.4141ZM37.4291 31.1938C32.0965 31.1938 27.7582 26.8555 27.7582 21.5229C27.7582 16.1903 32.0965 11.8519 37.4291 11.8519C42.7617 11.8519 47.1001 16.1903 47.1001 21.5229C47.1001 26.8555 42.7617 31.1938 37.4291 31.1938Z" fill="#FF4343"/>
<path d="M42.9526 16.0007C39.9073 12.9555 34.9522 12.9555 31.907 16.0007C28.8617 19.0461 28.8617 24.0011 31.907 27.0463C33.4296 28.5689 35.4297 29.3303 37.4298 29.3303C39.4299 29.3303 41.43 28.5689 42.9526 27.0463C45.9978 24.0011 45.9978 19.0459 42.9526 16.0007ZM32.9758 17.0696C34.2039 15.8416 35.8165 15.2278 37.4297 15.2278C38.8048 15.2278 40.1793 15.6758 41.3159 16.5685L32.4745 25.4099C30.535 22.9401 30.701 19.3446 32.9758 17.0696ZM41.8836 25.9774C39.6086 28.2519 36.0131 28.418 33.5435 26.4787L42.3849 17.6373C44.3244 20.1069 44.1584 23.7025 41.8836 25.9774Z" fill="#FFF5F5"/>
</svg>
