<svg width="58" height="58" viewBox="0 0 58 58" fill="none" xmlns="http://www.w3.org/2000/svg">
<g clip-path="url(#clip0_10655_110346)">
<path d="M0.26001 32.7992C0.630326 35.5036 1.38874 38.0841 2.47976 40.4818L6.35205 46.6711C6.82058 47.2379 7.31233 47.7847 7.82369 48.3124L12.7123 52.3273C12.9951 52.51 13.2818 52.687 13.5716 52.8595L17.8554 54.9346C18.926 55.3434 20.0284 55.6878 21.1579 55.9632L25.7432 56.6809C25.8209 56.6865 25.899 56.6908 25.9769 56.6958L30.6154 56.608C31.8527 56.4812 33.0651 56.2718 34.2488 55.988L38.8565 54.4421C39.0901 54.34 39.322 54.235 39.5522 54.1267L44.8242 50.8843C45.6612 50.2305 46.4592 49.5291 47.2153 48.7852L51.954 42.5952C54.2163 38.577 55.5084 33.9396 55.5084 28.9999C55.5084 13.6717 43.0825 1.24576 27.7543 1.24576C15.1276 1.24576 4.47192 9.6783 1.10747 21.2185L0.26001 32.7992Z" fill="#47354F"/>
<path d="M11.8305 41.4912C11.6607 41.717 11.4252 41.8666 11.1588 41.9323C10.4626 42.1035 9.77284 41.6564 9.64155 40.9575L9.52204 39.1655C8.56005 39.3091 7.56861 39.3647 6.58352 39.3337C6.64628 39.3978 6.71425 39.4587 6.79128 39.5128C6.5006 39.7046 6.12654 40.11 6.12654 40.9263L6.12666 43.9231C6.1253 43.9672 6.10695 44.894 6.73294 45.2559C7.03529 45.105 7.47323 45.2416 7.52489 45.673L7.8235 48.3124C9.29242 49.828 10.9319 51.177 12.7121 52.3273L11.8305 41.4912Z" fill="#4F71B6"/>
<path d="M6.29653 40.9262C6.29653 39.7179 7.16506 39.521 7.16506 39.521C7.04385 39.4739 6.93759 39.4117 6.84413 39.3394C5.55171 39.319 4.26483 39.1497 3.06507 38.8282C2.89288 38.7821 2.7455 38.6849 2.63653 38.5561L2.47986 40.4817C3.49814 42.7196 4.80439 44.7987 6.35215 46.671L6.44788 45.682C6.48322 45.3376 6.7671 45.1771 7.03535 45.1991L7.03569 45.1975C6.26436 45.0037 6.29664 43.9282 6.29664 43.9282C6.29664 43.9282 6.29653 42.1346 6.29653 40.9262Z" fill="#3C58A0"/>
<path d="M10.9535 22.2184C11.1767 21.6553 11.4942 21.1525 11.883 20.7238C11.7225 20.7049 11.5597 20.695 11.3953 20.695H9.83111C9.54315 22.1344 8.4578 23.5368 7.11406 23.5368C7.07793 23.5368 7.04202 23.5353 7.00622 23.5333C6.49623 23.9001 6.00391 24.5069 6.00391 25.4823L6.00402 37.8929C6.00595 37.9429 6.05432 38.9958 6.79132 39.5128C6.7894 39.5141 6.78736 39.5157 6.78543 39.5169C7.70788 39.5347 8.63384 39.477 9.53375 39.342L9.09705 32.7952L9.09479 32.7779C8.93415 31.8913 9.01005 31.5299 9.50384 29.1778C10.0845 26.4128 10.8605 22.4765 10.9535 22.2184Z" fill="#49B1F7"/>
<path d="M6.17383 37.8866C6.17383 37.8866 6.17383 27.3798 6.17383 25.4823C6.17383 24.4322 6.7809 23.8423 7.32318 23.5245C7.25419 23.5319 7.18464 23.5367 7.11406 23.5367C5.77032 23.5367 4.68486 22.1343 4.3969 20.6949H3.30011C2.51711 20.6949 1.77025 20.8809 1.10732 21.2185C0.387535 23.6877 0 26.2984 0 29C0 29.2978 0.00634375 29.5942 0.0156328 29.8897C0.286035 29.9445 0.583738 29.9844 0.914633 30.0028L1.54821 26.8929C1.60723 26.6034 1.88806 26.4067 2.19165 26.4651C2.45175 26.5152 2.63186 26.7559 2.63186 27.0209L2.43555 38.1739C2.42875 38.5631 2.68873 38.9057 3.06482 39.0065C4.36337 39.3544 5.76375 39.5249 7.16289 39.5202C6.22107 39.1522 6.17383 37.8866 6.17383 37.8866Z" fill="#1E9EF4"/>
<path d="M9.96994 20.6949H4.2583C4.54955 22.243 5.71714 23.6702 7.11412 23.6702C8.51111 23.6702 9.67858 22.2431 9.96994 20.6949Z" fill="#FFAA7B"/>
<path d="M11.1371 15.6598C11.1371 18.1314 9.33591 20.7574 7.11401 20.7574C4.89211 20.7574 3.09094 18.1312 3.09094 15.6598C3.09094 13.1883 4.89211 11.5997 7.11401 11.5997C9.33591 11.5997 11.1371 13.1882 11.1371 15.6598Z" fill="#FFC7AB"/>
<path d="M24.4535 40.857C24.2819 41.0607 24.0512 41.2114 23.7823 41.2778C23.0504 41.4584 22.324 40.9873 22.186 40.252L22.058 38.3336C21.0171 38.491 19.9427 38.5497 18.8764 38.5119C19.0201 38.6089 19.1867 38.6957 19.3803 38.766C19.1306 38.9778 18.852 39.3791 18.852 40.1145V43.8742C18.8516 43.901 18.8503 44.3927 19.1376 44.7075C19.4525 44.5765 19.8802 44.7249 19.9324 45.1606L21.1579 55.9632C22.6432 56.3254 24.1749 56.5687 25.7432 56.681L24.4535 40.857Z" fill="#4F71B6"/>
<path d="M19.2314 38.5207C17.872 38.5002 16.5183 38.3225 15.2564 37.9845C15.0759 37.9361 14.9213 37.8341 14.8071 37.6991L13.5715 52.8595C14.929 53.6681 16.3611 54.364 17.8554 54.9346L18.8031 45.1702C18.8366 44.8431 19.0844 44.6741 19.3398 44.662C19.0162 44.408 19.0219 43.8763 19.0219 43.8763C19.0219 43.8763 19.0219 41.3039 19.0219 40.1145C19.0219 38.925 19.8102 38.7109 19.8102 38.7109C19.5863 38.6641 19.3957 38.5984 19.2314 38.5207Z" fill="#3C58A0"/>
<path d="M9.79379 27.0197C10.1069 27.5472 10.9485 28.4605 13.0349 28.57L12.5841 30.7827C12.3649 31.8587 12.0576 32.3786 11.9677 33.6177L11.9615 36.336C11.961 36.5932 11.9762 36.8504 12.0069 37.1057C12.0665 37.6019 12.1167 38.0768 12.3859 38.5111L12.7444 39.0895C12.9023 39.3443 12.793 39.666 12.5261 39.8025C12.3609 39.887 12.2564 40.0573 12.2564 40.2435V40.688C12.2564 41.3384 11.8274 41.9269 11.1961 42.0827C10.4117 42.2763 9.631 41.7675 9.4877 40.9769L8.9427 32.8057C8.73619 31.6669 8.90294 31.3874 9.79379 27.0197Z" fill="#FFAA7B"/>
<path d="M23.559 20.6436C23.8037 20.0262 24.1561 19.4776 24.5896 19.0151C24.3928 18.9878 24.1928 18.9729 23.9901 18.9729H22.3503C22.0484 20.482 20.9105 21.9523 19.5017 21.9523C19.4411 21.9523 19.3811 21.9486 19.3215 21.9433C18.6853 22.5242 18.0778 23.3969 18.0778 24.6138V37.1812C18.084 37.576 18.3483 38.3211 19.2373 38.7077C20.1888 38.7217 21.1429 38.6595 22.0705 38.5185L21.6164 31.7122L21.6142 31.6949C21.4458 30.766 21.5252 30.3878 22.0419 27.9274C22.5481 25.5165 23.4616 20.9086 23.559 20.6436Z" fill="#49B1F7"/>
<path d="M18.2477 37.1786C18.2477 37.1786 18.2477 27.0682 18.2477 24.6138C18.2477 23.3674 18.9098 22.5014 19.5615 21.9503C19.5416 21.9509 19.5216 21.9522 19.5016 21.9522C18.0928 21.9522 16.9548 20.4818 16.6529 18.9728H15.503C13.4195 18.9728 11.5771 20.2243 10.8094 22.1612C10.7176 22.3924 10.7812 22.1805 9.74658 27.2506C10.1382 27.8178 11.0374 28.6229 13.0018 28.7315L13.6662 25.471C13.7281 25.1676 14.0225 24.9612 14.3408 25.0225C14.6135 25.075 14.8023 25.3274 14.8023 25.6051L14.5966 37.2983C14.5895 37.7063 14.862 38.0656 15.2562 38.1711C16.6924 38.556 18.2473 38.7336 19.7943 38.7072C18.2669 38.3796 18.2477 37.1786 18.2477 37.1786Z" fill="#1E9EF4"/>
<path d="M22.4957 18.9729H16.5074C16.8129 20.596 18.037 22.0924 19.5016 22.0924C20.9662 22.0924 22.1903 20.596 22.4957 18.9729Z" fill="#FFAA7B"/>
<path d="M23.7195 13.6938C23.7195 16.285 21.8311 19.0384 19.5016 19.0384C17.1721 19.0384 15.2837 16.2851 15.2837 13.6938C15.2837 11.1025 17.1721 9.43701 19.5016 9.43701C21.8311 9.43701 23.7195 11.1026 23.7195 13.6938Z" fill="#FFC7AB"/>
<path d="M37.7279 40.6142C37.2976 41.1106 36.5446 41.2686 35.9309 40.8711C35.6083 40.6621 35.3919 40.3393 35.3213 39.962L35.1578 37.5095C34.115 37.6656 33.0407 37.7278 31.9725 37.6968C32.0895 37.7947 32.2302 37.8832 32.3998 37.9522C32.1324 38.1685 31.8745 38.5461 31.8745 39.1327L31.8747 43.1387C31.8736 43.1672 31.8604 43.7451 32.2635 44.1335C32.5687 44.0826 32.9121 44.2531 32.9594 44.6483L34.2488 55.9881C35.8427 55.6059 37.3828 55.0862 38.8565 54.4422L37.7279 40.6142Z" fill="#4F71B6"/>
<path d="M32.0444 39.1326C32.0444 38.1273 32.8421 37.9005 32.8421 37.9005C32.6102 37.8612 32.4255 37.7892 32.2746 37.7022C30.8361 37.6844 29.4027 37.4983 28.0674 37.1406C27.8786 37.09 27.7169 36.9834 27.5974 36.8421L25.9769 56.6958C26.5647 56.7329 27.157 56.754 27.7542 56.754C28.7203 56.754 29.6748 56.7044 30.6153 56.608L31.7777 44.6583C31.8241 44.2062 32.2605 44.0417 32.5911 44.1657L32.5912 44.1646C32.0192 43.8583 32.0444 43.1445 32.0444 43.1445C32.0444 43.1445 32.0444 40.138 32.0444 39.1326Z" fill="#3C58A0"/>
<path d="M37.2045 17.2508H35.489C35.1749 18.8207 33.9959 20.3497 32.5336 20.367C31.9819 20.9148 31.4828 21.736 31.4828 22.9144V36.842L31.484 36.8621C31.5162 37.1337 31.7271 37.6217 32.2798 37.8977C33.2508 37.9095 34.2239 37.8453 35.1707 37.7029L34.7193 30.9371L34.7171 30.9198C34.5017 29.7312 34.6709 29.3863 35.5719 25C35.7077 24.3195 36.6835 19.4793 36.7728 19.2363C37.0651 18.4991 37.5027 17.8548 38.0448 17.3293C37.771 17.2782 37.4902 17.2508 37.2045 17.2508Z" fill="#49B1F7"/>
<path d="M31.6527 36.8421C31.6527 36.8421 31.6527 25.4445 31.6527 22.9145C31.6527 21.6842 32.2153 20.8656 32.7933 20.3483C32.6997 20.361 32.6048 20.3679 32.5087 20.3679C31.0348 20.3679 29.8442 18.8296 29.5284 17.2508H28.3254C26.1457 17.2508 24.2181 18.5601 23.415 20.5865C23.319 20.8284 23.3854 20.6067 22.3031 25.9109C22.7128 26.5043 23.6536 27.3466 25.7087 27.4603L26.4037 24.0492C26.4685 23.7318 26.7764 23.5158 27.1095 23.58C27.3948 23.6349 27.5923 23.899 27.5923 24.1895L27.3771 36.4229C27.3696 36.8498 27.6547 37.2256 28.0672 37.336C29.5727 37.7394 31.2028 37.9252 32.8245 37.8967C31.7562 37.7057 31.6527 36.8421 31.6527 36.8421Z" fill="#1E9EF4"/>
<path d="M22.3524 25.6694C22.68 26.2212 23.5604 27.1768 25.7431 27.2913L25.2716 29.6062C25.0423 30.7319 24.7208 31.2758 24.6265 32.5721L24.6202 35.4159C24.6196 35.685 24.6355 35.954 24.6675 36.2212C24.73 36.7404 24.7825 37.2371 25.0641 37.6915L25.4392 38.2967C25.6044 38.5632 25.4901 38.8998 25.2108 39.0426C25.038 39.1311 24.9287 39.309 24.9287 39.504V39.969C24.9287 40.6494 24.4798 41.2651 23.8193 41.4281C22.9987 41.6306 22.1818 41.0983 22.0319 40.2711L21.4618 31.7225C21.2459 30.5312 21.4203 30.2389 22.3524 25.6694Z" fill="#FFAA7B"/>
<path d="M35.6411 17.2508H29.3762C29.6957 18.9489 30.9764 20.5143 32.5087 20.5143C34.0409 20.5145 35.3216 18.9489 35.6411 17.2508Z" fill="#FFAA7B"/>
<path d="M36.9215 11.7279C36.9215 14.4388 34.9458 17.3193 32.5087 17.3193C30.0716 17.3193 28.0959 14.4388 28.0959 11.7279C28.0959 9.01697 30.0716 7.27448 32.5087 7.27448C34.9458 7.27448 36.9215 9.01697 36.9215 11.7279Z" fill="#FFC7AB"/>
<path d="M51.4286 36.3577C51.3022 36.5069 51.1315 36.6195 50.932 36.673C49.469 37.0651 47.8941 37.2632 46.3175 37.2695C46.4 37.3464 46.4914 37.4174 46.5932 37.4803C46.1991 37.721 45.5832 38.2475 45.5832 39.1893L45.5834 42.9186C45.5815 42.9541 45.5556 43.5646 45.8691 44.0911C46.2133 43.9701 46.659 44.1405 46.7149 44.6068L47.2152 48.7854C49.0697 46.9611 50.6685 44.8785 51.9539 42.5953L51.4286 36.3577Z" fill="#4F71B6"/>
<path d="M41.5451 36.673C41.3455 36.6195 41.1746 36.5068 41.0483 36.3576L39.552 54.1268C41.4345 53.2414 43.2017 52.1516 44.824 50.8845L45.4661 44.6174C45.5027 44.2604 45.77 44.0742 46.0483 44.0565C45.7201 43.5537 45.7528 42.9276 45.7528 42.9276C45.7528 42.9276 45.7528 40.4637 45.7528 39.1893C45.7528 37.9149 46.9722 37.4773 46.9722 37.4773C46.8245 37.422 46.6956 37.3495 46.5816 37.2654C44.8649 37.2959 43.1387 37.0999 41.5451 36.673Z" fill="#3C58A0"/>
<path d="M55.8915 28.5229C55.2137 28.7243 54.6625 29.2558 54.2507 30.1036C54.391 30.6003 54.5143 31.1074 54.5679 31.8452L54.5746 34.8504C54.5753 35.1347 54.5585 35.4191 54.5245 35.7015C54.4585 36.2501 54.403 36.7751 54.1055 37.2551L53.7091 37.8946C53.5345 38.1763 53.6554 38.5319 53.9504 38.6829C54.1331 38.7764 54.2487 38.9646 54.2487 39.1705V39.662C54.2487 40.3809 54.723 41.0317 55.4209 41.204C56.2881 41.418 57.1513 40.8554 57.3096 39.9815L57.9122 30.9476C58.0393 30.2461 58.0383 29.8392 57.8421 28.7811C57.5362 28.6168 56.7443 28.2691 55.8915 28.5229Z" fill="#FFC7AB"/>
<path d="M57.8816 29C57.7357 28.1603 57.4468 26.8824 56.9711 24.5508C56.625 25.134 55.6946 26.1436 53.3879 26.2646L53.8864 28.7109C54.0203 29.3682 54.1839 29.8381 54.3202 30.3578C55.5776 27.4925 57.8815 28.9999 57.8816 29Z" fill="#FFAA7B"/>
<path d="M55.7637 18.9453C55.1144 16.979 53.2715 15.6544 51.2008 15.6544H49.3879C49.0736 17.2252 47.94 18.7575 46.5087 18.9315C46.008 19.72 45.5831 20.7833 45.5831 22.1216L45.5832 35.2171C45.5803 35.2876 45.5292 36.8099 46.5805 37.472C48.069 37.4456 49.5502 37.2497 50.9319 36.8795C51.3677 36.7627 51.6691 36.3657 51.6612 35.9145L51.4337 22.9868C51.4337 22.6798 51.6424 22.4008 51.944 22.3427C52.2959 22.2749 52.6214 22.5031 52.6898 22.8385L53.4242 26.4432C55.5959 26.3232 56.5902 25.4331 57.0232 24.806C55.6798 18.2198 56.0177 19.7142 55.7637 18.9453Z" fill="#49B1F7"/>
<path d="M45.7529 35.2245C45.7529 35.2245 45.7529 25.2557 45.7529 22.1216C45.7529 20.7493 46.2204 19.6695 46.7462 18.8891C46.5811 18.9271 46.4119 18.9483 46.2386 18.9483C44.6811 18.9483 43.423 17.3227 43.0891 15.6544H41.8178C39.5144 15.6544 37.4775 17.0381 36.6287 19.1794C36.5273 19.435 36.5974 19.2007 35.4537 24.806C35.8867 25.4331 36.881 26.3232 39.0527 26.4432L39.7871 22.8385C39.8555 22.5031 40.181 22.2749 40.5329 22.3427C40.8345 22.4008 41.0433 22.6798 41.0433 22.9868L40.8158 35.9145C40.8079 36.3655 41.1093 36.7627 41.5451 36.8795C43.2494 37.3361 45.1052 37.5299 46.939 37.4634C45.6796 36.9605 45.7529 35.2245 45.7529 35.2245Z" fill="#1E9EF4"/>
<path d="M35.5059 24.5508C35.8521 25.134 36.7825 26.1436 39.0891 26.2646L38.5907 28.7109C38.3483 29.9005 38.0086 30.4753 37.909 31.8451L37.9024 34.8503C37.9017 35.1346 37.9184 35.419 37.9524 35.7014C38.0184 36.25 38.074 36.775 38.3715 37.255L38.7678 37.8945C38.9424 38.1762 38.8215 38.5318 38.5265 38.6828C38.3438 38.7763 38.2283 38.9645 38.2283 39.1704V39.6619C38.2283 40.3808 37.754 41.0316 37.056 41.2039C36.1889 41.4179 35.3257 40.8553 35.1673 39.9814L34.5648 30.9475C34.3366 29.6885 34.521 29.3796 35.5059 24.5508Z" fill="#FFAA7B"/>
<path d="M49.5487 15.6544H42.9282C43.2659 17.4489 44.6193 19.1032 46.2384 19.1032C47.8577 19.1032 49.211 17.4489 49.5487 15.6544Z" fill="#FFAA7B"/>
<path d="M50.9018 9.81809C50.9018 12.6829 48.814 15.727 46.2385 15.727C43.6631 15.727 41.5753 12.683 41.5753 9.81809C41.5753 6.95321 43.6631 5.11194 46.2385 5.11194C48.814 5.11194 50.9018 6.95333 50.9018 9.81809Z" fill="#FFC7AB"/>
<path d="M0.259981 32.7992C0.318888 32.588 0.377114 32.3632 0.430017 32.1037L0.914634 30.0028C0.604243 29.9865 0.280146 29.9435 0.0157471 29.8925C0.0467861 30.8753 0.129368 31.8448 0.259981 32.7992Z" fill="#FFAA7B"/>
</g>
<defs>
<clipPath id="clip0_10655_110346">
<rect width="58" height="58" fill="white"/>
</clipPath>
</defs>
</svg>
