<svg width="58" height="58" viewBox="0 0 58 58" fill="none" xmlns="http://www.w3.org/2000/svg">
<path d="M36.4995 54.9993C40.6452 50.3894 55.0258 35.6877 55.0258 28.9998C55.0258 14.6261 43.3737 2.97394 29 2.97394C14.6263 2.97394 2.97412 14.6261 2.97412 28.9998C2.97412 35.5606 14.4934 48.9218 18.4995 53.4993L36.4995 54.9993Z" fill="#816AE2"/>
<path d="M36.9893 19.4191C36.6233 19.0836 35.8049 19.2537 35.4896 19.4591C35.5587 19.8892 35.5626 20.3292 35.503 20.7638L35.1309 23.4735C35.1309 23.6919 35.124 23.9063 35.1113 24.1169C36.0186 24.3905 36.5585 23.5761 36.6343 23.0171C36.667 22.7765 36.7205 22.5394 36.7945 22.3079C37.036 21.5541 37.9065 20.2596 36.9893 19.4191Z" fill="#FFAA7B"/>
<path d="M51.6439 16.1635C48.3111 17.3141 42.5638 19.8755 41.2749 24.1712C39.4337 30.3081 42.7614 32.7555 48.3566 34.5887C51.0061 35.4568 51.6453 38.1001 52.1615 40.8757C53.9914 37.315 55.0258 33.2785 55.0258 28.9997C55.0258 24.3317 53.7958 19.9515 51.6439 16.1635Z" fill="#9181F2"/>
<path d="M15.7097 16.7173C16.0633 13.7503 14.3542 10.9199 12.554 8.82928C6.70769 13.6017 2.97412 20.8644 2.97412 28.9998C2.97412 32.4898 3.66141 35.8189 4.90767 38.86C5.65232 36.9684 6.97729 34.9044 9.33596 33.6295C14.6066 30.7806 15.0015 22.6597 15.7097 16.7173Z" fill="#9181F2"/>
<path d="M19.9164 14H42.2316V41.5543H19.9164V14Z" fill="#ECF9FB"/>
<path d="M29.0004 14H42.2331V41.5553H29.0004V14Z" fill="#D5E7F6"/>
<path d="M38.0826 18.1494V45.7035H21.3784L15.767 40.0929V18.1494H38.0826Z" fill="white"/>
<path d="M29.0001 18.1494H38.0832V45.7034H29.0001V18.1494Z" fill="#ECF9FB"/>
<path d="M21.3784 40.0931V45.7037L15.767 40.0931H21.3784Z" fill="#B1D5F1"/>
<circle cx="29" cy="29" r="26" stroke="#FE646F" stroke-width="6"/>
<path d="M10.0916 43.978L44.1975 10.0455L48.174 14.022L14.068 47.9544L10.0916 43.978Z" fill="#FE646F"/>
<path d="M31.1245 57.9207C30.4138 57.9739 29.6952 58 28.971 58C12.9702 58 0 45.0157 0 29C0 12.9843 12.9702 0 28.971 0C29.6952 0 30.4138 0.0260547 31.1245 0.0792969C16.1287 1.18152 4.30604 13.7093 4.30604 29C4.30604 44.2907 16.1287 56.8185 31.1245 57.9207Z" fill="#FD4755"/>
<path d="M51.2969 35.9334H7.70312C7.31482 35.9334 7 35.6186 7 35.2303V24.6364C7 24.2481 7.31482 23.9333 7.70312 23.9333H51.2969C51.6852 23.9333 52 24.2481 52 24.6364V35.2302C52 35.6186 51.6852 35.9334 51.2969 35.9334Z" fill="#9EE2F8"/>
<path d="M51.2747 23.9333H49.1923C49.5923 23.9333 49.9166 24.2576 49.9166 24.6576V35.2089C49.9166 35.609 49.5923 35.9332 49.1923 35.9332H51.2747C51.6748 35.9332 51.999 35.6089 51.999 35.2089V24.6576C51.999 24.2576 51.6747 23.9333 51.2747 23.9333Z" fill="#6AA9FF"/>
<path d="M41.0025 26.8614C41.0001 26.8552 40.9977 26.8489 40.995 26.8427C40.869 26.5367 40.574 26.3392 40.2433 26.3392C40.2429 26.3392 40.2426 26.3392 40.2423 26.3392C39.9111 26.3396 39.6161 26.538 39.4908 26.8444C39.4887 26.8495 39.4866 26.8547 39.4847 26.8599L37.2645 32.6892C37.131 33.0396 37.307 33.432 37.6575 33.5655C38.0075 33.699 38.4002 33.5231 38.5337 33.1725L38.9201 32.1581H41.5498L41.9319 33.1707C42.0345 33.4426 42.293 33.6101 42.5673 33.6101C42.6469 33.6101 42.728 33.596 42.807 33.5662C43.1578 33.4338 43.3349 33.042 43.2025 32.6911L41.0025 26.8614ZM39.4373 30.7999L40.2409 28.69L41.0372 30.7999H39.4373Z" fill="#F2F2FC"/>
<path d="M16.4288 32.1589C16.4275 32.1589 16.4262 32.1589 16.4249 32.1589C15.9448 32.1616 15.4291 32.1635 15.0374 32.1638V26.9304C15.0374 26.5552 14.7334 26.2513 14.3584 26.2513C13.9833 26.2513 13.6793 26.5553 13.6793 26.9304V32.8379C13.6793 33.1687 13.9175 33.4512 14.2434 33.5072C14.292 33.5157 14.3315 33.5223 14.9848 33.5223C15.3005 33.5223 15.7598 33.5208 16.4327 33.5171C16.8077 33.515 17.11 33.2092 17.1079 32.8342C17.1056 32.4604 16.802 32.1589 16.4288 32.1589Z" fill="#F2F2FC"/>
<path d="M20.928 32.1589C20.9266 32.1589 20.9253 32.1589 20.9241 32.1589C20.4439 32.1616 19.9283 32.1635 19.5366 32.1638V26.9304C19.5366 26.5552 19.2325 26.2513 18.8575 26.2513C18.4824 26.2513 18.1785 26.5553 18.1785 26.9304V32.8379C18.1785 33.1687 18.4167 33.4512 18.7425 33.5072C18.7912 33.5157 18.8306 33.5223 19.4839 33.5223C19.7996 33.5223 20.2589 33.5208 20.9318 33.5171C21.3068 33.515 21.6092 33.2092 21.6071 32.8342C21.6048 32.4604 21.3012 32.1589 20.928 32.1589Z" fill="#F2F2FC"/>
<path d="M47.6372 32.1589C47.6359 32.1589 47.6345 32.1589 47.6333 32.1589C47.1532 32.1616 46.6375 32.1635 46.2458 32.1638V26.9304C46.2458 26.5552 45.9418 26.2513 45.5667 26.2513C45.1916 26.2513 44.8877 26.5553 44.8877 26.9304V32.8379C44.8877 33.1687 45.1259 33.4512 45.4518 33.5072C45.5004 33.5157 45.5398 33.5223 46.1931 33.5223C46.5088 33.5223 46.9682 33.5208 47.641 33.5171C48.0161 33.515 48.3184 33.2092 48.3163 32.8342C48.314 32.4604 48.0105 32.1589 47.6372 32.1589Z" fill="#F2F2FC"/>
<path d="M11.3582 26.2513C10.9831 26.2513 10.6792 26.5553 10.6792 26.9304V32.843C10.6792 33.2181 10.9832 33.5221 11.3582 33.5221C11.7333 33.5221 12.0373 33.2181 12.0373 32.843V26.9304C12.0373 26.5552 11.7333 26.2513 11.3582 26.2513Z" fill="#F2F2FC"/>
<path d="M26.393 27.664C26.7681 27.664 27.072 27.36 27.072 26.985C27.072 26.6099 26.768 26.3059 26.393 26.3059H23.9243C23.5492 26.3059 23.2452 26.61 23.2452 26.985V32.8436C23.2452 33.2187 23.5493 33.5226 23.9243 33.5226H26.393C26.7681 33.5226 27.072 33.2186 27.072 32.8436C27.072 32.4686 26.768 32.1646 26.393 32.1646H24.6034V30.5934H26.2109C26.586 30.5934 26.89 30.2894 26.89 29.9144C26.89 29.5393 26.586 29.2353 26.2109 29.2353H24.6034V27.6642H26.393V27.664Z" fill="#F2F2FC"/>
<path d="M34.9031 29.2076H33.1344C32.7593 29.2076 32.4554 29.5116 32.4554 29.8866C32.4554 30.2618 32.7594 30.5657 33.1344 30.5657H34.154C33.9758 31.4025 33.4403 32.1638 32.3512 32.1638C31.0955 32.1638 30.0739 31.1423 30.0739 29.8866C30.0739 28.631 31.0955 27.6093 32.3512 27.6093C32.8076 27.6093 33.2476 27.7436 33.6239 27.9979C33.9347 28.2078 34.3568 28.1261 34.5667 27.8153C34.7766 27.5046 34.6949 27.0825 34.3841 26.8725C33.7826 26.4661 33.0796 26.2513 32.3512 26.2513C30.3466 26.2513 28.7158 27.8821 28.7158 29.8867C28.7158 31.8913 30.3466 33.5221 32.3512 33.5221C34.2535 33.5221 35.5822 32.0271 35.5822 29.8867C35.5822 29.5115 35.2783 29.2076 34.9031 29.2076Z" fill="#F2F2FC"/>
</svg>
