<svg width="58" height="58" viewBox="0 0 58 58" fill="none" xmlns="http://www.w3.org/2000/svg">
<path d="M58 29C58 38.5949 53.3396 47.1012 46.1598 52.3801C39.3772 47.3358 35.4208 52.405 29 52.405C28.0394 52.405 27.0889 52.3586 26.1521 52.2668C24.7554 52.1298 23.3869 51.8953 22.0559 51.5668C21.3648 51.398 20.684 51.2043 20.0145 50.9856C17.8055 50.2663 17.4394 55.6985 15.5 54.5C14.7399 54.0299 12.2786 52.7132 11.5683 52.1785C4.54258 46.8848 0 38.4726 0 29C0 12.9843 12.9843 0 29 0C45.0157 0 58 12.9843 58 29Z" fill="#FD3581"/>
<path d="M11.7231 36.6677L11.7918 36.9531C11.9488 37.6062 11.6027 38.2755 10.9791 38.5249L8.06641 39.6898C7.30092 39.9959 6.44198 39.5518 6.2492 38.7502L5.96942 37.5866C5.77669 36.785 6.33985 35.9989 7.16079 35.9237L10.2846 35.6371C10.9536 35.5757 11.5661 36.0145 11.7231 36.6677Z" fill="#FFE177"/>
<path d="M14.0101 40.2209L14.2107 40.4352C14.6698 40.9256 14.6994 41.6785 14.2802 42.2034L12.3227 44.6546C11.8082 45.2989 10.842 45.3368 10.2786 44.735L9.46066 43.8612C8.89723 43.2593 8.99874 42.2978 9.67549 41.8269L12.2504 40.035C12.8017 39.6514 13.5511 39.7305 14.0101 40.2209Z" fill="#FFE177"/>
<path d="M12.212 32.7466L12.2933 32.4646C12.4792 31.8191 12.1633 31.135 11.5513 30.8581L8.69336 29.5647C7.94227 29.2247 7.06445 29.6302 6.83624 30.4224L6.50489 31.5724C6.27664 32.3646 6.80426 33.1749 7.62102 33.2867L10.729 33.7121C11.3945 33.8032 12.026 33.3921 12.212 32.7466Z" fill="#FFE177"/>
<path d="M28.021 43.4672H30.0479C33.6894 38.7974 47.2949 41.5678 42.8632 57.2009H15.2057C10.774 41.5679 24.3794 38.7974 28.021 43.4672Z" fill="#EC6B59"/>
<path d="M32.8788 41.6837C37.2957 42.8153 41.4176 47.5644 38.6857 57.2009H42.8634C46.4836 44.4304 38.0674 40.2432 32.8788 41.6837Z" fill="#BC4142"/>
<path d="M29.0344 46.9682C31.3417 46.9682 33.2121 45.0978 33.2121 42.7905V37.6199H24.8568V42.7905C24.8568 45.0978 26.7272 46.9682 29.0344 46.9682Z" fill="#F6BB93"/>
<path d="M24.8568 41.7418C27.456 42.3352 30.4187 42.4937 33.2121 42.2173V37.6199H24.8568V41.7418Z" fill="#E49775"/>
<path d="M14.6773 29.0589H19.3458V21.999H14.6773C12.7277 21.999 11.1473 23.5794 11.1473 25.529C11.1473 27.4784 12.7277 29.0589 14.6773 29.0589Z" fill="#F6BB93"/>
<path d="M43.3925 29.0589H38.724V21.999H43.3925C45.3421 21.999 46.9225 23.5794 46.9225 25.529C46.9225 27.4784 45.3421 29.0589 43.3925 29.0589Z" fill="#F6BB93"/>
<path d="M16.4709 27.6607C15.6005 23.8923 14.3139 18.8694 13.7339 16.4193C10.0053 13.182 9.23385 6.33914 11.4884 1.47531C11.8134 0.774218 12.709 0.564875 13.3088 1.05221C14.7906 2.25616 17.7136 3.39792 23.1778 1.39375C33.8191 -2.50934 42.7799 2.74553 43.2944 5.43607C43.8697 5.43607 46.6641 5.83198 46.6641 8.57995C46.6641 10.9173 42.8228 23.3665 41.1665 27.6605H16.4709V27.6607Z" fill="#52668D"/>
<path d="M43.2945 5.43627C42.8903 3.32188 37.2693 -0.376291 29.7159 0.0312942C35.4166 0.377934 39.4845 3.54232 39.8084 5.43627C40.323 5.43627 42.8229 5.83218 42.8229 8.58015C42.8229 10.9175 39.3864 23.3667 37.9048 27.6607H41.1666C42.8229 23.3667 46.6642 10.9175 46.6642 8.58015C46.6642 5.83218 43.8698 5.43627 43.2945 5.43627Z" fill="#243B5D"/>
<path d="M15.87 32.4204C15.87 41.7173 42.1987 41.7173 42.1987 32.4204C42.1987 27.0933 41.4863 18.0736 39.934 14.5676C39.5655 13.7352 38.7641 12.8811 38.1082 12.489C37.5534 12.1574 36.9715 11.9699 36.3797 11.9699C35.7177 11.9699 35.0717 12.182 34.4233 12.489C32.7428 13.283 31.0477 14.7082 29.0345 14.7082C27.0213 14.7082 25.3261 13.283 23.6457 12.489C22.9973 12.182 22.3513 11.9699 21.6891 11.9699C21.0973 11.9699 20.5154 12.1573 19.9607 12.489C19.3035 12.8811 18.5012 13.7366 18.1311 14.5712C16.5851 18.0582 15.87 26.9922 15.87 32.4204Z" fill="#F6BB93"/>
<path d="M39.9341 14.5676C39.5656 13.7352 38.7642 12.8811 38.1083 12.489C37.5535 12.1573 36.9716 11.9699 36.3798 11.9699C35.8984 11.9699 35.4255 12.083 34.9539 12.2622C35.0821 12.3278 35.2091 12.4034 35.3344 12.489C35.9085 12.8811 36.6099 13.7352 36.9324 14.5676C38.2911 18.0737 38.9147 27.0934 38.9147 32.4204C38.9147 36.8626 33.6535 39.1821 28.1589 39.3792C35.0197 39.5946 42.199 37.2752 42.199 32.4204C42.1989 27.0934 41.4864 18.0737 39.9341 14.5676Z" fill="#E49775"/>
<path d="M35.3228 25.8849C34.8395 25.8849 34.4476 25.4931 34.4476 25.0097V23.6667C34.4476 23.1833 34.8395 22.7915 35.3228 22.7915C35.8062 22.7915 36.198 23.1833 36.198 23.6667V25.0097C36.198 25.4931 35.8062 25.8849 35.3228 25.8849Z" fill="#223372"/>
<path d="M33.1044 22.8743C32.753 22.8743 32.4216 22.6612 32.2876 22.3137C32.1137 21.8626 32.3384 21.356 32.7894 21.1823L37.6383 19.3131C38.0894 19.1393 38.596 19.3639 38.7697 19.815C38.9436 20.266 38.7189 20.7726 38.2679 20.9464L33.419 22.8155C33.3155 22.8554 33.2091 22.8743 33.1044 22.8743Z" fill="#243B5D"/>
<path d="M22.7474 25.8849C22.264 25.8849 21.8722 25.4931 21.8722 25.0097V23.6667C21.8722 23.1833 22.264 22.7915 22.7474 22.7915C23.2308 22.7915 23.6226 23.1833 23.6226 23.6667V25.0097C23.6226 25.4931 23.2308 25.8849 22.7474 25.8849Z" fill="#223372"/>
<path d="M24.9659 22.8743C24.8611 22.8743 24.7548 22.8554 24.6512 22.8155L19.8024 20.9464C19.3514 20.7725 19.1266 20.2659 19.3005 19.8149C19.4744 19.3638 19.9811 19.1394 20.432 19.3131L25.2808 21.1822C25.7318 21.3561 25.9566 21.8627 25.7827 22.3137C25.6488 22.6611 25.3173 22.8743 24.9659 22.8743Z" fill="#243B5D"/>
<path d="M24.9505 34.3108C24.3647 34.3108 23.9398 33.7525 24.0949 33.1875C24.7978 30.6261 26.7439 28.7846 29.0345 28.7846C31.3252 28.7846 33.2713 30.6261 33.9742 33.1875C34.1292 33.7525 33.7044 34.3108 33.1186 34.3108H24.9505Z" fill="#BC4142"/>
<path d="M33.3015 31.5477H24.7675C25.7124 29.8767 27.271 28.7846 29.0345 28.7846C30.7981 28.7846 32.3565 29.8767 33.3015 31.5477Z" fill="#EBEEF2"/>
<path d="M46.1422 43.3488H43.8151C40.9599 43.3488 38.6454 45.6633 38.6454 48.5184V50.2025C38.6454 51.0101 39.3 51.6647 40.1076 51.6647H41.3087V56.7496C41.3087 57.4401 41.8686 57.9999 42.5591 57.9999C43.2497 57.9999 43.8095 57.4401 43.8095 56.7496V53.4705C43.8095 54.1611 44.3694 54.7209 45.0599 54.7209C45.7505 54.7209 46.3103 54.1611 46.3103 53.4705C46.3103 54.1611 46.8701 54.7209 47.5607 54.7209C48.2513 54.7209 48.8111 54.1611 48.8111 53.4705C48.8111 54.1611 49.3709 54.7209 50.0615 54.7209C50.7521 54.7209 51.3119 54.1611 51.3119 53.4705V48.5184C51.3119 45.6632 48.9973 43.3488 46.1422 43.3488Z" fill="#F6BB93"/>
<path d="M46.1422 43.3488H43.9865C46.8416 43.3488 49.1561 45.6633 49.1561 48.5184V53.4705C49.1561 53.7019 49.0932 53.9185 48.9836 54.1044C49.201 54.4733 49.6024 54.7209 50.0615 54.7209C50.752 54.7209 51.3119 54.1611 51.3119 53.4705V48.5184C51.3119 45.6634 48.9973 43.3488 46.1422 43.3488Z" fill="#E49775"/>
<path d="M20.3079 57.0229V52.6632C20.3079 52.1798 19.9161 51.788 19.4327 51.788C18.9493 51.788 18.5575 52.1798 18.5575 52.6632V57.0229C18.5575 57.0838 18.5638 57.1434 18.5757 57.2009H20.2899C20.3017 57.1433 20.3079 57.0838 20.3079 57.0229Z" fill="#BC4142"/>
<path d="M40.7972 48.5975C40.5148 48.5975 40.2858 48.8265 40.2858 49.109V51.6646H41.3086V49.109C41.3086 48.8265 41.0796 48.5975 40.7972 48.5975Z" fill="#E49775"/>
</svg>
