<svg width="58" height="58" viewBox="0 0 58 58" fill="none" xmlns="http://www.w3.org/2000/svg">
<path d="M10.1401 50.6053L47.845 50.6196C53.3234 45.5498 56.7544 38.2993 56.7544 30.2463C56.7544 14.9181 44.3284 2.49219 29.0002 2.49219C13.672 2.49219 1.24609 14.9181 1.24609 30.2463C1.24609 38.2918 4.6707 45.5362 10.1401 50.6053Z" fill="#E80054"/>
<path d="M31.8846 2.54566C31.8846 3.7197 30.6569 3.72661 29.1425 3.72661C27.6281 3.72661 26.4004 3.7197 26.4004 2.54566C26.4005 1.37161 27.6281 0 29.1426 0C30.6569 0 31.8846 1.37161 31.8846 2.54566Z" fill="#56415E"/>
<path d="M30.0261 3.03711H28.6822C28.2348 3.33991 27.2307 4.12053 26.3294 5.53632C25.2544 7.22512 24.1399 10.1718 24.9108 14.6395C24.851 14.7005 24.7551 14.8024 24.6387 14.9396C33.2307 14.3149 39.8889 15.6203 42.8967 16.3247V15.9076C42.8966 8.82884 37.1048 3.03711 30.0261 3.03711Z" fill="#6C5475"/>
<path d="M15.3867 15.9076V16.3188C18.7366 15.5563 21.9237 15.1261 24.8789 14.9228C25.0088 14.777 25.0922 14.6975 25.0922 14.6975C23.5609 6.05809 28.9995 3.03711 28.9995 3.03711H28.2572C21.1785 3.03711 15.3867 8.82884 15.3867 15.9076Z" fill="#56415E"/>
<path d="M29.4746 44.949C32.5402 44.8554 34.9717 43.8757 36.6077 42.9452C36.4659 42.1346 36.4013 41.3299 36.3774 40.6348C35.6322 41.5028 34.8501 42.2287 34.1028 42.8091C32.7719 43.8427 31.1559 44.4429 29.4746 44.5387V44.949Z" fill="#FFAA7B"/>
<path d="M28.4821 44.5359C26.8165 44.4324 25.2171 43.8337 23.8975 42.8091C23.1501 42.2289 22.368 41.5027 21.6229 40.6348C21.599 41.3299 21.5344 42.1346 21.3926 42.9452C23.021 43.8714 25.4369 44.8467 28.4821 44.9481V44.5359Z" fill="#FC9460"/>
<path d="M46.997 50.1356L42.5442 48.002C42.4896 49.1897 41.9352 50.3345 40.939 50.9197C37.5499 52.9105 34.4852 53.8122 32.5111 54.2179C30.2104 54.6909 28.5971 54.7516 26.4775 54.4021C26.4904 54.425 26.502 54.4478 26.5151 54.4707C25.8995 54.5567 24.2823 54.824 22.6824 55.4346C21.7758 55.7806 21.0125 56.1843 20.3965 56.6387C23.105 57.5214 25.9961 57.9997 28.9993 57.9997C36.2746 57.9997 42.8947 55.1991 47.8441 50.6189C47.596 50.4802 47.3229 50.3194 46.997 50.1356Z" fill="#6C5475"/>
<path d="M26.7939 54.6064C26.7591 54.549 26.7274 54.4925 26.6943 54.4356C26.3106 54.3764 25.9129 54.3051 25.4903 54.2182C23.5159 53.8124 20.4507 52.9107 17.061 50.9197C16.0668 50.3356 15.5113 49.1918 15.4558 48.0039L10.9624 50.1355C10.6474 50.313 10.382 50.4691 10.1406 50.6045C13.0992 53.3466 16.6563 55.4515 20.594 56.7021C22.9877 55.0093 26.7939 54.6064 26.7939 54.6064Z" fill="#56415E"/>
<path d="M41.2044 50.6799C39.218 50.6797 38.2065 49.4765 36.8929 46.8493C35.9855 45.0346 36.3823 43.5483 36.9321 42.5703C35.4269 43.4897 32.9501 44.6275 29.7375 44.7826C28.6363 45.3805 26.464 46.8168 25.702 49.1625C25.1659 50.8124 25.4397 52.5974 26.5153 54.4718C26.4332 54.4832 26.3319 54.4983 26.2165 54.5166C27.9516 54.8136 28.9991 54.7844 28.9991 54.7844C28.9998 54.7844 34.4134 54.9367 41.0191 51.0566C41.208 50.9455 41.3812 50.8145 41.5397 50.6682C41.4251 50.6754 41.3129 50.6799 41.2044 50.6799Z" fill="#876D93"/>
<path d="M30.1627 44.7553C29.7858 44.784 29.3988 44.8002 29.0011 44.8002C25.3667 44.8002 22.5891 43.5141 20.9824 42.5176C19.9953 41.9053 18.7904 42.1249 18.005 43.0649L16.1812 45.2478C14.7158 47.0017 15.1193 49.9618 16.9816 51.0557C21.0194 53.4275 24.6116 54.2925 26.7943 54.6067C23.1991 48.6704 28.7866 45.4386 30.1627 44.7553Z" fill="#6C5475"/>
<path d="M15.9611 22.9078C15.9408 22.9113 15.9207 22.9135 15.9004 22.9164C16.0368 23.8388 16.17 24.4367 16.17 24.4367C16.5571 24.4626 17.2435 24.6193 17.5457 24.7657C17.6197 24.3052 17.7404 23.5706 17.911 23.1324C17.9894 22.9309 18.0815 22.7286 18.1854 22.5293L15.9611 22.9078Z" fill="#47354F"/>
<path d="M39.7969 22.4922C39.9146 22.7138 40.017 22.9395 40.1032 23.1641C40.2672 23.5923 40.384 24.3159 40.4562 24.7652C40.837 24.5806 41.6627 24.3797 42.1284 24.4455C42.143 23.9404 42.1658 23.4068 42.1916 22.8923L39.7969 22.4922Z" fill="#56415E"/>
<path d="M42.9606 24.4208C42.3835 23.8919 41.0933 24.16 40.5963 24.4839C40.7052 25.162 40.7114 25.8556 40.6174 26.5406L40.0308 30.8126C40.0308 31.1569 40.0199 31.4947 40 31.8268C41.4303 32.2581 42.2814 30.9742 42.401 30.093C42.4525 29.7137 42.5367 29.3398 42.6536 28.975C43.034 27.7867 44.4065 25.7458 42.9606 24.4208Z" fill="#FFAA7B"/>
<path d="M15.0401 24.4208C15.6173 23.8919 16.9075 24.16 17.4045 24.4839C17.2957 25.162 17.2895 25.8556 17.3835 26.5406L17.97 30.8126C17.97 31.1569 17.9809 31.4947 18.0009 31.8268C16.5706 32.2581 15.7195 30.9742 15.5999 30.093C15.5483 29.7137 15.4642 29.3398 15.3472 28.975C14.9667 27.7867 13.5943 25.7458 15.0401 24.4208Z" fill="#FC9460"/>
<path d="M30.4595 27.4672C29.6469 26.9849 28.6378 26.9849 27.8253 27.4672C26.7662 28.0959 25.7961 28.5679 24.9059 28.91C24.9338 28.9452 24.963 28.9806 24.9948 29.0162C24.8665 29.2218 24.6499 29.6606 24.747 30.1624C24.8278 30.58 25.104 30.941 25.5689 31.2375C25.3685 31.5893 24.9447 32.487 25.2295 33.3782C25.4338 34.0175 25.9562 34.513 26.7839 34.8532C26.6468 35.2026 26.4006 36.0302 26.7369 36.8462C27.0087 37.5063 27.5956 38.0011 28.4822 38.3184V45.0228C28.6545 45.0335 28.8272 45.0407 29.0007 45.0407C30.8511 45.0407 32.6478 44.4266 34.1038 43.296C36.893 41.13 40.1721 36.9548 40.1721 30.812L40.506 28.381C38.7049 29.9019 35.6327 30.5383 30.4595 27.4672Z" fill="#FFC7AB"/>
<path d="M27.0103 34.7596C24.0918 33.6848 25.8036 31.1804 25.8036 31.1804C24.1893 30.2742 25.2128 28.9998 25.2128 28.9998C25.1608 28.9478 25.1146 28.8964 25.0721 28.8453C21.2444 30.3696 18.8873 29.4969 17.4551 28.0859L17.8295 30.8125C17.8295 36.9554 21.1086 41.1306 23.8978 43.2965C25.2621 44.3561 26.9257 44.9619 28.6522 45.0339V38.1978C25.752 37.2383 27.0103 34.7596 27.0103 34.7596Z" fill="#FFAA7B"/>
<path d="M40.3841 23.1633C40.3047 22.9562 40.2112 22.748 40.1049 22.5429L37.5624 22.1182C33.2166 21.3922 28.8012 21.2301 24.4242 21.6275C24.4725 21.682 24.5217 21.7363 24.5728 21.7902C24.4045 21.9514 24.1501 22.2552 24.1185 22.643C24.0921 22.9676 24.2241 23.2774 24.5106 23.564C25.1662 24.2197 24.9482 26.3478 24.8008 27.1649C24.6693 27.3494 24.2021 28.1317 24.9941 29.0163C24.9777 29.0425 24.9598 29.0728 24.9414 29.1063C25.8215 28.7652 26.7799 28.2974 27.8245 27.6772C28.6371 27.1948 29.6462 27.1948 30.4588 27.6772C35.601 30.7298 38.6671 30.1194 40.4726 28.6182L40.758 26.5399C40.9146 25.401 40.796 24.2378 40.3841 23.1633Z" fill="#6C5475"/>
<path d="M17.4877 28.3284C18.9404 29.7368 21.331 30.587 25.2107 28.9979C24.2614 28.047 24.961 27.2348 24.961 27.2348C24.961 27.2348 25.507 24.3202 24.6309 23.4439C23.7546 22.5678 24.8209 21.8014 24.8209 21.8014C24.7564 21.7368 24.695 21.6721 24.6352 21.6074C23.2325 21.7289 21.8337 21.9073 20.4422 22.144L17.8752 22.5808C17.7827 22.763 17.7001 22.9475 17.6286 23.1313C17.2071 24.2144 17.0841 25.389 17.242 26.5391L17.4877 28.3284Z" fill="#56415E"/>
<path d="M38.4341 15.2572C34.9993 14.7363 30.3177 14.3341 24.8371 14.7146C24.4146 15.1655 23.1819 16.6388 23.1585 18.5036C23.1437 19.6825 23.6191 20.7877 24.5722 21.7914C24.5607 21.8024 24.548 21.8157 24.5358 21.828C28.8761 21.4436 33.253 21.6097 37.5617 22.3295L39.5524 22.6621C35.0664 19.4585 38.1168 15.633 38.4341 15.2572Z" fill="#876D93"/>
<path d="M25.0921 14.6973C22.0184 14.8981 18.6896 15.3439 15.1855 16.154C14.3017 16.3583 13.6777 17.1494 13.6777 18.0565V21.1918C13.6777 22.4019 14.7665 23.321 15.9594 23.118L20.4415 22.3554C21.8941 22.1082 23.3548 21.925 24.8194 21.8034C24.8196 21.8033 24.8203 21.8027 24.8203 21.8027C21.3127 18.2951 25.0886 14.7007 25.0921 14.6973Z" fill="#6C5475"/>
<path d="M23.8195 27.3464C25.7359 27.3464 27.2894 26.4609 27.2894 25.3685C27.2894 24.2762 25.7359 23.3906 23.8195 23.3906C21.9031 23.3906 20.3496 24.2762 20.3496 25.3685C20.3496 26.4609 21.9031 27.3464 23.8195 27.3464Z" fill="#FFAA7B"/>
<path d="M34.4641 27.3464C36.3804 27.3464 37.934 26.4609 37.934 25.3685C37.934 24.2762 36.3804 23.3906 34.4641 23.3906C32.5477 23.3906 30.9941 24.2762 30.9941 25.3685C30.9941 26.4609 32.5477 27.3464 34.4641 27.3464Z" fill="#FFC7AB"/>
<path d="M56.7546 30.245C56.7546 22.9199 53.9154 16.259 49.2793 11.2988C48.2694 12.9753 47.5556 15.8316 48.7709 20.5409C51.1875 29.9055 40.8928 34.8414 44.6053 41.0583C46.3802 44.0305 49.5196 45.0513 52.3132 45.3077C55.1227 40.9696 56.7546 35.7983 56.7546 30.245Z" fill="#FF4155"/>
<path d="M1.24609 30.245C1.24609 22.9199 4.08526 16.259 8.72141 11.2988C9.73131 12.9753 10.4451 15.8316 9.22982 20.5409C6.81307 29.9054 17.1078 34.8413 13.3954 41.0583C11.6205 44.0305 8.48114 45.0513 5.68751 45.3077C2.87802 40.9696 1.24609 35.7983 1.24609 30.245Z" fill="#FF4155"/>
<path d="M36.8962 35.7352C36.57 33.7902 35.1668 31.8427 33.2932 31.4179L30.4297 30.5766C29.9319 30.4303 29.4335 30.6858 29.2331 31.1193C29.1965 31.1985 29.0858 31.1985 29.0493 31.1193C28.8488 30.6858 28.3503 30.4303 27.8526 30.5766L25.5844 31.243C25.43 31.5927 25.0897 32.5335 25.416 33.4485C25.626 34.0376 26.0722 34.4996 26.7423 34.8249C26.8305 34.8015 26.9192 34.7794 27.0088 34.7596L27.5203 34.6466C28.2658 34.482 28.8423 33.7543 29.0537 32.9789C29.0779 32.8899 29.2045 32.8899 29.2288 32.9789C29.4402 33.7543 30.0167 34.482 30.7621 34.6466L31.2735 34.7596C32.7437 35.0841 34.0317 35.9068 34.9428 37.0565C34.7543 37.8951 34.1628 39.1694 32.3298 39.817C31.8787 39.9764 31.4126 39.9727 30.9953 39.8416C30.6411 40.3178 29.9787 41.4053 30.2547 42.5846C30.4416 43.3831 31.0226 44.0637 31.9856 44.6165C32.0056 44.6067 32.0261 44.5982 32.0459 44.5881C34.9116 43.1291 38.7216 40.5941 39.9401 34.0733C40.0404 33.537 40.0912 32.9918 40.0912 32.4464C39.6276 33.5913 38.6633 34.9686 36.8962 35.7352Z" fill="#BC6242"/>
<path d="M31.1745 39.8894C30.3724 39.7129 29.7093 39.0743 29.6014 38.1978C29.5994 38.1813 29.5975 38.1646 29.5957 38.1477C29.5698 37.9089 29.3699 37.7255 29.1267 37.7255C28.8833 37.7255 28.6835 37.909 28.6577 38.1477C28.6558 38.1646 28.6538 38.1813 28.6519 38.1978C28.4945 39.478 27.1523 40.2516 25.9224 39.817C24.2302 39.2191 23.5023 38.0868 23.1894 37.2564C24.1062 36.0024 25.4561 35.1026 27.0099 34.7596C24.4642 33.6942 25.8031 31.1805 25.8031 31.1805L25.801 31.1797L24.9902 31.4179C23.0797 31.8511 21.6572 33.8676 21.3682 35.8503C19.4135 35.1131 18.396 33.651 17.9082 32.4465V32.4471C17.9082 32.9918 17.9591 33.5364 18.059 34.0719C19.2754 40.5915 23.0669 43.1261 25.933 44.5867C27.8519 45.5647 30.128 45.5654 32.0473 44.5883C32.088 44.5676 32.1295 44.5459 32.1707 44.5247C29.2 42.8912 30.6646 40.5567 31.1745 39.8894Z" fill="#AD563B"/>
<path d="M43.1048 16.1627C42.0048 15.9009 40.3467 15.5397 38.2342 15.2266C38.2255 15.2363 34.6457 19.2535 39.2602 22.6125L42.3294 23.1252C43.5207 23.3242 44.6054 22.4056 44.6054 21.198V18.0634C44.6054 17.1586 43.9852 16.3722 43.1048 16.1627Z" fill="#937AA0"/>
<path d="M39.9964 43.0649C39.211 42.1249 38.0061 41.9053 37.019 42.5176C36.9078 42.5866 36.7892 42.6572 36.6668 42.7284C36.1672 43.7423 35.8768 45.1943 36.7418 46.9245C38.1187 49.6783 39.2135 50.895 41.3291 50.846C42.9221 49.6211 43.2003 46.8999 41.8201 45.2478L39.9964 43.0649Z" fill="#937AA0"/>
</svg>
