<svg id="Layer_1" enable-background="new 0 0 512 512" height="512" viewBox="0 0 512 512" width="512" xmlns="http://www.w3.org/2000/svg"><g><path d="m434.065 98.729c-44.663-47.246-107.918-76.733-178.065-76.733-70.222 0-133.535 29.551-178.206 76.886 0 0-47.108 79.349-57.688 101.734-5.929 21.112-9.108 43.376-9.108 66.382 0 23.609 3.349 46.433 9.581 68.035l470.844-.003c6.231-21.601 9.58-44.424 9.58-68.032 0-23.058-3.191-45.37-9.146-66.524-9.67-24.276-57.792-101.744-57.792-101.745z" fill="#47354f"/><path d="m491.423 335.03c-4.657-126.018-108.267-226.755-235.423-226.755-62.65 0-119.581 24.46-161.785 64.343 3.006 24.715 22.294 34.192 45.707 30.442-1.57 12.085-7.532 73.256 26.193 111.215 18.49 20.811 45.658 31.33 80.86 31.329 2.488 0 5.024-.053 7.593-.158.549 9.881 5.296 64.956 43.349 96.858 26.794 22.461 61.244 26.531 95.961 21.409-.162 2.011-.212 3.99-.152 5.931 46.606-31.739 81.691-79.13 97.697-134.614z" fill="#4fabf7"/><path d="m395.582 461.935c-136.86 21.513-139.582-118.055-139.582-118.055-139.442 6.79-114.3-142.677-114.3-142.677s-42.105 9.615-46.11-29.864c-44.24 41.148-72.624 99.096-75.011 163.695 23.252 80.601 86.773 144.118 167.369 167.378l137.267-.343.002.005c25.289-7.439 48.88-18.845 70.052-33.5-.099-4.001.313-6.639.313-6.639z" fill="#1e9ef4"/><path d="m348.732 434.789c-.54 4.406-1.057 15.544 5.988 22.943 5.398 5.668 13.951 7.785 25.424 6.304l.299 2.402c1.011-1.02 2.012-2.052 3.002-3.1 3.21-3.398 8.233-4.038 12.137-1.857 26.793-31.766 42.954-72.791 42.954-117.601 0-100.812-81.724-182.536-182.536-182.536-49.76 0-94.861 19.92-127.788 52.209l11.021 2.879c-.493 3.824-1.144 14.579 5.499 22.696 4.863 5.942 12.523 9.104 22.785 9.411-.556 6.109-1.35 27.097 11.964 40.76 9.292 9.536 23.4 13.317 41.939 11.245l9.278 4.915c-.348 4.934-1.015 26.111 11.506 40.732 7.02 8.197 16.939 12.809 29.501 13.719-.254 6.307-.626 30.235 7.754 39.642 2.193 2.462 4.834 3.79 7.849 3.948 14.104.739 29.494 6.426 33.544 8.012-.174 2.822-.023 10.016 5.165 15.739 4.762 5.254 12.406 7.777 22.715 7.538z" fill="#deeeff"/><path d="m381.445 462.337c-38.08 5.837-30.954-29.119-30.954-29.119-31.784 1.718-28.041-22.684-28.041-22.684s-18.27-7.654-35.065-8.534c-16.796-.88-14.109-43.5-14.109-43.5-46.5-2.25-41-53.903-41-53.903l-10.566-5.597c-60.969 7.114-52.521-51.938-52.521-51.938-34.669 0-28.266-31.74-28.266-31.74l-11.459-2.993c-34.517 33.209-56.001 79.868-56.001 131.55 0 46.787 17.609 89.456 46.553 121.758 35.058 27.49 67.93 36.774 67.921 36.774l-.015.001c21.613 6.241 44.454 9.588 68.078 9.588 28.643 0 56.133-4.925 81.682-13.959 16.141-8.425 31.006-19.49 44.101-32.987z" fill="#d3dcfb"/><g><path d="m256 186.089c-5.522 0-10-4.477-10-10v-13.746c0-5.523 4.478-10 10-10s10 4.477 10 10v13.746c0 5.523-4.478 10-10 10z" fill="#a8b7ef"/></g><g><path d="m172.114 208.57c-3.457 0-6.818-1.794-8.67-5.002l-6.872-11.904c-2.762-4.783-1.122-10.899 3.66-13.66 4.786-2.76 10.9-1.121 13.66 3.661l6.872 11.904c2.762 4.783 1.123 10.899-3.66 13.66-1.575.909-3.294 1.341-4.99 1.341z" fill="#a8b7ef"/></g><path d="m348.556 484.19c-2.762-4.783-8.876-6.421-13.66-3.66-4.783 2.762-6.422 8.877-3.66 13.66l2.442 4.229c6.433-2.149 12.745-4.56 18.928-7.216z" fill="#a8b7ef"/><g><path d="m110.68 269.986c-1.696 0-3.415-.432-4.99-1.341l-11.904-6.873c-4.783-2.761-6.422-8.878-3.66-13.66 2.762-4.783 8.876-6.422 13.66-3.66l11.904 6.873c4.783 2.761 6.422 8.877 3.66 13.66-1.853 3.207-5.214 5.001-8.67 5.001z" fill="#a8b7ef"/></g><g><path d="m413.205 444.649c-1.696 0-3.415-.432-4.99-1.341l-11.904-6.873c-4.783-2.761-6.422-8.877-3.66-13.66 2.76-4.783 8.875-6.423 13.66-3.66l11.904 6.873c4.783 2.761 6.422 8.877 3.66 13.66-1.852 3.207-5.214 5.001-8.67 5.001z" fill="#a8b7ef"/></g><g><path d="m88.21 353.879h-13.746c-5.522 0-10-4.477-10-10s4.478-10 10-10h13.746c5.523 0 10 4.477 10 10s-4.478 10-10 10z" fill="#a8b7ef"/></g><g><path d="m437.536 353.879h-13.745c-5.522 0-10-4.477-10-10s4.478-10 10-10h13.745c5.522 0 10 4.477 10 10s-4.478 10-10 10z" fill="#a8b7ef"/></g><g><path d="m98.795 444.649c-3.457 0-6.818-1.793-8.67-5.001-2.762-4.783-1.123-10.899 3.66-13.66l11.904-6.873c4.786-2.761 10.9-1.122 13.66 3.66 2.762 4.783 1.123 10.899-3.66 13.66l-11.904 6.873c-1.575.909-3.294 1.341-4.99 1.341z" fill="#a8b7ef"/></g><g><path d="m401.32 269.986c-3.457 0-6.817-1.793-8.67-5.001-2.762-4.783-1.123-10.899 3.66-13.66l11.904-6.873c4.783-2.761 10.899-1.123 13.66 3.66 2.762 4.783 1.123 10.899-3.66 13.66l-11.904 6.873c-1.574.909-3.293 1.341-4.99 1.341z" fill="#a8b7ef"/></g><path d="m177.104 480.53c-4.784-2.762-10.899-1.122-13.66 3.661l-4.049 7.014c6.183 2.656 12.495 5.066 18.927 7.215l2.442-4.23c2.762-4.783 1.124-10.899-3.66-13.66z" fill="#a8b7ef"/><g><path d="m339.886 208.57c-1.696 0-3.415-.432-4.99-1.341-4.783-2.762-6.422-8.877-3.66-13.66l6.873-11.904c2.762-4.783 8.876-6.421 13.66-3.66 4.783 2.762 6.422 8.877 3.66 13.66l-6.873 11.904c-1.853 3.207-5.214 5.001-8.67 5.001z" fill="#a8b7ef"/></g><path d="m98.767 454.88c25.76 21.58 56.017 37.963 89.17 47.532-61.387-26.458-104.473-87.554-104.473-158.533 0-48.988 20.943-95.845 57.46-128.556 4.114-3.685 4.462-10.007.776-14.121-3.684-4.114-10.008-4.46-14.12-.776-40.747 36.5-64.116 88.787-64.116 143.454 0 41.303 13.077 79.608 35.303 111z" fill="#4fabf7"/><path d="m325.215 502.068c26.51-7.793 51.156-19.938 73.101-35.625-.477-1.666-1.383-3.232-2.734-4.508-4.016-3.793-10.345-3.612-14.137.402-16.247 17.199-35.321 30.579-56.23 39.731z" fill="#4fabf7"/><g><path d="m134.255 217.875c-2.744 0-5.477-1.123-7.451-3.328-3.686-4.114-3.338-10.436.776-14.121 35.333-31.651 80.94-49.083 128.42-49.083 19.1 0 37.966 2.791 56.074 8.296 5.284 1.606 8.266 7.192 6.659 12.476-1.606 5.285-7.195 8.263-12.475 6.66-16.222-4.931-33.131-7.432-50.258-7.432-42.548 0-83.416 15.619-115.076 43.979-1.908 1.711-4.293 2.553-6.669 2.553z" fill="#73c3f9"/></g><path d="m448.536 343.879c0-17.65-2.39-35.139-7.102-51.979-1.488-5.319-7.008-8.423-12.324-6.936-5.318 1.488-8.424 7.006-6.936 12.325 4.221 15.086 6.361 30.761 6.361 46.59 0 44.243-16.724 86.312-47.091 118.458-3.792 4.015-3.612 10.344.402 14.137.17.161.349.305.527.451 10.973-6.62 21.379-14.082 31.142-22.286 22.735-32.245 35.021-70.703 35.021-110.76z" fill="#73c3f9"/><g><path d="m431.799 304.597c-4.373 0-8.389-2.891-9.624-7.309-7.764-27.751-22.586-53.37-42.864-74.087-20.255-20.693-45.516-36.055-73.053-44.426-5.284-1.607-8.266-7.192-6.659-12.476 1.606-5.285 7.193-8.262 12.476-6.66 30.74 9.345 58.933 26.486 81.528 49.571 22.626 23.115 39.166 51.709 47.832 82.69 1.488 5.318-1.617 10.836-6.935 12.324-.902.253-1.809.373-2.701.373z" fill="#9bd8f9"/></g><path d="m386.092 344.822c-9.862 4.724-18.94 5.27-27.07 1.574-7.742-3.522-13.547-10.938-15.527-19.835-9.302-41.8-41.054-60.396-54.273-66.451-5.464-2.503-9.701-6.717-11.933-11.868-5.744-13.263 4.071-24.628 10.8-30.457-10.268-2.615-21.019-4.008-32.09-4.008-34.145 0-65.254 13.229-88.488 34.821-.555 6.18-1.304 27.078 11.969 40.701 9.292 9.536 23.4 13.317 41.939 11.245l9.278 4.915c-.348 4.934-1.015 26.111 11.506 40.732 7.02 8.197 16.939 12.809 29.501 13.719-.254 6.307-.626 30.235 7.754 39.642 2.193 2.462 4.834 3.79 7.849 3.948 14.104.739 29.494 6.426 33.544 8.012-.174 2.822-.023 10.016 5.165 15.739 4.764 5.256 12.407 7.779 22.717 7.54-.01.085-.02.188-.031.278 22.91-23.288 37.139-55.135 37.39-90.247z" fill="#ff4155"/><path d="m286.286 217.343c-6.984 6.254-16.3 17.808-10.373 31.494 2.449 5.654 7.082 10.069 12.684 12.635 12.586 5.765 44.231 24.066 53.433 65.414 2.025 9.099 7.884 17.014 16.37 20.873 6.828 3.106 16.024 4.095 27.67-1.268.017-.869.033-1.739.033-2.613 0-61.313-42.637-112.849-99.817-126.535z" fill="#ff7186"/><path d="m256 473.983c37.177 0 70.758-15.677 94.49-40.764-31.782 1.717-28.039-22.684-28.039-22.684s-18.271-7.655-35.066-8.535c-16.796-.88-14.109-43.5-14.109-43.5-46.5-2.25-41-53.903-41-53.903l-10.566-5.597c-60.969 7.114-52.521-51.938-52.521-51.938-26.557 23.837-43.293 58.407-43.293 96.817 0 71.74 58.365 130.104 130.104 130.104z" fill="#e80054"/><g><g><path d="m227.21 337.438c-4.143 0-7.5-3.358-7.5-7.5v-59.603h-6.843c-4.143 0-7.5-3.358-7.5-7.5s3.357-7.5 7.5-7.5h14.343c4.143 0 7.5 3.358 7.5 7.5v67.103c0 4.142-3.358 7.5-7.5 7.5z" fill="#ffdd40"/></g></g><g><g><path d="m277.492 337.785c-12.944 0-13.915-.324-14.927-.662-2.475-.825-4.325-2.7-5.077-5.144-1.28-4.165.627-6.663 4.809-12.137 3.408-4.462 9.751-12.769 20.382-27.957 3.071-4.39 5.052-8.299 5.891-11.626l.211-1.647c-.216-5.142-4.467-9.26-9.662-9.26-4.611 0-8.602 3.275-9.488 7.788-.797 4.065-4.736 6.714-8.805 5.914-4.064-.798-6.713-4.74-5.914-8.805 2.265-11.529 12.445-19.897 24.207-19.897 13.603 0 24.671 11.067 24.671 24.671 0 .318-.021.636-.061.952l-.332 2.596c-.032.249-.076.497-.133.741-1.224 5.278-4.015 11.057-8.296 17.175-7.104 10.151-12.334 17.289-16.069 22.28 5.993-.01 13.277-.066 20.141-.152h.096c4.099 0 7.446 3.296 7.497 7.406.053 4.142-3.263 7.542-7.405 7.594-9.616.12-16.614.17-21.736.17z" fill="#ffdd40"/></g></g><g><g><g><path d="m169.189 410.535c-3.866 0-7-3.134-7-7v-41.356c0-3.866 3.134-7 7-7s7 3.134 7 7v41.356c0 3.866-3.133 7-7 7z" fill="#deeeff"/></g><g><path d="m197.808 410.535c-3.866 0-7-3.134-7-7v-41.356c0-3.866 3.134-7 7-7s7 3.134 7 7v41.356c0 3.866-3.133 7-7 7z" fill="#deeeff"/></g><g><path d="m197.808 389.148h-28.619c-3.866 0-7-3.134-7-7s3.134-7 7-7h28.619c3.866 0 7 3.134 7 7s-3.133 7-7 7z" fill="#deeeff"/></g></g><g><g><path d="m287.149 410.535c-.011 0-.021 0-.031 0-4.156-.006-7.985-1.11-11.384-3.282-6.447-4.12-9.718-9.71-9.718-16.616v-28.458c0-3.866 3.134-7 7-7s7 3.134 7 7v28.458c0 1.498.245 2.895 3.257 4.819 1.133.725 2.396 1.077 3.863 1.079h.014c1.374 0 2.57-.267 3.658-.815 3.944-1.986 3.944-4.02 3.944-5.114v-28.428c0-3.866 3.134-7 7-7s7 3.134 7 7v28.428c0 7.579-4.136 13.836-11.646 17.617-3.042 1.534-6.393 2.312-9.957 2.312z" fill="#deeeff"/></g></g><g><g><path d="m344.813 410.535c-1.942 0-3.874-.803-5.258-2.375l-17.372-19.738c-2.554-2.902-2.271-7.326.63-9.88 2.904-2.554 7.326-2.271 9.88.63l17.372 19.738c2.554 2.902 2.271 7.326-.63 9.88-1.33 1.17-2.979 1.745-4.622 1.745z" fill="#deeeff"/></g><g><path d="m322.451 410.535c-3.866 0-7-3.134-7-7v-41.356c0-3.866 3.134-7 7-7s7 3.134 7 7v41.356c0 3.866-3.134 7-7 7z" fill="#deeeff"/></g><g><path d="m322.54 390.722c-3.846 0-6.975-3.105-6.999-6.956 0 0-.049-7.835-.049-10.839 0-2.452-.027-10.725-.027-10.725-.006-1.86.729-3.647 2.042-4.964 1.314-1.318 3.098-2.059 4.958-2.059h10.989c10.122 0 18.357 7.962 18.357 17.748s-8.234 17.748-18.357 17.748c-3.038 0-10.868.047-10.871.047-.014 0-.028 0-.043 0zm6.945-21.543c.004 1.542.007 2.951.007 3.748 0 .92.005 2.296.011 3.759 1.532-.006 2.982-.011 3.951-.011 2.32 0 4.357-1.752 4.357-3.748 0-1.997-2.036-3.748-4.357-3.748z" fill="#deeeff"/></g></g><g><path d="m235.084 410.535c-15.262 0-27.678-12.417-27.678-27.678 0-15.262 12.416-27.678 27.678-27.678s27.679 12.416 27.679 27.678c0 15.261-12.417 27.678-27.679 27.678zm0-41.356c-7.542 0-13.678 6.136-13.678 13.678s6.136 13.678 13.678 13.678 13.679-6.136 13.679-13.678-6.137-13.678-13.679-13.678z" fill="#deeeff"/></g></g><g><path d="m378.705 95.164c-1.92 0-3.868-.411-5.722-1.28-17.524-8.216-35.967-14.582-54.814-18.92-7.266-1.672-11.8-8.918-10.128-16.184 1.673-7.265 8.914-11.804 16.185-10.127 20.706 4.766 40.967 11.759 60.219 20.784 6.751 3.165 9.658 11.203 6.493 17.954-2.297 4.898-7.16 7.773-12.233 7.773z" fill="#ffc839"/></g><path d="m63.737 145.941c5.348-5.195 5.471-13.743.275-19.09-1.807-1.86-4.023-3.073-6.366-3.665-16.775 23.097-29.621 49.23-37.541 77.43 12.077-19.84 26.695-38.221 43.632-54.675z" fill="#ff9100"/><g><path d="m190.808 75.307c-6.148 0-11.707-4.228-13.145-10.475-1.672-7.266 2.862-14.512 10.129-16.184 22.236-5.118 45.186-7.712 68.208-7.712 7.456 0 13.5 6.044 13.5 13.5s-6.044 13.5-13.5 13.5c-20.987 0-41.899 2.363-62.153 7.025-1.018.234-2.037.346-3.039.346z" fill="#ff9100"/></g><g><path d="m223.688 107.01c-5.501-5.033-5.88-13.573-.847-19.073l30.808-33.669-33.669-30.808c-5.501-5.033-5.88-13.573-.847-19.073 5.033-5.502 13.571-5.879 19.073-.847l43.629 39.921c5.501 5.033 5.88 13.573.847 19.073l-39.921 43.628c-5.039 5.508-13.578 5.875-19.073.848z" fill="#ffdd40"/></g><path d="m187.792 48.648c-39.751 9.148-77.135 26.292-109.999 50.234-13.045 13.823-24.503 29.158-34.074 45.723.288.365.597.72.928 1.061 2.646 2.725 6.163 4.093 9.684 4.093 3.39 0 6.783-1.269 9.406-3.817 36.212-35.18 81.203-59.725 130.11-70.98 7.267-1.672 11.801-8.918 10.129-16.184-1.672-7.267-8.915-11.805-16.184-10.13z" fill="#ffc839"/><path d="m491.856 200.474c-10.874-38.629-30.983-73.385-57.792-101.745-15.428-11.204-32.015-21.04-49.621-29.293-6.751-3.164-14.789-.258-17.954 6.493s-.258 14.789 6.493 17.954c49.998 23.439 91.028 60.824 118.874 106.591z" fill="#ffdd40"/></g></svg>