<svg id="Layer_1" enable-background="new 0 0 512 512" height="512" viewBox="0 0 512 512" width="512" xmlns="http://www.w3.org/2000/svg"><g><path d="m492.103 332.608c5.791-20.883 8.899-42.882 8.899-65.61 0-135.311-109.691-245.002-245.002-245.002s-245.002 109.691-245.002 245.002c0 22.727 3.108 44.726 8.899 65.61z" fill="#49b1f7"/><path d="m73.237 174.523c.057-.049.107-.103.165-.151l41.199-34.105c1.236-1.023 2.579-1.825 3.979-2.439l-6.025-7.111c-10.41-12.286-28.809-13.807-41.095-3.397-12.286 10.41-13.807 28.809-3.397 41.095z" fill="#d3dcfb"/><path d="m256 130.873c9.129 0 18.132.53 26.992 1.526v-33.535h-53.983v33.536c8.859-.997 17.862-1.527 26.991-1.527z" fill="#d3dcfb"/><path d="m293.756 26.689c-5.501-15.548-20.324-26.689-37.756-26.689-17.432 0-32.255 11.141-37.756 26.689z" fill="#bec8f7"/><path d="m215.953 87.01v.583c0 7.329 5.941 13.271 13.271 13.271h53.553c7.329 0 13.27-5.941 13.27-13.271v-.583z" fill="#bec8f7"/><path d="m298.159 24.565h-55.059c-.816 2.869-1.511 7.371.359 11.502 1.602 3.539 4.733 6.072 9.314 7.539l6.869 27.997c-.433 1.654-1.672 7.698 1.58 13.086 1.055 1.746 2.483 3.219 4.236 4.444h32.702c8.307 0 15.041-6.734 15.041-15.041v-34.486c-.001-8.307-6.735-15.041-15.042-15.041z" fill="#deeeff"/><path d="m213.841 24.565c-8.307 0-15.041 6.734-15.041 15.041v34.487c0 8.307 6.734 15.041 15.041 15.041h54.533c-10.984-5.52-7.182-17.504-7.182-17.504l-7.167-29.213c-12.185-3.427-10.741-13.323-9.359-17.851h-30.825z" fill="#d3dcfb"/><path d="m397.398 140.267 41.2 34.105c.058.048.107.102.165.151l5.175-6.108c10.41-12.286 8.889-30.685-3.397-41.095-12.286-10.41-30.685-8.889-41.095 3.397l-6.025 7.111c1.398.614 2.742 1.416 3.977 2.439z" fill="#deeeff"/><path d="m466.782 290.472c-8.807 3.811-19.35-1.377-20.666-2.058-4.121-3.644-97.469-86.335-111.066-110.907-3.729-6.739-4.47-12.464-2.2-17.013 4.284-8.584 17.94-10.596 18.078-10.615l1.075-.151.144-.798c-.48-.157-.957-.333-1.428-.536-29.03-12.554-61.051-19.521-94.719-19.521-33.666 0-65.688 6.966-94.719 19.521-.582.252-1.174.455-1.77.636-.962 3.318-3.229 13.272 1.385 21.337 2.875 5.025 7.856 8.325 14.814 9.815l8.129 16.874c-.438 4.219-2.87 34.776 15.522 55.544 10.758 12.146 26.521 18.427 46.87 18.678l14.521 89.735c-1.719 1.714-6.363 6.989-6.615 14.18-.178 5.075 1.863 9.978 6.069 14.592-2.153 2.105-6.325 7.076-6.032 13.764.301 6.861 5.19 13.408 14.535 19.46 23.847 15.443 18.511 37.582 17.73 40.352-.986 1.273-5.006 6.941-4.068 13.729.606 4.389 3.136 8.273 7.524 11.562-1.368 2.674-4.082 9.271-2.067 16.471.446 1.595 1.098 3.113 1.946 4.554 97.427-13.437 176.564-84.151 202.329-177.07-2.801-19.138-7.869-37.535-14.922-54.91-2.205 6.45-5.694 10.741-10.399 12.775z" fill="#ffdd40"/><path d="m333.738 178.233c14.121 25.517 111.519 111.422 111.519 111.422s23.675 13.059 32.752-9.871c-9.119-23.088-21.725-44.412-37.186-63.313-5.109-6.246-5.141-15.213.005-21.429 5.921-7.152 4.922-17.75-2.23-23.671l-41.2-34.105c-7.152-5.921-17.75-4.922-23.671 2.23l-3.448 4.165c-4.751 5.739-12.722 7.689-19.56 4.731 0 .002-31.103 4.325-16.981 29.841z" fill="#ffeb97"/><path d="m141.721 143.663-3.449-4.166c-5.921-7.152-16.519-8.151-23.671-2.23l-41.199 34.105c-7.152 5.921-8.151 16.519-2.23 23.671 5.146 6.216 5.114 15.183.005 21.429-26.684 32.619-44.886 72.445-51.281 116.135 28.686 103.45 123.52 179.393 236.104 179.393 12.025 0 23.845-.874 35.406-2.547-6.519-10.257.453-21.242.453-21.242-15.5-10.539-4.064-24.143-4.064-24.143s7.98-25.317-18.27-42.317-7.165-31.882-7.165-31.882c-15.149-15.149 0-28.312 0-28.312l-14.85-91.77c-71.016 0-62.133-72.992-62.133-72.992l-8.638-17.934c-24.62-4.723-15.458-30.466-15.458-30.466-6.839 2.957-14.809 1.007-19.56-4.732z" fill="#ffc839"/><path d="m258 365.521v-192.542c-.667-.007-1.331-.025-2-.025-106.83 0-194.568 86.558-194.568 194.568 0 20.917 3.314 41.057 9.423 59.94 29.342 33.825 67.801 59.523 111.55 73.284h147.125c42.297-13.266 81.051-38.052 111.614-73.284 6.109-18.883 9.423-39.023 9.423-59.94 0-.669-.019-1.333-.025-2h-192.542z" fill="#ff7186"/><path d="m256 172.954v194.568h194.568c0-107.457-87.111-194.568-194.568-194.568z" fill="#ff4155"/><path d="m256 162.954c-128.34 0-226.03 117.454-200.601 244.718 9.882 14.065 21.207 27.039 33.757 38.716-57.794-121.77 31.224-263.434 166.844-263.434 133.642 0 225.353 139.831 166.767 263.506 12.548-11.666 23.874-24.627 33.758-38.679 25.644-127.182-72.108-244.827-200.525-244.827z" fill="#fc9daf"/><g fill="#73c3f9"><path d="m484.942 179.618c-14.353 18.837-22.101 47.355 15.947 80.188-.813-28.183-6.391-55.167-15.947-80.188z"/><path d="m342.425 37.693c-.027 38.01 13.449 87.411 90.543 59.877-25.095-26.205-55.958-46.835-90.543-59.877z"/></g><g fill="#73c3f9"><path d="m27.058 179.618c14.354 18.837 22.101 47.355-15.947 80.188.813-28.183 6.391-55.167 15.947-80.188z"/><path d="m169.575 37.693c.027 38.01-13.449 87.411-90.543 59.877 25.095-26.205 55.958-46.835 90.543-59.877z"/></g><g fill="#bec8f7"><path d="m226.284 74.432c-4.689 0-8.49-3.801-8.49-8.49v-18.384c0-4.689 3.801-8.49 8.49-8.49 4.689 0 8.49 3.801 8.49 8.49v18.384c0 4.689-3.801 8.49-8.49 8.49z"/><path d="m256 74.432c-4.689 0-8.49-3.801-8.49-8.49v-18.384c0-4.689 3.801-8.49 8.49-8.49 4.689 0 8.49 3.801 8.49 8.49v18.384c0 4.689-3.801 8.49-8.49 8.49z"/><path d="m285.716 74.432c-4.689 0-8.49-3.801-8.49-8.49v-18.384c0-4.689 3.801-8.49 8.49-8.49 4.689 0 8.49 3.801 8.49 8.49v18.384c.001 4.689-3.801 8.49-8.49 8.49z"/></g><path d="m266.096 20.192c5.576 0 10.096-4.52 10.096-10.096 0-2.054-.617-3.961-1.67-5.556-3.628-1.898-7.582-3.255-11.758-3.966-3.936 1.379-6.764 5.116-6.764 9.522 0 5.576 4.52 10.096 10.096 10.096z" fill="#d3dcfb"/><path d="m256 219.712c-20.347 0-39.744 4.056-57.44 11.389-.898 4.966-3.178 26.086 20.51 35.372l9.897 96.743c-.115 9.872 5.189 28.548 25.761 31.519-1.058 2.204-2.322 5.917-1.579 10.093.752 4.227 3.36 7.897 7.752 10.909 11.688 8.014 5.083 40.233 4.507 42.924-.582 1.183-3.327 7.28-1.316 13.353 1.115 3.369 3.469 6.088 7.003 8.098-1.805 3.44-5.737 12.636-2.742 22.931.865 2.973 2.236 5.775 4.097 8.401 19.781-1.314 38.922-4.967 57.144-10.699 45.689-25.744 76.55-74.71 76.55-130.89 0-82.921-67.222-150.143-150.144-150.143z" fill="#deeeff"/><path d="m266.833 459.167s8.042-35.667-5.083-44.667-4.602-21-4.602-21c-27.102-2.25-26.68-30.351-26.68-30.351l-10-97.748c-26.835-9.921-20.252-34.926-20.237-34.983-55.306 22.14-94.375 76.223-94.375 139.437 0 56.18 30.861 105.145 76.55 130.89 23.231 7.308 47.951 11.255 73.594 11.255 6.132 0 12.208-.232 18.227-.675-11.62-15.348-1.06-31.825-1.06-31.825-13.667-6.5-6.334-20.333-6.334-20.333z" fill="#d3dcfb"/><g><g><g><path d="m220.468 373.149c-5.523 0-10-4.478-10-10v-77.748h-8.755c-5.523 0-10-4.478-10-10s4.477-10 10-10h18.755c5.523 0 10 4.478 10 10v87.748c0 5.523-4.477 10-10 10z" fill="#ff4155"/></g></g><g><g><path d="m283.455 373.826c-14.44 0-27.55-8.411-33.548-21.594-2.288-5.026-.066-10.956 4.961-13.243 5.024-2.288 10.956-.068 13.243 4.96 2.792 6.134 8.926 10.002 15.692 9.873 8.776-.177 16.007-7.172 16.461-15.926.242-4.676-1.393-9.113-4.604-12.496-3.214-3.386-7.551-5.25-12.21-5.25-6.812 0-9.465.973-13.024 2.574-.37.166-.606.282-.683.321-3.362 1.702-7.416 1.38-10.455-.85-3.038-2.231-4.586-5.968-3.97-9.686l6.532-39.421c.8-4.826 4.974-8.365 9.865-8.365h32.969c5.523 0 10 4.478 10 10s-4.477 10-10 10h-24.489l-2.594 15.653c1.777-.15 3.71-.228 5.85-.228 10.051 0 19.788 4.184 26.714 11.48 7.025 7.399 10.604 17.096 10.073 27.304-.995 19.175-16.821 34.498-36.031 34.885-.252.006-.502.009-.752.009z" fill="#ff4155"/></g></g></g><path d="m316.083 393.5h-66.763c1.673.537 3.473.956 5.408 1.235-1.058 2.204-2.322 5.917-1.579 10.093.752 4.227 3.36 7.897 7.752 10.909 11.688 8.014 5.083 40.233 4.507 42.924-.582 1.183-3.327 7.28-1.316 13.353 1.007 3.041 3.032 5.547 6.015 7.485h45.977c23.748 0 43-19.252 43-43-.001-23.747-19.252-42.999-43.001-42.999z" fill="#3c58a0"/><path d="m195.917 393.5c-23.748 0-43 19.252-43 43 0 23.748 19.252 43 43 43h77.25c-13.667-6.5-6.333-20.333-6.333-20.333s8.042-35.667-5.083-44.667-4.602-21-4.602-21z" fill="#2a428c"/><g><g><g><path d="m291.623 465.273c-4.143 0-7.5-3.357-7.5-7.5v-43.205c0-3.282 2.135-6.184 5.267-7.16 3.137-.975 6.539.197 8.404 2.898l16.445 23.814-.19-19.561c-.04-4.142 3.285-7.532 7.428-7.572h.074c4.108 0 7.458 3.31 7.498 7.428l.405 41.826c0 3.922-2.233 7.106-5.69 8.187-3.353 1.052-7.008-.274-9.098-3.29l-15.545-22.511v19.146c.002 4.143-3.355 7.5-7.498 7.5z" fill="#d3dcfb"/></g></g><g><g><path d="m212.843 465.273c-3.648 0-6.874-2.318-8.036-5.781-.029-.087-.057-.175-.083-.264l-4.58-15.521-2.718 15.061c-.735 4.076-4.637 6.784-8.713 6.049-4.076-.736-6.784-4.637-6.049-8.713l7.608-42.152c.746-3.868 3.938-6.687 7.778-6.942 3.838-.269 7.379 2.115 8.601 5.766.029.086.057.173.082.261l6.003 20.345 5.778-20.272c.025-.088.052-.175.08-.262 1.189-3.658 4.714-6.067 8.543-5.845 3.842.218 7.061 3.004 7.827 6.773l8.075 42.252c.778 4.068-1.89 7.997-5.958 8.774-4.064.789-7.996-1.889-8.774-5.958l-2.903-15.188-4.418 15.498c-.025.088-.052.174-.079.26-1.132 3.487-4.355 5.842-8.021 5.86-.015-.001-.029-.001-.043-.001z" fill="#d3dcfb"/></g></g><g><g><path d="m262.572 465.273c-4.143 0-7.5-3.357-7.5-7.5v-43.285c0-4.143 3.357-7.5 7.5-7.5s7.5 3.357 7.5 7.5v43.285c0 4.143-3.357 7.5-7.5 7.5z" fill="#d3dcfb"/></g></g></g></g></svg>