<svg id="Layer_1" enable-background="new 0 0 512 512" height="512" viewBox="0 0 512 512" width="512" xmlns="http://www.w3.org/2000/svg"><g><path d="m245.002 10.998c-135.311 0-245.002 109.691-245.002 245.002 0 42.781 10.976 82.994 30.249 117.996l41.239 54.968c44.358 44.498 105.719 72.038 173.515 72.038 135.311 0 245.002-109.691 245.002-245.002s-109.692-245.002-245.003-245.002z" fill="#47354f"/><path d="m309.004 236.445c.485-.578.987-1.144 1.491-1.708-6.955 1.536-13.522 2.952-19.441 4.197-14.161 2.98-23.227 16.872-20.251 31.035 2.978 14.162 16.872 23.228 31.035 20.251.416-.088.959-.202 1.605-.339-11.153-15.18-9.784-35.145 5.561-53.436z" fill="#1e9ef4"/><path d="m263.91 216.1c-71.593-28.927-134.193-35.932-167.934-37.39-19.78-.855-36.656 14.388-37.517 34.168-.348 7.999 1.051 16.55 5.732 24.657l50.359-26.75c3.566 6.782 20.848 35.439 61.695 43.436 23.911 4.683 44.398 4.432 57.377 3.398 10.389-.827 17.641-2.243 20.877-2.968v55.496c16.094-3.038 30.227-14.026 36.661-30.206 10-25.147-2.157-53.702-27.25-63.841z" fill="#49b1f7"/><path d="m256 252.75s-33.5 9-79.466 0-61.327-44.012-61.327-44.012l-51.743 27.485c4.855 9.137 13.733 17.783 28.841 24.528 36.631 16.353 97.649 35.738 138.897 48.155 8.324 2.506 16.827 2.7 24.798.937z" fill="#1e9ef4"/><path d="m320.19 402.279c-38.39-4.418-77.991-12.284-100.304-19.384-.634-.202-1.151-.566-1.555-1.016-4.218 1.673-19.463 8.561-24.086 22.266-2.785 8.257-1.137 17.362 4.884 27.083 14.009 4.965 30.928 9.02 50.145 12.849 32.833 6.542 63.629 10.117 64.925 10.267 14.377 1.654 27.373-8.66 29.027-23.036 1.656-14.374-8.659-27.375-23.036-29.029z" fill="#ffc7ab"/><path d="m218.088 377.414c5.012-6.881 11.054-14.798 17.607-23.164-12.17-3.347-28.972-11.763-40.89-32.803-15.246 19.485-29.264 38.544-35.349 49.956-5.432 10.186-5.435 21.828-.132 31.932 6.707 12.782 21.385 21.647 42.09 28.686-23.086-34.729 18.472-49.126 18.472-49.126-2.314-.737-3.228-3.518-1.798-5.481z" fill="#ffaa7b"/><path d="m78.287 324.271c11.086 10.412 22.511 15.075 33.985 13.852 17.514-1.872 29.568-16.746 32.979-21.46l-13.137-101.735c-2.606-21.479-21.594-37.142-43.176-35.615-26.749 1.893-44.35 28.735-35.423 54.021z" fill="#4f71b6"/><path d="m234.884 355.286c17.566-22.451 38.713-47.959 53.962-65.804 9.399-11.003 8.103-27.541-2.898-36.944-11.002-9.401-27.542-8.104-36.944 2.898-4.655 5.447-31.823 37.368-55.594 67.798 12.035 21.007 29.343 28.798 41.474 32.052z" fill="#73c3f9"/><path d="m501.422 131.481c-10.626-7.004-24.896-4.286-32.203 6.134l-45.531 64.935c-.407.58-.855 1.124-1.32 1.65.551 3.853 2.778 14.003 11.412 20.691 7.066 5.475 16.647 7.226 28.492 5.227.424-.58.857-1.152 1.267-1.744l44.268-63.856c7.523-10.851 4.64-25.769-6.385-33.037z" fill="#ffc7ab"/><path d="m412.917 209.959-26.221 6.576c.739.423 1.474.861 2.199 1.33 15.368 9.937 23.638 28.206 23.151 46.025l1.315-.347c20.378-5.378 38.17-17.847 50.178-35.168-37.794 7.292-39.851-25.825-39.851-25.825-2.583 3.684-6.407 6.314-10.771 7.409z" fill="#ffaa7b"/><g><path d="m294.096 195.979c-3.401 0-6.701-1.791-8.477-4.972l-.289-.518c-2.612-4.676-.938-10.586 3.738-13.197 4.678-2.614 10.585-.939 13.197 3.738l.289.518c2.612 4.676.938 10.586-3.739 13.197-1.495.837-3.119 1.234-4.719 1.234z" fill="#ffb332"/></g><g><path d="m277.565 166.401c-3.4 0-6.699-1.79-8.475-4.969l-30.259-54.141c-2.614-4.676-.941-10.586 3.734-13.199 4.677-2.612 10.585-.941 13.199 3.735l30.259 54.141c2.614 4.676.941 10.586-3.734 13.199-1.498.836-3.122 1.234-4.724 1.234z" fill="#ffb332"/></g><g><path d="m333.429 181.532c-4.325 0-8.268-2.915-9.389-7.298l-.147-.574c-1.327-5.19 1.804-10.472 6.993-11.8 5.187-1.324 10.473 1.803 11.8 6.994l.147.574c1.327 5.19-1.803 10.472-6.993 11.8-.807.205-1.616.304-2.411.304z" fill="#ffdd40"/></g><g><path d="m325.025 148.708c-4.324 0-8.267-2.913-9.389-7.295l-15.384-60.085c-1.328-5.19 1.801-10.473 6.99-11.802 5.19-1.328 10.473 1.801 11.802 6.99l15.384 60.085c1.328 5.19-1.801 10.473-6.99 11.802-.807.206-1.616.305-2.413.305z" fill="#ffdd40"/></g><g><g><path d="m376.464 149.97c-.555 0-1.117-.048-1.682-.147-5.277-.923-8.806-5.948-7.884-11.225l4.41-25.227c.922-5.276 5.945-8.803 11.224-7.883 4.032.703 8.067-.253 11.361-2.697 3.292-2.442 5.378-6.036 5.875-10.12.931-7.642-4.269-14.789-11.837-16.271-7.356-1.435-14.633 2.838-16.924 9.948-.211.653-.378 1.333-.498 2.017-.921 5.277-5.947 8.797-11.222 7.887-5.277-.922-8.808-5.946-7.887-11.223.273-1.566.658-3.124 1.144-4.631 5.304-16.457 22.117-26.358 39.113-23.036 17.502 3.426 29.522 19.966 27.368 37.654-1.147 9.417-5.968 17.71-13.574 23.353-4.842 3.593-10.55 5.811-16.461 6.5l-2.984 17.07c-.823 4.712-4.918 8.03-9.542 8.031z" fill="#ff4155"/></g></g><g><path d="m373.12 177.941c-.398 0-.799-.024-1.204-.075-5.316-.657-9.092-5.501-8.434-10.817l.073-.589c.658-5.316 5.507-9.09 10.817-8.434 5.316.657 9.092 5.501 8.434 10.817l-.073.589c-.608 4.911-4.788 8.509-9.613 8.509z" fill="#ff4155"/></g><path d="m372.229 312.647c-31.428 7.249-70.105-7.953-76.621-36.206-6.517-28.253 21.594-58.86 53.023-66.109 31.428-7.249 56.911 10.996 63.427 39.249 6.516 28.254-8.401 55.817-39.829 63.066z" fill="#ffc7ab"/><path d="m486.037 300.103c-17.466-.804-40.624 2.66-59.309 21.344-30.129 30.129-75.357 73.537-38.483 133.322 50.294-36.308 86.259-91.225 97.792-154.666z" fill="#56415e"/><path d="m15.075 171.213c20.283-23.423 47.157-35.463 116.925-35.463 76.845 0 84.117-83.594 83.282-122.953-92.428 11.178-168.998 73.811-200.207 158.416z" fill="#56415e"/><path d="m144.964 314.444c-.001.002-29.174 45.276-67.447 7.003l13.688 50.245c.825 2.998-1.543 5.917-4.647 5.729l-56.31-3.425c11.143 20.237 25.055 38.734 41.239 54.969l19.175 1.203c36.717 0 65.079-32.259 60.376-68.674z" fill="#3c58a0"/></g></svg>