<svg id="Capa_1" enable-background="new 0 0 512 512" height="512" viewBox="0 0 512 512" width="512" xmlns="http://www.w3.org/2000/svg"><g><path d="m477.515 127.837c2.636 4.533-7.876 9.154-5.515 13.857 16.522 32.925 32.553 68.231 33.34 107.365.974 48.405-12.398 87.978-34.823 126.941-3.179 5.524.956 18.433-2.614 23.687-2.946 4.337-6.022 8.578-9.222 12.719h-280.45c-68.392 0-123.835-55.443-123.835-123.835v-178.923c0-7.579 2.656-14.945 7.603-20.686 46.672-54.157 115.636-88.559 192.645-88.958 94.745-.492 178.204 51.027 222.871 127.833z" fill="#00c8de"/><path d="m472.462 226c0 112.952-91.566 204.517-204.517 204.517s-204.518-91.565-204.518-204.517 91.566-204.517 204.517-204.517 204.518 91.565 204.518 204.517z" fill="#2dd2e3"/><path d="m256.758 370.36c0 23.221-18.824 42.046-42.046 42.046h-161.392c-33.43-43.256-53.32-97.508-53.32-156.406 0-64.234 23.658-122.943 62.735-167.888h4.781c23.221 0 42.046 18.824 42.046 42.046v37.045c21.721 1.64 38.836 19.783 38.836 41.925 0 18.043-11.366 33.432-27.328 39.397h64.558c23.221 0 42.046 18.824 42.046 42.046 0 16.564-9.579 30.891-23.5 37.744h10.539c23.22 0 42.045 18.824 42.045 42.045z" fill="#1fb480"/><path d="m342.328 237.872-39.241 3.039-1.501 39.33-33.533-20.606-24.332 30.936-15.017-36.381-37.869 10.726 9.236-38.259-36.941-13.582 29.96-25.524-21.903-32.701 39.241-3.039 1.501-39.33 33.533 20.606 24.332-30.936 15.017 36.381 37.869-10.726-9.236 38.259 36.941 13.582-29.96 25.524z" fill="#ffef31"/><path d="m266.305 410c65.832 0 68.789 98.281 3.044 101.658-4.421.227-8.872.342-13.349.342-83.574 0-157.794-40.048-204.517-102z" fill="#005aaf"/><path d="m460.517 410c-46.723 61.952-120.943 102-204.517 102-4.477 0-8.928-.115-13.348-.342-65.746-3.377-62.789-101.658 3.043-101.658z" fill="#0573cf"/><path d="m54.396 316.194v93.612c0 5.523-4.477 10-10 10h-20.396c-5.523 0-10-4.477-10-10v-93.612c0-5.523 4.477-10 10-10h20.396c5.522 0 10 4.477 10 10zm281.604-10h-20.396c-5.523 0-10 4.477-10 10v93.612c0 5.523 4.477 10 10 10h20.396c5.523 0 10-4.477 10-10v-93.612c0-5.523-4.477-10-10-10z" fill="#002c5d"/><path d="m346 316v15c0 24.853-20.147 45-45 45h-242c-24.853 0-45-20.147-45-45v-15c0-16.569 13.431-30 30-30h9.444l24.998-56.246c6.421-14.445 20.745-23.754 36.553-23.754h130.01c15.807 0 30.132 9.309 36.552 23.754l24.999 56.246h9.444c16.569 0 30 13.431 30 30z" fill="#ff4343"/><path d="m346.66 316v15c0 24.853-20.807 45-45.66 45h-70.026c-24.61-39.324-38.836-85.811-38.836-135.621 0-11.658.779-23.134 2.289-34.379l51.31-.731c15.807 0 30.886 9.925 37.306 24.37l25.531 56.361h7.426c16.569 0 30.66 13.431 30.66 30z" fill="#ff5757"/><path d="m267.412 263.427c3.633 8.175-.659 17.667-9.178 20.398-24.66 7.906-50.949 12.175-78.234 12.175s-53.574-4.269-78.234-12.175c-8.519-2.731-12.811-12.223-9.178-20.398l8.423-18.951c4.993-11.235 16.135-18.476 28.429-18.476h101.12c12.295 0 23.436 7.241 28.43 18.476z" fill="#0573cf"/><path d="m258.268 283.814c-15.892 5.097-32.46 8.684-49.536 10.591-15.371 1.717-29.979-7.145-35.517-21.586-.088-.229-.176-.458-.263-.688-8.472-22.264 7.894-46.13 31.715-46.13h25.892c12.295 0 23.436 7.24 28.43 18.476l8.423 18.951c3.628 8.161-.639 17.658-9.144 20.386z" fill="#5290d9"/><path d="m239.668 102.254-6.619-6.619c-3.905-3.905-3.905-10.237 0-14.142 3.905-3.905 10.237-3.905 14.142 0l6.619 6.619c3.905 3.905 3.905 10.237 0 14.142-3.905 3.905-10.236 3.905-14.142 0zm-44.581-72.256c3.905-3.905 3.905-10.237 0-14.142l-6.619-6.619c-3.905-3.905-10.237-3.905-14.142 0-3.905 3.905-3.905 10.237 0 14.142l6.619 6.619c3.905 3.906 10.237 3.906 14.142 0zm63.601 0c3.905 3.905 10.237 3.905 14.142 0l6.619-6.619c3.905-3.905 3.905-10.237 0-14.142-3.905-3.905-10.237-3.905-14.142 0l-6.619 6.619c-3.905 3.906-3.905 10.237 0 14.142z" fill="#005aaf"/><path d="m159.369 102.254-6.619-6.619c-3.905-3.905-3.905-10.237 0-14.142 3.905-3.905 10.237-3.905 14.142 0l6.619 6.619c3.905 3.905 3.905 10.237 0 14.142-3.905 3.905-10.237 3.905-14.142 0zm63.35 38.533c-3.905-3.905-10.237-3.905-14.142 0l-14.142 14.142c-3.905 3.905-3.905 10.237 0 14.142 3.905 3.905 10.237 3.905 14.142 0l14.142-14.142c3.905-3.905 3.905-10.237 0-14.142z" fill="#ff4343"/><path d="m350 336h-340c-5.523 0-10-4.477-10-10 0-5.523 4.477-10 10-10h340c5.523 0 10 4.477 10 10 0 5.523-4.477 10-10 10z" fill="#ff9a9a"/><path d="m202.138 336h-192.138c-5.523 0-10-4.477-10-10s4.477-10 10-10h192.138c-5.523 0-10 4.477-10 10s4.477 10 10 10z" fill="#ff7a7a"/><path d="m226 366h-92c-5.523 0-10-4.477-10-10v-10c0-5.523 4.477-10 10-10h92c5.523 0 10 4.477 10 10v10c0 5.523-4.477 10-10 10z" fill="#fff5f5"/><path d="m456.683 319.482-175.075-175.075c-3.905-3.905-3.905-10.237 0-14.142l26.041-26.041c12.955-12.955 33.959-12.955 46.913 0l8.05 8.05c36.868-19.307 83.212-14.141 115.008 15.5 9.198 15.864 16.742 32.806 22.395 50.591.538 1.692-3.048.009-2.544 1.717 6.782 22.997 10.421 47.341 10.421 72.535 0 1.872 4.086 7.122 4.046 8.984-.309 14.394-1.806 28.495-4.397 42.209-4.485 23.755-33.764 32.766-50.858 15.672z" fill="#005aaf"/><path d="m306.119 168.917-24.51-24.51c-3.905-3.905-3.905-10.237 0-14.142l25.274-26.807c12.955-12.955 34.226-14.262 47.181-1.307l8.043 8.765c36.868-19.307 81.625-17.03 115.515 16.86 2.056 3.546 4.03 7.147 5.918 10.798-29.702-16.998-66.234-17.594-96.416-1.788l-8.05-8.05c-12.955-12.955-33.959-12.955-46.913 0l-26.041 26.041c-3.906 3.904-3.906 10.235-.001 14.14z" fill="#004b94"/><path d="m507.953 301.585c-1.26 7.013-9.847 9.751-14.886 4.713l-190.245-190.246c-3.905-3.905-3.905-10.237 0-14.142 3.905-3.905 10.237-3.905 14.142 0l192.216 192.216c-.373 2.498-.782 4.985-1.227 7.459z" fill="#0573cf"/><path d="m64 296h-20c-5.523 0-10-4.477-10-10 0-5.523 4.477-10 10-10h20c5.523 0 10 4.477 10 10 0 5.523-4.477 10-10 10zm270-10c0-5.523-4.477-10-10-10h-20c-5.523 0-10 4.477-10 10 0 5.523 4.477 10 10 10h20c5.523 0 10-4.477 10-10zm-20.8-187.854c-3.905-3.904-10.236-3.904-14.141.001s-3.905 10.237 0 14.142l18.367 18.367c5.673 5.669 15.407 2.598 16.76-5.308.014-.08.027-.159.041-.238.54-3.171-.479-6.41-2.75-8.687z" fill="#fff587"/><path d="m391.21 246.938c-21.479 21.479-56.303 21.479-77.782 0s-21.479-56.303 0-77.782 56.303-21.479 77.782 0 21.479 56.303 0 77.782zm66.899 67.171c-21.479 21.479-21.479 56.303 0 77.782 3.025 3.025 6.314 5.624 9.794 7.796 5.612-8.26 10.753-16.865 15.386-25.777.675-1.299-.809-3.086-.155-4.398 5.916-11.876 10.936-24.277 14.973-37.114.465-1.478 3.065-2.482 3.504-3.972 2.805-9.529 5.071-19.288 6.763-29.244-17.579-3.696-36.616 1.278-50.265 14.927z" fill="#002c5d"/><path d="m369.997 225.724c-9.763 9.763-25.592 9.763-35.355 0s-9.763-25.592 0-35.355 25.592-9.763 35.355 0 9.763 25.592 0 35.355zm109.325 109.598c-9.763 9.763-9.763 25.592 0 35.355 1.234 1.233 2.564 2.311 3.967 3.233 7.492-14.413 13.654-29.628 18.322-45.484-7.833-1.461-16.229.837-22.289 6.896z" fill="#b3cbed"/><path d="m469.503 147.852 30.513 30.513c7.784 24.487-87.113-15.8-87.113-15.8l-34.116-34.116c30.444-11.59 66.19-5.123 90.716 19.403z" fill="#5290d9"/><path d="m512 256c0 1.872-.02 3.739-.06 5.601l-99.036-99.036c29.019-11.048 62.856-5.688 87.201 16.079 7.727 24.406 11.895 50.394 11.895 77.356z" fill="#83afe4"/><path d="m377.062 325.962-18.524-28.688c-2.996-4.64-1.663-10.83 2.977-13.825 4.64-2.996 10.83-1.663 13.825 2.977l18.524 28.688c2.996 4.64 1.663 10.83-2.977 13.825-4.639 2.996-10.829 1.663-13.825-2.977zm53.638-29.575c3.176-4.519 2.087-10.756-2.431-13.932l-27.939-19.636c-4.519-3.176-10.756-2.087-13.932 2.431-3.176 4.519-2.087 10.756 2.431 13.932l27.939 19.636c4.519 3.176 10.756 2.087 13.932-2.431z" fill="#fff"/><path d="m361.158 216.886c-4.882 4.882-12.796 4.882-17.678 0s-4.882-12.796 0-17.678 12.796-4.882 17.678 0c4.881 4.881 4.881 12.796 0 17.678z" fill="#83afe4"/></g></svg>