<svg id="Capa_1" enable-background="new 0 0 512 512" height="512" viewBox="0 0 512 512" width="512" xmlns="http://www.w3.org/2000/svg"><g><circle cx="256" cy="267" fill="#ffe177" r="245"/><g fill="#ffd15b"><path d="m28.683 351.5c0-69.752 56.748-126.5 126.5-126.5 5.884 0 11.673.413 17.345 1.195-4.78-11.198-8.331-23.04-10.487-35.356-2.275-.095-4.559-.155-6.858-.155-62.962 0-117.464 36.189-143.865 88.896 1.417 28.028 7.552 54.811 17.615 79.578-.152-2.543-.25-5.094-.25-7.658z"/><path d="m277.331 318.588c2.832 10.499 4.352 21.531 4.352 32.912 0 69.752-56.748 126.5-126.5 126.5-9.959 0-19.84-1.18-29.437-3.471 22.764 14.318 48.042 25.004 75.031 31.221 66.608-19.659 115.223-81.272 115.223-154.25 0-9.197-.783-18.209-2.266-26.984-12.558-.594-24.746-2.62-36.403-5.928z"/></g><g><g><path d="m454.562 256.706c18.74-26.528 29.755-58.904 29.755-93.854 0-89.941-72.911-162.852-162.852-162.852s-162.852 72.911-162.852 162.852c0 22.402 4.526 43.747 12.709 63.173 51.554 6.594 93.505 44.342 106.319 93.707 13.944 3.887 28.64 5.972 43.823 5.972 31.246 0 60.431-8.807 85.223-24.063l51.575 13.82c5.766 1.545 11.043-3.731 9.498-9.498z" fill="#fe5694"/><path d="m233.175 162.852c0-77.113 53.598-141.702 125.571-158.559-11.973-2.804-24.453-4.293-37.281-4.293-89.941 0-162.852 72.911-162.852 162.852 0 22.402 4.526 43.747 12.709 63.173 51.554 6.594 93.505 44.342 106.319 93.707 13.944 3.887 28.64 5.972 43.823 5.972 12.815 0 25.275-1.504 37.235-4.304-71.949-16.874-125.524-81.452-125.524-158.548z" fill="#fe0364"/><g><path d="m340.268 109.18-18.803 18.803-18.803-18.803c-17.431-17.431-45.693-17.431-63.124 0-17.431 17.431-17.431 45.693 0 63.124l74.595 74.595c4.049 4.049 10.614 4.049 14.664 0l74.595-74.595c17.431-17.431 17.431-45.693 0-63.124-17.432-17.431-45.693-17.431-63.124 0z" fill="#fff"/></g><g><path d="m280.073 164.197c-17.431-17.431-17.431-45.693 0-63.124 1.135-1.135 2.319-2.193 3.54-3.18-15.135-4.405-32.142-.645-44.075 11.288-17.431 17.431-17.431 45.693 0 63.124l74.595 74.595c4.049 4.049 10.614 4.049 14.664 0l16.989-16.989z" fill="#dff6fd"/></g></g><path d="m155.183 224c-70.416 0-127.5 57.084-127.5 127.5 0 26.91 8.344 51.867 22.575 72.441l-10.406 38.837c-1.617 6.033 3.904 11.554 9.937 9.937l41.199-11.039c18.855 11.009 40.786 17.324 64.195 17.324 70.416 0 127.5-57.084 127.5-127.5s-57.084-127.5-127.5-127.5z" fill="#01c0fa"/><path d="m84 351.5c0-60.74 42.475-111.553 99.341-124.373-9.059-2.042-18.482-3.127-28.159-3.127-70.416 0-127.5 57.084-127.5 127.5 0 26.91 8.344 51.867 22.575 72.441l-10.406 38.837c-1.617 6.033 3.904 11.554 9.937 9.937l41.199-11.039c18.856 11.009 40.787 17.324 64.196 17.324 9.677 0 19.099-1.084 28.159-3.127-56.867-12.82-99.342-63.633-99.342-124.373z" fill="#08a9f1"/><g><path d="m170.027 311.655-14.844 14.845-14.844-14.844c-13.761-13.761-36.073-13.761-49.835 0-13.761 13.761-13.761 36.073 0 49.834l58.891 58.891c3.197 3.197 8.38 3.197 11.577 0l58.891-58.891c13.761-13.761 13.761-36.073 0-49.834-13.763-13.762-36.074-13.762-49.836-.001z" fill="#fff"/></g><g><path d="m123.321 353.156c-13.761-13.761-13.761-36.073 0-49.835.298-.298.605-.581.91-.865-11.674-3.003-24.586.059-33.727 9.2-13.761 13.761-13.761 36.073 0 49.834l58.891 58.891c3.197 3.197 8.38 3.197 11.577 0l14.787-14.787z" fill="#dff6fd"/></g></g></g></svg>