<svg id="Capa_1" enable-background="new 0 0 512 512" height="512" viewBox="0 0 512 512" width="512" xmlns="http://www.w3.org/2000/svg"><g><path d="m512 256c0 87.61-44.02 164.95-111.14 211.09-8.02 5.51-16.37-28.404-25.01-23.824-14.18 7.54-29.15 23.014-44.76 27.794-22.2 6.8-45.68 10.66-69.99 11.14-1.7.03-3.4.05-5.1.05s-3.4-.02-5.1-.05c-4.54-.09-9.05-.3-13.53-.63-19.5-1.39-38.4-4.98-56.46-10.51-15.61-4.78-30.58-12.63-44.76-20.171-8.64-4.58-16.99 21.711-25.01 16.2-67.12-46.139-111.14-123.479-111.14-211.089 0-14.79 1.25-29.28 3.67-43.38 2.77-16.28 7.09-32.04 12.79-47.11 36.55-96.73 130.02-165.51 239.54-165.51s202.99 68.78 239.54 165.51c5.7 15.07 10.02 30.83 12.79 47.11 2.42 14.1 3.67 28.59 3.67 43.38z" fill="#814ba2"/><g><path d="m354.27 365.14v72.28c0 24.16-8.72 46.28-23.18 63.39-22.2 6.8-45.68 10.66-69.99 11.14-1.7.03-3.4.05-5.1.05s-3.4-.02-5.1-.05c-4.54-.09-9.05-.3-13.53-.63-19.5-1.39-38.4-4.98-56.46-10.51-14.46-17.11-23.18-39.23-23.18-63.39v-72.28c0-37.13 20.59-69.45 50.98-86.16 14.03-7.72 30.15.17 47.29.17s33.26-7.89 47.29-.17c30.38 16.7 50.98 49.02 50.98 86.16z" fill="#0ed2b3"/><path d="m237.37 511.32c-19.5-1.39-38.4-4.98-56.46-10.51-14.46-17.11-23.18-39.23-23.18-63.39v-72.28c0-37.13 20.59-69.45 50.98-86.16 13.64-7.5 29.25-.26 45.86.15-30.24 16.76-50.7 48.99-50.7 86.01v72.28c0 29.46 12.96 55.9 33.5 73.9z" fill="#0ab69f"/><path d="m336.398 131.014-16.353-74.231h-141.451l-12.844-12.844c-3.453-3.454-9.053-3.454-12.506 0-3.453 3.453-3.453 9.053 0 12.506l.338.338h-1.547c-20.498 0-37.116 16.617-37.116 37.116 0 8.716 3.012 16.724 8.042 23.057h-5.194c-4.884 0-8.843 3.959-8.843 8.843s3.959 8.843 8.843 8.843h44.943v-3.628z" fill="#dedbee"/><path d="m394.233 116.955h-5.194c5.029-6.334 8.042-14.341 8.042-23.057 0-20.498-16.617-37.116-37.116-37.116h-1.547l.338-.338c3.453-3.453 3.453-9.053 0-12.506-3.453-3.454-9.053-3.454-12.506 0l-12.844 12.844h-13.36l2.412 10.949-7.987 7.987 12.501 12.501 9.427 42.795h12.892v3.628h44.943c4.884 0 8.843-3.959 8.843-8.843s-3.96-8.844-8.844-8.844z" fill="#f5f8f9"/><path d="m303.286 278.975c-.844 25.362-21.726 45.733-47.279 45.733-6.277 0-12.371-1.212-18.118-3.595-17.253-7.163-28.569-23.585-29.182-42.138 14.033-7.714 30.148-12.106 47.292-12.106s33.261 4.392 47.287 12.106z" fill="#ffb09e"/><path d="m289.698 216.985v60.4c0 18.609-15.097 33.706-33.694 33.706-4.572 0-8.928-.907-12.9-2.554-12.21-5.071-20.806-17.102-20.806-31.152v-60.4z" fill="#ffcebf"/><path d="m243.103 255.988v52.544c-12.208-5.066-20.8-17.102-20.8-31.141v-37.558z" fill="#ffb09e"/><path d="m342.94 197.422h-174.825c-27.897 0-50.512-22.615-50.512-50.512 0-17.445 14.142-31.587 31.587-31.587h212.676c17.445 0 31.587 14.142 31.587 31.587-.001 27.897-22.616 50.512-50.513 50.512z" fill="#ffb09e"/><path d="m168.114 180.393c-18.463 0-33.483-15.021-33.483-33.483 0-8.027 6.531-14.558 14.558-14.558h212.676c8.027 0 14.558 6.531 14.558 14.558 0 18.463-15.021 33.483-33.483 33.483z" fill="#f89580"/><g fill="#f5f8f9"><path d="m156.599 168.53h12.904v-25.809h-12.904c-7.127 0-12.904 5.777-12.904 12.904s5.777 12.905 12.904 12.905z"/><path d="m355.401 168.53h-12.904v-25.809h12.904c7.127 0 12.904 5.777 12.904 12.904s-5.777 12.905-12.904 12.905z"/></g><path d="m256 0c-54.273 0-98.27 43.997-98.27 98.27v72.28c0 54.273 43.997 98.27 98.27 98.27s98.27-43.997 98.27-98.27v-72.28c0-54.273-43.997-98.27-98.27-98.27z" fill="#ffcebf"/><path d="m281.392 265.506c-8.099 2.162-16.609 3.315-25.392 3.315-54.279 0-98.27-43.992-98.27-98.27v-72.281c0-54.27 43.991-98.27 98.27-98.27 8.783 0 17.293 1.153 25.392 3.315-41.967 11.192-72.887 49.468-72.887 94.955v72.28c0 45.496 30.92 83.772 72.887 94.956z" fill="#ffb09e"/><path d="m188.216 114.356c-7.481 0-12.608 7.577-9.79 14.507 5.73 14.088 19.557 24.021 35.703 24.021s29.973-9.932 35.703-24.021c2.818-6.929-2.309-14.507-9.79-14.507z" fill="#ffb09e"/><circle cx="214.129" cy="114.356" fill="#f5f8f9" r="29.11"/><path d="m221.436 142.539c-2.343.603-4.783.924-7.311.924-16.079 0-29.106-13.027-29.106-29.106s13.027-29.106 29.106-29.106c2.528 0 4.968.321 7.311.923-12.55 3.237-21.815 14.621-21.815 28.183 0 13.561 9.264 24.945 21.815 28.182z" fill="#dedbee"/><path d="m271.958 114.356c-7.481 0-12.608 7.577-9.79 14.507 5.73 14.088 19.557 24.021 35.703 24.021s29.973-9.932 35.703-24.021c2.818-6.929-2.309-14.507-9.79-14.507z" fill="#ffb09e"/><circle cx="297.871" cy="114.356" fill="#f5f8f9" r="29.11"/><path d="m305.178 142.539c-2.343.603-4.783.924-7.311.924-16.079 0-29.106-13.027-29.106-29.106s13.027-29.106 29.106-29.106c2.528 0 4.968.321 7.311.923-12.55 3.237-21.815 14.621-21.815 28.183-.001 13.561 9.264 24.945 21.815 28.182z" fill="#dedbee"/><circle cx="219.561" cy="114.175" fill="#444" r="11.623"/><circle cx="292.169" cy="114.175" fill="#444" r="11.623"/><path d="m284.652 162.489h-57.303c-17.302 0-31.328 14.026-31.328 31.328 0 8.281 6.714 14.995 14.995 14.995s14.995-6.713 14.995-14.995c0 8.281 6.713 14.995 14.995 14.995 8.281 0 14.995-6.713 14.995-14.995 0 8.281 6.713 14.995 14.995 14.995s14.995-6.713 14.995-14.995c0 8.281 6.713 14.995 14.995 14.995s14.995-6.713 14.995-14.995c-.001-17.302-14.027-31.328-31.329-31.328z" fill="#f5f8f9"/><path d="m237.961 193.817c0 4.14 1.675 7.891 4.392 10.608 1.321 1.321 2.894 2.397 4.63 3.152-1.831.797-3.854 1.239-5.978 1.239-8.279 0-14.993-6.713-14.993-14.999 0 8.286-6.713 14.999-14.999 14.999-4.14 0-7.884-1.682-10.601-4.392-2.717-2.717-4.392-6.468-4.392-10.608 0-17.301 14.026-31.326 31.326-31.326h41.941c-17.3 0-31.326 14.026-31.326 31.327z" fill="#dedbee"/><g fill="#ffb09e"><path d="m256 167.413c-5.626 0-10.187-4.561-10.187-10.187v-86.262h20.374v86.263c0 5.626-4.561 10.186-10.187 10.186z"/><path d="m303.817 72.791h-96.58c-4.421 0-8.004-3.584-8.004-8.004 0-4.421 3.584-8.004 8.004-8.004h96.58c4.421 0 8.004 3.584 8.004 8.004.001 4.42-3.583 8.004-8.004 8.004z"/><path d="m292.978 45.108h-74.902c-4.421 0-8.004-3.584-8.004-8.004 0-4.421 3.584-8.004 8.004-8.004h74.902c4.421 0 8.004 3.584 8.004 8.004s-3.583 8.004-8.004 8.004z"/></g></g><g><g><path d="m511.31 192.24-1.6 10.979-1.38 9.4-2.06 14.07-13.57 92.65c-2.09 14.24-8.72 27.43-18.9 37.62l-72.94 72.93v37.2c-39.89 27.43-87.94 43.85-139.76 44.86-2.03-31.01-1.31-78.08-1.01-79.98 3.81-24.03 15.12-46.42 32.54-63.84l12.17-12.16 18.03 18.04 32.86-25.009 69.16-52.64 38.54-115.53c2.33-6.94 7.46-12.22 13.74-14.91 4.72-2.03 10.1-2.59 15.44-1.32 1.02.24 2.01.55 2.97.91 1.14.42 2.23.93 3.28 1.51 4.35 2.4 7.82 6.05 10.05 10.37 2.26 4.43 3.22 9.58 2.44 14.85z" fill="#ffcebf"/><path d="m375.179 280.441c-17.988-5.768-37.246 4.138-43.014 22.126-4.052 12.637-13.431 22.971-25.769 27.859-14.464 5.73-26.232 17.91-30.773 34.221-7.145 25.661 6.723 52.898 31.683 62.2 27.819 10.367 58.343-4.666 67.305-32.616l22.695-70.777c5.768-17.988-4.139-37.246-22.127-43.013z" fill="#ffcebf"/><path d="m363.162 388.555c-4.868-2.414-7.24-8.023-5.581-13.197l19.805-61.777c4.021-12.547.426-25.714-8.235-34.482 2.016.259 4.026.706 6.025 1.347 17.99 5.767 27.891 25.024 22.13 43.009l-18.8 58.613c-2.053 6.4-9.322 9.474-15.344 6.487z" fill="#ffb09e"/><path d="m511.31 192.24-2.98 20.38-2.06 14.07-13.57 92.65c-2.09 14.24-8.72 27.43-18.9 37.62l-72.94 72.93v37.2c-8.02 5.51-16.37 10.58-25.01 15.16l2.21-69.25 88.68-88.68c7.11-7.11 11.73-16.33 13.17-26.29l15.81-109.5c1.67-11.54-6.95-22.01-18.59-22.61 4.72-2.03 10.1-2.59 15.44-1.32 1.02.24 2.01.55 2.97.91 1.14.42 2.23.93 3.28 1.51 8.82 4.87 14.02 14.82 12.49 25.22z" fill="#ffb09e"/><path d="m395.393 320.58c0 8.842-7.168 16.01-16.01 16.01h-11.12c-8.842 0-16.01-7.168-16.01-16.01s7.168-16.01 16.01-16.01h11.12c8.842 0 16.01 7.168 16.01 16.01z" fill="#f5f8f9"/><path d="m395.393 320.58c-.006 8.844-7.174 16.012-16.012 16.012l-11.119-.006c-.463 0-.921-.016-1.374-.059 8.214-.69 14.654-7.572 14.654-15.948 0-8.386-6.457-15.274-14.686-15.948.458-.049.927-.065 1.401-.065h11.124c8.838.002 16.006 7.17 16.012 16.014z" fill="#dedbee"/><path d="m508.865 177.388c2.269 4.436 3.223 9.583 2.447 14.854l-1.606 10.973h-11.846c-.625 0-1.25-.043-1.849-.135-6.257-.9-11.059-6.273-11.065-12.779.005-3.562 1.45-6.796 3.783-9.13 1.929-1.929 4.479-3.25 7.325-3.649.587-.092 1.191-.135 1.805-.135z" fill="#f5f8f9"/><path d="m508.865 177.388c2.269 4.436 3.223 9.583 2.447 14.854l-1.606 10.973h-11.846c-.625 0-1.25-.043-1.849-.135 6.279-.868 11.113-6.263 11.108-12.778.005-6.505-4.802-11.884-11.065-12.779.587-.092 1.191-.135 1.805-.135z" fill="#dedbee"/></g><g><path d="m250.9 511.95c-51.82-1.01-99.87-17.43-139.76-44.86v-37.2l-72.94-72.93c-10.18-10.19-16.81-23.38-18.9-37.62l-13.57-92.65-2.06-14.07-1.38-9.4-1.6-10.979c-.78-5.271.18-10.42 2.44-14.85 2.23-4.32 5.7-7.97 10.05-10.37 1.05-.58 2.14-1.09 3.28-1.51.96-.36 1.95-.67 2.97-.91 5.34-1.27 10.72-.71 15.44 1.32 6.28 2.69 11.41 7.97 13.74 14.91l38.54 115.53 69.16 52.639 32.86 25.01 18.03-18.04 12.17 12.16c17.42 17.42 28.73 39.81 32.54 63.84.3 1.9 1.02 48.97-1.01 79.98z" fill="#ffcebf"/><path d="m136.821 280.441c17.988-5.768 37.246 4.138 43.014 22.126 4.052 12.637 13.431 22.971 25.769 27.859 14.464 5.73 26.232 17.91 30.773 34.221 7.145 25.661-6.723 52.898-31.683 62.2-27.819 10.367-58.343-4.666-67.305-32.616l-22.695-70.777c-5.768-17.988 4.139-37.246 22.127-43.013z" fill="#ffcebf"/><path d="m148.838 388.555c4.868-2.414 7.24-8.023 5.581-13.197l-19.805-61.777c-4.021-12.547-.426-25.714 8.235-34.482-2.016.259-4.026.706-6.025 1.347-17.99 5.767-27.891 25.024-22.13 43.009l18.8 58.613c2.053 6.4 9.322 9.474 15.344 6.487z" fill="#ffb09e"/><path d="m111.14 467.09v-37.2l-72.94-72.93c-10.18-10.19-16.81-23.38-18.9-37.62l-13.57-92.65-2.06-14.07-2.98-20.38c-1.53-10.4 3.67-20.35 12.49-25.22 1.05-.58 2.14-1.09 3.28-1.51.96-.36 1.95-.67 2.97-.91 5.34-1.27 10.72-.71 15.44 1.32-11.64.6-20.26 11.07-18.59 22.61l15.81 109.5c1.44 9.96 6.06 19.18 13.17 26.29l88.68 88.68 2.21 69.25c-8.64-4.58-16.99-9.65-25.01-15.16z" fill="#ffb09e"/><path d="m116.607 320.58c0 8.842 7.168 16.01 16.01 16.01h11.12c8.842 0 16.01-7.168 16.01-16.01s-7.168-16.01-16.01-16.01h-11.12c-8.842 0-16.01 7.168-16.01 16.01z" fill="#f5f8f9"/><path d="m116.607 320.58c.006 8.844 7.174 16.012 16.012 16.012l11.119-.006c.463 0 .921-.016 1.374-.059-8.214-.69-14.654-7.572-14.654-15.948 0-8.386 6.457-15.274 14.686-15.948-.458-.049-.927-.065-1.401-.065h-11.124c-8.838.002-16.006 7.17-16.012 16.014z" fill="#dedbee"/><path d="m3.135 177.388c-2.269 4.436-3.223 9.583-2.447 14.854l1.606 10.973h11.846c.625 0 1.25-.043 1.849-.135 6.257-.9 11.059-6.273 11.065-12.779-.005-3.562-1.45-6.796-3.783-9.13-1.929-1.929-4.479-3.25-7.325-3.649-.587-.092-1.191-.135-1.805-.135z" fill="#f5f8f9"/><path d="m3.135 177.388c-2.269 4.436-3.223 9.583-2.447 14.854l1.606 10.973h11.846c.625 0 1.25-.043 1.849-.135-6.279-.868-11.113-6.263-11.108-12.778-.005-6.505 4.802-11.884 11.065-12.779-.587-.092-1.191-.135-1.805-.135z" fill="#dedbee"/></g></g></g></svg>