<svg id="Layer_1" enable-background="new 0 0 512 512" height="512" viewBox="0 0 512 512" width="512" xmlns="http://www.w3.org/2000/svg"><g><path d="m256 21.996c-135.311 0-245.002 109.691-245.002 245.002 0 117.198 82.296 215.158 192.248 239.289h105.508c109.952-24.131 192.248-122.091 192.248-239.289 0-135.311-109.691-245.002-245.002-245.002z" fill="#2a428c"/><path d="m155.947 327.428c-5.025-3.324-9.135-5.392-13.287-7.758-2.494-1.421-3.698-4.362-2.959-7.136l10.643-39.948c.736-2.7 1.636-5.355 2.695-7.946 2.057-5.034 3.953-9.872 8.03-13.652l5.43-5.035c2.364-2.193 2.236-5.897-.166-8.049-1.534-1.374-2.171-3.486-1.626-5.467l1.282-4.663c1.876-6.823-.929-14.236-7.103-17.692-7.672-4.293-17.33-1.206-21.113 6.676l-27.806 79.919c-.697 2.004-1.443 3.992-2.287 5.941-2.24 5.172-7.567 21.342 4.684 37.257 7.172 10.35 10.441 10.366 50.897 37.122l10.944-37.342z" fill="#ffaa7b"/><path d="m288.579 358.392h-65.159c3.323 17.661 16.643 33.942 32.579 33.942 15.938.001 29.257-16.281 32.58-33.942z" fill="#ffaa7b"/><path d="m350.931 250.99c4.076 3.78 5.973 8.618 8.03 13.652 1.059 2.591 1.959 5.246 2.695 7.946l10.643 39.948c.739 2.774-.465 5.714-2.96 7.135-.586.334-1.172.662-1.759.989-.676 3.468-1.778 12.732 3.759 20.017 3.923 5.161 10.311 8.164 19.009 8.974 4.197-3.176 6.438-5.66 9.289-9.773 12.251-15.915 6.923-32.085 4.684-37.257-.844-1.948-1.589-3.936-2.287-5.941l-27.805-79.919c-3.783-7.881-13.442-10.969-21.113-6.675-6.175 3.456-8.978 10.868-7.103 17.691l1.282 4.663c.545 1.981-.093 4.093-1.627 5.467-2.402 2.152-2.531 5.856-.166 8.049z" fill="#ffc7ab"/><path d="m369.339 319.67c-4.151 2.366-8.261 4.434-13.286 7.758l-18.258 12.228 10.945 37.342c26.741-17.685 37.231-23.687 43.344-28.713-30.192-1.8-22.745-28.615-22.745-28.615z" fill="#ffaa7b"/><path d="m349.635 66.866-50.598-7.352c-4.029-.586-7.513-3.117-9.315-6.767l-22.628-45.85c-4.538-9.195-17.649-9.195-22.187 0l-22.628 45.85c-.43.871-.961 1.673-1.567 2.406.009 5.721 1.038 19.83 10.298 28.967 6.138 6.057 14.701 8.722 25.471 7.933l31.659 39.443c-.038 2.625.34 13.065 8.252 20.349 5.63 5.181 13.716 7.505 24.078 6.955l-4.149-24.193c-.688-4.013.642-8.108 3.558-10.95l36.613-35.689c7.341-7.159 3.29-19.628-6.857-21.102z" fill="#ffdd40"/><path d="m212.964 59.513-50.598 7.352c-10.147 1.475-14.198 13.944-6.856 21.101l36.613 35.689c2.916 2.842 4.246 6.937 3.558 10.95l-8.644 50.395c-1.733 10.106 8.874 17.812 17.949 13.041l45.257-23.793c3.604-1.895 7.909-1.895 11.513 0l45.257 23.793c9.076 4.771 19.683-2.935 17.949-13.041l-4.748-27.685c-32.298 1.607-30.559-26.327-30.559-26.327l-32.505-40.496c-37.961 3.361-34.873-37.746-34.873-37.746-1.801 3.651-5.284 6.182-9.313 6.767z" fill="#ffb332"/><g><path d="m261.242 136.849c-.496 0-1-.05-1.505-.155-3.978-.827-6.532-4.722-5.706-8.7l8.987-43.237c.827-3.978 4.717-6.534 8.701-5.705 3.978.827 6.532 4.722 5.706 8.701l-8.987 43.237c-.723 3.472-3.784 5.859-7.196 5.859z" fill="#ff8f33"/></g><g><path d="m282.461 136.849c-.496 0-1-.05-1.505-.155-3.978-.827-6.532-4.722-5.706-8.7l8.987-43.237c.827-3.978 4.718-6.534 8.701-5.705 3.978.827 6.532 4.722 5.706 8.701l-8.987 43.237c-.723 3.472-3.784 5.859-7.196 5.859z" fill="#ff8f33"/></g><g><path d="m298.458 105.206h-41.307c-4.063 0-7.357-3.294-7.357-7.357s3.294-7.357 7.357-7.357h41.307c4.063 0 7.357 3.294 7.357 7.357 0 4.064-3.293 7.357-7.357 7.357z" fill="#ff8f33"/></g><g><path d="m295.382 125.014h-41.307c-4.063 0-7.357-3.294-7.357-7.357s3.294-7.357 7.357-7.357h41.307c4.063 0 7.357 3.294 7.357 7.357 0 4.064-3.294 7.357-7.357 7.357z" fill="#ff8f33"/></g><g><g><path d="m229.088 156.705c-4.063 0-7.357-3.294-7.357-7.357v-53.081h-9.061c-4.063 0-7.357-3.294-7.357-7.357s3.294-7.357 7.357-7.357h16.418c4.063 0 7.357 3.294 7.357 7.357v60.439c0 4.063-3.294 7.356-7.357 7.356z" fill="#ff8f33"/></g></g><path d="m301.895 300.951c0 28.195-20.548 58.155-45.895 58.155s-45.895-29.959-45.895-58.155c0-28.195 20.548-46.317 45.895-46.317 25.347-.001 45.895 18.121 45.895 46.317z" fill="#ffc7ab"/><path d="m501.002 266.998c0-72.137-31.181-136.987-80.795-181.822-24.028 16.899-50.514 49.229-21.845 101.82 46 84.385 84.523 148.618 18.762 190.002-52.521 33.051-77.731 77.488-56.477 111.558 82.959-39.247 140.355-123.689 140.355-221.558z" fill="#3c58a0"/><path d="m10.998 266.998c0-72.137 31.181-136.987 80.795-181.822 24.028 16.899 50.514 49.229 21.845 101.82-46 84.385-84.523 148.618-18.761 190.002 52.521 33.051 77.731 77.488 56.477 111.558-82.96-39.247-140.356-123.689-140.356-221.558z" fill="#3c58a0"/><path d="m337.795 339.656-30.565 17.138c-1.869 1.048-3.976 1.598-6.118 1.598h-14.116c-3.285 16.42-15.668 32.418-30.997 32.418-1.179 0-2.338-.105-3.479-.288-4.066 4.384-7.658 11.035-7.658 20.859l.002 87.925c-.006.114-.208 6.172 4.128 12.591 2.328.066 4.664.103 7.008.103 18.113 0 35.761-1.983 52.754-5.713l-1.453-96.024c-.086-6.105 3.167-11.766 8.488-14.76 7.042-3.962 17.436-9.811 32.95-18.505 1.889-7.258 2.127-20.389-10.944-37.342z" fill="#49b1f7"/><path d="m204.698 410.263-1.453 96.024c15.356 3.37 31.25 5.298 47.535 5.642-4.721-6.354-4.419-12.547-4.419-12.547s0-66.333 0-88c0-10.003 3.837-16.519 7.968-20.641-14.552-1.108-26.162-16.529-29.326-32.348h-14.117c-2.137 0-4.245-.548-6.117-1.598l-30.565-17.138c-13.07 16.952-12.833 30.084-10.944 37.342 15.514 8.693 25.908 14.542 32.95 18.504 5.322 2.994 8.574 8.654 8.488 14.76z" fill="#1e9ef4"/></g></svg>