<svg id="Layer_1" enable-background="new 0 0 512 512" height="512" viewBox="0 0 512 512" width="512" xmlns="http://www.w3.org/2000/svg"><g><path d="m382.883 476.624 117.674-195.031c.284-4.83.445-9.694.445-14.595 0-135.311-109.691-245.002-245.002-245.002s-245.002 109.691-245.002 245.002c0 4.902.161 9.765.445 14.595l117.674 195.031c37.009 22.45 80.436 35.376 126.883 35.376s89.874-12.926 126.883-35.376z" fill="#47354f"/><path d="m500.557 281.593h-99.976c-13.2 0-23.9 10.7-23.9 23.9v24.351h76.757c12.352 0 22.4 10.049 22.4 22.4v22.993c14.071-28.524 22.753-60.179 24.719-93.644z" fill="#ffb332"/><path d="m111.419 281.593h-99.976c1.967 33.465 10.648 65.12 24.72 93.645v-22.993c0-12.352 10.049-22.4 22.4-22.4h76.757v-24.351c-.001-13.2-10.701-23.901-23.901-23.901z" fill="#ff9100"/><path d="m405.57 449.535.3-.546-27.75-94.431-.108-.367-.271-.271c-3.996-3.996-5.96-8.205-5.836-12.511.188-6.607 5.262-11.472 5.736-11.913l1.518-1.153h-216.827c-2.027 6.589-2.772 16.51 6.442 24.545 13.114 11.435 42.997 85.045 46.645 94.111-2.093 2.228-7.804 9.177-7.155 18.09.294 4.041 1.854 7.895 4.65 11.533h169.97c7.297-4.426 14.339-9.229 21.11-14.37-1.741-6.466 1.541-12.652 1.576-12.717z" fill="#ffdd40"/><path d="m376.681 354.981 27.575 93.833s-3.857 7.039-1.552 14.411c31.695-23.736 57.451-54.967 74.634-91.07v-19.911c0-13.2-10.701-23.9-23.9-23.9h-76.757s-14.133 12.505 0 26.637z" fill="#ffeb97"/><path d="m58.562 328.344c-13.2 0-23.9 10.7-23.9 23.9v19.911c20.64 43.365 53.639 79.711 94.455 104.469h85.725c-12.76-15.249 2.336-29.268 2.336-29.268s-33.073-83.089-47.417-95.597c-8.852-7.719-7.913-17.247-5.896-23.415z" fill="#ffb332"/><path d="m203.936 160.301c3.793 8.664 12.437 14.719 22.5 14.719s18.707-6.056 22.5-14.719v-105.905c0-12.427-10.074-22.5-22.5-22.5h-46.357c-12.426 0-22.5 10.073-22.5 22.5s10.074 22.5 22.5 22.5h23.857z" fill="#ffdd40"/><g><path d="m226.436 172.966c-12.426 0-22.5-10.073-22.5-22.5v102.896c0 12.427 10.074 22.5 22.5 22.5s22.5-10.073 22.5-22.5v-102.896c0 12.426-10.074 22.5-22.5 22.5z" fill="#ffb332"/></g><path d="m385.038 132.474c-2.388-.248-4.685 1.064-5.685 3.247-5.148 11.243-4.996 24.714 1.605 36.272s18.126 18.533 30.426 19.811c2.388.248 4.685-1.064 5.685-3.247 5.148-11.243 4.996-24.714-1.605-36.272-6.601-11.557-18.126-18.532-30.426-19.811z" fill="#ffb332"/><path d="m478.991 152.463c-.215-2.391-1.944-4.394-4.278-4.955-12.023-2.892-25.214-.155-35.288 8.543s-14.706 21.349-13.598 33.665c.215 2.391 1.944 4.394 4.278 4.955 12.023 2.892 25.214.155 35.288-8.543s14.706-21.349 13.598-33.665z" fill="#ffeb97"/><path d="m388.004 85.483c-2.45.266-4.454 2.106-4.927 4.525-2.131 10.901.761 22.633 8.851 31.441s19.534 12.686 30.576 11.488c2.45-.266 4.454-2.106 4.927-4.525 2.131-10.901-.761-22.633-8.851-31.441-8.089-8.809-19.533-12.686-30.576-11.488z" fill="#ffb332"/><path d="m475.4 85.329c-.734-2.353-2.926-3.964-5.391-3.961-11.107.013-22.06 5.116-29.141 14.754s-8.676 21.615-5.37 32.219c.734 2.353 2.926 3.964 5.391 3.961 11.107-.013 22.06-5.116 29.141-14.754s8.677-21.615 5.37-32.219z" fill="#ffeb97"/><path d="m376.95 184.618c-2.314-.848-4.926-.087-6.422 1.871-6.744 8.825-9.354 20.624-6.01 32.106s11.883 20.033 22.311 23.856c2.314.848 4.926.087 6.422-1.871 6.744-8.825 9.354-20.624 6.01-32.106-3.345-11.482-11.883-20.033-22.311-23.856z" fill="#ffb332"/><path d="m455.36 223.263c.388-2.434-.861-4.851-3.07-5.944-9.957-4.923-22.036-5.218-32.662.27s-17.377 15.51-19.126 26.478c-.388 2.434.861 4.851 3.07 5.943 9.956 4.923 22.036 5.218 32.662-.27 10.626-5.487 17.377-15.509 19.126-26.477z" fill="#ffdd40"/><path d="m388.302 44.136c-2.545.715-4.261 3.088-4.144 5.729.382 8.61 4.543 16.968 12.068 22.412 7.525 5.443 16.767 6.78 25.063 4.448 2.545-.716 4.261-3.088 4.144-5.729-.382-8.61-4.543-16.968-12.069-22.412-7.524-5.443-16.766-6.78-25.062-4.448z" fill="#ffb332"/><path d="m411.945.413c-2.571-1.033-5.505-.074-6.971 2.278-3.897 6.253-5.106 14.119-2.638 21.671s8.088 13.187 14.925 15.932c2.571 1.032 5.505.074 6.971-2.278 3.897-6.253 5.106-14.119 2.638-21.671s-8.088-13.187-14.925-15.932z" fill="#ffb332"/><path d="m457.533 31.666c-1.191-2.36-3.849-3.589-6.419-2.967-8.376 2.028-15.779 7.718-19.676 16.149s-3.433 17.757.45 25.451c1.191 2.36 3.849 3.589 6.419 2.967 8.376-2.028 15.779-7.718 19.676-16.149 3.896-8.431 3.432-17.757-.45-25.451z" fill="#ffdd40"/><path d="m126.962 132.474c2.388-.248 4.685 1.064 5.685 3.247 5.148 11.243 4.996 24.714-1.605 36.272-6.601 11.557-18.126 18.533-30.426 19.811-2.388.248-4.685-1.064-5.685-3.247-5.148-11.243-4.996-24.714 1.605-36.272 6.601-11.557 18.126-18.532 30.426-19.811z" fill="#ffdd40"/><path d="m33.009 152.463c.215-2.391 1.944-4.394 4.278-4.955 12.023-2.892 25.214-.155 35.288 8.543s14.706 21.349 13.597 33.665c-.215 2.391-1.944 4.394-4.278 4.955-12.023 2.892-25.214.155-35.288-8.543-10.073-8.698-14.705-21.349-13.597-33.665z" fill="#ffb332"/><path d="m123.996 85.483c2.45.266 4.454 2.106 4.927 4.525 2.131 10.901-.761 22.633-8.851 31.441s-19.534 12.686-30.576 11.488c-2.45-.266-4.454-2.106-4.927-4.525-2.131-10.901.761-22.633 8.851-31.441 8.089-8.809 19.533-12.686 30.576-11.488z" fill="#ffdd40"/><path d="m36.58 85.348c.731-2.353 2.923-3.966 5.387-3.966 11.107.003 22.065 5.095 29.155 14.726s8.697 21.607 5.4 32.214c-.732 2.353-2.923 3.966-5.387 3.966-11.107-.003-22.065-5.095-29.155-14.726s-8.697-21.607-5.4-32.214z" fill="#ffb332"/><path d="m135.05 184.618c2.314-.848 4.926-.087 6.422 1.871 6.744 8.825 9.354 20.624 6.01 32.106-3.345 11.482-11.883 20.033-22.311 23.856-2.314.848-4.926.087-6.422-1.871-6.744-8.825-9.354-20.624-6.01-32.106 3.345-11.482 11.883-20.033 22.311-23.856z" fill="#ffdd40"/><path d="m56.64 223.263c-.388-2.434.861-4.851 3.07-5.944 9.957-4.923 22.036-5.218 32.662.27s17.377 15.51 19.126 26.478c.388 2.434-.861 4.851-3.07 5.943-9.956 4.923-22.036 5.218-32.662-.27-10.626-5.487-17.377-15.509-19.126-26.477z" fill="#ffb332"/><path d="m123.698 44.136c2.545.715 4.261 3.088 4.144 5.729-.382 8.61-4.543 16.968-12.069 22.412-7.525 5.443-16.767 6.78-25.063 4.448-2.545-.716-4.261-3.088-4.144-5.729.382-8.61 4.543-16.968 12.069-22.412s16.767-6.78 25.063-4.448z" fill="#ffdd40"/><path d="m100.055.413c2.571-1.033 5.505-.074 6.971 2.278 3.897 6.253 5.106 14.119 2.638 21.671s-8.088 13.187-14.925 15.932c-2.571 1.032-5.505.074-6.971-2.278-3.897-6.253-5.106-14.119-2.638-21.671s8.088-13.187 14.925-15.932z" fill="#ffb332"/><path d="m54.467 31.666c1.191-2.36 3.849-3.589 6.419-2.967 8.376 2.028 15.78 7.718 19.676 16.149s3.433 17.757-.45 25.451c-1.191 2.36-3.849 3.589-6.419 2.967-8.376-2.028-15.779-7.718-19.676-16.149-3.896-8.431-3.432-17.757.45-25.451z" fill="#ffb332"/><g><g><g><path d="m346.096 97.4c-5.522 0-10-4.478-10-10v-77.4c0-5.522 4.478-10 10-10s10 4.477 10 10v77.4c0 5.523-4.478 10-10 10z" fill="#ff4155"/></g><g><path d="m357.311 40.126h-22.329c-5.522 0-10-4.478-10-10s4.478-10 10-10h22.329c5.523 0 10 4.478 10 10s-4.478 10-10 10z" fill="#ff7186"/></g></g><g><g><path d="m292.674 97.4c-11.121 0-21.572-4.494-28.674-12.33-3.709-4.093-3.398-10.416.693-14.125 4.095-3.708 10.417-3.399 14.125.693 3.271 3.607 8.449 5.762 13.855 5.762 5.071 0 7.965-2.973 8.323-4.982.404-2.266-3.241-4.468-6.486-5.665-9.536-3.518-18.009-7.289-18.364-7.448-.481-.214-.945-.467-1.387-.755-7.217-4.704-10.936-12.951-9.705-21.523 1.303-9.075 7.9-16.456 17.219-19.263 13.849-4.173 25.806 2.203 30.3 5.139 4.624 3.021 5.925 9.217 2.905 13.841s-9.215 5.925-13.841 2.905c-2.151-1.405-7.785-4.487-13.596-2.734-1.838.553-3 1.63-3.19 2.954-.095.659.057 1.2.449 1.614 2.455 1.069 9.064 3.899 16.132 6.507 16.77 6.186 20.941 18.491 19.253 27.944-2.22 12.438-14.001 21.466-28.011 21.466z" fill="#ff4155"/></g></g></g><ellipse cx="311.777" cy="196.361" fill="#56415e" rx="30.03" ry="70.637"/><path d="m122.166 359.209c-.035-.093-.072-.185-.109-.277-1.837-4.46-6.138-7.341-10.961-7.341-.005 0-.009.001-.013.001-4.828.005-9.13 2.896-10.959 7.363-.031.076-.062.152-.09.228l-26.957 70.78c4.893 5.488 10.027 10.755 15.39 15.783l22.593-59.321 22.825 60.482c1.511 4.005 5.315 6.473 9.357 6.473 1.173 0 2.366-.208 3.528-.646 5.168-1.95 7.775-7.72 5.826-12.887z" fill="#e80054"/><g><path d="m133.817 433.295h-45.571c-5.522 0-10-4.477-10-10 0-5.522 4.478-10 10-10h45.571c5.522 0 10 4.478 10 10 0 5.523-4.478 10-10 10z" fill="#e80054"/></g><g><g><path d="m170.209 453.377c-5.522 0-10-4.478-10-10v-81.633c0-4.376 2.846-8.244 7.023-9.547 4.181-1.301 8.719.264 11.205 3.864l38.808 56.196-.489-50.57c-.053-5.522 4.381-10.043 9.903-10.097h.099c5.478 0 9.944 4.413 9.998 9.903l.764 79.03c0 5.508-3.071 9.964-7.825 11.448-4.658 1.457-9.569-.358-12.517-4.616l-36.969-53.533v49.554c0 5.524-4.477 10.001-10 10.001z" fill="#ff4155"/></g></g><g><g><path d="m258.454 453.377c-5.522 0-10-4.478-10-10v-81.633c0-4.376 2.846-8.244 7.023-9.547 4.182-1.301 8.719.264 11.205 3.864l38.808 56.196-.489-50.57c-.053-5.522 4.381-10.043 9.903-10.097h.099c5.477 0 9.944 4.413 9.998 9.903l.764 79.03c0 5.508-3.071 9.964-7.825 11.448-4.658 1.457-9.569-.358-12.517-4.616l-36.969-53.533v49.554c0 5.524-4.477 10.001-10 10.001z" fill="#ff4155"/></g></g><g><g><path d="m346.152 453.377c-5.522 0-10-4.478-10-10v-81.786c0-5.522 4.478-10 10-10 5.523 0 10 4.478 10 10v81.786c0 5.523-4.478 10-10 10z" fill="#ff4155"/></g></g><g><g><path d="m404.88 453.377c-5.005 0-9.483-3.157-11.162-7.878l-27.987-80.629c-1.81-5.218.95-10.915 6.168-12.727 5.22-1.812 10.916.952 12.727 6.168l20.086 57.866 19.131-57.589c1.742-5.242 7.409-8.078 12.643-6.338 5.241 1.741 8.079 7.401 6.338 12.643l-26.704 80.385c-1.645 4.837-6.12 8.065-11.157 8.099-.028 0-.056 0-.083 0z" fill="#ff4155"/></g></g></g></svg>