<svg id="Capa_1" enable-background="new 0 0 512 512" height="512" viewBox="0 0 512 512" width="512" xmlns="http://www.w3.org/2000/svg"><g><g><path d="m446.662 426.814c40.621-45.31 65.338-105.172 65.338-170.814 0-141.385-114.615-256-256-256s-256 114.615-256 256c0 65.642 24.717 125.504 65.338 170.814z" fill="#1c2e7a"/></g><g><circle cx="256" cy="256" fill="#112360" r="170"/></g><g><path d="m417 364c-22-19.425-117.305-35.119-117.305-35.119v-112.07h-87.39v112.07s-95.305 15.694-117.305 35.119c-9.048 7.989-19.954 34.439-29.662 62.814 46.87 52.282 114.919 85.186 190.662 85.186s143.792-32.904 190.662-85.186c-9.708-28.375-20.614-54.825-29.662-62.814z" fill="#e9efff"/></g><g><path d="m360.621 477c-96.1 0-179.817-52.962-223.596-131.281-18.118 5.322-34.435 11.579-42.025 18.281-9.048 7.989-19.954 34.439-29.662 62.814 46.87 52.282 114.919 85.186 190.662 85.186 48.159 0 93.205-13.308 131.68-36.433-8.893.937-17.918 1.433-27.059 1.433z" fill="#d3dcfb"/></g><g><path d="m212.305 216.812v112.07c46.932 0 73.247-36.019 73.247-36.019l14.143-76.05h-87.39z" fill="#d3dcfb"/></g><g><path d="m399.18 436.247-11.516 39.331c7.351-4.417 14.467-9.186 21.314-14.296v-23.629c0-5.78-8.174-6.953-9.798-1.406z" fill="#bec8f7"/></g><g><path d="m103.022 437.651v23.629c6.847 5.111 13.963 9.879 21.314 14.296l-11.516-39.331c-1.624-5.545-9.798-4.372-9.798 1.406z" fill="#bec8f7"/></g><g><path d="m337.249 173.222c0 59.83-36.377 129.999-81.249 129.999s-81.249-70.169-81.249-129.999 36.376-102.85 81.249-102.85 81.249 43.019 81.249 102.85z" fill="#fff"/></g><g><path d="m202.691 173.222c0-53.479 29.064-93.521 67.279-101.421-4.539-.938-9.206-1.428-13.97-1.428-44.873 0-81.249 43.019-81.249 102.849s36.377 129.999 81.249 129.999c4.764 0 9.431-.798 13.97-2.284-38.215-12.506-67.279-74.237-67.279-127.715z" fill="#e9efff"/></g><g><g><circle cx="256.083" cy="256.658" fill="#bec8f7" r="7.5"/></g><g><g><path d="m256 233.962c-4.143 0-7.5-3.358-7.5-7.5v-33.341c0-4.142 3.357-7.5 7.5-7.5 6.748 0 13.028-2.7 17.683-7.602 4.651-4.899 7.02-11.324 6.668-18.091-.658-12.681-11.132-22.816-23.844-23.072-.166-.003-.333-.005-.499-.005-12.139 0-22.477 8.935-24.157 20.974-.156 1.119-.235 2.267-.235 3.411 0 4.142-3.357 7.5-7.5 7.5s-7.5-3.358-7.5-7.5c0-1.836.128-3.682.38-5.485 2.754-19.723 19.909-34.285 39.814-33.891 20.536.414 37.457 16.794 38.521 37.291.565 10.917-3.259 21.286-10.771 29.197-5.758 6.063-13.058 10.04-21.061 11.568v26.546c.001 4.142-3.356 7.5-7.499 7.5z" fill="#bec8f7"/></g></g></g></g></svg>