<svg id="Layer_1" enable-background="new 0 0 512 512" height="512" viewBox="0 0 512 512" width="512" xmlns="http://www.w3.org/2000/svg"><g><path d="m507.222 207.667c-22.443-112.162-121.46-196.669-240.224-196.669-135.311 0-245.002 109.691-245.002 245.002s109.691 245.002 245.002 245.002c30.801 0 60.266-5.7 87.421-16.076z" fill="#47354f"/><path d="m200.406 26.785h-79.49l.332.253c-4.079 5.187-18.787 25.665-15.948 48.028 1.671 13.168 9.181 24.505 22.307 33.688l16.412 11.705 50.412 130.23c-.058 2.248-.063 15.097 6.679 28.64 5.381 10.81 16.056 23.617 37.086 29.599 30.817-14.357 52.314-45.657 52.314-81.739v-110.3c0-49.558-40.547-90.104-90.104-90.104z" fill="#deeeff"/><path d="m90.104 26.785c-49.557 0-90.104 40.546-90.104 90.103v110.302c0 49.557 40.547 90.104 90.104 90.104h20.857c6.709 0 11.705 6.259 10.157 12.787-1.925 8.119-4.535 15.956-7.825 23.56-6.388 14.763 10.417 28.817 23.877 20.008 17.67-11.564 32.763-27.011 43.916-45.387 4.11-6.773 11.398-10.968 19.32-10.968 14.273 0 27.796-3.369 39.821-9.343-46.471-12.015-44.286-57.517-44.286-57.517l-50.686-130.934-16.778-11.967c-46.41-32.467-5.09-80.749-5.09-80.749h-33.283z" fill="#d3dcfb"/><path d="m482.296 296.566c-22.535-16.062-28.662-54.432-33.136-82.448-2.893-18.116 1.69-32.368 13.624-42.36 1.158-.969 2.332-1.848 3.5-2.647-11.606-5.473-24.544-8.544-38.168-8.544h-61.094c-2.926 6.831-5.251 15.738-3.356 24.719 1.857 8.801 7.467 16.112 16.69 21.765-3.123 1.593-8.661 4.663-14.393 9.014-11.451 8.693-18.056 18.36-19.099 27.955-1.29 11.863 5.596 23.654 20.474 35.07-3.749 2.872-13 10.669-20.155 22.564-8.353 13.886-15.183 36.101-.283 63.072l.121.22 51.174 46.174c-.948 3.547-3.499 16.104 4.285 26.892 3.492 4.839 8.55 8.583 15.102 11.242 45.29-35.335 77.823-86.241 89.582-144.67-9.577-.323-17.794-2.975-24.868-8.018z" fill="#49b1f7"/><path d="m399.898 410.635-51.685-46.635c-28.175-51 21.642-84.894 21.642-84.894-55.699-41.061 13.699-71.939 13.699-71.939-24.322-13.247-20.49-33.847-14.865-46.6h-50.875c-49.557 0-90.104 40.547-90.104 90.104v110.301c0 49.558 40.547 90.104 90.104 90.104 7.922 0 15.21 4.195 19.32 10.968 5.006 8.248 10.812 15.9 17.282 22.882 23.452-8.961 45.169-21.428 64.524-36.749-27.934-10.754-19.042-37.542-19.042-37.542z" fill="#1e9ef4"/><path d="m467.642 115.399c-33.958-48.375-84.959-83.904-144.287-97.873-6.354 30.876-12.263 92.897 38.866 105.307 55.299 13.422 91.124 4.791 105.421-7.434z" fill="#56415e"/><path d="m206.221 423.167c-33.09-26.672-93.187-17.202-126.383-9.081 39.567 46.797 96.358 78.552 160.598 85.479 5.12-18.752 2.774-46.584-34.215-76.398z" fill="#56415e"/><g><path d="m192.411 251.082c-4.042 0-7.847-2.468-9.357-6.472l-42.496-112.604-42.898 112.633c-1.966 5.161-7.743 7.75-12.904 5.785s-7.751-7.743-5.785-12.904l49.507-129.986c.028-.076.059-.151.09-.228 2.004-4.897 6.718-8.064 12.009-8.069h.012c5.287 0 10.001 3.157 12.012 8.048.037.091.073.182.107.272l49.058 129.991c1.95 5.168-.657 10.938-5.824 12.887-1.165.439-2.358.647-3.531.647z" fill="#3c58a0"/></g><g><path d="m177.219 218.706h-73.463c-5.522 0-10-4.478-10-10 0-5.523 4.478-10 10-10h73.463c5.522 0 10 4.477 10 10s-4.478 10-10 10z" fill="#4f71b6"/></g><g><path d="m349.847 279.106c19.155-12.921 41.15-18.773 56.581-21.414-15.426.043-36.04-2.695-40.925-16.94-5.111-14.901 11.427-25.126 31.406-28.904 4.837-.915 4.598-7.925-.28-8.587-20.406-2.772-44.575-1.313-56.891 16.727-14.526 21.279-11.354 44.95 10.109 59.118z" fill="#ffc839"/></g><path d="m396.342 380.651c-21.274-4.061-33.445-13.265-40.305-23.311-16.602-24.31-5.439-57.39 22.852-65.53 10.63-3.058 21.194-2.77 27.65-2.118 3.744.378 7.235-1.936 8.392-5.517l5.755-17.812c1.707-5.285-2.654-10.539-8.166-9.854-16.28 2.022-46.496 8.173-70.351 26.779-45.598 35.564-32.833 108.127 22.915 123.491 11.95 3.293 24.455 4.759 36.593 3.717-2.121-1.378-18.741-12.967-5.335-29.845z" fill="#ffdd40"/><path d="m507.222 207.667c-9.467-17.292-24.443-31.181-42.52-39.282-10.37 7.388-20.983 21.17-17.023 45.97 6.512 40.78 15.306 89.99 59.202 91.701 3.355-16.159 5.119-32.901 5.119-50.056 0-16.547-1.651-32.707-4.778-48.333z" fill="#73c3f9"/><path d="m446.345 383.75-.029-.034c-1.154-1.35-2.896-2.04-4.664-1.871-19.352 1.84-34.765 1.032-47.038-1.531-14.814 18.186 5.285 30.322 5.285 30.322 16.768-1.099 32.923-6.905 46.044-19.243 2.152-2.025 2.322-5.396.402-7.643z" fill="#ffeb97"/></g></svg>