<svg id="Layer_1" enable-background="new 0 0 512 512" height="512" viewBox="0 0 512 512" width="512" xmlns="http://www.w3.org/2000/svg"><g><path d="m54.766 406.759 405.016-3.724c26.031-38.917 41.22-85.701 41.22-136.037 0-135.311-109.691-245.002-245.002-245.002s-245.002 109.691-245.002 245.002c0 51.954 16.185 100.12 43.768 139.761z" fill="#816ae2"/><path d="m311.368 291.543c-6.226-9.568-7.972-23.728-8.328-34.08-4.751 5.534-9.738 10.164-14.503 13.863-10.013 7.775-22.157 11.464-34.195 11.09l.16 3.224.021.185c.048.272 4.392 26.77-16.989 42.678 1.984 1.535 3.981 3.027 5.974 4.451.665.475 1.149 1.156 1.4 1.97.225.726.94 1.177 1.701 1.055 6.629-1.075 12.145-1.076 18.782 0 .761.123 1.475-.329 1.701-1.055.251-.814.735-1.495 1.4-1.97 18.628-13.304 37.594-32.322 43.06-41.158-.06-.086-.127-.166-.184-.253z" fill="#ffaa7b"/><path d="m256 285.565-.155-3.118c-11.445-.034-22.879-3.741-32.382-11.12-4.765-3.7-9.752-8.329-14.503-13.863-.356 10.352-2.103 24.512-8.328 34.08-.057.087-.124.167-.183.252 5.003 8.087 21.314 24.701 38.325 37.659 21.988-16.657 17.226-43.89 17.226-43.89z" fill="#fc9460"/><path d="m303.819 27.023-1.772 52.997c-1.844 1.648-7.683 7.504-8.158 15.909-.257 4.54 1.098 9.023 4.025 13.39 21.855 2.019 39.505 5.265 51.692 7.917v-9.839c.001-34.043-18.422-63.989-45.787-80.374z" fill="#ffc839"/><path d="m299.894 109.508c-11.965-16.341 3.631-28.777 3.631-28.777l1.765-52.807c-14.339-8.946-31.237-14.131-49.29-14.131-51.483 0-93.606 42.123-93.606 93.606v9.837c53.82-11.445 101.546-11.212 137.5-7.728z" fill="#ffb332"/><g fill="#56415e"><path d="m325.284 142.638c.566 1.138 1.068 2.29 1.508 3.436 1.046 2.73 1.791 7.345 2.251 10.209 2.428-1.176 7.693-2.458 10.662-2.038.086-2.971.216-6.095.365-9.136z"/><path d="m172.535 144.935c.846 5.629 1.653 9.251 1.653 9.251 2.468.165 6.845 1.164 8.771 2.097.472-2.936 1.242-7.62 2.33-10.414.436-1.121.934-2.246 1.492-3.358z"/></g><path d="m345.014 154.087c-3.68-3.372-11.906-1.663-15.075.402.694 4.323.734 8.746.134 13.114l-3.74 27.238c0 2.196-.069 4.35-.197 6.466 9.119 2.751 14.546-5.436 15.309-11.055.329-2.419.866-4.802 1.611-7.128 2.426-7.576 11.177-20.588 1.958-29.037z" fill="#ffaa7b"/><path d="m166.986 154.087c3.68-3.372 11.906-1.663 15.075.402-.694 4.323-.734 8.746-.134 13.114l3.74 27.238c0 2.196.069 4.35.196 6.466-9.119 2.751-14.546-5.436-15.309-11.055-.329-2.419-.866-4.802-1.61-7.128-2.426-7.576-11.177-20.588-1.958-29.037z" fill="#fc9460"/><path d="m328.585 146.074c-.397-1.036-.848-2.077-1.348-3.109l-15.251-2.548c-26.24-4.384-52.862-5.681-79.328-3.909.567.57 1.164 1.135 1.801 1.692-2.093 4.812-8.947 24.794 3.755 57.608-1.061 2.141-4.068 9.137-1.787 15.668 1.299 3.719 4.061 6.606 8.217 8.601-.95 2.663-2.549 8.614-.407 14.182 1.401 3.641 4.133 6.444 8.126 8.344l2.134 42.931c.501.014 1.001.031 1.503.031 11.799 0 23.255-3.916 32.538-11.124 17.784-13.811 38.692-40.432 38.692-79.6l3.74-27.238c.997-7.261.241-14.677-2.385-21.529z" fill="#ffc7ab"/><path d="m253.815 241.611c-14.71-6.244-7.245-22.323-7.245-22.323-16.205-6.568-6.711-23.391-6.711-23.391-14.667-37.333-3.554-58.097-3.554-58.097-.574-.473-1.114-.947-1.624-1.42-12.247.747-24.464 2.144-36.597 4.208l-13.262 2.256c-.491 1.003-.934 2.016-1.327 3.024-2.688 6.906-3.472 14.396-2.465 21.729l3.741 27.244c0 39.167 20.908 65.789 38.692 79.6 9.283 7.208 20.739 11.124 32.537 11.124z" fill="#ffaa7b"/><path d="m262.609 84.219.06.276c.047.146 1.182 3.588 4.78 4.968 2.918 1.12 6.488.527 10.605-1.716v-71.97c0-5.475-4.438-9.913-9.913-9.913h-14.99z" fill="#ffdd40"/><path d="m278.055 109.544v-23.502c-11.22 6.561-13.956-2.003-13.956-2.003l-9.436-78.175h-10.803c-5.475 0-9.913 4.438-9.913 9.913v93.793c15.351-.458 30.082-.43 44.108-.026z" fill="#ffc839"/><path d="m308.39 86.04c5.833-.107 10.398-5.112 10.398-10.946v-39.069c0-3.285-1.625-6.343-4.309-8.237-3.353-2.367-6.887-4.49-10.578-6.344-2.893-1.454-6.306.692-6.306 3.93v50.072c0 5.918 4.851 10.703 10.795 10.594z" fill="#ffdd40"/><path d="m203.611 86.04c-5.833-.107-10.398-5.112-10.398-10.946v-39.069c0-3.285 1.625-6.343 4.309-8.237 3.353-2.367 6.888-4.49 10.579-6.344 2.893-1.454 6.306.692 6.306 3.93v50.072c-.001 5.918-4.853 10.703-10.796 10.594z" fill="#ffc839"/><path d="m257.585 0h-3.17c-3.582 0-6.513 2.931-6.513 6.513v77.525c0 3.583 2.931 6.513 6.513 6.513h3.17c3.582 0 6.513-2.931 6.513-6.513v-77.525c0-3.582-2.93-6.513-6.513-6.513z" fill="#ffe98d"/><path d="m355.418 117.461c-21.094-4.915-66.082-13.67-124.246-10.457l.338.193c-2.499 2.744-7.313 9.062-6.743 16.511.409 5.327 3.482 10.11 9.13 14.241 26.991-1.626 54.121-.217 80.873 4.253l34.532 5.769c9.482 1.584 18.116-5.727 18.116-15.341v-.026c-.001-7.223-4.966-13.504-12-15.143z" fill="#ffe98d"/><path d="m236.305 137.8c-21.171-13.898-2.449-30.861-2.361-30.94-23.737 1.165-49.728 4.308-77.232 10.532-7.09 1.604-12.128 7.91-12.128 15.179 0 9.632 8.666 16.949 18.162 15.333l32.46-5.523c13.63-2.319 27.362-3.827 41.125-4.563-.009-.006-.017-.012-.026-.018z" fill="#ffdd40"/><path d="m452.762 382.044c-7.892-27.027-25.784-53.872-65.425-57.112-6.07-.496-9.3-2.851-16.454-6.885-7.626-4.3-26.515-13.102-36.209-17.213 3.183 12.555-4.37 29.08-13.303 38.935-3.448 3.804-7.298 7.79-10.562 10.995-8.333 8.215-20.537 9.544-30.155 4.679-.072.102-.136.212-.183.335-4.037 10.631-8.236 17.523-9.392 19.332-9.878 2.435-20.279 2.436-30.159 0-1.156-1.809-5.355-8.701-9.392-19.332-.047-.123-.111-.233-.183-.335-17.548 8.876-30.853-5.162-30.445-4.969-.19-.187-.384-.385-.574-.574-.325.127-.566.216-.712.27-2.173.149-19.835 1.542-37.27 8.349-24.851 9.701-37.985 25.894-37.985 46.825v68.282c29.373 18.755 62.999 31.435 99.124 36.227l.005-.005h65.026l.005.005c16.827-2.232 33.115-6.169 48.682-11.638l.002-.012 117.818-107.09c-.617-3.085-1.335-5.902-2.259-9.069z" fill="#d3dcfb"/><path d="m125.859 405.344c0-49.554 74.061-53.69 74.061-53.69s.521-.177 1.53-.583c-.409-.391-.605-.622-.55-.596-3.339-3.301-6.813-6.889-10.271-10.705-8.976-9.903-16.468-26.455-13.303-38.935-9.694 4.111-28.583 12.913-36.209 17.213-7.154 4.034-10.383 6.388-16.454 6.885-39.641 3.241-57.533 30.085-65.424 57.112-2.182 7.472-3.218 12.985-4.472 24.714 18.865 27.112 43.076 50.217 71.092 67.822 0-18.443 0-43.676 0-69.237z" fill="#bec8f7"/><path d="m284.095 451.497c-2.582-25.416-6.453-53.919-12.064-75.054l-16.031-6.097-16.03 6.097c-5.614 21.144-9.486 49.661-12.068 75.085 8.904 7.388 31.291 21.181 56.193-.031z" fill="#ff4155"/><path d="m274.045 347.532-5.752-8.607c-.822-1.23-1.042-2.675-.751-4.016-.911-.253-1.467-.369-1.467-.369-3.34-.567-6.707-.851-10.075-.851s-6.735.284-10.075.851c0 0-.556.116-1.467.369.291 1.341.071 2.787-.751 4.016l-5.752 8.607c-2.217 3.318-5.041 5.942-8.208 7.857 4.954 13.344 10.223 21.055 10.223 21.055 5.277 1.354 10.654 2.031 16.03 2.031 5.377 0 10.753-.677 16.03-2.031s5.269-7.711 10.223-21.055c-3.168-1.915-5.991-4.54-8.208-7.857z" fill="#ff7186"/><path d="m244.396 331.715c-9.327-6.661-18.722-14.768-26.428-22.26-8.258-8.029-12.514-19.344-11.471-30.815.222-2.442.519-3.945.519-3.945l-18.841 10.942c-9.467 5.498-14.477 16.339-12.508 27.108.062.341.126.683.191 1.026 1.905 10.033 6.641 19.321 13.5 26.888 3.558 3.925 7.134 7.616 10.562 10.995 11.677 11.512 30.956 9.511 40.067-4.122l5.752-8.607c1.584-2.37.977-5.553-1.343-7.21z" fill="#deeeff"/><path d="m267.603 331.715c9.327-6.661 18.722-14.768 26.428-22.26 8.258-8.029 12.514-19.344 11.471-30.815-.222-2.442-.519-3.945-.519-3.945l18.841 10.942c9.467 5.498 14.477 16.339 12.508 27.108-.062.341-.126.683-.191 1.026-1.905 10.033-6.641 19.321-13.5 26.888-3.558 3.925-7.134 7.616-10.562 10.995-11.677 11.512-30.956 9.511-40.067-4.122l-5.752-8.607c-1.583-2.37-.976-5.553 1.343-7.21z" fill="#deeeff"/><g><path d="m405.577 271.517c.918.438 1.811.91 2.68 1.413v-31.432c0-5.611-4.549-10.16-10.16-10.16h-50.735c-5.611 0-10.16 4.549-10.16 10.16v2.404z" fill="#73c3f9"/></g><path d="m353.115 367.416c8.174 3.797 17.819 3.471 28.691-.964 2.02 5.908 10.184 26.244 29.684 36.492 2.159 1.135 4.389 2.085 6.673 2.89l9.908-98.114c1.615-15.995-6.985-31.281-21.494-38.204l-69.375-28.019v109.324c2.386 4.949 7.261 12.577 15.913 16.595z" fill="#9bd8f9"/><path d="m418.317 404.311c-26.973-9.717-35.583-39.88-35.583-39.88-31.6 13.862-43.238-11.326-45.531-17.416v151.189c28.013-9.839 53.697-24.619 76.005-43.303z" fill="#73c3f9"/><g><path d="m442.842 328.228c1.221.583 2.38 1.252 3.504 1.961v-29.046c0-5.023-4.072-9.096-9.096-9.096h-45.42c-5.024 0-9.096 4.073-9.096 9.096v2.808z" fill="#ffc839"/></g><path d="m411.489 402.944c13.34 7.013 29.116 7.705 46.906 2.103.46-.673.933-1.335 1.387-2.013l4.303-42.605c1.446-14.319-6.254-28.005-19.243-34.202l-62.108-25.085v67.826c3.078 7.851 11.451 24.882 28.755 33.976z" fill="#ffe98d"/><path d="m382.734 364.431v112.282c30.763-18.631 57.092-43.842 77.049-73.678-60.244 20.304-77.049-38.604-77.049-38.604z" fill="#ffdd40"/><path d="m500.763 256.476c-2.767-65.458-31.202-124.273-75.517-166.624-17.494 23.966-33.269 58.511-16.988 93.711 23.359 50.506 61.873 78.694 92.505 72.913z" fill="#9181f2"/><path d="m129.525 193.073c-8.828-40.587-40.45-62.413-68.812-74.022-31.193 41.11-49.715 92.363-49.715 147.948 0 29.085 5.076 56.981 14.381 82.861 9.745-14.14 24.047-29.293 44.883-41.629 55.736-33.001 76.263-37.001 59.263-115.158z" fill="#9181f2"/><path d="m306.352 226.228c-2.08-12.401-11.027-24.818-22.973-27.527l-18.258-5.364c-3.174-.932-6.352.696-7.63 3.461-.233.504-.939.504-1.172 0-1.278-2.765-4.456-4.393-7.63-3.461l-10.776 3.166c-1.222 2.787-3.605 9.52-1.31 15.58 1.277 3.372 3.791 5.97 7.465 7.757l2.502-.552c4.753-1.049 8.429-5.69 9.777-10.633.155-.568.962-.568 1.116 0 1.348 4.944 5.023 9.584 9.777 10.633l3.261.72c9.374 2.069 17.586 7.314 23.396 14.645-1.202 5.347-4.974 13.472-16.661 17.602-2.903 1.025-5.902.991-8.581.132-2.529 4.502-6.337 13.281-3.47 21.587 1.344 3.892 3.978 7.173 7.87 9.818.799-.347 1.59-.718 2.372-1.116 18.272-9.303 42.565-25.466 50.334-67.043.639-3.419.964-6.895.964-10.373-2.958 7.298-9.106 16.08-20.373 20.968z" fill="#56415e"/><path d="m236.442 282.666c11.979 6.105 26.135 6.221 38.208.377-14.495-9.154-7.902-24.295-4.478-30.272-5.251-1.027-9.638-5.141-10.339-10.84-.013-.105-.025-.212-.037-.319-.165-1.522-1.439-2.692-2.99-2.692-1.551 0-2.826 1.17-2.991 2.692-.012.107-.024.214-.037.319-1.004 8.163-9.562 13.095-17.404 10.324-10.789-3.812-15.431-11.033-17.426-16.327 5.846-7.996 14.453-13.733 24.36-15.92l3.261-.72c-15.678-5.794-7.169-22.517-6.732-23.351l-9.407 2.764c-12.181 2.762-21.251 15.62-23.094 28.261-12.463-4.7-18.951-14.022-22.061-21.702v.003c0 3.473.324 6.945.961 10.359 7.757 41.57 31.932 57.731 50.206 67.044z" fill="#47354f"/><path d="m228.091 449.683c-2.915 28.18-4.249 52.909-4.604 60.165 10.639 1.411 21.489 2.152 32.513 2.152s21.874-.741 32.513-2.152c-.355-7.258-1.69-31.999-4.606-60.19-24.656 20.839-46.813 7.428-55.816.025z" fill="#e80054"/></g></svg>