<svg id="Layer_1" enable-background="new 0 0 512 512" height="512" viewBox="0 0 512 512" width="512" xmlns="http://www.w3.org/2000/svg"><g><path d="m21.046 336.605 26.642 59.39c7.333 11.817 15.643 22.961 24.818 33.325l108.165 70.861c23.734 7.663 49.045 11.819 75.329 11.819s51.594-4.156 75.329-11.818l108.164-70.86c9.175-10.364 17.485-21.51 24.818-33.327l26.643-59.393c6.527-22.066 10.048-45.422 10.048-69.605 0-135.311-109.691-245.002-245.002-245.002s-245.002 109.691-245.002 245.002c0 24.184 3.521 47.541 10.048 69.608z" fill="#47354f"/><path d="m389.632 472.363c-17.129.318-34.357-1.631-50.258-5.892-1.986-.532-3.685-1.653-4.942-3.138l-3.103 36.849c20.787-6.71 40.358-16.118 58.303-27.819z" fill="#4f71b6"/><path d="m457.194 362.922 4.958 24.337c.669 3.285 1.413 6.093 2.16 8.736 8.129-13.1 15.055-27.021 20.628-41.614-5.632 4.124-14.355 7.839-27.746 8.541z" fill="#ffc7ab"/><path d="m480.829 290.104c-6.46-19.561-24.793-32.739-45.394-32.739h-18.037c-3.206 16.027-14.987 31.652-29.744 32.709-5.453 6.547-10.292 15.956-10.292 28.74v132.5c0 .178.182 12.61 10.427 22.227 19.232-12.297 36.635-27.198 51.704-44.219l-1.742-99.009c0-3.054 2.077-5.83 5.076-6.408 3.501-.674 6.74 1.596 7.421 4.933l7.307 35.862c12.022-.665 20.414-3.703 26.238-7.341 2.689-6.774 5.074-13.701 7.161-20.757-10.545-51.864-7.762-39.346-10.125-46.498z" fill="#49b1f7"/><path d="m279.291 345.871c3.444 5.802 12.7 15.847 35.648 17.051l-4.958 24.337c-2.411 11.834-5.791 17.553-6.781 31.181l-.067 29.898c-.006 2.829.16 5.658.498 8.467.656 5.458 1.209 10.681 4.169 15.457l3.943 6.362c1.737 2.802.534 6.341-2.401 7.843-1.817.93-2.967 2.802-2.967 4.851v4.89c0 7.152-4.719 13.626-11.663 15.34-8.627 2.129-17.215-3.467-18.79-12.163l-5.995-89.874c-2.268-12.525-.435-15.6 9.364-63.64z" fill="#ffaa7b"/><path d="m122.368 472.363c17.945 11.701 37.516 21.109 58.302 27.819l-3.103-36.847c-1.258 1.484-2.956 2.605-4.941 3.137-15.9 4.26-33.128 6.209-50.258 5.891z" fill="#4f71b6"/><path d="m240.7 387.755s-24.386-13.218-35.05 13.379c1.392 4.936 2.618 9.976 3.15 17.306l.067 29.897c.006 2.829-.16 5.658-.498 8.467-.656 5.458-1.209 10.681-4.169 15.457l-3.943 6.362c-1.737 2.802-.534 6.341 2.401 7.843 1.817.93 2.967 2.802 2.967 4.851v4.889c0 7.153 4.719 13.626 11.663 15.34 8.628 2.129 17.215-3.467 18.79-12.163l5.995-89.874c1.307-7.211 1.253-11.292-.899-22.626-.305.561-.474.872-.474.872z" fill="#dba783"/><path d="m220.697 290.104c-6.461-19.561-24.793-32.739-45.394-32.739h-18.037c-3.32 16.598-15.837 32.77-31.332 32.77-.081 0-.161-.007-.242-.008-5.434 6.545-10.247 15.938-10.247 28.687v132.5c0 .184.182 13.415 11.424 23.137 15.635-.076 31.249-2.038 45.757-5.926 4.336-1.162 7.334-5.112 7.256-9.601l-2.263-128.613c0-3.054 2.077-5.83 5.076-6.408 3.501-.674 6.74 1.596 7.421 4.933l7.307 35.862c21.606-1.195 31.497-10.05 35.805-16.289-13.366-65.521-10.004-50.655-12.531-58.305z" fill="#ff4155"/><path d="m116.945 451.315s0-104 0-132.5c0-13.047 5.136-22.417 10.704-28.752-.568.044-1.138.073-1.715.073-15.495 0-28.012-16.172-31.333-32.77h-12.647c-22.915 0-43.18 13.765-51.623 35.068-.932 2.348-.408.543-9.284 44.171 2.087 7.055 4.471 13.981 7.16 20.755 5.824 3.638 14.216 6.675 26.238 7.34l7.307-35.862c.681-3.337 3.919-5.607 7.42-4.933 3 .578 5.077 3.354 5.077 6.409l-1.742 99.008c15.447 17.449 33.341 32.677 53.15 45.148 1.164.002 2.327-.03 3.491-.049-12.201-9.415-12.203-23.106-12.203-23.106z" fill="#e80054"/><path d="m47.688 395.995c.747-2.643 1.491-5.451 2.16-8.736l4.958-24.337c-13.392-.702-22.115-4.417-27.747-8.541 5.574 14.593 12.5 28.514 20.629 41.614z" fill="#cc8c60"/><path d="m241.7 389.755c-1.472-8.36-4.33-21.033-8.991-43.884-3.444 5.802-12.7 15.847-35.648 17.05l4.958 24.337c1.346 6.609 2.995 11.312 4.361 16.55 10.518-27.503 35.319-14.053 35.32-14.053z" fill="#cc8c60"/><path d="m378.862 451.315s0-104 0-132.5c0-13.217 5.27-22.664 10.921-29.002-1.218.206-2.456.323-3.716.323-15.495 0-28.012-16.172-31.333-32.77h-12.647c-22.915 0-43.18 13.765-51.624 35.068-1.009 2.543-.31.212-11.689 55.977 4.307 6.239 14.199 15.093 35.804 16.288l7.307-35.862c.681-3.337 3.918-5.607 7.42-4.933 2.999.578 5.077 3.354 5.077 6.409l-2.263 128.612c-.079 4.488 2.92 8.439 7.256 9.601 14.884 3.988 30.931 5.966 46.972 5.943.911-.573 1.813-1.159 2.716-1.744-10.186-9.276-10.201-21.41-10.201-21.41z" fill="#1e9ef4"/><path d="m418.999 257.366h-65.865c3.359 17.852 16.823 34.31 32.932 34.31s29.573-16.458 32.933-34.31z" fill="#ffaa7b"/><path d="m432.459 199.302c0 28.501-20.771 58.785-46.393 58.785s-46.393-30.284-46.393-58.785 20.771-46.82 46.393-46.82 46.393 18.319 46.393 46.82z" fill="#ffc7ab"/><path d="m158.866 257.366h-65.865c3.359 17.852 16.823 34.31 32.932 34.31 16.11 0 29.573-16.458 32.933-34.31z" fill="#cc8c60"/><path d="m172.326 199.302c0 28.501-20.771 58.785-46.393 58.785s-46.393-30.284-46.393-58.785 20.771-46.82 46.393-46.82c25.623 0 46.393 18.319 46.393 46.82z" fill="#dba783"/><path d="m277.618 174.819h-14.895c-1.733 0-3.079-1.167-3.51-2.646-2.202.079-7.877.699-11.513 4.861-2.621 3-3.587 7.133-2.884 12.298 1.923.448 3.207 2.4 2.717 4.42l-8.022 33.11c-.951 3.926 4.227 6.268 6.548 2.961l34.553-49.247c1.7-2.423-.034-5.757-2.994-5.757z" fill="#ffdd40"/><path d="m418.489 86.267c-7.58-5.333-9.193-16.919-11.062-30.334-.82-5.89-1.668-11.98-3.075-18.278-1.796-8.041-.741-15.087 3.136-20.94 2.432-3.672 5.737-6.521 9.155-8.71-8.534-5.076-18.473-8.005-29.068-8.005h-33.465c-1.462 2.576-2.621 5.735-2.437 9.149.236 4.387 2.617 8.3 7.078 11.642v70.829c-.964 1.942-5.124 11.272-.911 19.896 1.622 3.319 4.269 6.073 7.899 8.26.281-.766.54-1.542.772-2.327.531-1.797 2.142-3.054 4.015-3.054h17.048c19.456 0 36.716-9.852 47.061-24.807-7.011.453-12.343-.644-16.146-3.321z" fill="#ff4155"/><path d="m366.225 118.319c-15.145-9.411-5.973-26.337-5.973-26.337v-71.954c-9.793-6.921-7.573-14.893-4.393-20.028h-22.93c-31.459 0-57.198 25.739-57.198 57.197 0 31.458 25.739 57.197 57.198 57.197 2.459 0 4.413 2.119 4.165 4.566-.766 7.557-3.792 14.668-8.57 20.424-1.76 2.12-.279 5.319 2.476 5.258 3.024-.067 6.089-.5 9.139-1.332 12.834-3.504 22.293-13.206 26.086-24.991z" fill="#e80054"/><path d="m199.164 31.648c0-12.022 5.785-18.523 11.56-22.018-9.08-6.074-19.97-9.63-31.653-9.63h-29.673c-2.167 1.955-5.929 6.079-5.763 11.026.124 3.673 2.348 6.974 6.612 9.819v70.993c-.265 1.438-1.807 11.416 4.628 19.32 4.289 5.269 11.083 8.335 20.221 9.166-.063-.455-.144-.906-.19-1.364-.248-2.447 1.705-4.566 4.165-4.566 18.682 0 35.347-9.078 45.802-23.04-26.461-5.192-25.709-38.201-25.709-59.706z" fill="#ff4155"/><path d="m209.779 9.022c-6.103 3.33-12.615 9.87-12.615 22.625 0 21.973-.784 55.955 27.476 60.005 7.288-9.601 11.629-21.544 11.629-34.455 0-20.176-10.597-37.985-26.49-48.175z" fill="#ff7186"/><path d="m151.748 0h-27.323c-31.458 0-57.197 25.739-57.197 57.197 0 31.458 25.739 57.197 57.197 57.197h17.048c1.873 0 3.484 1.257 4.015 3.054 3.597 12.179 13.222 22.272 26.374 25.862 3.05.833 6.115 1.265 9.139 1.332 2.755.061 4.236-3.138 2.476-5.258-4.778-5.756-7.804-12.866-8.57-20.424-.005-.053.005-.103.001-.155-28.141-2.75-23.159-26.823-23.159-26.823v-71.954c-14.89-9.286-.001-20.028-.001-20.028z" fill="#e80054"/><g><path d="m360.252 91.982c-4.539 0-8.218-3.68-8.218-8.218v-1.09c0-4.538 3.679-8.218 8.218-8.218s8.218 3.68 8.218 8.218v1.09c0 4.539-3.68 8.218-8.218 8.218z" fill="#e8f4fc"/></g><g><path d="m360.252 68.08c-4.539 0-8.218-3.68-8.218-8.218v-31.616c0-4.538 3.679-8.218 8.218-8.218s8.218 3.68 8.218 8.218v31.615c0 4.539-3.68 8.219-8.218 8.219z" fill="#e8f4fc"/></g><g><path d="m151.748 91.982c-4.539 0-8.218-3.68-8.218-8.218v-1.09c0-4.538 3.679-8.218 8.218-8.218s8.218 3.68 8.218 8.218v1.09c0 4.539-3.679 8.218-8.218 8.218z" fill="#e8f4fc"/></g><g><path d="m151.748 68.08c-4.539 0-8.218-3.68-8.218-8.218v-31.616c0-4.538 3.679-8.218 8.218-8.218s8.218 3.68 8.218 8.218v31.615c0 4.539-3.679 8.219-8.218 8.219z" fill="#e8f4fc"/></g><path d="m259.415 169.602 15.5-32.852c1.144-2.426-.625-5.217-3.307-5.217h-30.933c-1.674 0-3.135 1.137-3.545 2.761l-12.739 50.388c-.584 2.31 1.162 4.553 3.545 4.553h16.042c.977 0 1.834.39 2.481.995l.012-.007c-3.083-17.259 13.592-16.558 13.592-16.558-.97-1.037-1.332-2.613-.648-4.063z" fill="#ffb332"/><path d="m415.175 7.157c-8.319 5.567-15.805 15.077-12.287 30.824 6.285 28.134 1.642 54.38 30.631 53.175 7.062-9.514 11.254-21.269 11.254-33.958-.001-21.467-11.99-40.261-29.598-50.041z" fill="#ff7186"/></g></svg>