<svg id="Capa_1" enable-background="new 0 0 512 512" height="512" viewBox="0 0 512 512" width="512" xmlns="http://www.w3.org/2000/svg"><g><path d="m0 256c0-141.305 114.487-255.871 255.762-256 139.235-.127 253.668 112.031 256.195 251.243 1.503 82.816-36.329 156.858-96.058 204.69-1.589 1.272-3.84 1.266-5.462.037-42.928-32.519-96.429-51.812-154.436-51.812-58.043 0-111.574 19.317-154.516 51.872-1.575 1.194-3.761 1.2-5.305-.035-58.629-46.912-96.18-119.068-96.18-199.995z" fill="#005aaf"/><path d="m477 221c0 122.055-98.945 221-221 221s-221-98.945-221-221 98.945-221 221-221 221 98.945 221 221z" fill="#5290d9"/><path d="m450 221c0 107.143-86.857 194-194 194s-194-86.857-194-194 86.857-194 194-194 194 86.857 194 194z" fill="#00c8de"/><path d="m416 221c0 88.366-71.634 160-160 160s-160-71.634-160-160 71.634-160 160-160 160 71.634 160 160z" fill="#87e0ec"/><path d="m352 240h-8.5c-16.569 0-30-13.431-30-30v-40.447c0-32.622 13.066-62.192 34.25-83.763 21.184 21.571 34.25 51.141 34.25 83.763v40.447c0 16.569-13.431 30-30 30z" fill="#a44f3e"/><path d="m214.128 240h-54.128c-16.569 0-30-13.431-30-30v-95.681c0-18.59 15.07-33.66 33.66-33.66h54.128c-18.59 0-33.66 15.07-33.66 33.66v95.681c0 16.569 13.431 30 30 30z" fill="#883f2e"/><path d="m146 258c-13.807 0-25-11.193-25-25v-10c0-13.807 11.193-25 25-25 13.807 0 25 11.193 25 25v10c0 13.807-11.193 25-25 25z" fill="#fed2a4"/><path d="m134.679 418v53.776c0 4.383-4.769 7.113-8.544 4.886-10.554-6.225-20.622-13.185-30.135-20.811v-37.851c0-38.66 31.34-70 70-70h11.772c2.744 0 3.567 3.686 1.105 4.897-.041.02-.081.04-.122.06-25.826 10.303-44.076 35.542-44.076 65.043z" fill="#ffc143"/><path d="m416 418v37.852c-43.827 35.133-99.459 56.148-160 56.148-47.457 0-91.897-12.913-130-35.417v-58.583c0-33.827 23.995-62.051 55.893-68.578 4.557-.932 9.275 5.748 14.107 5.748l129.51-.166 14.785-7.004h5.705c38.66 0 70 31.34 70 70z" fill="#ffef31"/><path d="m247.824 456.073-76.119-108.073h23.498l14.064 4.947 94.191.255 13.34-5.202h23.498l-76.12 108.073c-3.984 5.656-12.368 5.656-16.352 0zm108.335-37.323v72.915c-4.923 2.095-9.925 4.04-15 5.83v-78.745c0-4.142 3.358-7.5 7.5-7.5s7.5 3.358 7.5 7.5zm-192.818-7.5c-4.142 0-7.5 3.358-7.5 7.5v72.915c4.923 2.095 9.925 4.04 15 5.83v-78.745c0-4.142-3.358-7.5-7.5-7.5z" fill="#ffc143"/><path d="m316.798 348-57.527 81.676c-1.593 2.262-4.947 2.262-6.541 0l-57.528-81.676z" fill="#fff5f5"/><path d="m136 218v20c0 8.178 3.927 15.439 9.998 20-13.806-.001-24.998-11.194-24.998-25v-10c0-13.806 11.192-24.999 24.998-25-6.071 4.561-9.998 11.822-9.998 20zm230-20v-20c0-60.751-49.249-110-110-110-60.751 0-110 49.249-110 110v40c0 50.351 33.83 92.801 80 105.859v34.141c0 16.569 13.431 30 30 30s30-13.431 30-30v-34.141c33.586-9.499 60.641-34.551 72.895-66.883 2.252.666 4.637 1.024 7.105 1.024 13.807 0 25-11.193 25-25v-10c0-13.807-11.193-25-25-25z" fill="#ffbd86"/><path d="m366 178v40c0 50.792-34.425 93.543-81.216 106.195-9.023 2.44-18.545 2.44-27.568 0-46.791-12.652-81.216-55.403-81.216-106.195v-40c0-55.663 41.345-101.669 95-108.985 53.655 7.316 95 53.322 95 108.985z" fill="#fed2a4"/><path d="m241.5 224.731c-2.929-2.93-2.929-7.678 0-10.607 2.929-2.928 7.678-2.928 10.606 0 1.042 1.042 2.424 1.616 3.893 1.616s2.851-.574 3.893-1.616c2.929-2.928 7.678-2.928 10.606 0 2.929 2.93 2.929 7.678 0 10.607-3.875 3.875-9.024 6.009-14.5 6.009s-10.623-2.134-14.498-6.009z" fill="#ffbd86"/><path d="m223.5 185.5c0 8.284-6.716 15-15 15s-15-6.716-15-15 6.716-15 15-15 15 6.716 15 15zm80-15c-8.284 0-15 6.716-15 15s6.716 15 15 15 15-6.716 15-15-6.716-15-15-15z" fill="#004b94"/><path d="m226 178c0 4.142-3.358 7.5-7.5 7.5s-7.5-3.358-7.5-7.5 3.358-7.5 7.5-7.5 7.5 3.358 7.5 7.5zm87.5-7.5c-4.142 0-7.5 3.358-7.5 7.5s3.358 7.5 7.5 7.5 7.5-3.358 7.5-7.5-3.358-7.5-7.5-7.5z" fill="#fff5f5"/><path d="m272.696 95c0 24.853-20.147 45-45 45h-77.696c-11.046 0-20-8.954-20-20v-50c0-11.046 8.954-20 20-20h77.696c24.853 0 45 20.147 45 45z" fill="#883f2e"/><path d="m382 70c0 38.66-31.34 70-70 70h-98.766c-24.853 0-45-20.147-45-45 0-24.853 20.147-45 45-45h148.766c11.046 0 20 8.954 20 20z" fill="#a44f3e"/><path d="m452.553 153.869v100c0 4.142-3.358 7.5-7.5 7.5s-7.5-3.358-7.5-7.5v-100c0-4.142 3.358-7.5 7.5-7.5s7.5 3.358 7.5 7.5zm-7.5 123.5c-4.142 0-7.5 3.358-7.5 7.5v9c0 4.142 3.358 7.5 7.5 7.5s7.5-3.358 7.5-7.5v-9c0-4.142-3.358-7.5-7.5-7.5z" fill="#fff"/><path d="m286 269.25c0 10.355-8.395 18.75-18.75 18.75h-22.5c-10.355 0-18.75-8.395-18.75-18.75 0-10.355 8.395-18.75 18.75-18.75h22.5c10.355 0 18.75 8.395 18.75 18.75z" fill="#ffa78f"/><path d="m258.054 288h-13.304c-10.355 0-18.75-8.395-18.75-18.75 0-10.355 8.395-18.75 18.75-18.75h13.304c-10.355 0-18.75 8.395-18.75 18.75 0 10.355 8.394 18.75 18.75 18.75z" fill="#f89580"/></g></svg>