<svg id="Layer_1" enable-background="new 0 0 512 512" height="512" viewBox="0 0 512 512" width="512" xmlns="http://www.w3.org/2000/svg"><g><path d="m89.511 446.719 332.843.126c48.361-44.754 78.648-108.759 78.648-179.847 0-135.311-109.691-245.002-245.002-245.002s-245.002 109.691-245.002 245.002c0 71.022 30.231 134.973 78.513 179.721z" fill="#e80054"/><path d="m281.455 22.472c0 10.364-10.837 10.425-24.206 10.425-13.368 0-24.206-.061-24.206-10.425.001-10.364 10.838-22.472 24.207-22.472 13.368 0 24.205 12.108 24.205 22.472z" fill="#56415e"/><path d="m265.052 26.802h-11.863c-3.95 2.673-12.814 9.564-20.77 22.062-9.49 14.908-19.328 40.92-12.523 80.359-.528.539-1.374 1.438-2.402 2.649 75.847-5.514 134.623 6.009 161.174 12.227v-3.682c-.001-62.488-51.128-113.615-113.616-113.615z" fill="#6c5475"/><path d="m135.832 140.417v3.63c29.571-6.731 57.706-10.528 83.793-12.323 1.147-1.287 1.883-1.989 1.883-1.989-13.518-76.265 34.492-102.933 34.492-102.933h-6.553c-62.488 0-113.615 51.127-113.615 113.615z" fill="#56415e"/><path d="m260.192 396.785c27.062-.826 48.526-9.474 62.968-17.688-1.252-7.156-1.822-14.26-2.033-20.396-6.578 7.663-13.482 14.071-20.079 19.194-11.749 9.124-26.014 14.423-40.856 15.268z" fill="#ffaa7b"/><path d="m251.423 393.139c-14.703-.914-28.822-6.199-40.471-15.244-6.597-5.122-13.501-11.532-20.079-19.194-.211 6.136-.781 13.24-2.033 20.396 14.375 8.176 35.702 16.785 62.583 17.68z" fill="#fc9460"/><path d="m414.876 442.579-39.307-18.835c-.482 10.485-5.376 20.591-14.17 25.757-29.918 17.574-56.972 25.533-74.398 29.115-20.31 4.175-34.551 4.711-53.262 1.626.114.202.216.403.332.605-5.435.76-19.711 3.119-33.834 8.509-8.003 3.055-14.741 6.618-20.179 10.63 23.91 7.792 49.431 12.014 75.942 12.014 64.223 0 122.663-24.723 166.354-65.155-2.19-1.224-4.601-2.644-7.478-4.266z" fill="#6c5475"/><path d="m236.519 482.045c-.307-.507-.587-1.005-.879-1.508-3.387-.522-6.898-1.152-10.628-1.919-17.43-3.582-44.488-11.542-74.411-29.118-8.776-5.156-13.68-15.253-14.17-25.739l-39.666 18.817c-2.78 1.567-5.123 2.945-7.254 4.14 26.117 24.206 57.518 42.787 92.278 53.827 21.131-14.943 54.73-18.5 54.73-18.5z" fill="#56415e"/><path d="m363.741 447.374c-17.535-.002-26.464-10.623-38.06-33.815-8.01-16.019-4.507-29.14.346-37.773-13.287 8.116-35.151 18.16-63.511 19.529-9.721 5.278-28.897 17.957-35.624 38.664-4.732 14.565-2.315 30.322 7.18 46.868-.725.101-1.619.234-2.638.396 15.317 2.622 24.564 2.364 24.564 2.364.006 0 47.795 1.344 106.107-32.908 1.668-.98 3.197-2.137 4.596-3.428-1.012.063-2.002.103-2.96.103z" fill="#876d93"/><path d="m266.255 395.079c-3.327.254-6.743.397-10.254.397-32.083 0-56.603-11.353-70.786-20.15-8.714-5.405-19.35-3.467-26.283 4.831l-16.1 19.27c-12.936 15.483-9.374 41.613 7.066 51.27 35.644 20.937 67.354 28.573 86.622 31.346-31.737-52.403 17.587-80.932 29.735-86.964z" fill="#6c5475"/><path d="m140.888 202.217c-.179.031-.357.051-.536.076 1.204 8.143 2.38 13.421 2.38 13.421 3.417.228 9.476 1.612 12.144 2.904.653-4.065 1.719-10.55 3.225-14.418.692-1.779 1.505-3.565 2.422-5.324z" fill="#47354f"/><path d="m351.306 198.553c1.039 1.956 1.943 3.949 2.704 5.931 1.448 3.78 2.479 10.168 3.116 14.134 3.362-1.629 10.651-3.403 14.762-2.822.129-4.459.33-9.169.558-13.711z" fill="#56415e"/><path d="m379.239 215.578c-5.094-4.669-16.484-2.302-20.871.557.961 5.986 1.016 12.109.186 18.156l-5.178 37.711c0 3.04-.096 6.022-.272 8.953 12.626 3.808 20.139-7.526 21.195-15.305.455-3.348 1.198-6.649 2.23-9.869 3.358-10.49 15.474-28.506 2.71-40.203z" fill="#ffaa7b"/><path d="m132.761 215.578c5.095-4.669 16.484-2.302 20.872.557-.961 5.986-1.016 12.109-.186 18.156l5.178 37.711c0 3.04.096 6.022.272 8.953-12.626 3.808-20.139-7.526-21.195-15.305-.455-3.348-1.198-6.649-2.23-9.869-3.359-10.49-15.474-28.506-2.711-40.203z" fill="#fc9460"/><path d="m268.877 242.476c-7.173-4.258-16.081-4.258-23.254 0-9.349 5.55-17.913 9.716-25.771 12.736.246.311.504.623.785.938-1.133 1.815-3.045 5.688-2.188 10.118.714 3.686 3.152 6.873 7.256 9.49-1.769 3.106-5.51 11.03-2.996 18.898 1.803 5.643 6.415 10.017 13.721 13.02-1.21 3.085-3.383 10.39-.415 17.594 2.4 5.827 7.581 10.195 15.407 12.996v59.183c1.521.095 3.046.158 4.577.158 16.335 0 32.195-5.421 45.048-15.401 24.622-19.121 53.569-55.978 53.569-110.204l2.947-21.46c-15.899 13.426-43.019 19.044-88.686-8.066z" fill="#ffc7ab"/><path d="m238.429 306.845c-25.764-9.488-10.653-31.595-10.653-31.595-14.25-8-5.215-19.25-5.215-19.25-.459-.459-.867-.913-1.242-1.364-33.789 13.456-54.597 5.752-67.24-6.703l3.305 24.069c0 54.227 28.947 91.084 53.569 110.204 12.043 9.353 26.729 14.701 41.97 15.337v-60.347c-25.602-8.47-14.494-30.351-14.494-30.351z" fill="#ffaa7b"/><path d="m356.492 204.484c-.701-1.828-1.527-3.666-2.465-5.476l-22.444-3.749c-38.363-6.409-77.34-7.84-115.979-4.332.427.481.861.96 1.312 1.436-1.486 1.423-3.731 4.105-4.01 7.528-.233 2.866.932 5.601 3.461 8.131 5.787 5.788 3.863 24.574 2.562 31.787-1.161 1.629-5.285 8.534 1.706 16.343-.145.232-.303.499-.465.795 7.769-3.011 16.229-7.141 25.451-12.616 7.173-4.258 16.081-4.258 23.254 0 45.393 26.947 72.46 21.559 88.398 8.307l2.519-18.346c1.383-10.054.336-20.322-3.3-29.808z" fill="#6c5475"/><path d="m154.373 250.078c12.824 12.433 33.927 19.938 68.176 5.91-8.38-8.394-2.205-15.564-2.205-15.564s4.82-25.729-2.914-33.464c-7.735-7.734 1.678-14.5 1.678-14.5-.57-.57-1.112-1.141-1.64-1.712-12.382 1.072-24.73 2.647-37.014 4.737l-22.66 3.856c-.817 1.608-1.546 3.237-2.177 4.859-3.721 9.561-4.807 19.93-3.413 30.083z" fill="#56415e"/><path d="m339.284 134.68c-30.321-4.599-71.648-8.149-120.028-4.79-3.73 3.98-14.612 16.986-14.818 33.448-.131 10.406 4.066 20.163 12.479 29.023-.101.097-.213.214-.321.323 38.314-3.393 76.952-1.927 114.987 4.427l17.573 2.936c-39.6-28.28-12.673-62.05-9.872-65.367z" fill="#876d93"/><path d="m221.507 129.736c-27.133 1.773-56.518 5.708-87.451 12.859-7.802 1.804-13.31 8.787-13.31 16.795v27.677c0 10.682 9.611 18.796 20.142 17.004l39.566-6.732c12.823-2.182 25.717-3.8 38.646-4.873.002-.001.008-.006.008-.006-30.964-30.964 2.368-62.694 2.399-62.724z" fill="#6c5475"/><ellipse cx="210.27" cy="223.935" fill="#ffaa7b" rx="30.631" ry="17.46"/><ellipse cx="304.23" cy="223.935" fill="#ffc7ab" rx="30.631" ry="17.46"/><path d="m501.002 266.998c0-64.663-25.063-123.463-65.989-167.249-8.915 14.799-15.216 40.013-4.488 81.585 21.333 82.667-69.544 126.239-36.772 181.119 15.668 26.238 43.381 35.249 68.042 37.512 24.801-38.295 39.207-83.945 39.207-132.967z" fill="#ff4155"/><path d="m10.998 266.998c0-64.663 25.063-123.463 65.989-167.249 8.915 14.799 15.216 40.013 4.488 81.585-21.334 82.666 69.544 126.238 36.772 181.119-15.668 26.238-43.381 35.249-68.042 37.512-24.801-38.295-39.207-83.945-39.207-132.967z" fill="#ff4155"/><path d="m325.711 315.456c-2.88-17.169-15.267-34.361-31.806-38.111l-25.278-7.427c-4.394-1.291-8.794.964-10.563 4.791-.323.699-1.3.699-1.623 0-1.77-3.827-6.17-6.082-10.564-4.791l-20.022 5.883c-1.363 3.087-4.367 11.392-1.487 19.469 1.854 5.201 5.793 9.279 11.708 12.151.779-.207 1.562-.402 2.353-.577l4.515-.997c6.581-1.453 11.67-7.877 13.536-14.722.214-.786 1.331-.786 1.546 0 1.866 6.845 6.955 13.269 13.535 14.722l4.515.997c12.978 2.865 24.348 10.127 32.391 20.276-1.664 7.403-6.886 18.652-23.067 24.369-3.982 1.407-8.096 1.374-11.78.217-3.127 4.204-8.974 13.804-6.538 24.214 1.65 7.049 6.779 13.057 15.28 17.937.176-.087.357-.162.532-.251 25.297-12.879 58.93-35.257 69.687-92.82.885-4.734 1.334-9.547 1.334-14.362-4.093 10.107-12.605 22.265-28.204 29.032z" fill="#bc6242"/><path d="m275.192 352.129c-7.08-1.558-12.934-7.196-13.886-14.933-.018-.146-.035-.293-.051-.442-.228-2.108-1.993-3.727-4.14-3.727-2.148 0-3.912 1.62-4.14 3.727-.017.149-.034.296-.051.442-1.39 11.301-13.238 18.13-24.095 14.294-14.938-5.278-21.364-15.274-24.126-22.604 8.093-11.07 20.01-19.013 33.726-22.041-22.472-9.405-10.653-31.595-10.653-31.595l-.019-.007-7.157 2.103c-16.865 3.824-29.422 21.625-31.974 39.127-17.255-6.507-26.237-19.414-30.543-30.047v.005c0 4.809.449 9.616 1.331 14.343 10.738 57.553 44.208 79.927 69.509 92.821 16.939 8.633 37.031 8.639 53.974.014.359-.183.726-.375 1.089-.562-26.224-14.42-13.295-35.028-8.794-40.918z" fill="#ad563b"/><g fill="#937aa0"><path d="m380.507 142.679c-9.711-2.311-24.348-5.5-42.996-8.264-.077.086-31.678 35.548 9.057 65.2l27.094 4.526c10.516 1.757 20.091-6.352 20.091-17.013v-27.671c0-7.987-5.475-14.929-13.246-16.778z"/><path d="m353.069 380.158c-6.933-8.298-17.569-10.236-26.283-4.831-.982.609-2.029 1.232-3.109 1.861-4.41 8.95-6.974 21.768.662 37.041 12.155 24.31 21.819 35.05 40.495 34.618 14.062-10.813 16.518-34.835 4.334-49.419z"/></g></g></svg>