<svg id="Capa_1" enable-background="new 0 0 512 512" height="512" viewBox="0 0 512 512" width="512" xmlns="http://www.w3.org/2000/svg"><g><g><path d="m256 22c-117.109 0-215.01 82.172-239.234 192l4.984 1h261.329v-1.873c.971-12.282 11.514-22.127 23.921-22.127h54.044l.23-.678c3.326-9.762 12.457-16.322 22.726-16.322h97l1.289-1c-36.866-88.656-124.287-151-226.289-151z" fill="#c4e2ff"/><path d="m283.025 214c.506-12.665 11.262-23 23.975-23h54.044l.23-.678c3.326-9.762 12.457-16.322 22.726-16.322h28.769c-9.474-15.017-26.201-25-45.269-25-5.313 0-10.441.786-15.286 2.228 1.16-4.382 1.786-8.981 1.786-13.728 0-29.547-23.953-53.5-53.5-53.5s-53.5 23.953-53.5 53.5c0 5.905.971 11.579 2.737 16.891-6.512-2.82-13.69-4.391-21.237-4.391-17.182 0-32.461 8.109-42.25 20.699-9.792-10.865-23.972-17.699-39.75-17.699-29.547 0-53.5 23.953-53.5 53.5 0 2.894.237 5.731.679 8.5h189.346z" fill="#fff"/><g><path d="m158.731 175c13.888 0 26.538 5.295 36.047 13.973 2.022 1.846 5.156 1.831 7.034-.162 9.754-10.346 23.578-16.811 38.919-16.811 4.474 0 8.819.552 12.971 1.589 3.513.877 6.773-2.058 6.2-5.633-.602-3.759-.812-7.648-.579-11.629 1.602-27.311 23.986-49.249 51.323-50.287 16.388-.623 31.207 6.135 41.417 17.207-6.239-22.625-26.954-39.247-51.563-39.247-29.547 0-53.5 23.953-53.5 53.5 0 5.905.971 11.579 2.737 16.891-6.512-2.82-13.69-4.391-21.237-4.391-17.182 0-32.461 8.109-42.25 20.699-9.792-10.865-23.972-17.699-39.75-17.699-29.547 0-53.5 23.953-53.5 53.5 0 2.894.237 5.731.679 8.5h13.273c5.983-23.011 26.896-40 51.779-40z" fill="#eaf6ff"/></g><path d="m489.646 215 5.576-1c-3.125-14.164-7.459-27.873-12.918-41h-98.304c-10.954 0-20.315 7.144-23.672 17h-53.328c-13.415 0-24.444 10.709-24.974 24v1z" fill="#ffe5c2"/><g><path d="m332.778 190h-25.778c-13.415 0-24.444 10.709-24.974 24v1h25.778v-1c.529-13.291 11.559-24 24.974-24z" fill="#fed2a4"/><path d="m409.778 173h-25.778c-10.954 0-20.315 7.144-23.672 17h19.467c3.44 0 6.714-1.723 8.469-4.682 4.363-7.357 12.385-12.318 21.514-12.318z" fill="#fed2a4"/><path d="m495.222 214h-478.456c-3.764 17.069-5.766 34.799-5.766 53 0 31.02 5.78 60.686 16.296 88l5.718 1h445.972l5.718-1c10.516-27.314 16.296-56.98 16.296-88 0-18.201-2.013-35.931-5.778-53z" fill="#60b7ff"/></g><g><path d="m256 512c104.29 0 193.346-65.169 228.704-157h-457.408c35.358 91.831 124.414 157 228.704 157z" fill="#fff3de"/></g><g><g><circle cx="170" cy="61" fill="#fed402" r="61"/></g><g><path d="m153.598 61c0-25.813 16.041-47.865 38.692-56.773-6.907-2.716-14.419-4.227-22.29-4.227-33.689 0-61 27.311-61 61s27.311 61 61 61c7.871 0 15.383-1.511 22.29-4.227-22.651-8.908-38.692-30.96-38.692-56.773z" fill="#fac600"/></g></g><g><path d="m275.486 342.822-60.958 45.153c-3.873 2.869-1.844 9.018 2.976 9.018h175.486c4.82 0 6.849-6.149 2.976-9.018l-60.958-45.153c-17.679-13.096-41.842-13.096-59.522 0z" fill="#ffe5c2"/></g><path d="m248.529 387.975 60.958-45.153c3.975-2.944 8.279-5.22 12.761-6.841-15.457-5.587-33.056-3.311-46.761 6.841l-60.958 45.153c-3.873 2.869-1.844 9.018 2.976 9.018h34c-4.82 0-6.85-6.149-2.976-9.018z" fill="#fed2a4"/><g><path d="m160 386.5h-15c-4.143 0-7.5-3.358-7.5-7.5s3.357-7.5 7.5-7.5h15c4.143 0 7.5 3.358 7.5 7.5s-3.357 7.5-7.5 7.5z" fill="#ffe5c2"/></g><g><path d="m170 463.5h-8c-4.143 0-7.5-3.358-7.5-7.5s3.357-7.5 7.5-7.5h8c4.143 0 7.5 3.358 7.5 7.5s-3.357 7.5-7.5 7.5z" fill="#ffe5c2"/></g><g><path d="m279 470.5h-8c-4.143 0-7.5-3.358-7.5-7.5s3.357-7.5 7.5-7.5h8c4.143 0 7.5 3.358 7.5 7.5s-3.357 7.5-7.5 7.5z" fill="#ffe5c2"/></g><g><path d="m392 440.5h-8c-4.143 0-7.5-3.358-7.5-7.5s3.357-7.5 7.5-7.5h8c4.143 0 7.5 3.358 7.5 7.5s-3.357 7.5-7.5 7.5z" fill="#ffe5c2"/></g><g><path d="m105 407.5h-8c-4.143 0-7.5-3.358-7.5-7.5s3.357-7.5 7.5-7.5h8c4.143 0 7.5 3.358 7.5 7.5s-3.357 7.5-7.5 7.5z" fill="#ffe5c2"/></g><g><path d="m328 428.5h-14c-4.143 0-7.5-3.358-7.5-7.5s3.357-7.5 7.5-7.5h14c4.143 0 7.5 3.358 7.5 7.5s-3.357 7.5-7.5 7.5z" fill="#ffe5c2"/></g><g><path d="m436 379.5h-14c-4.143 0-7.5-3.358-7.5-7.5s3.357-7.5 7.5-7.5h14c4.143 0 7.5 3.358 7.5 7.5s-3.357 7.5-7.5 7.5z" fill="#ffe5c2"/></g><g><path d="m222.519 263c0-5.523 4.477-10 10-10h19.519c5.523 0 10-4.477 10-10 0-5.523-4.477-10-10-10h-113.038c-5.523 0-10 4.477-10 10 0 5.523 4.477 10 10 10h36.667c5.523 0 10 4.477 10 10 0 5.523-4.477 10-10 10h-24c-5.523 0-10 4.477-10 10 0 5.523 4.477 10 10 10h130.37c5.523 0 10-4.477 10-10 0-5.523-4.477-10-10-10h-49.519c-5.522 0-9.999-4.477-9.999-10z" fill="#26a6fe"/></g><g><path d="m423 283c0 5.523 4.477 10 10 10h31.519c5.523 0 10 4.477 10 10s-4.477 10-10 10h-70.519c-5.523 0-10 4.477-10 10s4.477 10 10 10h97.996c5.346-19.157 8.43-39.258 8.928-60h-67.924c-5.523 0-10 4.477-10 10z" fill="#26a6fe"/></g><g><path d="m128.75 309h-114.15c1.169 6.765 2.61 13.437 4.322 20h109.828c5.5 0 10-4.5 10-10s-4.5-10-10-10z" fill="#26a6fe"/></g><g><path d="m456 245c0-5.5-4.5-10-10-10h-47c-5.5 0-10 4.5-10 10s4.5 10 10 10h47c5.5 0 10-4.5 10-10z" fill="#26a6fe"/></g><g><path d="m372 283c0-5.5-4.5-10-10-10h-30c-5.5 0-10 4.5-10 10s4.5 10 10 10h30c5.5 0 10-4.5 10-10z" fill="#26a6fe"/></g><g><path d="m99 263c0-5.5-4.5-10-10-10h-30c-5.5 0-10 4.5-10 10s4.5 10 10 10h30c5.5 0 10-4.5 10-10z" fill="#26a6fe"/></g><g><path d="m213 427.5h-16c-4.143 0-7.5-3.358-7.5-7.5s3.357-7.5 7.5-7.5h16c4.143 0 7.5 3.358 7.5 7.5s-3.357 7.5-7.5 7.5z" fill="#ffe5c2"/></g></g><circle cx="325.5" cy="357.5" fill="#fff" r="5"/><circle cx="302" cy="371" fill="#fff3de" r="5"/><circle cx="357" cy="374" fill="#fff3de" r="5"/><circle cx="333" cy="378" fill="#fff" r="5"/></g></svg>