<svg id="Capa_1" enable-background="new 0 0 512 512" height="512" viewBox="0 0 512 512" width="512" xmlns="http://www.w3.org/2000/svg"><g><path d="m263.08 7.057v342.206c0 12.833-10.403 23.237-23.237 23.237h-182.727c-18.744 0-35.514-11.715-41.895-29.34-9.85-27.205-15.221-56.555-15.221-87.16 0-141.385 114.615-256 256-256h.071c3.879.001 7.009 3.179 7.009 7.057z" fill="#93d0fd"/><path d="m272.509 307.096c0 61.298-49.692 110.989-110.989 110.989s-110.99-49.691-110.99-110.989 49.692-110.989 110.989-110.989 110.99 49.691 110.99 110.989z" fill="#bde2fd"/><path d="m200 103.846c0 11.046-8.954 20-20 20h-60c-11.046 0-20-8.954-20-20 0-10.378 7.904-18.909 18.02-19.903 0-.032-.001-.065-.001-.097 0-11.046 8.954-20 20-20h23.961c11.046 0 20 8.954 20 20 0 .032 0 .065-.001.097 10.117.994 18.021 9.525 18.021 19.903zm-100 178.654c0 11.046-8.954 20-20 20h-60c-11.046 0-20-8.954-20-20 0-10.378 7.904-18.909 18.02-19.903 0-.032-.001-.065-.001-.097 0-11.046 8.954-20 20-20h23.961c11.046 0 20 8.954 20 20 0 .032 0 .065-.001.097 10.117.994 18.021 9.525 18.021 19.903z" fill="#fff"/><path d="m257.511 37.71v212.866h-103.094c-39.043 0-70.693-31.651-70.693-70.694s24.974-60.116 64.017-60.116h13.779c-.003-.262-.005-.523-.005-.785 0-39.043 19.977-81.27 59.02-81.27h36.976z" fill="#00a86d"/><path d="m190.324 111.607c.055.257.111.512.169.767l-13.474 2.884c-38.178 8.172-62.503 45.746-54.331 83.924 5.23 24.436 22.506 43.196 44.275 51.393h-30.743c-39.043 0-70.693-31.651-70.693-70.694s31.651-70.693 70.693-70.693h13.78c-.003-.262-.005-.523-.005-.785 0-39.022 31.617-70.66 70.631-70.693-23.659 15.551-36.584 44.546-30.302 73.897z" fill="#00915d"/><path d="m45.127 401.191c-13.21-19.149-23.879-40.186-31.52-62.623l16.093 16.093 18.74-18.74 18.74 18.74 18.74-18.74 18.74 18.74 18.74-18.74 18.74 18.74 18.74-18.74 18.74 18.74 18.74-18.74 18.74 18.74 18.74-18.74 21.674 21.675-1.514 33.814v26.632l-20.164-20.164-18.74 18.74-18.74-18.74-18.74 18.74-18.74-18.74-18.74 18.74-18.74-18.74-18.74 18.74-18.74-18.74-18.74 18.74-18.74-18.74z" fill="#4bcd5c"/><path d="m256 412.228v57.191l-20.164-20.164-18.74 18.74-18.74-18.74-18.74 18.74-18.74-18.74-18.74 18.74-18.74-18.74-15.546 15.546c-25.573-18.177-47.663-40.935-65.074-67.076l5.661-5.661 18.74 18.74 18.74-18.74 18.74 18.74 18.74-18.74 18.74 18.74 18.74-18.74 18.74 18.74 18.74-18.74 18.74 18.74 18.74-18.74z" fill="#00c53b"/><path d="m256 467.003v42.635c-.296 0-.592-.001-.887-.001-.932-.003-1.864 2.35-2.794 2.337-54.418-.767-104.729-18.514-145.875-48.18l16.955-16.955 18.74 18.74 18.74-18.74 18.74 18.74 18.74-18.74 18.74 18.74 18.74-18.74z" fill="#00915d"/><path d="m512 256c0 41.956-10.093 81.554-27.984 116.5h-228.016v-372.5c141.385 0 256 114.615 256 256z" fill="#ffd98f"/><path d="m471.455 304.946c0 69.475-56.321 125.796-125.796 125.796-35.1 0-66.842-14.376-89.66-37.56v-293.124c7.417-1.562 15.107-2.384 22.989-2.384 53.659 0 98.424 38.078 108.748 88.687 48.784 17.31 83.719 63.868 83.719 118.585z" fill="#ffcd6b"/><path d="m485.056 370.447c-28.107 56.145-76.25 100.518-135.054 123.744-2.013.795-6.709-.872-8.747-.127-2.84 1.039-3.033 4.465-5.919 5.405-24.978 8.134-51.644 12.531-79.336 12.531-1.229 0-2.456-.009-3.681-.026v-141.527h9.019c6.418 0 12.573-2.549 17.111-7.088l18.933-18.933c9.43-9.43 24.712-9.453 34.17-.052l26.231 26.073 10.281 2.596 7.337-2.596 10.854-10.899c9.444-9.483 24.793-9.499 34.257-.035l3.846 3.846c4.538 4.538 10.693 7.088 17.111 7.088z" fill="#fa0"/><path d="m311.777 50.408 22.485 22.485c2.929 2.929 2.929 7.677 0 10.607-2.929 2.929-7.678 2.929-10.607 0l-22.487-22.487c-2.927-2.929-2.927-7.676.002-10.605 2.929-2.93 7.678-2.929 10.607 0zm142.58 169.597-38.721-38.722 12.893-12.893c2.929-2.929 2.929-7.678 0-10.606-2.931-2.929-7.679-2.929-10.607 0l-46.846 46.846v-25.73c0-4.142-3.357-7.5-7.5-7.5s-7.5 3.358-7.5 7.5v62.427l-82.255 38.582 38.525-55.777c.447-.626.799-1.323 1.037-2.072.005-.015.01-.031.015-.046.006-.018.011-.037.016-.055.013-.041.025-.083.037-.124l.001-.004c.201-.707.294-1.432.283-2.153v-55.04l44.674-44.674c2.929-2.929 2.929-7.678 0-10.606-2.93-2.929-7.678-2.929-10.607 0l-34.066 34.066v-31.52c0-4.142-3.357-7.5-7.5-7.5s-7.5 3.358-7.5 7.5v105.54l-35.656 51.623v-89.683c0-4.142-3.357-7.5-7.5-7.5s-7.5 3.358-7.5 7.5v89.683l-36.985-53.547c-2.353-3.408-7.022-4.264-10.434-1.909-3.408 2.354-4.263 7.025-1.908 10.433l38.586 55.865-97.255-45.842c-3.748-1.759-8.215-.145-9.975 3.605-1.759 3.75-.146 8.216 3.605 9.975l114.366 53.868v123.614c0 4.142 3.357 7.5 7.5 7.5s7.5-3.358 7.5-7.5v-123.615l103.681-48.632c2.766-1.297 4.369-4.066 4.315-6.934v-20.104l33.953-33.953 38.721 38.721c1.465 1.464 3.385 2.197 5.304 2.197s3.839-.732 5.304-2.197c2.928-2.93 2.928-7.679-.001-10.607z" fill="#a05528"/><path d="m396.993 410.695c-.722 2.118-2.351 3.803-4.443 4.595l-51.49 19.503c-.069.027-.138.054-.208.079l-26.174 9.914 14.637 20.471 32.27-12.407c3.868-1.487 8.206.443 9.692 4.309s-.443 8.206-4.309 9.692l-28.64 11.011 11.674 16.327c-4.819 1.903-9.709 3.665-14.666 5.279l-38.526-53.883c-1.354-1.894-1.751-4.308-1.077-6.536s2.345-4.016 4.521-4.84l27.157-10.286-16.271-28.243c-2.068-3.589-.834-8.175 2.755-10.242s8.175-.834 10.242 2.755l17.484 30.349 37.125-14.062-20.962-34.032h17.617l20.879 33.896c1.173 1.904 1.434 4.233.713 6.351z" fill="#ff7117"/><path d="m436.553 327.096c0 5.523-4.477 10-10 10s-10-4.477-10-10 4.477-10 10-10 10 4.477 10 10zm25.915 95.532c0 5.523-4.477 10-10 10s-10-4.477-10-10 4.477-10 10-10 10 4.477 10 10zm-5.915-85.532c-5.523 0-10 4.477-10 10s4.477 10 10 10 10-4.477 10-10-4.477-10-10-10zm30-80c-5.523 0-10 4.477-10 10s4.477 10 10 10 10-4.477 10-10-4.477-10-10-10z" fill="#ff7117"/><path d="m263.08 271v1c0 4.142-3.357 7.5-7.5 7.5s-7.5-3.358-7.5-7.5v-1c0-4.142 3.357-7.5 7.5-7.5s7.5 3.358 7.5 7.5zm-7.5 85.5c-4.143 0-7.5 3.358-7.5 7.5v1c0 4.142 3.357 7.5 7.5 7.5s7.5-3.358 7.5-7.5v-1c0-4.142-3.358-7.5-7.5-7.5zm0-62c-4.143 0-7.5 3.358-7.5 7.5v1c0 4.142 3.357 7.5 7.5 7.5s7.5-3.358 7.5-7.5v-1c0-4.142-3.358-7.5-7.5-7.5zm0 93c-4.143 0-7.5 3.358-7.5 7.5v1c0 4.142 3.357 7.5 7.5 7.5s7.5-3.358 7.5-7.5v-1c0-4.142-3.358-7.5-7.5-7.5zm0-62c-4.143 0-7.5 3.358-7.5 7.5v1c0 4.142 3.357 7.5 7.5 7.5s7.5-3.358 7.5-7.5v-1c0-4.142-3.358-7.5-7.5-7.5zm0 155c-4.143 0-7.5 3.358-7.5 7.5v1c0 4.142 3.357 7.5 7.5 7.5s7.5-3.358 7.5-7.5v-1c0-4.142-3.358-7.5-7.5-7.5zm0-31c-4.143 0-7.5 3.358-7.5 7.5v1c0 4.142 3.357 7.5 7.5 7.5s7.5-3.358 7.5-7.5v-1c0-4.142-3.358-7.5-7.5-7.5zm0-31c-4.143 0-7.5 3.358-7.5 7.5v1c0 4.142 3.357 7.5 7.5 7.5s7.5-3.358 7.5-7.5v-1c0-4.142-3.358-7.5-7.5-7.5zm0-403c-4.143 0-7.5 3.358-7.5 7.5v1c0 4.142 3.357 7.5 7.5 7.5s7.5-3.358 7.5-7.5v-1c0-4.142-3.358-7.5-7.5-7.5zm0 62c-4.143 0-7.5 3.358-7.5 7.5v1c0 4.142 3.357 7.5 7.5 7.5s7.5-3.358 7.5-7.5v-1c0-4.142-3.358-7.5-7.5-7.5zm0 31c-4.143 0-7.5 3.358-7.5 7.5v1c0 4.142 3.357 7.5 7.5 7.5s7.5-3.358 7.5-7.5v-1c0-4.142-3.358-7.5-7.5-7.5zm0-62c-4.143 0-7.5 3.358-7.5 7.5v1c0 4.142 3.357 7.5 7.5 7.5s7.5-3.358 7.5-7.5v-1c0-4.142-3.358-7.5-7.5-7.5zm0 124c-4.143 0-7.5 3.358-7.5 7.5v1c0 4.142 3.357 7.5 7.5 7.5s7.5-3.358 7.5-7.5v-1c0-4.142-3.358-7.5-7.5-7.5zm0 31c-4.143 0-7.5 3.358-7.5 7.5v1c0 4.142 3.357 7.5 7.5 7.5s7.5-3.358 7.5-7.5v-1c0-4.142-3.358-7.5-7.5-7.5zm0-62c-4.143 0-7.5 3.358-7.5 7.5v1c0 4.142 3.357 7.5 7.5 7.5s7.5-3.358 7.5-7.5v-1c0-4.142-3.358-7.5-7.5-7.5zm0 93c-4.143 0-7.5 3.358-7.5 7.5v1c0 4.142 3.357 7.5 7.5 7.5s7.5-3.358 7.5-7.5v-1c0-4.142-3.358-7.5-7.5-7.5z" fill="#fff"/><path d="m108.369 267.713c3.099 16.23-3.368 33.501-17.856 43.462s-32.929 9.817-46.974 1.112c-3.1-16.23 50.785-53.279 64.83-44.574z" fill="#00a86d"/><path d="m108.369 267.713c3.099 16.23-50.786 53.279-64.83 44.574-3.099-16.23 3.368-33.501 17.856-43.462s32.929-9.817 46.974-1.112z" fill="#4bcd5c"/></g></svg>