<svg id="Capa_1" enable-background="new 0 0 512 512" height="512" viewBox="0 0 512 512" width="512" xmlns="http://www.w3.org/2000/svg"><g><path d="m51.675 410.254c-3.604-4.766-7.044-9.662-10.314-14.68-1.771-2.718 4.117-13.786 2.448-16.575-22.987-38.392-36.766-74.996-36.766-122.999 0-18.197 6.916-34.159 10.553-51.298.861-4.057-10.226-9.88-9.174-13.865 1.28-4.848 2.698-9.641 4.252-14.374.499-1.521 3.544-2.593 4.071-4.102 2.406-6.887 5.886-13.988 8.851-20.596.847-1.888-1.602-3.861-.711-5.725 41.7-87.182 131.329-147.337 234.437-146.019 141.113 1.804 253.517 116.42 252.673 257.542-.281 46.936-13.192 90.877-35.508 128.597-14.731 24.9-41.512 40.176-70.442 40.176h-321.808c-12.766 0-24.864-5.9-32.562-16.082z" fill="#65befc"/><path d="m441.446 256c0 106.039-85.961 192-192 192s-192-85.961-192-192 85.961-192 192-192 192 85.961 192 192z" fill="#93d0fd"/><path d="m490.387 359.109c-39.664 90.036-129.685 152.891-234.387 152.891-60.262 0-96.984-20.822-131.53-55.665-14.07-14.19-3.923-38.335 16.061-38.335h65.649c8.336-17.914 26.496-30.333 47.557-30.333s39.221 12.419 47.557 30.333h129.87c6.167-29.603 29.561-52.888 59.223-58.891z" fill="#ca6d36"/><path d="m300.57 508.133c-14.474 2.541-29.367 3.867-44.57 3.867-79.919 0-151.285-36.622-198.232-94h89.141c38.016 46.463 92.045 79.315 153.661 90.133zm-73.812-44.733c4.142 0 7.5-3.358 7.5-7.5s-3.358-7.5-7.5-7.5-7.5 3.358-7.5 7.5 3.358 7.5 7.5 7.5zm25.263-29.564c4.142 0 7.5-3.358 7.5-7.5s-3.358-7.5-7.5-7.5-7.5 3.358-7.5 7.5 3.358 7.5 7.5 7.5zm-62.388-26.6c4.142 0 7.5-3.358 7.5-7.5s-3.358-7.5-7.5-7.5-7.5 3.358-7.5 7.5 3.358 7.5 7.5 7.5z" fill="#ad5e2e"/><path d="m470.823 292.378c0 57.333-46.478 103.811-103.811 103.811s-103.811-46.478-103.811-103.811 46.478-103.811 103.811-103.811 103.811 46.478 103.811 103.811zm-440.823-103.81c-7.417 0-14.652.778-21.629 2.257-5.462 20.808-8.371 42.652-8.371 65.175 0 51.49 15.201 99.429 41.361 139.574 51.989-5.658 92.45-49.702 92.45-103.196 0-57.333-46.478-103.81-103.811-103.81z" fill="#bde2fd"/><path d="m367.012 438.953c-80.821 0-146.574-65.753-146.574-146.574s65.753-146.574 146.574-146.574 144.988 65.753 144.988 146.574-64.167 146.574-144.988 146.574zm0-270.453c-64.279 0-125.076 59.6-125.076 123.879s60.797 124.068 125.076 124.068 123.375-59.789 123.375-124.068-59.095-123.879-123.375-123.879zm-334.843-22.695c-2.479 0-4.943.062-7.392.185-2.438 5.115-4.711 10.323-6.812 15.618-.896 2.257.926 4.638 3.342 4.402 4.088-.4 8.233-.605 12.424-.606 68.689-.017 125.404 55.345 126.975 124.016 1.41 61.617-41.322 113.7-98.723 126.775-2.216.505-3.112 3.159-1.645 4.896 3.616 4.282 7.371 8.444 11.256 12.478 61.735-17.26 107.15-74.021 107.15-141.189-.001-80.822-65.754-146.575-146.575-146.575z" fill="#00915d"/><path d="m455.109 385.118c-1.464 1.464-3.384 2.196-5.303 2.196s-3.839-.732-5.303-2.196l-45.538-45.537c-2.914-2.931-2.909-7.667.015-10.592 2.929-2.928 7.678-2.928 10.606 0l45.539 45.539c2.913 2.93 2.908 7.666-.016 10.59z" fill="#007b4e"/><path d="m367.012 159.813c-73.097 0-132.566 59.469-132.566 132.566s59.469 132.565 132.566 132.565 132.566-59.469 132.566-132.565c0-73.098-59.469-132.566-132.566-132.566zm0 250.131c-64.826 0-117.566-52.739-117.566-117.565s52.74-117.566 117.566-117.566 117.566 52.74 117.566 117.566-52.74 117.565-117.566 117.565zm-202.277-117.565c0 63.22-44.485 116.246-103.797 129.421-3.66-4.302-7.18-8.726-10.553-13.265 56.207-8.78 99.35-57.524 99.35-116.156 0-64.826-52.74-117.566-117.566-117.566-6.664 0-13.2.558-19.565 1.628 1.76-5.387 3.693-10.695 5.794-15.918 4.527-.469 9.122-.71 13.771-.71 73.097 0 132.566 59.468 132.566 132.566z" fill="#172a7d"/><path d="m370.089 291.397c-.003-.019-.006-.037-.01-.056-.004-.021-.008-.042-.012-.063-.091-.479-.227-.942-.404-1.384l-66.666-177.052c-.029-.081-.059-.162-.091-.242l-10.814-28.721c-1.142-3.034-4.038-4.894-7.102-4.859l-46.626-.473h-.078c-4.106 0-7.457 3.308-7.498 7.424-.042 4.142 3.282 7.534 7.423 7.576l41.652.423 7.07 18.777-97.661 73.658-17.934-47.629c-1.143-3.036-4.042-4.896-7.107-4.859l-46.621-.473h-.078c-4.106 0-7.457 3.308-7.498 7.424-.042 4.142 3.282 7.534 7.423 7.576l41.652.423 17.68 46.953-120.489 90.875c-2.574 1.942-3.62 5.312-2.596 8.369s3.887 5.119 7.112 5.119h301.722c.054.001.109.002.163.002.438 0 .88-.039 1.322-.118.842-.15 1.636-.441 2.355-.847.002-.001.004-.002.006-.003.04-.023.08-.046.119-.069.022-.013.044-.026.066-.039.019-.011.037-.023.056-.034.905-.554 1.662-1.284 2.244-2.126.583-.841.998-1.808 1.197-2.851.004-.019.007-.037.011-.056.005-.028.01-.055.015-.083.007-.042.014-.084.021-.126l.003-.021c.12-.788.116-1.603-.027-2.415zm-286.873-6.213 209.227-157.804 59.419 157.804z" fill="#1f3597"/><path d="m219.257 349.846c-.083 4.089-3.424 7.348-7.496 7.348-.052 0-.103 0-.155-.002l-33.891-.688c-.009 0-.017 0-.026 0-3.061 0-5.936-1.888-7.046-4.931l-13.946-38.208c-1.42-3.891.583-8.196 4.474-9.616 3.889-1.424 8.197.582 9.617 4.474l12.186 33.385 28.937.587c4.141.084 7.43 3.509 7.346 7.651z" fill="#172a7d"/><path d="m199.152 294.835c0 19.556-15.853 35.409-35.409 35.409s-35.409-15.853-35.409-35.409 15.853-35.409 35.409-35.409 35.409 15.853 35.409 35.409zm-151.139-22.179c-12.249 0-22.179 9.93-22.179 22.179s9.93 22.179 22.179 22.179 22.179-9.93 22.179-22.179c-.001-12.249-9.93-22.179-22.179-22.179z" fill="#2740b1"/><path d="m182.462 294.835c0 10.338-8.38 18.718-18.718 18.718s-18.718-8.38-18.718-18.718 8.38-18.718 18.718-18.718 18.718 8.38 18.718 18.718z" fill="#172a7d"/><path d="m421.258 354.656c-12.855 12.03-30.131 19.396-49.126 19.396-34.863 0-64.705-25.007-70.803-59.333l-16.35-92.035c-.807-4.543 150.301 118.85 136.279 131.972z" fill="#00a86d"/><path d="m444.043 302.14c0 20.72-8.763 39.393-22.785 52.516-6.348 5.94-53.028-12.777-85.122-46.802-32.903-34.882-51.157-85.17-51.157-85.17-.807-4.543 3.153-8.502 7.695-7.696l92.035 16.35c34.326 6.098 59.334 35.939 59.334 70.802z" fill="#4bcd5c"/><path d="m435.065 365.074c-1.464 1.464-3.384 2.196-5.303 2.196s-3.839-.732-5.303-2.196l-33.34-33.339h-39.796c-4.142 0-7.5-3.357-7.5-7.5s3.358-7.5 7.5-7.5h24.796l-37.786-37.785c-2.929-2.93-2.929-7.678 0-10.607 2.929-2.928 7.678-2.928 10.606 0l37.786 37.785v-24.795c0-4.143 3.358-7.5 7.5-7.5s7.5 3.357 7.5 7.5v39.795l33.34 33.339c2.929 2.929 2.929 7.677 0 10.607z" fill="#007b4e"/><path d="m180.092 127.907c0 5.523-4.477 10-10 10h-69.476c-5.523 0-10-4.477-10-10 0-5.523 4.477-10 10-10h69.476c5.523 0 10 4.477 10 10zm73.543-51.623h-69.475c-5.523 0-10 4.477-10 10s4.477 10 10 10h69.475c5.523 0 10-4.477 10-10s-4.477-10-10-10z" fill="#00915d"/><path d="m377.585 86.171c-3.099-16.23 3.368-33.501 17.856-43.462s32.93-9.817 46.974-1.112c3.099 16.23-50.786 53.279-64.83 44.574z" fill="#007b4e"/><path d="m377.585 86.171c-3.099-16.23 50.786-53.279 64.83-44.574 3.099 16.23-3.368 33.501-17.856 43.462s-32.93 9.817-46.974 1.112z" fill="#00915d"/><path d="m146.836 59.404c0 12.682-10.281 22.963-22.963 22.963h-61.835c-12.682 0-22.963-10.281-22.963-22.963 0-12.13 9.406-22.063 21.322-22.905 0-.019 0-.039 0-.058 0-12.682 10.281-22.963 22.963-22.963h29.755c12.682 0 12.399 10.281 12.399 22.963v.058c11.917.842 21.322 10.775 21.322 22.905z" fill="#bde2fd"/><path d="m157.401 59.404c0 12.682-10.281 22.963-22.963 22.963h-41.718c-12.682 0-22.963-10.281-22.963-22.963 0-12.13 9.406-22.063 21.322-22.905 0-.019 0-.039 0-.058 0-12.528 10.032-22.712 22.5-22.958 12.469.247 22.5 10.431 22.5 22.958v.058c11.916.842 21.322 10.775 21.322 22.905z" fill="#e5f2fd"/></g></svg>