<svg id="Capa_1" enable-background="new 0 0 512 512" height="512" viewBox="0 0 512 512" width="512" xmlns="http://www.w3.org/2000/svg"><g><circle cx="256" cy="256" fill="#fe646f" r="256"/><g><path d="m284.377 103.642-28.377 28.377-28.377-28.377c-50.969-50.969-133.605-50.969-184.574 0l-.001.001c-50.969 50.969-50.969 133.607 0 184.576l28.376 28.376 139.171 139.171c25.076 25.076 65.732 25.076 90.808 0l139.172-139.171 28.377-28.377c50.969-50.969 50.969-133.605 0-184.574-50.968-50.969-133.606-50.971-184.575-.002z" fill="#5a565e"/><path d="m295.014 455.775c1.032 1.032 2.1 2.029 3.203 2.972-25.218 22.068-63.588 21.071-87.631-2.972l-139.17-139.17-28.368-28.386c-25.485-25.485-38.227-58.889-38.227-92.276 0-33.404 12.743-66.809 38.227-92.294 36.377-36.377 88.877-46.788 134.49-31.233-18.295 6.229-35.487 16.64-50.08 31.233-25.485 25.485-38.227 58.889-38.227 92.294 0 33.387 12.742 66.791 38.227 92.276z" fill="#413d44"/></g><g><g fill="#f9f7f8"><path d="m268.067 196.062c2.583-.975 3.888-3.86 2.912-6.443l-18.203-48.232c-.017-.045-.035-.091-.053-.136-.946-2.301-3.163-3.786-5.649-3.786-.002 0-.004 0-.006 0-2.489.002-4.707 1.493-5.648 3.797-.015.037-.03.075-.044.112l-18.369 48.23c-.983 2.581.312 5.47 2.893 6.452.586.223 1.187.329 1.779.329 2.015 0 3.914-1.227 4.673-3.222l3.348-8.792h22.612l3.313 8.777c.974 2.585 3.856 3.891 6.442 2.914zm-28.559-21.689 7.549-19.82 7.48 19.82z"/><path d="m192.573 196.271c.353.061.673.116 6.09.116 2.604 0 6.385-.013 11.914-.043 2.762-.016 4.987-2.267 4.972-5.028-.016-2.761-2.304-4.968-5.028-4.972-4.236.024-8.797.04-12.102.042v-43.919c0-2.761-2.239-5-5-5s-5 2.239-5 5v48.878c0 2.434 1.754 4.515 4.154 4.926z"/><path d="m360.762 194.983c.971.937 2.222 1.402 3.471 1.402 1.31 0 2.618-.511 3.6-1.528 1.917-1.987 1.86-5.153-.127-7.07l-22.664-21.867 20.84-19.156c2.033-1.869 2.166-5.032.297-7.065-1.868-2.034-5.031-2.166-7.064-.298l-17.931 16.482v-13.418c0-2.761-2.238-5-5-5s-5 2.239-5 5v48.919c0 2.761 2.238 5 5 5s5-2.239 5-5v-15.292z"/><path d="m147.767 196.385h.022s13.068-.058 16.669-.058c10.018 0 18.167-8.15 18.167-18.167 0-6.082-3.015-11.462-7.617-14.761 2.015-2.707 3.224-6.049 3.224-9.676 0-8.964-7.292-16.256-16.256-16.256h-14.21c-2.761 0-5 2.239-5 5v48.919c0 1.33.53 2.605 1.472 3.543.938.932 2.207 1.456 3.529 1.456zm16.691-10.058c-2.136 0-7.59.021-11.691.037v-16.356c1.31-.005 2.734-.011 4.087-.016h7.604c4.503 0 8.167 3.664 8.167 8.167s-3.664 8.168-8.167 8.168zm-2.481-38.861c3.45 0 6.256 2.807 6.256 6.256s-2.806 6.256-6.256 6.256c-1.038 0-2.989.006-5.119.013h-4.091v-12.526h9.21z"/><path d="m300.839 196.385c6.46 0 12.252-2.117 16.749-6.123.884-.787 1.722-1.651 2.492-2.57 1.773-2.117 1.496-5.27-.62-7.044-2.116-1.775-5.271-1.496-7.044.62-.459.548-.957 1.062-1.479 1.526-2.675 2.382-6.072 3.59-10.099 3.59-10.73 0-19.46-8.729-19.46-19.459s8.729-19.459 19.46-19.459c3.899 0 7.661 1.148 10.877 3.321 2.289 1.546 5.396.943 6.942-1.345s.943-5.396-1.345-6.942c-4.876-3.293-10.572-5.034-16.475-5.034-16.244 0-29.46 13.216-29.46 29.459.002 16.244 13.218 29.46 29.462 29.46z"/></g><g fill="#f9f7f8"><path d="m194.461 265.193c-.016-2.761-2.242-4.964-5.028-4.972-4.236.024-8.797.04-12.102.042v-43.919c0-2.761-2.239-5-5-5s-5 2.239-5 5v48.878c0 2.435 1.754 4.516 4.154 4.928.353.061.673.116 6.09.116 2.604 0 6.385-.013 11.914-.043 2.761-.018 4.987-2.269 4.972-5.03z"/><path d="m201.759 216.343v48.919c0 2.761 2.239 5 5 5s5-2.239 5-5v-48.919c0-2.761-2.239-5-5-5s-5 2.239-5 5z"/><path d="m296.055 221.79c2.762 0 5-2.239 5-5s-2.238-5-5-5h-20.424c-2.762 0-5 2.239-5 5v48.472c0 2.761 2.238 5 5 5h20.424c2.762 0 5-2.239 5-5s-2.238-5-5-5h-15.424v-14.236h13.918c2.762 0 5-2.239 5-5s-2.238-5-5-5h-13.918v-14.236z"/><path d="m330.934 236.497c-6.189-2.283-11.938-4.773-13.506-5.461-1.332-1.007-1.976-2.593-1.729-4.308.154-1.075.918-3.698 4.673-4.829 7.494-2.258 14.327 3.186 14.491 3.317 2.115 1.758 5.255 1.479 7.023-.627 1.777-2.114 1.504-5.268-.61-7.045-.442-.372-10.996-9.075-23.789-5.22-6.333 1.908-10.812 6.883-11.687 12.983-.817 5.697 1.65 11.175 6.441 14.298.221.144.452.271.693.377.281.126 6.985 3.11 14.538 5.896 5.09 1.877 7.687 4.758 7.125 7.902-.568 3.186-4.331 6.481-9.643 6.481-5.172 0-10.16-2.097-13.342-5.608-1.853-2.045-5.016-2.203-7.062-.349s-2.202 5.016-.348 7.062c5.045 5.569 12.804 8.895 20.752 8.895 9.611 0 17.988-6.33 19.487-14.723 1.14-6.376-1.811-14.726-13.507-19.041z"/><path d="m260.099 211.688c-2.617-.869-5.451.548-6.321 3.169l-12.354 37.188-12.961-37.341c-.905-2.608-3.753-3.99-6.363-3.084-2.609.906-3.989 3.754-3.084 6.363l16.737 48.22c.865 2.433 3.173 4.06 5.752 4.06h.042c2.596-.018 4.901-1.682 5.748-4.172l15.973-48.081c.87-2.622-.548-5.452-3.169-6.322z"/></g><g><g fill="#f9f7f8"><path d="m214.573 286.298c-.017-.045-.035-.09-.053-.135-.946-2.3-3.163-3.786-5.65-3.786-.001 0-.003 0-.005 0-2.489.002-4.706 1.492-5.649 3.795-.016.038-.031.076-.045.114l-18.369 48.23c-.983 2.581.312 5.47 2.893 6.452 2.58.983 5.47-.312 6.452-2.893l3.348-8.792h22.612l3.312 8.777c.755 2.002 2.658 3.236 4.679 3.236.586 0 1.183-.104 1.765-.324 2.583-.975 3.887-3.859 2.912-6.443zm-13.269 32.986 7.549-19.821 7.48 19.821z"/><path d="m343.748 292.824c2.762 0 5-2.239 5-5s-2.238-5-5-5h-20.424c-2.762 0-5 2.239-5 5v48.472c0 2.761 2.238 5 5 5h20.424c2.762 0 5-2.239 5-5s-2.238-5-5-5h-15.424v-14.236h13.918c2.762 0 5-2.239 5-5s-2.238-5-5-5h-13.918v-14.236z"/><path d="m260.94 282.377h-27.016c-2.761 0-5 2.239-5 5s2.239 5 5 5h8.453v43.919c0 2.761 2.239 5 5 5s5-2.239 5-5v-43.919h8.563c2.761 0 5-2.239 5-5s-2.239-5-5-5z"/><path d="m305.349 282.377h-27.017c-2.762 0-5 2.239-5 5s2.238 5 5 5h8.454v43.919c0 2.761 2.238 5 5 5s5-2.239 5-5v-43.919h8.562c2.762 0 5-2.239 5-5s-2.237-5-4.999-5z"/><path d="m381.859 317.471c8.483-1.586 14.908-8.772 14.908-17.38 0-9.768-8.269-17.714-18.433-17.714h-13c-1.329 0-2.604.529-3.542 1.47s-1.463 2.218-1.458 3.547c0 0-.016 48.902-.016 48.902 0 2.761 2.238 5 5 5s5-2.239 5-5v-16.802l17.695 20.105c.988 1.123 2.368 1.697 3.755 1.697 1.173 0 2.352-.411 3.302-1.247 2.072-1.825 2.274-4.984.449-7.057zm-3.525-25.094c4.571 0 8.433 3.533 8.433 7.714s-3.861 7.713-8.433 7.713c-1.833 0-5.13.015-7.938.029-.015-2.754-.029-5.966-.029-7.742 0-1.5-.009-4.834-.018-7.714z"/><path d="m176.59 337.35c-.52 1.73-1.96 3.12-3.85 3.48-2.71.51-5.33-1.27-5.85-3.98l-2.18-11.37-3.85-20.16-3.62 12.69-5.38 18.89c-.02.06-.04.12-.05.18-.82 2.51-3.14 4.2-5.78 4.22h-.03c-2.63 0-4.95-1.67-5.79-4.17-.02-.05-.04-.11-.05-.17l-9.33-31.61-5.68 31.45c-.49 2.72-3.09 4.53-5.8 4.03-2.72-.49-4.53-3.09-4.04-5.8l8.6-47.64c.14-.74.41-1.43.78-2.04 1.01-1.69 2.79-2.82 4.82-2.96 2.77-.18 5.31 1.52 6.19 4.15.02.06.04.12.06.18l4.1 13.9 6.08 20.59 3.22-11.29 6.59-23.15c.02-.06.04-.12.05-.17.86-2.64 3.38-4.38 6.15-4.21 2.77.15 5.09 2.16 5.64 4.87l9.12 47.72c.16.82.1 1.63-.12 2.37z"/></g><path d="m157.24 318.01-5.38 18.89c-.02.06-.04.12-.05.18-.82 2.51-3.14 4.2-5.78 4.22h-.03c-2.63 0-4.95-1.67-5.79-4.17-.02-.05-.04-.11-.05-.17l-9.33-31.61-5.68 31.45c-.49 2.72-3.09 4.53-5.8 4.03-2.72-.49-4.53-3.09-4.04-5.8l8.6-47.64c.14-.74.41-1.43.78-2.04.9.97 1.82 1.92 2.77 2.87l12.4 12.4 6.08 20.59 3.22-11.29z" fill="#dedbee"/><path d="m176.59 337.35c-.52 1.73-1.96 3.12-3.85 3.48-2.71.51-5.33-1.27-5.85-3.98l-2.18-11.37z" fill="#dedbee"/></g></g></g></svg>