<svg id="Layer_1" enable-background="new 0 0 512 512" height="512" viewBox="0 0 512 512" width="512" xmlns="http://www.w3.org/2000/svg"><g><path d="m245.002 10.998c-57.639 0-110.62 19.914-152.463 53.223v383.557c41.843 33.309 94.824 53.223 152.463 53.223 135.311 0 245.002-109.691 245.002-245.002s-109.691-245.001-245.002-245.001z" fill="#5c45bf"/><path d="m481.826 64.221h-192.554s-41.091 30.979 0 63.879c.995.797 1.939 1.591 2.854 2.383h97.227c8.597 0 16.378 3.65 21.888 9.469h100.759v-45.556c0-16.596-13.578-30.175-30.174-30.175z" fill="#49b1f7"/><path d="m291.272 64.221h-198.733c-22.465 17.883-41.721 39.624-56.754 64.23v2.031h258.34c-.915-.792-1.858-1.586-2.854-2.383-41.09-32.898.001-63.878.001-63.878z" fill="#1fa2ea"/><path d="m419.527 199.767v184.133h62.298c16.596 0 30.174-13.578 30.174-30.174v-153.959z" fill="#49b1f7"/><path d="m512 201.278v-62.837h-102.286c6.022 5.526 9.813 13.449 9.813 22.216v40.62h92.473z" fill="#2a428c"/><g><path d="m456.602 108.354h-34.692c-4.119 0-7.459-3.339-7.459-7.459 0-4.119 3.339-7.459 7.459-7.459h34.692c4.12 0 7.459 3.339 7.459 7.459s-3.339 7.459-7.459 7.459z" fill="#9bd8f9"/></g><path d="m391.736 128.1h-128.124s-33.877 20.895-2.438 48.898c31.438 28.002 0 35.563 0 35.563s-8.973 23.101 15.774 31.187 6.176 151.288 6.176 151.288-34.372 24.632-6.262 52.742h114.873c16.596 0 30.175-13.578 30.175-30.174v-259.329c0-16.596-13.578-30.175-30.174-30.175z" fill="#deeeff"/><path d="m265.612 128.1h-229.607c-9.369 15.277-17.108 31.661-22.982 48.909l32.946 221.871c13.209 18.364 28.894 34.828 46.57 48.899h186.323c-28.111-28.111 6.262-52.742 6.262-52.742s18.572-143.203-6.176-151.288-15.774-31.187-15.774-31.187 31.438-7.561 0-35.563c-31.438-28.003 2.438-48.899 2.438-48.899z" fill="#d3dcfb"/><path d="m148.97 176.998h-72.912c-1.531 1.926-4.436 6.33-4.274 11.885.122 4.203 1.963 8.152 5.476 11.759-2.165 1.87-6.07 5.983-6.886 11.879-.735 5.312 1.208 10.734 5.777 16.114 13.131 15.459.082 96.07-.052 96.883l-.02.215c-.002.138-.35 13.739-7.431 24.319-1.591.506-6.005 2.224-7.938 6.188-1.074 2.202-1.205 4.683-.394 7.396-.8.077-1.64.201-2.503.365 6.069 2.835 12.787 4.4 19.766 4.4 19.275 0 36.588-11.884 43.613-29.747 4.46 1.784 8.854 3.906 13.381 6.459.508.286.975.555 1.412.807 2.743 1.579 4.556 2.621 7.546 2.866 4.779.391 9.092 1.52 12.922 3.364 0-58.237 0-160.227 0-167.667.003-4.133-3.348-7.485-7.483-7.485z" fill="#49b1f7"/><path d="m13.022 176.998c-8.44 24.787-13.022 51.359-13.022 79.002 0 31.585 5.998 61.762 16.882 89.486l.721 1.323c.498-.274 1.011-.566 1.569-.887.439-.252.906-.522 1.414-.808 4.531-2.555 8.926-4.677 13.381-6.459 4.856 12.347 14.628 21.834 26.566 26.518 1.191-.143 1.902-.15 1.902-.15-4.802-10.727 7.153-13.682 7.153-13.682 7.726-11.159 7.992-25.58 7.992-25.58s13.448-81.927-.285-98.097c-13.733-16.169 2.246-26.907 2.246-26.907-13.154-11.91-1.506-23.759-1.506-23.759z" fill="#1fa2ea"/><path d="m326.454 304.461c-9.055-10.378-17.173-21.821-23.882-34.392-9.702 1.946-22.735 7.593-27.164 23.671-5.75 20.882-20.051 72.847 21.601 100.05 39.037-8.356 57.56-57.106 29.445-89.329z" fill="#ff4155"/><path d="m285.124 395.036c4.955 0 9.664-.623 14.095-1.767-34.857-24.77-20.488-75.882-14.095-99.096 4.303-15.623 8.929-20.897 18.237-22.64-4.754-8.704-8.836-17.952-12.06-27.786-1.955-5.964-10.396-5.964-12.352 0-7.669 23.389-20.138 43.504-35.153 60.713-30.837 35.342-5.575 90.576 41.328 90.576z" fill="#e80054"/><path d="m287.738 338.441c0-4.593 3.333-8.397 7.711-9.151-.725-.219-1.257-.884-1.257-1.681v-13.548c0-.974-.79-1.764-1.764-1.764h-14.608c-.974 0-1.764.79-1.764 1.764v13.548c0 .974-.79 1.764-1.764 1.764h-13.548c-.974 0-1.764.79-1.764 1.764v14.608c0 .974.79 1.764 1.764 1.764h13.548c.974 0 1.764.79 1.764 1.764v13.548c0 .974.79 1.764 1.764 1.764h14.607c.974 0 1.764-.79 1.764-1.764v-13.548c0-.797.531-1.462 1.256-1.681-4.376-.754-7.709-4.559-7.709-9.151z" fill="#fea5da"/><path d="m311.268 345.744v-14.608c0-.974-.79-1.764-1.764-1.764h-13.548c-.278 0-.538-.07-.772-.185-4.735.43-8.446 4.406-8.446 9.253 0 4.847 3.711 8.823 8.446 9.253.234-.115.494-.185.772-.185h13.548c.974 0 1.764-.789 1.764-1.764z" fill="#ffc0e9"/><path d="m361.941 176.998h-100.767c-3.991 0-7.227 3.236-7.227 7.227v21.11c0 3.991 3.236 7.227 7.227 7.227h100.767c3.991 0 7.227-3.235 7.227-7.227 0-11.406 0-19.171 0-21.11 0-3.992-3.236-7.227-7.227-7.227z" fill="#49b1f7"/><path d="m255.947 205.334c0-11.492 0-19.278 0-21.11 0-3.991 3.236-7.227 7.227-7.227h-54.867c-3.991 0-7.227 3.236-7.227 7.227v21.11c0 3.991 3.236 7.227 7.227 7.227h54.867c-3.991 0-7.227-3.235-7.227-7.227z" fill="#1fa2ea"/><g><path d="m362.579 253.305h-14.984c-4.12 0-7.459-3.339-7.459-7.459s3.339-7.459 7.459-7.459h14.984c4.12 0 7.459 3.339 7.459 7.459-.001 4.119-3.34 7.459-7.459 7.459z" fill="#a8b7ef"/></g><path d="m107.203 332.53c-4.581-4.581-5.743-13.267-5.951-19.343-2.391 2.785-4.9 5.114-7.298 6.976-4.671 3.627-10.435 5.598-16.372 5.598-.501 0-.999-.034-1.497-.062l-.003.034c-.002.138-.35 13.739-7.431 24.319-.561.178-1.475.511-2.504 1.036 3.551 1.38 7.402 2.153 11.435 2.153 13.608 0 25.237-8.62 29.722-20.686-.035-.008-.068-.017-.101-.025z" fill="#ffaa7b"/><path d="m61.209 320.163c-2.398-1.862-4.907-4.191-7.298-6.976-.209 6.077-1.371 14.762-5.952 19.343-.033.008-.066.016-.1.024 3.407 9.167 10.944 16.334 20.333 19.254.833-.328 1.396-.467 1.396-.467 7.726-11.159 7.992-25.58 7.992-25.58-5.936-.001-11.7-1.971-16.371-5.598z" fill="#fc9460"/><path d="m143.668 347.136c-3.054-.25-4.679-1.434-8.279-3.464-4.964-2.799-9.975-5.195-15.16-7.171-6.189 17.595-22.965 30.245-42.648 30.245-6.147 0-12.01-1.234-17.356-3.467.032.12.056.237.092.357-8.024.776-19.693 5.666-24.938 19.18 3.332 5.494 6.85 10.864 10.59 16.065h103c4.135 0 7.486-3.352 7.486-7.486 0-3.659 0-19.572 0-41.079-3.663-1.657-7.892-2.78-12.787-3.18z" fill="#ff4155"/><path d="m62.013 363.978c-12.619-4.647-22.611-14.772-27.081-27.477-5.185 1.976-10.195 4.372-15.159 7.171-1.157.653-2.1 1.208-2.962 1.683 5.357 13.67 11.929 26.725 19.545 39.068 6.648-19.215 26.08-19.399 26.08-19.399-.16-.358-.299-.705-.423-1.046z" fill="#e80054"/><path d="m122.372 261.169c-1.852-1.697-5.54-.837-7.134.202.349 2.175.369 4.401.068 6.599l-1.882 13.706c0 1.105-.035 2.189-.099 3.254 4.589 1.384 6.868-2.735 7.252-5.562.165-1.217.436-2.416.81-3.587 1.22-3.812 5.624-10.36.985-14.612z" fill="#ffaa7b"/><path d="m32.791 261.169c1.852-1.697 5.54-.837 7.134.202-.349 2.175-.369 4.401-.067 6.599l1.882 13.706c0 1.105.035 2.189.099 3.254-4.589 1.384-6.868-2.735-7.252-5.562-.165-1.217-.436-2.416-.81-3.587-1.222-3.812-5.625-10.36-.986-14.612z" fill="#fc9460"/><path d="m77.191 200.703c-2.178 1.896-6.009 5.982-6.816 11.817-.684 4.94.952 9.973 4.857 14.98 2.555.361 5.174.14 7.646-.682 5.291-1.759 13.587-3.522 20.351-.478 7.961 3.582 8.197 15.442 7.757 21.507-.153 2.109.349 4.223 1.488 6.011.673 1.055 1.206 2.174 1.63 3.28.527 1.374.901 2.793 1.132 4.234 1.222-.592 2.969-1.237 4.463-1.026.183-6.339.768-13.173.768-13.173 6.368-31.187-19.368-46.406-43.276-46.47z" fill="#3c58a0"/><path d="m69.664 201.195c-23.772 3.239-26.032 16.717-26.042 21.663-.002 1.037-.577 1.998-1.509 2.452-12.366 6.016-5.699 35.008-5.699 35.008 1.242.083 2.542.586 3.511 1.055.237-1.477.625-2.932 1.172-4.338.417-1.071.938-2.154 1.59-3.176 1.131-1.774 1.646-3.867 1.492-5.959-.444-6.049-.23-17.966 7.753-21.559 6.764-3.043 15.06-1.281 20.351.478 1.627.541 3.318.817 5.012.846-13.732-16.168 2.243-26.905 2.246-26.907-3.336-.148-6.659-.001-9.877.437z" fill="#2a428c"/><path d="m107.203 332.53c-.197-.197-.38-.412-.564-.624-4.268 11.929-15.68 20.49-29.057 20.49-3.636 0-7.117-.651-10.358-1.811-2.009.853-5.007 2.573-6.511 5.655-1.074 2.202-1.205 4.683-.394 7.396-.354.034-.716.078-1.084.128 5.625 2.455 11.827 3.825 18.347 3.825 20.041 0 37.124-12.874 43.436-30.783-4.454-1.739-9.03-3.172-13.815-4.276z" fill="#ff7186"/><path d="m48.523 331.907c-.185.212-.367.426-.565.623-4.785 1.104-9.361 2.536-13.814 4.276 4.641 13.168 15.109 23.606 28.29 28.214-4.799-10.725 7.154-13.68 7.154-13.68.003-.004.006-.008.008-.013-9.795-2.629-17.687-9.955-21.073-19.42z" fill="#ff4155"/><path d="m114.105 257.138c-.424-1.105-.957-2.224-1.63-3.28-1.139-1.788-1.641-3.902-1.488-6.011.439-6.064.204-17.924-7.757-21.507-6.763-3.043-15.059-1.281-20.35.478-2.303.766-4.734 1.006-7.122.745-4.829 5.086-4.945 14.454-4.565 19.638.158 2.144-.37 4.289-1.529 6.107-.668 1.048-1.202 2.157-1.63 3.255-1.386 3.561-1.79 7.423-1.271 11.205l1.929 14.049c0 20.197 10.782 33.926 19.952 41.047.557.432 1.137.825 1.726 1.205 1.25-.681 2.45-1.459 3.584-2.34 8.949-6.949 19.469-20.345 19.469-40.053l1.882-13.706c.501-3.653.121-7.385-1.2-10.832z" fill="#ffc7ab"/><g><path d="m88.709 321.73c-8.949-6.949-19.469-20.345-19.469-40.053l-1.882-13.709c-.507-3.69-.112-7.459 1.24-10.934.417-1.071.938-2.153 1.59-3.176 1.131-1.774 1.646-3.867 1.492-5.959-.4-5.447-.246-15.635 5.616-20.235-1.695-.029-3.386-.304-5.013-.845-5.291-1.759-13.587-3.521-20.35-.478-7.983 3.592-8.198 15.51-7.753 21.559.154 2.092-.361 4.185-1.492 5.959-.652 1.022-1.173 2.105-1.59 3.176-1.353 3.475-1.747 7.244-1.24 10.934l1.882 13.709c0 19.708 10.521 33.104 19.469 40.053 4.671 3.627 10.436 5.598 16.372 5.598 4.873 0 9.619-1.347 13.75-3.828-.902-.544-1.785-1.121-2.622-1.771z" fill="#ffaa7b"/></g><g fill="#6d59c8"><path d="m245.002 10.998c-27.04 0-53.055 4.384-77.376 12.476 7.669 10.546 20.091 17.44 34.052 17.44h73.97c15.347 0 28.838-8.329 36.194-20.685-21.248-6.011-43.668-9.231-66.84-9.231z"/><path d="m245.002 501.002c-27.04 0-53.055-4.384-77.376-12.476 7.669-10.546 20.091-17.44 34.052-17.44h73.97c15.347 0 28.838 8.329 36.194 20.685-21.248 6.011-43.668 9.231-66.84 9.231z"/></g></g></svg>