<svg id="Capa_1" enable-background="new 0 0 512 512" height="512" viewBox="0 0 512 512" width="512" xmlns="http://www.w3.org/2000/svg"><g><path d="m512 256c0 141.385-114.615 256-256 256s-256-114.615-256-256 114.615-256 256-256 256 114.615 256 256z" fill="#76b6fa"/><path d="m469.021 228.08c0 101.62-82.38 184-184 184s-184-82.38-184-184 82.38-184 184-184 184 82.38 184 184z" fill="#86befb"/><path d="m200 256.5c0 42.25-34.25 76.5-76.5 76.5h-47c-4.104 0-8.133-.323-12.062-.946l76.054-76.054-75.187-75.187c3.654-.536 7.392-.813 11.195-.813h47c42.25 0 76.5 34.25 76.5 76.5zm-93.686-168.804c0 33.134-26.861 59.995-59.995 59.995h-36.859c-3.219 0-6.378-.254-9.46-.742l59.646-59.645-58.966-58.965c2.865-.42 5.797-.638 8.779-.638h36.86c33.135 0 59.995 26.861 59.995 59.995zm0 337c0 33.134-26.861 59.995-59.995 59.995h-36.859c-3.219 0-6.378-.254-9.46-.742l59.646-59.645-58.966-58.965c2.865-.42 5.797-.638 8.779-.638h36.86c33.135 0 59.995 26.861 59.995 59.995z" fill="#476633"/><path d="m501.305 279.255c3.53 0 5.932 3.611 4.541 6.856-11.692 27.279-38.787 46.389-70.346 46.389h-177c-42.25 0-76.5-34.25-76.5-76.5 0-42.25 34.25-76.5 76.5-76.5h36.716c-16.02 9.224-27.92 26.518-27.92 46.331 0 29.505 23.919 53.424 53.424 53.424zm-158.693-173.713c2.769 0 4.652 2.832 3.561 5.377-9.169 21.394-30.419 36.381-55.169 36.381h-138.811c-33.134 0-59.995-26.861-59.995-59.995 0-33.134 26.861-59.995 59.995-59.995h28.794c-12.564 7.234-21.896 20.797-21.896 36.335 0 23.139 18.758 41.898 41.898 41.898h141.623zm0 337c2.769 0 4.652 2.832 3.561 5.377-9.169 21.394-30.419 36.381-55.169 36.381h-138.811c-33.134 0-59.995-26.861-59.995-59.995 0-33.134 26.861-59.995 59.995-59.995h28.794c-12.564 7.234-21.896 20.797-21.896 36.335 0 23.139 18.758 41.898 41.898 41.898h141.623z" fill="#4f7139"/><path d="m512 256c0 10.783-2.231 21.044-6.256 30.348h-210.787c-29.505 0-53.424-23.919-53.424-53.424 0-29.505 23.919-53.424 53.424-53.424h140.543c42.25 0 76.5 34.25 76.5 76.5zm-161-168.696c0 8.456-1.75 16.504-4.906 23.8h-165.309c-23.139 0-41.898-18.758-41.898-41.898 0-23.139 18.758-41.898 41.898-41.898h110.22c33.134.001 59.995 26.862 59.995 59.996zm0 337c0 8.456-1.75 16.504-4.906 23.8h-165.309c-23.139 0-41.898-18.758-41.898-41.898 0-23.139 18.758-41.898 41.898-41.898h110.22c33.134.001 59.995 26.862 59.995 59.996z" fill="#5e8745"/><path d="m310.506 225.977v-5.689c0-16.568 13.431-30 30-30h21.747c16.568 0 30 13.432 30 30v5.689c0 13.751-9.252 25.34-21.87 28.885-3.777 6.58-10.873 11.012-19.003 11.012s-15.227-4.432-19.003-11.012c-12.62-3.545-21.871-15.135-21.871-28.885zm87.367 70.319-26.795-11.099 26.795-11.099c3.846-1.593 5.673-6.003 4.08-9.849-1.593-3.847-6.003-5.673-9.85-4.08l-40.725 16.869-40.725-16.869c-3.846-1.593-8.256.233-9.85 4.08-1.593 3.846.233 8.256 4.08 9.849l26.795 11.099-26.795 11.099c-3.846 1.593-5.673 6.003-4.08 9.85s6.003 5.673 9.85 4.08l40.725-16.869 40.725 16.869c3.847 1.593 8.256-.233 9.85-4.08 1.593-3.846-.233-8.256-4.08-9.85z" fill="#e9f3fe"/><path d="m344.08 219.482v7.299c0 4.031-3.268 7.299-7.299 7.299s-7.299-3.268-7.299-7.299v-7.299c0-4.031 3.268-7.299 7.299-7.299s7.299 3.268 7.299 7.299zm21.897-7.298c-4.031 0-7.299 3.268-7.299 7.299v7.299c0 4.031 3.268 7.299 7.299 7.299 4.031 0 7.299-3.268 7.299-7.299v-7.299c-.001-4.032-3.268-7.299-7.299-7.299z" fill="#4f7139"/><path d="m392 97.499c0 4.142-3.358 7.5-7.5 7.5h-47.001c-4.142 0-7.5-3.358-7.5-7.5 0-4.142 3.358-7.5 7.5-7.5h47.001c4.142 0 7.5 3.357 7.5 7.5zm50.501 37.501h-47.001c-4.142 0-7.5 3.358-7.5 7.5 0 4.142 3.358 7.5 7.5 7.5h47.001c4.142 0 7.5-3.358 7.5-7.5 0-4.142-3.358-7.5-7.5-7.5zm-28 220h-47.001c-4.142 0-7.5 3.358-7.5 7.5 0 4.142 3.358 7.5 7.5 7.5h47.001c4.142 0 7.5-3.358 7.5-7.5 0-4.142-3.358-7.5-7.5-7.5zm38 66h-47.001c-4.142 0-7.5 3.358-7.5 7.5 0 4.142 3.358 7.5 7.5 7.5h47.001c4.142 0 7.5-3.358 7.5-7.5 0-4.142-3.358-7.5-7.5-7.5z" fill="#f77026"/><path d="m384.5 104.999h-21.128c-4.142 0-7.5-3.358-7.5-7.5s3.358-7.5 7.5-7.5h21.128c4.142 0 7.5 3.358 7.5 7.5s-3.358 7.5-7.5 7.5zm36.872 45.001h21.128c4.142 0 7.5-3.358 7.5-7.5s-3.358-7.5-7.5-7.5h-21.128c-4.142 0-7.5 3.358-7.5 7.5s3.358 7.5 7.5 7.5zm-6.871 205h-21.128c-4.142 0-7.5 3.358-7.5 7.5s3.358 7.5 7.5 7.5h21.128c4.142 0 7.5-3.358 7.5-7.5s-3.358-7.5-7.5-7.5zm38 66h-21.128c-4.142 0-7.5 3.358-7.5 7.5s3.358 7.5 7.5 7.5h21.128c4.142 0 7.5-3.358 7.5-7.5s-3.358-7.5-7.5-7.5z" fill="#ff883e"/><path d="m170 256c0 4.142-3.358 7.5-7.5 7.5h-135c-4.142 0-7.5-3.358-7.5-7.5 0-4.142 3.358-7.5 7.5-7.5h135c4.142 0 7.5 3.358 7.5 7.5zm-97.5-41h-65c-4.142 0-7.5 3.358-7.5 7.5 0 4.142 3.358 7.5 7.5 7.5h65c4.142 0 7.5-3.358 7.5-7.5 0-4.142-3.358-7.5-7.5-7.5zm0 65h-65c-4.142 0-7.5 3.358-7.5 7.5 0 4.142 3.358 7.5 7.5 7.5h65c4.142 0 7.5-3.358 7.5-7.5 0-4.142-3.358-7.5-7.5-7.5z" fill="#fff"/><path d="m280.713 125.298h-17v-97.989h17zm0 239.011h-17v96.819h17z" fill="#4f7139"/><path d="m280.713 147.299h-17v-36.195h17zm0 300.805h-17v36.195h17z" fill="#476633"/></g></svg>