<svg id="Capa_1" enable-background="new 0 0 512 512" height="512" viewBox="0 0 512 512" width="512" xmlns="http://www.w3.org/2000/svg"><g><g><g><path d="m256 0c-141.385 0-256 114.615-256 256 0 44.754 11.497 86.819 31.679 123.422h100.822v100.856c36.622 20.209 78.713 31.722 123.499 31.722 141.385 0 256-114.615 256-256s-114.615-256-256-256z" fill="#ffdd40"/></g></g><g><g><path d="m466.89 172.389c7.628-7.628 29.747-4.569 34.395-13.687 4.817-9.45-10.753-25.604-9.137-35.863 1.633-10.362 21.389-20.931 19.756-31.293-1.616-10.259-23.621-14.216-28.438-23.666-4.648-9.118 5.194-29.284-2.434-36.912s-27.795 2.214-36.913-2.434c-9.45-4.817-13.408-26.821-23.667-28.438-10.362-1.633-20.931 18.124-31.292 19.756-10.259 1.616-26.413-13.954-35.863-9.137-9.118 4.648-6.059 26.766-13.687 34.394s-29.747 4.569-34.395 13.687c-4.817 9.45 10.753 25.604 9.137 35.863-1.633 10.362-21.389 20.931-19.756 31.293 1.616 10.259 23.621 14.216 28.438 23.666 4.648 9.118-5.194 29.284 2.434 36.912s27.795-2.214 36.913 2.434c9.45 4.817 13.408 26.821 23.667 28.438 10.362 1.633 20.931-18.124 31.292-19.756 10.259-1.616 26.413 13.954 35.863 9.137 9.118-4.648 6.059-26.766 13.687-34.394z" fill="#ff4155"/></g><g><circle cx="403.251" cy="108.75" fill="#ffb332" r="60"/></g><g><circle cx="403.251" cy="108.75" fill="#ffdd40" r="30"/></g><g><path d="m411.736 100.264c-5.858-5.858-15.355-5.858-21.213 0l-45.962 45.962 21.213 21.213 45.962-45.962c5.858-5.857 5.858-15.355 0-21.213z" fill="#fff"/></g><g><path d="m341.025 227.544-56.569-56.569c-15.621-15.621-15.621-40.948 0-56.568 15.621-15.621 40.948-15.621 56.569 0l56.569 56.569c15.621 15.621 15.621 40.948 0 56.568-15.621 15.62-40.948 15.62-56.569 0z" fill="#112360"/></g><g><path d="m72.325 170.975c-56.355 56.355-69.895 139.3-40.646 208.447 23.394 42.429 58.471 77.506 100.9 100.9 69.146 29.249 152.091 15.709 208.446-40.646 74.2-74.2 74.2-194.501 0-268.701-74.199-74.2-194.501-74.2-268.7 0z" fill="#2a428c"/></g><g><path d="m72.325 170.975c-56.356 56.355-69.896 139.301-40.646 208.447 23.38 42.402 58.428 77.462 100.822 100.856 1.805.764 3.617 1.51 5.44 2.216-26.351-68.034-12.087-148.179 42.819-203.084 54.906-54.906 135.05-69.17 203.084-42.819-9.26-23.907-23.525-46.322-42.819-65.616-74.199-74.2-194.501-74.2-268.7 0z" fill="#1c2e7a"/></g></g></g></svg>