<svg id="Capa_1" enable-background="new 0 0 512 512" height="512" viewBox="0 0 512 512" width="512" xmlns="http://www.w3.org/2000/svg"><g><path d="m512 256c0 141.385-114.615 256-256 256s-256-114.615-256-256 114.615-256 256-256 256 114.615 256 256z" fill="#464646"/><path d="m458 256c0 111.562-90.438 202-202 202s-202-90.438-202-202 90.438-202 202-202 202 90.438 202 202z" fill="#5a5a5a"/><path d="m407.86 230.231c-.73-4.077 1.984-7.974 6.061-8.704l24.609-4.406c4.077-.73 7.974 1.984 8.704 6.061.73 4.077-1.984 7.974-6.061 8.704l-24.609 4.405c-4.078.731-7.975-1.983-8.704-6.06zm6.008-25.821 14.286-20.516c2.367-3.399 1.53-8.074-1.869-10.441s-8.074-1.53-10.441 1.869l-14.286 20.516c-2.367 3.399-1.53 8.074 1.869 10.441s8.074 1.53 10.441-1.869zm29.101 62.239-20.516-14.286c-3.399-2.367-8.073-1.53-10.441 1.869-2.367 3.399-1.53 8.074 1.869 10.441l20.516 14.286c3.399 2.367 8.073 1.53 10.44-1.869 2.368-3.399 1.531-8.073-1.868-10.441zm-139.742-200.164c-3.399-2.367-8.073-1.53-10.44 1.869l-14.287 20.517c-2.367 3.399-1.53 8.074 1.869 10.441s8.073 1.53 10.44-1.869l14.286-20.516c2.368-3.4 1.531-8.074-1.868-10.442zm-41.273-14.289c-.73-4.077-4.627-6.791-8.704-6.061s-6.791 4.627-6.061 8.704l4.406 24.609c.73 4.077 4.627 6.791 8.704 6.061s6.791-4.627 6.061-8.704zm68.993 48.041-24.609 4.405c-4.077.73-6.791 4.627-6.061 8.704s4.627 6.791 8.704 6.061l24.609-4.405c4.077-.73 6.791-4.627 6.061-8.704s-4.627-6.79-8.704-6.061z" fill="#9b9b9b"/><path d="m416.138 317.113c-12.052-12.052-27.162-19.179-42.832-21.385 14.898-28.486 10.381-64.482-13.552-88.414-18.579-18.58-44.429-25.458-68.391-20.634 4.823-23.962-2.055-49.812-20.634-68.391-23.933-23.933-59.928-28.449-88.414-13.552-2.205-15.67-9.333-30.78-21.384-42.832-29.501-29.501-77.331-29.501-106.831 0-28.422 28.422-29.461 73.859-3.116 103.525l-28.205 28.206 261.629 261.63 28.206-28.206c29.666 26.345 75.103 25.307 103.525-3.116 29.5-29.501 29.5-77.331-.001-106.831zm-278.948-172.117c-16.389 16.389-42.961 16.389-59.351 0-16.389-16.389-16.389-42.961 0-59.35s42.962-16.389 59.351 0c16.39 16.388 16.39 42.96 0 59.35zm109.799 56.383c-16.389 16.389-42.961 16.389-59.35 0s-16.389-42.961 0-59.351c16.39-16.389 42.961-16.389 59.351 0 16.388 16.389 16.388 42.962-.001 59.351zm29.675 89.026c-16.389-16.389-16.389-42.961 0-59.35 16.39-16.389 42.961-16.389 59.351 0 16.389 16.389 16.39 42.961 0 59.351-16.39 16.388-42.961 16.388-59.351-.001zm115.734 109.799c-16.389 16.389-42.961 16.389-59.35 0s-16.39-42.961 0-59.35c16.389-16.39 42.962-16.389 59.351 0 16.388 16.388 16.388 42.96-.001 59.35z" fill="#76b6fa"/><path d="m170.166 73.092c-10.239 4.813-20.007 10.46-29.219 16.854-1.138-1.496-2.39-2.934-3.757-4.3-16.389-16.389-42.961-16.389-59.351 0-16.389 16.389-16.389 42.961 0 59.35 1.915 1.915 3.97 3.607 6.131 5.074-14.176 22.973-23.878 48.999-27.894 76.864l-33.298-33.298 28.205-28.206c-26.345-29.666-25.307-75.102 3.116-103.525 29.501-29.501 77.331-29.501 106.831 0 3.493 3.492 6.57 7.242 9.236 11.187z" fill="#55a4f9"/><path d="m416.814 317.797c-12.16-12.466-27.543-19.822-43.508-22.069 14.898-28.486 10.381-64.482-13.552-88.414-18.579-18.58-44.429-25.458-68.391-20.634 3.765-18.704.4-38.557-10.093-55.206-7.979 6.273-15.67 13.086-23.026 20.442-.878.878-1.748 1.761-2.611 2.649 6.895 15.423 4.013 34.156-8.645 46.814-9.346 9.346-22.003 13.362-34.195 12.049-.144.272-.287.544-.43.817-23.027 43.989-14.523 97.886 20.587 132.995l48.329 48.329c5.711 5.711 6.236 15.014.8 20.987-5.804 6.378-15.686 6.553-21.714.525l24.042 38.184 28.206-28.206c29.903 26.555 75.828 25.288 104.202-3.801 28.449-29.166 28.449-76.294-.001-105.461zm-140.15-27.392c-16.389-16.389-16.389-42.961 0-59.35 16.39-16.389 42.961-16.389 59.351 0 16.389 16.389 16.39 42.961 0 59.351-16.39 16.388-42.961 16.388-59.351-.001zm115.734 109.799c-16.389 16.389-42.961 16.389-59.35 0s-16.39-42.961 0-59.35c16.389-16.39 42.962-16.389 59.351 0 16.388 16.388 16.388 42.96-.001 59.35z" fill="#a7d0fc"/><path d="m115.876 315.018-111.483-111.483c-5.858-5.858-5.858-15.355 0-21.213 5.858-5.858 15.355-5.858 21.213 0l113.137 113.137z" fill="#1380e2"/><path d="m295.721 473.65c-5.858 5.858-15.355 5.858-21.213 0l-156.977-156.978c-5.858-5.858-5.858-15.355 0-21.213 5.858-5.858 15.355-5.858 21.213 0l156.978 156.978c5.857 5.857 5.857 15.355-.001 21.213z" fill="#55a4f9"/></g></svg>