<svg id="Layer_1" enable-background="new 0 0 512 512" height="512" viewBox="0 0 512 512" width="512" xmlns="http://www.w3.org/2000/svg"><g><path d="m351.164 477.732c82.147-39.557 138.84-123.592 138.84-220.869 0-135.311-109.691-245.002-245.002-245.002-64.923 0-123.938 25.263-167.779 66.482 0 .008-2.244 314.736 273.941 399.389z" fill="#47cb8f"/><path d="m304.806 76.055c6.545 14.002 18.092 24.772 31.904 30.58h34.394c2.291-2.551 3.696-5.913 3.696-9.612 0-7.957-6.45-14.407-14.407-14.407-12.583 0-24.156-7.365-29.485-18.764l-.864-1.849c-3.37-7.208-11.948-10.319-19.154-6.949-7.208 3.37-10.32 11.945-6.949 19.154z" fill="#fef156"/><path d="m149.402 106.634c13.813-5.808 25.359-16.577 31.904-30.58l.864-1.847c3.37-7.209.259-15.784-6.949-19.154-7.206-3.37-15.783-.259-19.154 6.949l-.864 1.849c-5.329 11.399-16.902 18.764-29.485 18.764-7.957 0-14.407 6.45-14.407 14.407 0 3.699 1.406 7.061 3.696 9.612z" fill="#ffd402"/><path d="m447.164 106.634v-17.867c0-7.282-5.958-13.24-13.239-13.24h-16.917c-7.281 0-13.239 5.958-13.239 13.24v17.867z" fill="#fef156"/><path d="m51.464 106.634h30.88v-17.867c0-4.226-2.014-7.996-5.121-10.424-9.299 8.743-17.915 18.2-25.759 28.291z" fill="#ffd402"/><path d="m482.742 259.877-187.97 69.79c-2.872 1.066-5.77 2.034-8.688 2.917v8.054c0 9.673-7.841 17.514-17.514 17.514h-10.055c1.382.841 2.881 1.619 4.51 2.324-5.855 8.331-31.619 48.194-21.289 90.886 4.571 18.891 15.448 35.775 32.465 50.502h154.925c45.005 0 81.827-36.822 81.827-81.827v-192.625c-3.22 14.703-13.697 27.076-28.211 32.465z" fill="#3f57a0"/><path d="m265.362 359.808c-1.357-.517-2.605-1.072-3.761-1.655h-44.06c-9.673 0-17.514-7.841-17.514-17.514v-8.055c-2.918-.883-5.816-1.851-8.688-2.917l-187.969-69.79c-1.146-.425-2.256-.909-3.35-1.419.86 134.574 110.201 243.405 244.977 243.407h31.514c-73.243-61.774-11.149-142.057-11.149-142.057z" fill="#2a428b"/><path d="m5.556 220.011v-15.181c-3.628 16.772-5.556 34.176-5.556 52.033 0 1.281.029 2.555.048 3.832 1.082.504 2.189.968 3.322 1.389l187.97 69.79c2.872 1.066 5.77 2.034 8.688 2.917v-33.044c0-.063.009-.123.009-.185l-185.722-68.956c-5.239-1.945-8.759-7.006-8.759-12.595z" fill="#5071b3"/><path d="m485.864 104.428h-5.308v115.584c0 5.588-3.52 10.65-8.758 12.595l-185.722 68.956c.001.062.009.122.009.185v33.044c2.917-.883 5.815-1.85 8.687-2.917l187.97-69.791c17.588-6.531 29.258-23.312 29.258-42.073v-89.447c0-14.435-11.701-26.136-26.136-26.136z" fill="#6289cd"/><path d="m260.684 104.427c-18.609 10.091-38.392 25.906-38.392 47.554l.001 86.362c-.033 1.142-.57 27.729 19.418 36.823l1.514 9.066h25.344c9.658 0 17.515 7.856 17.515 17.514v1.577l186.289-69.166c5.884-2.185 9.837-7.87 9.837-14.146v-115.584z" fill="#5071b3"/><path d="m223.792 151.981c0-21.796 21.291-37.701 40.278-47.554h-210.869c-24.666 30.994-41.983 68.095-49.3 108.677v6.907c0 6.276 3.953 11.961 9.838 14.146v.001l186.289 69.166v-1.577c0-9.658 7.856-17.514 17.514-17.514h27.204l-1.69-10.114c-20.056-8.459-19.264-35.731-19.264-35.731s0-47.073 0-86.407z" fill="#3f57a0"/><path d="m268.57 282.578h-25.621l7.31 43.758c-1.074 2.18-5.054 11.263-1.711 20.337 2.047 5.558 6.42 9.966 13.015 13.135h7.007c10.543 0 19.169-8.626 19.169-19.169v-38.892c0-10.543-8.626-19.169-19.169-19.169z" fill="#ffd402"/><path d="m217.542 359.808h47.82c-26.25-10.007-13.542-33.229-13.542-33.229l-7.351-44.001h-26.927c-10.543 0-19.169 8.626-19.169 19.169v38.892c0 10.543 8.626 19.169 19.169 19.169z" fill="#ffac3e"/><path d="m243.056 274.119c-7.98 0-14.45 6.469-14.45 14.45v26.524c0 7.98 6.469 14.45 14.45 14.45s14.45-6.469 14.45-14.45v-26.524c0-7.98-6.469-14.45-14.45-14.45z" fill="#fef156"/><g><path d="m167.219 71.791c-6.204-4.419-7.651-13.03-3.231-19.234 40.25-56.508 117.807-56.619 158.136 0 4.418 6.204 2.971 14.815-3.232 19.234-6.204 4.419-14.815 2.972-19.234-3.232-29.32-41.165-83.943-41.08-113.204.001-4.428 6.213-13.042 7.643-19.235 3.231z" fill="#3f57a0"/></g></g></svg>