<svg id="Capa_1" enable-background="new 0 0 512 512" height="512" viewBox="0 0 512 512" width="512" xmlns="http://www.w3.org/2000/svg"><g><g><path d="m256 0c-141.385 0-256 114.615-256 256 0 116.136 77.342 214.192 183.323 245.517h145.354c105.981-31.325 183.323-129.381 183.323-245.517 0-141.385-114.615-256-256-256z" fill="#4fabf7"/></g><g><path d="m296 391.7v-26.7h-80v26.7c0 39.092-11.407 77.236-32.677 109.817 23.041 6.81 47.428 10.483 72.677 10.483s49.636-3.673 72.677-10.483c-21.27-32.581-32.677-70.725-32.677-109.817z" fill="#d3dcfb"/></g><g><path d="m256 391.7v-26.7h-40v26.7c0 39.092-11.407 77.236-32.677 109.817 11.802 3.488 23.96 6.147 36.403 7.917 24.533-32.748 36.274-79.646 36.274-117.734z" fill="#bec8f7"/></g><g><path d="m512 340-256 40-256-40v-260c0-11.046 8.954-20 20-20h472c11.046 0 20 8.954 20 20z" fill="#1c2e7a"/></g><g><path d="m91.415 60h-71.415c-11.046 0-20 8.954-20 20v260l91.415 14.284v-264.284c-8.284 0-15-6.716-15-15s6.716-15 15-15z" fill="#112360"/></g><g><path d="m256 380 226-35.312v-254.688h-452v254.688z" fill="#49d88b"/></g><g><path d="m492 420h-472c-11.046 0-20-8.954-20-20v-60h512v60c0 11.046-8.954 20-20 20z" fill="#e9efff"/></g><g><path d="m113.383 400v-60h-113.383v60c0 11.046 8.954 20 20 20h113.383c-11.046 0-20-8.954-20-20z" fill="#d3dcfb"/></g><g><path d="m293.5 387.5h-75c-4.142 0-7.5-3.358-7.5-7.5 0-4.142 3.358-7.5 7.5-7.5h75c4.142 0 7.5 3.358 7.5 7.5 0 4.142-3.358 7.5-7.5 7.5z" fill="#d3dcfb"/></g><g><path d="m175.823 226.683h-86.591c-4.142 0-7.5-3.358-7.5-7.5 0-4.142 3.358-7.5 7.5-7.5h86.591c4.142 0 7.5 3.358 7.5 7.5 0 4.142-3.358 7.5-7.5 7.5z" fill="#73f9a9"/></g><g><path d="m202.038 317.489h-107.025c-4.142 0-7.5-3.358-7.5-7.5 0-4.142 3.358-7.5 7.5-7.5h107.025c4.142 0 7.5 3.358 7.5 7.5 0 4.142-3.358 7.5-7.5 7.5z" fill="#73f9a9"/></g><g><path d="m432.165 264.591h-83.988c-4.142 0-7.5-3.358-7.5-7.5 0-4.142 3.358-7.5 7.5-7.5h83.988c4.142 0 7.5 3.358 7.5 7.5 0 4.143-3.358 7.5-7.5 7.5z" fill="#73f9a9"/></g><g><path d="m482 211.683h-78.198c-4.142 0-7.5-3.358-7.5-7.5 0-4.142 3.358-7.5 7.5-7.5h78.198z" fill="#73f9a9"/></g><g><path d="m30 141.258h80c4.142 0 7.5 3.358 7.5 7.5 0 4.142-3.358 7.5-7.5 7.5h-80z" fill="#73f9a9"/></g><g><path d="m30 249.591h47.982c4.142 0 7.5 3.358 7.5 7.5 0 4.142-3.358 7.5-7.5 7.5h-47.982z" fill="#73f9a9"/></g><g><path d="m451.506 311.365h-73.199c-4.142 0-7.5-3.358-7.5-7.5 0-4.142 3.358-7.5 7.5-7.5h73.199c4.142 0 7.5 3.358 7.5 7.5 0 4.143-3.358 7.5-7.5 7.5z" fill="#73f9a9"/></g><g><path d="m158.209 126.258h-35.288c-4.142 0-7.5-3.358-7.5-7.5 0-4.142 3.358-7.5 7.5-7.5h35.288c4.142 0 7.5 3.358 7.5 7.5 0 4.143-3.357 7.5-7.5 7.5z" fill="#73f9a9"/></g><g><path d="m455.612 142h-35.288c-4.142 0-7.5-3.358-7.5-7.5 0-4.142 3.358-7.5 7.5-7.5h35.288c4.142 0 7.5 3.358 7.5 7.5 0 4.142-3.358 7.5-7.5 7.5z" fill="#73f9a9"/></g><g><path d="m378.546 65.138c.094-5.91-4.538-10.832-10.444-11.059-62.148-2.392-98.907-25.236-112.102-25.236s-49.954 22.843-112.101 25.236c-5.906.227-10.539 5.15-10.444 11.059.469 29.4 3.31 110.646 20.26 144.981 20.885 42.307 85.148 84.881 102.285 84.881s81.4-42.574 102.286-84.881c16.949-34.334 19.791-115.581 20.26-144.981z" fill="#fff"/></g><g><path d="m329.123 68.459-42.259 35.662c-3.461 2.921-4.527 7.804-2.598 11.902l19.164 40.706c1.892 4.018.907 8.802-2.418 11.746l-24.735 21.901c-2.506 2.219-3.736 5.545-3.276 8.861l3.027 21.813c.309 2.224-2.718 3.19-3.755 1.198l-13.973-26.847c-1.864-3.582-1.391-7.935 1.2-11.033l18.043-21.57c3.056-3.654 3.111-8.955.131-12.672l-28.633-35.711c-2.866-3.574-2.936-8.638-.172-12.291l32.501-42.938c2.045-2.702.867-6.619-2.333-7.736-2.667-.931-5.153-1.821-7.454-2.645-5.879-2.104-13.17-4.714-15.584-4.955-2.414.24-9.705 2.85-15.584 4.955-18.798 6.729-49.868 17.853-91.891 20.077.592 28.334 3.589 104.109 18.64 134.597 7.95 16.105 25.051 35.07 46.916 52.033 20.858 16.182 37.332 23.806 41.919 24.466 4.587-.66 21.061-8.285 41.919-24.466 21.865-16.962 38.966-35.928 46.916-52.033 15.051-30.487 18.048-106.263 18.64-134.596-9.367-.496-18.184-1.437-26.447-2.671-2.837-.423-5.712.397-7.904 2.247z" fill="#ffdd40"/></g><g><g><path d="m203.714 210.119c-16.95-34.335-19.791-115.581-20.26-144.981-.002-.11.01-.217.011-.326-10.632 1.921-22.286 3.401-34.94 4.071.592 28.334 3.589 104.109 18.64 134.597 7.95 16.105 25.051 35.07 46.916 52.033 20.858 16.182 37.332 23.806 41.919 24.466 1.805-.26 5.459-1.604 10.49-4.119-23.718-16.358-50.608-41.093-62.776-65.741z" fill="#ffb332"/></g></g></g></svg>