<svg id="Capa_1" enable-background="new 0 0 512 512" height="512" viewBox="0 0 512 512" width="512" xmlns="http://www.w3.org/2000/svg"><g><g><circle cx="256" cy="256" fill="#4fabf7" r="256"/></g><g><path d="m472.923 422h-433.846v-320c0-11.046 8.954-20 20-20h393.846c11.046 0 20 8.954 20 20z" fill="#fff"/></g><g><path d="m147.979 82h-88.902c-11.046 0-20 8.954-20 20v320h108.902v-30c-8.284 0-15-6.716-15-15s6.716-15 15-15v-250c-8.284 0-15-6.716-15-15s6.716-15 15-15z" fill="#e9efff"/></g><g><path d="m69.077 322v-210h373.847v210l-186.924 20z" fill="#49d88b"/></g><g><path d="m173.404 186.258h-60.904c-4.142 0-7.5-3.358-7.5-7.5 0-4.142 3.358-7.5 7.5-7.5h60.904c4.142 0 7.5 3.358 7.5 7.5 0 4.143-3.358 7.5-7.5 7.5z" fill="#73f9a9"/></g><g><path d="m177.056 299.849h-60.904c-4.142 0-7.5-3.358-7.5-7.5 0-4.142 3.358-7.5 7.5-7.5h60.904c4.142 0 7.5 3.358 7.5 7.5 0 4.142-3.357 7.5-7.5 7.5z" fill="#73f9a9"/></g><g><path d="m405.424 254.78h-95.988c-4.142 0-7.5-3.358-7.5-7.5 0-4.142 3.358-7.5 7.5-7.5h95.988c4.142 0 7.5 3.358 7.5 7.5 0 4.142-3.358 7.5-7.5 7.5z" fill="#73f9a9"/></g><g><path d="m69.077 322h373.847v40h-373.847z" fill="#1c2e7a"/></g><g><path d="m69.077 322h119.029v40h-119.029z" fill="#112360"/></g><g><g><g><path d="m206.003 80.279c-2.076 0-4.141-.856-5.623-2.534l-7.596-8.596c-2.743-3.104-2.45-7.844.654-10.586s7.844-2.45 10.586.654l7.596 8.596c2.743 3.104 2.45 7.844-.654 10.586-1.426 1.261-3.198 1.88-4.963 1.88z" fill="#112360"/></g></g><g><g><path d="m206 108.833c-4.142 0-7.5-3.358-7.5-7.5v-28.554c0-4.142 3.358-7.5 7.5-7.5s7.5 3.358 7.5 7.5v28.553c0 4.143-3.358 7.501-7.5 7.501z" fill="#1c2e7a"/></g></g><g><g><path d="m255.993 137.281c-1.257 0-2.531-.316-3.702-.982l-50-28.447c-3.6-2.048-4.858-6.627-2.81-10.228 2.049-3.601 6.627-4.858 10.228-2.81l50 28.447c3.6 2.048 4.858 6.627 2.81 10.228-1.382 2.429-3.917 3.792-6.526 3.792z" fill="#2a428c"/></g></g><g><g><path d="m156.624 216.255c-2.682 0-5.276-1.442-6.625-3.975-1.948-3.656-.563-8.198 3.093-10.146l10.34-5.508c3.656-1.946 8.198-.562 10.146 3.093 1.947 3.656.563 8.198-3.093 10.146l-10.34 5.508c-1.124.598-2.332.882-3.521.882z" fill="#112360"/></g></g><g><g><path d="m166.957 210.747c-.864 0-1.742-.15-2.6-.467-3.885-1.437-5.87-5.75-4.434-9.636l21.447-58.008c1.436-3.885 5.749-5.87 9.636-4.434 3.885 1.437 5.87 5.75 4.434 9.636l-21.447 58.008c-1.12 3.028-3.987 4.901-7.036 4.901z" fill="#1c2e7a"/></g></g><g><g><path d="m256 152.737h-67.595c-4.142 0-7.5-3.358-7.5-7.5s3.358-7.5 7.5-7.5h67.595c4.142 0 7.5 3.358 7.5 7.5s-3.358 7.5-7.5 7.5z" fill="#2a428c"/></g></g><g><g><path d="m212.058 292.349c-1.919 0-3.839-.732-5.303-2.197-2.929-2.929-2.929-7.678 0-10.606l10-10c2.929-2.929 7.678-2.929 10.606 0 2.929 2.929 2.929 7.678 0 10.606l-10 10c-1.464 1.465-3.383 2.197-5.303 2.197z" fill="#112360"/></g></g><g><g><path d="m222.063 282.351c-2.79 0-5.469-1.563-6.761-4.245l-30-62.234c-1.799-3.731-.232-8.214 3.499-10.013 3.733-1.798 8.214-.232 10.013 3.499l30 62.234c1.799 3.731.232 8.214-3.499 10.013-1.05.506-2.159.746-3.252.746z" fill="#1c2e7a"/></g></g><g><g><path d="m192.059 220.115c-1.958 0-3.914-.762-5.385-2.279-2.883-2.974-2.81-7.722.164-10.605l60-58.17c2.975-2.883 7.722-2.81 10.605.164s2.81 7.722-.164 10.605l-60 58.17c-1.457 1.412-3.34 2.115-5.22 2.115z" fill="#2a428c"/></g></g><g><g><path d="m233.645 68.237c-4.142 0-7.5-3.358-7.5-7.5v-16.553c0-4.142 3.358-7.5 7.5-7.5s7.5 3.358 7.5 7.5v16.553c0 4.142-3.358 7.5-7.5 7.5z" fill="#112360"/></g></g><g><g><path d="m255.995 86.365c-1.66 0-3.33-.548-4.72-1.675l-22.354-18.128c-3.217-2.609-3.71-7.332-1.101-10.549 2.608-3.217 7.332-3.71 10.549-1.101l22.354 18.128c3.217 2.609 3.71 7.332 1.101 10.549-1.481 1.828-3.646 2.776-5.829 2.776z" fill="#2a428c"/></g></g><g><g><path d="m305.997 80.279c-1.765 0-3.537-.619-4.963-1.88-3.104-2.743-3.396-7.482-.654-10.586l7.596-8.596c2.743-3.104 7.481-3.397 10.586-.654 3.104 2.743 3.396 7.482.654 10.586l-7.596 8.596c-1.482 1.678-3.548 2.534-5.623 2.534z" fill="#112360"/></g></g><g><g><path d="m306 108.833c-4.142 0-7.5-3.358-7.5-7.5v-28.554c0-4.142 3.358-7.5 7.5-7.5s7.5 3.358 7.5 7.5v28.553c0 4.143-3.358 7.501-7.5 7.501z" fill="#1c2e7a"/></g></g><g><g><path d="m256.007 137.281c-2.609 0-5.144-1.363-6.526-3.792-2.048-3.601-.79-8.18 2.81-10.228l50-28.447c3.6-2.048 8.18-.791 10.228 2.81s.79 8.18-2.81 10.228l-50 28.447c-1.171.665-2.445.982-3.702.982z" fill="#2a428c"/></g></g><g><g><path d="m355.376 216.255c-1.19 0-2.396-.284-3.52-.882l-10.34-5.508c-3.656-1.948-5.041-6.49-3.093-10.146 1.948-3.655 6.491-5.039 10.146-3.093l10.34 5.508c3.656 1.948 5.041 6.49 3.093 10.146-1.349 2.532-3.943 3.975-6.626 3.975z" fill="#112360"/></g></g><g><g><path d="m345.043 210.747c-3.05 0-5.916-1.874-7.036-4.901l-21.447-58.008c-1.437-3.885.549-8.199 4.434-9.636 3.887-1.435 8.199.549 9.636 4.434l21.447 58.008c1.437 3.885-.549 8.199-4.434 9.636-.857.317-1.736.467-2.6.467z" fill="#1c2e7a"/></g></g><g><g><path d="m323.596 152.737h-67.596c-4.142 0-7.5-3.358-7.5-7.5s3.358-7.5 7.5-7.5h67.595c4.142 0 7.5 3.358 7.5 7.5s-3.357 7.5-7.499 7.5z" fill="#2a428c"/></g></g><g><g><path d="m299.942 292.349c-1.919 0-3.839-.732-5.303-2.197l-10-10c-2.929-2.929-2.929-7.678 0-10.606 2.929-2.929 7.678-2.929 10.606 0l10 10c2.929 2.929 2.929 7.678 0 10.606-1.464 1.465-3.384 2.197-5.303 2.197z" fill="#112360"/></g></g><g><g><path d="m289.937 282.351c-1.092 0-2.202-.24-3.251-.746-3.731-1.798-5.298-6.281-3.499-10.013l30-62.234c1.799-3.731 6.282-5.299 10.013-3.499 3.731 1.798 5.298 6.281 3.499 10.013l-30 62.234c-1.294 2.681-3.972 4.245-6.762 4.245z" fill="#1c2e7a"/></g></g><g><g><path d="m319.941 220.115c-1.881 0-3.763-.703-5.22-2.115l-60-58.17c-2.974-2.883-3.047-7.631-.164-10.605 2.883-2.975 7.631-3.047 10.605-.164l60 58.17c2.974 2.883 3.047 7.631.164 10.605-1.47 1.517-3.427 2.279-5.385 2.279z" fill="#2a428c"/></g></g><g><g><path d="m278.355 68.237c-4.142 0-7.5-3.358-7.5-7.5v-16.553c0-4.142 3.358-7.5 7.5-7.5s7.5 3.358 7.5 7.5v16.553c0 4.142-3.358 7.5-7.5 7.5z" fill="#1c2e7a"/></g></g><g><g><path d="m256.005 86.365c-2.183 0-4.347-.949-5.83-2.776-2.609-3.217-2.116-7.94 1.101-10.549l22.354-18.128c3.218-2.609 7.94-2.116 10.549 1.101s2.116 7.94-1.101 10.549l-22.353 18.128c-1.39 1.127-3.06 1.675-4.72 1.675z" fill="#2a428c"/></g></g><g><path d="m256.001 62.78c-5.877 0-11 4-12.425 9.701l-7.575 30.299h40l-7.575-30.299c-1.425-5.702-6.548-9.701-12.425-9.701z" fill="#1c2e7a"/></g><g><path d="m256.955 96.479h-1.909c-21.564 0-39.045 17.481-39.045 39.045h80c-.001-21.564-17.482-39.045-39.046-39.045z" fill="#3c58a0"/></g><g><path d="m275.595 101.208c-5.54-3.016-11.89-4.73-18.641-4.73h-1.909c-21.564 0-39.045 17.481-39.045 39.046h39.191c0-14.813 8.249-27.699 20.404-34.316z" fill="#2a428c"/></g><g><path d="m256 239.78c-27.614 0-50-22.386-50-50v-50c0-5.523 4.477-10 10-10h80c5.523 0 10 4.477 10 10v50c0 27.614-22.386 50-50 50z" fill="#4b6bb2"/></g><g><path d="m233.645 189.78v-50c0-5.523 4.477-10 10-10h-27.645c-5.523 0-10 4.477-10 10v50c0 27.614 22.386 50 50 50 4.797 0 9.431-.69 13.823-1.951-20.888-5.999-36.178-25.232-36.178-48.049z" fill="#3c58a0"/></g><g><circle cx="241.145" cy="81.979" fill="#4b6bb2" r="7.5"/></g><g><circle cx="270.856" cy="81.979" fill="#4b6bb2" r="7.5"/></g><g><circle cx="256" cy="182.28" fill="#3c58a0" r="7.5"/></g><g><path d="m278.501 159.78h-45c-4.142 0-7.5-3.358-7.5-7.5 0-4.142 3.358-7.5 7.5-7.5h45c4.142 0 7.5 3.358 7.5 7.5 0 4.142-3.358 7.5-7.5 7.5z" fill="#3c58a0"/></g></g><g><path d="m442.924 172h-52.5c-4.142 0-7.5-3.358-7.5-7.5 0-4.142 3.358-7.5 7.5-7.5h52.5z" fill="#73f9a9"/></g><g><path d="m69.077 141.258h22.5c4.142 0 7.5 3.358 7.5 7.5 0 4.142-3.358 7.5-7.5 7.5h-22.5z" fill="#73f9a9"/></g><g><path d="m442.924 142h-22.5c-4.142 0-7.5-3.358-7.5-7.5 0-4.142 3.358-7.5 7.5-7.5h22.5z" fill="#73f9a9"/></g><g><path d="m131.904 239.78h-35.288c-4.142 0-7.5-3.358-7.5-7.5 0-4.142 3.358-7.5 7.5-7.5h35.288c4.142 0 7.5 3.358 7.5 7.5 0 4.142-3.358 7.5-7.5 7.5z" fill="#73f9a9"/></g><g><path d="m383.306 299.849h-35.288c-4.142 0-7.5-3.358-7.5-7.5 0-4.142 3.358-7.5 7.5-7.5h35.288c4.142 0 7.5 3.358 7.5 7.5 0 4.142-3.358 7.5-7.5 7.5z" fill="#73f9a9"/></g><g><path d="m502 452h-492c-5.523 0-10-4.477-10-10v-40c0-5.523 4.477-10 10-10h492c5.523 0 10 4.477 10 10v40c0 5.523-4.477 10-10 10z" fill="#e9efff"/></g><g><path d="m241 437c0-8.284 6.716-15 15-15v-30h-246c-5.523 0-10 4.477-10 10v40c0 5.523 4.477 10 10 10h246c-8.284 0-15-6.716-15-15z" fill="#d3dcfb"/></g><g><path d="m336 392h-160l14.063 21.094c3.709 5.564 9.954 8.906 16.641 8.906h98.593c6.687 0 12.932-3.342 16.641-8.906z" fill="#bec8f7"/></g><g><circle cx="420.423" cy="422" fill="#bec8f7" r="7.5"/></g><g><circle cx="465.423" cy="422" fill="#bec8f7" r="7.5"/></g><g><path d="m121.577 429.5h-75c-4.142 0-7.5-3.358-7.5-7.5 0-4.142 3.358-7.5 7.5-7.5h75c4.142 0 7.5 3.358 7.5 7.5 0 4.142-3.358 7.5-7.5 7.5z" fill="#bec8f7"/></g></g></svg>