<svg id="Capa_1" enable-background="new 0 0 512 512" height="512" viewBox="0 0 512 512" width="512" xmlns="http://www.w3.org/2000/svg"><g><path d="m83.128 80c-4.899 0-7.256-5.972-3.709-9.352 45.934-43.774 108.119-70.648 176.581-70.648 68.256 0 130.273 26.713 176.167 70.254 3.703 3.513 1.237 9.746-3.867 9.746z" fill="#1380e2"/><path d="m485.538 369.478c-9.047 18.265-20.209 35.294-33.167 50.77-5.15 6.151-12.724 9.752-20.746 9.752h-351.072c-8.135 0-15.82-3.648-21.038-9.889-12.844-15.361-23.921-32.251-32.916-50.358-9.085-18.285 4.098-39.753 24.515-39.753h410.079c20.276 0 33.345 21.309 24.345 39.478z" fill="#6dc54a"/><path d="m512 256c0 33.187-6.315 64.899-17.809 94h-476.382c-11.494-29.101-17.809-60.813-17.809-94 0-41.796 10.016-81.253 27.78-116.101 3.107-6.096 9.41-9.899 16.252-9.899h424.192c6.685 0 12.838 3.719 15.88 9.672 17.836 34.903 27.896 74.441 27.896 116.328z" fill="#76b6fa"/><path d="m497.9 340c-3.582 10.316-7.805 20.332-12.621 30h-458.558c-4.816-9.668-9.04-19.684-12.621-30z" fill="#3493f8"/><path d="m362 140v190c0 5.523-4.477 10-10 10h-192c-5.523 0-10-4.477-10-10v-190c0-5.523 4.477-10 10-10h192c5.523 0 10 4.477 10 10zm130.239 50v100c0 5.523 4.477 10 10 10h5.994c2.476-14.295 3.767-28.997 3.767-44 0-26.412-4-51.89-11.427-75.861-4.73.794-8.334 4.906-8.334 9.861zm-46.652 100v-100c0-5.523-4.477-10-10-10h-10.348c-5.523 0-10 4.477-10 10v100c0 5.523 4.477 10 10 10h10.348c5.523 0 10-4.477 10-10zm-353-110h-10.348c-5.523 0-10 4.477-10 10v100c0 5.523 4.477 10 10 10h10.348c5.523 0 10-4.477 10-10v-100c0-5.523-4.477-10-10-10zm-77 120c5.523 0 10-4.477 10-10v-100c0-5.523-4.477-10-10-10h-4.117c-7.455 24.012-11.47 49.537-11.47 76 0 14.964 1.284 29.629 3.748 43.889.486.073.984.111 1.491.111z" fill="#355f7e"/><g fill="#a7d0fc"><path d="m509.762 290c-.896 6.753-2.055 13.424-3.468 20h-18.881c-5.523 0-10-4.477-10-10s4.477-10 10-10zm-59.349 0h-40c-5.523 0-10 4.477-10 10s4.477 10 10 10h40c5.523 0 10-4.477 10-10s-4.477-10-10-10zm-343 0h-40c-5.523 0-10 4.477-10 10s4.477 10 10 10h40c5.523 0 10-4.477 10-10s-4.477-10-10-10zm-77 0h-28.175c.896 6.753 2.055 13.424 3.468 20h24.707c5.523 0 10-4.477 10-10s-4.477-10-10-10z"/><path d="m484.271 140h-456.542c13.379-26.275 31.16-49.932 52.373-70h351.796c21.213 20.068 38.995 43.725 52.373 70z"/><path d="m266.348 332.952h-20.696c-5.523 0-10-4.477-10-10v-151.428c0-5.523 4.477-10 10-10h20.696c5.523 0 10 4.477 10 10v151.429c0 5.522-4.477 9.999-10 9.999zm-89-10v-151.428c0-5.523-4.477-10-10-10h-20.696c-5.523 0-10 4.477-10 10v151.429c0 5.523 4.477 10 10 10h20.696c5.523-.001 10-4.478 10-10.001zm198 0v-151.428c0-5.523-4.477-10-10-10h-20.696c-5.523 0-10 4.477-10 10v151.429c0 5.523 4.477 10 10 10h20.696c5.523-.001 10-4.478 10-10.001z"/></g><path d="m177.348 171.524v110.072c0 5.523-4.477 10-10 10h-.348c-5.523 0-10-4.477-10-10v-110.072c0-5.523 4.477-10 10-10h.348c5.523 0 10 4.477 10 10zm89-10h-.348c-5.523 0-10 4.477-10 10v110.072c0 5.523 4.477 10 10 10h.348c5.523 0 10-4.477 10-10v-110.072c0-5.523-4.477-10-10-10zm99 0h-.348c-5.523 0-10 4.477-10 10v110.072c0 5.523 4.477 10 10 10h.348c5.523 0 10-4.477 10-10v-110.072c0-5.523-4.477-10-10-10z" fill="#c8e2fd"/><path d="m183 352h-52c-5.523 0-10-4.477-10-10v-18.095c0-5.523 4.477-10 10-10h52c5.523 0 10 4.477 10 10v18.095c0 5.523-4.477 10-10 10zm109-10v-18.095c0-5.523-4.477-10-10-10h-52c-5.523 0-10 4.477-10 10v18.095c0 5.523 4.477 10 10 10h52c5.523 0 10-4.477 10-10zm99 0v-18.095c0-5.523-4.477-10-10-10h-52c-5.523 0-10 4.477-10 10v18.095c0 5.523 4.477 10 10 10h52c5.523 0 10-4.477 10-10zm-109-161.429h-52c-5.523 0-10-4.477-10-10v-8.571c0-5.523 4.477-10 10-10h52c5.523 0 10 4.477 10 10v8.571c0 5.523-4.477 10-10 10zm-89-10v-8.571c0-5.523-4.477-10-10-10h-52c-5.523 0-10 4.477-10 10v8.571c0 5.523 4.477 10 10 10h52c5.523 0 10-4.477 10-10zm198 0v-8.571c0-5.523-4.477-10-10-10h-52c-5.523 0-10 4.477-10 10v8.571c0 5.523 4.477 10 10 10h52c5.523 0 10-4.477 10-10z" fill="#e9f3fe"/><path d="m432 127.5v30h-352v-30l176-120z" fill="#e9f3fe"/><path d="m297.45 35.761 134.55 91.739v23.813l-35.583 6.187h-261.79c44.543-50.779 99.703-92.617 162.823-121.739z" fill="#fff5f5"/><path d="m436.225 121.304-176-120c-2.547-1.738-5.902-1.738-8.449 0l-176 120c-2.05 1.396-3.275 3.716-3.275 6.196v30c0 4.143 3.357 7.5 7.5 7.5h352c4.143 0 7.5-3.357 7.5-7.5v-30c-.001-2.48-1.227-4.8-3.276-6.196zm-11.725 28.696h-337v-18.536l168.5-114.887 168.5 114.887z" fill="#c8e2fd"/><path d="m411 340v20c0 5.523-4.477 10-10 10h-290c-5.523 0-10-4.477-10-10v-20c0-5.523 4.477-10 10-10h290c5.523 0 10 4.477 10 10z" fill="#a7d0fc"/><path d="m432 370v20c0 5.523-4.477 10-10 10h-332c-5.523 0-10-4.477-10-10v-20c0-5.523 4.477-10 10-10h332c5.523 0 10 4.477 10 10z" fill="#c8e2fd"/><path d="m452 400v20c0 .243-9.331 10-10 10h-372c-.669 0-10-9.757-10-10v-20c0-5.523 4.477-10 10-10h372c5.523 0 10 4.477 10 10z" fill="#a7d0fc"/><path d="m452.579 420c-46.96 56.228-117.592 92-196.579 92s-149.619-35.772-196.579-92z" fill="#c8e2fd"/><path d="m383.5 450c0 5.523-4.477 10-10 10h-230c-5.523 0-10-4.477-10-10s4.477-10 10-10h230c5.523 0 10 4.477 10 10zm-85.5 30h-78c-5.523 0-10 4.477-10 10s4.477 10 10 10h78c5.523 0 10-4.477 10-10s-4.477-10-10-10z" fill="#a7d0fc"/><path d="m296.511 91.37c0 22.373-18.137 40.511-40.511 40.511s-40.511-18.137-40.511-40.511 18.138-40.511 40.511-40.511 40.511 18.137 40.511 40.511z" fill="#fff36c"/><path d="m282.493 91.37c0 14.632-11.862 26.493-26.493 26.493-14.632 0-26.493-11.862-26.493-26.493s11.861-26.494 26.493-26.494 26.493 11.862 26.493 26.494z" fill="#ffc14f"/><path d="m264.809 116.364c-2.756.971-5.72 1.5-8.809 1.5-14.632 0-26.493-11.861-26.493-26.494 0-14.632 11.862-26.493 26.493-26.493 3.088 0 6.053.528 8.809 1.5-10.302 3.63-17.685 13.45-17.685 24.994 0 11.543 7.383 21.362 17.685 24.993z" fill="#ffb52d"/></g></svg>