<svg id="Layer_1" enable-background="new 0 0 512 512" height="512" viewBox="0 0 512 512" width="512" xmlns="http://www.w3.org/2000/svg"><g><path d="m456.89 407.254c27.793-39.734 44.112-88.086 44.112-140.256 0-135.311-109.691-245.002-245.002-245.002s-245.002 109.691-245.002 245.002c0 39.673 9.441 77.136 26.181 110.285z" fill="#816ae2"/><path d="m348.656 69.274c-4.745-13.229-18.917-44.154-49.826-52.403-1.646-.439-2.082-2.57-.742-3.623l4.632-3.64c2.1-1.65 1.293-5.002-1.33-5.508-11.217-2.163-35.239-5.803-59.555-3.193-6.318 8.594-10.292 20.8 4.125 32.013 25.815 20.078-10.434 40.181-10.434 40.181l-27.322 76.101h124.103c.308-12.512 2.395-45.628 15.471-69.218 1.82-3.281 2.145-7.179.878-10.71z" fill="#56415e"/><path d="m238.077 73.101s36.25-20.103 10.434-40.181c-14.568-11.331-10.359-23.676-3.926-32.283-25.996 2.302-52.87 11.438-65.261 36.917-1.404 2.887-4.051 4.966-7.159 5.77-6.845 1.772-19.158 7.112-27.183 23.114-1.57 3.129-1.837 6.759-.712 10.074 3.9 11.494 13.402 42.357 14.393 72.69h52.092z" fill="#47354f"/><g><path d="m339.049 144.141c-3.888-3.563-12.579-1.757-15.927.425.734 4.568.775 9.241.142 13.855l-3.951 28.777c0 2.32-.073 4.596-.208 6.832 9.635 2.906 15.368-5.743 16.174-11.679.347-2.555.915-5.074 1.702-7.531 2.563-8.005 11.808-21.753 2.068-30.679z" fill="#ffaa7b"/></g><g><path d="m150.962 144.141c3.887-3.563 12.579-1.757 15.927.425-.734 4.568-.775 9.241-.142 13.855l3.951 28.777c0 2.32.073 4.596.208 6.832-9.635 2.906-15.368-5.743-16.174-11.679-.347-2.555-.914-5.074-1.701-7.531-2.564-8.005-11.809-21.753-2.069-30.679z" fill="#fc9460"/></g><path d="m307.2 295.247c-9.619-9.619-12.057-27.855-12.496-40.614-5.02 5.847-10.288 10.738-15.322 14.647-9.808 7.617-21.911 11.753-34.376 11.753-1.446 0-2.886-.061-4.32-.172-.081 11.647-2.631 30.419-16.326 44.115-.186.186-.374.343-.561.523l2.067 1.051s13.393 5.876 19.14 14.304c5.747-8.429 19.14-14.304 19.14-14.304l55.223-28.087c-3.994-1.182-8.041-2.263-12.169-3.216z" fill="#ffaa7b"/><path d="m171.882 299.093 53.566 27.245c.488-.439.976-.876 1.462-1.361 13.643-13.642 16.225-32.323 16.325-43.979-11.837-.372-23.262-4.462-32.605-11.717-5.034-3.909-10.303-8.8-15.323-14.647-.439 12.759-2.877 30.995-12.497 40.614-3.826.883-7.577 1.887-11.285 2.968z" fill="#fc9460"/><path d="m456.654 401.216c0-31.444-19.643-62.512-52.155-72.111l-51.721-24.617c-6.821-3.159-19.398-9.44-29.618-12.76l-.283 8.284c-2.521-.815-5.059-1.597-7.629-2.321l-53.644 27.285s-20.529 9.001-20.529 20.529v166.03c4.938.296 9.911.465 14.925.465 41.74 0 81.036-10.443 115.429-28.852l-.003-.003 36.653-24.068c18.668-14.803 35.132-32.267 48.811-51.823z" fill="#d3dcfb"/><path d="m321.691 135.675c-.889-2.32-2.01-4.67-3.423-6.886-2.392-3.754-3.445-8.194-3.124-12.621.922-12.733.428-37.635-16.287-45.156-14.2-6.39-31.619-2.69-42.728 1.004-6.701 2.228-13.918 2.359-20.694.448-11.539 10.233-11.805 31.197-10.972 42.545.33 4.487-.775 8.976-3.2 12.781-1.398 2.193-2.516 4.514-3.411 6.812-2.901 7.453-3.747 15.535-2.66 23.45l4.037 29.402c0 42.27 22.564 71 41.757 85.905 2.263 1.758 4.652 3.323 7.134 4.707 3.985-1.8 7.77-4.06 11.26-6.771 18.79-14.591 40.879-42.717 40.879-84.097l3.951-28.777c1.055-7.671.256-15.507-2.519-22.746z" fill="#ffc7ab"/><g><path d="m261.183 271.295c-18.789-14.591-40.879-42.717-40.879-84.097l-3.952-28.783c-1.064-7.748-.236-15.661 2.605-22.956.876-2.249 1.97-4.521 3.338-6.668 2.375-3.725 3.456-8.119 3.133-12.512-.86-11.706-.534-33.872 12.649-43.177-1.413-.283-2.818-.626-4.195-1.084-11.109-3.694-28.527-7.394-42.728-1.004-16.762 7.542-17.212 32.566-16.279 45.265.323 4.393-.759 8.787-3.133 12.512-1.368 2.147-2.463 4.419-3.339 6.668-2.84 7.296-3.668 15.209-2.604 22.956l3.952 28.783c0 41.38 22.089 69.506 40.879 84.097 9.807 7.616 21.911 11.753 34.376 11.753 8.839 0 17.491-2.089 25.277-6.015-3.195-1.611-6.247-3.522-9.1-5.738z" fill="#ffaa7b"/></g><path d="m228.409 324.976-40.403-20.55-6.037 21.911-.642-2.043c-.727.227-17.99 5.719-35.539 17.477-23.51 15.755-35.937 35.247-35.937 56.373v65.505c39.041 29.062 87.031 46.77 139.086 48.244 0-64.353 0-161 0-166.387 0-11.529-20.528-20.53-20.528-20.53z" fill="#bec8f7"/><path d="m187.154 303.994-12.391-6.302c-2.527.712-5.023 1.48-7.503 2.28l-.409-8.244c-9.978 3.24-23.42 9.888-29.618 12.76l-51.722 24.617c-24.184 7.142-41.161 26.077-48.333 48.178 17.644 34.939 43.409 65.07 74.815 87.927 0-23.189 0-49.925 0-67.067 0-49.837 69.975-71.806 69.975-71.806l6.037-21.911z" fill="#a9bbfc"/><g><path d="m300.159 273.317c-1.09-.602-2.446.028-2.695 1.248-1.621 7.94-8.655 32.952-34.776 47.797-2.572 1.462-3.189 4.894-1.243 7.123l26.395 30.231c5.48 6.312 15.57 5.177 19.526-2.188 6.688-12.45 16.004-31.399 22.9-51.773 1.235-3.647.357-7.681-2.245-10.519-8.029-8.757-17.436-16.164-27.862-21.919z" fill="#deeeff"/></g><g><path d="m189.852 273.317c1.09-.602 2.446.028 2.695 1.248 1.621 7.94 8.655 32.952 34.776 47.797 2.572 1.462 3.188 4.894 1.243 7.123l-26.395 30.231c-5.48 6.312-15.57 5.177-19.526-2.188-6.688-12.45-16.004-31.399-22.9-51.773-1.234-3.647-.357-7.681 2.246-10.519 8.028-8.757 17.435-16.164 27.861-21.919z" fill="#deeeff"/></g><path d="m371.426 412.571v70.574c12.977-6.945 25.256-15.02 36.705-24.101-2.305-21.652-8.587-43.294-15.32-53.049-6.548-9.488-21.385-4.952-21.385 6.576z" fill="#bec8f7"/><path d="m359.826 169.497c.914 4.945 4.714 8.99 11.305 12.04-2.411 4.202-8.361 16.398-4.79 29.221 2.654 9.529 9.978 17.212 21.773 22.843l11.509 30.745c-.936 2.722-4.45 14.652 1.578 25.592 4.518 8.198 13.245 13.744 25.956 16.498-.877 3.234-2.18 10.506 1.716 16.135 2.953 4.266 8.198 6.598 15.595 6.958 25.907-17.654 42.921-47.393 42.921-81.109 0-54.17-43.913-98.083-98.083-98.083-8.089 0-15.947.986-23.467 2.833-2.594 2.986-7.278 9.489-6.013 16.327z" fill="#ff4155"/><path d="m446.527 328.084c-26.019-.002-17.447-22.787-17.447-22.787-40.807-7.869-27.859-40.96-27.859-40.96l-11.917-31.834c-38.583-17.996-15.997-51.653-15.997-51.653-24.248-9.983-4.841-28.288-4.841-28.288-44.159 9.555-77.245 48.839-77.245 95.857 0 54.17 43.913 98.083 98.083 98.083 21.357.002 41.117-6.828 57.223-18.418z" fill="#e80054"/><path d="m371.131 181.537c-2.411 4.202-8.361 16.398-4.79 29.221 2.654 9.529 9.978 17.212 21.773 22.843l11.509 30.745c-.936 2.722-4.45 14.652 1.578 25.592 4.518 8.198 13.245 13.744 25.956 16.498-.015.055-.031.12-.046.177 19.019-12.399 31.627-33.845 31.627-58.192 0-38.285-31.148-69.433-69.433-69.433-6.345 0-12.487.872-18.33 2.474.053.024.102.05.156.075z" fill="#deeeff"/><path d="m429.061 305.294c-40.784-7.876-27.84-40.956-27.84-40.956l-11.917-31.834c-38.069-17.756-16.591-50.755-16.011-51.632-30.589 7.251-53.422 34.775-53.422 67.549 0 38.285 31.148 69.433 69.433 69.433 14.781-.001 28.486-4.658 39.757-12.56z" fill="#bec8f7"/><g><path d="m420.077 264.337h-61.545c-8.79 0-15.917-7.126-15.917-15.917s7.126-15.917 15.917-15.917h61.545c8.791 0 15.917 7.126 15.917 15.917s-7.127 15.917-15.917 15.917z" fill="#e80054"/></g><path d="m10.998 266.998c0 23.329 3.287 45.885 9.381 67.258 27.423-68.66 116.648-41.894 115.508-108.756-.898-52.669-42.545-90.512-71.494-111.179-33.412 41.877-53.395 94.94-53.395 152.677z" fill="#9181f2"/></g></svg>