<svg id="Capa_1" enable-background="new 0 0 512 512" height="512" viewBox="0 0 512 512" width="512" xmlns="http://www.w3.org/2000/svg"><g><path d="m330.041 500.6 113.365-75.808c35.931-42.63 57.596-97.678 57.596-157.794 0-135.311-109.691-245.002-245.002-245.002s-245.002 109.691-245.002 245.002 109.691 245.002 245.002 245.002c25.809 0 50.68-4.002 74.041-11.4z" fill="#9957bc"/><path d="m379.504 0h-164.459c-2.531 4.083-4.889 9.657-4.1 15.528.806 6.003 4.728 11.103 11.661 15.173v70.429c-1.488 2.886-10.725 21.999-3.243 38.219 3.105 6.729 8.659 11.96 16.556 15.651h143.586c22.41 0 40.746-18.336 40.746-40.746v-73.508c-.001-22.41-18.337-40.746-40.747-40.746z" fill="#d2f09e"/><path d="m89.996 0c-22.41 0-40.746 18.336-40.746 40.746v73.508c0 22.41 18.336 40.746 40.746 40.746h149.752c-36.932-14.196-15.642-53.5-15.642-53.5v-71.669c-16.967-9.473-12.054-22.534-7.267-29.831z" fill="#94dc79"/><g><g><g><path d="m98.092 82.423c-2.115 0-4.145-.838-5.645-2.331-1.508-1.501-2.355-3.541-2.355-5.669v-36.592c0-4.418 3.582-8 8-8h23.046c14.477 0 26.256 11.778 26.256 26.256s-11.778 26.256-26.256 26.256c-4.992 0-23.01.08-23.01.08-.012 0-.025 0-.036 0zm8-36.592v20.559c5.497-.022 12.274-.047 15.046-.047 5.655 0 10.256-4.601 10.256-10.256s-4.601-10.256-10.256-10.256z" fill="#30b575"/></g><g><path d="m98.092 125.169c-2.115 0-4.145-.838-5.645-2.331-1.508-1.501-2.355-3.541-2.355-5.669v-42.805c0-4.418 3.582-8 8-8h27.071c16.187 0 29.355 13.169 29.355 29.355s-13.169 29.356-29.355 29.356c-5.842 0-27.036.094-27.036.094-.012 0-.024 0-.035 0zm8-42.805v26.771c6.664-.027 15.588-.06 19.071-.06 7.364 0 13.355-5.991 13.355-13.356 0-7.364-5.991-13.355-13.355-13.355z" fill="#30b575"/></g></g><g><g><path d="m272.274 84.643c-2.702 0-5.221-1.363-6.698-3.626l-25.342-38.812c-2.416-3.699-1.375-8.657 2.324-11.072 3.7-2.414 8.657-1.375 11.073 2.324l18.633 28.537 18.44-28.326c2.411-3.703 7.368-4.751 11.069-2.34 3.703 2.41 4.751 7.366 2.34 11.068l-25.134 38.61c-1.475 2.267-3.995 3.634-6.699 3.636-.002.001-.004.001-.006.001z" fill="#30b575"/></g><g><path d="m272.175 125.169c-.007 0-.013 0-.02 0-4.418-.011-7.991-3.602-7.98-8.02l.099-40.526c.011-4.411 3.591-7.98 7.999-7.98h.02c4.418.011 7.991 3.602 7.98 8.02l-.099 40.526c-.01 4.411-3.59 7.98-7.999 7.98z" fill="#30b575"/></g></g><g><g><path d="m196.098 125.169c-.021 0-.042 0-.062 0-6.916-.009-13.282-1.839-18.918-5.439-10.86-6.939-16.14-15.871-16.14-27.305v-54.594c0-4.418 3.582-8 8-8 4.419 0 8 3.582 8 8v54.594c0 5.844 2.536 9.849 8.754 13.821 3.071 1.962 6.449 2.918 10.327 2.923h.038c3.453 0 6.635-.721 9.46-2.144 9.457-4.763 10.55-10.646 10.55-14.658v-54.536c0-4.418 3.582-8 8-8 4.419 0 8 3.582 8 8v54.536c0 8.76-3.358 20.892-19.354 28.948-5.08 2.558-10.683 3.854-16.655 3.854z" fill="#30b575"/></g></g></g><path d="m306.826 374.246c24.31-8.61 56.009-27.148 70.976-66.682-2.167-13.421 1.041-33.44-15.364-61.854-4.48-7.762-36.137-62.592-47.781-82.76-5.575-9.657-18.038-12.996-27.695-7.421l-1.67.964c-9.657 5.576-12.997 18.038-7.421 27.695l-6.821-11.814c-5.418-9.384-17.008-13.68-26.972-9.42-11.877 5.079-16.361 19.318-10.095 30.173l-2.142-3.71c-5.418-9.384-17.008-13.68-26.971-9.42-11.877 5.078-16.362 19.317-10.095 30.172l-33.767-58.487c-5.418-9.384-17.009-13.68-26.972-9.42-11.876 5.079-16.362 19.318-10.095 30.173l56.361 97.62c.683 1.183.676 2.567.115 3.7l10.26 16.741c3.074 5.017 1.33 10.053-1.099 12.843-2.499 2.873-7.06 5.123-12.349 2.813-5.289-2.309-9.944-5.738-13.934-10.212-3.279 22.104 6.51 44.251 25.325 56.652 18.227 11.68-3.9.041 67.048 29.067 1.239.489 2.422 1.09 3.544 1.782 7.632-.264 26.468-1.705 47.614-9.195z" fill="#ffc7ab"/><path d="m127.409 145.909 8.574-4.95c4.924-2.843 11.279-1.14 14.121 3.783l9.298 16.104c2.843 4.924 1.14 11.279-3.784 14.122l-8.574 4.95c-4.924 2.843-11.278 1.14-14.122-3.784l-9.298-16.104c-2.842-4.924-1.139-11.278 3.785-14.121z" fill="#fce4d9"/><path d="m192.242 289.537-11.94-19.482c1.11 1.923.409 4.382-1.553 5.421-5.064 2.682-12.801 6.918-14.937 17.458-.365 1.8-.631 3.604-.821 5.405 4.274 4.473 8.916 7.493 13.503 9.495 11.299 4.933 22.191-7.785 15.748-18.297z" fill="#ffaa7b"/><path d="m443.407 424.792-62.899-108.897c-1.979-3.428-2.748-7.53-3.198-12.353-27.401 79.774-121.642 78.116-121.642 78.116 4.736 1.87 8.698 5.287 11.244 9.696l63.13 109.246c44.702-14.156 83.847-40.788 113.365-75.808z" fill="#ffaa7b"/><path d="m346.447 57.766-20.343 36.187c-2.684 4.775.766 10.673 6.244 10.673h40.686c5.477 0 8.928-5.898 6.244-10.673l-20.343-36.187c-2.739-4.871-9.75-4.871-12.488 0z" fill="#fff"/><g fill="#bb81e3"><path d="m477.727 162.675c-43.504 25.107-122.242 92.454-.309 209.312 15.121-31.82 23.584-67.414 23.584-104.989 0-37.313-8.355-72.67-23.275-104.323z"/><path d="m195.367 425.213c-25.632-11.003-66.922-40.353-74.255-116.283-7.681-79.523-65.932-106.735-98.767-115.811-7.365 23.314-11.347 48.131-11.347 73.879 0 127.781 97.828 232.695 222.67 243.978 4.142-12.962 4.046-25.503 1.92-36.644-4.213-22.069-19.575-40.256-40.221-49.119z"/></g></g></svg>