<svg id="Capa_1" enable-background="new 0 0 512 512" height="512" viewBox="0 0 512 512" width="512" xmlns="http://www.w3.org/2000/svg"><g><path d="m512 256c0 118.93-81.11 218.93-191.03 247.68-20.75 5.43-42.52-38.04-64.97-38.04-7.42 0-14.76-.32-22.02-.94-14.71-1.25-29.06 42.62-42.95 38.98-109.92-28.75-191.03-128.75-191.03-247.68 0-141.38 114.62-256 256-256s256 114.62 256 256z" fill="#ffd15b"/><path d="m320.97 256v247.68c-20.75 5.43-42.52 8.32-64.97 8.32-7.42 0-14.76-.32-22.02-.94-14.71-1.25-29.06-3.74-42.95-7.38v-247.68z" fill="#fe9738"/><path d="m233.98 256v255.06c-14.71-1.25-29.06-3.74-42.95-7.38v-247.68z" fill="#fe860a"/><g><g><path d="m67.013 24.808c-15.147 15.147-15.147 39.706 0 54.854l61.393 61.393 54.854-54.854-61.394-61.393c-15.147-15.147-39.705-15.147-54.853 0z" fill="#fe9738"/><path d="m86.421 60.254c-4.422-4.422-4.422-11.616 0-16.038 2.89-2.89 6.264-3.321 8.019-3.321s5.129.432 8.019 3.322l41.985 41.985-16.038 16.038z" fill="#fe860a"/></g><g><path d="m444.987 24.808c15.147 15.147 15.147 39.706 0 54.854l-61.393 61.393-54.854-54.853 61.393-61.393c15.148-15.148 39.706-15.148 54.854-.001z" fill="#fe9738"/><path d="m425.579 60.254c4.422-4.422 4.422-11.616 0-16.038-2.89-2.89-6.264-3.321-8.019-3.321s-5.129.432-8.019 3.322l-41.985 41.985 16.038 16.038z" fill="#fe860a"/></g></g><circle cx="256" cy="174.99" fill="#fe9738" r="162.635"/><path d="m304.225 330.35c-15.24 4.73-31.44 7.27-48.23 7.27-89.82 0-162.63-72.81-162.63-162.63s72.81-162.64 162.63-162.64c16.79 0 32.99 2.55 48.23 7.27-66.27 20.55-114.4 82.34-114.4 155.37s48.13 134.81 114.4 155.36z" fill="#fe860a"/><g><g><circle cx="138.271" cy="181.026" fill="#f9f7f8" r="40.67"/><path d="m148.476 220.403c-3.273.842-6.682 1.29-10.214 1.29-22.465 0-40.664-18.2-40.664-40.664s18.2-40.664 40.664-40.664c3.531 0 6.94.448 10.214 1.29-17.534 4.523-30.478 20.427-30.478 39.374s12.944 34.851 30.478 39.374z" fill="#dedbee"/><circle cx="138.268" cy="181.029" fill="#554e56" r="23.438"/></g><g><circle cx="373.731" cy="181.026" fill="#f9f7f8" r="40.67"/><path d="m383.943 220.403c-3.273.842-6.682 1.29-10.214 1.29-22.465 0-40.664-18.2-40.664-40.664s18.2-40.664 40.664-40.664c3.531 0 6.94.448 10.214 1.29-17.534 4.523-30.478 20.427-30.478 39.374s12.944 34.851 30.478 39.374z" fill="#dedbee"/><circle cx="373.735" cy="181.029" fill="#554e56" r="23.438"/></g></g><path d="m349.04 291.53v107.06c0 12.85-5.21 24.47-13.63 32.89-8.41 8.42-20.05 13.63-32.89 13.63-12.16 0-23.24-4.67-31.52-12.32-9.22-8.49-15-20.67-15-34.2 0 12.85-5.21 24.47-13.63 32.89-.45.45-.9.89-1.37 1.31-8.28 7.65-19.36 12.32-31.52 12.32-25.69 0-46.52-20.83-46.52-46.52v-107.06c0-51.39 41.65-93.05 93.04-93.05s93.04 41.66 93.04 93.05z" fill="#ffce9a"/><path d="m228.557 441.019c-5.828 2.626-12.278 4.087-19.069 4.087-25.69 0-46.531-20.825-46.531-46.515v-107.065c0-51.395 41.667-93.047 93.047-93.047 6.543 0 12.915.668 19.069 1.958-42.242 8.797-73.977 46.236-73.977 91.088v107.065c0 18.899 11.267 35.155 27.461 42.429z" fill="#f7ae75"/><path d="m322.66 285.96c0 31.6-22.11 58.12-51.66 64.94v81.89c-9.22-8.49-15-20.67-15-34.2 0 12.85-5.21 24.47-13.63 32.89-.45.45-.9.89-1.37 1.31v-81.89c-29.55-6.82-51.66-33.34-51.66-64.94 0-8.28 6.72-15 15-15s15 6.72 15 15c0 20.22 16.45 36.66 36.66 36.66s36.66-16.44 36.66-36.66c0-8.28 6.72-15 15-15s15 6.72 15 15z" fill="#f7ae75"/><path d="m407.91 177.989h-303.82c-13.927 0-25.217-11.29-25.217-25.217 0-13.927 11.29-25.217 25.217-25.217h303.82c13.927 0 25.217 11.29 25.217 25.217.001 13.927-11.289 25.217-25.217 25.217z" fill="#fe9738"/><path d="m186.93 177.99h-82.84c-13.93 0-25.22-11.29-25.22-25.22 0-6.97 2.82-13.27 7.39-17.83 4.56-4.57 10.86-7.39 17.83-7.39h82.84c-6.97 0-13.27 2.82-17.83 7.39-4.57 4.56-7.39 10.86-7.39 17.83 0 13.93 11.29 25.22 25.22 25.22z" fill="#fe860a"/></g></svg>