<svg id="Layer_1" enable-background="new 0 0 512 512" height="512" viewBox="0 0 512 512" width="512" xmlns="http://www.w3.org/2000/svg"><g><path d="m29.005 359.313 438.317-216.33c-42.574-72.39-121.267-120.987-211.322-120.987-135.311 0-245.002 109.691-245.002 245.002 0 32.661 6.407 63.822 18.007 92.315z" fill="#ffdd40"/><path d="m146.136 57.35c0 18.069-14.648 32.717-32.717 32.717h321.195v-32.717z" fill="#becaf5"/><path d="m29.005 57.35v32.717h86.463c18.069 0 32.717-14.648 32.717-32.717z" fill="#3c58a0"/><path d="m124.864 88.018.257.286c-1.906 4.57-9.503 24.992-2.24 44.535 4.441 11.949 13.605 21.165 27.235 27.393 18.514 8.458 30.431 65.203 34.462 164.102 2.926 71.766.626 142.031.391 148.814-1.89 2.229-10.053 12.66-9.31 25.362 25.168 8.735 52.198 13.49 80.341 13.49 48.409 0 93.534-14.045 131.532-38.279l47.082-66.516v-319.187z" fill="#deeeff"/><path d="m29.005 88.018v271.295c26.66 65.486 80.826 116.841 148.154 139.715-1.207-14.042 9.29-25.296 9.29-25.296s10.914-293.566-35.709-314.865-23.86-70.85-23.86-70.85h-97.875z" fill="#d3dcfb"/><path d="m398.884 0h-258.536s-9.609 10.032 0 19.641l1.311 19.088s-8.174 12.364 4.477 20.525h288.478v-23.523c.001-19.652-16.078-35.731-35.73-35.731z" fill="#2a428c"/><path d="m64.736 0c-19.652 0-35.731 16.079-35.731 35.731v23.524h119.18c-12.651-8.162-4.477-20.525-4.477-20.525l-1.311-19.088c-9.609-9.609 0-19.641 0-19.641h-77.661z" fill="#1c2e7a"/><path d="m84.494 29.627c0 6.361-5.157 11.518-11.518 11.518s-11.518-5.157-11.518-11.518 5.157-11.518 11.518-11.518 11.518 5.157 11.518 11.518z" fill="#ff4155"/><path d="m116.34 29.627c0 6.361-5.157 11.518-11.518 11.518s-11.518-5.157-11.518-11.518 5.157-11.518 11.518-11.518 11.518 5.157 11.518 11.518z" fill="#ffdd40"/><path d="m148.185 29.627c0 6.361-5.157 11.518-11.518 11.518s-11.518-5.157-11.518-11.518 5.157-11.518 11.518-11.518 11.518 5.157 11.518 11.518z" fill="#88ce65"/><path d="m246.868 29.627c0-4.244 3.44-7.683 7.683-7.683h-68.542c-4.243 0-7.683 3.439-7.683 7.683s3.44 7.683 7.683 7.683h68.542c-4.243.001-7.683-3.439-7.683-7.683z" fill="#3c58a0"/><path d="m310.288 29.627c0-4.244-3.44-7.683-7.683-7.683h-50.102c-4.243 0-7.683 3.439-7.683 7.683s3.44 7.683 7.683 7.683h50.102c4.243.001 7.683-3.439 7.683-7.683z" fill="#6289cc"/><g><path d="m395.463 37.311h-10.015c-4.243 0-7.683-3.439-7.683-7.683s3.44-7.683 7.683-7.683h10.015c4.243 0 7.683 3.439 7.683 7.683s-3.44 7.683-7.683 7.683z" fill="#6289cc"/></g><g><path d="m360.646 37.311h-10.016c-4.243 0-7.683-3.439-7.683-7.683s3.44-7.683 7.683-7.683h10.016c4.243 0 7.683 3.439 7.683 7.683s-3.44 7.683-7.683 7.683z" fill="#3c58a0"/></g><path d="m467.322 142.983c-3.754-1.012-7.693-1.561-11.755-1.561h-203.954s-53.23 50.25-9.99 106.914 18.503 105.713 18.503 105.713l17.507 67.235s-25.249 27.199 0 52.448h109.893c68.224-43.495 113.477-119.828 113.477-206.734-.001-45.256-12.286-87.636-33.681-124.015z" fill="#49b1f7"/><path d="m253.613 141.422h-67.164c-24.989 0-45.435 20.446-45.435 45.435v241.441c0 24.989 20.446 45.435 45.435 45.435h93.183c-25.249-25.249 0-52.448 0-52.448l-17.507-67.235s24.737-49.049-18.503-105.713c-43.239-56.665 9.991-106.915 9.991-106.915z" fill="#218ee8"/><path d="m220.784 312.014c-.117.174-.237.34-.353.517-2.185-1.314-6.794-3.421-12.714-2.431-7.192 1.203-13.883 6.528-19.907 15.815l2.972 12.9c1.451 6.301 5.824 11.54 11.778 14.063 8.441 3.577 18.366 4.767 28.503 2.888-.228-.44-.409-.908-.524-1.407z" fill="#ff4155"/><path d="m213.3 279.526c-.115-.499-.157-.999-.144-1.495-9.938 2.745-18.341 8.157-24.367 15.066-4.25 4.873-5.89 11.497-4.439 17.798l3.931 17.065c16.419-26.539 32.582-13.326 32.582-13.326.128-.204.258-.397.386-.597z" fill="#e80054"/><path d="m219.183 272.362 41.338-9.522-1.058-4.595c-1.638-7.11-8.729-11.546-15.839-9.908l-15.589 3.591c-7.11 1.638-11.546 8.729-9.909 15.84z" fill="#deeeff"/><path d="m306.301 406.649-17.756-32.534-.029.18c-3.844-1.128-13.202-3.145-19.784 1.407-3.929 2.716-6.141 7.257-6.606 13.505l17.507 32.076c4.041 7.365 13.287 10.059 20.652 6.017 7.363-4.04 10.057-13.286 6.016-20.651z" fill="#deeeff"/><path d="m289.717 376.263-14.43-26.44-30.786 7.092 19.026 34.86c-.001-25.393 26.19-15.512 26.19-15.512z" fill="#d3dcfb"/><path d="m363.294 281.168c-8.982-7.498-18.59-9.014-28.55-4.503-22.949 10.389-52.444 20.11-57.306 21.692-.486-.315-1.237-.779-2.209-1.317l10.286 44.656c.024.106.037.211.056.316 23.746-3.73 48.131-.637 70.275 9.027l31.131 13.585-17.888-77.655c-1.715-2.014-3.646-4.007-5.795-5.801z" fill="#deeeff"/><path d="m369.858 290.303-20.374-88.447-22.05 25.835c-15.684 18.377-36.259 31.827-59.244 38.861.029.103.064.204.088.31l7.413 32.182c.979.583 1.515.965 1.515.965s32.823-10.509 58.156-21.978c15.694-7.104 27.426 3.08 34.496 12.272z" fill="#d3dcfb"/><path d="m418.534 269.1-.183.162c-2.726.029-13.772.54-18.844 6.755-2.398 2.939-3.107 6.663-2.107 11.065.778 3.425 1.335 6.687 1.734 9.71 3.791-3.988 9.652-8.856 17.907-12.322 2.641-1.109 4.129-3.928 3.486-6.72z" fill="#deeeff"/><path d="m411.584 260.781c-17.804.986-29.507-7.182-29.507-7.182 1.401 6.08 10.162 44.118 11.572 50.238 0 0 2.133-3.817 6.818-8.395-.392-2.733-.913-5.648-1.605-8.693-3.75-16.5 20.055-15.987 20.055-15.987l-1.258-5.464c-.643-2.791-3.215-4.675-6.075-4.517z" fill="#d3dcfb"/><g><path d="m451.018 270.763c-3.536 0-6.718-2.456-7.5-6.053-.902-4.147 1.729-8.239 5.875-9.141l11.764-2.558c4.147-.897 8.239 1.729 9.141 5.876s-1.729 8.239-5.875 9.141l-11.764 2.558c-.55.119-1.1.177-1.641.177z" fill="#deeeff"/></g><g><path d="m429.707 229.389c-2.09 0-4.172-.847-5.689-2.516-2.854-3.14-2.622-7.999.518-10.854l8.909-8.097c3.142-2.854 8.001-2.621 10.854.519 2.854 3.141 2.622 7.999-.518 10.854l-8.909 8.096c-1.472 1.338-3.322 1.998-5.165 1.998z" fill="#deeeff"/></g><g><path d="m460.273 320.919c-.776 0-1.564-.118-2.342-.367l-11.467-3.667c-4.042-1.293-6.271-5.617-4.978-9.658 1.292-4.042 5.618-6.271 9.658-4.978l11.467 3.667c4.042 1.292 6.271 5.616 4.978 9.658-1.043 3.263-4.064 5.345-7.316 5.345z" fill="#deeeff"/></g><path d="m380.393 339.365c2.832-4.751 6.143-7.478 9.845-8.106 5.219-.884 9.667 2.738 9.758 2.814l1.487 1.11-12.937-56.163c-2.097-1.219-6.318-3.116-11.123-2.146-4.143.835-7.714 3.605-10.648 8.197l12.839 55.739c.251-.51.51-.994.779-1.445z" fill="#ff4155"/><path d="m276.644 297.86c-3.955-2.406-15.553-8.417-29.044-5.744-10.504 2.081-19.639 8.947-27.169 20.415-.019-.011-.041-.024-.06-.035l9.67 41.979c.841 3.653 4.485 5.932 8.138 5.09l43.411-9.999c3.653-.842 5.932-4.485 5.09-8.138z" fill="#ff7186"/><path d="m277.126 299.953-7.684-33.36c-.841-3.653-4.485-5.932-8.137-5.09l-43.411 10c-3.653.841-5.932 4.485-5.091 8.137l8.061 34.994c23.085-36.804 54.518-15.883 56.262-14.681z" fill="#ff4155"/><path d="m389.029 281.119-19.918-86.471c-1.377-5.977-7.313-9.732-13.302-8.407-.073.016-.147.033-.22.049-6.064 1.341-9.869 7.372-8.475 13.424l20.14 87.434c9.014-15.855 21.775-6.029 21.775-6.029z" fill="#e80054"/><path d="m400.962 332.926c-.001-.001-12.282-10.396-21.858 5.672l6.678 28.992c1.394 6.052 7.454 9.81 13.494 8.364.073-.018.146-.035.22-.053 5.965-1.429 9.66-7.402 8.283-13.38z" fill="#ff7186"/></g></svg>