<svg id="Layer_1" enable-background="new 0 0 512 512" height="512" viewBox="0 0 512 512" width="512" xmlns="http://www.w3.org/2000/svg"><g><path d="m475.802 375.309c16.125-32.66 25.2-69.423 25.2-108.311 0-135.311-109.691-245.002-245.002-245.002s-245.002 109.691-245.002 245.002c0 135.311 109.691 245.002 245.002 245.002 54.962 0 105.697-18.098 146.57-48.66z" fill="#ffdd40"/><path d="m250.623 19.535h-32.082v33.4h32.082c9.185 0 16.7-7.515 16.7-16.7-.001-9.185-7.516-16.7-16.7-16.7z" fill="#ff4155"/><path d="m203.953 19.535h-31.627c-9.185 0-16.7 7.515-16.7 16.7s7.515 16.7 16.7 16.7h31.627z" fill="#49b1f7"/><path d="m174.473 336.767h-22.167c-6.548 0-11.905-5.357-11.905-11.904v-12.913c0-6.548 5.357-11.905 11.905-11.905h22.167c6.548 0 11.904 5.357 11.904 11.905v12.913c0 6.547-5.357 11.904-11.904 11.904z" fill="#bec8f7"/><path d="m465.697 336.767h-22.167c-6.547 0-11.905-5.357-11.905-11.904v-12.913c0-6.548 5.357-11.905 11.905-11.905h22.167c6.548 0 11.905 5.357 11.905 11.905v12.913c0 6.547-5.357 11.904-11.905 11.904z" fill="#deeeff"/><path d="m85.946 150.949h-20.656c-6.101 0-11.093-4.992-11.093-11.093v-12.032c0-6.101 4.992-11.093 11.093-11.093h20.656c6.101 0 11.093 4.992 11.093 11.093v12.032c0 6.102-4.992 11.093-11.093 11.093z" fill="#bec8f7"/><path d="m357.316 150.949h-20.656c-6.101 0-11.093-4.992-11.093-11.093v-12.032c0-6.101 4.992-11.093 11.093-11.093h20.656c6.101 0 11.093 4.992 11.093 11.093v12.032c0 6.102-4.991 11.093-11.093 11.093z" fill="#deeeff"/><path d="m98.718 258.422c-9.361 0-18.248-4.355-25.154-9.101-1.787-1.228-3.413-2.632-4.883-4.166v31.224c0 8.39 6.864 15.254 15.254 15.254h35.648c8.39 0 15.254-6.865 15.254-15.254v-17.957c-25.309 0-34.327 0-36.119 0z" fill="#56415e"/><path d="m184.899 461.328c-10.303 0-20.084-4.793-27.685-10.017-1.967-1.352-3.756-2.897-5.375-4.585v34.366c0 9.234 7.555 16.789 16.789 16.789h39.235c9.234 0 16.789-7.555 16.789-16.789v-19.764c-27.855 0-37.781 0-39.753 0z" fill="#56415e"/><g><path d="m211.474 53.545c3.223 0 6.395.034 9.511.097v-34.553c0-5.253-4.258-9.511-9.511-9.511s-9.511 4.258-9.511 9.511v34.553c3.116-.062 6.288-.097 9.511-.097z" fill="#d3dcfb"/></g><path d="m307.204 71.64c-4.096-7.664-11.585-12.932-20.17-14.279-14.947-2.347-42.656-5.827-75.56-5.827-4.239 0-8.39.059-12.441.164l.25.141c-1.751 1.595-4.11 4.391-4.222 7.946-.093 2.977 1.379 5.816 4.382 8.458-.428.307-.928.677-1.477 1.097 4.403-.11 8.91-.17 13.507-.17 37.423 0 68.938 3.958 85.938 6.627 5.674.891 10.921 3.296 15.24 6.858-1.794-3.878-3.622-7.6-5.447-11.015z" fill="#deeeff"/><path d="m200.583 69.282c.865-.616 1.38-.941 1.38-.941-12.144-8.903-.038-16.688-.002-16.711-28.696.575-52.565 3.613-66.047 5.73-8.585 1.348-16.074 6.616-20.17 14.279-1.825 3.415-3.653 7.138-5.449 11.016 4.32-3.562 9.566-5.968 15.241-6.858 15.323-2.405 42.441-5.857 75.047-6.515z" fill="#bec8f7"/><path d="m311.968 81.19c-4.185-3.259-9.18-5.462-14.556-6.307-17-2.669-48.515-6.627-85.938-6.627-4.16 0-8.242.051-12.244.142-5.391 3.903-20.107 16.09-21.068 33.429-.716 12.906 6.401 25.638 21.165 37.869-.832.51-1.88 1.186-3.037 2.009 39.916.217 79.836-.417 119.732-1.907l5.226-.195c4.371-.705 8.59-1.468 12.581-2.298-.001 0-10.357-31.638-21.861-56.115z" fill="#4f71b6"/><path d="m106.926 139.798c30.664 1.146 61.342 1.786 92.022 1.923 1.792-1.17 3.015-1.817 3.015-1.817-50.234-39.935-.108-71.496-.002-71.562-33.219.587-60.887 4.101-76.424 6.541-5.377.844-10.372 3.047-14.556 6.307-11.504 24.477-21.86 56.115-21.86 56.115 3.991.83 8.21 1.593 12.581 2.298z" fill="#3c58a0"/><path d="m275.462 217.521-.135-5.261-.914-1.102c0-.146 0-.395 0-.726-8.625 0-43 0-73.95 0v1.061c-1.7 1.3-5.979 5.079-6.208 10.357-.167 3.839 1.818 7.537 5.906 11.006-.847 2.333-2.393 7.945.058 12.892 1.694 3.42 4.934 5.787 9.607 7.074 4.652-5.179 11.004-8.668 18.025-9.77 12.126-1.904 31.888-4.484 55.94-5.709-5.145-5.299-8.138-12.367-8.329-19.822z" fill="#49b1f7"/><path d="m201.963 212.26v-1.828c-24.226 0-46.654 0-53.427 0v.726l-.914 1.102-.135 5.261c-.216 8.424-4.006 16.361-10.442 21.801-10.007 8.459-25.621 19.811-38.326 20.843v.084h106.333l.601-1.481c1.433-2.68 3.245-5.092 5.351-7.186-16.147-3.873-9.039-19.192-9.039-19.192-13.993-10.986-.002-20.13-.002-20.13z" fill="#1e9ef4"/><path d="m150.364 194.436c0-11.426-37.478-18.739-60.33-27.88-8.749-3.499-10.795-8.74-9.993-13.877l-.72-.105s-19.451 8.955-19.451 29.522v30.165 12.776c0 10.426 5.102 20.208 13.695 26.113 6.906 4.746 15.793 9.101 25.154 9.101 13.004 0 29.662-12.059 40.155-20.928 6.436-5.44 10.226-13.376 10.442-21.801l.135-5.261.914-1.102c-.001-1.014-.001-6.468-.001-16.723z" fill="#bec8f7"/><path d="m90.034 166.556c-3.075-1.23-5.307-2.678-6.893-4.258-1.839 4.288-4.177 11.266-4.177 19.036v3.517c0 10.279 7.972 18.797 18.229 19.476l27.37 1.812c2.637.175 5.239-.682 7.257-2.39l16.448-13.925c-8.198-8.916-38.609-15.418-58.234-23.268z" fill="#ffdd40"/><circle cx="111.674" cy="183.53" fill="#ffb332" r="15.783"/><path d="m273.633 217.521c.192 7.497 3.221 14.602 8.42 19.911 9.08-.492 18.795-.793 28.961-.793 18.063 0 34.703.953 48.887 2.229 2.056-4.254 3.178-8.97 3.178-13.832v-12.776s0-9.598 0-30.165-19.451-29.522-19.451-29.522l-.72.105c.802 5.137-1.244 10.378-9.993 13.877-22.852 9.141-60.33 16.454-60.33 27.88v16.723l.914 1.102z" fill="#deeeff"/><path d="m332.914 166.556c3.075-1.23 5.307-2.678 6.893-4.258 1.839 4.288 4.177 11.266 4.177 19.036v3.517c0 10.279-7.972 18.797-18.229 19.476l-27.37 1.812c-2.637.175-5.239-.682-7.256-2.39l-16.449-13.925c8.198-8.916 38.609-15.418 58.234-23.268z" fill="#ffdd40"/><circle cx="310.933" cy="183.53" fill="#ffb332" r="15.783"/><path d="m333.828 137.305-17.806.665c-38.99 1.456-78.002 2.097-117.012 1.923-4.705 2.932-15.124 10.471-15.756 20.096-.395 6.021 3.082 11.683 10.335 16.824 4.304 3.052 6.874 8.115 6.874 13.543v21.137c-.258.197-.581.459-.934.767h73.97s0-5.485 0-16.911 37.478-18.739 60.33-27.88c22.851-9.14-.001-30.164-.001-30.164z" fill="#73c3f9"/><path d="m194.456 175.59c-25.645-18.183 7.507-35.686 7.507-35.686l-.006-.004c-31.683-.108-63.365-.747-95.031-1.93l-17.806-.665s-22.852 21.024 0 30.165 60.33 16.454 60.33 27.88v16.911h52.513v-21.904c0-5.84-2.745-11.39-7.507-14.767z" fill="#49b1f7"/><path d="m237.106 232.392h-37.572l.358.281c-1.317 1.982-3.431 6.059-2.342 10.604 1.064 4.438 4.856 8.049 11.26 10.743 4.72-5.837 11.492-9.782 19.04-10.967 5.195-.816 11.794-1.756 19.529-2.66-1.173-4.583-5.338-8.001-10.273-8.001z" fill="#deeeff"/><path d="m185.842 232.392c-5.838 0-10.615 4.777-10.615 10.615v17.39c0 5.838 4.777 10.615 10.615 10.615h14.844l4.965-12.244c1.158-2.167 2.566-4.156 4.174-5.947-18.924-7.685-7.863-20.43-7.863-20.43h-16.12z" fill="#bec8f7"/><g><path d="m355.122 93.271c-4.217-3.618-4.703-9.969-1.085-14.186l.4-.467c3.619-4.218 9.97-4.703 14.187-1.086 4.217 3.618 4.703 9.969 1.085 14.186l-.4.467c-3.629 4.23-9.982 4.694-14.187 1.086z" fill="#ff4155"/></g><g><path d="m377.986 66.579c-4.221-3.613-4.714-9.964-1.1-14.185l41.837-48.875c3.612-4.222 9.963-4.714 14.185-1.1 4.221 3.613 4.714 9.964 1.1 14.185l-41.837 48.875c-3.613 4.22-9.963 4.713-14.185 1.1z" fill="#ff4155"/></g><g><path d="m381.572 124.466c-3.157-4.572-2.011-10.838 2.561-13.995l.507-.35c4.571-3.16 10.838-2.009 13.995 2.561 3.157 4.573 2.011 10.838-2.561 13.996l-.507.35c-4.541 3.137-10.817 2.04-13.995-2.562z" fill="#ff4155"/></g><g><path d="m410.501 104.506c-3.155-4.574-2.005-10.839 2.569-13.993l52.959-36.53c4.573-3.157 10.84-2.006 13.994 2.569 3.155 4.573 2.005 10.839-2.569 13.994l-52.959 36.53c-4.582 3.161-10.847 1.994-13.994-2.57z" fill="#ff4155"/></g><path d="m414.364 255.75c-4.508-8.435-12.751-14.233-22.199-15.716-16.451-2.583-46.948-6.413-83.163-6.413-11.061 0-21.585.359-31.342.929-.996 1.738-2.712 5.538-1.693 9.775.794 3.302 3.047 6.114 6.709 8.383-.335.276-.721.605-1.128.957 8.726-.396 17.913-.632 27.455-.632 41.189 0 75.875 4.356 94.585 7.294 6.245.981 12.02 3.628 16.774 7.549-1.977-4.269-3.989-8.366-5.998-12.126z" fill="#ff4155"/><path d="m225.838 240.034c-9.448 1.484-17.691 7.282-22.199 15.716-2.009 3.759-4.021 7.856-5.997 12.125 4.754-3.921 10.529-6.568 16.774-7.549 14.782-2.321 39.54-5.525 69.592-6.77.857-.694 1.366-1.063 1.366-1.063-13.991-7.007-5.887-18.035-5.876-18.05-23.021 1.27-41.919 3.748-53.66 5.591z" fill="#e80054"/><path d="m419.608 266.262c-4.606-3.587-10.103-6.012-16.021-6.941-18.71-2.938-53.396-7.294-94.585-7.294-9.182 0-18.037.217-26.468.586.049.031.092.064.141.095-2.15 1.771-5.9 5.127-9.643 9.734-7.483 9.214-11.274 19.045-10.963 28.43.475 14.27 10.055 27.625 28.488 39.729-1.206.551-2.739 1.298-4.428 2.223 45.986.341 91.977-.339 137.94-2.056l5.751-.215c4.811-.776 9.455-1.616 13.847-2.529.001 0-11.397-34.822-24.059-61.762z" fill="#4f71b6"/><path d="m285.372 252.497c-30.667 1.202-55.951 4.468-70.956 6.824-5.918.929-11.415 3.354-16.021 6.941-12.662 26.94-24.06 61.762-24.06 61.762 4.392.913 9.036 1.753 13.847 2.529l5.751.215c31.798 1.188 63.609 1.875 95.423 2.078 2.596-1.288 4.396-1.98 4.396-1.98-62.597-39.141-8.495-78.286-8.38-78.369z" fill="#3c58a0"/><path d="m390.921 440.307c-7.084-5.987-11.255-14.722-11.493-23.995l-.148-5.791-1.006-1.213c0-.161 0-.435 0-.799-9.273 0-45.593 0-79.023 0v1.353c-1.665 1.591-6.632 6.889-6.319 13.22.18 3.638 2.044 6.916 5.548 9.764-2.72 2.939-8.867 10.687-9.099 20.859-.075 3.277.483 6.493 1.646 9.635h111.544c3.311-2.476 6.554-5.039 9.733-7.675-7.933-4.564-15.53-10.411-21.383-15.358z" fill="#e80054"/><path d="m300.75 432.679c-14.25-9.953 0-22.157 0-22.157v-2.012c-27.502 0-53.359 0-61.02 0v.799l-1.006 1.213-.148 5.791c-.238 9.272-4.409 18.008-11.493 23.995-11.015 9.31-28.2 21.805-42.183 22.941v.093h107.731c-6.736-17.098 8.119-30.663 8.119-30.663z" fill="#cc0053"/><path d="m241.742 390.903c0-12.576-41.249-20.624-66.401-30.685-9.629-3.852-11.882-9.62-10.999-15.274l-.793-.116s-21.409 9.856-21.409 32.493v33.2 14.061c0 11.475 5.616 22.242 15.073 28.741 7.601 5.223 17.382 10.017 27.685 10.017 14.312 0 32.647-13.272 44.195-23.034 7.084-5.987 11.255-14.722 11.493-23.994l.148-5.791 1.006-1.213c.002-1.115.002-7.117.002-18.405z" fill="#e80054"/><path d="m175.341 360.218c-3.384-1.354-5.841-2.947-7.587-4.686-2.024 4.719-4.598 12.4-4.598 20.951v3.871c0 11.314 8.774 20.689 20.063 21.436l30.124 1.995c2.903.192 5.766-.751 7.987-2.631l18.104-15.326c-9.022-9.814-42.493-16.97-64.093-25.61z" fill="#ffdd40"/><circle cx="198.477" cy="378.657" fill="#ffb332" r="17.509"/><path d="m454.453 344.829-.793.116c.883 5.654-1.37 11.422-10.999 15.274-25.152 10.061-66.401 18.109-66.401 30.685v18.405l1.006 1.213.148 5.791c.238 9.272 4.409 18.007 11.493 23.994 6.146 5.195 14.214 11.384 22.575 16.038 26.792-22.026 48.815-49.633 64.32-81.035-1.214-21.21-21.349-30.481-21.349-30.481z" fill="#ff4155"/><path d="m442.662 360.218c3.384-1.354 5.841-2.947 7.587-4.686 2.023 4.719 4.598 12.4 4.598 20.951v3.871c0 11.314-8.774 20.689-20.063 21.436l-30.124 1.995c-2.903.192-5.766-.751-7.987-2.631l-18.104-15.326c9.022-9.814 42.493-16.97 64.093-25.61z" fill="#ffdd40"/><circle cx="419.526" cy="378.657" fill="#ffb332" r="17.509"/><path d="m443.668 328.024-19.598.732c-44.659 1.668-89.345 2.358-134.026 2.083-6.422 3.002-20.326 10.733-20.999 21.647-.5 8.101 6.385 16.015 20.464 23.521 6.01 3.205 9.742 9.364 9.742 16.075v17.78c-.182.174-.409.4-.659.659h78.676s0-6.036 0-18.612 41.249-20.624 66.401-30.685c25.15-10.061-.001-33.2-.001-33.2z" fill="#ff7186"/><path d="m290.213 374.684c-46.292-24.683 3.539-43.817 3.539-43.817l-.002-.001c-33.279-.164-66.555-.866-99.817-2.109l-19.598-.732s-25.152 23.14 0 33.2c25.152 10.061 66.401 18.109 66.401 30.685v18.612h60.014v-18.44c0-7.309-4.088-13.96-10.537-17.398z" fill="#ff4155"/><path d="m337.212 432.679h-38.924c.066.055.122.112.19.167-2.72 2.939-8.867 10.687-9.099 20.859-.172 7.539 2.956 14.759 9.288 21.482h38.545c6.426 0 11.684-5.258 11.684-11.684v-19.14c0-6.427-5.258-11.684-11.684-11.684z" fill="#deeeff"/><path d="m300.75 432.679h-19.959c-6.426 0-11.684 5.258-11.684 11.684v19.14c0 6.426 5.258 11.684 11.684 11.684h19.959c-22.223-22.223 0-42.508 0-42.508z" fill="#bec8f7"/><path d="m16.132 317.094c11.056 53.208 39.368 100.088 78.823 134.532 27.117-29.767 19.109-70.846-2.871-106.797-16.943-27.711-50.96-30.273-75.952-27.735z" fill="#f7e38d"/><path d="m416.707 174.783c0 40.967 25.739 105.097 83.802 107.681.319-5.115.493-10.27.493-15.466 0-52.048-16.243-100.296-43.919-139.978-19.589 7.663-40.376 21.888-40.376 47.763z" fill="#f7e38d"/><circle cx="250.932" cy="33.007" fill="#ff7186" r="8"/><g fill="#6389c6"><ellipse cx="251.952" cy="101.988" rx="23.702" ry="16.586"/><ellipse cx="336.354" cy="287.599" rx="23.702" ry="16.586"/></g></g></svg>