<svg id="Capa_1" enable-background="new 0 0 512 512" height="512" viewBox="0 0 512 512" width="512" xmlns="http://www.w3.org/2000/svg"><g><path d="m512 256c0 141.385-114.615 256-256 256s-256-114.615-256-256 114.615-256 256-256 256 114.615 256 256z" fill="#2b3894"/><path d="m446.758 256c0 105.353-85.405 190.758-190.758 190.758s-190.758-85.405-190.758-190.758 85.405-190.758 190.758-190.758 190.758 85.405 190.758 190.758z" fill="#3342ae"/><path d="m186.814 123.317c0 18.85-15.281 34.131-34.131 34.131h-133.025c10.442-25.013 24.739-48.014 42.148-68.263h90.877c18.85.001 34.131 15.282 34.131 34.132zm22 166.167h220c22.091 0 40-17.909 40-40v-20.362c0-22.091-17.909-40-40-40h-220c-22.091 0-40 17.909-40 40v20.362c0 22.092 17.908 40 40 40zm107.76 72.635h-220c-22.091 0-40 17.909-40 40v14.41c13.955 17.315 30.119 32.775 48.064 45.952h211.936c22.091 0 40-17.909 40-40v-20.362c0-22.091-17.909-40-40-40z" fill="#232e7a"/><path d="m141.252 114.262h-81.908c-18.85 0-34.131-15.281-34.131-34.131 0-18.85 15.281-34.131 34.131-34.131h81.908c18.85 0 34.131 15.281 34.131 34.131 0 18.85-15.281 34.131-34.131 34.131z" fill="#b4e7fd"/><path d="m229.994 80.797c-.332 17.351-13.611 31.532-30.579 33.284-2.022.209-3.546 1.935-3.546 3.967v31.404c0 3.195-3.561 5.1-6.219 3.328l-56.769-37.846c-.657-.438-1.429-.672-2.219-.672h-33.356c-19.138 0-35.165-15.662-34.799-34.797.354-18.542 15.496-33.465 34.124-33.465h98.563c19.139 0 35.165 15.662 34.8 34.797z" fill="#d5f1fe"/><path d="m100.298 80.131c0 4.142-3.358 7.5-7.5 7.5s-7.5-3.358-7.5-7.5 3.358-7.5 7.5-7.5 7.5 3.358 7.5 7.5zm23.191-7.5c-4.142 0-7.5 3.358-7.5 7.5s3.358 7.5 7.5 7.5 7.5-3.358 7.5-7.5-3.357-7.5-7.5-7.5zm30.261 0c-4.142 0-7.5 3.358-7.5 7.5s3.358 7.5 7.5 7.5 7.5-3.358 7.5-7.5-3.358-7.5-7.5-7.5z" fill="#738c96"/><path d="m100 201c0 2.761-2.239 5-5 5h-27.5c-2.761 0-5-2.239-5-5 0-2.761 2.239-5 5-5h27.5c2.761 0 5 2.239 5 5zm292.5 85h-27.5c-2.761 0-5 2.239-5 5 0 2.761 2.239 5 5 5h27.5c2.761 0 5-2.239 5-5 0-2.761-2.239-5-5-5z" fill="#fff36c"/><path d="m137.5 246.888c0 2.762-2.239 5-5 5h-8.75v8.75c0 2.762-2.239 5-5 5s-5-2.238-5-5v-8.75h-8.75c-2.761 0-5-2.238-5-5 0-2.761 2.239-5 5-5h8.75v-8.75c0-2.761 2.239-5 5-5s5 2.239 5 5v8.75h8.75c2.761 0 5 2.239 5 5zm206.25-175.888h-8.75v-8.75c0-2.762-2.239-5-5-5s-5 2.238-5 5v8.75h-8.75c-2.761 0-5 2.239-5 5s2.239 5 5 5h8.75v8.75c0 2.761 2.239 5 5 5s5-2.239 5-5v-8.75h8.75c2.761 0 5-2.239 5-5s-2.239-5-5-5z" fill="#1ed688"/><path d="m512 185.936v20.362c0 22.091-17.909 40-40 40h-125l-68.781 45.854c-2.658 1.772-6.219-.133-6.219-3.328v-38.526c0-2.209-1.791-4-4-4h-16c-22.091 0-40-17.909-40-40v-20.362c0-22.091 17.909-40 40-40h220c22.091 0 40 17.909 40 40z" fill="#1ed688"/><path d="m270 206.298v-20.362c0-22.091 17.909-40 40-40h162c22.091 0 40 17.909 40 40v20.362c0 22.091-17.909 40-40 40h-162c-22.091 0-40-17.909-40-40z" fill="#35e298"/><path d="m475 178.617c0 4.143-3.358 7.5-7.5 7.5h-134.574c-4.142 0-7.5-3.357-7.5-7.5 0-4.142 3.358-7.5 7.5-7.5h134.574c4.142 0 7.5 3.358 7.5 7.5zm-38.625 27.5h-103.449c-4.142 0-7.5 3.358-7.5 7.5 0 4.143 3.358 7.5 7.5 7.5h103.449c4.142 0 7.5-3.357 7.5-7.5 0-4.142-3.358-7.5-7.5-7.5z" fill="#a1ffbc"/><path d="m300 195.638c0 16.569-13.431 30-30 30s-30-13.431-30-30 13.431-30 30-30 30 13.432 30 30z" fill="#169b62"/><path d="m283.383 212.638v3h-26.766v-3c0-5.523 4.477-10 10-10h6.766c5.523 0 10 4.477 10 10zm-13.383-14.596c5.523 0 10-4.477 10-10v-2.404c0-5.523-4.477-10-10-10s-10 4.477-10 10v2.404c0 5.523 4.477 10 10 10z" fill="#d5f1fe"/><path d="m235.638 355.638v20.362c0 22.091-17.909 40-40 40h-75.638c-22.091 0-40-17.909-40-40v-20.362c0-22.091 17.909-40 40-40h75.638c22.092 0 40 17.909 40 40z" fill="#eac23f"/><path d="m380 355.638v20.362c0 22.091-17.909 40-40 40h-16c-2.209 0-4 1.791-4 4v38.526c0 3.195-3.561 5.1-6.219 3.328l-67.773-45.182c-.657-.438-1.429-.672-2.219-.672h-76.793c-22.091 0-40-17.909-40-40v-20.362c0-22.091 17.909-40 40-40h173.004c22.091 0 40 17.909 40 40z" fill="#fff36c"/><path d="m344.787 348.319c0 4.143-3.358 7.5-7.5 7.5h-134.574c-4.142 0-7.5-3.357-7.5-7.5 0-4.142 3.358-7.5 7.5-7.5h134.574c4.142 0 7.5 3.358 7.5 7.5zm-38.625 27.5h-103.449c-4.142 0-7.5 3.358-7.5 7.5 0 4.143 3.358 7.5 7.5 7.5h103.449c4.142 0 7.5-3.357 7.5-7.5 0-4.142-3.358-7.5-7.5-7.5z" fill="#eac23f"/><path d="m163.489 363.497c0 16.569-13.431 30-30 30s-30-13.431-30-30c0-16.568 13.431-30 30-30s30 13.431 30 30z" fill="#c3a01a"/><path d="m146.872 380.497v3h-26.766v-3c0-5.523 4.477-10 10-10h6.766c5.523 0 10 4.477 10 10zm-13.383-14.596c5.523 0 10-4.477 10-10v-2.404c0-5.523-4.477-10-10-10s-10 4.477-10 10v2.404c0 5.523 4.477 10 10 10z" fill="#fffac1"/></g></svg>