<svg id="Layer_1" enable-background="new 0 0 512 512" height="512" viewBox="0 0 512 512" width="512" xmlns="http://www.w3.org/2000/svg"><g><g><path d="m68.212 424.342c3.893 4.641 7.954 9.133 12.175 13.472l26.269 23.401c41.344 31.838 93.128 50.785 149.344 50.785 65.348 0 124.716-25.588 168.643-67.287l22-23.843c33.99-42.06 54.359-95.583 54.359-153.872 0-135.311-109.691-245.002-245.002-245.002s-245.002 109.691-245.002 245.002c0 47.227 13.376 91.324 36.527 128.735z" fill="#47354f"/><g><path d="m326.336 463.136c-6.075 0-11-4.925-11-11v-76.562c0-4.814 3.13-9.069 7.726-10.502 4.597-1.426 9.59.289 12.325 4.251l33.391 48.352-.408-42.138c-.059-6.075 4.818-11.047 10.893-11.105.036-.001.073-.001.108-.001 6.026 0 10.939 4.854 10.998 10.894l.717 74.12c.001.035.001.071.001.106 0 5.799-3.327 10.585-8.477 12.193-5.056 1.582-10.378-.364-13.555-4.954l-31.718-45.93v41.275c-.001 6.076-4.926 11.001-11.001 11.001z" fill="#ffdd40"/></g><g><path d="m161.641 463.141c-8.617 0-9.162-.094-9.947-.228-5.28-.906-9.139-5.484-9.139-10.842v-76.64c0-6.075 4.925-11 11-11s11 4.925 11 11v65.7c4.703-.008 10.399-.03 15.798-.06h.063c6.046 0 10.964 4.884 10.999 10.938.034 6.075-4.863 11.027-10.938 11.062-8.735.048-14.711.07-18.836.07z" fill="#ffdd40"/></g><g><path d="m216.887 463.136c-6.075 0-11-4.925-11-11v-76.705c0-6.075 4.925-11 11-11s11 4.925 11 11v76.705c0 6.075-4.924 11-11 11z" fill="#ffdd40"/></g><g><path d="m290.875 462.785h-32.025c-6.075 0-11-4.925-11-11v-76.005c0-6.075 4.925-11 11-11h32.025c6.075 0 11 4.925 11 11s-4.925 11-11 11h-21.025v54.005h21.025c6.075 0 11 4.925 11 11s-4.924 11-11 11z" fill="#ffdd40"/></g><g><path d="m288.514 424.783h-29.664c-6.075 0-11-4.925-11-11s4.925-11 11-11h29.664c6.075 0 11 4.925 11 11s-4.925 11-11 11z" fill="#ffdd40"/></g><g fill="#ffdd40"><path d="m124.677 432.883c-4.654-3.904-11.592-3.3-15.498 1.354-.627.747-1.302 1.444-2.002 2.068-3.6 3.205-8.221 4.83-13.734 4.83-4.725 0-9.174-1.205-13.056-3.323 8.181 8.41 16.96 16.232 26.27 23.402 5.633-1.717 10.754-4.565 15.154-8.484 1.493-1.331 2.913-2.795 4.219-4.352 3.906-4.651 3.3-11.59-1.353-15.495z"/><path d="m93.443 386.431c5.482 0 10.768 1.613 15.286 4.665 5.033 3.4 11.871 2.077 15.272-2.958 3.4-5.034 2.076-11.872-2.958-15.272-8.168-5.518-17.713-8.435-27.601-8.435-20.843 0-38.696 12.995-45.919 31.302 6.214 10.042 13.133 19.601 20.689 28.609-1.366-3.251-2.122-6.818-2.122-10.559.001-15.082 12.271-27.352 27.353-27.352z"/></g><g><path d="m456.909 386.431h-42.361c-6.075 0-11-4.925-11-11s4.925-11 11-11h42.361c6.075 0 11 4.925 11 11s-4.924 11-11 11z" fill="#ffdd40"/></g><path d="m446.643 420.87v-42.99c0-6.075-4.925-11-11-11s-11 4.925-11 11v66.833c7.848-7.449 15.193-15.419 22-23.843z" fill="#ffdd40"/></g><g><path d="m505.022 174.376c-3.106 5.232-11.452 14.289-32.143 15.374l4.471 21.945c.217 1.062.442 2.07.672 3.035.599 2.506 2.846 4.265 5.423 4.265h18.54c6.324 0 11.067-5.785 9.813-11.984-1.482-7.328-3.691-17.51-6.776-32.635z" fill="#ffc7ab"/><path d="m494.19 124.091c-5.826-17.638-22.355-29.519-40.93-29.519h-16.264c-2.994 14.966-14.28 29.548-28.252 29.548-.211 0-.419-.014-.629-.021-5.573 5.314-10.893 13.574-10.893 25.764v44.87c-.063.841-.433 7.596 3.215 15.242 1.349 2.828 3.373 5.985 6.392 9.02h40.988c4.704 0 8.494-3.857 8.411-8.56l-.881-50.087c0-2.754 1.872-5.257 4.577-5.778 3.157-.608 6.077 1.439 6.691 4.448l6.588 32.336c19.481-1.077 28.4-9.062 32.284-14.687-12.051-59.086-9.018-45.676-11.297-52.576z" fill="#49b1f7"/><path d="m398.797 194.796s0-20.295 0-44.934c0-12.647 5.9-20.837 11.643-25.823-.561.048-1.125.08-1.696.08-13.972 0-25.258-14.582-28.252-29.548h-11.404c-20.662 0-38.934 12.412-46.548 31.621-.72 1.816-.476.88-5.446 25.416 21.299 1.7 39.627 15.897 46.399 36.399 2.292 6.931.355-2.27 7.075 30.986h38.518c-11.504-10.529-10.289-24.197-10.289-24.197z" fill="#1e9ef4"/><path d="m438.439 94.572h-59.389c3.029 16.097 15.169 30.937 29.695 30.937 14.524 0 26.664-14.84 29.694-30.937z" fill="#ffaa7b"/><path d="m132.95 94.572h-59.389c3.029 16.097 15.169 30.937 29.695 30.937 14.525 0 26.665-14.84 29.694-30.937z" fill="#ffaa7b"/><path d="m378.805 251.655c-3.961 6.673-14.607 18.226-41 19.61l5.702 27.991c.276 1.355.563 2.64.858 3.871.764 3.197 3.631 5.44 6.917 5.44h23.648c8.067 0 14.117-7.379 12.517-15.286-1.889-9.346-4.707-22.333-8.642-41.626z" fill="#ffc7ab"/><path d="m133.195 251.655c-3.935 19.293-6.753 32.28-8.643 41.626-1.599 7.907 4.45 15.286 12.517 15.286h23.648c3.287 0 6.153-2.243 6.917-5.44.294-1.231.581-2.516.857-3.871l5.703-27.991c-26.392-1.384-37.038-12.937-40.999-19.61z" fill="#ffaa7b"/><g><path d="m6.978 174.376c3.106 5.232 11.452 14.289 32.143 15.374l-4.471 21.945c-.217 1.062-.442 2.07-.672 3.035-.599 2.506-2.846 4.265-5.423 4.265h-18.54c-6.325 0-11.067-5.785-9.813-11.984 1.482-7.328 3.691-17.51 6.776-32.635z" fill="#ffaa7b"/><path d="m17.81 124.091c5.826-17.638 22.355-29.519 40.93-29.519h16.264c2.994 14.966 14.28 29.548 28.252 29.548.211 0 .419-.014.629-.021 5.573 5.314 10.893 13.574 10.893 25.764v44.87c.063.841.433 7.596-3.215 15.242-1.349 2.828-3.373 5.985-6.393 9.02h-40.988c-4.704 0-8.494-3.857-8.411-8.56l.881-50.087c0-2.754-1.872-5.257-4.577-5.778-3.157-.608-6.077 1.439-6.691 4.448l-6.588 32.336c-19.481-1.077-28.4-9.062-32.284-14.687 12.052-59.086 9.019-45.676 11.298-52.576z" fill="#49b1f7"/><path d="m113.203 194.796s0-20.295 0-44.934c0-12.647-5.9-20.837-11.643-25.823.561.048 1.125.08 1.696.08 13.972 0 25.258-14.582 28.252-29.548h11.404c20.662 0 38.934 12.412 46.548 31.621.72 1.816.476.88 5.446 25.416-21.299 1.7-39.627 15.897-46.399 36.399-2.292 6.931-.355-2.27-7.075 30.986h-38.518c11.504-10.529 10.289-24.197 10.289-24.197z" fill="#1e9ef4"/></g><path d="m293.876 149.863h-75.753c3.863 20.532 19.349 39.461 37.876 39.461 18.528 0 34.013-18.929 37.877-39.461z" fill="#ffaa7b"/><g fill="#ffc7ab"><path d="m450.576 42.216c0 25.699-18.729 53.005-41.832 53.005s-41.832-27.306-41.832-53.005c.001-25.698 18.729-42.216 41.832-42.216s41.832 16.518 41.832 42.216z"/><path d="m145.087 42.216c0 25.699-18.729 53.005-41.832 53.005s-41.831-27.306-41.831-53.005c0-25.698 18.729-42.216 41.832-42.216s41.831 16.518 41.831 42.216z"/><path d="m309.357 83.081c0 32.78-23.889 67.61-53.357 67.61s-53.357-34.83-53.357-67.61 23.889-53.848 53.357-53.848 53.357 21.069 53.357 53.848z"/></g><path d="m364.989 187.515c-7.431-22.497-28.516-37.652-52.208-37.652h-20.744c-3.745 18.719-17.662 36.954-35.004 37.656-5.743 6.016-11.161 14.65-11.161 25.824v76.084c-.002.158-.043 10.645 6.129 19.141h53.841c6 0 10.834-4.92 10.728-10.919l-1.124-63.888c0-3.513 2.388-6.705 5.838-7.37 4.027-.776 7.752 1.835 8.535 5.673l8.404 41.246c24.85-1.374 36.226-11.559 41.18-18.734-15.375-75.365-11.507-58.259-14.414-67.061z" fill="#73c3f9"/><path d="m247.445 289.45s0-53.537 0-76.107c0-11.455 6.087-20.2 12.083-26.041-1.16.161-2.335.251-3.527.251-17.821 0-32.217-18.6-36.037-37.689h-14.546c-26.355 0-49.662 15.832-59.374 40.333-1.16 2.924-.357.243-13.445 64.381 4.954 7.175 16.33 17.359 41.179 18.734l8.404-41.246c.783-3.838 4.507-6.449 8.534-5.673 3.45.664 5.839 3.857 5.839 7.371l-1.124 63.887c-.105 5.999 4.729 10.919 10.728 10.919h47.776c-6.645-8.254-6.49-19.12-6.49-19.12z" fill="#49b1f7"/></g></g></svg>