<svg id="Layer_1" enable-background="new 0 0 512 512" height="512" viewBox="0 0 512 512" width="512" xmlns="http://www.w3.org/2000/svg"><g><path d="m468.524 403.592c26.258-39.027 41.587-86.019 41.587-136.594 0-135.311-109.691-245.002-245.002-245.002s-245.003 109.691-245.003 245.002c0 66.39 26.418 126.6 69.301 170.724z" fill="#47354f"/><path d="m100.427 157.526c.052-.044.096-.093.149-.136l37.187-30.784c1.115-.923 2.328-1.647 3.591-2.201l-5.438-6.418c-9.396-11.09-26.003-12.463-37.093-3.066-11.09 9.396-12.463 26.003-3.066 37.093z" fill="#deeeff"/><path d="m265.39 118.127c8.24 0 16.366.478 24.363 1.378v-30.27h-48.726v30.27c7.998-.9 16.124-1.378 24.363-1.378z" fill="#bec8f7"/><path d="m229.243 78.536v.527c0 6.615 5.363 11.978 11.978 11.978h48.338c6.615 0 11.978-5.363 11.978-11.978v-.527z" fill="#d3dcfb"/><path d="m393.018 126.606 37.187 30.784c.052.043.097.092.148.136l4.671-5.513c9.396-11.09 8.023-27.697-3.066-37.093-11.09-9.396-27.697-8.023-37.093 3.066l-5.439 6.418c1.264.555 2.477 1.279 3.592 2.202z" fill="#deeeff"/><g fill="#ffdd40"><path d="m334.954 184.622c-6.596-11.091-8.342-21.062-5.188-29.637 5.092-13.843 21.438-19.568 21.603-19.624l.739-.253.188-.647c-.475-.151-.946-.319-1.411-.52-26.203-11.332-55.106-17.619-85.495-17.619-30.387 0-59.29 6.288-85.493 17.62-.649.281-1.311.501-1.977.685-2.068 4.651-8.055 20.189-2.856 34.181 2.925 7.871 8.903 13.865 17.778 17.832-.09.265-.194.578-.304.915 22.139-11.233 47.194-17.521 73.704-17.384 25.021.13 48.732 6.016 69.879 16.389-.401-.659-.791-1.306-1.167-1.938z"/><path d="m459.214 321.874c-14.152 2.358-28.053-7.326-33.747-11.95.954 6.999 1.464 14.135 1.483 21.382.168 65.145-38.428 121.457-93.97 147.146.765.233 1.519.477 2.3.698-.61 3.422-1.559 12.359 2.614 21.853 53.881-16.743 99.794-51.581 130.629-97.41 7.939-22.472 12.273-46.655 12.273-71.863 0-8.078-.444-16.051-1.308-23.896-5.741 8.032-12.532 12.752-20.274 14.04z"/></g><path d="m333.665 185.389c49.335 23.175 85.208 70.597 92.079 126.687 9.676 7.524 34.88 22.97 53.967-2.002-4.316-43.298-21.419-82.804-47.497-114.683-4.651-5.685-4.64-13.867.123-19.483 5.384-6.348 4.215-15.972-2.197-21.279l-37.121-30.729c-6.456-5.344-16.021-4.443-21.366 2.013l-3.112 3.759c-4.289 5.18-11.483 6.94-17.655 4.271-.001-.002-39.778 13.52-17.221 51.446z" fill="#ffeb97"/><g fill="#ffb332"><path d="m337.037 478.079c-.688-.186-1.347-.387-2.019-.582-21.096 10.117-44.711 15.792-69.627 15.792-43.196 0-82.481-17.046-111.497-44.759-4.973-4.75-11.621-7.344-18.498-7.344-11.797 0-20.643 6.968-24.65 16.06 42.133 34.229 95.847 54.754 154.362 54.754 25.875 0 50.809-4.018 74.222-11.453-5.142-11.585-2.293-22.468-2.293-22.468z"/><path d="m162.241 129.672-3.113-3.761c-5.344-6.455-14.91-7.356-21.365-2.012l-37.187 30.784c-6.456 5.344-7.357 14.91-2.013 21.366 4.645 5.611 4.617 13.705.004 19.342-1.602 1.958-3.169 3.945-4.702 5.959-13.463 17.696-.655 43.174 21.58 43.174 8.489 0 16.419-4.044 21.578-10.786 15.166-19.82 34.818-36.028 57.416-47.123.179-.515.284-.8.284-.8-34-14-14.826-51.873-14.826-51.873-6.173 2.669-13.367.91-17.656-4.27z"/></g><g fill="#ff4155"><path d="m192.842 186.64c-1.192 3.513-4.311 13.506-6.016 26.477-3.51 26.712 1.913 44.4 7.079 54.534 8.393 16.46 23.08 27.836 43.672 33.826-.22 3.136-.194 11.104 4.949 16.359 3.717 3.797 9.25 5.32 16.454 4.547l8.065 7.141-.13-160.689c-.622-.006-1.241-.021-1.864-.02-26.272.054-51.078 6.337-73.035 17.436.275.129.545.263.826.389z"/><path d="m268.804 331.082 5.179 4.586 8.043 36.597c-1.35 4.252-12.023 40.355 3.887 70.355 9.304 17.544 25.815 29.796 49.077 36.441 30.62-14.494 56-38.249 72.521-67.653z"/></g><path d="m283.579 372.341-8.236-37.472-8.298-4.806-.002-2.545-7.571-6.704c-23.75 3-20.278-20.437-20.278-20.437-79.028-21.937-44.472-114.563-44.472-114.563-.336-.138-.658-.283-.983-.426-13.23 6.492-25.453 14.719-36.367 24.394-4.343 3.85-9.919 6.016-15.722 6.016h-72.135c-13.89 0-25.15 11.26-25.15 25.15 0 12.277 8.799 22.493 20.433 24.702h61.597c13.89 0 25.15 11.26 25.15 25.15 0 13.89-11.26 25.15-25.15 25.15h-39.934c11.634 2.209 20.433 12.425 20.433 24.702s-8.799 22.493-20.433 24.702h39.934c13.89 0 25.15 11.26 25.15 25.15 0 13.89-11.26 25.15-25.15 25.15h-45.814c-11.634 2.209-20.433 12.425-20.433 24.702 0 13.89 11.26 25.15 25.15 25.15h79.991c4.447 0 8.815 1.238 12.563 3.631 25.284 16.143 55.316 25.506 87.538 25.506 25.701 0 50-5.972 71.616-16.573-82.147-22.248-53.427-105.729-53.427-105.729z" fill="#e80054"/><g><path d="m108.894 340.653c0-12.277-8.799-22.493-20.433-24.702h-66.139c-11.634 2.209-20.433 12.425-20.433 24.702s8.799 22.493 20.433 24.702h66.138c11.635-2.209 20.434-12.425 20.434-24.702z" fill="#ff4155"/></g><path d="m265.108 168.815.132 163.053 141.047 81.682c14.042-24.128 22.072-52.187 22.017-82.128-.164-89.636-73.566-162.758-163.196-162.607z" fill="#ff7186"/><path d="m241.588 317.217c3.202 3.397 8.02 4.73 14.316 3.962 18.784-2.286 21.839 16.198 21.96 16.984l.076.506.37.353c.435.417 10.8 10.197 22.264 8.114 6.01-1.09 11.105-5.212 15.18-12.267-5.379-7.197-10.146-14.852-14.417-22.79-3.76-6.99-9.607-12.976-17.27-16.927-15.128-7.8-34.24-4.517-46.566 6.67-.305 3.311-.383 10.654 4.087 15.395z" fill="#deeeff"/><path d="m325.685 346.821c-3.907-4.21-7.522-8.659-10.902-13.281-13.917 25.007-35.436 4.399-35.436 4.399s-3.123-20.75-23.625-18.25-16.528-19.311-16.528-19.311c-3.587 2.909-6.691 6.434-9.074 10.518-11.41 19.559-4.734 44.646 14.855 55.956 6.991 4.036 14.677 5.767 22.184 5.432 13.168-.586 26.361.242 39.211 3.176l13.282 3.034c6.082 1.389 12.36-1.349 15.479-6.752s2.352-12.208-1.892-16.781z" fill="#d3dcfb"/><ellipse cx="265.24" cy="331.869" fill="#a8b7ef" rx="18.336" ry="18.336" transform="matrix(.983 -.186 .186 .983 -56.983 54.991)"/><path d="m299.47 24.09c-4.966-14.034-18.345-24.09-34.08-24.09-15.734 0-29.114 10.056-34.079 24.09z" fill="#bec8f7"/><path d="m303.444 22.173h-49.698c-.737 2.59-1.364 6.654.324 10.382 1.446 3.194 4.272 5.481 8.407 6.805l6.2 25.27c-.39 1.493-1.509 6.949 1.426 11.812.952 1.576 2.242 2.905 3.824 4.011h29.517c7.498 0 13.576-6.078 13.576-13.576v-31.128c0-7.498-6.078-13.576-13.576-13.576z" fill="#deeeff"/><path d="m227.337 22.173c-7.498 0-13.576 6.078-13.576 13.576v31.129c0 7.498 6.078 13.576 13.576 13.576h49.222c-9.914-4.983-6.482-15.8-6.482-15.8l-6.469-26.368c-10.998-3.093-9.695-12.026-8.448-16.113h-27.823z" fill="#d3dcfb"/><g fill="#bec8f7"><path d="m238.568 67.183c-4.232 0-7.663-3.431-7.663-7.663v-16.594c0-4.232 3.431-7.663 7.663-7.663 4.232 0 7.664 3.431 7.664 7.663v16.594c0 4.232-3.431 7.663-7.664 7.663z"/><path d="m265.39 67.183c-4.232 0-7.663-3.431-7.663-7.663v-16.594c0-4.232 3.431-7.663 7.663-7.663 4.232 0 7.664 3.431 7.664 7.663v16.594c0 4.232-3.431 7.663-7.664 7.663z"/><path d="m292.213 67.183c-4.232 0-7.664-3.431-7.664-7.663v-16.594c0-4.232 3.431-7.663 7.664-7.663 4.232 0 7.663 3.431 7.663 7.663v16.594c0 4.232-3.431 7.663-7.663 7.663z"/></g><path d="m276.559 16.563c4.574 0 8.282-3.708 8.282-8.282 0-1.047-.215-2.038-.57-2.959-3.411-2.095-7.198-3.635-11.234-4.505-2.805 1.326-4.76 4.155-4.76 7.464 0 4.574 3.708 8.282 8.282 8.282z" fill="#d3dcfb"/><path d="m484.652 158.166c-16.952 18.17-27.552 50.72 25.281 99.956-1.275-35.811-10.234-69.66-25.281-99.956z" fill="#56415e"/><path d="m186.38 34.921c-26.214 8.89-50.431 22.102-71.814 38.779 38.406 26.927 91.793 51.46 71.814-38.779z" fill="#56415e"/><path d="m415.417 73.521c-21.449-16.688-45.741-29.893-72.035-38.752-20.117 90.62 33.59 65.764 72.035 38.752z" fill="#56415e"/></g></svg>