<svg id="Layer_1" enable-background="new 0 0 511.997 511.997" height="512" viewBox="0 0 511.997 511.997" width="512" xmlns="http://www.w3.org/2000/svg"><g><path d="m457.388 406.531c27.488-39.598 43.612-87.681 43.612-139.536 0-135.311-109.691-245.002-245.002-245.002s-245.001 109.692-245.001 245.002c0 51.856 16.124 99.939 43.613 139.537z" fill="#92c357"/><path d="m455.599 379.667c-1.331-31.685-11.944-88.119-70.17-92.879-5.982-.489-9.165-2.81-16.215-6.785-1.603-.904-3.21-1.778-4.82-2.64 1.31 2.834 2.039 5.947 2.089 9.182.235 15.233.046 44.439-3.861 68.884-.85 5.319-4.74 9.695-9.909 11.148l-18.719 5.259c-2.715.763-4.102 3.779-2.911 6.338l12.893 27.685c1.844 3.96 2.233 8.469 1.094 12.698-3.9 14.474-14.286 48.442-34.562 87.345 29.031-6.596 56.091-18.36 80.187-34.253l34.505-27.497c11.942-11.411 22.74-24.01 32.188-37.62-.795-8.94-1.412-17.894-1.789-26.865z" fill="#3c58a0"/><path d="m297.056 342.711c-1.695 1.841-4.503 2.133-6.533.669l-26.164-22.341c-1.209-.872-1.882-2.167-2.011-3.514h-12.698c-.13 1.347-.803 2.642-2.012 3.514l-26.164 22.341c-2.03 1.464-4.838 1.172-6.533-.669-4.468-4.854-8.486-9.714-12.122-14.537-.085 1.328-.119 2.69-.089 4.095-2.06.356-4.668 1.49-5.824 4.159-.246-.019-.535-.039-.846-.059 12.65 75.188 27.483 135.789 37.439 172.59 7.411.675 14.911 1.038 22.498 1.038 7.639 0 15.192-.368 22.653-1.052 19.442-71.498 32.833-145.138 40.834-195.935-5.874 9.668-13.222 19.7-22.428 29.701z" fill="#d3dcfb"/><path d="m204.279 333.637c-.061-1.251-.06-2.44-.032-3.601-4.582-5.922-8.583-11.799-12.047-17.543 1.341 8.641 2.718 17.107 4.121 25.402 1.053.07 1.641.133 1.641.133.977-4.474 6.317-4.391 6.317-4.391z" fill="#bec8f7"/><path d="m168.02 405.86 12.894-27.685c1.191-2.557-.194-5.575-2.911-6.337l-18.719-5.26c-5.169-1.453-9.059-5.829-9.909-11.148-.481-3.011-.905-6.094-1.28-9.214-3.381 1.934-6.651 4.22-9.691 6.945-12.09 10.836-18.22 26.434-18.22 46.36v71.383c24.41 16.293 51.901 28.332 81.428 35.025-12.304-23.598-25.489-53.242-34.685-87.372-1.139-4.228-.751-8.738 1.093-12.697z" fill="#3c58a0"/><path d="m121.683 399.521c0-27.791 12.075-43.194 26.613-51.677-2.861-22.655-2.994-47.614-2.783-61.299.05-3.235.779-6.348 2.089-9.182-1.609.861-3.216 1.736-4.82 2.64-7.05 3.975-10.233 6.296-16.215 6.785-58.224 4.76-68.838 61.192-70.17 92.877-.377 8.971-.993 17.926-1.789 26.867 17.946 25.853 40.747 48.074 67.074 65.369.001-18.582.001-43.084.001-72.38z" fill="#2a428c"/><path d="m302.356 220.298c-4.682 5.454-9.596 10.016-14.292 13.662-9.149 7.104-20.438 10.963-32.065 10.963-1.32 0-2.635-.057-3.945-.155-.381 14.498-3.942 36.994-20.297 53.648-.447.039-1.137.117-1.985.25 4.939 6.398 10.702 12.873 17.439 19.271 1.202 1.142 1.087 2.436 1.274 3.124h15.026c.18-.662.072-1.983 1.274-3.124 26.371-25.046 37.897-51.261 42.932-69.447-3.842-8.865-5.072-19.795-5.361-28.192z" fill="#ffaa7b"/><path d="m223.933 233.961c-4.696-3.646-9.61-8.209-14.292-13.662-.289 8.396-1.519 19.325-5.362 28.191 3.84 13.87 11.464 32.412 26.563 51.542.99-.13 1.583-.159 1.583-.159 17.092-17.092 20.789-40.158 21.166-55.008-10.771-.495-21.142-4.292-29.658-10.904z" fill="#fc9460"/><path d="m257.463.027c-9.387 6.821-26.735 24.149-11.542 51.782.255.464.488.931.718 1.398 6.445 1.915 13.34 1.834 19.734-.292 10.362-3.446 26.611-6.897 39.857-.937 15.591 7.016 14.285 28.477 13.425 40.353-.299 4.129.682 8.271 2.914 11.772 1.318 2.067 2.363 4.259 3.193 6.423 1.031 2.69 1.765 7.238 2.218 10.061 2.393-1.159 7.581-2.422 10.508-2.009.358-12.415 1.504-27.567 1.504-27.567 12.273-60.11-36.351-89.935-82.529-90.984z" fill="#fff6d2"/><path d="m259.378.089c-6.38-.254-12.73.036-18.884.875-46.558 6.344-50.983 32.74-51.004 42.425-.005 2.031-1.13 3.913-2.956 4.802-24.218 11.781-11.161 70.33-11.161 70.33 2.432.162 6.745 1.147 8.644 2.066.465-2.894 1.224-7.509 2.296-10.263.817-2.098 1.838-4.218 3.114-6.22 2.215-3.475 3.224-7.574 2.923-11.671-.87-11.846-2.219-33.419 13.417-40.455 13.246-5.96 29.495-2.509 39.857.937 1.086.361 2.19.642 3.301.887-.311-.667-.641-1.332-1.004-1.992-15.147-27.55 2.051-44.858 11.457-51.721z" fill="#ffe98d"/><path d="m343.72 118.423c-3.626-3.323-11.733-1.639-14.856.396.684 4.261.723 8.619.132 12.924l-3.686 26.842c0 2.164-.068 4.287-.194 6.373 8.987 2.711 14.335-5.357 15.087-10.894.324-2.383.853-4.733 1.587-7.025 2.392-7.466 11.016-20.29 1.93-28.616z" fill="#ffaa7b"/><path d="m168.277 118.423c3.626-3.323 11.733-1.639 14.856.396-.684 4.261-.723 8.619-.132 12.924l3.686 26.842c0 2.164.068 4.287.194 6.373-8.987 2.711-14.335-5.357-15.087-10.894-.324-2.383-.853-4.733-1.587-7.025-2.391-7.466-11.015-20.29-1.93-28.616z" fill="#fc9460"/><path d="m327.529 110.527c-.829-2.165-1.875-4.356-3.193-6.423-2.232-3.501-3.214-7.643-2.914-11.772.86-11.877.399-35.105-15.192-42.121-13.246-5.96-29.493-2.509-39.855.937-6.729 2.238-14.022 2.238-20.752 0-.052-.017-.108-.034-.16-.051-11.287 9.366-11.55 29.392-10.76 40.148.307 4.187-.723 8.374-2.985 11.923-1.304 2.046-2.347 4.211-3.181 6.354-2.706 6.952-3.495 14.492-2.482 21.875l3.766 27.428c0 39.432 21.049 66.233 38.954 80.137 2.396 1.86 4.942 3.49 7.595 4.903 4.155-1.753 8.093-4.039 11.694-6.836 17.526-13.61 38.131-39.845 38.131-78.444l3.686-26.842c.982-7.156.236-14.465-2.352-21.216z" fill="#ffc7ab"/><g><path d="m268.98 237.029c-17.526-13.61-38.131-39.845-38.131-78.444l-3.686-26.848c-.992-7.227-.22-14.608 2.429-21.413.817-2.098 1.838-4.218 3.114-6.22 2.215-3.475 3.223-7.574 2.922-11.671-.813-11.065-.497-32.157 12.293-40.623-.772-.196-1.54-.41-2.299-.663-10.362-3.446-26.61-6.896-39.855-.937-15.636 7.036-16.055 30.377-15.185 42.222.301 4.098-.707 8.197-2.922 11.671-1.276 2.002-2.297 4.122-3.114 6.22-2.649 6.805-3.422 14.186-2.429 21.413l3.686 26.848c0 38.599 20.604 64.834 38.131 78.444 9.148 7.104 20.438 10.963 32.065 10.963 7.847 0 15.538-1.764 22.523-5.091-3.365-1.601-6.568-3.561-9.542-5.871z" fill="#ffaa7b"/></g><path d="m287.125 476.444-13.11-118.499c-11.824-2.997-24.209-2.997-36.033 0l-13.11 118.499c2.802 11.5 5.753 23.047 8.857 34.539 7.335.667 14.761 1.015 22.27 1.015 7.508 0 14.935-.348 22.269-1.015 3.104-11.493 6.056-23.039 8.857-34.539z" fill="#ff7186"/><path d="m264.359 321.04c-1.209-.872-1.882-2.167-2.011-3.514h-12.698c-.13 1.347-.803 2.642-2.012 3.514l-17.269 14.746 7.613 22.159c11.512 4.894 24.52 4.894 36.033 0l7.613-22.159z" fill="#ff4155"/><path d="m231.32 298.46c-3.253.341-13.428 2.027-20.787 10.093-5.269 5.774-7.885 13.521-7.805 23.043 3.661 4.86 7.711 9.759 12.213 14.65 1.695 1.842 4.503 2.133 6.533.669l26.164-22.341c2.517-1.814 2.736-5.462.486-7.599-6.474-6.148-12.026-12.373-16.804-18.515z" fill="#e9efff"/><path d="m198.624 242.861-15.252 6.523c-8.042 2.86-12.677 11.314-10.686 19.613 4.061 16.928 12.808 40.381 31.592 64.631-1.576-32.482 28.147-33.755 28.147-33.755-16.478-20.699-23.978-40.593-27.365-53.581-.733-2.812-3.698-4.405-6.436-3.431z" fill="#d3dcfb"/><path d="m313.373 242.861 15.252 6.523c8.041 2.86 12.677 11.314 10.686 19.613-4.763 19.855-15.961 48.684-42.255 77.249-1.695 1.841-4.503 2.133-6.533.669l-26.164-22.341c-2.517-1.814-2.736-5.462-.486-7.599 27.754-26.359 38.747-54.13 43.064-70.685.733-2.81 3.699-4.403 6.436-3.429z" fill="#e9efff"/><g fill="#4f71b6"><path d="m196.907 336.428c-5.778-.447-30.182-1.491-50.059 10.514.36 2.942.762 5.851 1.217 8.696.934 5.843 5.164 10.615 10.86 12.215l18.72 5.259c1.93.542 2.914 2.685 2.067 4.501l-12.893 27.685c-1.982 4.256-2.393 9.07-1.172 13.603 3.83 14.213 14.095 47.898 34.143 86.607 11.548 2.711 23.413 4.598 35.526 5.611-17.028-62.146-29.499-126.338-37.804-175.763-.226.33-.435.679-.605 1.072z"/><path d="m184.8 248.989c-.058-.483-.577-.76-1.008-.532-3.508 1.857-16.849 9.143-30.26 19.438-5.8 4.452-9.232 11.319-9.344 18.63-.219 14.196-.061 39.319 2.865 62.064 22.194-13.703 50.909-10.559 50.909-10.559 0-.001.001-.002.001-.002-8.146-48.128-12.419-82.83-13.163-89.039z"/><path d="m332.285 377.614c-.283-.607-.345-1.246-.253-1.854-14.216 8.578-22.451-1.396-24.045-3.621-7.875 42.479-18.251 91.33-31.307 138.98 12.114-1.013 23.978-2.9 35.527-5.611 20.048-38.708 30.314-72.394 34.143-86.607 1.221-4.533.81-9.347-1.172-13.603z"/></g><g><path d="m178.079 231.84c3.617-5.981 5.701-12.994 5.701-20.494 0-21.903-17.756-39.659-39.659-39.659s-39.659 17.756-39.659 39.659c0 7.5 2.083 14.513 5.701 20.494z" fill="#4f71b6"/></g><path d="m157.031 313.19c-7.54-.036-13.562 6.267-13.182 13.797.425 8.43.943 19.006 1.253 26.385.242 5.764 3.12 11.091 7.805 14.457l7.032 5.051c.802-1.747 1.341-3.645 1.527-5.658l4.989-54.013c-4.546-.008-8.315-.014-9.424-.019z" fill="#e9efff"/><path d="m153.497 366.741c-4.502-3.233-7.267-8.352-7.499-13.889-.298-7.089-.795-17.25-1.204-25.35-.365-7.235 5.42-13.29 12.665-13.256 3.044.014 6.177.037 8.895.06l1.581-17.114h-47.629l6.468 70.03c.828 8.962 8.346 15.819 17.347 15.819 7.419 0 13.82-4.663 16.308-11.32z" fill="#d3dcfb"/><path d="m179.126 230.072h-39.265s-5.225 5.38 0 10.606c0 0-.694.643-1.534 1.767h48.408v-4.764c0-4.201-3.407-7.609-7.609-7.609z" fill="#3c58a0"/><path d="m109.115 230.072c-4.202 0-7.609 3.407-7.609 7.609v4.764h38.821c.84-1.124 1.534-1.767 1.534-1.767-5.225-5.226 0-10.606 0-10.606z" fill="#2a428c"/><path d="m191.203 240.678h-51.342s-10.089 9.309 0 19.398v17.287s-13.67 8.839 0 22.509h51.342c5.652 0 10.234-4.583 10.234-10.234v-38.726c0-5.652-4.582-10.234-10.234-10.234z" fill="#49b1f7"/><path d="m141.861 240.678h-44.823c-5.652 0-10.234 4.582-10.234 10.234v38.726c0 5.652 4.582 10.234 10.234 10.234h44.823c-13.67-13.67 0-22.509 0-22.509v-17.287c-10.089-10.089 0-19.398 0-19.398z" fill="#1e9ef4"/><path d="m162.051 277.363h-35.861c-4.754 0-8.644-3.889-8.644-8.643 0-4.754 3.89-8.644 8.644-8.644h35.861c4.754 0 8.643 3.89 8.643 8.644 0 4.754-3.889 8.643-8.643 8.643z" fill="#73c3f9"/><path d="m501.001 266.995c0-74.285-33.066-140.842-85.276-185.773-21.689 19.107-47.848 50.442-47.848 90.464 0 68.359 22.151 77.087 51.484 88.39 25.131 9.684 56.62 31.022 65.128 95.469 10.656-27.463 16.512-57.32 16.512-88.55z" fill="#b4d667"/><path d="m119.709 63.38c-65.557 43.967-108.712 118.749-108.712 203.615 0 20.334 2.49 40.084 7.161 58.974 22.236-8.755 32.536-36.526 32.536-69.972 0-47.382 18.82-71.798 62-114.978 25.976-25.975 17.718-57.02 7.015-77.639z" fill="#b4d667"/><circle cx="152.694" cy="197.712" fill="#6289cc" r="13"/><path d="m390.694 407.985v63.664c12.324-8.129 23.873-17.337 34.506-27.497-.711-17.347-3.743-30.763-7.737-41.084-5.547-14.333-26.769-10.451-26.769 4.917z" fill="#2a428c"/><path d="m334.353 373.113 18.72-5.259c5.696-1.601 9.926-6.372 10.86-12.215 3.901-24.415 4.119-53.431 3.877-69.113-.113-7.311-3.544-14.179-9.344-18.63-13.411-10.295-26.752-17.581-30.26-19.438-.43-.227-.95.049-1.008.532-.917 7.659-7.201 58.645-19.501 124.723v.001s8.513 13.804 24.589 3.901c-.847-1.817.137-3.96 2.067-4.502z" fill="#6289cc"/></g></svg>