<svg id="Capa_1" enable-background="new 0 0 512 512" height="512" viewBox="0 0 512 512" width="512" xmlns="http://www.w3.org/2000/svg"><g><path d="m0 256.05c0-141.357 114.615-255.949 255.999-255.95 141.325 0 256.398 115.39 256 256.687-.276 98.033-55.678 183.103-136.845 225.856-4.212 2.218-9.215 2.281-13.551.316-32.196-14.595-67.951-22.723-105.604-22.723-37.715 0-73.525 8.154-105.763 22.795-4.232 1.922-9.118 1.859-13.231-.304-81.457-42.832-137.005-128.269-137.005-226.677z" fill="#07a9f0"/><path d="m512 256.05c0 46.575-12.443 90.245-34.187 127.868h-98.597c-5.523 0-10-4.476-10-9.998v-253.533c0-5.521 4.477-9.998 10-9.998h87.312c28.672 41.345 45.472 91.541 45.472 145.661zm-291.717-145.661h-166.533c-5.523 0-10 4.477-10 9.998v253.533c0 5.522 4.477 9.998 10 9.998h166.533c5.523 0 10-4.476 10-9.998v-253.533c0-5.521-4.477-9.998-10-9.998z" fill="#0691ce"/><path d="m43.673 332.681h-33.673c-5.523 0-10-4.476-10-9.998v-253.533c0-5.521 4.477-9.998 10-9.998h33.673c-5.523 0-10 4.477-10 9.998v253.532c0 5.523 4.478 9.999 10 9.999z" fill="#eac23f"/><path d="m39.405 59.152h137.128c5.523 0 10 4.477 10 10v253.528c0 5.523-4.477 10-10 10h-137.128c-5.523 0-10-4.477-10-10v-253.528c0-5.522 4.477-10 10-10z" fill="#e9cc5a"/><path d="m148.408 265.903c0 4.142-3.358 7.499-7.5 7.499h-95.283c-4.142 0-7.5-3.357-7.5-7.498 0-4.141 3.358-7.499 7.5-7.499h95.282c4.143-.001 7.501 3.357 7.501 7.498zm-126.503-114.333c-4.142 0-7.5 3.357-7.5 7.499v9.509c0 4.141 3.358 7.499 7.5 7.499s7.5-3.357 7.5-7.499v-9.509c0-4.141-3.358-7.499-7.5-7.499zm31.25 24.507c4.142 0 7.5-3.357 7.5-7.499v-9.509c0-4.141-3.358-7.499-7.5-7.499s-7.5 3.357-7.5 7.499v9.509c0 4.141 3.358 7.499 7.5 7.499zm87.753 51.083h-95.283c-4.142 0-7.5 3.358-7.5 7.499 0 4.142 3.358 7.498 7.5 7.498h95.282c4.142 0 7.5-3.356 7.5-7.498.001-4.141-3.357-7.499-7.499-7.499zm0-31.243h-95.283c-4.142 0-7.5 3.357-7.5 7.499 0 4.141 3.358 7.498 7.5 7.498h95.282c4.142 0 7.5-3.357 7.5-7.498.001-4.142-3.357-7.499-7.499-7.499z" fill="#c3a01a"/><path d="m369.14 332.681h-33.673c-5.523 0-10-4.476-10-9.998v-253.533c0-5.521 4.477-9.998 10-9.998h33.673c-5.523 0-10 4.477-10 9.998v253.532c0 5.523 4.477 9.999 10 9.999z" fill="#e5554e"/><path d="m354.872 69.152v253.528c0 5.523 4.477 10 10 10h137.128c5.523 0 10-4.477 10-10v-253.528c0-5.523-4.477-10-10-10h-137.128c-5.523 0-10 4.478-10 10z" fill="#f76c57"/><path d="m466.375 195.916h-95.282c-4.142 0-7.5 3.358-7.5 7.499 0 4.141 3.358 7.498 7.5 7.498h95.282c4.142 0 7.5-3.357 7.5-7.498 0-4.141-3.358-7.499-7.5-7.499zm0 31.244h-95.282c-4.142 0-7.5 3.358-7.5 7.499 0 4.141 3.358 7.498 7.5 7.498h95.282c4.142 0 7.5-3.357 7.5-7.498 0-4.141-3.358-7.499-7.5-7.499zm0 31.244h-95.282c-4.142 0-7.5 3.358-7.5 7.499 0 4.141 3.358 7.498 7.5 7.498h95.282c4.142 0 7.5-3.357 7.5-7.498 0-4.141-3.358-7.499-7.5-7.499zm-11.991 34.865c-4.142 0-7.5 3.357-7.5 7.499v9.508c0 4.141 3.358 7.499 7.5 7.499s7.5-3.357 7.5-7.499v-9.508c0-4.142-3.358-7.499-7.5-7.499zm31.25 0c-4.142 0-7.5 3.357-7.5 7.499v9.508c0 4.141 3.358 7.499 7.5 7.499s7.5-3.357 7.5-7.499v-9.508c0-4.142-3.358-7.499-7.5-7.499z" fill="#cc4646"/><path d="m218.475 170.067v292.527c0 24.511-23.738 42.463-47.111 35.067-.388-.123-.765-.249-1.131-.379-11.836-4.207-23.272-9.26-34.233-15.086v-312.129c0-5.522 4.477-9.998 10-9.998h62.475c5.523 0 10 4.476 10 9.998z" fill="#b4e7fd"/><path d="m376 482.196c-35.792 19.025-76.637 29.804-120 29.804-30.083 0-58.954-5.188-85.767-14.718v-327.215c0-5.522 4.477-9.998 10-9.998h185.767c5.523 0 10 4.476 10 9.998z" fill="#d5f1fe"/><path d="m303.641 427.748h-95.282c-4.142 0-7.5-3.357-7.5-7.499 0-4.141 3.358-7.499 7.5-7.499h95.282c4.142 0 7.5 3.357 7.5 7.499s-3.358 7.499-7.5 7.499zm0-46.241h-95.282c-4.142 0-7.5 3.357-7.5 7.499 0 4.141 3.358 7.499 7.5 7.499h95.282c4.142 0 7.5-3.357 7.5-7.499s-3.358-7.499-7.5-7.499zm-102.782-23.745c0 4.141 3.358 7.499 7.5 7.499h95.282c4.142 0 7.5-3.357 7.5-7.499 0-4.141-3.358-7.499-7.5-7.499h-95.282c-4.142 0-7.5 3.357-7.5 7.499zm-30.626-61.72c-4.142 0-7.5 3.357-7.5 7.499v9.509c0 4.141 3.358 7.499 7.5 7.499s7.5-3.357 7.5-7.499v-9.509c0-4.141-3.357-7.499-7.5-7.499zm168.267 161.421c-4.142 0-7.5 3.357-7.5 7.499v9.509c0 4.141 3.358 7.499 7.5 7.499s7.5-3.357 7.5-7.499v-9.509c0-4.142-3.358-7.499-7.5-7.499zm-31.25 0c-4.142 0-7.5 3.357-7.5 7.499v9.509c0 4.141 3.358 7.499 7.5 7.499s7.5-3.357 7.5-7.499v-9.509c0-4.142-3.358-7.499-7.5-7.499zm-98.267-144.413v-9.509c0-4.141-3.358-7.499-7.5-7.499s-7.5 3.357-7.5 7.499v9.509c0 4.141 3.358 7.499 7.5 7.499 4.143-.001 7.5-3.358 7.5-7.499z" fill="#93dcfc"/><path d="m23.267 69.986c0-39.219 32.266-70.903 71.705-69.966 37.007.879 67.231 30.961 68.267 67.957.583 20.815-7.927 39.653-21.849 52.834-2.1 1.988-5.307 2.23-7.665.557-11.424-8.103-25.384-12.866-40.458-12.866-14.991 0-28.881 4.711-40.27 12.734-2.47 1.74-5.824 1.508-8.011-.576-13.381-12.747-21.719-30.737-21.719-50.674z" fill="#3d4ec6"/><path d="m132.311 49.654v43.362h-78.524v-43.362c0-20.583 16.689-37.27 37.277-37.27h3.971c20.587 0 37.276 16.687 37.276 37.27z" fill="#f5e8b4"/><path d="m91.736 102.417c-11.834 0-21.428 9.592-21.428 21.425v3.452c0 4.383-4.627 7.184-8.541 5.209-6.342-3.201-12.13-7.337-17.183-12.229 1.699-10.134 10.513-17.857 21.132-17.857z" fill="#cc4646"/><path d="m141.95 120.274c-12.598 12.194-29.764 19.698-48.684 19.698-11.615 0-22.568-2.829-32.21-7.833v-8.298c0-11.833 9.594-21.425 21.429-21.425h38.333c10.618.001 19.433 7.724 21.132 17.858z" fill="#e5554e"/><path d="m134.593 64.159v2.768c0 4.078-3.066 7.66-7.136 7.928-.94.062-1.846-.047-2.691-.297-3.751 9.896-12.033 17.563-22.315 20.471v10.134c0 4.89-3.691 9.16-8.572 9.477-5.349.347-9.796-3.888-9.796-9.161v-10.45c-10.281-2.907-18.564-10.575-22.315-20.471-.846.25-1.753.359-2.693.297-4.069-.269-7.134-3.85-7.134-7.928v-2.767c0-4.226 3.426-7.651 7.653-7.651v-6.121c0-6.24 1.698-12.083 4.657-17.093 1.041-1.763 3.09-2.658 5.089-2.214 7.373 1.638 15.453 2.542 23.927 2.542 8.475 0 16.555-.904 23.928-2.542 1.999-.444 4.048.451 5.089 2.214 2.959 5.01 4.657 10.853 4.657 17.093v6.121c4.225-.001 7.652 3.425 7.652 7.65z" fill="#e09380"/><path d="m126.94 50.387v12.242c0 15.154-10.014 27.968-23.786 32.191-13.772-4.223-23.786-17.038-23.786-32.191v-12.242c0-6.633 1.919-12.819 5.232-18.031 8.583-13.504 37.613.813 37.853 1.228 2.854 4.945 4.487 10.683 4.487 16.803z" fill="#faa68e"/><path d="m85.93 60.891c0 2.315-1.877 4.192-4.192 4.192h-4.192c-2.315 0-4.192-1.877-4.192-4.192s1.877-4.191 4.192-4.191h4.192c2.315-.001 4.192 1.876 4.192 4.191zm23.058-4.192h-4.192c-2.315 0-4.193 1.876-4.193 4.191s1.877 4.192 4.193 4.192h4.192c2.315 0 4.192-1.877 4.192-4.192s-1.877-4.191-4.192-4.191z" fill="#915041"/><path d="m99.555 75.98v.42c0 3.472-2.815 6.287-6.289 6.287-3.473 0-6.289-2.815-6.289-6.287v-.42c0-.926.751-1.676 1.677-1.676h9.223c.927 0 1.678.751 1.678 1.676z" fill="#fff5f5"/><path d="m93.267 16.72c12.802 0 23.978 6.784 29.947 16.864-8.944 2.469-19.134 3.867-29.948 3.867-10.813 0-21.003-1.398-29.947-3.867 5.97-10.08 17.146-16.864 29.948-16.864z" fill="#f5e8b4"/><path d="m348.733 70.036c0-39.219 32.266-70.903 71.705-69.966 37.007.879 67.231 30.961 68.267 67.957.583 20.815-7.927 39.653-21.849 52.834-2.1 1.988-5.307 2.23-7.665.557-11.424-8.103-25.384-12.866-40.458-12.866-14.991 0-28.881 4.711-40.27 12.734-2.47 1.74-5.824 1.508-8.011-.576-13.38-12.747-21.719-30.737-21.719-50.674z" fill="#3d4ec6"/><path d="m457.778 25.095v42.45h-78.524v-17.841c0-20.583 16.689-37.269 37.277-37.269h28.584c6.994 0 12.663 5.668 12.663 12.66z" fill="#4c2c21"/><path d="m417.203 102.467c-11.834 0-21.428 9.592-21.428 21.425v3.452c0 4.383-4.627 7.184-8.541 5.209-6.342-3.201-12.13-7.337-17.183-12.229 1.699-10.134 10.513-17.857 21.132-17.857z" fill="#eac23f"/><path d="m467.417 120.324c-12.598 12.194-29.764 19.698-48.684 19.698-11.615 0-22.568-2.829-32.21-7.833v-8.298c0-11.833 9.594-21.425 21.429-21.425h38.333c10.618.001 19.433 7.724 21.132 17.858z" fill="#e9cc5a"/><path d="m460.06 64.209v2.768c0 4.078-3.066 7.66-7.136 7.928-.94.062-1.846-.047-2.691-.297-3.751 9.896-12.033 17.563-22.315 20.471v10.134c0 4.89-3.691 9.16-8.572 9.477-5.349.347-9.796-3.888-9.796-9.161v-10.45c-10.281-2.907-18.564-10.575-22.315-20.471-.846.25-1.753.359-2.694.297-4.069-.269-7.134-3.85-7.134-7.928v-2.767c0-4.226 3.426-7.651 7.653-7.651v-6.121c0-6.24 1.698-12.083 4.657-17.093 1.041-1.763 3.09-2.658 5.089-2.214 7.373 1.638 15.453 2.542 23.927 2.542s16.555-.904 23.928-2.542c1.999-.444 4.048.451 5.089 2.214 2.959 5.01 4.657 10.853 4.657 17.093v6.121c4.226-.001 7.653 3.425 7.653 7.65z" fill="#a65d4e"/><path d="m452.407 50.437v12.242c0 15.154-10.014 27.968-23.786 32.191-13.772-4.223-23.786-17.038-23.786-32.191v-12.242c0-6.633 1.919-12.819 5.232-18.031 8.583-13.504 37.613.813 37.853 1.228 2.854 4.945 4.487 10.683 4.487 16.803z" fill="#b46e5a"/><path d="m425.022 78.545c0 2.315-1.877 4.192-4.193 4.192h-4.192c-2.315 0-4.192-1.877-4.192-4.192s1.877-4.191 4.192-4.191h4.192c2.316 0 4.193 1.876 4.193 4.191zm-13.625-17.604c0 2.315-1.877 4.192-4.193 4.192h-4.192c-2.315 0-4.192-1.877-4.192-4.192s1.877-4.191 4.192-4.191h4.192c2.316 0 4.193 1.876 4.193 4.191zm23.058-4.191h-4.192c-2.315 0-4.193 1.876-4.193 4.191s1.877 4.192 4.193 4.192h4.192c2.315 0 4.192-1.877 4.192-4.192s-1.877-4.191-4.192-4.191z" fill="#915041"/><path d="m418.734 16.77c13.02 0 24.385 6.784 30.457 16.864-9.096 2.469-19.459 3.867-30.457 3.867-10.997 0-21.361-1.398-30.456-3.867 6.07-10.08 17.436-16.864 30.456-16.864z" fill="#4c2c21"/><path d="m166 185.702c0-50.425 41.484-91.161 92.192-89.956 47.581 1.131 86.44 39.807 87.772 87.373.75 26.762-10.192 50.982-28.092 67.93-2.699 2.556-6.823 2.867-9.855.716-14.688-10.418-32.637-16.542-52.017-16.542-19.274 0-37.133 6.057-51.776 16.372-3.175 2.237-7.488 1.938-10.3-.741-17.204-16.389-27.924-39.519-27.924-65.152z" fill="#f1de96"/><path d="m306.2 159.56v55.751h-100.959v-55.751c0-21.918 14.719-40.399 34.814-46.102-.388-.953-.602-1.997-.602-3.089 0-4.532 3.674-8.205 8.206-8.205h16.123c4.532 0 8.206 3.673 8.206 8.205 0 1.093-.214 2.136-.602 3.089 20.095 5.703 34.814 24.184 34.814 46.102z" fill="#4c2c21"/><path d="m254.032 227.399c-15.216 0-27.551 12.332-27.551 27.546v4.438c0 5.635-5.949 9.237-10.981 6.698-8.154-4.115-15.596-9.434-22.093-15.722 2.184-13.03 13.517-22.959 27.17-22.959h33.455z" fill="#3342ae"/><path d="m318.593 250.358c-16.198 15.678-38.268 25.326-62.593 25.326-14.933 0-29.016-3.637-41.413-10.072v-10.668c0-15.213 12.335-27.546 27.551-27.546h49.285c13.653.001 24.986 9.93 27.17 22.96z" fill="#3d4ec6"/><path d="m309.134 178.21v3.558c0 5.244-3.942 9.848-9.175 10.193-1.209.08-2.373-.06-3.46-.382-4.823 12.723-15.472 22.582-28.69 26.319v13.03c0 6.288-4.745 11.778-11.021 12.184-6.877.446-12.594-4.999-12.594-11.779v-13.435c-13.219-3.738-23.868-13.597-28.691-26.319-1.087.322-2.253.462-3.463.381-5.232-.346-9.172-4.95-9.172-10.193v-3.558c0-5.433 4.405-9.837 9.839-9.837v-7.87c0-8.022 2.183-15.535 5.988-21.976 1.339-2.267 3.973-3.418 6.543-2.847 9.479 2.106 19.868 3.268 30.763 3.268 10.896 0 21.285-1.162 30.764-3.269 2.57-.571 5.204.58 6.543 2.847 3.804 6.442 5.988 13.954 5.988 21.977v7.87c5.432.001 9.838 4.405 9.838 9.838z" fill="#d47f6c"/><path d="m299.294 160.503v15.74c0 19.483-12.875 35.959-30.582 41.389-17.707-5.43-30.582-21.906-30.582-41.389v-15.74c0-8.529 2.467-16.481 6.727-23.183 11.035-17.362 48.36 1.045 48.668 1.579 3.67 6.358 5.769 13.736 5.769 21.604z" fill="#e09380"/><path d="m246.567 174.008c0 2.976-2.413 5.389-5.39 5.389h-5.39c-2.977 0-5.39-2.413-5.39-5.389s2.413-5.389 5.39-5.389h5.39c2.977 0 5.39 2.413 5.39 5.389zm29.646-5.389h-5.39c-2.977 0-5.39 2.413-5.39 5.389s2.413 5.389 5.39 5.389h5.39c2.977 0 5.39-2.413 5.39-5.389s-2.413-5.389-5.39-5.389z" fill="#915041"/><path d="m264.085 193.409v.539c0 4.465-3.62 8.084-8.085 8.084s-8.085-3.619-8.085-8.084v-.539c0-1.191.966-2.156 2.156-2.156h11.858c1.191 0 2.156.965 2.156 2.156z" fill="#fff5f5"/><path d="m256 117.217c16.417 0 30.749 8.722 38.404 21.682-11.469 3.175-24.537 4.972-38.405 4.972-13.867 0-26.934-1.797-38.404-4.972 7.657-12.959 21.988-21.682 38.405-21.682z" fill="#4c2c21"/></g></svg>