<svg id="Layer_1" enable-background="new 0 0 512 512" height="512" viewBox="0 0 512 512" width="512" xmlns="http://www.w3.org/2000/svg"><g><path d="m256 21.996c-135.311 0-245.002 109.691-245.002 245.002 0 106.808 68.355 197.637 163.699 231.169l112.232 11.895c120.709-15.205 214.074-118.23 214.074-243.065-.001-135.31-109.692-245.001-245.003-245.001z" fill="#e80054"/><path d="m264.209 256.855h-67.794c3.458 18.375 17.316 35.315 33.897 35.315s30.439-16.94 33.897-35.315z" fill="#ffaa7b"/><g><path d="m278.063 197.09c0 29.336-21.379 60.507-47.751 60.507s-47.751-31.171-47.751-60.507 21.379-48.191 47.751-48.191 47.751 18.856 47.751 48.191z" fill="#ffc7ab"/></g><path d="m91.607 182.346 88.176-34.604c10.47-4.107 22.285 1.047 26.394 11.517 4.109 10.469-1.047 22.286-11.516 26.394l-86.033 33.763 29.508 17.432-11.387 38.852-39.237-21.385c-13.003-6.896-21.08-20.324-21.08-35.043-.001-16.431 9.881-30.925 25.175-36.926z" fill="#ffaa7b"/><path d="m283.458 468.857c-1.294 1.528-3.043 2.681-5.086 3.228-16.194 4.339-33.724 6.347-51.171 6.073 1.337 1.085 2.901 2.044 4.742 2.795-3.021 3.188-8.72 10.428-9.116 20.034-.124 3.015.291 5.999 1.23 8.939 10.455 1.365 21.116 2.074 31.943 2.074 10.476 0 20.798-.661 30.928-1.937z" fill="#4f71b6"/><path d="m182.252 472.086c-2.043-.547-3.792-1.701-5.086-3.23l-2.468 29.312c16.285 5.728 33.358 9.78 51.01 11.963-5.958-17.097 9.043-29.809 9.043-29.809-1.887-.517-3.507-1.25-4.912-2.122-16.257-.039-32.503-2.073-47.587-6.114z" fill="#3c58a0"/><g><g><path d="m258.691 100.631c-1.266 0-2.553-.229-3.804-.713-5.448-2.102-8.16-8.222-6.058-13.671l10.287-26.658c1.01-2.616 3.017-4.724 5.581-5.86 2.563-1.138 5.474-1.209 8.09-.197 4.324 1.667 9.016 1.491 13.213-.501 4.193-1.989 7.301-5.523 8.751-9.951 2.713-8.287-1.493-17.37-9.577-20.678-7.859-3.214-16.882-.061-20.989 7.335-.377.679-.713 1.397-.997 2.133-2.102 5.448-8.222 8.159-13.671 6.059-5.448-2.102-8.161-8.222-6.059-13.671.635-1.645 1.388-3.257 2.239-4.789 9.305-16.755 29.719-23.911 47.484-16.639 18.296 7.486 27.812 28.056 21.665 46.829-3.272 9.994-10.298 17.977-19.782 22.477-6.095 2.891-12.848 4.07-19.48 3.514l-7.027 18.21c-1.618 4.198-5.622 6.771-9.866 6.771z" fill="#ffdd40"/></g></g><g><path d="m248.981 130.525c-1.096 0-2.21-.173-3.308-.534-5.547-1.826-8.563-7.802-6.737-13.349l.207-.629c1.826-5.547 7.805-8.561 13.349-6.736 5.547 1.826 8.563 7.802 6.737 13.349l-.207.629c-1.464 4.449-5.599 7.27-10.041 7.27z" fill="#ffdd40"/></g><g><g><path d="m315.718 133.587c-2.82 0-5.634-1.121-7.715-3.341-3.995-4.26-3.779-10.951.481-14.945l20.845-19.543c4.261-3.996 10.951-3.779 14.945.481 3.171 3.382 7.475 5.26 12.12 5.289h.109c4.599 0 8.891-1.831 12.095-5.163 6.043-6.286 6.199-16.294.355-22.785-5.681-6.309-15.177-7.388-22.091-2.51-.638.45-1.252.951-1.826 1.489-4.26 3.992-10.951 3.778-14.945-.481s-3.779-10.951.481-14.945c1.285-1.205 2.664-2.329 4.098-3.34 15.656-11.051 37.152-8.628 49.998 5.638 13.228 14.689 12.865 37.351-.826 51.591-7.289 7.581-17.054 11.759-27.581 11.654-6.746-.042-13.341-1.912-19.074-5.297l-14.239 13.35c-2.04 1.912-4.638 2.858-7.23 2.858z" fill="#ffdd40"/></g></g><g><path d="m293.981 156.294c-2.644 0-5.29-.985-7.342-2.966-4.201-4.055-4.319-10.749-.264-14.951l.46-.476c4.055-4.201 10.75-4.32 14.951-.263 4.201 4.055 4.319 10.749.264 14.951l-.46.476c-2.075 2.148-4.841 3.229-7.609 3.229z" fill="#ffdd40"/></g><path d="m144.083 130.525c62.153-11.782 65.898-76.477 64.605-103.947-112.668 22.046-197.69 121.296-197.69 240.42 0 76.075 34.684 144.036 89.092 188.968 14.35-12.464 25.678-32.582 25.678-65.069 0-88.667-52.351-81.333-87.685-133.3-35.333-51.967 26.667-112.033 106-127.072z" fill="#ff4155"/><path d="m451.37 119.159c-42.058 14.395-111.331 44.416-99.758 101.072 14.311 70.055 113.047 37.658 142.021 106.58 4.804-19.145 7.369-39.177 7.369-59.812 0-55.537-18.489-106.748-49.632-147.84z" fill="#ff4155"/><path d="m310.916 401.794c3.046 14.947 14.741 26.192 29.795 28.648 14.365 2.345 28.577-3.9 36.495-16.325-37.164-1.477-23.664-37.805-23.664-37.805-1.945 3.361-7.013 2.534-7.788-1.271-2.113-10.311-3.947-19.28-5.54-27.089-3.546 5.972-13.073 16.311-36.693 17.55z" fill="#ffaa7b"/><path d="m425.272 308.839h-7.895c-15.932 0-30.785 8.567-38.766 22.357l-25.07 45.117c-.534.922-1.305 1.518-2.156 1.835-1.508 5.329-4.157 18.482 2.937 27.827 4.419 5.821 11.782 9.021 21.928 9.589.637-.905 1.25-1.835 1.815-2.811l34.715-61.787c.946-1.635 2.707-2.65 4.596-2.65h8.452c11.218 0 20.249-9.357 19.716-20.692-.498-10.617-9.643-18.785-20.272-18.785z" fill="#ffc7ab"/><path d="m328.716 292.951c-8.691-21.927-29.549-36.096-53.136-36.096h-13.018c-3.418 17.084-16.302 33.73-32.251 33.73-1.143 0-2.268-.095-3.377-.26-4.204 6.048-7.449 13.941-7.449 23.905v147.51c.001.145.232 13.139 11.073 18.577 16.333-.02 32.659-2.057 47.814-6.118 4.463-1.195 7.549-5.262 7.468-9.882l-2.329-132.379c0-3.144 2.138-6.002 5.225-6.596 3.604-.694 6.937 1.643 7.638 5.077l7.521 36.912c22.238-1.23 32.419-10.344 36.853-16.765-11.713-57.398-10.994-54.998-12.032-57.615z" fill="#49b1f7"/><path d="m220.985 461.73s0-120 0-147.5c0-10 3.345-17.811 7.597-23.718-15.145-1.148-27.227-17.196-30.52-33.658h-14.276c-2.851 0-5.692-.319-8.471-.952-3.567-.812-6.998-2.133-10.189-3.922l-26.99-15.134c-13.599 17.638-13.351 31.301-11.387 38.852 10.05 5.632 23.365 13.534 33.752 19.692 8.965 5.315 14.8 14.642 15.66 25.029l-1.376 143.899c-.081 4.62 3.005 8.686 7.468 9.882 16.539 4.431 34.471 6.436 52.285 6.056-13.45-3.84-13.553-18.526-13.553-18.526z" fill="#1e9ef4"/></g></svg>