<svg id="Layer_1" enable-background="new 0 0 512 512" height="512" viewBox="0 0 512 512" width="512" xmlns="http://www.w3.org/2000/svg"><g><path d="m256 21.996c-135.311 0-245.003 109.691-245.003 245.002 0 96.965 56.334 180.766 138.055 220.48l83.39 23.39c7.754.74 15.61 1.132 23.558 1.132 20.504 0 40.415-2.534 59.45-7.279l47.497-17.243c81.721-39.714 138.055-123.515 138.055-220.48 0-135.311-109.691-245.002-245.002-245.002z" fill="#47354f"/><path d="m254.357 278.348h154.525v41.184h-154.525z" fill="#deeeff" transform="matrix(0 1 -1 0 630.559 -32.679)"/><path d="m103.118 278.348h154.525v41.184h-154.525z" fill="#bec8f7" transform="matrix(0 1 -1 0 479.321 118.559)"/><path d="m360.893 121.075h-86.231c-7.957 7.008-33.282 31.173-33.282 54.844v54.844h119.513c12.269 0 22.215-9.946 22.215-22.215v-65.258c0-12.269-9.946-22.215-22.215-22.215z" fill="#ff4155"/><path d="m133.262 143.291v65.258c0 12.269 9.946 22.215 22.215 22.215h91.048c0-20.463 0-43.244 0-54.844 0-24.028 30.5-48.653 30.5-48.653l-2.528-6.191h-119.02c-12.269-.001-22.215 9.945-22.215 22.215z" fill="#e80054"/><path d="m290.999 113.589h-69.998c3.57 18.973 17.879 36.463 34.999 36.463s31.429-17.491 34.999-36.463z" fill="#ffaa7b"/><path d="m315.45 504.721c16.563-4.129 32.461-9.936 47.497-17.243v-70.702h-47.497z" fill="#deeeff"/><path d="m196.55 500.946v-84.17h-47.497v70.702c10.922 5.307 22.303 9.812 34.058 13.468z" fill="#bec8f7"/><path d="m369.064 372.064h-96.768c.68.574 1.4 1.136 2.169 1.682-3.16 2.674-9.627 9.239-10.521 18.789-.785 8.368 2.922 16.886 10.997 25.333h94.123c7.724 0 14.044-6.32 14.044-14.044v-17.717c0-7.724-6.32-14.043-14.044-14.043z" fill="#ff4155"/><path d="m133.262 386.107v17.717c0 7.724 6.32 14.044 14.044 14.044h129.72c-26.29-26.29 0-44.217 0-44.217-.83-.521-1.582-1.052-2.3-1.587h-127.42c-7.725 0-14.044 6.319-14.044 14.043z" fill="#e80054"/><path d="m269.008 339.593 1.331 2.289c-2.156 2.248-7.421 8.602-6.712 16.413.517 5.709 4.105 10.866 10.653 15.355h12.64c16.922 0 55.622-36.279 55.622-36.279z" fill="#3c58a0"/><path d="m225.784 373.65h51.242c-23.75-14.547-4.805-31.517-4.805-31.517l-1.507-2.592-44.929 1.357v32.752z" fill="#2a428c"/><g><path d="m120.088 37.187 91.043-35.729c10.81-4.241 23.01 1.081 27.252 11.891 4.243 10.809-1.081 23.011-11.89 27.252l-88.83 34.861 30.467 17.998-11.757 40.116-40.513-22.081c-13.426-7.121-21.766-20.985-21.766-36.182 0-16.963 10.203-31.929 25.994-38.126z" fill="#ffaa7b"/></g><path d="m343.87 93.461-32.835 18.411c-2.008 1.126-4.271 1.717-6.573 1.717h-15.164c-3.53 17.639-16.832 34.826-33.299 34.826-.202 0-.4-.014-.601-.019-5.711 8.2-10.373 17.85-10.373 27.524l.002 95.961c-.029.64-.537 15.152 11.13 20.917-1.94 4.248-6.9 17.076-2.942 30.013 1.1 3.597 2.802 6.896 5.091 9.883 16.177-.182 32.304-2.262 47.317-6.285 4.608-1.235 7.794-5.434 7.711-10.203l-2.223-146.893c-.092-6.559 3.402-12.64 9.119-15.857 7.565-4.257 18.731-10.54 35.398-19.879 2.028-7.798 2.283-21.905-11.758-40.116z" fill="#49b1f7"/><path d="m258.185 292.057c-12.341-4.89-11.659-20.11-11.659-20.11s0-72 0-96.028c0-9.629 4.901-19.349 10.771-27.547-.43.024-.862.042-1.297.042-16.468 0-29.769-17.187-33.298-34.826h-15.165c-2.295 0-4.56-.589-6.572-1.717l-32.835-18.41c-14.041 18.212-13.786 32.318-11.757 40.116 16.666 9.339 27.832 15.622 35.397 19.879 5.717 3.217 9.211 9.297 9.119 15.856l-2.222 146.893c-.084 4.77 3.103 8.969 7.711 10.203 17.029 4.562 35.489 6.633 53.832 6.255-14.395-17.439-2.025-40.606-2.025-40.606z" fill="#1e9ef4"/><path d="m391.912 37.187-2.198-.862c-4.536 1.597-16.365 6.642-20.419 16.981-2.463 6.279-1.583 13.322 2.612 20.964l-.456.06 2.885 1.132-30.466 17.999 11.757 40.116 40.513-22.081c13.426-7.121 21.766-20.985 21.766-36.182 0-16.964-10.203-31.93-25.994-38.127z" fill="#ffc7ab"/><path d="m207.025 419.55c-12.474.58-21.455 11.039-24.627 15.324l.625 66.072c15.842 4.936 32.377 8.296 49.418 9.922l.728-76.964c-8.373-9.937-17.157-14.774-26.144-14.354z" fill="#4f71b6"/><path d="m207.78 307.174c-14.717 0-26.578 12.059-26.336 26.774l.979 103.515s22.762-36.134 50.725-1.229l.967-102.286c.243-14.715-11.618-26.774-26.335-26.774z" fill="#3c58a0"/><path d="m367.167 309.017c-1.154-14.671-14.107-25.551-28.756-24.154l-189.291 16.975c2.762.875 4.823 3.376 4.996 6.428.359 6.338 1.179 18.453 3.001 41.61.002.017.001.035.003.052l185.422-12.555c14.688-.914 25.78-13.685 24.625-28.356z" fill="#6389c6"/><path d="m258.185 292.057-109.065 9.781c2.763.875 4.823 3.376 4.996 6.428.359 6.338 1.179 18.453 3.001 41.61.002.017.001.035.003.052l115.1-7.794c-31.805-16.814-14.035-50.077-14.035-50.077z" fill="#4f71b6"/><path d="m158.209 348.783c-1.822-23.157-2.642-35.272-3.001-41.609-.219-3.871-3.47-6.868-7.346-6.766l-3.684.097c-20.73 0-36.964 17.839-35.014 38.477l3.73 39.482c1.394 14.759 18.91 21.736 30.077 11.986 9.25-8.075 16.862-21.034 15.238-41.667z" fill="#d1714b"/><path d="m54.746 127.267c-27.571 39.635-43.748 87.791-43.748 139.732 0 59.709 21.367 114.421 56.863 156.926 11.38-18.859 19.019-45.053 6.532-76.238-26.132-65.262 22.736-94.738 22.736-156.738 0-32.624-21.761-52.328-42.383-63.682z" fill="#56415e"/><path d="m465.594 140.06c-27.152 20.703-59.779 59.737-59.779 123.819 0 77.407 6.704 134.095 43.359 153.811 32.47-41.561 51.828-93.863 51.828-150.692 0-46.47-12.938-89.917-35.408-126.938z" fill="#56415e"/><path d="m273.617 13.35c-4.243 10.809 1.081 23.011 11.89 27.252l88.83 34.861c-17.521-28.485 17.575-38.275 17.575-38.275l-91.043-35.73c-10.81-4.24-23.01 1.082-27.252 11.892z" fill="#ffaa7b"/><path d="m305.304 51.881c0 30.29-22.074 62.474-49.304 62.474s-49.304-32.184-49.304-62.474 22.074-49.758 49.304-49.758 49.304 19.468 49.304 49.758z" fill="#ffc7ab"/></g></svg>