<svg id="Capa_1" enable-background="new 0 0 512 512" height="512" viewBox="0 0 512 512" width="512" xmlns="http://www.w3.org/2000/svg"><g><path d="m495.523 215.317c-23.727-110.489-121.944-193.321-239.523-193.321s-215.796 82.832-239.523 193.321l28.583 176.343c42.663 72.033 121.154 120.34 210.94 120.34s168.277-48.307 210.939-120.34z" fill="#9957bc"/><path d="m386.427 376.271-16.77-13.893-73.199-61.112c-17.958-14.164-38.202-14.23-47.099-13.4-2.737.255-5.232 1.685-6.849 3.908-15.565 21.404-31.447 16.337-40.967 9.787-4.675-3.217-5.325-9.891-1.456-14.041 6.603-7.082 12.74-17.962 20.149-29.569l-41.748 13.991c-12.373 4.382-32.907 1.492-48.104-1.749 1.285 22.02.562 69.839-24.158 110.825l25.53 6.097c5.535 1.322 10.63 4.01 14.953 7.711 14.958 12.801 36.531 24.213 56.071 33.003 17.15 8.328 54.59 23.752 67.737 29.125 3.431 1.402 7.327 1.343 10.635-.329 6.597-3.336 8.371-10.509 5.931-16.148-.215-.498-.01-1.079.451-1.364.347-.215.789-.221 1.145-.02 3.936 2.225 7.451 4.122 10.241 5.59 4.711 2.478 10.394 2.487 15.01-.164 7.704-4.423 9.794-13.096 6.859-19.979-.255-.599-.016-1.294.54-1.633.436-.266.99-.256 1.419.02 3.012 1.938 5.747 3.677 8.075 5.145 6.092 3.841 13.895 3.97 19.969.099 9.029-5.754 10.887-16.591 6.509-24.671-.254-.47-.134-1.052.306-1.356.355-.245.824-.243 1.177.004l4.857 3.409c7.708 5.41 18.351 4.409 24.634-2.605 7.589-8.472 5.819-20.329-1.848-26.681z" fill="#ffc7ab"/><path d="m320.08 320.988c32.964-11.932 26.691-42.804 21.827-56.845-18.011-6.961-42.864-19.179-62.574-17.944-23.615 1.479-49.023-4.029-59.097 11.752-7.41 11.609-13.548 22.491-20.152 29.573-3.881 4.162-3.206 10.833 1.485 14.055 9.511 6.534 25.353 11.569 40.887-9.73 1.64-2.249 4.137-3.725 6.909-3.983 8.899-.829 29.139-.762 47.094 13.4z" fill="#ffaa7b"/><path d="m381.701 268.829c-7.057 1.021-18.834 1.846-30.176-1.364-3.411-.965-7.304-2.398-11.531-4.069 4.823 14.075 10.774 44.378-21.364 56.382l51.027 42.6 16.77 13.893c3.73 3.09 6.059 7.484 6.598 12.157 3.771-2.119 8.806-4.172 13.657-5.92-26.15-42.177-26.387-92.071-24.981-113.679z" fill="#f7965b"/><path d="m226.881 270.016-10.397-6.103c-5.802 9.309-10.943 17.759-16.4 23.611-1.386 1.486-2.181 3.294-2.429 5.149 18.65 6.323 28.018-5.201 32.056-13.061 1.763-3.431.496-7.643-2.83-9.596z" fill="#fcdcc8"/><g fill="#ffaa7b"><path d="m226.492 414.742-10.752 18.753c-4.465 7.786-1.771 17.718 6.015 22.182 7.787 4.464 17.718 1.771 22.183-6.015l10.752-18.753c4.465-7.786 1.771-17.718-6.015-22.182-7.787-4.464-17.718-1.771-22.183 6.015z"/><path d="m196.667 402.971-10.752 18.753c-4.465 7.786-1.771 17.718 6.015 22.182 7.786 4.465 17.718 1.772 22.182-6.015l10.752-18.753c4.465-7.786 1.771-17.718-6.015-22.182-7.786-4.465-17.717-1.772-22.182 6.015z"/><path d="m168.241 388.76-10.752 18.752c-4.465 7.786-1.771 17.718 6.015 22.182 7.786 4.464 17.718 1.771 22.182-6.015l10.752-18.752c4.465-7.787 1.772-17.718-6.015-22.182-7.786-4.465-17.717-1.772-22.182 6.015z"/><path d="m140.937 372.592-10.752 18.753c-4.464 7.787-1.771 17.718 6.015 22.182 7.787 4.465 17.718 1.772 22.182-6.015l10.752-18.752c4.465-7.787 1.771-17.718-6.015-22.182-7.786-4.465-17.718-1.772-22.182 6.014z"/></g><path d="m76.926 303.476c.293-.106.583-.202.878-.312 2.106 3.939 9.41 15.845 22.409 19.516 9.132 2.579 19.049.486 29.489-6.194 3.188-21.685 2.543-40.324 1.74-50.437-.384-4.838-3.73-8.925-8.393-10.27l-46.252-13.336c.299.983.519 1.999.634 3.048 1.318 12.042 2.581 33.172-.505 57.985z" fill="#f9f2f2"/><path d="m92.187 391.552c4.588.864 9.255-1.089 11.852-4.97 15.615-23.343 22.829-49.471 25.938-72.056-34.687 23.188-51.445-13.247-51.445-13.247-.476.186-.944.356-1.415.53-2.961 25.231-10.368 54.439-26.851 81.848z" fill="#efe1de"/><path d="m384.817 328.487c4.493 3.193 16.384 10.411 29.243 8.061 8.891-1.625 16.406-7.505 22.355-17.484.35.165.771.358 1.248.57-6.193-31.641-4.692-59.56-3.094-74.144.115-1.049.335-2.065.634-3.048l-46.252 13.336c-4.663 1.344-8.009 5.432-8.393 10.27-.959 12.068-1.695 36.274 4.046 63.316z" fill="#f9f2f2"/><path d="m419.813 391.552 41.921-7.895c-13.095-21.773-20.468-44.69-24.431-65.841-.955-.441-1.48-.717-1.48-.717-19.996 35.407-51.878 8.85-51.921 8.815 3.825 19.706 11.009 41.162 24.059 60.669 2.596 3.879 7.263 5.833 11.852 4.969z" fill="#efe1de"/><path d="m78.64 299.47c-25.605 9.542-44.313 2.77-55.562-4.679-4.715-3.123-8.502-6.574-11.413-9.679 2.832 38.708 14.659 74.914 33.395 106.549 1.765-1.215 3.317-2.798 4.526-4.712 18.412-29.142 26.239-60.615 29.129-87.34-.022-.044-.053-.098-.075-.139z" fill="#2a428b"/><path d="m436.416 319.064c5.324 2.515 25.804 11.035 45.986 3.934 5.053-1.777 9.676-4.399 13.856-7.849 3.106-15.569 4.744-31.668 4.744-48.151 0-17.732-1.901-35.018-5.479-51.681l-51.213 16.377c-6.015 1.923-10.376 7.332-11.083 13.796-1.592 14.539-3.1 42.324 3.023 73.842.054-.091.111-.176.166-.268z" fill="#02c0fc"/><path d="m435.838 317.106c4.125 22.417 12.051 46.853 26.576 69.843 1.209 1.914 2.761 3.497 4.526 4.712 14.202-23.978 24.438-50.583 29.794-78.913-25.499 22.825-60.376 4.631-60.896 4.358z" fill="#27a6ff"/><path d="m352.885 426.614-51.605-38.91c-3.545-2.673-8.585-1.966-11.258 1.579s-1.966 8.585 1.579 11.258l29.697 22.392c.011-.007.017-.019.029-.025.436-.266.99-.256 1.419.02 3.012 1.938 5.747 3.677 8.075 5.145 6.092 3.841 13.895 3.97 19.969.099.754-.483 1.44-1.011 2.095-1.558z" fill="#ffaa7b"/><path d="m288.677 439.091c3.936 2.225 7.451 4.122 10.241 5.59 4.711 2.478 10.394 2.487 15.01-.164 1.32-.758 2.463-1.648 3.456-2.625l-34.99-26.473c-3.54-2.679-8.582-1.981-11.26 1.56-2.678 3.54-1.98 8.582 1.56 11.26l14.622 11.063c.066-.069.131-.14.215-.192.348-.215.79-.22 1.146-.019z" fill="#ffaa7b"/><path d="m324.703 357.756c-3.572-2.638-8.605-1.88-11.241 1.691-2.637 3.571-1.88 8.604 1.691 11.241l42.538 31.414c.342-.192.765-.183 1.091.046l4.857 3.409c7.316 5.135 17.269 4.483 23.636-1.592z" fill="#ffaa7b"/><path d="m377.891 175.88-.107-.311-11.919-11.268c-8.422-7.96-4.966-21.29 10.562-23.267l1.124-.08-4.684-4.684c-5.01-5.011-13.134-5.011-18.144 0l-32.059 32.059c-5.011 5.01-5.011 13.134 0 18.144 5.01 5.011 13.134 5.011 18.144 0l10.157-10.157v30.968c0 7.086 5.744 12.83 12.83 12.83s12.83-5.744 12.83-12.83v-30.968l2.169 2.168c-.304-.871-.606-1.741-.903-2.604z" fill="#47cb8f"/><path d="m366.707 99.96c-2.477-5.496-2.698-9.936-.658-13.199 3.75-5.996 14.011-6.47 14.472-6.488h1.316l-8.971-8.971c-5.01-5.011-13.134-5.011-18.144 0l-32.058 32.059c-5.011 5.01-5.011 13.134 0 18.144 5.009 5.011 13.134 5.011 18.144 0l21.296-20.994c.938-.924 2.444-.924 3.382 0l2.909 2.868c-.602-1.123-1.167-2.262-1.688-3.419z" fill="#94dc79"/><path d="m404.925 121.504c5.011-5.01 5.011-13.134 0-18.144l-24.427-24.427s-24.431.68-15.013 21.577l21.296 20.994c5.009 5.01 13.134 5.011 18.144 0z" fill="#d2f09e"/><path d="m404.925 186.472c5.011-5.01 5.011-13.134 0-18.144l-28.628-28.628s-15.871 1.821-16.227 14.237c-.123 4.288 1.757 8.391 4.874 11.338l11.68 11.041 10.157 10.157c5.009 5.009 13.134 5.01 18.144-.001z" fill="#94dc79"/><path d="m270.097 108.336-.107-.311-11.92-11.268c-8.422-7.96-4.967-21.29 10.562-23.267l1.124-.08-4.684-4.684c-5.01-5.011-13.134-5.011-18.144 0l-32.059 32.059c-5.011 5.01-5.011 13.134 0 18.144 5.01 5.011 13.134 5.011 18.144 0l10.157-10.157v30.968c0 7.086 5.744 12.83 12.83 12.83s12.83-5.744 12.83-12.83v-30.968l2.168 2.168c-.303-.871-.604-1.74-.901-2.604z" fill="#47cb8f"/><path d="m258.913 32.416c-2.477-5.496-2.698-9.937-.658-13.199 3.75-5.996 14.011-6.47 14.472-6.488h1.316l-8.971-8.972c-5.01-5.011-13.134-5.011-18.144 0l-32.058 32.059c-5.011 5.01-5.011 13.134 0 18.144 5.01 5.011 13.134 5.011 18.144 0l21.296-20.994c.938-.924 2.444-.924 3.382 0l2.909 2.868c-.602-1.121-1.167-2.261-1.688-3.418z" fill="#94dc79"/><path d="m297.131 53.961c5.01-5.01 5.01-13.134 0-18.144l-24.427-24.427s-24.431.68-15.013 21.577l21.296 20.994c5.009 5.01 13.134 5.011 18.144 0z" fill="#d2f09e"/><path d="m297.131 118.929c5.011-5.01 5.011-13.134 0-18.144l-28.629-28.628s-15.871 1.821-16.227 14.237c-.123 4.288 1.757 8.391 4.874 11.338l11.68 11.041 10.157 10.157c5.01 5.009 13.135 5.01 18.145-.001z" fill="#94dc79"/><path d="m162.302 175.88-.107-.311-11.92-11.268c-8.422-7.96-4.966-21.29 10.562-23.267l1.124-.08-4.684-4.684c-5.01-5.011-13.134-5.011-18.144 0l-32.059 32.059c-5.011 5.01-5.011 13.134 0 18.144 5.01 5.011 13.134 5.011 18.144 0l10.157-10.157v30.968c0 7.086 5.744 12.83 12.83 12.83s12.83-5.744 12.83-12.83v-30.968l2.169 2.168c-.303-.871-.604-1.741-.902-2.604z" fill="#47cb8f"/><path d="m151.118 99.96c-2.477-5.496-2.698-9.937-.658-13.199 3.75-5.996 14.011-6.47 14.472-6.488h1.316l-8.971-8.971c-5.01-5.011-13.134-5.011-18.145 0l-32.058 32.059c-5.011 5.01-5.011 13.134 0 18.144 5.009 5.011 13.134 5.011 18.144 0l21.296-20.994c.938-.924 2.444-.924 3.382 0l2.909 2.868c-.601-1.123-1.166-2.262-1.687-3.419z" fill="#94dc79"/><path d="m189.337 121.504c5.011-5.01 5.011-13.134 0-18.144l-24.427-24.427s-24.431.68-15.013 21.577l21.296 20.994c5.008 5.01 13.133 5.011 18.144 0z" fill="#d2f09e"/><path d="m189.337 186.472c5.011-5.01 5.011-13.134 0-18.144l-28.629-28.628s-15.871 1.821-16.226 14.237c-.123 4.288 1.756 8.391 4.873 11.338l11.68 11.041 10.157 10.157c5.009 5.009 13.135 5.01 18.145-.001z" fill="#94dc79"/><path d="m487.476 186.605c-11.86-34.156-31.063-64.873-55.722-90.268-15.097 42.083-23.781 101.981 55.722 90.268z" fill="#bb81e3"/><path d="m24.524 186.605c11.86-34.156 31.063-64.873 55.722-90.268 15.097 42.083 23.781 101.981-55.722 90.268z" fill="#bb81e3"/><path d="m78.527 301.281c2.746-23.858 1.526-44.106.247-55.791-.708-6.464-5.069-11.872-11.083-13.796l-51.213-16.377c-3.578 16.663-5.479 33.949-5.479 51.681 0 6.429.257 12.798.743 19.102 9.266 10.784 31.308 29.046 66.785 15.181z" fill="#3f57a0"/></g></svg>