<svg id="Capa_1" enable-background="new 0 0 512 512" height="512" viewBox="0 0 512 512" width="512" xmlns="http://www.w3.org/2000/svg"><g><path d="m489.365 256c0 3.04-.05 6.06-.16 9.08-.13 3.77-.34 7.53-.64 11.26-.45 5.78 21.535 11.51 20.705 17.18-18.15 123.59-124.64 218.48-253.27 218.48-127.91 0-233.91-93.81-252.95-216.39v-.01c-1.19-7.64 18.963-15.39 18.483-23.23-.15-2.27-.27-4.55-.35-6.83-.12-3.17-.18-6.35-.18-9.54 0-2.9.05-5.78.15-8.66.07-2.05.16-4.09.27-6.12.11-1.95-20.762-3.88-20.602-5.81 9.479-119.23 100.669-215.45 217.559-232.66 12.28-1.81 24.84-2.75 37.62-2.75s25.34.94 37.62 2.74c117.18 17.26 208.53 113.93 217.63 233.57.17 2.15-22.335 4.31-22.225 6.47.09 1.64.15 3.27.2 4.91.1 2.76.14 5.53.14 8.31z" fill="#ffcebf"/><g><path d="m512 256c0 3.04-.05 6.06-.16 9.08-.13 3.77-6.084 7.53-6.384 11.26l-28.726 34.99-207.1 69.65-196.72-50.71-65.822-52.654c-.15-2.27-6.828-9.796-6.908-12.076-.12-3.17-.18-6.35-.18-9.54 0-2.9.05-5.78.15-8.66.07-2.05 10.514-7.031 10.624-9.062l36.476-27.788 237.04-67.16 213.71 91.1 5.371 3.283c.09 1.64 8.439 8.337 8.489 9.977.1 2.76.14 5.53.14 8.31z" fill="#5a5a5a"/><g><g><path d="m100.353 298.556h15.516c13.35 0 24.172 10.822 24.172 24.172v81.298l-63.86-26.416v-54.882c0-13.35 10.822-24.172 24.172-24.172z" fill="#ffe177"/><path d="m117.713 298.618c-.607-.048-1.226-.071-1.845-.071h-15.518c-13.34 0-24.169 10.829-24.169 24.182v44.13l19.207 37.161v-81.291c0-12.735 9.842-23.171 22.325-24.111z" fill="#ffd15b"/></g><g><path d="m395.215 298.556h15.516c13.35 0 24.172 10.822 24.172 24.172v44.802l-63.859 36.496v-81.298c0-13.35 10.822-24.172 24.171-24.172z" fill="#ffe177"/><path d="m412.575 298.618c-.607-.048-1.226-.071-1.845-.071h-15.518c-13.34 0-24.169 10.829-24.169 24.182v81.291h19.207v-81.291c.001-12.735 9.842-23.171 22.325-24.111z" fill="#ffd15b"/></g></g><g><path d="m58.033 217.358v13.078c0 5.224-1.416 10.115-3.891 14.304-4.903 8.33-13.971 13.924-24.336 13.924-11.662 0-21.682-7.081-25.978-17.172l49.481-22.027z" fill="#ffe177"/><path d="m38.707 257.236c-2.797.928-5.795 1.44-8.901 1.44-11.674 0-21.682-7.08-25.978-17.184l15.851-7.057c1.511 10.71 9.032 19.48 19.028 22.801z" fill="#ffd15b"/><path d="m507.256 237.981c-3.284 11.924-14.221 20.683-27.192 20.683-8.628 0-16.351-3.868-21.528-9.961-4.177-4.927-6.712-11.294-6.712-18.267v-13.685l8.747 3.344z" fill="#ffe177"/><path d="m488.965 257.236c-2.797.928-5.795 1.44-8.901 1.44-15.601 0-28.239-12.65-28.239-28.239v-13.685l8.747 3.344 9.08 3.475v6.866c-.001 12.483 8.091 23.074 19.313 26.799z" fill="#ffd15b"/></g><g><path d="m156.864 305.276h15.516c13.35 0 24.172 10.822 24.172 24.172v81.298h-63.859v-81.298c-.001-13.35 10.821-24.172 24.171-24.172z" fill="#ffe177"/><path d="m174.224 305.338c-.607-.048-1.226-.071-1.845-.071h-15.518c-13.34 0-24.169 10.829-24.169 24.182v81.291h19.207v-81.291c0-12.734 9.842-23.171 22.325-24.111z" fill="#ffd15b"/></g><g><path d="m459.173 220.095v17.386c0 3.951-.714 7.735-2.035 11.222-4.534 12.102-16.22 20.719-29.905 20.719-17.624 0-31.928-14.304-31.928-31.941v-41.841l55.122 21.111z" fill="#ffe177"/><path d="m437.317 267.796c-3.165 1.059-6.557 1.63-10.079 1.63-17.636 0-31.928-14.304-31.928-31.941v-73.532h20.159v73.532c-.001 14.115 9.15 26.099 21.848 30.311z" fill="#ffd15b"/></g><g><path d="m255.54 174.03v67.592c0 8.669-7.957 15.153-16.447 13.404l-48.193-9.929-21.875-4.501v-66.566z" fill="#ffe177"/><path d="m190.899 174.019v71.077l-21.875-4.5v-66.577z" fill="#ffd15b"/></g><g><path d="m272.119 279.496h53.359c9.155 0 16.577-7.422 16.577-16.577v-88.893h-86.513v88.893c0 9.155 7.422 16.577 16.577 16.577z" fill="#ffe177"/><path d="m293.992 279.496h-21.873c-9.151 0-16.577-7.425-16.577-16.577v-88.895h21.873v88.895c0 9.151 7.414 16.577 16.577 16.577z" fill="#ffd15b"/></g><g fill="#5a5a5a"><circle cx="313.207" cy="213.177" r="22.197"/><circle cx="434.903" cy="217.358" r="22.197"/><circle cx="190.899" cy="202.143" r="11.164"/></g><g><g><path d="m129.271 269.416h15.516c13.35 0 24.172-10.822 24.172-24.172v-81.298h-63.859v81.298c-.001 13.35 10.822 24.172 24.171 24.172z" fill="#ffe177"/><path d="m146.631 269.354c-.607.048-1.226.071-1.845.071h-15.518c-13.34 0-24.169-10.829-24.169-24.182v-81.291h19.207v81.291c.001 12.734 9.842 23.171 22.325 24.111z" fill="#ffd15b"/></g><g><path d="m366.297 269.416h15.516c13.35 0 24.172-10.822 24.172-24.172v-81.298h-63.859v81.298c-.001 13.35 10.821 24.172 24.171 24.172z" fill="#ffe177"/><path d="m383.657 269.354c-.607.048-1.226.071-1.845.071h-15.518c-13.34 0-24.169-10.829-24.169-24.182v-81.291h19.207v81.291c0 12.734 9.842 23.171 22.325 24.111z" fill="#ffd15b"/></g></g><g><g><path d="m215.854 305.276h15.516c13.35 0 24.172 10.822 24.172 24.172v81.298h-63.859v-81.298c0-13.35 10.822-24.172 24.171-24.172z" fill="#ffe177"/><path d="m233.215 305.338c-.607-.048-1.226-.071-1.845-.071h-15.518c-13.34 0-24.169 10.829-24.169 24.182v81.291h19.207v-81.291c0-12.734 9.841-23.171 22.325-24.111z" fill="#ffd15b"/></g><g><path d="m279.714 305.276h15.516c13.35 0 24.172 10.822 24.172 24.172v81.298h-63.859v-81.298c-.001-13.35 10.821-24.172 24.171-24.172z" fill="#ffe177"/><path d="m297.074 305.338c-.607-.048-1.226-.071-1.845-.071h-15.518c-13.34 0-24.169 10.829-24.169 24.182v81.291h19.207v-81.291c0-12.734 9.841-23.171 22.325-24.111z" fill="#ffd15b"/></g></g><circle cx="218.748" cy="346.97" fill="#5a5a5a" r="22.197"/><path d="m511.86 247.69-17.47-6.53c-109.34-40.91-226.57-52.77-340.49-35.59-46.54 7.01-92.54 18.87-137.21 35.59l-16.54 6.18c.13-4 .35-7.98.67-11.93l142.62-129.97c13.93-12.7 33.98-16.14 51.35-8.82l13.28 5.61 28.69 12.09c12.01 5.07 25.55 5.07 37.57 0l41.97-17.7c17.36-7.32 37.41-3.88 51.34 8.82l143.61 130.87c.29 3.77.5 7.57.61 11.38z" fill="#ffb09e"/><path d="m511.84 265.08c-.33 9.62-1.2 19.11-2.57 28.44l-35.87 60.43c-26.99 45.49-75.98 73.38-128.88 73.38h-177.95c-52.9 0-101.89-27.89-128.89-73.38l-34.63-58.35c-1.53-9.85-2.5-19.88-2.87-30.06l64.78 31.68c23.25 11.37 47.41 20.6 72.16 27.61 38.41 10.9 78.25 16.49 118.42 16.49 33.03 0 65.84-3.78 97.81-11.17 31.97-7.4 63.1-18.42 92.77-32.93z" fill="#ffb09e"/><g fill="#f89580"><path d="m166.57 427.33c-52.9 0-101.89-27.89-128.89-73.38l-34.63-58.34v-.01c-1.53-9.85-2.5-19.88-2.87-30.06l64.78 31.68c23.25 11.37 47.41 20.6 72.16 27.61-48.17 36.34-9.08 102.5 29.45 102.5z"/><path d="m153.9 205.57c-46.54 7.01-92.54 18.87-137.21 35.59l-16.54 6.18c.13-4 .35-7.98.67-11.93l142.62-129.97c13.93-12.7 33.98-16.14 51.35-8.82l13.28 5.61s-74.14 26.04-54.17 103.34z"/></g></g><g fill="#ffb09e"><path d="m305.682 450.325h-99.363c-9.356 0-16.941 7.585-16.941 16.941s7.585 16.941 16.941 16.941h99.363c9.356 0 16.941-7.585 16.941-16.941s-7.585-16.941-16.941-16.941z"/><path d="m293.62 2.74v41.78c0 20.77-16.84 37.62-37.62 37.62s-37.62-16.85-37.62-37.62v-41.77c12.28-1.81 24.84-2.75 37.62-2.75s25.34.94 37.62 2.74z"/></g></g></svg>