<svg id="Layer_1" enable-background="new 0 0 512 512" height="512" viewBox="0 0 512 512" width="512" xmlns="http://www.w3.org/2000/svg"><g><path d="m501.002 266.998c0-135.311-109.691-245.002-245.002-245.002s-245.002 109.691-245.002 245.002c0 135.311 109.691 245.002 245.002 245.002l213.911-125.499c19.793-35.353 31.091-76.105 31.091-119.503z" fill="#816ae2"/><path d="m322.928 283.465c-3.352-.85-6.331-2.88-8.217-5.778-6.71-10.314-8.593-25.578-8.977-36.736-5.122 5.966-10.498 10.956-15.633 14.944-9.751 7.572-21.727 11.762-34.101 11.972v64.995c13.166-.207 26.263-4.546 37.145-12.995 7.787-6.047 20.867-17.887 31.76-35.861-.662-.176-1.311-.372-1.977-.541z" fill="#fc9460"/><path d="m396.603 313.679c-6.544-.535-10.025-3.073-17.736-7.422-8.259-4.657-16.586-8.77-25.093-12.369-13.955 25.233-31.946 41.593-42.275 49.615-16.333 12.682-35.901 19.075-55.498 19.277v149.22c91.913 0 171.99-50.623 213.911-125.499-6.698-32.482-25.053-68.877-73.309-72.822z" fill="#49b1f7"/><path d="m305.067 11.521c-6.166 8.006-13.361 23.205-.314 41.792.483.689.897 1.36 1.273 2.022 1.336.425 2.654.92 3.945 1.501 17.054 7.673 15.626 31.148 14.685 44.14-.327 4.516.747 9.046 3.188 12.876 1.441 2.261 2.584 4.659 3.492 7.026 1.128 2.943 1.93 7.917 2.426 11.005 2.618-1.268 8.292-2.65 11.493-2.197.392-13.581 1.645-30.154 1.645-30.154 8.991-44.029-11.891-73.196-41.833-88.011z" fill="#56415e"/><path d="m256 0v59.658c3.508-.095 7.005-.677 10.374-1.797 10.638-3.538 26.948-7.08 40.891-2.112-.429-.793-.928-1.604-1.512-2.436-12.853-18.311-6.061-33.333.039-41.43-15.127-7.639-32.629-11.582-49.792-11.883z" fill="#47354f"/><path d="m350.979 129.516c-3.966-3.635-12.834-1.792-16.25.433.749 4.66.791 9.428.145 14.137l-4.031 29.361c0 2.367-.075 4.689-.212 6.971 9.83 2.965 15.68-5.86 16.503-11.916.354-2.607.933-5.177 1.736-7.684 2.614-8.168 12.047-22.195 2.109-31.302z" fill="#ffaa7b"/><path d="m333.27 120.878c-.907-2.367-2.051-4.765-3.493-7.026-2.441-3.83-3.515-8.36-3.187-12.877.941-12.991.436-38.399-16.618-46.073-4.813-2.166-9.988-3.191-15.169-3.462-11.975 11.039-12.274 33.087-11.4 45.156.352 4.844-.8 9.704-3.419 13.812-1.546 2.425-2.773 4.997-3.746 7.536-3.036 7.922-3.91 16.497-2.758 24.893l4.324 31.493c0 31.22 11.493 55.534 25.368 72.865 15.049-16.342 28.636-40.966 28.636-73.748l4.032-29.361c1.075-7.828.26-15.822-2.57-23.208z" fill="#ffc7ab"/><path d="m279.696 173.447-4.032-29.361c-1.075-7.828-.26-15.822 2.571-23.208.907-2.367 2.051-4.765 3.493-7.026 2.441-3.83 3.515-8.36 3.187-12.877-.941-12.991-.436-38.399 16.618-46.073 1.379-.621 2.789-1.147 4.219-1.59-13.595-4.21-29.121-.796-39.376 2.614-3.369 1.12-6.867 1.702-10.376 1.797v213.499c12.374-.21 24.349-4.399 34.101-11.971 5.143-3.993 10.525-8.99 15.652-14.966-13.986-16.3-26.057-39.944-26.057-70.838z" fill="#ffaa7b"/><path d="m323.03 283.493c-10.683 17.466-23.423 28.987-31.032 34.896-10.556 8.196-23.247 12.396-35.998 12.601v33.66c19.985-.2 39.955-6.712 56.645-19.671 10.499-8.153 28.741-24.75 42.86-50.347-10.473-4.534-21.211-8.278-32.475-11.139z" fill="#73c3f9"/><path d="m256.224 23.132h-18.21c-5.58 0-10.146-5.205-10.146-11.566 0-6.361 4.566-11.566 10.146-11.566h18.21c5.58 0 10.146 5.205 10.146 11.566 0 6.361-4.566 11.566-10.146 11.566z" fill="#47354f"/><path d="m217.723 48.126h-18.21c-5.58 0-10.146-4.565-10.146-10.146 0-5.58 4.566-10.146 10.146-10.146h18.21c5.58 0 10.146 4.565 10.146 10.146-.001 5.581-4.566 10.146-10.146 10.146z" fill="#47354f"/><g fill="#ffaa7b"><path d="m257.023 271.223h-36.283c-5.58 0-10.146-4.565-10.146-10.146 0-5.58 4.566-10.146 10.146-10.146h36.283c5.58 0 10.145 4.566 10.145 10.146 0 5.58-4.565 10.146-10.145 10.146z"/><path d="m257.091 77.821h-38.328c-5.58 0-10.146-4.565-10.146-10.146 0-5.58 4.565-10.146 10.146-10.146h38.328c5.58 0 10.146 4.566 10.146 10.146 0 5.581-4.566 10.146-10.146 10.146z"/><path d="m217.723 126.639h-38.328c-5.58 0-10.146-4.565-10.146-10.146 0-5.58 4.565-10.146 10.146-10.146h38.328c5.58 0 10.146 4.565 10.146 10.146-.001 5.581-4.566 10.146-10.146 10.146z"/><path d="m95.283 146.565c0-5.58-4.566-10.145-10.146-10.145h-9.019c-5.58 0-10.146 4.565-10.146 10.145s4.566 10.146 10.146 10.146h9.019c5.58 0 10.146-4.566 10.146-10.146z"/></g><path d="m159.798 400.768h-18.21c-5.58 0-10.146-4.565-10.146-10.146 0-5.58 4.566-10.145 10.146-10.145h18.21c5.58 0 10.146 4.566 10.146 10.145-.001 5.58-4.566 10.146-10.146 10.146z" fill="#49b1f7"/><path d="m113.926 364.651h-18.21c-5.58 0-10.146-4.565-10.146-10.146 0-5.58 4.565-10.146 10.146-10.146h18.21c5.58 0 10.146 4.566 10.146 10.146-.001 5.58-4.566 10.146-10.146 10.146z" fill="#73c3f9"/><path d="m133.176 300.746h-18.21c-5.58 0-10.146-4.565-10.146-10.146 0-5.58 4.565-10.146 10.146-10.146h18.21c5.58 0 10.146 4.565 10.146 10.146 0 5.58-4.566 10.146-10.146 10.146z" fill="#ffaa7b"/><path d="m89.733 273.093h-18.21c-5.58 0-10.146-4.565-10.146-10.146 0-5.58 4.565-10.145 10.146-10.145h18.21c5.58 0 10.146 4.566 10.146 10.145-.001 5.58-4.566 10.146-10.146 10.146z" fill="#56415e"/><path d="m266.716 436.885h-38.328c-5.58 0-10.146-4.566-10.146-10.146 0-5.58 4.566-10.146 10.146-10.146h38.328c5.58 0 10.146 4.565 10.146 10.146 0 5.58-4.565 10.146-10.146 10.146z" fill="#49b1f7"/><path d="m285.31 400.768h-38.328c-5.58 0-10.146-4.565-10.146-10.146 0-5.58 4.565-10.145 10.146-10.145h38.328c5.58 0 10.145 4.566 10.145 10.145 0 5.58-4.566 10.146-10.145 10.146z" fill="#49b1f7"/><path d="m227.348 485.703h-38.328c-5.58 0-10.146-4.566-10.146-10.146 0-5.58 4.566-10.146 10.146-10.146h38.328c5.58 0 10.145 4.566 10.145 10.146.001 5.58-4.565 10.146-10.145 10.146z" fill="#49b1f7"/><path d="m208.531 224.275h-38.328c-5.58 0-10.146-4.565-10.146-10.146 0-5.58 4.566-10.145 10.146-10.145h38.328c5.58 0 10.146 4.565 10.146 10.145 0 5.58-4.566 10.146-10.146 10.146z" fill="#ffaa7b"/><path d="m176.62 242.627h-38.328c-5.58 0-10.146-4.566-10.146-10.146 0-5.58 4.566-10.146 10.146-10.146h38.328c5.58 0 10.146 4.565 10.146 10.146 0 5.581-4.566 10.146-10.146 10.146z" fill="#ffc7ab"/><path d="m218.417 364.651h-38.328c-5.58 0-10.146-4.565-10.146-10.146 0-5.58 4.565-10.146 10.146-10.146h38.328c5.58 0 10.146 4.566 10.146 10.146-.001 5.58-4.566 10.146-10.146 10.146z" fill="#73c3f9"/><path d="m257.023 331.182h-38.328c-5.58 0-10.146-4.566-10.146-10.146 0-5.58 4.566-10.146 10.146-10.146h38.328c5.58 0 10.145 4.565 10.145 10.146 0 5.581-4.565 10.146-10.145 10.146z" fill="#fc9460"/><path d="m198.559 175.457h-77.783c-5.58 0-10.146-4.565-10.146-10.146 0-5.58 4.565-10.145 10.146-10.145h77.783c5.58 0 10.146 4.565 10.146 10.145 0 5.58-4.566 10.146-10.146 10.146z" fill="#ffc7ab"/><path d="m149.912 77.821h-9.018c-5.58 0-10.146-4.565-10.146-10.146 0-5.58 4.565-10.146 10.146-10.146h9.018c5.58 0 10.146 4.566 10.146 10.146 0 5.581-4.566 10.146-10.146 10.146z" fill="#ffc7ab"/><path d="m379.554 161.292c-12.667 55.09-27.333 96.105 30 109.931 36.177 8.724 64.476 34.991 82.336 62.163 5.935-21.112 9.112-43.378 9.112-66.388 0-67.002-26.906-127.712-70.49-171.943-21.196 14.186-44.111 36.459-50.958 66.237z" fill="#9181f2"/><path d="m270.221 76.781h-21.541c-5.58 0-10.146 4.565-10.146 10.146 0 5.58 4.566 10.146 10.146 10.146h21.541z" fill="#ffaa7b"/><path d="m270.221 131.883h-21.541c-5.58 0-10.146 4.566-10.146 10.145 0 5.58 4.566 10.146 10.146 10.146h21.541z" fill="#ffaa7b"/><path d="m428.055 441.391c-1.918-22.501-8.221-38.153-15.399-48.933-8.044-12.081-26.868-6.395-26.868 8.12v74.244c15.306-9.582 29.476-20.809 42.267-33.431z" fill="#1e9ef4"/></g></svg>