<svg id="Capa_1" enable-background="new 0 0 512 512" height="512" viewBox="0 0 512 512" width="512" xmlns="http://www.w3.org/2000/svg"><g><path d="m512 256c0 141.385-114.615 256-256 256-34.998 0-68.356-7.023-98.741-19.737-8.6-3.598-3.315-27.448-11.408-31.928-36.065-19.962-66.801-48.376-89.536-82.569-4.055-6.099-21.502 7.414-25.033.963-19.944-36.44-31.282-78.26-31.282-122.729 0-141.385 114.615-256 256-256s256 114.615 256 256z" fill="#ffc14f"/><path d="m497.248 233.924c0 114.229-92.601 206.83-206.83 206.83s-206.83-92.601-206.83-206.83 92.601-206.83 206.83-206.83 206.83 92.601 206.83 206.83z" fill="#ffcd71"/><path d="m368.087 376.25c-9.846 1.01-19.738 1.516-29.636 1.516h-75.027c-10.609 0-20.783 4.214-28.284 11.716l-32.836 32.836-94.856-94.856 76.562-76.562c3.283-3.648 8.041-5.942 13.336-5.942h65.937c10.123 0 18.286 8.386 17.924 18.589-.345 9.719-8.628 17.282-18.354 17.282h-26.128c-8.357 0-12.188 6.153-7.977 13.372 1.633 2.8 4.586 4.439 7.707 4.439h54.239c0-.001 104.35 74.844 77.393 77.61z" fill="#915041"/><path d="m453.733 306.259c-3.671 12.038-17.527 24.837-37.052 34.157-.847 17.407-21.637 33.068-48.594 35.834-9.846 1.01-37.374.068-46.368-22.962h-12.077c-9.905 0-17.935-6.983-17.935-15.598 0-3.31 1.185-6.378 3.207-8.903h-6.059c-9.905 0-17.935-6.983-17.935-15.598 0-6.628 4.754-12.29 11.458-14.549h8.317l57.597-1.049h4.612l28.375-.601 67.459-22.153c6.506-2.137 13.522-2.447 20.112-.586 6.689 1.89 6.715 18.472-15.117 32.008zm-130.839-25.431h-64.953c-9.905 0-17.935-8.03-17.935-17.935 0-9.906 8.03-17.936 17.935-17.936h64.953c9.906 0 17.935 8.03 17.935 17.936.001 9.905-8.029 17.935-17.935 17.935z" fill="#a65d4e"/><path d="m476.868 285.354-7.323 7.67c-2.333 2.443-4.79 4.764-7.362 6.953-4.472-4.472-4.441-11.692.031-16.164l6.383-6.383c2.115-2.115 5.549-2.457 7.855-.553 2.644 2.186 2.783 6.11.416 8.477zm-158.404-18.187v-8.548c0-3.162 2.564-5.726 5.726-5.726h10.725c5.523 0 10 4.477 10 10 0 5.523-4.477 10-10 10h-10.725c-3.162 0-5.726-2.564-5.726-5.726z" fill="#d79b8c"/><path d="m163.36 467.234-100.828-100.828c-1.953-1.953-1.953-5.118 0-7.071l52.214-52.214c1.953-1.953 5.118-1.953 7.071 0l100.828 100.828c1.953 1.953 1.953 5.118 0 7.071l-52.214 52.214c-1.953 1.952-5.118 1.952-7.071 0z" fill="#a6e0ec"/><path d="m79.143 383.016-16.61-16.61c-1.953-1.953-1.953-5.118 0-7.071l52.214-52.214c1.953-1.953 5.118-1.953 7.071 0l20.146 20.146-55.75 55.75c-1.953 1.952-5.119 1.952-7.071-.001z" fill="#7cd2e3"/><path d="m126.984 351.034c0 6.05-4.904 10.954-10.954 10.954s-10.954-4.904-10.954-10.954 4.904-10.954 10.954-10.954 10.954 4.904 10.954 10.954z" fill="#44bfd7"/><path d="m178.612 456.768c3.905 3.905 3.905 10.237 0 14.142l-21.353 21.353c-53.757-22.493-98.209-62.797-125.977-113.534l27.575-27.575c3.905-3.905 10.237-3.905 14.142 0z" fill="#def4f8"/><path d="m72.998 351.154 22.539 22.539-40.681 40.681c-8.806-11.168-16.701-23.087-23.574-35.646l27.575-27.575c3.904-3.904 10.236-3.904 14.141.001z" fill="#a6e0ec"/><path d="m444.128 85c0 46.944-38.056 85-85 85h-57.928c-.238.452-.534.89-.892 1.307l-48.12 56.14c-1.122 1.308-2.654 2.249-4.361 2.486-4.218.583-7.827-2.678-7.827-6.782v-53.151h-25c-8.284 0-15-6.716-15-15v-140c0-8.284 6.716-15 15-15h144.128c46.944 0 85 38.056 85 85z" fill="#84b017"/><path d="m470 15v140c0 8.284-6.716 15-15 15h-114c-46.944 0-85-38.056-85-85 0-46.944 38.056-85 85-85h114c8.284 0 15 6.716 15 15z" fill="#9bcf1b"/><path d="m311.234 84.872c0 34.547-28.006 62.553-62.553 62.553s-62.553-28.006-62.553-62.553 28.006-62.553 62.553-62.553 62.553 28.006 62.553 62.553z" fill="#6e9213"/><path d="m351.008 30c0-2.761 2.239-5 5-5h79.082c2.761 0 5 2.239 5 5s-2.239 5-5 5h-79.082c-2.762 0-5-2.239-5-5zm84.081 35h-79.082c-2.761 0-5 2.239-5 5s2.239 5 5 5h79.082c2.761 0 5-2.239 5-5s-2.238-5-5-5zm-79.081-10h59.082c2.761 0 5-2.239 5-5s-2.239-5-5-5h-59.082c-2.761 0-5 2.239-5 5s2.238 5 5 5z" fill="#dbf3a0"/><path d="m317.633 36.967-67.166 79.593c-1.483 1.758-3.603 2.663-5.736 2.663-.073 0-.146-.001-.219-.004-.073.002-.146.004-.219.004-2.133 0-4.252-.905-5.736-2.663l-32.656-38.698c-2.671-3.166-2.271-7.897.895-10.568 3.166-2.672 7.897-2.271 10.569.895l27.147 32.17 61.657-73.065c2.671-3.165 7.403-3.567 10.569-.895 3.166 2.67 3.567 7.402.895 10.568z" fill="#fff"/><path d="m505.02 152.259c0 31.644-25.652 57.296-57.296 57.296h-49.507c-.161.304-.36.6-.601.881l-32.427 37.832c-.733.855-1.723 1.488-2.834 1.669-2.892.469-5.391-1.751-5.391-4.554v-35.827h-11.964c-8.284 0-15-6.716-15-15v-84.593c0-8.284 6.716-15 15-15h102.723c31.644 0 57.297 25.652 57.297 57.296z" fill="#cc4646"/><path d="m512 109.963v84.593c0 8.284-6.716 15-15 15h-54.193c-31.644 0-57.296-25.652-57.296-57.296 0-31.644 25.652-57.296 57.296-57.296h54.193c8.284-.001 15 6.715 15 14.999z" fill="#fb5858"/><path d="m382.005 132.259c0-2.761 2.239-5 5-5h80c2.761 0 5 2.239 5 5s-2.239 5-5 5h-80c-2.762 0-5-2.238-5-5zm85 35h-80c-2.761 0-5 2.239-5 5s2.239 5 5 5h80c2.761 0 5-2.239 5-5s-2.239-5-5-5zm-80-10h66.154c2.761 0 5-2.239 5-5s-2.239-5-5-5h-66.154c-2.761 0-5 2.239-5 5s2.238 5 5 5z" fill="#fdbcbc"/></g></svg>