<svg id="Capa_1" enable-background="new 0 0 512 512" height="512" viewBox="0 0 512 512" width="512" xmlns="http://www.w3.org/2000/svg"><g><path d="m68.266 430.047c-42.365-45.675-68.266-106.836-68.266-174.047 0-141.385 114.615-256 256-256s256 114.615 256 256c0 67.211-25.901 128.372-68.266 174.047-1.823 1.965-373.645 1.965-375.468 0z" fill="#ff7117"/><path d="m465.74 246.389c0 121.144-98.207 219.351-219.351 219.351s-219.351-98.207-219.351-219.351 98.207-219.351 219.351-219.351 219.351 98.207 219.351 219.351z" fill="#ff8835"/><path d="m443.734 60v370.047c-46.754 50.407-113.56 81.953-187.734 81.953-59.565 0-114.378-20.343-157.871-54.461-4.851-3.805-7.707-9.611-7.707-15.776v-381.763c0-5.523 4.477-10 10-10h333.312c5.523 0 10 4.477 10 10z" fill="#e5f2fd"/><path d="m108.698 50c-5.523 0-10 4.477-10 10v397.984c-10.881-8.486-21.06-17.833-30.432-27.937v-370.047c0-5.523 4.477-10 10-10z" fill="#bde2fd"/><path d="m328.503 144.091 46.451 12.446-46.828 174.765-28.631-28.377-11.347 2.986c-1.44.379-2.753-.939-2.367-2.378zm126.955 5.592-46.744 12.525 39.538 147.556c.48 1.791 2.716 2.396 4.033 1.09l8-7.929 38.984 10.26z" fill="#00915d"/><path d="m452.442 310.697-20.79 20.605-51.764-193.185h26.312zm-164.217-4.806-27.714 7.294 51.763-193.185 24.034 6.44z" fill="#007b4e"/><path d="m506.001 154.694c-3.895 6.677-5.964 14.262-5.998 21.992-.07 15.668-8.586 30.265-22.19 38.039-6.711 3.835-12.295 9.369-16.19 16.046-7.927 13.59-22.503 21.918-38.236 21.848-7.73-.035-15.333 1.966-22.045 5.801-.027.016-.054.031-.081.046-5.217 2.966-11.672 2.916-16.88-.066-.103-.059-.205-.118-.308-.178-6.677-3.895-14.262-5.964-21.992-5.998-15.733-.07-30.233-8.529-38.038-22.189-3.754-6.571-9.137-12.061-15.627-15.943-13.625-8.151-22.267-22.563-22.267-38.44v-.044c.035-7.73-1.966-15.333-5.801-22.045-7.805-13.66-7.73-30.446.197-44.036 3.893-6.674 5.964-14.268 5.999-21.994.071-15.732 8.529-30.232 22.189-38.038 6.712-3.835 12.296-9.369 16.191-16.046 7.927-13.59 22.503-21.918 38.236-21.848h1.248c7.28 0 14.356-2.092 20.665-5.726.055-.032.11-.063.165-.095 5.231-2.983 11.706-2.952 16.931.041.101.058.203.117.304.175 6.714 3.917 14.346 5.987 22.12 5.999 15.833.025 30.162 9.027 38.192 22.674 3.815 6.484 9.23 11.885 15.73 15.685 13.362 7.811 21.883 21.817 21.883 37.295v.961c-.035 7.73 1.966 15.333 5.801 22.045 7.805 13.663 7.73 30.449-.198 44.039z" fill="#1fb480"/><path d="m388.287 252.225c6.156.028 12.22 1.345 17.807 3.848-1.624.684-3.211 1.467-4.751 2.347-13.66 7.805-30.447 7.73-44.037-.197-6.677-3.895-14.262-5.964-21.992-5.998-15.733-.07-30.233-8.529-38.038-22.189-3.835-6.712-9.369-12.296-16.046-16.191-13.59-7.927-21.918-22.503-21.848-38.236.035-7.73-1.966-15.333-5.801-22.045-7.805-13.66-7.73-30.447.197-44.037 3.895-6.677 5.964-14.262 5.998-21.992.07-15.733 8.529-30.233 22.189-38.038 6.712-3.835 12.296-9.369 16.191-16.046 7.927-13.59 22.503-21.918 38.236-21.848 7.73.035 15.333-1.966 22.045-5.801 13.66-7.805 30.447-7.73 44.037.197 1.359.793 2.757 1.51 4.185 2.15-5.456 2.298-11.337 3.481-17.294 3.454-15.733-.07-30.308 8.258-38.236 21.848-3.895 6.677-9.479 12.211-16.191 16.046-13.66 7.805-22.119 22.306-22.189 38.038-.035 7.73-2.103 15.315-5.998 21.992-7.927 13.59-8.003 30.377-.197 44.037 3.835 6.712 5.836 14.315 5.801 22.045-.07 15.733 8.258 30.308 21.848 38.236 6.677 3.895 12.211 9.479 16.046 16.191 7.805 13.66 22.305 22.118 38.038 22.189z" fill="#00a86d"/><path d="m465.889 132.111c0 44.969-34.515 81.877-78.5 85.677-2.472.214-4.973-4.448-7.5-4.448s-5.028 4.662-7.5 4.448c-43.985-3.8-78.5-40.708-78.5-85.678 0-47.497 38.503-86 86-86 47.496.001 86 38.504 86 86.001z" fill="#00915d"/><path d="m381.234 187.743c-16.479.352-33.07-5.76-45.645-18.335-21.477-21.477-24.455-55.265-7.065-80.168l46.624-66.768c2.302-3.296 21.668 164.938 6.086 165.271z" fill="#4bcd5c"/><path d="m424.189 169.407c-12.764 12.764-29.666 18.869-46.388 18.315-7.969-.264-29.488-30.505-28.035-73.318 1.342-39.546 25.382-91.933 25.382-91.933 2.301-3.296 7.18-3.296 9.481 0l46.624 66.768c17.39 24.903 14.413 58.692-7.064 80.168z" fill="#91de93"/><path d="m411.622 131.202-24.232 24.233v62.353c-2.472.214-4.973.323-7.5.323s-5.028-.109-7.5-.323v-62.352l-24.233-24.233c-2.929-2.929-2.929-7.678 0-10.607 2.93-2.929 7.678-2.929 10.607 0l13.626 13.626v-44.222c0-4.142 3.357-7.5 7.5-7.5s7.5 3.358 7.5 7.5v44.221l13.625-13.625c2.93-2.929 7.678-2.929 10.607 0s2.929 7.677 0 10.606z" fill="#007b4e"/><path d="m334.169 477.5h-151.418c-4.143 0-7.5-3.358-7.5-7.5s3.357-7.5 7.5-7.5h151.418c4.143 0 7.5 3.358 7.5 7.5s-3.358 7.5-7.5 7.5zm39.184-41.829c0-4.142-3.357-7.5-7.5-7.5h-226.802c-4.143 0-7.5 3.358-7.5 7.5s3.357 7.5 7.5 7.5h226.803c4.142 0 7.499-3.358 7.499-7.5zm0-34.328c0-4.142-3.357-7.5-7.5-7.5h-226.802c-4.143 0-7.5 3.358-7.5 7.5s3.357 7.5 7.5 7.5h226.803c4.142 0 7.499-3.358 7.499-7.5zm0-34.329c0-4.142-3.357-7.5-7.5-7.5h-226.802c-4.143 0-7.5 3.358-7.5 7.5s3.357 7.5 7.5 7.5h226.803c4.142 0 7.499-3.358 7.499-7.5zm-187.888-67.014c0-4.142-3.357-7.5-7.5-7.5h-51.639c-4.143 0-7.5 3.358-7.5 7.5s3.357 7.5 7.5 7.5h51.639c4.142 0 7.5-3.358 7.5-7.5zm25.71-34.329c0-4.142-3.357-7.5-7.5-7.5h-77.349c-4.143 0-7.5 3.358-7.5 7.5s3.357 7.5 7.5 7.5h77.349c4.142 0 7.5-3.358 7.5-7.5zm0-34.328c0-4.142-3.357-7.5-7.5-7.5h-77.349c-4.143 0-7.5 3.358-7.5 7.5s3.357 7.5 7.5 7.5h77.349c4.142 0 7.5-3.358 7.5-7.5zm0-34.329c0-4.142-3.357-7.5-7.5-7.5h-77.349c-4.143 0-7.5 3.358-7.5 7.5s3.357 7.5 7.5 7.5h77.349c4.142 0 7.5-3.358 7.5-7.5z" fill="#93d0fd"/><path d="m185.465 110v40c0 5.523-4.477 10-10 10h-45.465c-5.523 0-10-4.477-10-10v-40c0-5.523 4.477-10 10-10h45.465c5.522 0 10 4.477 10 10z" fill="#4bcd5c"/><path d="m220 110v40c0 5.523-4.477 10-10 10h-44.021c-5.523 0-10-4.477-10-10v-40c0-5.523 4.477-10 10-10h44.021c5.523 0 10 4.477 10 10z" fill="#74d579"/></g></svg>