<svg id="Capa_1" enable-background="new 0 0 512 512" height="512" viewBox="0 0 512 512" width="512" xmlns="http://www.w3.org/2000/svg"><g><path d="m512 256c0 124.982-89.564 229.046-208.01 251.509-17.482-34.452-31.587-99.685-47.99-99.685-75.542 0-80.817-8.179-190.3 19.415-40.842-45.358-65.7-105.396-65.7-171.239 0-141.385 114.615-256 256-256s256 114.615 256 256z" fill="#5a565e"/><path d="m11.661 186.652c0 53.288 43.198 96.487 96.486 96.487h307.366c53.288 0 96.486-43.198 96.486-96.486v-46.663h-500.338z" fill="#fd4755"/><path d="m108.147 239.192h307.366c53.288 0 96.486-43.198 96.486-96.486 0-53.288-43.198-96.486-96.486-96.486h-307.366c-53.288 0-96.486 43.198-96.486 96.486 0 53.287 43.198 96.486 96.486 96.486z" fill="#fe646f"/><path d="m98.171 210.925c17.46 17.46 41.59 28.26 68.23 28.26h-58.26c-26.64 0-50.76-10.8-68.22-28.26s-28.26-41.58-28.26-68.22c0-53.29 43.19-96.49 96.48-96.49h58.26c-53.29 0-96.49 43.2-96.49 96.49 0 26.64 10.8 50.76 28.26 68.22z" fill="#fd4755"/><path d="m108.147 209.191c-36.661 0-66.486-29.826-66.486-66.486s29.825-66.486 66.486-66.486h307.366c36.661 0 66.486 29.826 66.486 66.486s-29.825 66.486-66.486 66.486z" fill="#fcf8f2"/><path d="m143.211 209.185h-35.07c-36.66 0-66.48-29.82-66.48-66.48 0-36.67 29.82-66.49 66.48-66.49h35.07c-36.66 0-66.48 29.82-66.48 66.49 0 36.66 29.82 66.48 66.48 66.48z" fill="#eae6e1"/><g fill="#434c54"><path d="m335.64 107.715c-.026-.07-.053-.139-.081-.208-1.396-3.391-4.665-5.579-8.331-5.579-.004 0-.009 0-.013 0-3.671.005-6.939 2.205-8.326 5.603-.022.055-.044.11-.065.166l-24.99 65.613c-1.475 3.871.469 8.204 4.339 9.678 3.87 1.472 8.204-.468 9.679-4.339l4.384-11.511h29.798l4.336 11.489c1.133 3.003 3.987 4.854 7.018 4.854.88 0 1.775-.156 2.647-.485 3.875-1.462 5.831-5.79 4.368-9.665zm-17.692 44.423 9.254-24.298 9.17 24.298z"/><path d="m278.394 101.929c-.025 0-.05 0-.074 0-4.143.04-7.468 3.43-7.428 7.572l.419 43.229-32.76-47.439c-1.865-2.701-5.268-3.873-8.404-2.898-3.133.977-5.268 3.878-5.268 7.16v66.426c0 4.142 3.357 7.5 7.5 7.5s7.5-3.358 7.5-7.5v-42.367l31.245 45.245c2.236 3.23 5.954 4.605 9.471 3.508 3.596-1.124 5.919-4.511 5.919-8.701l-.622-64.308c-.04-4.117-3.39-7.427-7.498-7.427z"/><path d="m447.104 168.176h-20.286v-17.972h18.237c4.143 0 7.5-3.358 7.5-7.5s-3.357-7.5-7.5-7.5h-18.237v-17.972h20.286c4.143 0 7.5-3.358 7.5-7.5s-3.357-7.5-7.5-7.5h-27.786c-4.143 0-7.5 3.358-7.5 7.5v65.943c0 4.142 3.357 7.5 7.5 7.5h27.786c4.143 0 7.5-3.358 7.5-7.5s-3.357-7.499-7.5-7.499z"/><path d="m94.848 102.913h-18.291c-1.991 0-3.901.792-5.309 2.202-1.406 1.41-2.195 3.321-2.191 5.312 0 0 .047 24.842.047 32.206 0 8.977.084 32.389.084 32.389.007 1.989.805 3.895 2.216 5.296 1.405 1.395 3.305 2.177 5.284 2.177h.028c.553-.002 13.592-.052 18.798-.143 19.072-.333 32.915-17.008 32.915-39.648 0-23.8-13.495-39.791-33.581-39.791zm.404 64.441c-2.537.044-7.113.08-11.09.104-.024-7.638-.059-19.135-.059-24.825 0-4.752-.02-16.776-.033-24.72h10.777c13.7 0 18.581 12.806 18.581 24.791.001 16.809-9.128 24.492-18.176 24.65z"/><path d="m397.522 101.929h-36.752c-4.143 0-7.5 3.358-7.5 7.5s3.357 7.5 7.5 7.5h10.803v59.051c0 4.142 3.357 7.5 7.5 7.5s7.5-3.358 7.5-7.5v-59.051h10.95c4.143 0 7.5-3.358 7.5-7.5s-3.358-7.5-7.501-7.5z"/><path d="m175.183 101.929c-22.483 0-40.775 18.292-40.775 40.775s18.292 40.775 40.775 40.775 40.775-18.292 40.775-40.775-18.292-40.775-40.775-40.775zm0 66.55c-14.213 0-25.775-11.563-25.775-25.775s11.562-25.775 25.775-25.775 25.775 11.563 25.775 25.775-11.562 25.775-25.775 25.775z"/></g><g><path d="m336.38 364.83v73.96c0 27.66-12.6 52.38-32.39 68.72-15.54 2.95-31.59 4.49-47.99 4.49-75.54 0-143.44-32.72-190.3-84.76v-93.03c0-16.37 12.91-30.13 29.28-30.55 8.63-.23 16.46 3.17 22.08 8.8 5.45 5.44 8.81 12.96 8.81 21.27l160.64-1.08 14.63-3.05c8 0 15.38 2.67 21.29 7.16 8.48 6.42 13.95 16.61 13.95 28.07z" fill="#ffdfcf"/><path d="m322.428 336.762v72.441c0 11.972-9.702 21.685-21.685 21.685h-14.23v-98.243l14.631-3.049c7.999.001 15.376 2.671 21.284 7.166z" fill="#ffcebf"/><path d="m246.198 442.826v-251.431c0-8.311 3.366-15.832 8.813-21.271 5.447-5.447 12.968-8.813 21.271-8.813 16.614 0 30.084 13.47 30.084 30.084v251.432" fill="#ffdfcf"/><path d="m286.508 163.099c-4.197 1.514-7.957 3.933-11.043 7.027-5.447 5.439-8.813 12.96-8.813 21.271v174.428c0 5.649-4.579 10.228-10.228 10.228-5.649 0-10.228-4.579-10.228-10.228v-174.428c0-8.311 3.365-15.832 8.813-21.271 5.439-5.447 12.96-8.813 21.271-8.813 3.595 0 7.035.626 10.228 1.786z" fill="#ffcebf"/><path d="m92.35 334.22v104.57c0 5.16.44 10.22 1.28 15.14-9.97-8.19-19.31-17.11-27.93-26.69v-93.02c0-16.39 12.9-30.14 29.29-30.56 5.1-.14 9.93 1 14.17 3.12-10 5.03-16.81 15.54-16.81 27.44z" fill="#ffcebf"/><path d="m246.201 376.053v-77.1c0-16.615-13.469-30.083-30.083-30.083-16.615 0-30.083 13.469-30.083 30.083v77.1" fill="#ffdfcf"/><path d="m186.035 376.053v-62.832c0-16.615-13.469-30.083-30.083-30.083-16.615 0-30.083 13.469-30.083 30.083v62.832" fill="#ffdfcf"/><g fill="#ffcebf"><path d="m166.18 284.923c-11.586 4.188-19.856 15.272-19.856 28.298v52.606c0 5.649-4.579 10.228-10.228 10.228-5.649 0-10.228-4.579-10.228-10.228v-51.979c0-16.43 12.912-30.305 29.338-30.701 3.855-.093 7.561.536 10.974 1.776z"/><path d="m226.34 270.655c-11.578 4.188-19.856 15.272-19.856 28.298v66.878c0 5.647-4.577 10.224-10.224 10.224-5.647 0-10.224-4.577-10.224-10.224v-66.258c0-16.486 13.003-30.38 29.486-30.698 3.803-.073 7.448.555 10.818 1.78z"/></g></g></g></svg>