<svg id="Layer_1" enable-background="new 0 0 512 512" height="512" viewBox="0 0 512 512" width="512" xmlns="http://www.w3.org/2000/svg"><g><path d="m37.946 378.811s112.195 115.855 218.053 115.855c105.855 0 217.531-114.872 217.539-114.88 17.54-33.761 27.463-72.114 27.463-112.788 0-135.311-109.691-245.002-245.002-245.002s-245.002 109.691-245.002 245.002c.001 40.282 9.725 78.291 26.949 111.813z" fill="#47354f"/><path d="m249.696 289.327-92.162-55.377c-2.797 11.355-8.97 21.378-17.401 28.942l108.446 65.161c.264-10.711.631-24.086 1.117-38.726z" fill="#49b1f7"/><path d="m319.216 370.496c2.798-11.355 8.97-21.378 17.401-28.942l-88.405-53.119c-.486 14.589-.853 27.952-1.119 38.725z" fill="#1e9ef4"/><g><ellipse cx="373.655" cy="383.009" fill="#73c3f9" rx="57.363" ry="57.363" transform="matrix(.099 -.995 .995 .099 -44.452 716.925)"/></g><path d="m108.799 126.723c-.522 2.316-1.409 8.519 2.438 13.777 3.796 5.187 10.972 7.817 21.329 7.817 1.992 0 4.36.622 7.028 1.756 31.666-25.987 72.196-41.581 116.405-41.581 38.056 0 74.34 11.508 104.888 32.87 4.5 3.147 5.115 9.567 1.232 13.449l-106.782 106.785c1.918 2.24 3.283 3.85 3.965 4.658-.659 2.734-2.299 11.729 2.852 17.667 3.921 4.52 10.728 6.086 20.231 4.656 2.007-.3 4.401.094 7.115 1.078l103.732-103.732c3.883-3.883 10.303-3.268 13.449 1.232 21.362 30.548 32.871 66.833 32.871 104.888 0 41.678-13.866 80.086-37.231 110.883 1.263 1.603 2.49 3.17 3.67 4.688-1.189 2.845-4.425 12.028-.356 19.665 2.891 5.425 8.772 8.795 17.482 10.015 2.265.318 4.006 1.399 5.305 3.287 34.352-39.847 55.127-91.737 55.127-148.538 0-125.759-101.771-227.548-227.549-227.548-58.299 0-111.438 21.882-151.681 57.877z" fill="#ff4155"/><path d="m429.426 439.412c-1.465-1.97-3.463-3.233-6.102-3.602-27.535-3.857-15.6-28.406-15.6-28.406s-1.619-2.086-4.482-5.688c-33.448 44.854-86.921 73.879-147.242 73.879-38.056 0-74.34-11.508-104.888-32.87-4.5-3.147-5.115-9.567-1.232-13.449l140.742-140.742c-3.219-1.26-6.076-1.798-8.461-1.439-28.865 4.344-21.211-21.211-21.211-21.211s-1.64-1.957-4.546-5.354l-137.635 137.634c-3.883 3.883-10.303 3.268-13.45-1.232-21.362-30.548-32.87-66.832-32.87-104.888 0-57.824 26.681-109.355 68.41-142.988-3.17-1.442-5.969-2.238-8.293-2.238-28.626 0-22.097-20.562-22.097-20.562l-5.026-4.881c-47.22 41.678-76.992 102.659-76.992 170.67 0 58.307 21.887 111.451 57.89 151.697 44.026 42.27 103.805 68.258 169.659 68.258 65.855 0 125.634-25.989 169.66-68.261 1.275-1.425 2.527-2.871 3.766-4.327z" fill="#e80054"/><path d="m256 482.595c-39.31 0-76.967-11.803-108.9-34.134-3.863-2.701-6.314-6.937-6.725-11.619-.408-4.652 1.253-9.214 4.556-12.517l137.23-137.231c2.733-2.733 7.166-2.733 9.899 0 2.734 2.733 2.734 7.166 0 9.899l-137.23 137.232c-.479.478-.54 1.021-.508 1.393.028.322.17.928.802 1.37 29.568 20.677 64.451 31.607 100.876 31.607 28.069 0 54.892-6.375 79.723-18.949 23.689-11.995 44.735-29.534 60.861-50.721 2.341-3.076 6.733-3.671 9.81-1.331 3.076 2.342 3.672 6.733 1.331 9.81-17.4 22.86-40.11 41.786-65.676 54.732-26.811 13.575-55.762 20.459-86.049 20.459zm-143.41-74.866c-.461 0-.924-.02-1.388-.061-4.682-.411-8.917-2.862-11.618-6.725-22.331-31.935-34.134-69.592-34.134-108.9 0-56.014 24.463-108.947 67.118-145.226 2.945-2.505 7.363-2.146 9.867.797 2.505 2.945 2.148 7.362-.797 9.867-39.521 33.615-62.188 82.661-62.188 134.562 0 36.424 10.93 71.307 31.607 100.877.441.632 1.047.773 1.369.802.37.028.915-.028 1.394-.509l137.231-137.23c2.733-2.733 7.166-2.733 9.899 0 2.734 2.733 2.734 7.166 0 9.899l-137.231 137.232c-2.974 2.974-6.968 4.615-11.129 4.615z" fill="#ff4155"/><g><path d="m256 267.933c-1.792 0-3.583-.684-4.95-2.05-2.734-2.733-2.734-7.166 0-9.899l106.12-106.12c.479-.479.541-1.022.508-1.393-.028-.322-.17-.928-.802-1.37-29.569-20.677-64.451-31.606-100.876-31.606-41.913 0-82.528 14.912-114.363 41.989-2.944 2.505-7.363 2.148-9.867-.797-2.505-2.945-2.148-7.363.797-9.867 34.364-29.228 78.201-45.325 123.434-45.325 39.31 0 76.966 11.803 108.899 34.134 3.863 2.701 6.314 6.936 6.725 11.618.408 4.652-1.252 9.214-4.555 12.518l-106.12 106.12c-1.367 1.364-3.158 2.048-4.95 2.048z" fill="#ff7186"/></g><g><path d="m402.149 410.164c-1.478 0-2.967-.466-4.234-1.43-3.076-2.342-3.672-6.733-1.331-9.81 23.53-30.915 35.967-67.873 35.967-106.881 0-36.424-10.93-71.307-31.607-100.877-.442-.631-1.048-.773-1.37-.801-.371-.033-.915.028-1.395.508l-106.12 106.12c-2.733 2.733-7.166 2.733-9.899 0-2.734-2.733-2.734-7.166 0-9.899l106.12-106.12c3.304-3.304 7.866-4.964 12.519-4.555 4.682.411 8.917 2.862 11.617 6.725 22.331 31.934 34.134 69.591 34.134 108.9 0 42.097-13.426 81.987-38.827 115.359-1.376 1.81-3.463 2.761-5.574 2.761z" fill="#ff7186"/></g><g fill="#ff4155"><path d="m100.009 448.028c-41.631-41.633-64.558-97.029-64.558-155.984 0-63.487 27.343-123.915 75.018-165.789 2.904-2.551 3.191-6.974.64-9.879-2.551-2.904-6.974-3.191-9.879-.64-50.7 44.532-79.779 108.794-79.779 176.308 0 30.207 5.676 59.53 16.495 86.768 32.949 64.127 93.358 111.812 165.694 127.562-38.924-9.419-74.621-29.335-103.631-58.346z"/><path d="m433.752 435.602c-.174-.187-.358-.367-.556-.537-2.932-2.521-7.351-2.188-9.872.744-31.16 36.24-72.82 60.987-118.566 71.332 50.292-10.156 95-35.712 128.994-71.539z"/></g><g><path d="m431.626 154.266c-2.018 0-4.019-.867-5.403-2.545-42.066-50.984-104.109-80.226-170.223-80.226-53.644 0-105.327 19.447-145.531 54.76-2.905 2.552-7.328 2.264-9.879-.64-2.551-2.905-2.265-7.328.64-9.879 42.76-37.557 97.725-58.241 154.77-58.241 70.308 0 136.287 31.096 181.021 85.315 2.461 2.982 2.038 7.394-.944 9.855-1.305 1.076-2.883 1.601-4.451 1.601z" fill="#ff7186"/></g><path d="m473.539 379.786c11.138-27.663 17.009-57.433 17.009-87.743 0-3.866-3.134-7-7-7s-7 3.134-7 7c0 52.79-18.902 103.848-53.225 143.766-2.451 2.85-2.196 7.103.515 9.653 20.039-18.852 36.9-41.038 49.701-65.676z" fill="#ff7186"/><g><path d="m483.549 299.044c-3.866 0-7-3.134-7-7 0-51.155-17.873-100.989-50.326-140.323-2.46-2.982-2.038-7.394.944-9.854 2.983-2.46 7.395-2.037 9.854.944 34.518 41.836 53.527 94.834 53.527 149.233.001 3.866-3.133 7-6.999 7z" fill="#f9a0b1"/></g><path d="m260.291 123.645c-4.303-6.429-12.071-8.334-15.765-8.89l-104.394 62.727c8.431 7.564 14.604 17.587 17.401 28.942l103.961-62.467c2.649-8.332 2.247-15.159-1.203-20.312z" fill="#49b1f7"/><path d="m336.617 98.818c-8.431-7.564-14.603-17.587-17.401-28.942l-76.808 46.151c.001 0 27.082 1.273 17.1 29.123z" fill="#1e9ef4"/><g><ellipse cx="373.655" cy="57.364" fill="#73c3f9" rx="57.363" ry="57.363" transform="matrix(1 -.02 .02 1 -1.067 7.444)"/></g><g><ellipse cx="383.525" cy="45.5" fill="#9bd8f9" rx="28.682" ry="28.682" transform="matrix(.413 -.911 .911 .413 183.803 376.065)"/></g><g><circle cx="104.345" cy="220.186" fill="#73c3f9" r="57.363"/></g><g><ellipse cx="112.546" cy="210.933" fill="#9bd8f9" rx="28.682" ry="28.682" transform="matrix(.233 -.973 .973 .233 -118.78 271.328)"/></g><g><ellipse cx="373.655" cy="368.253" fill="#9bd8f9" rx="28.682" ry="28.682" transform="matrix(.169 -.986 .986 .169 -52.326 674.47)"/></g></g></svg>