<svg id="Layer_1" enable-background="new 0 0 512 512" height="512" viewBox="0 0 512 512" width="512" xmlns="http://www.w3.org/2000/svg"><g><path d="m497.033 222.883c-20.777-114.255-120.784-200.887-241.033-200.887-135.311 0-245.002 109.691-245.002 245.002 0 44.57 11.906 86.357 32.703 122.363z" fill="#ffdd40"/><path d="m501.002 266.998c0-15.062-1.367-29.804-3.969-44.115-32.204-95.513-122.512-164.293-228.887-164.293-64.216 0-122.57 25.072-165.829 65.951 3.081 25.332 22.851 35.047 46.849 31.203-1.609 12.387-7.72 75.087 26.848 113.994 18.952 21.332 46.799 32.113 82.881 32.112 2.551 0 5.15-.054 7.783-.162.562 10.128 5.428 66.58 44.432 99.279 27.463 23.023 62.774 27.194 98.359 21.944-.89 11.057 1.499 21.185 7.136 29.106 51.704-44.921 84.397-111.151 84.397-185.019z" fill="#4fabf7"/><path d="m417.79 450.965c-9.159-13.323-6.574-29.876-6.574-29.876-140.281 22.05-143.07-121.006-143.07-121.006-142.927 6.96-117.156-146.243-117.156-146.243s-43.157 9.855-47.263-30.611c-47.407 44.093-77.074 107.004-77.074 176.854 0 31.538 6.053 61.66 17.048 89.278 42.343 73.306 121.558 122.639 212.299 122.639 62.012 0 118.632-23.05 161.79-61.035z" fill="#1e9ef4"/><path d="m149.166 155.744c-1.609 12.387-7.72 75.087 26.848 113.994 18.952 21.332 46.799 32.113 82.881 32.112 2.551 0 5.15-.054 7.783-.162.562 10.128 5.428 66.58 44.432 99.279 27.406 22.975 62.621 27.176 98.14 21.974 28.643-32.869 45.994-75.836 45.994-122.858 0-103.331-83.767-187.098-187.098-187.098-45.234 0-86.719 16.053-119.069 42.773.028-.005.061-.01.089-.014z" fill="#deeeff"/><path d="m410.778 421.154c-139.846 21.682-142.633-121.071-142.633-121.071-138.515 6.745-118.586-136.937-117.224-145.813-42.603 34.294-69.873 86.865-69.873 145.813 0 103.331 83.767 187.098 187.098 187.098 57.154 0 108.313-25.636 142.632-66.027z" fill="#d3dcfb"/><g><g><path d="m268.146 138.349c-5.66 0-10.25-4.589-10.25-10.25v-14.089c0-5.661 4.589-10.25 10.25-10.25s10.25 4.589 10.25 10.25v14.089c0 5.661-4.59 10.25-10.25 10.25z" fill="#a8b7ef"/></g><g><path d="m268.146 496.406c-5.66 0-10.25-4.589-10.25-10.25v-14.089c0-5.661 4.589-10.25 10.25-10.25s10.25 4.589 10.25 10.25v14.089c0 5.661-4.59 10.25-10.25 10.25z" fill="#a8b7ef"/></g><g><path d="m361.193 471.478c-3.543 0-6.988-1.838-8.887-5.126l-7.045-12.201c-2.831-4.902-1.151-11.171 3.752-14.001 4.904-2.83 11.171-1.151 14.002 3.752l7.045 12.201c2.831 4.902 1.151 11.171-3.752 14.002-1.614.93-3.377 1.373-5.115 1.373z" fill="#a8b7ef"/></g><g><path d="m429.28 403.371c-1.739 0-3.5-.443-5.115-1.375l-12.202-7.044c-4.903-2.83-6.582-9.099-3.752-14.002 2.829-4.902 9.097-6.584 14.002-3.752l12.202 7.044c4.903 2.83 6.582 9.099 3.752 14.002-1.899 3.289-5.345 5.127-8.887 5.127z" fill="#a8b7ef"/></g><g><path d="m96.162 310.333h-14.09c-5.66 0-10.25-4.589-10.25-10.25s4.59-10.25 10.25-10.25h14.09c5.66 0 10.25 4.589 10.25 10.25s-4.589 10.25-10.25 10.25z" fill="#a8b7ef"/></g><g><path d="m454.219 310.333h-14.089c-5.661 0-10.25-4.589-10.25-10.25s4.589-10.25 10.25-10.25h14.089c5.66 0 10.25 4.589 10.25 10.25s-4.59 10.25-10.25 10.25z" fill="#a8b7ef"/></g><g><path d="m107.012 403.371c-3.543 0-6.989-1.838-8.887-5.126-2.831-4.903-1.151-11.171 3.752-14.002l12.202-7.044c4.906-2.83 11.173-1.15 14.002 3.752 2.831 4.903 1.151 11.171-3.752 14.002l-12.202 7.044c-1.615.931-3.377 1.374-5.115 1.374z" fill="#a8b7ef"/></g><g><path d="m417.098 224.343c-3.543 0-6.988-1.838-8.887-5.126-2.831-4.902-1.151-11.171 3.752-14.002l12.202-7.045c4.903-2.83 11.172-1.151 14.002 3.752 2.831 4.902 1.151 11.171-3.752 14.002l-12.202 7.045c-1.614.931-3.376 1.374-5.115 1.374z" fill="#a8b7ef"/></g><g><path d="m175.1 471.478c-1.739 0-3.5-.442-5.115-1.374-4.902-2.83-6.582-9.099-3.752-14.002l7.044-12.201c2.83-4.902 9.098-6.584 14.002-3.753 4.903 2.83 6.582 9.099 3.752 14.001l-7.044 12.201c-1.899 3.29-5.345 5.128-8.887 5.128z" fill="#a8b7ef"/></g><g><path d="m354.128 161.392c-1.739 0-3.5-.443-5.115-1.375-4.903-2.831-6.582-9.099-3.752-14.002l7.045-12.201c2.831-4.902 9.098-6.582 14.002-3.752 4.903 2.831 6.582 9.099 3.752 14.002l-7.045 12.201c-1.899 3.288-5.345 5.127-8.887 5.127z" fill="#a8b7ef"/></g></g><path d="m268.146 300.083c-7.637 0-13.827-6.191-13.827-13.827v-111.037c0-7.637 6.191-13.827 13.827-13.827 7.637 0 13.827 6.191 13.827 13.827v111.037c0 7.636-6.191 13.827-13.827 13.827z" fill="#e80054"/><g><path d="m268.146 497.431c-108.818 0-197.348-88.53-197.348-197.348 0-56.033 23.953-109.627 65.719-147.039 4.215-3.776 10.697-3.421 14.473.796 3.778 4.217 3.421 10.697-.796 14.474-37.429 33.528-58.896 81.556-58.896 131.769 0 97.514 79.334 176.848 176.848 176.848 49.151 0 94.815-19.685 128.581-55.43 3.887-4.115 10.374-4.301 14.49-.412 4.115 3.887 4.299 10.375.412 14.49-18.257 19.326-39.799 34.534-64.031 45.203-25.092 11.048-51.823 16.649-79.452 16.649z" fill="#4fabf7"/></g><g><path d="m143.358 170.929c-2.813 0-5.613-1.151-7.637-3.411-3.778-4.217-3.421-10.697.796-14.474 36.216-32.442 82.963-50.309 131.629-50.309 19.577 0 38.915 2.861 57.476 8.503 5.416 1.647 8.472 7.372 6.826 12.788-1.647 5.417-7.375 8.47-12.787 6.826-16.627-5.054-33.959-7.617-51.514-7.617-43.611 0-85.501 16.009-117.952 45.079-1.957 1.752-4.402 2.615-6.837 2.615z" fill="#73c3f9"/></g><g><path d="m404.175 438.79c-2.525 0-5.056-.927-7.037-2.799-4.115-3.888-4.299-10.375-.412-14.49 31.126-32.949 48.268-76.07 48.268-121.419 0-16.225-2.194-32.292-6.52-47.755-1.525-5.452 1.658-11.108 7.109-12.633 5.449-1.524 11.107 1.658 12.632 7.109 4.83 17.261 7.279 35.187 7.279 53.279 0 50.606-19.13 98.726-53.865 135.496-2.016 2.135-4.732 3.212-7.454 3.212z" fill="#73c3f9"/></g><g><path d="m448.338 259.818c-4.482 0-8.598-2.963-9.865-7.491-7.958-28.444-23.15-54.704-43.936-75.939-20.761-21.21-46.653-36.956-74.878-45.536-5.416-1.647-8.472-7.372-6.826-12.788 1.647-5.417 7.373-8.469 12.787-6.826 31.509 9.578 60.406 27.148 83.566 50.81 23.191 23.693 40.145 53.001 49.028 84.757 1.525 5.451-1.658 11.107-7.109 12.632-.923.258-1.852.381-2.767.381z" fill="#9bd8f9"/></g><g><g><path d="m336.513 382.515-39.328-68.118c-2.893 5.43-7.287 10.146-13.008 13.449s-12.001 4.75-18.15 4.541l39.328 68.118c4.968 8.604 15.97 11.552 24.574 6.585 8.603-4.969 11.551-15.971 6.584-24.575z" fill="#3c58a0"/></g></g><path d="m36.007 100.087c10.805 9.734 25.684 13.865 44.231 12.286 1.926 3.186 9.283 14.665 20.773 24.391 16.867 14.276 34.859 17.965 52.207 10.761-.691 6.078-1.181 20.799 8.035 32.084 5.659 6.929 13.962 11.289 24.762 13.028 21.244-16.111 36.309-39.945 40.971-67.336-10.895.434-19.086-3.803-24.881-8.823-6.424-5.565-10.488-13.323-11.899-21.704-1.919-11.394-9.442-34.24-38.849-47.607-24.063-10.938-20.23-31.833-13.973-45.969-5.237-.787-10.598-1.198-16.056-1.198-46.926 0-86.803 30.157-101.324 72.146 2.149 8.54 6.633 19.499 16.003 27.941z" fill="#ff4155"/><path d="m187.683 191.361c-40.879-5.588-32.578-46.321-32.578-46.321-42.921 20.539-74.057-34.246-74.057-34.246-43.952 4.176-56.506-24.788-60.09-41.289-4.404 11.724-6.82 24.422-6.82 37.685 0 59.199 47.991 107.19 107.19 107.19 25.06 0 48.104-8.609 66.355-23.019z" fill="#e80054"/><g><ellipse cx="268.146" cy="300.083" fill="#ff7186" rx="34.051" ry="34.051" transform="matrix(.148 -.989 .989 .148 -68.205 521.036)"/></g><g><circle cx="274.921" cy="290.354" fill="#fc9daf" r="14.584"/></g><path d="m136.868 1.125c-6.527 14.131-11.187 35.824 13.49 47.041 29.407 13.367 36.93 36.213 38.849 47.607 1.411 8.382 5.475 16.139 11.899 21.704 5.942 5.148 14.396 9.486 25.709 8.795 1.113-6.193 1.703-12.568 1.703-19.082 0-53.921-39.816-98.536-91.65-106.065z" fill="#ff7186"/><g><path d="m120.562 156.393c-7.456 0-13.5-6.044-13.5-13.5v-93.834c0-7.456 6.044-13.5 13.5-13.5s13.5 6.044 13.5 13.5v93.834c0 7.456-6.043 13.5-13.5 13.5z" fill="#d3dcfb"/></g><g><path d="m111.017 170.036-41.41-41.41c-5.272-5.272-5.272-13.82 0-19.092 5.271-5.272 13.82-5.272 19.092 0l31.864 31.864 31.864-31.864c5.271-5.273 13.818-5.272 19.092 0 5.272 5.272 5.272 13.82 0 19.092l-41.41 41.41c-5.271 5.271-13.821 5.272-19.092 0z" fill="#deeeff"/></g></g></svg>