<svg id="Layer_1" enable-background="new 0 0 512 512" height="512" viewBox="0 0 512 512" width="512" xmlns="http://www.w3.org/2000/svg"><g><path d="m256 21.996c-135.311 0-245.002 109.691-245.002 245.002 0 64.782 25.154 123.68 66.214 167.491l118.348 69.99c19.333 4.906 39.58 7.521 60.44 7.521 135.311 0 245.002-109.691 245.002-245.002s-109.691-245.002-245.002-245.002z" fill="#2a428c"/><path d="m176.843 283.37c.308 5.098-1.119 10.15-4.049 14.333l-95.583 136.786c31.481 33.591 72.311 58.309 118.348 69.99l94.001-135.488c2.278-3.253 5.681-5.691 9.875-8.145-84.145 8.909-122.592-77.476-122.592-77.476z" fill="#ffaa7b"/><path d="m395.701 215.954-1.584-1.109c-9.163-6.417-21.91-4.169-28.326 4.994l7.849-11.211c6.236-8.904 5.227-21.263-2.87-28.516-9.652-8.645-24.5-6.685-31.712 3.614l2.539-3.626c6.194-8.846 5.151-21.077-2.853-28.326-9.649-8.74-24.568-6.802-31.803 3.531l51.477-73.518c6.194-8.846 5.15-21.077-2.854-28.326-9.65-8.739-24.569-6.801-31.804 3.531l-88.636 126.588c-1.918 2.74-6.046 2.579-7.717-.318-2.294-3.979-3.879-8.834-4.056-9.651-2.315-10.671-2.702-20.002-8.191-38.403-4.268-14.311-17.042-19.973-26.976-21.273-10.782-1.412-19.29 8.889-16.243 19.328 7.844 26.868.081 49.732 4.901 150.109.081 1.334.036 2.664-.117 3.977 3.476 6.827 12.771 23.342 28.546 39.392 18.134 18.452 48.427 39.412 90.716 36.259 11.284-7.66 30.844-13.231 49.723-40.191 5.157-7.364 41.587-59.391 54.986-78.527 6.416-9.165 4.168-21.911-4.995-28.328z" fill="#ffc7ab"/><g fill="#ffaa7b"><path d="m337.189 149.252c-9.638-6.749-22.923-4.407-29.672 5.232l-29.987 42.826c-6.749 9.639-4.406 22.924 5.232 29.672 9.638 6.749 22.923 4.406 29.672-5.232l29.987-42.826c6.749-9.638 4.406-22.923-5.232-29.672z"/><path d="m369.313 177.663c-9.638-6.749-22.923-4.407-29.672 5.232l-29.987 42.826c-6.749 9.639-4.406 22.923 5.232 29.672s22.923 4.407 29.672-5.232l29.987-42.826c6.749-9.639 4.407-22.924-5.232-29.672z"/><path d="m395.722 214.235c-9.638-6.749-22.923-4.407-29.672 5.232l-21.492 30.694c-6.749 9.639-4.406 22.924 5.232 29.672 9.638 6.749 22.923 4.407 29.672-5.232l21.492-30.694c6.75-9.638 4.407-22.923-5.232-29.672z"/></g><g><path d="m243.869 76.849c-3.967-2.798-4.914-8.281-2.117-12.248 17.253-24.462 42.187-27.13 43.24-27.232 4.836-.457 9.127 3.073 9.593 7.904.465 4.813-3.045 9.094-7.848 9.587-.847.096-18.209 2.276-30.62 19.873-2.805 3.977-8.291 4.908-12.248 2.116z" fill="#ffdd40"/></g><g><path d="m230.448 48.063c-4.488-1.849-6.628-6.986-4.779-11.474 11.402-27.676 35.125-35.806 36.129-36.139 4.61-1.528 9.581.973 11.107 5.581 1.52 4.591-.954 9.544-5.529 11.089-.826.289-17.256 6.269-25.452 26.164-1.838 4.458-6.959 6.64-11.476 4.779z" fill="#ffdd40"/></g><g><path d="m182.926 74.733c-12.455-17.658-30.387-19.849-30.564-19.866-4.831-.467-8.37-4.762-7.904-9.593s4.755-8.374 9.593-7.904c1.053.102 25.987 2.771 43.24 27.232 2.798 3.967 1.85 9.45-2.117 12.248-3.951 2.786-9.439 1.866-12.248-2.117z" fill="#ffc839"/></g><g><path d="m197.119 43.284c-8.23-19.976-24.762-25.924-25.461-26.167-4.608-1.526-7.076-6.488-5.551-11.096 1.527-4.608 6.527-7.1 11.137-5.57 1.004.332 24.727 8.463 36.128 36.139 1.849 4.488-.291 9.625-4.779 11.474-4.516 1.861-9.636-.32-11.474-4.78z" fill="#ffc839"/></g><path d="m82.736 93.777c-44.324 44.335-71.738 105.576-71.738 173.221 0 37.796 8.575 73.582 23.864 105.545 98.472-20.665 87.122-136.64 87.122-204.597-.001-38.754-19.986-61.369-39.248-74.169z" fill="#3c58a0"/><path d="m501.002 266.998c0-72.173-31.213-137.051-80.87-181.889-8.578 26.639-16.862 77.528 23.393 120.514 57.477 61.375-41.835 159.127-90.418 195.127-33.541 24.854-51.461 67.66-31.568 102.37 103.486-28.662 179.463-123.513 179.463-236.122z" fill="#3c58a0"/><path d="m177.483 118.383c-2.356-.904-4.989.21-6.104 2.474-1.727 3.507-2.24 7.683-1.013 11.882 2.222 7.612 3.281 14.926 3.73 23.539.192 3.687 4.036 6.04 7.417 4.554 7.533-3.312 13.103-10.739 9.949-25.055-2.313-10.493-8.412-15.256-13.979-17.394z" fill="#fce4d9"/></g></svg>