<svg id="Layer_1" enable-background="new 0 0 512 512" height="512" viewBox="0 0 512 512" width="512" xmlns="http://www.w3.org/2000/svg"><g><path d="m284.936 376.998c81.603-81.602 176.322-243.794 176.322-243.794-43.731-66.953-119.321-111.208-205.258-111.208-135.311 0-245.002 109.691-245.002 245.002 0 54.992 18.118 105.752 48.711 146.637-.001 0 143.625 44.966 225.227-36.637z" fill="#88ce65"/><path d="m91.195 310.624-.51 18.043-47.542 31.212c1.349 7.469 4.337 16.224 10.88 21.636 1.498 1.239 2.949 2.109 4.238 2.726l53.206-34.023c4.037-2.582 7.377-6.118 9.724-10.296 1.653-2.942 2.783-6.149 3.339-9.477l2.281-13.632c-8.933-13.039-25.837-9.346-35.616-6.189z" fill="#4f71b6"/><path d="m120.06 229.817c-14.363-3.266-27.89 8.042-27.225 22.756l-1.697 60.07c9.673-3.129 26.384-6.815 35.402 5.792l10.545-63.018c2.051-11.707-5.436-22.965-17.025-25.6z" fill="#3c58a0"/><path d="m191.048 182.85c-2.025-.553-5.984-1.354-11.078-1.033-6.749.427-16.858 3-26.696 12.838l-15.296 19.852c-.255.354-6.208 8.791-3.492 19.558 1.385 5.49 4.755 10.507 10.035 15.012 15.356-14.951 33.903-35.671 46.893-50.583 7.138-8.194 8.479-19.547 4.21-28.947z" fill="#49b1f7"/><path d="m196.479 171.667c-1.257-3.54-3.244-6.875-6.01-9.738-10.328-10.691-27.371-11.062-38.12-.793-30.667 29.299-48.327 59.052-56.685 75.613-4.9 9.708-1.085 21.602 8.622 26.505 8.114 4.099 19.09 5.017 31.617-6.119 3.024-2.688 6.287-5.768 9.693-9.111-18.553-15.75-6.402-32.642-6.402-32.642l15.139-19.667c18.404-18.404 37.658-11 37.658-11z" fill="#1e9ef4"/><path d="m169.05 355.721-2.54-1.893c-1.982-1.477-2.684-4.124-1.695-6.389l.523-1.136c-5.175.739-14.738-.229-25.782-12.542l-3.748 8.175c-4.832 11.067-1.444 23.836 8.239 31.053l8.104 6.04c6.3 4.695 15.183 3.464 19.975-2.721 4.942-6.378 3.393-15.766-3.076-20.587z" fill="#d1714b"/><path d="m57.193 393.677-1.147-2.953c-.895-2.304-.083-4.92 1.957-6.314l1.047-.685c-4.777-2.122-12.365-8.022-15.183-24.32l-7.518 4.936c-9.972 6.811-13.884 19.429-9.512 30.687l3.659 9.422c2.844 7.325 11.025 10.999 18.37 8.305 7.574-2.781 11.248-11.558 8.327-19.078z" fill="#d1714b"/><path d="m340.736 0c-28.816 0-54.945 11.484-74.074 30.119.341 5.301 1.545 10.878 4.129 16.382 7.734 16.47 25.712 27.69 53.435 33.351 54.447 11.116 50.079 38.319 45.455 67.12-3.357 20.908-6.798 42.391 14.631 56.048 36.906-16.632 62.598-53.738 62.598-96.847-.001-58.637-47.536-106.173-106.174-106.173z" fill="#876d93"/><path d="m385.935 202.266c-50.463-30.784 35.916-104.013-61.409-123.884-44.742-9.135-55.743-31.246-56.398-49.664-20.656 19.371-33.565 46.904-33.565 77.456 0 58.638 47.536 106.174 106.174 106.174 16.165-.001 31.483-3.62 45.198-10.082z" fill="#6c5475"/><path d="m235.025 144.377c-9.121 15.188-29.88 24.679-43.534 16.48s-15.031-30.984-5.911-46.172c9.121-15.188 26.051-18.303 39.705-10.104 13.655 8.199 18.861 24.608 9.74 39.796z" fill="#ffc7ab"/><path d="m217.701 202.789c-8.51-13.143-18.081-28.867-24.614-39.982-4.029-6.852-12.848-9.142-19.702-5.115-6.853 4.028-9.143 12.848-5.115 19.702 1.994 3.393 13.625 23.097 25.166 40.892 13.064-2.485 20.402-9.781 24.265-15.497z" fill="#73c3f9"/><path d="m173.101 36.391c-94.512 33.98-162.103 124.395-162.103 230.607 0 18.058 1.966 35.656 5.673 52.601 27.409-6.621 43.037-26.081 43.037-76.217 0-67 39.913-86.904 86.091-133.082 24.898-24.897 28.898-53.152 27.302-73.909z" fill="#b4d667"/><path d="m333.082 376.382c-69.517-34.599-50.681-84.398-34.744-109.51-63.652 8.048-45.338 75.551-100.271 92.532-26.677 8.246-47.419 20.264-62.085 30.892-21.094 15.286-46.563 23.339-72.613 23.339h-3.661c44.682 59.715 115.973 98.365 196.292 98.365 35.86 0 69.92-7.707 100.616-21.55-21.881-43.452 52.944-76.005-23.534-114.068z" fill="#bc6242"/><path d="m443.686 424.459c-12.555-4.62-24.673-12.487-34.255-25.411-25.85-34.865-74.51-36.091-98.354-34.318 6.155 4.642 13.268 8.978 21.337 12.994 44.822 22.309 36.555 41.847 26.981 64.47-6.296 14.879-13.096 30.962-4.119 48.841 34.356-15.246 64.545-38.165 88.41-66.576z" fill="#d1714b"/><path d="m313.584 366.563c24.607-1.483 70.871.8 95.846 34.485 9.255 12.483 20.877 20.252 32.973 24.932 36.535-42.788 58.599-98.305 58.599-158.982 0-49.374-14.618-95.327-39.744-133.794-12.945 5.192-26.472 11.703-40.572 25.804-40.04 40.04-29.572 107.072-109.111 107.072-5.55 0-10.578.378-15.178 1.066-.966 1.559-1.939 3.201-2.901 4.93-6.793 12.212-14.169 30.87-10.737 50.405 2.96 16.852 13.307 31.62 30.825 44.082z" fill="#e58b6c"/><path d="m178.947 252.71-54.127-26.753c-10.595-5.383-23.55-1.513-29.457 8.799-7.321 12.781-.461 29.023 13.805 32.687l48.579 16.36c-6.443-28.911 21.2-31.093 21.2-31.093z" fill="#4f71b6"/><path d="m193.917 273.378c-1.278-8.936-6.878-16.667-14.97-20.667l-2.366-1.169c-3.892.731-11.924 3.017-16.98 9.858-4.023 5.442-5.248 12.535-3.651 21.101l-1.547.177 3.344 1.126c1.626.547 2.698 2.098 2.638 3.811-.018.512-.137 1.014-.35 1.48l-20.84 45.453c5.11 5.612 12.292 11.443 20.71 12.553 1.928.254 3.619.22 5.039.058l26.769-58.518c2.182-4.772 2.947-10.069 2.204-15.263z" fill="#6389c6"/><path d="m229.284 250.9c5.689-.865 11.059-4.278 16.392-9.713-22.858-3.082-16.154-25.395-16.154-25.395-.797 1.069-2.405 1.046-3.168-.048-2.675-3.835-5.703-8.391-8.873-13.293-3.918 5.719-11.299 12.935-24.359 15.353 7.385 11.408 14.77 22.101 19.605 27.305 4.317 4.647 10.361 6.734 16.557 5.791z" fill="#ffaa7b"/><path d="m276.76 160.424c-7.166-3.435-15.765-.408-19.2 6.76-9.173 19.141-20.353 38.294-28.037 48.608-.431.578-1.097.826-1.74.768-.729 3.279-2.098 12.514 3.581 19.259 2.946 3.499 7.296 5.724 12.981 6.68 7.279-6.942 14.445-17.717 22.212-31.004 9.28-15.876 16.654-31.225 16.964-31.871 3.434-7.168.407-15.765-6.761-19.2z" fill="#ffc7ab"/></g></svg>