<svg id="Capa_1" enable-background="new 0 0 512 512" height="512" viewBox="0 0 512 512" width="512" xmlns="http://www.w3.org/2000/svg"><g><path d="m0 256c0-124.92 89.474-228.942 207.833-251.476 15.6-2.97 64.816 9.346 73.422 10.22 129.089 13.11 217.532 110.409 217.532 242.957 0 37.021-7.307 68.227-21.447 100-3.827 8.601 4.546 19.229-.17 27.298-10.102 17.283-22.172 33.275-35.903 47.67-1.032 1.082-6.075 2.156-7.126 3.22-2.689 2.723-5.439 5.385-8.247 7.986h-343.788c-50.497-46.76-82.106-113.626-82.106-187.875z" fill="#65befc"/><path d="m458.149 256c0 112.114-90.886 203-203 203s-203-90.886-203-203 90.886-203 203-203 203 90.886 203 203z" fill="#93d0fd"/><path d="m441.267 432.67c-37.883 39.715-88.407 67.267-145.117 76.2-2.085.328-4.215.328-6.3 0-53.287-8.394-101.112-33.226-138.121-69.143-2.647-2.569-.832-7.057 2.856-7.057h158.342c16.674 0 33.05-3.537 48.698-9.292 2.61-.96 5.431-1.484 8.374-1.484s5.764.524 8.374 1.484c15.649 5.755 32.025 9.292 48.698 9.292z" fill="#ca6d36"/><path d="m298.308 508.52c-13.762 2.289-27.896 3.48-42.308 3.48-72.879 0-138.645-30.454-185.267-79.33h84.617c37.402 39.211 87.126 66.564 142.958 75.85z" fill="#ad5e2e"/><path d="m483.157 374.164c-14.316 27.465-38.844 37.177-69.817 37.177-21.5 0-36.219-7.194-36.628-28.596-.422-22.085 18.076-40.161 40.164-40.161h6.419c-4.163-6.247-3.295-21.034-3.295-29.104 0-12.356 5.689-23.384 14.591-30.606h-14.483c-21.707 0-36.332-18.075-36.295-39.782.02-11.656 5.103-22.125 13.167-29.325h-3.057c-21.701 0-39.866-17.246-40.107-38.945-.139-12.538 5.58-23.745 14.589-31.055l-48.441-1.702c-21.701 0-39.866-17.246-40.107-38.945-.139-12.538 5.579-17.022 14.589-24.332 0 0-53.832-8.787-53.838-8.787h-13.989c-21.756 0-39.394-8.85-39.394-30.606-.002-21.758 14.514-39.395 36.27-39.395 0 0 26.757.05 29.432.018 141.781-1.668 258.557 113.242 259.071 255.033.156 42.975-10.278 83.5-28.841 119.113z" fill="#314dca"/><path d="m473.948 269.232c-5.355 6.728-8.556 15.247-8.556 24.515 0 5.862 1.281 11.424 3.577 16.423 1.158 2.521-.63 5.396-3.405 5.396-22.089 0-40.587 18.077-40.165 40.161.409 21.402 17.886 38.626 39.386 38.626 1.223 0 2.443-.027 3.658-.08-15.391 15.468-36.563 24.514-59.05 24.514-21.5 0-38.977-17.223-39.386-38.625-.422-22.085 18.076-40.162 40.165-40.162h6.419c-4.163-6.247-6.59-13.749-6.59-21.819 0-12.356 5.689-23.384 14.591-30.606h-14.483c-21.708 0-40.146-17.756-40.108-39.463.021-11.656 5.103-22.124 13.167-29.324h-3.057c-21.701 0-39.866-17.246-40.107-38.946-.139-12.538 5.58-23.744 14.589-31.054h-44.483c-21.701 0-39.866-17.246-40.107-38.946-.139-12.538 5.58-23.744 14.589-31.054 0 0-43.978 0-43.985 0h-35.265c-22.089 0-40.587-18.077-40.164-40.162.409-21.402 17.886-38.626 39.386-38.626 0 0 8.817.01 18.932.018-1.962 4.781-3.01 10.033-2.929 15.54.321 21.635 18.432 38.796 40.069 38.796h35.363 43.984c-9.009 7.31-14.728 18.516-14.588 31.054.241 21.7 18.407 38.946 40.108 38.946h18.097c9.742 0 16.522 9.482 13.599 18.775-1.217 3.869-1.853 7.996-1.805 12.279.241 21.7 18.407 38.946 40.108 38.946h3.056c-8.064 7.2-13.146 17.668-13.167 29.324-.038 21.708 18.4 39.463 40.108 39.463h5.443c3.14 0 4.961 3.635 3.006 6.091z" fill="#2740b1"/><path d="m390 372.702c0 8.284-6.716 15-15 15h-90c-8.284 0-15-6.716-15-15s6.716-15 15-15h90c8.284 0 15 6.716 15 15z" fill="#ff9500"/><path d="m340 317.069v75.633c0 8.284-6.716 15-15 15h-310c-8.284 0-15-6.716-15-15v-35.508c0-31.658 12.725-61.987 35.314-84.167l86.708-85.139c13.176-12.938 30.904-20.186 49.37-20.186h113.968c6.436 0 12.155 4.106 14.213 10.204l34.235 101.446c4.1 12.152 6.192 24.892 6.192 37.717z" fill="#ff8835"/><path d="m242.125 167.702c-18.466 0-36.194 7.249-49.37 20.186l-86.708 85.139c-22.589 22.18-35.314 52.509-35.314 84.167v35.508c0 8.284 6.716 15 15 15h-70.733c-8.284 0-15-6.716-15-15v-35.508c0-31.658 12.725-61.987 35.314-84.167l86.708-85.139c13.176-12.938 30.904-20.186 49.37-20.186z" fill="#ff7117"/><path d="m289.065 277.702h-197.666c-4.477 0-6.697-5.431-3.503-8.568l62.822-61.685c6.363-6.248 14.923-9.748 23.841-9.748h90.884c2.145 0 4.052 1.369 4.738 3.401l23.623 70c1.093 3.242-1.318 6.6-4.739 6.6z" fill="#4f66d1"/><path d="m210.617 197.702-81.475 80h-37.743c-4.477 0-6.697-5.431-3.503-8.568l62.822-61.685c6.363-6.248 14.923-9.748 23.841-9.748h36.058z" fill="#314dca"/><path d="m230 118.787c0 11.046-8.954 20-20 20s-20-8.954-20-20 8.954-20 20-20 20 8.954 20 20zm92.577-78.056c-11.046 0-20 8.954-20 20s8.954 20 20 20 20-8.954 20-20-8.955-20-20-20zm127.423 69.269c11.046 0 20-8.954 20-20s-8.954-20-20-20-20 8.954-20 20 8.954 20 20 20zm-65 190c-8.284 0-15 6.716-15 15s6.716 15 15 15 15-6.716 15-15-6.716-15-15-15zm90 70c-8.284 0-15 6.716-15 15s6.716 15 15 15 15-6.716 15-15-6.716-15-15-15zm-380-320c-13.807 0-25 11.193-25 25s11.193 25 25 25 25-11.193 25-25-11.193-25-25-25zm375 155c0-13.807-11.193-25-25-25s-25 11.193-25 25 11.193 25 25 25 25-11.193 25-25z" fill="#172a7d"/><path d="m126.131 272.702c0 8.284-6.716 15-15 15h-17.83c-8.284 0-15-6.716-15-15s6.716-15 15-15h17.83c8.285 0 15 6.716 15 15z" fill="#ff9d5c"/><path d="m350 337.702v70c0 5.523-4.477 10-10 10h-140c-5.523 0-10-4.477-10-10 0-44.183 35.817-80 80-80h70c5.523 0 10 4.477 10 10zm-301.921-31.723c0 8.284-6.716 15-15 15h-18.079c-8.284 0-15-6.716-15-15s6.716-15 15-15h18.079c8.284 0 15 6.716 15 15z" fill="#ffb509"/><path d="m340 402.702c0 30.375-24.624 55-55 55s-55-24.625-55-55c0-30.376 24.624-55 55-55s55 24.624 55 55zm-275-55c-30.376 0-55 24.624-55 55 0 30.375 24.624 55 55 55s55-24.625 55-55c0-30.376-24.624-55-55-55z" fill="#172a7d"/><path d="m340.617 402.702c0 19.24-9.489 36.383-25.459 46.002-27.581-2.963-49.058-26.315-49.058-54.683 0-19.24 9.879-36.173 24.842-46.002 29.021 2.47 49.675 26.315 49.675 54.683zm-269.675-54.682c-14.962 9.829-24.842 26.761-24.842 46.001 0 28.368 21.477 51.72 49.058 54.683 15.799-9.491 25.331-26.762 25.331-46.002 0-28.368-21.404-52.596-49.547-54.682z" fill="#1f3597"/><path d="m310 402.702c0 13.807-11.193 25-25 25s-25-11.193-25-25 11.193-25 25-25 25 11.193 25 25zm-245-25c-13.807 0-25 11.193-25 25s11.193 25 25 25 25-11.193 25-25-11.193-25-25-25z" fill="#4f66d1"/><path d="m77 402.702c0 6.627-5.373 12-12 12s-12-5.373-12-12 5.373-12 12-12 12 5.373 12 12zm208-12c-6.627 0-12 5.373-12 12s5.373 12 12 12 12-5.373 12-12-5.373-12-12-12z" fill="#6c7fd9"/></g></svg>