<svg id="Capa_1" enable-background="new 0 0 512 512" height="512" viewBox="0 0 512 512" width="512" xmlns="http://www.w3.org/2000/svg"><g><path d="m512 256c0 141.385-114.615 256-256 256s-256-114.615-256-256 114.615-256 256-256 256 114.615 256 256z" fill="#2b3894"/><path d="m470.871 235c0 109.449-88.726 198.175-198.175 198.175s-198.175-88.726-198.175-198.175 88.726-198.175 198.175-198.175c109.45 0 198.175 88.726 198.175 198.175z" fill="#3342ae"/><path d="m362.753 407.755h-8.75v-8.75c0-2.761-2.239-5-5-5s-5 2.239-5 5v8.75h-8.75c-2.761 0-5 2.239-5 5s2.239 5 5 5h8.75v8.75c0 2.761 2.239 5 5 5s5-2.239 5-5v-8.75h8.75c2.761 0 5-2.239 5-5s-2.239-5-5-5zm-275.122-195.755c0 2.761-2.239 5-5 5h-27.5c-2.761 0-5-2.239-5-5 0-2.761 2.239-5 5-5h27.5c2.761 0 5 2.239 5 5z" fill="#717ed6"/><path d="m265.865 460.417c-18.563 30.971-52.491 51.677-91.248 51.583-58.035-.141-105.595-47.701-105.736-105.736-.095-38.821 20.681-72.797 51.737-91.34 1.797-1.073 3.9.804 3.063 2.722-5.727 13.126-8.874 27.636-8.799 42.889.286 57.838 47.625 105.178 105.463 105.463 15.19.075 29.642-3.045 42.725-8.727 1.971-.856 3.9 1.302 2.795 3.146z" fill="#1ab975"/><path d="m280.88 406c0 20.303-5.708 39.273-15.607 55.393-16.12 9.899-35.089 15.607-55.393 15.607-58.542 0-106-47.458-106-106 0-20.303 5.708-39.273 15.608-55.392 16.119-9.9 35.089-15.608 55.392-15.608 58.543 0 106 47.458 106 106z" fill="#1ed688"/><path d="m197.156 374.813c-2.658-3.177-2.238-7.907.938-10.565 3.177-2.658 7.906-2.238 10.565.939 1.45 1.733 3.26 2.687 5.096 2.687 1.837 0 3.646-.954 5.097-2.687 2.658-3.177 7.389-3.596 10.565-.939 3.177 2.658 3.597 7.388.938 10.565-4.287 5.123-10.337 8.061-16.601 8.061-6.261 0-12.311-2.938-16.598-8.061zm25.243 58.3c-26.199 7.164-68.835 7.164-95.038 0-3.998-1.095-8.121 1.261-9.213 5.256-1.093 3.995 1.261 8.12 5.256 9.212 14.433 3.946 32.954 5.919 51.477 5.919 18.521 0 37.043-1.973 51.476-5.919 3.995-1.092 6.349-5.217 5.256-9.212s-5.214-6.351-9.214-5.256zm-86.395-50.239c6.264 0 12.313-2.938 16.601-8.061 2.658-3.177 2.238-7.907-.938-10.565-3.177-2.658-7.907-2.238-10.565.939-1.45 1.733-3.26 2.687-5.097 2.687-1.836 0-3.646-.954-5.096-2.687-2.659-3.177-7.389-3.596-10.565-.939-3.177 2.658-3.597 7.388-.938 10.565 4.285 5.123 10.335 8.061 16.598 8.061z" fill="#127d4f"/><path d="m496.984 310.417c-18.563 30.971-52.491 51.677-91.248 51.583-58.035-.142-105.594-47.701-105.736-105.736-.094-38.821 20.681-72.797 51.737-91.34 1.797-1.073 3.9.804 3.063 2.722-5.728 13.126-8.874 27.636-8.799 42.889.286 57.838 47.625 105.178 105.463 105.463 15.19.075 29.642-3.045 42.725-8.727 1.972-.856 3.9 1.302 2.795 3.146z" fill="#e9cc5a"/><path d="m512 256c0 20.303-5.708 39.273-15.607 55.393-16.12 9.899-35.09 15.607-55.393 15.607-58.542 0-106-47.458-106-106 0-20.303 5.708-39.273 15.607-55.392 16.12-9.9 35.09-15.608 55.393-15.608 58.542 0 106 47.458 106 106z" fill="#fff36c"/><path d="m260.989 271h-8.75v-8.75c0-2.761-2.239-5-5-5s-5 2.239-5 5v8.75h-8.75c-2.761 0-5 2.239-5 5s2.239 5 5 5h8.75v8.75c0 2.761 2.239 5 5 5s5-2.239 5-5v-8.75h8.75c2.761 0 5-2.239 5-5s-2.239-5-5-5zm163.66-169.906h-8.75v-8.75c0-2.761-2.239-5-5-5s-5 2.239-5 5v8.75h-8.75c-2.761 0-5 2.239-5 5s2.239 5 5 5h8.75v8.75c0 2.761 2.239 5 5 5s5-2.239 5-5v-8.75h8.75c2.761 0 5-2.239 5-5s-2.238-5-5-5z" fill="#fff36c"/><path d="m460.801 274.697c2.929 2.929 2.929 7.677 0 10.606-14.648 14.649-34.11 22.716-54.801 22.716s-40.152-8.067-54.801-22.716c-2.929-2.929-2.929-7.678 0-10.606 2.931-2.929 7.679-2.928 10.607 0 11.814 11.815 27.51 18.322 44.193 18.322s32.379-6.507 44.193-18.322c2.931-2.929 7.679-2.929 10.609 0zm-109.337-43.571c3.175 2.657 7.905 2.238 10.564-.939 1.45-1.732 3.259-2.687 5.095-2.687 1.837 0 3.646.954 5.097 2.687 1.483 1.773 3.612 2.687 5.756 2.687 1.698 0 3.405-.574 4.81-1.749 3.177-2.658 3.597-7.388.938-10.565-4.287-5.123-10.338-8.061-16.601-8.061s-12.313 2.938-16.599 8.061c-2.658 3.178-2.237 7.908.94 10.566zm77.751 0c3.177 2.658 7.907 2.238 10.565-.938 1.45-1.733 3.26-2.687 5.096-2.687s3.646.954 5.096 2.687c1.483 1.773 3.612 2.687 5.756 2.687 1.698 0 3.405-.574 4.81-1.749 3.177-2.658 3.597-7.388.938-10.565-4.287-5.123-10.337-8.061-16.6-8.061s-12.313 2.938-16.6 8.061c-2.658 3.176-2.238 7.907.939 10.565z" fill="#c1924d"/><path d="m265.865 160.417c-18.563 30.971-52.491 51.677-91.248 51.583-58.035-.141-105.595-47.701-105.736-105.736-.095-38.821 20.681-72.797 51.737-91.34 1.797-1.073 3.9.804 3.063 2.722-5.727 13.126-8.874 27.636-8.799 42.889.286 57.838 47.625 105.178 105.463 105.463 15.19.075 29.642-3.045 42.725-8.727 1.971-.856 3.9 1.302 2.795 3.146z" fill="#e5554e"/><path d="m280.88 106c0 20.303-5.708 39.273-15.607 55.393-16.12 9.899-35.089 15.607-55.393 15.607-58.542 0-106-47.458-106-106 0-20.303 5.708-39.273 15.608-55.392 16.119-9.9 35.089-15.608 55.392-15.608 58.543 0 106 47.458 106 106z" fill="#f76c57"/><path d="m229.682 145.823c-1.465 1.465-3.385 2.197-5.304 2.197s-3.839-.732-5.304-2.197c-24.367-24.368-64.021-24.369-88.388 0-2.931 2.929-7.679 2.928-10.607 0-2.929-2.929-2.929-7.678 0-10.606 30.219-30.216 79.384-30.218 109.603 0 2.928 2.928 2.928 7.677 0 10.606zm-100.718-70.663c2.248-.199 4.204.405 5.503 1.703s1.904 3.253 1.704 5.504c-.366 4.126 2.682 7.767 6.808 8.134.226.02.449.03.672.03 3.842 0 7.115-2.937 7.462-6.837.591-6.654-1.61-13.01-6.039-17.438s-10.792-6.632-17.438-6.037c-4.126.366-7.173 4.008-6.807 8.134.367 4.126 4.028 7.177 8.135 6.807zm77.147 15.371c.223 0 .447-.01.673-.03 4.126-.367 7.173-4.009 6.807-8.135-.2-2.25.404-4.205 1.703-5.503 1.298-1.298 3.256-1.903 5.503-1.703 4.138.37 7.769-2.681 8.135-6.807s-2.681-7.768-6.807-8.134c-6.65-.591-13.01 1.609-17.438 6.038-4.429 4.428-6.629 10.784-6.038 17.438.347 3.9 3.621 6.836 7.462 6.836z" fill="#af3030"/><path d="m361.204 80.328c0 2.761-2.239 5-5 5h-27.5c-2.761 0-5-2.239-5-5 0-2.761 2.239-5 5-5h27.5c2.761 0 5 2.238 5 5zm-209.187 169.875h-27.5c-2.761 0-5 2.239-5 5 0 2.761 2.239 5 5 5h27.5c2.761 0 5-2.239 5-5 0-2.761-2.238-5-5-5z" fill="#f76c57"/></g></svg>