<svg id="Layer_1" enable-background="new 0 0 512 512" height="512" viewBox="0 0 512 512" width="512" xmlns="http://www.w3.org/2000/svg"><g><path d="m40.69 383.965 127.133 111.672c27.363 10.559 57.091 16.363 88.177 16.363s60.814-5.804 88.177-16.363l127.133-111.672s.009.014.01.016c18.926-34.763 29.682-74.616 29.682-116.983 0-135.311-109.691-245.002-245.002-245.002s-245.002 109.691-245.002 245.002c0 42.38 10.763 82.245 29.701 117.016z" fill="#816ae2"/><path d="m225.639 323.904c4.088-1.418 19.267-3.352 19.267-11.147 0-10.775-9.178-19.43-20.134-32.666-3.486-4.212-4.711-9.851-3.28-15.127.684-3.278 3.499-9.552 2.543-19.14-4.015-40.281-32.378-75.069-69.206-90.718-10.603 5.264-26.571 14.369-41.393 27.467-33.256 29.39-45.715 65.412-36.029 104.173 10.617 42.495 21.729 61.65 29.082 74.325 8.64 14.893 10.962 18.896-.133 40.875-9.627 19.072-11.45 36.751-10.588 50.36 21.164 18.317 45.489 33.08 72.06 43.336-.57-16.442-4.885-32.56-12.638-47.108-.51-.956-1.01-1.891-1.499-2.802-6.198-11.549-7.165-25.195-2.63-37.493l3.586-9.723c.509-2.505 2.959-4.263 5.446-3.669 7.431 1.778 15.861 7.341 28.363 7.026 6.089-.154 12.504-2.677 15.373-8.05 1.748-3.272 1.811-6.007 1.618-18.265 0-4.169 1.692-8.16 4.69-11.058l4.817-4.657c1.799-1.74 2.531-4.308 1.919-6.735l-.561-2.225c-.191-.757.073-1.556.676-2.05l9.349-5.069c.594-.487.938-1.215.938-1.983l-2.723-16.348c0-.691.435-1.303 1.087-1.529z" fill="#ffdd40"/><g><path d="m158.266 130.348c-1.321 0-2.662-.282-3.937-.879-4.656-2.178-6.665-7.718-4.488-12.375 19.202-41.053 60.821-67.58 106.029-67.58 5.141 0 9.307 4.167 9.307 9.307 0 5.141-4.167 9.307-9.307 9.307-38.013 0-73.014 22.316-89.167 56.853-1.582 3.382-4.936 5.367-8.437 5.367z" fill="#49b1f7"/></g><g><path d="m353.491 130.38c-3.502 0-6.857-1.987-8.438-5.369-16.149-34.553-51.155-56.881-89.183-56.881-5.14 0-9.307-4.167-9.307-9.307 0-5.141 4.167-9.307 9.307-9.307 45.225 0 86.851 26.54 106.046 67.614 2.176 4.657.165 10.196-4.491 12.372-1.274.596-2.615.878-3.934.878z" fill="#73c3f9"/></g><g><path d="m107.536 120.318c-1.115 0-2.249-.201-3.352-.627-4.795-1.853-7.18-7.242-5.327-12.036 12.111-31.348 33.131-58.126 60.787-77.439 28.306-19.767 61.581-30.216 96.226-30.216 5.141 0 9.307 4.167 9.307 9.307s-4.167 9.308-9.307 9.308c-30.814 0-60.403 9.289-85.569 26.863-24.608 17.185-43.309 41.005-54.081 68.885-1.426 3.692-4.95 5.955-8.684 5.955z" fill="#ffb332"/></g><g><path d="m404.224 120.368c-3.736 0-7.259-2.264-8.685-5.959-11.34-29.382-32.225-54.983-58.806-72.088-4.323-2.781-5.572-8.541-2.79-12.863 2.782-4.323 8.54-5.571 12.863-2.79 29.875 19.224 53.349 48.005 66.1 81.04 1.851 4.795-.536 10.183-5.332 12.034-1.103.426-2.236.626-3.35.626z" fill="#ffb332"/></g><g><path d="m407.22 124.697c-1.017 0-2.05-.169-3.065-.522l-29.389-10.246c-4.854-1.692-7.417-6.999-5.725-11.853 1.693-4.854 6.998-7.414 11.853-5.724l20.6 7.182 7.182-20.6c1.693-4.856 7-7.419 11.853-5.724 4.854 1.692 7.417 6.999 5.725 11.853l-10.246 29.389c-1.338 3.838-4.939 6.245-8.788 6.245z" fill="#ffb332"/></g><g><path d="m157.926 132.49c-3.849 0-7.449-2.407-8.788-6.246l-10.246-29.389c-1.692-4.854.871-10.161 5.725-11.852 4.854-1.694 10.16.871 11.853 5.724l7.182 20.6 20.6-7.182c4.853-1.693 10.161.87 11.853 5.724s-.871 10.161-5.725 11.852l-29.389 10.246c-1.014.354-2.049.523-3.065.523z" fill="#49b1f7"/></g><g><path d="m341.76 43.803c-1.725 0-3.47-.479-5.028-1.482-24.101-15.509-52.063-23.707-80.862-23.707-5.14 0-9.307-4.167-9.307-9.308s4.167-9.306 9.307-9.306c32.379 0 63.824 9.222 90.935 26.668 4.323 2.781 5.572 8.541 2.79 12.863-1.778 2.765-4.775 4.272-7.835 4.272z" fill="#ffdd40"/></g><path d="m256 512c20.909 0 41.199-2.637 60.573-7.569-.442-56.355-27.389-101.81-60.573-101.81s-60.132 45.454-60.573 101.81c19.373 4.932 39.664 7.569 60.573 7.569z" fill="#9181f2"/><path d="m4.024 257.16c-.949 32.798 12.731 62.419 34.995 82.828 8.034 7.365 11.678 18.521 8.753 29.021-1.502 5.394-3.911 10.445-7.082 14.956 14.469 26.581 33.723 50.174 56.594 69.646-1.06-13.512.546-31.447 10.411-50.99 20.946-41.495-5.5-22.856-28.833-116.24-18.798-75.234 50.211-117.076 77.751-130.502-13.334-5.934-27.828-9.355-42.715-9.59-59.186-.928-108.161 51.702-109.874 110.871z" fill="#ffb332"/><path d="m419.741 148.36c-7.005-1.465-14.243-2.186-21.64-2.07-55.03.865-104.722 45.208-110.137 99.533-.955 9.588 1.859 15.862 2.543 19.14 1.431 5.277.206 10.916-3.28 15.127-10.955 13.237-20.134 21.891-20.134 32.666 0 7.794 15.179 9.729 19.267 11.147.652.226 1.087.838 1.087 1.528l-2.723 16.348c0 .768.344 1.496.938 1.983l9.349 5.069c.603.495.867 1.294.676 2.05l-.561 2.225c-.612 2.427.12 4.995 1.919 6.735l4.817 4.657c2.997 2.898 4.69 6.889 4.69 11.058-.193 12.258-.13 14.993 1.618 18.265 2.87 5.373 9.284 7.897 15.373 8.05 12.501.315 20.932-5.248 28.363-7.026 2.486-.594 4.937 1.164 5.445 3.669l3.586 9.723c4.535 12.298 3.569 25.944-2.63 37.493-.489.911-.989 1.846-1.499 2.802-7.753 14.548-12.068 30.665-12.638 47.108 27.078-10.451 51.83-25.576 73.274-44.381-8.005-11.064-8.33-25.065-3.914-44.105 8.169-35.227-23.169-64.773-45.65-148.629-14.514-54.143 23.265-90.906 51.861-110.165z" fill="#49b1f7"/><path d="m507.976 257.16c-1.52-52.495-40.243-99.837-90.292-109.202-6.171 4.22-12.707 9.221-19.007 14.997-30.44 27.915-41.591 61.097-32.245 95.959 9.867 36.805 21.376 63.043 30.623 84.126 11.74 26.767 19.497 44.449 15.015 63.775-4.655 20.073-3.767 34.398 4.213 45.445 22.183-19.21 40.889-42.327 55.026-68.296-3.171-4.51-5.58-9.562-7.082-14.956-2.924-10.5.719-21.655 8.753-29.021 22.265-20.408 35.946-50.029 34.996-82.827z" fill="#73c3f9"/></g></svg>