<svg id="Layer_1" enable-background="new 0 0 512 512" height="512" viewBox="0 0 512 512" width="512" xmlns="http://www.w3.org/2000/svg"><g><path d="m256 21.996c-135.311 0-245.002 109.691-245.002 245.002 0 70.305 29.622 133.683 77.054 178.363s90.512 57.218 167.948 57.218c77.432 0 167.956-57.228 167.966-57.235 47.422-44.679 77.036-108.05 77.036-178.346 0-135.311-109.691-245.002-245.002-245.002z" fill="#1d2e79"/><g><path d="m256 379.426c-7.456 0-13.5-6.044-13.5-13.5v-197.152c0-7.456 6.044-13.5 13.5-13.5s13.5 6.044 13.5 13.5v197.152c0 7.456-6.044 13.5-13.5 13.5z" fill="#ffd402"/></g><path d="m458.43 332.269v-8.47c0-13.873-11.247-25.12-25.12-25.12-13.873 0-25.12 11.247-25.12 25.12v7.017c0 42.768-17.783 81.848-46.31 109.896-.108 2.42.203 6.571 3.095 9.422 2.829 2.789 7.309 3.575 13.314 2.33 4.896-1.013 8.227-.722 9.376.823 1.319 1.771-.112 5.373-.716 6.493l-.083.18c-.126.328-3.023 8.083 1.333 13.347 12.788-8.211 24.754-17.586 35.767-27.962 22.411-33.142 34.464-72.181 34.464-113.076z" fill="#6ad9fb"/><path d="m388.267 460.497s7.127-13.104-10.282-9.503-14.428-11.947-14.428-11.947l-.001-.001c-27.772 28.146-66.178 45.653-108.445 45.41-79.229-.455-144.299-61.765-150.764-139.458.384.017.767.027 1.151.027 6.593 0 13.188-2.58 18.136-7.739 9.519-9.922 8.992-25.777-.73-35.5l-26.452-26.452c-4.711-4.711-11.1-7.358-17.762-7.358-6.663 0-13.052 2.647-17.763 7.358l-26.432 26.432c-9.716 9.716-10.274 25.564-.776 35.494 5.476 5.724 12.971 8.277 20.253 7.673 2.225 36.275 13.991 70.72 34.08 100.427 25.614 24.128 56.428 42.789 90.575 54.151 2.587.534 86.86 17.694 154.734.005 19.971-6.645 38.804-15.782 56.121-27.055-4.007-4.639-1.215-11.964-1.215-11.964z" fill="#02c0fc"/><path d="m103.475 81.551c2.666 2.768 6.851 3.766 12.438 2.971 4.718-.677 7.844-.161 9.036 1.481 1.271 1.752.235 4.804-.269 5.828l-.086.211c-.094.291-2.25 7.188 1.562 11.651 2.393 2.801 6.493 3.889 12.16 3.281 28.13-34.693 70.894-57.006 118.573-56.732 22.586.13 44.018 5.211 63.274 14.202-.439-.656-.815-1.265-1.103-1.808-2.121-3.999-2.538-7.138-1.239-9.33 2.311-3.903 9.389-4.045 9.368-4.048.239.014 5.86.239 8.146-3.555 1.687-2.8 1.002-6.816-2.034-11.937-2.156-3.638-2.695-6.672-1.6-9.019 1.884-4.041 8.049-5.123 8.193-5.148l.43-.068.824-.731c-26.734-12.385-56.106-18.928-86.051-18.798-54.274.235-105.23 21.693-143.38 60.441-3.944 4.005-7.688 8.169-11.252 12.46-.019 2.322.428 5.967 3.01 8.648z" fill="#6ad9fb"/><path d="m139.683 105.3c-18.711 2.907-13.662-12.799-13.662-12.799s5.872-11.775-10.321-9.465c-16.076 2.293-13.619-11.901-13.582-12.107-31.489 36.929-48.549 84.29-48.549 133.143v6.827c0 13.873 11.247 25.12 25.12 25.12s25.12-11.247 25.12-25.12v-7.016c0-37.287 13.518-71.769 35.886-98.584-.003.001-.008.001-.012.001z" fill="#02c0fc"/><path d="m478.281 197.44c-5.476-5.724-12.971-8.278-20.253-7.674-1.42-23.15-6.73-45.554-15.601-66.46-.183.574-.361 1.128-.533 1.648-1.268 3.839-3.167 6.174-5.644 6.942-4.143 1.285-8.907-2.005-9.544-2.465-.768-.763-5.753-5.477-10.473-4.24-2.836.745-4.859 3.366-6.014 7.791-.847 3.243-2.383 5.35-4.567 6.261-4.158 1.73-9.63-1.079-10.489-1.545-.31-.273-1.189-1.05-2.525-2.238 8.174 16.612 13.409 34.919 15.017 54.241-6.764-.308-13.629 2.102-18.815 7.233-9.878 9.771-9.538 26.182.286 36.007l26.424 26.424c4.905 4.905 11.333 7.358 17.763 7.358 6.429 0 12.857-2.453 17.763-7.358l26.432-26.432c9.713-9.717 10.271-25.564.773-35.493z" fill="#6ad9fb"/><path d="m397.335 57.507c-16.927-16.519-36.5-29.776-57.691-39.386-.204.034-15.799 2.64-7.635 16.411 8.218 13.861-4.748 13.228-4.748 13.228s-17.688.192-9.528 15.579c33.769 15.048 61.085 42.04 76.549 75.582.001.001.008.008.008.008s13.821 8.066 17.379-5.568 14.052-2.791 14.052-2.791 12.68 9.714 17.593-5.135c-10.353-25.203-25.852-48.285-45.979-67.928z" fill="#ade9f7"/><g><path d="m257.612 363.213c-1.716 0-3.461-.072-5.24-.222-18.754-1.571-29.469-3.799-46.634-17.387-5.846-4.628-6.834-13.118-2.206-18.964 4.627-5.846 13.119-6.833 18.964-2.206 11.414 9.035 16.599 10.35 32.13 11.651 17.876 1.488 28.613-11.045 31.075-23.33.95-4.742 2.569-20.693-16.497-26.84l-34.789-11.463c-29.938-9.653-38.962-36.01-34.589-57.836 4.889-24.397 26.992-47.662 59.789-44.909 18.755 1.571 29.469 3.799 46.633 17.386 5.846 4.627 6.834 13.118 2.206 18.964-4.627 5.846-13.119 6.833-18.964 2.206-11.413-9.035-16.598-10.349-32.129-11.651-17.84-1.492-28.602 11.035-31.062 23.308-.951 4.748-2.574 20.716 16.483 26.861l34.789 11.463c29.944 9.655 38.974 36.001 34.603 57.816-4.625 23.085-24.658 45.152-54.562 45.153z" fill="#fef156"/></g><g><path d="m105.498 326.905c-1.792 0-3.583-.684-4.95-2.05l-21.858-21.858-21.859 21.858c-2.733 2.733-7.166 2.733-9.899-.001-2.734-2.733-2.734-7.165 0-9.899l26.809-26.808c2.734-2.731 7.165-2.731 9.899 0l26.808 26.808c2.734 2.734 2.734 7.166 0 9.899-1.367 1.367-3.159 2.051-4.95 2.051z" fill="#27a6ff"/></g><g><path d="m433.31 248.602c-1.856 0-3.637-.737-4.95-2.05l-26.809-26.809c-2.734-2.734-2.734-7.166 0-9.9 2.733-2.732 7.166-2.732 9.899 0l21.859 21.859 21.858-21.858c2.733-2.734 7.166-2.733 9.899-.001 2.734 2.734 2.734 7.166 0 9.899l-26.808 26.809c-1.31 1.314-3.091 2.051-4.948 2.051z" fill="#27a6ff"/></g><g><path d="m433.31 243.02c-3.866 0-7-3.134-7-7v-33.59c0-93.909-76.401-170.311-170.31-170.311-93.91 0-170.311 76.401-170.311 170.311v9.28c0 3.866-3.134 7-7 7s-7-3.134-7-7v-9.28c.001-101.629 82.682-184.31 184.311-184.31s184.31 82.682 184.31 184.311v33.59c0 3.865-3.133 6.999-7 6.999z" fill="#27a6ff"/></g><path d="m440.31 323.589c0-3.866-3.134-7-7-7s-7 3.134-7 7v8.681c0 93.909-76.401 170.31-170.31 170.31s-170.31-76.4-170.31-170.31v-33.59c0-3.866-3.134-7-7-7s-7 3.134-7 7v33.59c0 73.986 43.826 137.918 106.876 167.229 24.339 8.102 50.372 12.501 77.434 12.501 27.063 0 53.096-4.399 77.436-12.502 63.049-29.312 106.874-93.243 106.874-167.229z" fill="#27a6ff"/><g fill="#2a428b"><ellipse cx="256" cy="107.138" rx="53" ry="25.43"/><ellipse cx="256" cy="429.094" rx="53" ry="25.43"/></g></g></svg>