<svg id="Layer_1" enable-background="new 0 0 512 512" height="512" viewBox="0 0 512 512" width="512" xmlns="http://www.w3.org/2000/svg"><g><path d="m291.796 319.896c33.551 0 66.581-7.959 96.585-22.975 22.669-11.345 60.823-23.27 123.193-26.445.279-4.79.426-9.616.426-14.476 0-54.912-18.066-105.603-48.578-146.458l-62.156-58.488c-38.564-25.316-84.692-40.056-134.269-40.056-135.31 0-245.001 109.691-245.001 245.002 0 22.107 2.946 43.523 8.435 63.896z" fill="#1c2e7a"/><path d="m388.381 294.921c-19.502 9.76-40.286 16.517-61.657 20.067l-4.922 114.165c-8.956 1.934-63.555 14.681-65.743 38.375-.977 10.591 8.726 21.582 28.9 32.813 61.479-4.457 116.663-31.598 157.231-73.095l22.229-26.156c27.597-37.488 44.771-83.116 47.255-132.619-62.429 3.167-100.612 15.099-123.293 26.45z" fill="#01c0fa"/><path d="m323.25 430.382 4.985-115.64c-11.996 2.081-24.182 3.155-36.439 3.155h-261.906c27.423 105.341 123.181 183.105 237.108 183.105 6.954 0 13.836-.304 20.642-.872-84.555-45.428 35.61-69.748 35.61-69.748z" fill="#26a6fe"/><path d="m152.306 246.262-1.351 24.486-.026.51.286.42c.577.848 13.948 21.056-3.679 45.338-5.771 7.951-5.115 17.602 1.849 27.174 14.886 20.461 54.134 34.771 88.83 23.462 42.424-13.825 50.807-12.627 52.037-12.265l.38.231c.158.09 16.084 9.035 37.875 15.653 20.185 6.13 49.699 11.474 75.697 2.11 1.597-.575 3.154-1.212 4.689-1.884 40.966-49.597 20.053-114.503-28.578-135.078-33.331-14.102-88.356-2.419-128.681 9.876-30.388 9.265-62.729 9.773-93.403 1.507-1.888-.508-3.879-1.023-5.925-1.54z" fill="#f3eae6"/><path d="m235.604 411.185c20.835 8.038 82.651 25.9 144.712-14.574 12.818-8.36 22.938-17.753 30.651-27.706-50.464 24.525-119.597-14.592-119.597-14.592s-2.62-4.707-53.62 11.913-107.5-22.844-89-48.329c18.5-25.486 3.703-47.066 3.703-47.066l1.335-24.193c-3.667-.942-7.585-1.896-11.798-2.856-65.484-14.933-75.979 37.934-99.18 46.22-23.2 8.286-32.959 25.226-32.959 25.226s-.65 28.278 27.976 29.257c2.939.1 5.694 1.446 7.493 3.772 1.886 2.439 6.002 4.856 14.982 3.427 16.203-2.578 73.375-6.444 98.508 31.118 19.099 28.543-.076 36.352-10.386 38.457.9 5.33 4.666 14.851 19.864 17.222 1.655-1.01 3.453-1.794 5.316-2.369 11.107-3.432 33.678-11.35 48.798-23.007 3.766-2.904 8.765-3.631 13.202-1.92z" fill="#efe2dd"/><path d="m21.819 317.896c0 7.169-1.669 12.981-8.838 12.981s-12.981-5.811-12.981-12.981c0-7.169 5.812-12.981 12.981-12.981s8.838 5.812 8.838 12.981z" fill="#fe76a8"/><circle cx="94.826" cy="291.566" fill="#fe3d97" r="12.429"/><path d="m151.572 210.686c-1.278 3.556-.588 7.489 2.051 11.698l-2.668 48.364-.002.047c7.906-.353 14.302-4.179 14.302-4.179 43.782-37.295 21.12-58.327-4.813-64.405-2.674 1.212-7.216 3.871-8.87 8.475z" fill="#f9f3f1"/><path d="m152.461 270.687 2.687-48.704c-9.102-13.898 7.769-19.136 7.769-19.136-10.124-2.777-21.072-3.224-28.964-1.411-27.251 6.26-5.156 55.238-5.156 55.238 6.468 12.555 15.977 14.784 23.664 14.013z" fill="#f3eae6"/><g fill="#fe76a8"><path d="m153.151 221.198c-1.382.669-3.512 1.918-5.636 4.017-3.205 3.165-7.025 8.956-7.025 18.566 0 12.075 6.598 17.706 11.279 20.18 26.943-23.149 16.782-37.183 1.382-42.763z"/><path d="m464.42 401.089c-13.187-17.814-13.716-34.863-13.716-34.863l-3.435 5.064c-1.402 26.619-14.741 39.205-30.448 44.889l-.921 1.358s10.107 3.583 26.29 9.709c8-8.183 15.431-16.921 22.23-26.157z"/><path d="m149.687 420.98c-3.89.918-6.896 1.04-6.896 1.04s-39.219-3.867-39.219 14.362c0 16.805 50.203 15.535 61.414 4.632 1.497-1.456 3.237-2.62 5.111-3.529-15.019-2.073-19.246-10.98-20.41-16.505z"/></g><path d="m328.507 371.271c20.185 6.13 49.699 11.474 75.697 2.11 18.387-6.621 32.703-19.661 42.721-38.8-2.683-13.388-6.371-25.645-10.585-36.72-21.115-55.488-90.088-75.574-136.52-38.576-35.022 27.907-26.167 65.516-6.988 97.512 5.092 2.657 18.576 9.281 35.675 14.474z" fill="#f9f3f1"/><path d="m291.37 354.313c11.278 19.545 26.656 37.178 38.695 49.491 1.223 1.251 1.938 2.711 2.244 4.207 6.558 3.612 22.675 11.133 47.554 14.132 1.187-1.163 2.833-1.897 4.773-1.804 26.999 1.286 72.667-3.167 65.279-66.814-.856-7.377-2.038-14.457-3.471-21.246-42.853 85.533-155.073 22.034-155.074 22.034z" fill="#f3eae6"/><path d="m379.465 430.945c-3.709-4.254-.466-10.875 5.172-10.606-35.665-3.523-54.572-16.535-54.572-16.535 5.205 5.324 1.5 14.374-5.945 14.35-8.83-.028-15.594 1.596-20.774 4.113-13.462 6.542-8.646 26.86 6.321 26.86h53.34c13.866 0 23.783-9.78 16.458-18.182z" fill="#fe76a8"/><g><path d="m247.333 265.31c-3.124-3.124-3.124-8.189 0-11.314l70.711-70.711c3.124-3.124 8.19-3.124 11.314 0s3.124 8.189 0 11.314l-70.711 70.711c-3.125 3.125-8.19 3.124-11.314 0z" fill="#fe76a8"/></g><g><path d="m314.155 198.488c-5.272-5.272-5.272-13.82 0-19.092l20.741-20.741c5.272-5.272 13.82-5.272 19.092 0s5.272 13.82 0 19.092l-20.741 20.741c-5.273 5.272-13.82 5.272-19.092 0z" fill="#2ed1e2"/></g><path d="m371.138 167.897-26.392-26.391c-1.546-1.546-2.831-3.252-3.866-5.062l-6.771 6.771c-6.224 6.224-6.224 16.314 0 22.538l12.782 12.782c6.224 6.224 16.314 6.223 22.538 0l6.771-6.771c-1.81-1.036-3.516-2.322-5.062-3.867z" fill="#fe0364"/><path d="m381.315 130.743c1.793-1.518 3.486-2.952 4.828-4.294 3.871-3.871 8.186-4.953 11.802-4.953 4.41 0 7.781 1.611 8.036 1.736l1.004.499 35.032-37.922-24.613-23.189c-5.217-4.062-10.595-7.928-16.137-11.565l-57.935 57.935c-9.37 9.37-9.37 24.561 0 33.93l24.283 24.283c-7.793-18.252 4.339-28.532 13.7-36.46z" fill="#fe3d97"/><path d="m451.099 94.365-10.173-9.584-34.28 37.107s-12.066-5.997-21.563 3.5c-7.55 7.55-26.753 18.245-19.962 39.321l4.602 4.602c9.37 9.369 24.561 9.369 33.93 0l59.769-59.769c-3.904-5.227-8.022-10.284-12.323-15.177z" fill="#fe76a8"/><path d="m417.279 62.502-26.524 26.524c-4.667 4.667-4.667 12.304 0 16.971l15.892 15.892c4.667 4.667 12.304 4.667 16.971 0l27.503-27.503c-10.245-11.663-21.577-22.344-33.842-31.884z" fill="#f9f3f1"/><g><path d="m291.858 61.612c-3.17 0-5.995 1.93-7.221 4.853-6.894 16.447-20.058 27.842-33.746 39.685-14.181 12.27-29.651 25.67-37.978 45.585-2.14 5.118 1.68 10.762 7.228 10.762 3.169 0 5.995-1.93 7.221-4.853 6.894-16.447 20.058-27.842 33.746-39.685 14.181-12.27 29.651-25.67 37.978-45.585 2.14-5.118-1.68-10.762-7.228-10.762z" fill="#fe76a8"/><g><path d="m283.066 148.987h-53.092c-4.312 0-7.808-3.496-7.808-7.808s3.496-7.808 7.808-7.808h53.092c4.312 0 7.808 3.495 7.808 7.808-.001 4.312-3.497 7.808-7.808 7.808z" fill="#fea3c6"/></g><g><path d="m283.066 90.737h-53.092c-4.312 0-7.808-3.495-7.808-7.808 0-4.312 3.496-7.808 7.808-7.808h53.092c4.312 0 7.808 3.495 7.808 7.808-.001 4.312-3.497 7.808-7.808 7.808z" fill="#4fabf7"/></g><path d="m299.086 151.734c-8.327-19.914-23.797-33.314-37.978-45.585-13.688-11.843-26.851-23.238-33.746-39.685-1.225-2.923-4.051-4.853-7.221-4.853-5.548 0-9.368 5.644-7.228 10.762 8.327 19.915 23.796 33.314 37.978 45.585 13.688 11.843 26.851 23.238 33.746 39.685 1.225 2.923 4.051 4.853 7.221 4.853 5.548 0 9.368-5.644 7.228-10.762z" fill="#2ed1e2"/></g><path d="m479.947 134.782c-18.783 15.965-48.876 48.138-33.233 80.317 12.835 26.404 42.391 28.696 64.837 26.008-2.31-38.518-13.524-74.633-31.604-106.325z" fill="#2a428c"/><path d="m22.085 249.428c22.77 1.401 34.591-13.774 57.904-49.081 32.377-49.034 85.642-22.966 101.67-74.959 11.017-35.736-5.776-72.426-17.354-91.877-82.14 37.977-139.696 120.086-142.22 215.917z" fill="#2a428c"/><path d="m305.012 13.942c2.362 14.214 10.262 44.44 34.738 44.44 14.944 0 27.778-10.334 37.216-21.349-22.257-11.204-46.453-19.115-71.954-23.091z" fill="#2a428c"/><path d="m155.148 221.983c-8.233-3.5-18.494-4.405-25.387-2.822-18.857 4.332-3.568 38.223-3.568 38.223 8.664 16.818 25.228 6.88 25.228 6.88.531-.452 1.038-.899 1.541-1.344-4.335-2.115-10.973-7.284-10.973-19.14 0-17.597 13.155-21.796 13.159-21.797z" fill="#fe3d97"/></g></svg>