<svg id="Layer_1" enable-background="new 0 0 512 512" height="512" viewBox="0 0 512 512" width="512" xmlns="http://www.w3.org/2000/svg"><g><path d="m436.026 427.017c37.06-42.929 59.477-98.855 59.477-160.019 0-135.311-109.691-245.002-245.002-245.002s-245.002 109.691-245.002 245.002c0 42.222 10.682 81.949 29.489 116.628z" fill="#2a428c"/><path d="m267.699 51.88c4.115 6.273 10.885 10.138 20.134 11.498-1.49 7.917-6.657 42.345 10.987 65.125 9.604 12.401 24.35 19.099 43.833 19.913l15.06 25.358c-.45 4.078-2.465 29.344 13.92 48.094 11.28 12.907 28.63 19.601 51.587 19.906-.302 4.21-.35 15.305 6.065 24.045 33.192-24.565 54.717-63.996 54.717-108.461 0-74.48-60.378-134.858-134.858-134.858-30.97 0-59.495 10.445-82.259 27.997.261.465.517.931.814 1.383z" fill="#deeeff"/><path d="m424.875 240.285c-74.651 0-65.612-66.838-65.612-66.838l-15.737-26.5c-72.317-2.393-53.904-84.85-53.904-84.85-11.754-1.322-18.18-6.403-21.552-12.507-24.288 18.303-42.193 44.625-49.776 75.033 1.327-.105 2.662-.177 4.011-.177 17.439 0 33.263 8.894 42.328 23.791l87.587 143.94c29.362-.658 56.404-10.705 78.254-27.25-7.623-10.428-5.599-24.642-5.599-24.642z" fill="#d3dcfb"/><g><path d="m349.143 136.38c5.042 0 9.701 1.628 13.49 4.381v-60.15c0-7.45-6.04-13.49-13.49-13.49s-13.49 6.04-13.49 13.49v60.15c3.788-2.753 8.448-4.381 13.49-4.381z" fill="#e80054"/></g><g><path d="m400.223 140.483h-37.49c4.542 4.198 7.388 10.203 7.388 16.876 0 8.242-4.341 15.466-10.859 19.521h40.961c10.051 0 18.199-8.148 18.199-18.199 0-10.051-8.148-18.198-18.199-18.198z" fill="#4f71b6"/></g><circle cx="349.143" cy="157.359" fill="#ff7186" r="22.979"/><g fill="#ff4155"><path d="m403.508 41.456c5.418-10.579 17.934-16.564 25.855-19.42-23.506-13.987-50.939-22.036-80.22-22.036-31.267 0-60.427 9.174-84.945 24.96-1.143 5.458-2.659 17.53 3.502 26.92 4.091 6.236 10.807 10.089 19.971 11.471 17.673-11.599 38.798-18.351 61.472-18.351 18.826 0 36.582 4.661 52.185 12.879-1.081-5.968-.358-11.468 2.18-16.423z"/><path d="m483.338 175.837c-.057 0-.114 0-.172 0-9.047 0-16.821-4.665-22.066-8.965-2.508 29.764-16.669 56.259-37.892 74.902h.012c-.337 4.7-.384 17.99 8.557 26.994 4.751 4.785 11.26 7.54 19.415 8.268 31.991-27.318 52.931-67.204 55.11-111.939-7.338 7.078-15.03 10.688-22.964 10.74z"/></g><path d="m427.68 21.04c-11.666 4.405-31.098 14.994-28.021 35.976 36.651 18.527 61.842 56.546 61.842 100.342 0 3.823-.201 7.598-.576 11.324 9.61 7.585 26.66 15.542 45.256-1.41.205-3.28.32-6.583.32-9.914 0-58.184-31.744-109.09-78.821-136.318z" fill="#ff7186"/><g fill="#e80054"><path d="m240.698 127.947c7.49-27.589 25.263-50.976 48.917-65.818.002-.011.007-.031.007-.031-30.309-3.408-25.197-31.81-23.624-38.283-38.134 23.829-65.383 63.526-72.42 109.778 8.229-5.871 18.177-9.145 28.727-9.145 6.438-.001 12.654 1.219 18.393 3.499z"/><path d="m424.875 240.285c-19.989 18.27-46.581 29.432-75.732 29.432-3.682 0-7.321-.184-10.913-.531l27.195 44.693c33.273-3.436 63.501-17.285 87.366-38.219-32.692-1.881-27.916-35.375-27.916-35.375z"/></g><path d="m390.997 392.145c-11.233 7.178-28.54.083-30.848-.918-4.857-5.203-91.766-99-91.766-144.781 0-13.27 3.676-22.554 10.926-27.59 8.788-6.106 21.008-4.707 28.16-3.105l-41.556-68.292c-19.887-32.683-67.33-32.683-87.218 0l-61.425 100.946c1.253 6.275 3.903 13.324 9.363 18.616 6.423 6.227 15.499 8.785 26.992 7.622-.176 6.35.287 27.643 13.334 40.994 7.449 7.624 17.7 11.263 30.486 10.828l23.182 78.9c-1.404 1.629-4.672 6.017-4.687 11.612-.012 4.172 1.773 8.078 5.304 11.608 3.652 3.652 7.39 8.432 10.733 13.148l170.654 17.302c12.111-9.608 23.301-20.326 33.395-32.02l-34.974-57.476c-.543 11.077-3.912 18.681-10.055 22.606z" fill="#ff7186"/><path d="m306.387 213.971c-13.254-2.663-39.503-3.409-39.503 32.475 0 48.002 92.379 146.029 92.379 146.029s39.798 18.471 43.147-20.702z" fill="#fc9daf"/><path d="m222.305 427.526c-10.946-10.946 0-21.772 0-21.772l-23.751-80.839c-47.502 2.52-43.349-51.966-43.349-51.966-26.878 3.535-34.632-13.72-36.743-26.503l-83.475 137.18c7.93 14.622 17.309 28.343 27.936 40.978l.004-.009 171.031 17.341c-3.565-5.106-7.645-10.402-11.653-14.41z" fill="#ff4155"/><path d="m166.959 315.637c7.449 7.624 17.7 11.263 30.486 10.828l23.182 78.9c-1.404 1.629-4.672 6.017-4.687 11.612-.012 4.172 1.773 8.078 5.304 11.608 9.832 9.832 20.298 27.846 21.972 30.777-.306 3.495-1.35 23.509 12.993 38.445 5.581 5.812 12.753 10.036 21.42 12.701 46.94-5.173 89.885-23.606 125.011-51.471l-175.31-288.1c-.426-.698-1.72-2.824-5.026-2.824-3.305 0-4.599 2.126-5.024 2.824h-.001l-63.672 104.637c-.092 7.284.878 27.298 13.352 40.063z" fill="#ffdd40"/><path d="m244.756 459.037s-11.505-20.565-22.452-31.511c-10.946-10.946 0-21.772 0-21.772l-23.751-80.839c-47.501 2.52-43.349-51.964-43.349-51.966l-92.276 151.646c44.943 53.435 112.286 87.405 187.573 87.405 10.516 0 20.875-.67 31.042-1.956-41.562-10.293-36.787-51.007-36.787-51.007z" fill="#ffb332"/><path d="m222.305 346.146c-13.117 0-23.751-10.634-23.751-23.751v59.607c0 13.117 10.634 23.751 23.751 23.751 13.118 0 23.751-10.634 23.751-23.751v-59.607c0 13.118-10.634 23.751-23.751 23.751z" fill="#ff4155"/><path d="m222.305 276.706c-13.117 0-23.751 10.634-23.751 23.751v24.458c0 13.117 10.634 23.751 23.751 23.751 13.118 0 23.751-10.634 23.751-23.751v-24.458c0-13.117-10.634-23.751-23.751-23.751z" fill="#ff7186"/><ellipse cx="222.305" cy="451.277" fill="#ff4155" rx="23.751" ry="23.751" transform="matrix(.23 -.973 .973 .23 -267.975 563.953)"/><g fill="#3c58a0"><path d="m462.616 389.654c14.905-25.717 25.266-54.392 29.987-84.933-40.284 5.679-103.447 24.339-29.987 84.933z"/><path d="m58.902 256.995c12.415-20.415 62.489-102.448 89.243-141.687 16.028-23.507 10.573-50.915 1.702-71.745-85.11 38.401-144.348 123.999-144.348 223.435 0 6.314.244 12.572.713 18.766 13.886 1.112 25.15-3.325 33.43-8.693 7.877-5.107 14.382-12.055 19.26-20.076z"/></g></g></svg>