<svg id="Capa_1" enable-background="new 0 0 512 512" height="512" viewBox="0 0 512 512" width="512" xmlns="http://www.w3.org/2000/svg"><g><path d="m512 256c0 141.385-114.615 256-256 256-55.26 0-106.431-17.509-148.267-47.282-2.585-1.839-105.792-240.82-105.05-245.918 18.016-123.754 124.567-218.8 253.317-218.8 141.385 0 256 114.615 256 256z" fill="#55a4f9"/><path d="m488.596 256c0 114.652-92.944 207.596-207.596 207.596s-207.596-92.944-207.596-207.596 92.944-207.596 207.596-207.596 207.596 92.944 207.596 207.596z" fill="#76b6fa"/><path d="m504.548 197.789c-.22 26.566-6.161 50.294-8.698 60.426-5.689 22.722-12.77 51.001-38.479 74.478-16.105 14.707-36.653 24.81-59.421 29.217-.321.062-.641.092-.956.092-2.347 0-4.441-1.661-4.903-4.051-.525-2.711 1.248-5.334 3.958-5.859 20.96-4.057 39.833-13.318 54.579-26.783 23.483-21.444 29.878-46.986 35.521-69.522 14.795-59.086 9.766-103.677-14.948-132.533-9.594-11.202-27.766-26.458-38.494-22.553-5.902 2.145-8.073 9.483-11.127 21.278-3.125 12.069-7.014 27.089-19.479 36.944-14.842 11.735-37.575 13.033-67.563 3.859-2.641-.808-4.126-3.604-3.319-6.244.808-2.641 3.606-4.126 6.244-3.318 26.664 8.156 46.324 7.435 58.437-2.141 9.829-7.771 12.967-19.889 16.001-31.607 3.211-12.403 6.245-24.118 17.392-28.17 20.12-7.31 44.768 19.915 49.505 25.447 17.364 20.273 26.028 47.54 25.75 81.04z" fill="#464646"/><path d="m259.441 453.283c-53.375 14.302-105.706 17.571-151.708 11.435-65.203-46.402-107.733-122.593-107.733-208.718 0-12.635.916-25.056 2.683-37.2 39.427-40.839 98.52-75.273 168.719-94.083 71.969-19.284 160.008 309.282 88.039 328.566z" fill="#464646"/><path d="m438.95 339.113c-.746 6.353-3.48 12.311-7.846 16.987-39.399 42.194-99.695 77.9-171.664 97.184-.325.087-.649.174-.974.26-67.316 17.873-138.441-13.639-169.918-75.769-7.884-15.563-14.288-32.17-18.983-49.692-4.695-17.521-7.453-35.106-8.407-52.526-3.806-69.544 42.035-132.396 109.268-150.577.324-.088.649-.175.974-.262 71.969-19.284 142.039-18.51 197.257-1.668 6.118 1.866 11.465 5.659 15.288 10.788 20.818 27.93 37.065 60.83 46.876 97.447 9.813 36.615 12.194 73.231 8.129 107.828z" fill="#5a5a5a"/><path d="m377.214 245.648c4.074 15.204-65.061 46.938-154.416 70.881-89.356 23.943-165.095 31.027-169.169 15.823s65.061-46.938 154.416-70.881c89.356-23.943 165.095-31.027 169.169-15.823zm-188.294-57.486c-68.55 18.368-117.396 58.358-113.955 71.202s57.867-6.322 126.417-24.69 125.267-28.982 121.826-41.826-65.738-23.054-134.288-4.686zm53.969 201.417c68.55-18.368 117.396-58.358 113.955-71.202s-57.867 6.322-126.417 24.69-125.267 28.982-121.826 41.826c3.441 12.845 65.738 23.054 134.288 4.686z" fill="#464646"/><path d="m413 105c0 57.99-47.01 105-105 105s-105-47.01-105-105 47.01-105 105-105 105 47.01 105 105z" fill="#ffe7c0"/><path d="m398.3 105c0 49.871-40.429 90.3-90.3 90.3s-90.3-40.429-90.3-90.3 40.429-90.3 90.3-90.3 90.3 40.429 90.3 90.3z" fill="#fb5858"/><path d="m389.585 143.751c-14.502 30.48-45.583 51.549-81.585 51.549-49.871 0-90.3-40.429-90.3-90.3 0-36.002 21.069-67.083 51.549-81.586-5.587 11.743-8.714 24.881-8.714 38.751 0 49.871 40.429 90.3 90.3 90.3 13.869 0 27.008-3.127 38.75-8.714z" fill="#f44545"/><path d="m315.37 42.37v81.907c0 4.07-3.3 7.37-7.37 7.37s-7.37-3.3-7.37-7.37v-81.907c0-4.07 3.3-7.37 7.37-7.37s7.37 3.3 7.37 7.37z" fill="#fff"/><path d="m317.481 161.153c0 5.236-4.245 9.481-9.481 9.481s-9.481-4.245-9.481-9.481 4.245-9.481 9.481-9.481 9.481 4.245 9.481 9.481z" fill="#ffe7c0"/></g></svg>