<svg id="Capa_1" enable-background="new 0 0 512 512" height="512" viewBox="0 0 512 512" width="512" xmlns="http://www.w3.org/2000/svg"><g><path d="m512 256c0 66.08-25.04 126.31-66.14 171.73-32.04 35.4-73.84 61.8-121.16 74.94-21.86 6.08-44.9 9.33-68.7 9.33s-46.84-3.25-68.7-9.33c-34.522-9.592-30.053-62.288-57.052-84.335-17.838-14.565-69.729 4.565-83.088-14.245-29.7-41.8-47.16-92.91-47.16-148.09 0-141.38 114.62-256 256-256 23.17 0 45.61 3.08 66.96 8.85 48.03 12.98 90.46 39.59 122.9 75.42 41.1 45.42 66.14 105.65 66.14 171.73z" fill="#6ed5a1"/><path d="m445.86 42.72v426.08c0 18.71-15.17 33.87-33.87 33.87h-224.69c-57.33-15.93-106.56-51.3-140.14-98.58v-214.78l.01-1.11c.29-24.24 10.04-47.42 27.2-64.57l87.57-87.58c17.16-17.15 40.33-26.91 64.58-27.19.36-.01.74-.01 1.1-.01h184.37c18.7 0 33.87 15.16 33.87 33.87z" fill="#f6f8f9"/><g fill="#685e68"><path d="m385.034 112.973h-161.262c-6.385 0-11.561-5.176-11.561-11.561v-2.393c0-6.385 5.176-11.561 11.561-11.561h161.263c6.385 0 11.561 5.176 11.561 11.561v2.393c-.001 6.385-5.177 11.561-11.562 11.561z"/><path d="m385.034 161h-283.148c-6.385 0-11.561-5.176-11.561-11.561v-2.393c0-6.385 5.176-11.561 11.561-11.561h283.148c6.385 0 11.561 5.176 11.561 11.561v2.393c0 6.385-5.176 11.561-11.561 11.561z"/><path d="m385.034 209.027h-283.148c-6.385 0-11.561-5.176-11.561-11.561v-2.393c0-6.385 5.176-11.561 11.561-11.561h283.148c6.385 0 11.561 5.176 11.561 11.561v2.393c0 6.385-5.176 11.561-11.561 11.561z"/><path d="m385.034 257.054h-283.148c-6.385 0-11.561-5.176-11.561-11.561v-2.393c0-6.385 5.176-11.561 11.561-11.561h283.148c6.385 0 11.561 5.176 11.561 11.561v2.393c0 6.385-5.176 11.561-11.561 11.561z"/><path d="m262.346 305.081h-160.46c-6.385 0-11.561-5.176-11.561-11.561v-2.393c0-6.385 5.176-11.561 11.561-11.561h160.461c6.385 0 11.561 5.176 11.561 11.561v2.393c-.001 6.385-5.177 11.561-11.562 11.561z"/></g><path d="m47.171 188.203c.294-10.194 4.534-19.384 11.259-26.099 6.958-6.958 16.584-11.269 27.205-11.269h69.645c18.704 0 33.869-15.164 33.869-33.869v-69.645c0-20.885 16.625-37.876 37.368-38.464-24.243.284-47.421 10.042-64.573 27.195l-87.578 87.578c-17.153 17.153-26.911 40.331-27.195 64.573z" fill="#e1edfd"/><g fill="#fe646f"><path d="m205.361 340.534c-.035-.092-.071-.183-.108-.273-1.869-4.542-6.247-7.476-11.158-7.476-.004 0-.009 0-.013 0-4.916.005-9.294 2.948-11.155 7.498-.031.075-.061.15-.089.227l-34.218 89.844c-1.966 5.161.625 10.938 5.786 12.904s10.939-.625 12.904-5.786l6.069-15.935h41.174l6.003 15.907c1.511 4.005 5.316 6.472 9.357 6.472 1.173 0 2.367-.208 3.529-.647 5.167-1.95 7.775-7.72 5.825-12.887zm-24.364 61.003 13.064-34.302 12.945 34.302z"/><path d="m138.707 377.826h-23.751v-24.374h26.664c5.523 0 10-4.477 10-10s-4.477-10-10-10h-36.664c-5.523 0-10 4.477-10 10v90.46c0 5.523 4.477 10 10 10s10-4.477 10-10v-36.087h23.751c5.523 0 10-4.477 10-10s-4.477-9.999-10-9.999z"/><path d="m331.502 413.387c-4.231-3.548-10.54-2.995-14.088 1.239-.837.998-1.739 1.93-2.687 2.772-4.854 4.323-11.029 6.515-18.355 6.515-19.609 0-35.563-15.954-35.563-35.564s15.954-35.564 35.563-35.564c7.128 0 14.002 2.098 19.878 6.068 4.574 3.091 10.792 1.888 13.884-2.688 3.092-4.577 1.889-10.793-2.688-13.884-9.194-6.212-19.939-9.496-31.073-9.496-30.638 0-55.563 24.926-55.563 55.564s24.926 55.564 55.563 55.564c12.206 0 23.152-4.004 31.656-11.578 1.668-1.485 3.254-3.12 4.712-4.86 3.547-4.232 2.994-10.54-1.239-14.088z"/><path d="m398.065 332.785h-50.325c-5.522 0-10 4.477-10 10s4.478 10 10 10h15.06v81.128c0 5.523 4.478 10 10 10s10-4.477 10-10v-81.128h15.265c5.522 0 10-4.477 10-10s-4.478-10-10-10z"/></g></g></svg>