<svg id="Layer_1" enable-background="new 0 0 512 512" height="512" viewBox="0 0 512 512" width="512" xmlns="http://www.w3.org/2000/svg"><g><path d="m35.414 160.265s96.485 71.221 218.835 71.221c122.349 0 222.338-71.221 222.339-71.221-39.672-81.837-123.538-138.269-220.588-138.269s-180.915 56.432-220.586 138.269z" fill="#73c3f9"/><path d="m113.406 179.39c-2.071 1.198-4.677.038-5.307-2.27-2.782-10.199-12.106-17.698-23.187-17.698-7.57 0-14.321 3.5-18.727 8.969-1.491 1.851-4.26 1.851-5.751 0-4.406-5.469-11.157-8.969-18.726-8.969-2.18 0-4.287.3-6.294.843-9.544 19.688-16.532 40.845-20.527 63.042 8.827-.604 18.826-1.024 29.581-1.024 30.323 0 59.903 3.176 88.432 9.203v-54.06c-6.321-2.068-13.431-1.546-19.494 1.964z" fill="#aedf75"/><path d="m497.102 223.249c-3.997-22.176-10.98-43.313-20.516-62.984-2.007-.544-4.115-.843-6.294-.843-7.57 0-14.321 3.5-18.727 8.969-1.491 1.851-4.26 1.851-5.751 0-4.406-5.469-11.157-8.969-18.727-8.969-11.081 0-20.404 7.498-23.187 17.696-.64 2.344-3.277 3.436-5.384 2.227-7.548-4.332-16.698-4.064-23.92.08v53.266c30.222-6.806 61.657-10.407 93.935-10.407 9.605 0 19.128.338 28.571.965z" fill="#d3ef84"/><path d="m341.789 63.418-47.754-17.498c.231.655.478 1.318.757 1.996-4.55 1.21-16.409 5.236-21.949 15.353-3.826 6.987-3.822 15.411.014 25.037 2.555 6.412 2.342 12.217-.634 17.254-9.147 15.487-41.087 19.653-41.409 19.693l-.117.019c-.527.109-12.96 2.775-16.694 12.169-2.352 5.916-.679 13.012 4.973 21.09 13.804 19.732-7.185 75.076-15.429 94.888 18.138 7.367 35.656 15.944 52.45 25.637 37.043-21.381 77.6-37.352 120.601-46.816v-131.405z" fill="#ff4155"/><path d="m231 126.741s56-6.991 43.25-38.991 22.63-38.788 22.63-38.788c-.372-.816-.697-1.6-.995-2.364l-28.138-10.31v.053c0 7.456-6.044 13.5-13.5 13.5s-13.5-6.044-13.5-13.5v-.053l-74.041 27.13-34.809 37.417v130.651c25.249 5.333 49.666 12.914 73.045 22.507 8.335-19.969 29.563-75.878 15.261-96.322-17.544-25.078 10.797-30.93 10.797-30.93z" fill="#e80054"/><path d="m255.997 279.056c20.923-12.077 42.969-22.425 65.941-30.852v-71.366c0-7.835-6.351-14.186-14.186-14.186h-107.008c-7.835 0-14.186 6.351-14.186 14.186v70.114c24.233 8.648 47.458 19.416 69.439 32.104z" fill="#ffb332"/><g><path d="m312.573 264.43c-2.359 0-4.662-1.192-5.981-3.353l-58.318-95.507c-2.015-3.299-.974-7.607 2.326-9.622 3.3-2.017 7.607-.973 9.622 2.326l58.318 95.507c2.015 3.299.974 7.607-2.326 9.622-1.138.696-2.398 1.027-3.641 1.027z" fill="#ffc839"/></g><g><path d="m254.255 280.58c-2.359 0-4.662-1.192-5.981-3.353l-64.869-106.233c-2.015-3.299-.973-7.607 2.326-9.622 3.3-2.015 7.607-.973 9.622 2.326l64.869 106.233c2.015 3.299.974 7.607-2.326 9.622-1.139.695-2.398 1.027-3.641 1.027z" fill="#ffc839"/></g><g><path d="m254.241 280.58c-1.243 0-2.502-.331-3.641-1.027-3.3-2.015-4.341-6.323-2.326-9.622l64.866-106.229c2.014-3.299 6.321-4.342 9.622-2.326 3.299 2.015 4.341 6.323 2.326 9.622l-64.866 106.229c-1.319 2.16-3.622 3.353-5.981 3.353z" fill="#ffdd40"/></g><g><path d="m195.844 264.559c-1.243 0-2.502-.331-3.641-1.027-3.3-2.015-4.341-6.323-2.326-9.622l58.397-95.636c2.014-3.3 6.322-4.343 9.622-2.326 3.299 2.015 4.341 6.323 2.326 9.622l-58.397 95.636c-1.319 2.16-3.622 3.353-5.981 3.353z" fill="#ffdd40"/></g><ellipse cx="254.248" cy="106.505" fill="#6a6aa5" rx="27.044" ry="27.044" transform="matrix(.707 -.707 .707 .707 -.843 210.975)"/><g><path d="m322.428 265.053c-3.866 0-7-3.134-7-7v-80.862c0-5.111-4.158-9.27-9.27-9.27h-103.82c-5.111 0-9.27 4.158-9.27 9.27v79.613c0 3.866-3.134 7-7 7s-7-3.134-7-7v-79.613c0-12.831 10.438-23.27 23.27-23.27h103.821c12.831 0 23.27 10.439 23.27 23.27v80.862c-.001 3.866-3.135 7-7.001 7z" fill="#fcf0be"/></g><g><path d="m254.248 139.472c-3.866 0-7-3.134-7-7v-51.933c0-3.866 3.134-7 7-7s7 3.134 7 7v51.933c0 3.866-3.134 7-7 7z" fill="#ffdd40"/></g><path d="m242.248 10.5c0-.53.046-1.047.113-1.559l-87.981 32.238c-1.996.732-3.792 1.924-5.24 3.48l-50.291 54.062c-5.078 5.459-4.769 14.001.689 19.079 5.484 5.102 14.025 4.744 19.08-.689l48.089-51.693 75.541-27.68z" fill="#3e3e75"/><path d="m409.648 98.721-50.292-54.062c-1.448-1.557-3.244-2.749-5.24-3.48l-49.916-18.29c-2.879.743-7.424 2.571-9.989 6.965-2.669 4.57-2.472 10.64.581 18.062-.132.035-.291.081-.435.121l47.433 17.381 48.089 51.693c5.066 5.444 13.607 5.78 19.08.689 5.458-5.078 5.767-13.62.689-19.079z" fill="#59558e"/><path d="m306.949 23.896-40.814-14.955c.067.512.113 1.029.113 1.559v27.237l30.632 11.224c-10.619-23.287 10.068-25.065 10.069-25.065z" fill="#3e3e75"/><g><path d="m254.248 54.84c-7.456 0-13.5-6.044-13.5-13.5v-27.84c0-7.456 6.044-13.5 13.5-13.5s13.5 6.044 13.5 13.5v27.84c0 7.456-6.044 13.5-13.5 13.5z" fill="#6a6aa5"/></g><g><path d="m254.248 294.172c-3.866 0-7-3.134-7-7v-125.25c0-3.866 3.134-7 7-7s7 3.134 7 7v125.25c0 3.866-3.134 7-7 7z" fill="#fcf0be"/></g><path d="m374.52 230.894c-2.22 4.281-7.883 17.303-2.417 30.066 4.726 11.033 16.47 18.799 34.916 23.094-.153.473-.326 1.041-.509 1.689 28.889-6.648 58.974-10.164 89.882-10.164 1.483 0 2.964.01 4.443.027.099-2.859.167-5.725.167-8.608 0-15.646-1.484-30.944-4.288-45.775-9.317-.61-18.71-.939-28.181-.939-32.398 0-63.946 3.629-94.271 10.484z" fill="#88ce65"/><path d="m408.991 282.96c-56.874-12.344-32.512-52.53-32.396-52.72-43.675 9.613-84.836 25.928-122.347 47.817 21.201 12.103 41.263 25.968 59.981 41.409 29.392-15.095 60.902-26.646 93.964-34.103.453-1.527.798-2.403.798-2.403z" fill="#6faf46"/><path d="m407.019 284.054c-1.708 5.288-5.987 22.151 3.132 36.62 7.73 12.267 22.997 19.437 45.39 21.326-.043.146-.087.302-.132.462 11.605-2.297 23.398-4.071 35.366-5.254 6.04-20.225 9.551-41.541 10.136-63.589-1.837-.025-3.676-.041-5.519-.041-30.86 0-60.9 3.504-89.748 10.131.46.114.906.236 1.375.345z" fill="#6faf46"/><path d="m457.074 342.128c.281-.944.48-1.477.48-1.477-69.279-4.838-48.665-57.431-48.565-57.685-34.046 7.513-66.465 19.361-96.639 34.951 19.948 16.265 38.391 34.304 55.096 53.873 28.086-13.519 58.148-23.582 89.628-29.662z" fill="#5ea033"/><path d="m455.54 342c-1.495 5.114-4.615 19.575 3.503 31.284 2.987 4.309 7.17 7.726 12.481 10.27 8.12-14.983 14.732-30.903 19.613-47.565-13.146 1.215-26.087 3.134-38.798 5.688 1.055.116 2.112.231 3.201.323z" fill="#88ce65"/><path d="m457.551 340.658c-32.079 5.965-62.705 16.063-91.297 29.737 15.732 18.272 29.928 37.901 42.414 58.677 14.648-7.105 29.885-13.185 45.613-18.162 6.619-9.103 12.614-18.687 17.949-28.676-25.551-12.187-14.772-41.327-14.679-41.576z" fill="#6faf46"/><path d="m406.812 425.993c4.613 7.531 8.998 15.217 13.146 23.049 14.12-12.725 26.745-27.073 37.596-42.744-17.547 5.237-34.508 11.83-50.742 19.695z" fill="#5ea033"/><path d="m203.897 251.558c-2.973.317-7.869 1.02-13.455 2.558-11.911 3.281-21.081 8.828-26.518 16.041-5.876 7.797-7.619 17.557-5.186 29.031-1.007.252-2.459.653-4.206 1.239 91.297 33.888 166.838 100.2 212.632 184.956 19.485-9.938 37.465-22.404 53.504-36.972-46.538-88.625-123.388-158.834-216.771-196.853z" fill="#88ce65"/><path d="m206.921 252.808c-50.329-20.946-105.536-32.524-163.454-32.524-9.471 0-18.865.329-28.181.939-2.803 14.831-4.288 30.129-4.288 45.775 0 2.883.068 5.749.167 8.608 1.479-.016 2.96-.027 4.443-.027 49.728 0 97.329 9.093 141.237 25.703 2.265-.686 3.686-.966 3.686-.966-10.667-44.452 44.988-47.44 46.39-47.508z" fill="#6faf46"/><path d="m158.063 299.363c-6.12 1.627-23.355 7.428-30.923 22.625-5.448 10.94-4.622 24.309 2.451 39.762-1.441.118-3.495.352-5.911.785 72.115 29.343 132.881 80.79 173.878 145.939 25.28-4.32 49.238-12.509 71.242-23.943-45.31-84.525-120.155-150.846-210.737-185.168z" fill="#aedf75"/><path d="m160.531 300.315c-44.652-17.261-93.179-26.737-143.923-26.737-1.843 0-3.682.016-5.519.041.585 22.05 4.097 43.368 10.138 63.595 36.902 3.646 72.206 12.724 105.109 26.412 3.371-.473 5.562-.506 5.562-.506-25.434-52.21 28.633-62.805 28.633-62.805z" fill="#88ce65"/><path d="m128.804 361.821c-2.578.248-6.541.803-11.033 2.059-10.251 2.866-18.244 8.049-23.117 14.987-7.115 10.133-7.887 23.928-2.299 41.018-1.009.274-2.435.713-4.098 1.335 46.221 19.691 87.2 49.298 120.26 86.164 15.363 3.019 31.235 4.616 47.483 4.616 15.199 0 30.071-1.395 44.504-4.044-40.418-64.91-100.402-116.362-171.7-146.135z" fill="#88ce65"/><path d="m131.886 363.122c-34.698-14.862-72.126-24.573-111.328-28.16 7.811 27.107 20.175 52.281 36.212 74.646 11.448 3.585 22.632 7.764 33.525 12.489 2.426-.824 4.002-1.142 4.002-1.142-19.608-56.766 37.035-57.824 37.589-57.833z" fill="#6faf46"/><path d="m92.032 419.978c-3.706 1.039-11.917 3.917-18.674 10.292 35.805 40.03 84.563 68.227 139.701 77.975-33.073-37.721-74.344-68.062-121.027-88.267z" fill="#aedf75"/><path d="m94.295 420.955c-12.89-5.691-26.199-10.607-39.869-14.687 6.098 8.81 12.771 17.19 19.943 25.11 8.64-8.135 19.901-10.417 19.926-10.423z" fill="#88ce65"/><g><path d="m254.248 140.549c-18.772 0-34.044-15.272-34.044-34.043 0-18.772 15.272-34.044 34.044-34.044s34.044 15.272 34.044 34.044c0 18.771-15.272 34.043-34.044 34.043zm0-54.088c-11.052 0-20.044 8.992-20.044 20.044s8.992 20.043 20.044 20.043 20.044-8.992 20.044-20.043c0-11.052-8.992-20.044-20.044-20.044z" fill="#fcf0be"/></g></g></svg>