<svg id="Capa_1" enable-background="new 0 0 512 512" height="512" viewBox="0 0 512 512" width="512" xmlns="http://www.w3.org/2000/svg"><g><path d="m0 256c0-141.385 114.615-256 256-256s256 114.615 256 256c0 80.844-37.475 152.936-96 199.852-2.767 2.218-317.233 2.218-320 0-58.525-46.916-96-119.008-96-199.852z" fill="#ff2aaa"/><path d="m468.151 256c0 117.168-94.984 212.151-212.151 212.151s-212.151-94.983-212.151-212.151 94.983-212.151 212.151-212.151 212.151 94.983 212.151 212.151z" fill="#ff4fb8"/><path d="m440.38 208.928c0 101.83-82.55 184.38-184.38 184.38s-184.38-82.55-184.38-184.38 82.55-184.379 184.38-184.379 184.38 82.549 184.38 184.379z" fill="#87e0ec"/><path d="m273.872 392.452c-5.881.566-11.843.856-17.872.856-101.83 0-184.38-82.55-184.38-184.38s82.55-184.379 184.38-184.379c6.03 0 11.991.29 17.872.856-93.444 8.988-166.507 87.723-166.507 183.524s73.063 174.535 166.507 183.523z" fill="#2dd2e3"/><path d="m377.878 175.949v185.301h-206.878v-185.301c0-24.53 7.247-47.367 19.717-66.488 28.524 24.584 65.663 39.447 106.274 39.447h71.492c3.791 0 7.032 2.734 7.667 6.472 1.136 6.687 1.728 13.559 1.728 20.569z" fill="#c96e59"/><path d="m193.487 111.796c-11.558 18.633-18.232 40.614-18.232 64.154v185.3h-41.133v-185.301c0-32.857 13.002-62.677 34.141-84.596 1.267-1.313 3.395-1.282 4.577.108 6.266 7.373 13.178 14.18 20.647 20.335z" fill="#bb5d4c"/><path d="m203.499 345c-38.66 0-70 31.34-70 70v55.106s-5.026 7.937-7.499 6.476c-10.505-6.204-20.528-13.138-30-20.731v-40.851c0-38.66 31.34-70 70-70z" fill="#5b3374"/><path d="m416 415v40.852c-17.921 14.366-37.816 26.371-59.213 35.545-1.29.553-2.51-1.908-3.811-1.375-2.441.999-4.9 1.961-7.378 2.886-1.24.463-2.561 3.92-3.81 4.364-9.046 3.217-18.327 5.939-27.809 8.135-1.949.451-6.457-3.239-8.423-2.832-16.824 3.479-31.701 4.255-49.556 4.255-17.994 0-32.61-2.255-49.556-5.787-1.833-.382-6.604 4.785-8.423 4.364-9.207-2.132-18.224-4.76-27.021-7.856-1.413-.497-1.96-4.327-3.362-4.848-2.782-1.035-5.541-2.116-8.277-3.244-.836-.344-2.531 2.627-3.362 2.274-10.368-4.404-20.386-9.471-30-15.15v-61.583c0-38.66 31.34-70 70-70h2.021l5.478 3.021 102.057.34 8.423-3.362h32.022c38.66.001 70 31.341 70 70.001z" fill="#814ba3"/><path d="m171 416.165v81.386c-5.075-1.786-10.077-3.727-15-5.818v-75.567c0-4.142 3.358-7.5 7.5-7.5s7.5 3.357 7.5 7.499zm178.287-7.5c-4.142 0-7.5 3.358-7.5 7.5v81.107c5.076-1.805 10.078-3.766 15-5.876v-75.231c0-4.142-3.358-7.5-7.5-7.5zm-52.154-60.944v160.992c5.68-.917 11.298-2.022 16.846-3.306v-160.407h-14.125c-1.503 0-2.721 1.218-2.721 2.721zm-84.816-2.721h-14.295v160.406c5.548 1.285 11.166 2.389 16.846 3.306v-161.161c-.001-1.409-1.143-2.551-2.551-2.551z" fill="#6f3f8b"/><path d="m299.681 345v163.288c-14.195 2.44-28.79 3.712-43.681 3.712s-29.486-1.272-43.681-3.712v-163.288z" fill="#ffef31"/><path d="m171 220v10c0 13.807-11.193 25-25 25s-25-11.193-25-25v-10c0-13.807 11.193-25 25-25s25 11.193 25 25z" fill="#ffbd86"/><path d="m136 215v20c0 8.178 3.927 15.439 9.998 20-13.806-.001-24.998-11.194-24.998-25v-10c0-13.806 11.192-24.999 24.998-25-6.071 4.561-9.998 11.822-9.998 20zm230-20v-20c0-60.751-49.249-110-110-110-60.751 0-110 49.249-110 110v40c0 50.351 33.83 92.8 80 105.859v25.549c0 16.569 13.431 30 30 30s30-13.431 30-30v-25.549c33.586-9.499 60.641-34.551 72.895-66.883 2.252.666 4.637 1.024 7.105 1.024 13.807 0 25-11.193 25-25v-10c0-13.807-11.193-25-25-25z" fill="#f6a96c"/><path d="m366 175v40c0 50.792-34.425 93.543-81.216 106.195-9.023 2.44-18.545 2.44-27.568 0-46.791-12.652-81.216-55.403-81.216-106.195v-40c0-55.663 41.345-101.669 95-108.985 53.655 7.316 95 53.322 95 108.985z" fill="#ffbd86"/><path d="m270.5 221.731c-3.875 3.875-9.024 6.009-14.5 6.009s-10.625-2.134-14.5-6.009c-2.929-2.93-2.929-7.678 0-10.607 2.929-2.928 7.678-2.928 10.606 0 1.042 1.042 2.424 1.616 3.893 1.616s2.851-.574 3.893-1.616c2.929-2.928 7.678-2.928 10.606 0 2.931 2.93 2.931 7.678.002 10.607zm5.197 28.798c-10.861 10.861-28.532 10.861-39.394 0-2.929-2.928-7.678-2.928-10.606 0-2.929 2.93-2.929 7.678 0 10.607 8.354 8.354 19.329 12.531 30.303 12.531s21.949-4.177 30.303-12.531c2.929-2.93 2.929-7.678 0-10.607-2.928-2.928-7.678-2.928-10.606 0z" fill="#ea9b58"/><path d="m223.5 182.5c0 8.284-6.716 15-15 15s-15-6.716-15-15 6.716-15 15-15 15 6.716 15 15zm80-15c-8.284 0-15 6.716-15 15s6.716 15 15 15 15-6.716 15-15-6.716-15-15-15z" fill="#55271a"/><path d="m226 175c0 4.142-3.358 7.5-7.5 7.5s-7.5-3.358-7.5-7.5 3.358-7.5 7.5-7.5 7.5 3.358 7.5 7.5zm87.5-7.5c-4.142 0-7.5 3.358-7.5 7.5s3.358 7.5 7.5 7.5 7.5-3.358 7.5-7.5-3.358-7.5-7.5-7.5z" fill="#fff5f5"/><path d="m376.265 156.072h-79.275c-40.372 0-77.314-14.69-105.771-39.016-1.538-1.315-1.826-3.575-.659-5.227 21.537-30.505 57.066-50.428 97.248-50.428.134 0 .267 0 .401.001 7.554.025 14.986 1.89 21.757 5.239 34.558 17.094 59.846 50.092 66.299 89.431z" fill="#c96e59"/><path d="m313.517 68.47c-8.795-2.265-18.015-3.47-27.517-3.47-39.784 0-74.634 21.12-93.952 52.76-9.06-7.641-17.275-16.253-24.484-25.675 22.21-23.413 53.618-38.013 88.436-38.013 20.801-.001 40.385 5.21 57.517 14.398z" fill="#bb5d4c"/><path d="m460.651 204.651h-12.819c-2.228-101.337-83.408-183.56-184.332-187.458v-9.693c0-4.142-3.357-7.5-7.5-7.5s-7.5 3.358-7.5 7.5v9.693c-100.924 3.898-182.104 86.121-184.332 187.458h-12.819c-4.143 0-7.5 3.358-7.5 7.5s3.357 7.5 7.5 7.5h13.068c5.444 98.357 85.307 177.196 184.083 181.011v16.14c0 4.142 3.357 7.5 7.5 7.5s7.5-3.358 7.5-7.5v-16.14c98.776-3.815 178.639-82.655 184.083-181.011h13.068c4.143 0 7.5-3.358 7.5-7.5s-3.357-7.5-7.5-7.5zm-42.989 15h14.896c-5.413 90.083-78.554 162.205-169.058 165.998v-11.837c0-4.142-3.357-7.5-7.5-7.5s-7.5 3.358-7.5 7.5v11.837c-90.503-3.794-163.645-75.916-169.058-165.998h14.896c4.143 0 7.5-3.358 7.5-7.5s-3.357-7.5-7.5-7.5h-15.166c2.219-93.065 76.676-168.561 169.328-172.445v18.283c0 4.142 3.357 7.5 7.5 7.5s7.5-3.358 7.5-7.5v-18.283c92.652 3.884 167.109 79.38 169.328 172.445h-15.166c-4.143 0-7.5 3.358-7.5 7.5s3.358 7.5 7.5 7.5z" fill="#00bfd8"/></g></svg>