<svg id="Layer_1" enable-background="new 0 0 514.397 514.397" height="512" viewBox="0 0 514.397 514.397" width="512" xmlns="http://www.w3.org/2000/svg"><g><path d="m270.593 399.691 32.137 61.153s-49.562 25.957 1.84 45.058c61.605-15.39 113.974-54.1 147.185-106.211z" fill="#94dc79"/><path d="m52.165 400.114 41.453 60.73c41.672 32.792 94.243 52.355 151.384 52.355 20.973 0 41.328-2.643 60.757-7.601-50.067-19.071-1.028-44.754-1.028-44.754l-32.137-61.153h-219.979z" fill="#47cb8f"/><path d="m53.241 401.691h397.216c25.005-38.406 39.546-84.249 39.546-133.494 0-135.311-109.691-245.002-245.002-245.002s-245.001 109.691-245.001 245.002c0 24.577 3.635 48.302 10.369 70.685z" fill="#02c0fc"/><path d="m146.629 309.807c-2.712 2.444-8.107 8.211-7.99 15.321.079 4.855 2.694 9.337 7.779 13.347-.798.574-1.795 1.348-2.854 2.283h145.742c-3.298-17.584-18.811-31.001-37.315-31.001h-105.427z" fill="#2a428b"/><path d="m149.025 309.757h-82.964c-18.504 0-34.016 13.417-37.315 31.001h117.156c1.785-1.428 3.122-2.22 3.122-2.22-19.999-13.891.001-28.781.001-28.781z" fill="#1d2e79"/><path d="m323.093 128.927h35.243v121.274h-35.243z" fill="#ffd402" transform="matrix(.5 -.866 .866 .5 6.19 389.849)"/><path d="m322.445 39.063-35.498-20.495c-4.841 2.448-9.879 6.147-12.058 11.477-1.978 4.837-1.299 10.221 2.015 16.03-.825.136-1.846.332-2.976.586l44.046 25.43 9.098-15.758c3.492-6.047 1.42-13.779-4.627-17.27z" fill="#2a428b"/><path d="m288.526 19.48-28.726-16.586c-6.047-3.491-13.779-1.419-17.27 4.628l-9.098 15.758 42.454 24.51c2.127-.412 3.506-.54 3.506-.54-9.96-15.027.234-23.533 9.134-27.77z" fill="#1d2e79"/><path d="m185.176 206.8c-3.853.795-12.082 3.207-15.391 9.678-2.123 4.152-1.817 9.146.89 14.866l30.568 17.648c6.047 3.491 13.779 1.419 17.27-4.627l9.098-15.759-43.817-25.298c.393 1.144.848 2.307 1.382 3.492z" fill="#2a428b"/><path d="m133.969 195.554c-3.491 6.047-1.419 13.779 4.628 17.27l34.474 19.904c-12.121-21.702 14.311-24.783 14.311-24.783-.599-1.192-1.109-2.343-1.554-3.461l-42.761-24.688z" fill="#1d2e79"/><path d="m454.29 269.736 11.83-20.491c1.15-1.992 2.566-3.736 4.174-5.215l-70.18-40.518-17.621 30.521 69.814 40.307c.481-1.573 1.126-3.12 1.983-4.604z" fill="#5071b3"/><path d="m206.144 170.56c-4.488 1.057-16.893 4.797-21.901 14.698-3.06 6.049-2.766 13.23.86 21.369l47.782 27.587c6.047 3.491 13.779 1.419 17.27-4.628l15.347-26.582-59.906-34.587c.18.714.349 1.424.548 2.143z" fill="#5071b3"/><path d="m130.947 160.763c-3.491 6.047-1.419 13.779 4.628 17.27l51.808 29.911c-15.143-30.151 20.643-36.247 20.643-36.247-.219-.752-.415-1.491-.614-2.231l-61.117-35.286z" fill="#2a428b"/><path d="m325.468 73.853-48.77-28.157c.07.127.134.252.207.379-5.413.891-18.582 3.999-23.589 13.621-3.164 6.082-2.452 13.562 2.114 22.252-.472.15-1.032.336-1.658.553l60.976 35.205 15.347-26.582c3.491-6.047 1.419-13.779-4.627-17.271z" fill="#5071b3"/><path d="m210.889 22.3-15.347 26.582 59.974 34.626c1.348-.444 2.123-.651 2.123-.651-18.221-31.905 21.753-35.606 21.753-35.606l-51.232-29.579c-6.048-3.491-13.78-1.419-17.271 4.628z" fill="#2a428b"/><path d="m255.171 81.433c.088.173.168.342.259.516-6.984 2.223-31.841 11.513-44.833 34.54-8.638 15.31-10.134 33.494-4.453 54.071-.019.004-.043.011-.062.015l58.606 33.837 50.872-88.113z" fill="#fef156"/><path d="m145.482 135.588 62.543 36.11c-20.5-70.232 49.613-88.84 49.613-88.84l-61.284-35.382z" fill="#ffd402"/><path d="m469.47 303.036-9.326-5.384c-10.552-6.092-14.167-19.585-8.075-30.137l11.83-20.491c6.092-10.552 19.585-14.167 30.137-8.075l9.326 5.384c10.552 6.092 14.167 19.585 8.075 30.137l-11.831 20.491c-6.091 10.552-19.584 14.167-30.136 8.075z" fill="#fef156"/><path d="m366.945 183.69c-5.273 9.133-16.952 12.263-26.085 6.99s-12.262-16.952-6.989-26.085l.522-.905c-.337.478-.662.968-.96 1.485l-17.48 30.277c-5.298 9.176-2.154 20.909 7.022 26.207s20.909 2.154 26.207-7.022l17.48-30.277c.298-.517.561-1.044.807-1.576z" fill="#fef156"/><path d="m359.64 158.153c-9.176-5.298-20.909-2.154-26.207 7.022l-1.605 2.78c-3.418 8.788-.035 18.99 8.383 23.85s18.945 2.689 24.846-4.665l1.605-2.779c5.298-9.177 2.154-20.91-7.022-26.208z" fill="#fffbb3"/><path d="m304.73 338.538h-158.397c-3.543 2.564-10.712 8.746-10.914 16.937-.15 6.086 3.569 11.89 11.06 17.269-.368.297-.791.647-1.248 1.037h172.823v-21.92c-.001-7.328-5.996-13.323-13.324-13.323z" fill="#5071b3"/><path d="m149.025 338.538h-135.703c-1.016 0-2.001.126-2.953.344 3.625 12.049 8.143 23.71 13.494 34.899h123.732c.89-.716 1.43-1.104 1.43-1.104-27.25-18.003 0-34.139 0-34.139z" fill="#2a428b"/><path d="m144.401 425.602c.592.395 1.195.788 1.821 1.176-3.613 2.621-10.733 8.805-10.915 16.938-.135 6.049 3.589 11.803 11.062 17.128h158.361c7.327 0 13.322-5.995 13.322-13.322v-21.92z" fill="#5071b3"/><path d="m93.618 460.844h55.407c-27.5-17.918 0-34.138 0-34.138-.638-.367-1.254-.735-1.853-1.104h-89.906c10.874 12.954 23.053 24.777 36.352 35.242z" fill="#2a428b"/><path d="m146.388 372.676c.031.022.059.045.09.067-4.828 3.893-18.233 16.035-17.519 30.359.443 8.855 6.212 16.787 17.15 23.603h171.943v-54.029z" fill="#fef156"/><path d="m149.025 372.676h-125.677c9.241 19.571 20.997 37.717 34.852 54.029h90.825c-41.833-24.056 0-54.029 0-54.029z" fill="#ffd402"/><g fill="#2fd0e2"><path d="m467.905 166.393c-18.204-39.794-46.749-73.862-82.198-98.775-12.114 40.509-16.742 105.603 82.198 98.775z"/><path d="m67.239 99.604c-41.67 43.922-67.239 103.27-67.239 168.593 0 7.416.337 14.752.984 22 129.857-24.628 92.157-137.385 66.255-190.593z"/></g></g></svg>