<svg id="Capa_1" enable-background="new 0 0 512 512" height="512" viewBox="0 0 512 512" width="512" xmlns="http://www.w3.org/2000/svg"><g><g><path d="m439.174 429.68c38.455-43.267 61.826-100.24 61.826-162.68 0-135.31-109.69-245-245-245s-245 109.69-245 245c0 62.44 23.371 119.413 61.826 162.68z" fill="#2d2420"/></g><g><path d="m374.26 52.38c-.78-8.75-1.54-16.54-2.23-23.23-.6-5.8-8.82-6.37-10.21-.71-1.16 4.7-2.44 9.97-3.81 15.74-13.41 56.62-35.43 162.61-43.38 276.38-4.494 64.292-4.196 126.752-2.113 179.37l4.413 4.413c13.874-3.546 27.28-8.274 40.095-14.084l.552-.552c8.508-48.965 16.402-105.789 20.523-164.707 7.64-109.26 1.43-213.23-3.84-272.62z" fill="#508c2c"/></g><g><path d="m153.99 44.18c-1.37-5.77-2.65-11.04-3.81-15.74-1.39-5.66-9.61-5.09-10.21.71-.69 6.69-1.45 14.48-2.23 23.23-5.27 59.39-11.48 163.36-3.84 272.62 4.121 58.918 12.015 115.742 20.523 164.707l.552.552c12.815 5.811 26.221 10.538 40.095 14.084l4.413-4.413c2.083-52.618 2.38-115.078-2.113-179.37-7.95-113.77-29.97-219.76-43.38-276.38z" fill="#508c2c"/></g><g><path d="m99.084 119.938c-1.361-4.778-8.344-4.044-8.681.912-3.031 44.536-7.573 145.709 3.628 252.278 2.949 28.059 6.896 55.5 11.322 81.523l18.965 18.965c9.773 6.246 20.012 11.825 30.667 16.654-.531-37.83-2.486-79.881-6.998-122.813-11.201-106.569-36.678-204.586-48.903-247.519z" fill="#5ba037"/></g><g><path d="m236.198 509.802c3.671-49.238 5.994-107.714 3.886-168.087-4.114-117.806-24.55-227.323-34.671-275.375-1.126-5.348-8.846-5.078-9.597.335-6.744 48.641-19.491 159.317-15.377 277.123 2.01 57.571 7.92 113.153 14.618 160.558 12.905 3.304 26.225 5.566 39.859 6.728z" fill="#5ba037"/></g><g><path d="m116.579 400.399c-13.1-93.214-38.472-178.484-50.52-215.801-1.341-4.153-7.449-3.295-7.594 1.067-1.296 39.192-2.181 128.152 10.919 221.366 1.07 7.61 2.222 15.166 3.441 22.648 15.039 16.921 32.377 31.752 51.54 43.983-1.763-23.527-4.27-48.24-7.786-73.263z" fill="#8cc951"/></g><g><path d="m406.646 454.651c4.426-26.023 8.373-53.464 11.322-81.523 11.201-106.569 6.659-207.741 3.628-252.278-.337-4.957-7.321-5.691-8.681-.912-12.225 42.933-37.702 140.95-48.903 247.519-4.512 42.932-6.468 84.982-6.998 122.813 10.655-4.828 20.895-10.408 30.667-16.654z" fill="#5ba037"/></g><g><path d="m316.184 66.676c-.751-5.413-8.47-5.683-9.597-.335-10.121 48.052-30.557 157.569-34.671 275.375-2.108 60.372.215 118.849 3.886 168.087l1.283 1.283c13.634-1.162 26.954-3.424 39.859-6.728 6.698-47.406 12.607-102.987 14.618-160.558 4.113-117.808-8.634-228.484-15.378-277.124z" fill="#5ba037"/></g><g><path d="m453.535 185.666c-.144-4.362-6.253-5.22-7.594-1.067-12.048 37.316-37.42 122.586-50.52 215.801-3.517 25.023-6.023 49.735-7.787 73.264 19.163-12.231 36.501-27.062 51.54-43.983 1.219-7.482 2.372-15.038 3.441-22.648 13.101-93.215 12.216-182.175 10.92-221.367z" fill="#8cc951"/></g><g><path d="m289.26 312.57c0 72.07-5.57 141.57-12.16 198.53-6.95.6-13.99.9-21.1.9s-14.15-.3-21.1-.9c-6.59-56.95-12.16-126.45-12.16-198.53 0-118.47 15.05-229.94 24.89-290.24.01-.06.02-.13.03-.19 1.07-6.5 2.07-12.39 2.98-17.64 1.05-6 9.66-6 10.71 0 .9 5.25 1.92 11.15 2.98 17.64.01.04.01.08.02.12 9.84 60.28 24.91 171.79 24.91 290.31z" fill="#8cc951"/></g></g></svg>