<svg id="Capa_1" enable-background="new 0 0 512 512" height="512" viewBox="0 0 512 512" width="512" xmlns="http://www.w3.org/2000/svg"><g><g><circle cx="256" cy="267" fill="#fc70db" r="245"/></g><g><circle cx="256" cy="282" fill="#fc9ae9" r="200"/></g><g><path d="m256.001 427.166c-18.047 0-35.811-4.581-51.551-13.409-34.187-19.176-84.773-52.839-131.067-104.092-49.63-54.948-72.043-128.771-58.493-192.661 10.159-47.898 39.216-84.705 81.82-103.64 19.952-8.867 40.769-13.364 61.87-13.364 25.53 0 48.261 6.439 67.307 15.124 19.163 8.738 41.061 8.737 60.223 0 19.046-8.685 41.777-15.124 67.31-15.124 21.101 0 41.917 4.497 61.871 13.365 42.603 18.934 71.661 55.741 81.819 103.64 13.55 63.889-8.863 137.712-58.493 192.66-46.169 51.115-96.609 84.736-130.794 103.939-15.794 8.872-33.715 13.562-51.822 13.562z" fill="#e9efff"/></g><g><path d="m203.383 309.664c-49.63-54.948-72.043-128.771-58.493-192.66 9.971-47.011 38.157-83.326 79.478-102.558-18.734-8.337-40.93-14.446-65.788-14.446-21.101 0-41.917 4.497-61.87 13.364-42.604 18.935-71.661 55.742-81.82 103.64-13.55 63.889 8.863 137.712 58.493 192.66 46.171 51.117 96.611 84.737 130.794 103.939 15.794 8.873 33.714 13.563 51.823 13.563h.001c18.107 0 36.028-4.69 51.822-13.562 4.162-2.338 8.57-4.894 13.177-7.666-33.23-19.987-77.068-51.381-117.617-96.274z" fill="#dae2fe"/></g><g><path d="m105.703 280.472c16.042 17.76 32.677 33.207 48.781 46.465l101.517 20 101.517-20c16.103-13.258 32.739-28.705 48.781-46.465 3.011-3.334 5.883-6.744 8.632-10.212l-158.93-20-158.93 20c2.749 3.468 5.621 6.878 8.632 10.212z" fill="#46d8fc"/></g><g><path d="m203.383 309.664c-13.504-14.95-24.974-31.305-34.272-48.47l-72.04 9.066c2.75 3.468 5.621 6.878 8.632 10.212 16.042 17.76 32.677 33.207 48.781 46.465l82.224 16.199c-11.167-10.203-22.366-21.338-33.325-33.472z" fill="#20bce5"/></g><g><path d="m65.307 213.583 190.693 20 190.693-20c6.858-18.96 10.449-38.233 10.706-56.677l-201.4-20-201.4 20c.259 18.444 3.849 37.717 10.708 56.677z" fill="#ffdd40"/></g><g><path d="m141.122 148.314-86.522 8.592c.257 18.444 3.848 37.718 10.706 56.677l87.06 9.131c-8.192-24.556-12.083-49.842-11.244-74.4z" fill="#ffb332"/></g><g><path d="m397.602 53.163c-33.693-14.975-64.622-10.377-88.922-.285-33.787 14.032-71.574 14.032-105.361 0-24.3-10.092-55.229-14.69-88.922.285-22.452 9.979-38.449 26.611-48.223 47.066l189.826 20 189.826-20c-9.774-20.455-25.772-37.088-48.224-47.066z" fill="#ff4155"/></g><g><path d="m180.877 45.894c-19.819-4.127-42.444-3.414-66.479 7.269-22.452 9.979-38.449 26.611-48.223 47.066l80.694 8.502c6.477-24.435 18.073-45.703 34.008-62.837z" fill="#e80054"/></g><g><path d="m54.601 156.906h402.799c.285-20.44-3.534-39.852-11.574-56.677h-379.652c-8.039 16.825-11.859 36.237-11.573 56.677z" fill="#ffb332"/></g><g><path d="m144.89 117.004c1.221-5.758 2.722-11.35 4.48-16.776h-83.196c-8.039 16.825-11.859 36.237-11.574 56.677h86.435c-.14-13.547 1.104-26.93 3.855-39.901z" fill="#ff9100"/></g><g><path d="m97.07 270.26h317.86c14.029-17.696 24.651-37.013 31.764-56.677h-381.387c7.112 19.664 17.735 38.981 31.763 56.677z" fill="#8ddd16"/></g><g><path d="m149.549 213.583h-84.242c7.113 19.664 17.735 38.982 31.764 56.677h77.193c-10.798-18.074-19.101-37.203-24.715-56.677z" fill="#66c60a"/></g><g><path d="m357.517 326.937h-203.034c26.919 22.162 52.349 38.205 71.024 48.696 9.472 5.321 19.982 7.981 30.493 7.981 10.51 0 21.021-2.66 30.493-7.981 18.674-10.491 44.105-26.534 71.024-48.696z" fill="#a934c4"/></g><g><path d="m219.785 326.937h-65.302c26.919 22.162 52.349 38.205 71.024 48.696 9.472 5.321 19.982 7.981 30.493 7.981 8.217 0 16.432-1.634 24.152-4.886-19.358-14.21-40.034-31.389-60.367-51.791z" fill="#9024aa"/></g></g></svg>