<svg id="Layer_1" enable-background="new 0 0 510.664 510.664" height="512" viewBox="0 0 510.664 510.664" width="512" xmlns="http://www.w3.org/2000/svg"><g><g><path d="m255.332.664c-98.131 0-158.58 55.352-158.747 55.445 0 0-2.513 3.137-2.983 5.222-3.818 16.948-7.385 39.663-7.385 56.238 0 30.214 5.48 59.192 15.458 86.085h398.09l4.152-5.049c-25.913-113.361-127.369-197.941-248.585-197.941z" fill="#afe6ff"/><path d="m90.791 110.343c0-18.615 2.007-36.753 5.795-54.234-43.098 34.334-74.83 82.338-88.628 137.449l7.074 10.097h93.375c-11.37-28.9-17.616-60.376-17.616-93.312z" fill="#90d8f9"/></g><path d="m503.918 198.606c-5.884 2.028-12.193 3.144-18.766 3.144-19.566 0-36.846-9.758-47.252-24.672-4.26-6.105-13.13-6.105-17.39 0-10.406 14.914-27.686 24.672-47.252 24.672s-36.846-9.758-47.252-24.672c-4.26-6.105-13.13-6.105-17.39 0-10.406 14.914-27.686 24.672-47.252 24.672s-36.846-9.758-47.252-24.672c-4.26-6.105-13.13-6.105-17.39 0-10.406 14.914-27.686 24.672-47.252 24.672s-36.846-9.758-47.252-24.672c-2.372-3.4-6.173-4.901-9.812-4.514 19.458 85.365 83.078 154.69 164.801 184.372h167.822c28.203-10.496 54.68-25.347 75.73-41.637l8.63-81.663c-1.02-11.93-2.864-23.625-5.471-35.03z" fill="#42cccb"/><g><path d="m98.783 173.924c-4.552-2.631-10.64-1.592-13.951 3.154-10.406 14.913-27.687 24.672-47.252 24.672-10.826 0-20.951-2.992-29.602-8.187-4.978 19.881-7.646 40.677-7.646 62.101 0 7.735.345 15.388 1.02 22.947l48.358 78.325h230.952c-89.005-23.445-158.979-93.786-181.879-183.012z" fill="#54b5b7"/></g><g><g><path d="m361.152 52.194c8.16.972 13.988 8.375 13.016 16.535l-13.468 113.107-28.708-10.606 12.625-106.02c.972-8.16 8.375-13.988 16.535-13.016z" fill="#ffbe82"/></g><g><path d="m343.63 190.451h81.037v85.384h-81.037z" fill="#ffbe82" transform="matrix(.118 -.993 .993 .118 107.22 587.031)"/></g><path d="m299.795 110.599c-.063 0-.126-.004-.19-.003-4.26.083-7.908 2.573-9.672 6.146-1.023 2.071-1.239 4.45-.854 6.729l6.539 38.765c.101 5.153 1.58 8.612 4.178 11.628v-63.265z" fill="#ff965a"/><path d="m457.769 71.378.001-.01c-2.31-2.454-5.458-4.144-9.066-4.573-.619-.074-1.332-.063-2.09.004-7.515.673-13.63 6.584-14.571 14.07-.006.046-.011.091-.017.137l-3.72 31.244-1.698-.202 2.752-52.725-.893-.692-1.725-13.675c-1.527-.783-3.216-1.313-5.02-1.527-3.608-.429-7.064.473-9.885 2.316l-.004-.003c-3.56 2.325-6.104 6.151-6.646 10.704l-6.229 52.311-.535-.064 5.97-64.209-4.111-2.793-1.752-12.061c-1.458-.712-3.059-1.196-4.762-1.398-3.607-.429-7.064.474-9.885 2.315l-.004-.003c-3.56 2.325-6.104 6.151-6.646 10.704l-7.622 64.013-.83-.099 4.001-49.805-3.307-2.32-1.973-12.581c-1.464-.718-3.073-1.206-4.785-1.41-3.607-.429-7.064.474-9.885 2.315l-.004-.003c-3.56 2.325-6.104 6.151-6.646 10.704l-5.918 49.704-7.28 61.139-11.791-4.185-.832-28.164c-.219-11.244-9.512-20.18-20.756-19.961-4.26.083-7.908 2.573-9.673 6.146-1.023 2.071-1.238 4.45-.854 6.728l6.539 38.764c.176 8.97 4.454 12.828 11.708 18.105l54.132 36.33 5.211 70.695 54.217 6.56 7.231-68.052c10.838-8.844 18.576-21.506 20.99-36.256l.066.008 8.036-67.493c-.134-.373-.271-.761-.407-1.142l.428.055 4.491-37.716c.543-4.548-1.036-8.856-3.951-11.949z" fill="#ffbe82"/><g fill="#ff965a"><path d="m311.249 179.485c-7.253-5.277-11.689-13.784-11.865-22.754l-.73-26.07-3.837-13.984c-1.605-.197-2.866-.803-3.817-1.652-1.418 1.896-2.248 4.255-2.198 6.805l.796 40.754c.177 8.97 4.612 17.477 11.866 22.754l41.864 30.465-8.291 67.593 39.78 4.879 4.797-39.112c2.134-17.395-6.391-34.368-21.618-43.044z"/><path d="m430.788 48.014.002-.013c-1.174-1.247-2.566-2.291-4.125-3.075l-9.964 85.289c-.627 5.268 3.135 10.047 8.403 10.674l9.636-80.926c.541-4.55-1.038-8.857-3.952-11.949z"/><path d="m402.834 32.817.001-.012c-1.22-1.296-2.676-2.373-4.309-3.167l-11.173 97.083c-.627 5.268 3.135 10.047 8.402 10.674l11.029-92.628c.543-4.551-1.035-8.859-3.95-11.95z"/></g><g><path d="m357.647 123.184c-.627 5.268 3.135 10.047 8.402 10.674l9.449-78.086c.635-5.251-1.365-10.593-5.572-13.799-.759-.578-1.572-1.084-2.43-1.504z" fill="#ff965a"/></g></g><g><g><path d="m175.332 24.982c-8.186.728-14.231 7.955-13.503 16.14l10.095 113.457 29.01-9.747-9.463-106.348c-.727-8.185-7.953-14.231-16.139-13.502z" fill="#ffbe82"/></g><g><path d="m196.664 280.438-10.771-119.415-85.048 7.568 10.797 119.703z" fill="#ffbe82"/></g><path d="m235.114 85.19c-11.232-.554-20.787 8.102-21.341 19.334l-1.486 30.119-11.909 3.932-5.643-63.42-4.436-49.858c-.406-4.567-2.835-8.467-6.324-10.897l-.004.003c-2.765-1.925-6.193-2.931-9.812-2.609-1.717.153-3.339.592-4.825 1.267l-2.347 12.517-3.374 2.22 2.516 49.902-.833.074-5.713-64.211c-.406-4.567-2.835-8.467-6.324-10.897l-.004.003c-2.765-1.925-6.193-2.931-9.812-2.609-2.034.181-3.935.764-5.633 1.664l-1.55 11.766-3.922 2.497 4.056 64.359-.536.048-4.669-52.473c-.406-4.567-2.835-8.467-6.324-10.897l-.004.003c-2.765-1.925-6.193-2.931-9.812-2.609-2 .178-3.87.745-5.546 1.618l-2.534 15.25 1.154 51.575-1.703.151-2.789-31.341c-.406-4.567-2.652-9.488-6.141-11.918-2.765-1.925-6.489-3.105-10.106-2.784-1.499.133-2.925.485-4.251 1.021l.644 38.287c-2.447 4.9 8.631 87.632 8.631 87.632 1.974 14.816 13.063 17.975 23.633 27.138l22.38 94.773 58.135-5.371-8.278-91.399 42.753-29.206c7.407-5.059 12.094-13.43 12.538-22.391l2.009-40.713c.3-6.079-4.385-11.25-10.464-11.55z" fill="#ffbe82"/><path d="m143.672 220.607c-1.558-16.862-11.943-31.646-27.306-38.769-10.281-4.767-20.159-13.02-21.25-27.226l-.066.006-11.917-116.628c-1.876.758-4.946 3.291-4.946 3.291-3.006 3.004-4.711 7.263-4.305 11.828l3.366 37.833 6.013 68.79.066-.006c1.974 14.816 9.332 27.702 19.902 36.865l8.307 91.712 38.067-3.517z" fill="#ff965a"/><g><path d="m176.723 96.045c.47 5.284-3.432 9.949-8.716 10.419l-7.187-78.119c-.491-5.341 1.687-10.697 6.04-13.83.78-.562 1.611-1.047 2.481-1.441z" fill="#ff965a"/></g><g fill="#ff965a"><path d="m146.924 98.696-6.425-72.212-.001-.005-2.688-24.756c-1.323.701-2.523 1.594-3.566 2.638l.001.012c-3.006 3.003-4.711 7.262-4.305 11.827l8.267 92.916c5.285-.471 9.188-5.136 8.717-10.42z"/><path d="m117.486 101.315-7.983-85.28c-1.357.708-2.586 1.616-3.652 2.683l.001.013c-3.005 3.004-4.711 7.261-4.305 11.826l7.223 81.177c5.283-.47 9.186-5.135 8.716-10.419z"/></g></g><path d="m345.813 372.542c54.231 0 114.568-25.992 154.949-57.243.903-.699 3.769-5.396 3.769-5.396.178-1.087 5.801-23.477 5.801-54.239 0-7.422-.336-14.765-.957-22.026-5.695 25.819-28.7 45.14-56.231 45.14-19.566 0-36.846-9.758-47.252-24.672-4.26-6.105-13.13-6.105-17.39 0-10.406 14.914-27.686 24.672-47.252 24.672s-36.846-9.758-47.252-24.672c-4.26-6.105-13.13-6.105-17.39 0-10.406 14.914-27.686 24.672-47.252 24.672-19.565 0-36.846-9.758-47.252-24.672-4.26-6.105-13.13-6.105-17.39 0-5.885 8.435-13.97 15.218-23.423 19.522 47.949 60.175 122.485 98.914 204.522 98.914z" fill="#54b5b7"/><path d="m147.321 270.437c-8.705 5.291-18.924 8.341-29.857 8.341-19.566 0-36.846-9.758-47.252-24.672-4.26-6.105-13.13-6.105-17.39 0-10.406 14.914-27.686 24.672-47.252 24.672-1.414 0-2.812-.069-4.2-.169 2.273 25.481 8.293 49.883 17.506 72.65l81.969 82.705h174.308v-78.553c-50.959-14.668-95.374-44.786-127.832-84.974z" fill="#098db7"/><g><path d="m345.813 372.542c35.644 0 73.925-11.229 107.445-27.8-6.01-4.007-11.227-9.111-15.358-15.031-4.26-6.105-13.13-6.105-17.39 0-10.406 14.914-27.686 24.672-47.252 24.672s-36.846-9.758-47.252-24.672c-4.26-6.105-13.13-6.105-17.39 0-10.406 14.914-27.686 24.672-47.252 24.672-6.052 0-11.885-.936-17.364-2.667 31.438 13.391 65.904 20.826 101.813 20.826z" fill="#098db7"/><path d="m199.16 327.217c10.187 6.924 20.88 13.152 32.008 18.617-6.728-4.154-12.539-9.652-17.054-16.123-3.562-5.104-10.336-5.925-14.954-2.494z" fill="#077ea8"/></g><path d="m447.826 344.086 14 21.208 28.789-11.172c5.911-14.116 10.596-28.897 13.916-44.219-17.224 13.719-36.269 25.246-56.705 34.183z" fill="#098db7"/><path d="m485.152 354.383c-12.967 0-24.927-4.289-34.551-11.521-31.971 14.439-67.45 22.481-104.81 22.481-26.516 0-52.084-4.05-76.126-11.561-2.71.391-5.48.6-8.299.6-19.566 0-36.846-9.758-47.252-24.672-.64-.917-1.393-1.68-2.21-2.322-.656-.406-1.311-.814-1.964-1.226-4.453-2.12-10.081-.946-13.216 3.547-10.406 14.914-27.686 24.672-47.252 24.672s-36.846-9.758-47.252-24.672c-4.26-6.105-13.13-6.105-17.39 0-10.406 14.914-27.686 24.672-47.252 24.672-6.55 0-12.838-1.109-18.705-3.123 9.92 24.514 23.541 47.132 40.169 67.164l67.51 38.026 231.024 15.225 81.609-39.334c21.598-22.457 39.151-48.905 51.42-78.222-1.794.17-3.612.266-5.453.266z" fill="#077ea8"/><path d="m255.332 510.664c71.836 0 137.264-29.87 183.862-78.317-9.214-4.315-17.099-10.994-22.869-19.263-4.26-6.105-13.13-6.105-17.39 0-10.406 14.914-27.686 24.672-47.252 24.672s-36.846-9.758-47.252-24.672c-4.26-6.105-13.13-6.105-17.39 0-10.406 14.914-27.686 24.672-47.252 24.672-19.565 0-36.846-9.758-47.252-24.672-4.26-6.105-13.13-6.105-17.39 0-10.406 14.914-27.686 24.672-47.252 24.672-19.565 0-36.846-9.758-47.252-24.672-4.26-6.105-13.13-6.105-17.39 0-1.302 1.866-2.711 3.651-4.22 5.346 46.778 56.346 117.345 92.234 196.299 92.234z" fill="#30579d"/></g></svg>