<svg id="Layer_1" enable-background="new 0 0 511.993 511.993" height="512" viewBox="0 0 511.993 511.993" width="512" xmlns="http://www.w3.org/2000/svg"><g><path d="m461.716 400.084c24.845-38.323 39.282-84.02 39.282-133.093 0-135.311-109.691-245.002-245.002-245.002s-245.003 109.691-245.003 245.002c0 49.03 14.411 94.689 39.215 132.991z" fill="#ffdd40"/><path d="m341.312 356.188c-4.211-1.068-7.955-3.619-10.324-7.26-8.431-12.959-10.797-32.138-11.279-46.158-6.435 7.496-13.19 13.766-19.643 18.777-12.573 9.764-28.09 15.068-44.07 15.068-.398 0-.795-.018-1.192-.025-.521 15.678-5.205 45.539-30.542 71.173-1.128-.014-3.555.022-6.728.422 27.113 15.326 61.377 13.136 86.356-6.26 9.784-7.598 26.219-22.475 39.906-45.059-.831-.22-1.647-.466-2.484-.678z" fill="#ffaa7b"/><path d="m255.996 336.614c-15.98 0-31.495-5.304-44.069-15.068-6.453-5.011-13.208-11.282-19.643-18.777-.483 14.02-2.848 33.199-11.28 46.158-2.37 3.642-6.113 6.193-10.325 7.26-.836.212-1.652.458-2.483.677 13.688 22.585 30.124 37.461 39.908 45.059 3.714 2.884 7.63 5.374 11.689 7.494 3.107-.256 5.076-.14 5.076-.14 26.222-26.222 30.981-56.682 31.468-72.672-.113.002-.227.009-.341.009z" fill="#fc9460"/><path d="m433.707 394.151c-8.222-.673-12.596-3.862-22.285-9.325-10.377-5.851-20.84-11.019-31.529-15.542-17.534 31.705-40.139 52.261-53.117 62.34-41.786 32.445-100.427 32.212-141.909-.001-.484-.375-.985-.77-1.494-1.175-.245.485-.492.966-.723 1.471-6.296-.306-37.814-.857-57.365 17.263-5.213 4.831-9.095 10.59-11.647 17.215 40.123 28.7 89.265 45.597 142.36 45.597 86.237 0 162.059-44.562 205.719-111.909-8.31-3.023-17.603-5.083-28.01-5.934z" fill="#49b1f7"/><path d="m183.6 433.478c.307-.72.634-1.41.97-2.088-13.023-10.158-35.417-30.637-52.822-62.107-10.689 4.523-21.152 9.691-31.529 15.542-9.689 5.464-14.063 8.653-22.285 9.325-10.289.841-19.487 2.865-27.725 5.831 17.071 26.361 39.068 49.234 64.687 67.316 14.271-37.951 68.704-33.819 68.704-33.819z" fill="#1e9ef4"/><path d="m341.44 356.223c-13.422 21.945-29.431 36.421-38.991 43.846-23.31 18.099-54.901 20.718-80.63 7.742-8.087.374-29.697 3.353-39.17 24.107-.298-.015-.671-.029-1.078-.043.697.558 1.378 1.097 2.03 1.602 42.25 32.81 102.071 33.171 144.792.001 13.191-10.244 36.112-31.098 53.852-63.259-13.159-5.697-26.652-10.401-40.805-13.996z" fill="#73c3f9"/><path d="m224.87 409.279c.003-.003.006-.006.009-.009-5.374-2.413-10.53-5.47-15.333-9.201-9.562-7.425-25.57-21.901-38.993-43.847-14.153 3.595-27.645 8.3-40.804 13.998 17.74 32.161 40.661 53.015 53.852 63.258 11.104-26.014 41.269-24.199 41.269-24.199z" fill="#49b1f7"/><path d="m259.938.096c-9.121 5.853-20.957 15.901-24.912 30.29-3.639 13.238.197 27.479 11.401 42.326.384.508.736 1.006 1.103 1.509 7.546 1.438 15.378.943 22.725-1.5 14.241-4.736 36.573-9.479 54.779-1.288 21.428 9.642 19.633 39.137 18.451 55.46-.411 5.675.938 11.367 4.005 16.179 1.811 2.841 3.248 5.853 4.388 8.828 1.417 3.698 2.425 9.948 3.048 13.827 3.289-1.593 10.42-3.329 14.441-2.761.492-17.064 2.068-37.888 2.068-37.888 16.697-81.776-48.616-122.762-111.497-124.982z" fill="#56415e"/><path d="m262.644.217c-9.441-.5-18.855-.135-27.957 1.105-63.988 8.718-70.07 44.998-70.098 58.308-.006 2.791-1.552 5.378-4.062 6.6-33.285 16.192-15.339 96.659-15.339 96.659 3.343.223 9.27 1.577 11.88 2.84.639-3.977 1.682-10.321 3.155-14.105 1.122-2.884 2.526-5.797 4.28-8.549 3.044-4.775 4.43-10.409 4.016-16.041-1.196-16.28-3.049-45.93 18.44-55.599 18.205-8.192 40.538-3.448 54.779 1.288 2.585.859 5.23 1.47 7.902 1.849-.644-.908-1.31-1.826-2.016-2.762-28.691-38.022-.853-61.942 15.02-71.593z" fill="#47354f"/><path d="m376.559 162.755c-4.984-4.568-16.126-2.252-20.418.544.941 5.856.994 11.846.181 17.762l-5.065 36.892c0 2.974-.094 5.891-.266 8.758 12.351 3.726 19.701-7.363 20.735-14.973.445-3.276 1.172-6.505 2.181-9.655 3.286-10.261 15.138-27.885 2.652-39.328z" fill="#ffaa7b"/><path d="m135.434 162.755c4.984-4.568 16.126-2.252 20.418.544-.94 5.856-.994 11.846-.181 17.762l5.065 36.892c0 2.974.094 5.891.266 8.758-12.351 3.726-19.701-7.363-20.735-14.973-.445-3.276-1.172-6.505-2.181-9.655-3.286-10.261-15.139-27.885-2.652-39.328z" fill="#fc9460"/><path d="m354.306 151.901c-1.14-2.974-2.577-5.987-4.388-8.828-3.067-4.812-4.417-10.504-4.005-16.179 1.182-16.323.548-48.248-20.88-57.889-18.204-8.191-40.535-3.449-54.777 1.287-8.24 2.74-17.094 3.032-25.468.89-14.933 13.005-15.28 39.955-14.21 54.513.421 5.732-.99 11.465-4.087 16.325-1.785 2.801-3.214 5.765-4.356 8.7-3.705 9.519-4.786 19.842-3.398 29.951l5.156 37.553c0 53.988 28.819 90.683 53.333 109.719 2.941 2.284 6.052 4.306 9.281 6.097 4.786-2.24 9.34-5 13.558-8.275 24.088-18.705 52.406-54.762 52.406-107.811l5.065-36.892c1.351-9.836.327-19.881-3.23-29.161z" fill="#ffc7ab"/><g><path d="m277.427 325.764c-24.088-18.705-52.406-54.762-52.406-107.811l-5.066-36.9c-1.364-9.932-.302-20.076 3.339-29.43 1.122-2.884 2.526-5.796 4.28-8.549 3.044-4.776 4.43-10.409 4.016-16.041-1.098-14.953-.688-43.221 16.035-55.225-1.987-.374-3.955-.875-5.888-1.517-14.241-4.736-36.572-9.478-54.776-1.287-21.489 9.669-22.066 41.749-20.87 58.029.414 5.632-.972 11.265-4.016 16.041-1.754 2.752-3.158 5.665-4.28 8.549-3.641 9.353-4.702 19.497-3.339 29.43l5.066 36.9c0 53.049 28.318 89.106 52.406 107.811 12.573 9.764 28.089 15.067 44.069 15.067 11.463 0 22.68-2.742 32.75-7.889-3.969-2.028-7.766-4.418-11.32-7.178z" fill="#ffaa7b"/></g><path d="m354.749 204.859c-19.025-9.416-19.623-21.877-16.775-30.673 2.038-6.291 1.839-12.89-.559-18.581-8.536-20.26 8.81-31.834 9.578-32.333l.467-.301.402-1.36c-21.516 5.144-54.29 11.013-91.865 11.013-9.278 0-18.259-.361-26.856-.978-4.525 3.446-16.787 14.786-10.417 32.665 1.487 4.172.793 9.018-1.855 12.963-9.814 14.616-1.041 27.671 5.569 34.521.11-.029.223-.058.332-.087 21.791-5.695 44.661-5.695 66.453 0 .304.079.612.159.921.24 17.361 4.514 45.178-.805 66.292-6.355-.576-.224-1.141-.464-1.687-.734z" fill="#ff4155"/><path d="m224.117 211.365c-14.295-14.295-10.67-26.304-6.003-33.255 2.834-4.221 3.729-9.514 2.023-14.302-7.373-20.692 11.368-31.998 11.368-31.998s.012-.002.016-.003c-39.694-2.602-71.415-10.815-85.769-15.107-6.001-1.794-12.385 1.117-15.039 6.79-4.367 9.338-3.275 19.002-1.454 25.725 1.422 5.248.876 10.786-1.402 15.722-.136.294-.266.589-.391.887-6.536 15.527 2.003 32.31 18.177 37.022 21.467 6.254 55.955 14.367 76.205 9.102.31-.081.617-.161.921-.24.451-.118.906-.219 1.358-.332-.003-.003-.006-.007-.01-.011z" fill="#e80054"/><path d="m83.382 349.309c39.808-5.101 60.032-50.549 37.098-83.484-22.128-31.776-29.869-70.129-22.484-111.833 4.511-25.475-2.144-46.968-11.787-63.619-46.359 44.577-75.215 107.224-75.215 176.617 0 25.346 3.86 49.787 11.007 72.781 21.011 10.131 42.061 12.014 61.381 9.538z" fill="#f7e38d"/><path d="m428.61 349.309c-39.807-5.101-60.032-50.549-37.098-83.484 22.128-31.776 29.869-70.129 22.484-111.833-4.511-25.475 2.144-46.968 11.787-63.619 46.359 44.577 75.215 107.224 75.215 176.617 0 25.346-3.86 49.787-11.007 72.781-21.01 10.131-42.061 12.014-61.381 9.538z" fill="#f7e38d"/><path d="m384.527 165.825c-.125-.298-.255-.593-.391-.887-2.278-4.937-2.824-10.475-1.403-15.723 1.821-6.723 2.913-16.386-1.455-25.725-2.653-5.673-9.038-8.584-15.037-6.789-4.836 1.446-11.644 3.338-20.063 5.31-.008.005-19.298 12.454-10.146 34.175 2.346 5.567 2.376 11.789.515 17.537-2.847 8.791-2.824 22.403 17.537 32.48 4.385-1.122 8.525-2.267 12.265-3.356 16.175-4.712 24.713-21.495 18.178-37.022z" fill="#ff7186"/></g></svg>