<svg id="Capa_1" enable-background="new 0 0 512 512" height="512" viewBox="0 0 512 512" width="512" xmlns="http://www.w3.org/2000/svg"><g><g><path d="m465.986 402.44c28.993-41.497 46.014-91.977 46.014-146.44 0-141.385-114.615-256-256-256s-256 114.615-256 256c0 54.463 17.021 104.943 46.014 146.44z" fill="#ff4155"/></g><g><path d="m466 60v342.44c-46.27 66.23-123.08 109.56-210 109.56s-163.73-43.33-210-109.56v-342.44l55.17-7.88 154.83-22.12 154.83 22.12z" fill="#e9efff"/></g><g><path d="m125.67 48.62-24.5 3.5-55.17 7.88v342.44c46.27 66.23 123.08 109.56 210 109.56s163.73-43.33 210-109.56c-187.959 0-340.329-152.371-340.329-340.329v-13.491z" fill="#d3dcfb"/></g><g><g><path d="m288 118.5c-18.195 0-23.028 33.304-32 33.304s-13.805-33.304-32-33.304-80.654 97.846-79.621 177.374h111.621 111.621c1.033-79.528-61.426-177.374-79.621-177.374z" fill="#3c58a0"/></g><g><path d="m362.233 250.051c-113.93 7.829-186.969-68.863-167.456-102.841-23.76 34.946-51.084 95.841-50.398 148.664h111.621 111.621c.193-14.887-1.839-30.415-5.388-45.823z" fill="#2a428c"/></g><g><path d="m416 282.869c0 6.672-4.394 12.539-10.791 14.435-23.825 7.061-84.008 22.72-149.209 22.72s-125.384-15.659-149.209-22.72c-6.397-1.896-10.791-7.763-10.791-14.435 0-8.312 6.738-15.051 15.051-15.051h289.899c8.312 0 15.05 6.739 15.05 15.051z" fill="#4b6bb2"/></g><g><path d="m229.897 293.921c0-14.416 11.687-26.103 26.103-26.103h-144.949c-8.312 0-15.051 6.738-15.051 15.051 0 6.672 4.394 12.539 10.791 14.435 23.825 7.061 84.008 22.72 149.209 22.72-14.416 0-26.103-11.686-26.103-26.103z" fill="#3c58a0"/></g></g><g><path d="m466 60h-420v-40c0-11.046 8.954-20 20-20h380c11.046 0 20 8.954 20 20z" fill="#2a428c"/></g><g><path d="m114.557 50c0-5.523 4.477-10 10-10v-20c-5.523 0-10-4.477-10-10s4.477-10 10-10h-58.557c-11.046 0-20 8.954-20 20v40h78.557c-5.523 0-10-4.477-10-10z" fill="#1c2e7a"/></g><g><circle cx="423.5" cy="30" fill="#ff4155" r="10"/></g><g><circle cx="388.5" cy="30" fill="#ffdd40" r="10"/></g><g><circle cx="353.5" cy="30" fill="#38c674" r="10"/></g><g><path d="m88.5 40h215c5.523 0 10-4.477 10-10 0-5.523-4.477-10-10-10h-215c-5.523 0-10 4.477-10 10 0 5.523 4.477 10 10 10z" fill="#3c58a0"/></g><g><path d="m221.106 360.426c-1.657 0-3.278-.823-4.23-2.327-1.477-2.333-.782-5.422 1.552-6.898 11.32-7.164 24.313-10.95 37.575-10.95 13.255 0 26.242 3.783 37.56 10.939 2.333 1.476 3.029 4.564 1.553 6.898-1.475 2.333-4.56 3.031-6.898 1.554-9.715-6.144-20.854-9.391-32.214-9.391-11.365 0-22.509 3.25-32.228 9.4-.83.525-1.755.775-2.67.775z" fill="#112360"/></g><g><circle cx="184.832" cy="346.155" fill="#1c2e7a" r="45"/></g><g><circle cx="327.168" cy="346.155" fill="#1c2e7a" r="45"/></g><g><path d="m164.624 305.95c-8.281 4.171-15.1 10.816-19.474 18.975l29.494 65.057c3.275.758 6.682 1.172 10.187 1.172 5.988 0 11.697-1.18 16.923-3.303z" fill="#112360"/></g><g><path d="m217.403 377.186c4.209-4.417 7.538-9.68 9.682-15.519l-26.068-57.501c-5.024-1.938-10.478-3.012-16.186-3.012-.629 0-1.253.022-1.876.047z" fill="#112360"/></g><g><path d="m305.583 306.664c-8.24 4.514-14.914 11.529-18.997 20.026l28.471 62.802c3.855 1.075 7.914 1.662 12.112 1.662 5.439 0 10.653-.965 15.479-2.733z" fill="#112360"/></g><g><path d="m341.322 303.439c-4.452-1.475-9.207-2.284-14.154-2.284-1.19 0-2.365.06-3.531.151l34.937 77.064c4.258-4.152 7.703-9.134 10.056-14.694z" fill="#112360"/></g></g></svg>