<svg id="Capa_1" enable-background="new 0 0 512 512" height="512" viewBox="0 0 512 512" width="512" xmlns="http://www.w3.org/2000/svg"><g><path d="m256 21.996c-135.311 0-245.002 109.691-245.002 245.002 0 117.797 83.138 216.162 193.935 239.656l47.572 5.301c1.165.017 2.326.045 3.495.045 1.168 0 2.328-.028 3.492-.044l47.572-5.301c110.799-23.493 193.939-121.859 193.939-239.657-.001-135.311-109.692-245.002-245.003-245.002z" fill="#1d2e79"/><path d="m256.205 98.29c-5.016 4.543-20.98 20.52-20.304 39.285.392 10.891 6.359 20.707 17.743 29.202-1.857 1.908-4.861 5.721-4.807 10.378.043 3.67 1.947 7.05 5.662 10.056v55.431l.001.938.843.411c.245.12 24.53 12.245 22.463 35.796-.733 8.353 1.058 15.003 5.324 19.768 5.083 5.677 12.124 6.913 14.757 7.182 1.875 4.826 11.261 26.243 32.398 32.853 16.65 5.208 36.132-.229 57.902-16.155-.255-.432-.514-.861-.783-1.284-8.374-13.211-11.57-29.097-7.968-44.318 3.146-13.293 4.829-27.319 4.829-41.816 0-64.084-32.901-118.974-79.611-141.882-2.101 1.226-4.538 1.94-7.146 1.94h-43.89c.781.752 1.641 1.491 2.587 2.215z" fill="#bb81e3"/><path d="m298.956 305.31s-21.844-.495-19.657-25.392c2.186-24.897-23.3-37.276-23.3-37.276v-56.16c-12.74-9.685 0-19.847 0-19.847-43.364-30.681 2.614-68.453 2.614-68.453-1.023-.701-1.937-1.404-2.761-2.107h-41.362c-2.608 0-5.045-.714-7.146-1.94-46.71 22.908-79.611 77.798-79.611 141.882 0 14.497 1.684 28.524 4.83 41.817 3.602 15.221.406 31.106-7.968 44.316-4.895 7.722-7.666 16.923-7.49 26.784.469 26.33 22.319 47.693 48.653 47.597 6.317-.023 12.349-1.255 17.876-3.477 16.64-6.688 34.733-8.891 52.36-5.586 6.519 1.222 13.2 1.857 20.007 1.857 6.806 0 13.488-.635 20.007-1.857 17.628-3.305 35.72-1.102 52.361 5.587 5.526 2.221 11.557 3.453 17.873 3.476 26.334.097 48.185-21.266 48.655-47.596.176-9.862-2.595-19.062-7.49-26.785-65.962 48.335-88.451-16.84-88.451-16.84z" fill="#9957bc"/><path d="m321.29 4.527c-20.734-2.946-42.638-4.527-65.292-4.527-1.087 0-2.165.021-3.248.028l1.748.891v18.69c0 13.578 10.571 25.011 24.067 26.029 14.868 1.121 33.447 3.72 43.953 9.706 5.171-5.464 9.871-11.55 14.009-18.169 8.221-13.15.116-30.467-15.237-32.648z" fill="#bb81e3"/><path d="m190.706 4.527c-15.354 2.182-23.458 19.499-15.238 32.649 9.208 14.73 21.181 26.847 34.997 35.258 1.277-.376 2.625-.587 4.024-.587h83.018c1.399 0 2.747.21 4.024.587 8.026-4.887 15.425-11.031 22.027-18.205-10.779-6.265-29.769-8.946-44.879-10.086-12.807-.966-22.68-11.69-22.68-24.533v-19.61c-22.655 0-44.559 1.581-65.293 4.527z" fill="#9957bc"/><path d="m300.766 96.074h-28.441v32.555c0 7.854 6.366 14.22 14.22 14.22s14.22-6.366 14.22-14.22v-32.555z" fill="#efe1de"/><path d="m248.113 84.785c.054 4.858 2.73 9.357 7.954 13.396h41.44c7.854 0 14.22-6.366 14.22-14.22s-6.366-14.221-14.22-14.221h-41.277c-2.732 2.378-8.195 8.015-8.117 15.045z" fill="#f9f2f2"/><path d="m258.612 69.74h-44.123c-7.854 0-14.22 6.367-14.22 14.221s6.367 14.22 14.22 14.22h44.123c-20.25-13.884 0-28.441 0-28.441z" fill="#efe1de"/><path d="m253.539 166.696c.036.027.069.054.105.081-1.857 1.908-4.861 5.721-4.807 10.378.043 3.67 1.947 7.05 5.662 10.056v55.431l.001.938.843.411c.245.12 24.53 12.245 22.463 35.796-.733 8.353 1.058 15.003 5.324 19.768 4.573 5.107 10.719 6.617 13.826 7.065 21.059-13.529 35.051-37.143 35.051-63.978 0-41.91-34.096-76.007-76.008-76.007-.826-.001-1.642.035-2.46.061z" fill="#dbb6ff"/><path d="m255.998 318.648c15.927 0 30.718-4.934 42.946-13.339-.253-.007-21.819-.641-19.646-25.392 2.186-24.897-23.3-37.276-23.3-37.276v-56.16c-12.74-9.685 0-19.847 0-19.847-41.911 0-76.008 34.097-76.008 76.007.001 41.911 34.097 76.007 76.008 76.007z" fill="#bb81e3"/><g><path d="m256.18 290.609c-9.287 0-14.757-1.027-23.325-6.631-3.408-2.229-4.364-6.8-2.134-10.208 2.229-3.407 6.798-4.363 10.207-2.134 5.947 3.89 8.343 4.273 16.07 4.223 8.437-.056 13.008-6.374 13.683-12.221.333-2.887.14-9.838-8.837-12.004l-15.144-3.652c-15.641-3.772-21.332-16.804-20.033-28.046 1.441-12.47 11.603-25.15 28.239-25.261 9.865-.069 15.395.842 24.241 6.628 3.408 2.229 4.363 6.8 2.134 10.208-2.229 3.407-6.8 4.361-10.207 2.135-5.947-3.892-8.345-4.29-16.07-4.223-8.441.056-13.012 6.367-13.687 12.206-.334 2.892-.141 9.852 8.841 12.018l15.143 3.652c15.637 3.771 21.328 16.796 20.029 28.031-1.441 12.477-11.602 25.164-28.235 25.276-.309.002-.615.003-.915.003z" fill="#833faf"/></g><g><path d="m256 302.065c-4.073 0-7.373-3.301-7.373-7.374v-104.101c0-4.072 3.301-7.374 7.373-7.374s7.374 3.301 7.374 7.374v104.101c-.001 4.073-3.302 7.374-7.374 7.374z" fill="#9957bc"/></g><path d="m259.433 445.054c-2.921 6.482-3.182 11.719-.776 15.567 4.423 7.072 16.525 7.631 17.069 7.652h1.552l-10.581 10.581c-5.908 5.91-15.49 5.91-21.399 0l-37.81-37.81c-5.91-5.909-5.91-15.49 0-21.399 5.908-5.91 15.49-5.91 21.399 0l25.117 24.76c1.106 1.09 2.882 1.09 3.988 0l3.431-3.382c-.709 1.323-1.375 2.667-1.99 4.031z" fill="#ffd301"/><path d="m304.508 419.645c5.909 5.909 5.909 15.49 0 21.399l-28.809 28.809s-28.814-.802-17.706-25.448l25.116-24.76c5.907-5.909 15.49-5.91 21.399 0z" fill="#fef156"/><path d="m259.433 376.054c-2.921 6.482-3.182 11.719-.776 15.567 4.423 7.072 16.525 7.631 17.069 7.652h1.552l-10.581 10.581c-5.908 5.91-15.49 5.91-21.399 0l-37.81-37.81c-5.91-5.909-5.91-15.49 0-21.399 5.908-5.91 15.49-5.91 21.399 0l25.117 24.76c1.106 1.09 2.882 1.09 3.988 0l3.431-3.382c-.709 1.323-1.375 2.667-1.99 4.031z" fill="#ffd301"/><path d="m304.508 350.645c5.909 5.909 5.909 15.49 0 21.399l-28.809 28.809s-28.814-.802-17.706-25.448l25.116-24.76c5.907-5.909 15.49-5.91 21.399 0z" fill="#fef156"/><g><path d="m228.887 488.673c-5.909-5.909-15.49-5.909-21.399 0-4.872 4.872-5.717 12.234-2.556 17.981 15.374 3.26 31.281 5.073 47.573 5.301z" fill="#ffd301"/></g><path d="m283.109 488.673-23.617 23.283c16.292-.228 32.198-2.041 47.572-5.301 3.161-5.748 2.316-13.111-2.555-17.982-5.91-5.91-15.493-5.909-21.4 0z" fill="#fef156"/><path d="m51.095 145.979c1.645-.001 3.379-.114 5.198-.354l28.91 15.75.193.089c.063.024 6.354 2.465 12.606 7.634 8.276 6.842 12.472 14.93 12.472 24.039 0 13.303 5.416 19.443 9.96 22.251 4.068 2.514 9.15 3.38 14.531 2.622 16.503-13.954 27.009-34.789 27.009-58.041 0-11.672-2.651-22.735-7.372-32.627-.138.14-.267.281-.407.421-8.117 8.117-16.152 11.861-23.86 11.124-10.879-1.036-17.606-10.79-17.672-10.886l-.337-.5-.583-.154c-22.838-6.031-24.133-26.132-24.176-26.982l-.039-.809-.675-.449c-2.527-1.678-3.881-3.596-4.025-5.7-.245-3.57 2.883-6.959 3.89-7.952l6.465-1.143c-2.377-.225-4.782-.352-7.217-.352-27.541 0-51.705 14.725-65.04 36.714 1.588 5.789 8.541 25.306 30.169 25.305z" fill="#fef156"/><path d="m112.078 193.137c0-23.172-26.108-33.169-26.108-33.169l-29.374-16.002c-28.744 4.158-34.368-24.584-34.477-25.156-7.679 11.871-12.159 25.997-12.159 41.158 0 41.911 34.097 76.007 76.008 76.007 19.79 0 37.832-7.609 51.37-20.046-12.877 3.093-25.26-3.161-25.26-22.792z" fill="#ffd301"/><path d="m85.968 100.441s1.055 22.033 25.368 28.454c0 0 17.697 26.278 43.978.015-11.9-26.465-38.496-44.949-69.346-44.949 0-.001-10.698 9.374 0 16.48z" fill="#fffbb3"/><g><path d="m86.137 208.038c-9.3 0-14.782-1.03-23.369-6.648-3.455-2.261-4.424-6.894-2.164-10.349 2.261-3.457 6.895-4.424 10.349-2.164 5.924 3.875 8.332 4.254 16.012 4.205 8.376-.056 12.912-6.326 13.582-12.13.331-2.86.138-9.745-8.76-11.891l-15.143-3.652c-15.702-3.787-21.415-16.871-20.111-28.158 1.446-12.514 11.644-25.24 28.34-25.351 9.854-.067 15.429.843 24.298 6.645 3.455 2.26 4.424 6.894 2.164 10.349-2.262 3.456-6.895 4.424-10.349 2.164-5.925-3.875-8.336-4.256-16.013-4.205-8.38.055-12.917 6.319-13.586 12.115-.331 2.864-.139 9.758 8.763 11.906l15.143 3.652c15.699 3.786 21.411 16.862 20.108 28.142-1.446 12.521-11.644 25.255-28.337 25.366-.312.003-.622.004-.927.004z" fill="#ff953a"/></g><g><path d="m85.97 219.494c-4.129 0-7.476-3.347-7.476-7.476v-104.101c0-4.129 3.347-7.476 7.476-7.476s7.476 3.347 7.476 7.476v104.101c0 4.129-3.347 7.476-7.476 7.476z" fill="#fea53d"/></g><path d="m391.159 145.979c1.645-.001 3.379-.114 5.198-.354l28.91 15.75.193.089c.063.024 6.354 2.465 12.606 7.634 8.276 6.842 12.472 14.93 12.472 24.039 0 13.303 5.416 19.443 9.96 22.251 4.068 2.514 9.15 3.38 14.531 2.622 16.503-13.954 27.009-34.789 27.009-58.041 0-11.672-2.651-22.735-7.372-32.627-.138.14-.267.281-.407.421-8.117 8.117-16.152 11.861-23.86 11.124-10.879-1.036-17.606-10.79-17.672-10.886l-.337-.5-.583-.154c-22.838-6.031-24.133-26.132-24.176-26.982l-.039-.809-.675-.449c-2.527-1.678-3.881-3.596-4.026-5.7-.245-3.57 2.883-6.959 3.89-7.952l6.466-1.143c-2.377-.225-4.782-.352-7.217-.352-27.541 0-51.706 14.725-65.04 36.714 1.588 5.789 8.541 25.306 30.169 25.305z" fill="#fef156"/><path d="m452.142 193.137c0-23.172-26.108-33.169-26.108-33.169l-29.374-16.002c-28.744 4.158-34.368-24.584-34.477-25.156-7.68 11.872-12.159 25.998-12.159 41.159 0 41.911 34.096 76.007 76.008 76.007 19.79 0 37.832-7.609 51.37-20.046-12.877 3.092-25.26-3.162-25.26-22.793z" fill="#ffd301"/><path d="m426.032 100.441s1.055 22.033 25.368 28.454c0 0 17.697 26.278 43.978.015-11.9-26.465-38.496-44.949-69.345-44.949-.001-.001-10.699 9.374-.001 16.48z" fill="#fffbb3"/><g><path d="m426.201 208.038c-9.3 0-14.782-1.03-23.369-6.648-3.455-2.261-4.424-6.894-2.164-10.349 2.261-3.457 6.895-4.424 10.349-2.164 5.924 3.875 8.332 4.254 16.012 4.205 8.376-.056 12.912-6.326 13.582-12.13.331-2.86.138-9.745-8.76-11.891l-15.143-3.652c-15.702-3.787-21.415-16.871-20.111-28.158 1.446-12.514 11.644-25.24 28.34-25.351 9.854-.067 15.429.843 24.298 6.645 3.456 2.26 4.424 6.894 2.164 10.349-2.262 3.456-6.895 4.424-10.349 2.164-5.925-3.875-8.336-4.256-16.013-4.205-8.38.055-12.917 6.319-13.586 12.115-.331 2.864-.139 9.758 8.763 11.906l15.143 3.652c15.699 3.786 21.411 16.862 20.108 28.142-1.447 12.521-11.644 25.255-28.337 25.366-.312.003-.622.004-.927.004z" fill="#ff953a"/></g><g><path d="m426.034 219.494c-4.129 0-7.476-3.347-7.476-7.476v-104.101c0-4.129 3.347-7.476 7.476-7.476s7.476 3.347 7.476 7.476v104.101c0 4.129-3.347 7.476-7.476 7.476z" fill="#fea53d"/></g><g fill="#2a428b"><path d="m85.599 332.772c0-46.689-43.964-65.133-74.513-72.314-.057 2.173-.088 4.353-.088 6.54 0 55.742 18.625 107.126 49.979 148.291 13.225-23.513 24.622-52.484 24.622-82.517z"/><path d="m426.401 332.772c0-46.689 43.964-65.133 74.513-72.314.057 2.173.088 4.353.088 6.54 0 55.742-18.625 107.126-49.979 148.291-13.225-23.513-24.622-52.484-24.622-82.517z"/></g></g></svg>