<svg id="Capa_1" enable-background="new 0 0 512 512" height="512" viewBox="0 0 512 512" width="512" xmlns="http://www.w3.org/2000/svg"><g><path d="m4.638 304.759c-3.044-15.785-4.638-32.086-4.638-48.759 0-141.385 114.615-256 256-256s256 114.615 256 256c0 16.673-1.594 32.974-4.638 48.759z" fill="#86befb"/><path d="m456.702 222c0 110.845-89.857 200.702-200.702 200.702s-200.702-89.857-200.702-200.702 89.857-200.702 200.702-200.702 200.702 89.857 200.702 200.702z" fill="#a7d0fc"/><path d="m502.445 262.47c0 8.284-6.716 15-15 15h-93.013c-8.284 0-15-6.716-15-15 0-8.284 6.716-15 15-15h.958c8.284 0 15-6.716 15-15 0-8.284 6.716-15 15-15h31.098c8.284 0 15 6.716 15 15 0 8.284 6.716 15 15 15h.957c8.284 0 15 6.715 15 15zm-324.412-20.093h-51.528c-8.284 0-15 6.716-15 15s6.716 15 15 15h51.528c8.284 0 15-6.716 15-15s-6.716-15-15-15zm68.643-225.145h-51.528c-8.284 0-15 6.716-15 15s6.716 15 15 15h51.528c8.284 0 15-6.716 15-15s-6.716-15-15-15z" fill="#c8e2fd"/><path d="m79.841 301h428.217c-18.528 104.482-100.43 187.065-204.56 206.602-6.311 1.184-12.788 1.184-19.099 0-104.129-19.537-186.031-102.12-204.558-206.602z" fill="#6e9e50"/><path d="m308.003 506.714c-16.792 3.465-34.185 5.286-52.003 5.286-126.032 0-230.792-91.074-252.057-211h104.006c18.259 102.971 98.073 184.671 200.054 205.714z" fill="#5e8745"/><path d="m223.798 470.33h-27.894c-4.142 0-7.5-3.358-7.5-7.5 0-4.142 3.358-7.5 7.5-7.5h27.894c4.142 0 7.5 3.358 7.5 7.5 0 4.142-3.358 7.5-7.5 7.5zm108.1-63.83c0-4.142-3.358-7.5-7.5-7.5h-27.894c-4.142 0-7.5 3.358-7.5 7.5 0 4.142 3.358 7.5 7.5 7.5h27.894c4.142 0 7.5-3.358 7.5-7.5zm-68.147-26.456c0-4.142-3.358-7.5-7.5-7.5h-18.902c-4.142 0-7.5 3.358-7.5 7.5 0 4.142 3.358 7.5 7.5 7.5h18.902c4.142 0 7.5-3.358 7.5-7.5zm33.902-61.281c0-4.142-3.358-7.5-7.5-7.5h-18.902c-4.142 0-7.5 3.358-7.5 7.5 0 4.142 3.358 7.5 7.5 7.5h18.902c4.142 0 7.5-3.358 7.5-7.5z" fill="#4f7139"/><path d="m198.908 345.007c1.741 3.759.104 8.217-3.654 9.957-1.02.473-2.092.696-3.146.696-2.832 0-5.542-1.612-6.811-4.351l-73.23-158.149c-.186.014-.373.021-.562.021s-.376-.007-.561-.021l-73.23 158.15c-1.74 3.758-6.198 5.396-9.957 3.654-3.759-1.74-5.395-6.198-3.654-9.957l79.902-172.56v-56.929c0-4.142 3.358-7.5 7.5-7.5s7.5 3.358 7.5 7.5v56.927zm287.046 0-79.904-172.56v-56.928c0-4.142-3.358-7.5-7.5-7.5s-7.5 3.358-7.5 7.5v56.928l-79.903 172.561c-1.741 3.759-.104 8.217 3.654 9.957 3.759 1.742 8.217.104 9.957-3.654l73.23-158.149c.185.014.373.021.562.021s.376-.007.562-.021l73.23 158.149c1.268 2.739 3.979 4.351 6.811 4.351 1.055 0 2.126-.224 3.146-.696 3.759-1.742 5.395-6.2 3.655-9.959z" fill="#f77026"/><path d="m320.516 414.594c-10.214-15.063-16.18-33.239-16.18-52.809 0-4.497.315-8.92.924-13.249h186.58c.609 4.329.924 8.752.924 13.249 0 19.57-5.967 37.746-16.18 52.809-9.243 13.632-24.745 21.682-41.215 21.682h-73.639c-16.469.001-31.97-8.05-41.214-21.682zm-245.83 21.683h73.639c16.47 0 31.972-8.05 41.215-21.682 10.213-15.063 16.18-33.239 16.18-52.809 0-4.497-.315-8.92-.924-13.249h-186.581c-.609 4.329-.924 8.752-.924 13.249 0 19.57 5.967 37.746 16.18 52.809 9.244 13.631 24.745 21.682 41.215 21.682z" fill="#ffb52d"/><path d="m435.37 436.277h-22.644c-16.47 0-31.971-8.051-41.215-21.682-10.214-15.063-16.18-33.239-16.18-52.809 0-4.497.315-8.92.924-13.249h135.585c.609 4.329.924 8.752.924 13.249 0 19.57-5.967 37.746-16.18 52.809-9.243 13.631-24.744 21.682-41.214 21.682zm-245.831-21.683c10.214-15.063 16.18-33.239 16.18-52.809 0-4.497-.315-8.92-.924-13.249h-135.585c-.609 4.329-.924 8.752-.924 13.249 0 19.57 5.967 37.746 16.18 52.809 9.243 13.632 24.745 21.682 41.215 21.682h22.644c16.47.001 31.971-8.05 41.214-21.682z" fill="#ffc14f"/><path d="m433.5 109.5c0 4.142-3.358 7.5-7.5 7.5h-162.5v.5c0 4.142-3.358 7.5-7.5 7.5s-7.5-3.358-7.5-7.5v-.5h-162.5c-4.142 0-7.5-3.358-7.5-7.5s3.358-7.5 7.5-7.5h162.5v-94.5c0-4.142 3.358-7.5 7.5-7.5s7.5 3.358 7.5 7.5v94.5h162.5c4.142 0 7.5 3.358 7.5 7.5z" fill="#ff883e"/><path d="m219.399 355.659h-211.899c-4.142 0-7.5-3.358-7.5-7.5s3.358-7.5 7.5-7.5h211.899c4.142 0 7.5 3.358 7.5 7.5s-3.357 7.5-7.5 7.5zm292.601-7.5c0-4.142-3.358-7.5-7.5-7.5h-211.899c-4.142 0-7.5 3.358-7.5 7.5s3.358 7.5 7.5 7.5h211.899c4.142 0 7.5-3.358 7.5-7.5zm-447.681 91.914c0-4.142 3.358-7.5 7.5-7.5h79.372c4.142 0 7.5 3.358 7.5 7.5 0 4.142-3.358 7.5-7.5 7.5h-79.372c-4.142 0-7.5-3.357-7.5-7.5zm294.545 7.5h79.372c4.142 0 7.5-3.358 7.5-7.5 0-4.142-3.358-7.5-7.5-7.5h-79.372c-4.142 0-7.5 3.358-7.5 7.5 0 4.143 3.358 7.5 7.5 7.5z" fill="#f29500"/><path d="m131.505 181.979c0 11.046-8.954 20-20 20s-20-8.954-20-20 8.954-20 20-20 20 8.954 20 20zm267.046-20c-11.046 0-20 8.954-20 20s8.954 20 20 20 20-8.954 20-20-8.955-20-20-20z" fill="#ffb52d"/><path d="m121.505 181.979c0 5.523-4.477 10-10 10s-10-4.477-10-10 4.477-10 10-10 10 4.477 10 10zm277.046-10c-5.523 0-10 4.477-10 10s4.477 10 10 10 10-4.477 10-10-4.478-10-10-10z" fill="#f29500"/><path d="m349.5 111.139c0 30.77-9.337 60.276-27.001 85.33-16.734 23.734-39.684 41.837-66.499 52.491-26.814-10.654-49.764-28.757-66.499-52.491-17.665-25.054-27.001-54.56-27.001-85.33 0-7.437.554-14.886 1.65-22.198l91.85-40.194 91.85 40.194c1.096 7.312 1.65 14.761 1.65 22.198z" fill="#2e5180"/><path d="m347.85 88.941c1.096 7.312 1.65 14.761 1.65 22.198 0 30.77-9.337 60.276-27.001 85.33-16.567 23.497-39.227 41.475-65.697 52.17-10.456-27.929-16.174-58.171-16.174-89.749 0-38.082 8.315-74.222 23.229-106.704z" fill="#376099"/><path d="m354.592 83.705-98.592-43.144-98.592 43.144c-1.583 8.906-2.408 18.074-2.408 27.434 0 66.753 41.991 123.697 101 145.861 59.009-22.164 101-79.108 101-145.861 0-9.36-.826-18.528-2.408-27.434zm-38.223 108.442c-15.312 21.718-36.099 38.468-60.369 48.709-24.27-10.241-45.057-26.991-60.369-48.709-16.768-23.782-25.631-51.794-25.631-81.008 0-5.69.341-11.387 1.018-17.016l84.982-37.189 84.982 37.189c.677 5.63 1.018 11.326 1.018 17.016 0 29.214-8.863 57.226-25.631 81.008z" fill="#5381c1"/><path d="m246.8 99v33.12c0 2.032-1.648 3.68-3.68 3.68h-29.44c-2.032 0-3.68-1.648-3.68-3.68v-20.853c0-13.549 10.984-24.533 24.533-24.533 6.775-.001 12.267 5.491 12.267 12.266zm-3.68 49.067h-29.44c-2.032 0-3.68 1.648-3.68 3.68v2.453c0 10.162 8.238 18.4 18.4 18.4 10.162 0 18.4-8.238 18.4-18.4v-2.453c0-2.033-1.648-3.68-3.68-3.68zm31.28-30.667c-5.081 0-9.2 4.119-9.2 9.2v36.187c0 2.032 1.648 3.68 3.68 3.68h29.44c2.032 0 3.68-1.648 3.68-3.68v-17.787c0-15.243-12.357-27.6-27.6-27.6zm23.92 61.333h-29.44c-2.032 0-3.68 1.647-3.68 3.68v2.453c0 10.162 8.238 18.4 18.4 18.4 10.162 0 18.4-8.238 18.4-18.4v-2.453c0-2.032-1.648-3.68-3.68-3.68z" fill="#fff"/></g></svg>