<svg id="Capa_1" enable-background="new 0 0 512 512" height="512" viewBox="0 0 512 512" width="512" xmlns="http://www.w3.org/2000/svg"><g><g><path d="m256 0c-141.385 0-256 114.615-256 256 0 27.997 4.51 54.937 12.816 80.152l52.971 91.168c5.933 6.583 12.202 12.857 18.782 18.794l91.394 53.106c25.183 8.283 52.083 12.78 80.037 12.78 141.385 0 256-114.615 256-256s-114.615-256-256-256z" fill="#ff4155"/></g><g><g><g><path d="m476.79 21.12-41.36 2.75c-3.18.21-6.18 1.57-8.44 3.83l-156.68 156.68c-5.93 5.93-15.54 5.93-21.46 0l-3.58-3.57c-6.1-6.1-16.09-5.92-21.97.53-5.49 6.04-4.96 15.45.81 21.23l3.28 3.27c5.92 5.93 5.92 15.54 0 21.46l-.05.05c-4.43 4.43-11.14 5.72-16.85 3.15-51.88-23.38-114.96-13.92-157.77 28.41-21.89 21.64-35.21 48.81-39.94 77.18 11.24 34.16 29.48 65.14 53.01 91.25-7.28-15.07-4.68-33.76 7.81-46.25 15.77-15.77 41.44-15.77 57.22 0 15.78 15.78 15.78 41.45 0 57.23-12.49 12.49-31.18 15.09-46.25 7.8 26.16 23.61 57.22 41.89 91.46 53.14 27.98-4.73 54.8-17.89 76.39-39.48 42.82-42.82 52.48-106.24 29-158.36-2.58-5.71-1.28-12.42 3.15-16.85l.04-.04c5.93-5.93 15.54-5.93 21.46 0l3.58 3.57c6.1 6.1 16.09 5.92 21.96-.53 5.5-6.04 4.97-15.45-.8-21.23l-3.28-3.27c-5.92-5.93-5.92-15.54 0-21.46l18.3-18.31c1.66-1.65 2.85-3.72 3.44-5.99l7.68-29.56c1.17-4.51 4.64-8.07 9.11-9.35l12.84-3.68c5.2-1.49 8.95-6 9.47-11.39l.33-3.33c.59-6.09 5.29-10.97 11.35-11.78l14.62-1.97c5.66-.76 10.18-5.07 11.2-10.69.97-5.32 5.09-9.5 10.4-10.55l.57-.12c5.52-1.09 9.74-5.58 10.49-11.16l2.11-15.75c.33-2.42 1.3-4.62 2.75-6.44 1.91-2.4 4.64-4.12 7.79-4.73l17.78-3.45c5.87-1.14 10.23-6.09 10.63-12.05l2.41-36.18c.53-7.95-6.07-14.54-14.01-14.01z" fill="#ffdd40"/></g></g><g><path d="m453.496 22.668 22.989-1.53-273.205 273.205c-2.963 2.963-7.767 2.963-10.73 0-2.963-2.963-2.963-7.767 0-10.73z" fill="#ffb332"/></g><g><path d="m214.01 315.803c-2.963-2.963-2.963-7.767 0-10.73l275.821-275.821c.74 1.797 1.104 3.787.965 5.876l-2.407 36.178c-.397 5.963-4.76 10.911-10.627 12.05l-17.779 3.45c-5.546 1.076-9.787 5.572-10.539 11.171l-2.115 15.754c-.749 5.582-4.966 10.068-10.491 11.162l-.632.125c-5.359 1.061-9.312 5.373-10.368 10.733-1.087 5.522-5.572 9.751-11.164 10.502l-14.624 1.964c-6.06.814-10.762 5.693-11.352 11.779l-.323 3.339c-.521 5.381-4.279 9.897-9.477 11.387l-12.835 3.679c-4.477 1.283-7.943 4.837-9.114 9.344l-7.68 29.561c-.59 2.27-1.775 4.34-3.433 5.999l-92.498 92.498c-10.861 10.86-28.468 10.86-39.328 0z" fill="#ffb332"/></g><g><path d="m62.86 370.359c-9.332 9.332-14.639 21.183-15.943 33.385 5.828 8.233 12.133 16.103 18.87 23.577-7.271-15.07-4.675-33.744 7.808-46.227 15.777-15.777 41.448-15.777 57.225 0s15.777 41.448 0 57.225c-12.49 12.49-31.177 15.082-46.251 7.796 7.472 6.742 15.339 13.052 23.569 18.886 12.213-1.298 24.076-6.606 33.417-15.947 21.696-21.696 21.696-56.999 0-78.695s-56.998-21.696-78.695 0z" fill="#ffb332"/></g></g></g></svg>