<svg id="Layer_1" enable-background="new 0 0 512 512" height="512" viewBox="0 0 512 512" width="512" xmlns="http://www.w3.org/2000/svg"><g><path d="m245.003 10.998c-134.105 0-243.025 107.749-244.957 241.394l25.839 113.297c40.244 80.234 123.242 135.312 219.118 135.312 135.31 0 245.002-109.691 245.002-245.002-.001-135.31-109.692-245.001-245.002-245.001z" fill="#49b1f7"/><path d="m321.049 218.251c1.009 5.688 4.215 10.808 8.974 14.273 4.175 3.041 8.177 7.938 8.177 15.536v23.803c0 11.859-9.517 21.57-21.375 21.691-.175.002-.351.003-.529.003h-30.994c-12.688 0-24.696-5.737-32.667-15.609l-3.204-3.968h-20.252v3.442c8.687 0 16.064 7.136 15.969 16.126 14.118 6.318 29.418 9.596 44.905 9.596h27.894c17.574 0 31.821-14.247 31.821-31.821v-27.068c0-13.924 6.539-21.863 11.812-26.003h-40.531z" fill="#deeeff"/><path d="m299.178 219.491h-33.837c.362 4.012 1.213 8.334 2.736 13.004 8.3 25.436 25.558 38.499 33.642 44.045 3.117 2.139 7.337 1.645 9.933-1.102 2.337-2.474 2.798-6.199 1.087-9.139-10.899-18.722-13.209-36.907-13.561-46.808z" fill="#deeeff"/><path d="m262.836 219.491c-7.997 0-15.274 4.596-18.715 11.814-2.201 4.617-4.879 10.352-7.749 16.755h33.475l7.463-28.569z" fill="#876d93"/><path d="m464.068 119.542h-11.006c-2.306 0-4.487 1.049-5.927 2.85l-16.842 21.063h37.342v-20.345c0-1.971-1.597-3.568-3.567-3.568z" fill="#bec8f7"/><path d="m174.131 163.33c.605-1.262 1.294-2.464 2.025-3.632l-18.059-14.336c-4.566-3.625-10.969-3.829-15.757-.503-6.448 4.479-7.591 13.56-2.456 19.498l20.98 24.258 2.684-3.206z" fill="#6c5475"/><path d="m498.732 176.715c-3.985 0-7.228-3.242-7.228-7.227v-22.84h-18.297c1.012 1.523 1.605 3.349 1.605 5.315v36.653 9.981c0 .375-.027.744-.069 1.108h30.652c3.648 0 6.605-2.957 6.605-6.605v-16.385z" fill="#d3dcfb"/><path d="m467.49 142.345h-159.977v47.866l64.179.699h105.414v-38.948c0-5.311-4.305-9.617-9.616-9.617z" fill="#deeeff"/><path d="m261.72 142.345.035.039c-2.337 3.113-4.373 8.85.497 14.151v19.77c-.514 1.125-1.892 4.667-.722 8.179.684 2.053 2.086 3.708 4.175 4.934-.018.099-.039.228-.058.338l44.161.48v-47.891z" fill="#937aa0"/><path d="m206.314 142.345c-14.222 0-27.183 8.16-33.33 20.985l-12.12 25.285 106.307 1.157c.131-.731.23-1.157.23-1.157-8-3.767-3.648-11.967-3.648-11.967v-20.715c-6.692-6.692 0-13.588 0-13.588z" fill="#876d93"/><path d="m264.528 188.615c.367.283.754.554 1.177.802-.709 3.85-2.34 16.423 4.218 26.107 1.29 1.905 2.819 3.58 4.58 5.021h192.987c5.311 0 9.617-4.305 9.617-9.617v-22.313z" fill="#6c5475"/><path d="m160.863 188.615-4.969 18.069-42.124 172.523c-3.474 14.227 7.3 27.948 21.945 27.948h56.64c13.124 0 23.484-11.117 22.589-24.21-1.78-26.039-2.978-66.661 4.426-88.68 7.598-22.594 18.982-47.596 25.805-61.907 3.441-7.218 10.718-11.814 18.715-11.814h13.153c-14.839-10.135-9.642-31.93-9.642-31.93h-106.538z" fill="#56415e"/><path d="m80.11 248.204c-3.321 2.637-7.437 4.073-11.677 4.073l-68.387.115c-.018 1.202-.046 2.402-.046 3.608 0 39.436 9.332 76.687 25.885 109.689l49.671-.039c3.297 0 6.576 1.153 10.243 2.837-46.135-52.99-5.689-120.283-5.689-120.283z" fill="#ffaa7b"/><path d="m295.578 240.319-138.345.001c-4.604 0-8.016-4.275-6.995-8.764l5.657-24.87c-7.309 2.011-14.062 3.685-19.408 4.928-.07.017-.14.033-.21.05-9.859 2.315-18.857 7.306-26.227 14.2-6.011 4.121-15.189 10.923-29.939 22.343-.869.69-1.795 1.293-2.761 1.815-2.988 5.615-9.794 19.803-13.198 38.177-3.914 21.123-3.743 51.71 18.543 78.972 10.584 4.026 23.689 14.678 51.018 14.678h79.601c9.288 0 16.888-7.6 16.888-16.888v-1.606c0-9.289-7.599-16.888-16.888-16.888h11.364c9.027 0 16.954-6.573 18.029-15.536 1.281-10.682-7.122-19.846-17.562-19.846h3.568c9.026 0 16.952-6.571 18.029-15.533 1.283-10.682-7.12-19.849-17.561-19.849h65.931c9.027 0 16.954-6.573 18.029-15.535 1.28-10.684-7.124-19.849-17.563-19.849z" fill="#ffc7ab"/><path d="m280.373 259.404v-1.756c0-7.041 5.761-12.801 12.801-12.801h8.544c7.041 0 12.801 5.761 12.801 12.801v1.756c0 7.041-5.76 12.801-12.801 12.801h-8.544c-7.04.001-12.801-5.76-12.801-12.801z" fill="#fce4d9"/><path d="m450.147 172.746h-19.885c-3.696 0-6.692-2.996-6.692-6.692 0-3.696 2.996-6.692 6.692-6.692h19.885c3.696 0 6.692 2.996 6.692 6.692 0 3.695-2.996 6.692-6.692 6.692z" fill="#bec8f7"/><g fill="#6c5475"><path d="m226.636 162.625v7.331c0 3.696-2.996 6.692-6.692 6.692-3.696 0-6.692-2.996-6.692-6.692v-7.331c0-3.696 2.996-6.692 6.692-6.692 3.696 0 6.692 2.996 6.692 6.692z"/><path d="m248.54 162.625v7.331c0 3.696-2.996 6.692-6.692 6.692-3.696 0-6.692-2.996-6.692-6.692v-7.331c0-3.696 2.996-6.692 6.692-6.692 3.696 0 6.692 2.996 6.692 6.692z"/><path d="m270.444 162.625v7.331c0 3.696-2.996 6.692-6.692 6.692-3.696 0-6.692-2.996-6.692-6.692v-7.331c0-3.696 2.996-6.692 6.692-6.692 3.696 0 6.692 2.996 6.692 6.692z"/></g><path d="m245.003 10.998c-111.579 0-205.71 74.596-235.303 176.632 31.088 14.362 77.898 7.856 103.414-45.285 34.589-72.037 145.411-41.653 214.411-41.653 37.229 0 53.138-22.936 59.901-44.058-40.137-28.724-89.303-45.636-142.423-45.636z" fill="#73c3f9"/><path d="m245.003 501.002c128.872 0 234.502-99.501 244.263-225.871-33.825-2.44-95.491-.099-114.74 45.829-27 64.422-84.566 114.422-186.783 114.422-38.266 0-58.338 13.735-68.479 30.92 36.757 22.03 79.765 34.7 125.739 34.7z" fill="#73c3f9"/><path d="m505.395 146.647h-15.391v22.84c0 4.82 3.908 8.728 8.728 8.728h13.268v-24.963c0-3.648-2.957-6.605-6.605-6.605z" fill="#deeeff"/></g></svg>