<svg id="Capa_1" enable-background="new 0 0 512 512" height="512" viewBox="0 0 512 512" width="512" xmlns="http://www.w3.org/2000/svg"><g><path d="m0 256c0-141.385 114.615-256 256-256s256 114.615 256 256c0 73.211-30.732 139.245-80 185.904-.733.695-4.633-.871-5.374-.185-.371.343-.743.685-1.115 1.026-45.524-41.615-102.972-64.745-169.511-64.745s-124.965 23.896-170.489 65.511c-.746-.682-1.487-1.367-2.225-2.058-.369-.345-2.919.798-3.286.451-49.268-46.659-80-112.693-80-185.904z" fill="#54469d"/><path d="m473.798 262.202c0 120.287-97.512 217.798-217.798 217.798s-217.798-97.511-217.798-217.798 97.512-217.798 217.798-217.798 217.798 97.512 217.798 217.798z" fill="#6354b2"/><path d="m502 80c0 8.284-6.716 15-15 15h-462c-8.284 0-15-6.716-15-15s6.716-15 15-15h462c8.284 0 15 6.716 15 15z" fill="#ad5e2e"/><path d="m462 65v30c0 8.284-6.716 15-15 15h-382c-8.284 0-15-6.716-15-15v-30c0-8.284 6.716-15 15-15h382c8.284 0 15 6.716 15 15z" fill="#d97f4a"/><path d="m406.784 234.24 22.866 14.291c1.462.914 2.35 2.516 2.35 4.24v189.133c-45.877 43.448-107.827 70.096-176 70.096-50.851 0-98.24-14.827-138.078-40.393-.9-.577-1.796-7.188-2.688-7.776-2.71-1.787-5.384-3.625-8.021-5.511v-388.32h309.787c8.284 0 15 6.716 15 15v122.229c0 1.724-.888 3.326-2.35 4.24l-22.866 14.291c-3.133 1.958-3.133 6.522 0 8.48z" fill="#ffcd6b"/><path d="m117.921 70v401.607c-13.57-8.709-26.265-18.664-37.921-29.703v-29.833c0-1.326.527-2.598 1.464-3.536l15-15c1.953-1.953 1.953-5.118 0-7.071l-15-15c-.938-.938-1.464-2.209-1.464-3.536v-282.928c0-8.284 6.716-15 15-15z" fill="#ffc143"/><path d="m446 45v70c0 8.284-6.716 15-15 15h-350c-8.284 0-15-6.716-15-15v-70c0-8.284 6.716-15 15-15h350c8.284 0 15 6.716 15 15z" fill="#fff587"/><path d="m446 45v40c0 8.284-6.716 15-15 15h-300.766c-8.284 0-15-6.716-15-15v-40c0-8.284 6.716-15 15-15h300.766c8.284 0 15 6.716 15 15z" fill="#fff69a"/><path d="m293.921 262.5c0-4.142 3.358-7.5 7.5-7.5h90.83c4.142 0 7.5 3.358 7.5 7.5s-3.358 7.5-7.5 7.5h-90.83c-4.142 0-7.5-3.358-7.5-7.5zm91.997 22.5h-78.164c-4.142 0-7.5 3.358-7.5 7.5s3.358 7.5 7.5 7.5h78.164c4.142 0 7.5-3.358 7.5-7.5s-3.357-7.5-7.5-7.5zm6.333 30h-90.83c-4.142 0-7.5 3.358-7.5 7.5s3.358 7.5 7.5 7.5h90.83c4.142 0 7.5-3.358 7.5-7.5s-3.358-7.5-7.5-7.5zm-27.293 40h-217.916c-4.142 0-7.5 3.358-7.5 7.5s3.358 7.5 7.5 7.5h217.915c4.142 0 7.5-3.358 7.5-7.5s-3.357-7.5-7.499-7.5zm0 30h-217.916c-4.142 0-7.5 3.358-7.5 7.5s3.358 7.5 7.5 7.5h217.915c4.142 0 7.5-3.358 7.5-7.5.001-4.142-3.357-7.5-7.499-7.5zm-9.187 30h-199.542c-4.142 0-7.5 3.358-7.5 7.5s3.358 7.5 7.5 7.5h199.542c4.142 0 7.5-3.358 7.5-7.5s-3.358-7.5-7.5-7.5zm-20.302 30h-158.938c-4.142 0-7.5 3.358-7.5 7.5s3.358 7.5 7.5 7.5h158.938c4.142 0 7.5-3.358 7.5-7.5s-3.358-7.5-7.5-7.5z" fill="#ffb509"/><path d="m399.751 172.5c0 4.142-3.358 7.5-7.5 7.5h-90.83c-4.142 0-7.5-3.358-7.5-7.5s3.358-7.5 7.5-7.5h90.83c4.142 0 7.5 3.358 7.5 7.5zm-16.985 22.5h-71.859c-4.142 0-7.5 3.358-7.5 7.5s3.358 7.5 7.5 7.5h71.859c4.142 0 7.5-3.358 7.5-7.5s-3.358-7.5-7.5-7.5z" fill="#d97f4a"/><path d="m270 170v150c0 5.523-4.477 10-10 10h-37.557l-2.889-1.766h-6.255l-3.752 1.766h-73.077l-2.875-1.809h-5.787l-4.234 1.809h-3.574c-5.523 0-10-4.477-10-10v-150c0-5.523 4.477-10 10-10h140c5.523 0 10 4.477 10 10z" fill="#ff4fb8"/><path d="m263.466 217.271c-.807 5.496-5.674 9.34-11.095 8.979l-17.63-1.175c-3.479-.232-6.218 2.923-5.499 6.335 1.767 8.39 2.658 16.941 2.658 25.515 0 8.515-3.094 16.306-8.22 22.312-.803.941-1.237 2.142-1.237 3.379v47.384h-12.896l-4.559-34.191c-.365-2.733-2.774-4.705-5.527-4.551-.645.036-1.296.055-1.95.055h-50.135c-2.572 0-4.767 1.86-5.19 4.397l-5.716 34.29h-12.896v-47.213h-8.34v-10.202c0-12.203 9.893-22.096 22.096-22.096h.563c5.648-4.066 12.579-6.462 20.07-6.462h28.083c2.3 0 4.333-1.493 5.021-3.687l5.584-17.806 3.556-16.002c1.248-5.615 4.782-10.031 9.34-12.602v-12.234c0-1.185.964-2.149 2.148-2.149 4.996 0 9.196 3.409 10.4 8.028l18.08-31.563c.916-1.598 2.735-2.537 4.544-2.19 2.561.491 4.027 3.016 3.351 5.391l-10.91 38.309 19.747 8.463c4.437 1.903 7.261 6.51 6.559 11.286z" fill="#ffc7e8"/><path d="m477.331 222.243-6.391-11.686c-.406-.743-1.473-.743-1.879 0l-6.391 11.686c-.098.18-.246.327-.426.426l-11.686 6.391c-.743.406-.743 1.473 0 1.879l11.686 6.391c.18.098.327.246.426.426l6.391 11.686c.406.743 1.473.743 1.879 0l6.391-11.686c.098-.18.246-.327.426-.426l11.686-6.391c.743-.406.743-1.473 0-1.879l-11.686-6.391c-.18-.098-.328-.246-.426-.426zm-319.253-30-6.391-11.686c-.406-.743-1.473-.743-1.879 0l-6.391 11.686c-.098.18-.246.327-.426.426l-11.686 6.391c-.743.406-.743 1.473 0 1.879l11.686 6.391c.18.098.327.246.426.426l6.391 11.686c.406.743 1.473.743 1.879 0l6.391-11.686c.098-.18.246-.327.426-.426l11.686-6.391c.743-.406.743-1.473 0-1.879l-11.686-6.391c-.18-.098-.328-.246-.426-.426zm105.388 25.028c-.807 5.496-5.674 9.34-11.095 8.979l-17.63-1.175c-3.479-.232-6.218 2.923-5.499 6.335 1.767 8.39 2.658 16.941 2.658 25.515 0 8.515-3.094 16.306-8.22 22.312-.803.941-1.237 2.142-1.237 3.379v47.384h-12.896l-4.559-34.191c-.365-2.733-2.774-4.705-5.527-4.551-.645.036-1.296.055-1.95.055h-50.135c-.816 0-1.593.187-2.289.524-5.249-9.953-4.683-21.329 1.445-28.666 4.951-5.927 13.656-9.367 21.191-7.83 11.256 2.296 15.693 14.841 25.745 13.534 1.259-.164 2.788-.382 4.127-1.534 4.345-3.734-1.37-11.21 1.787-19.915 3.258-8.983 9.308-8.725 10.597-16.25 1.51-8.821-5.894-14.836-2.852-18.388 2.688-3.139 8.663.402 12.936-3.745 2.484-2.41 2.885-5.657 3.064-6.808 1.22-7.862 10.078-34.12 18.522-47.782.895-.582 1.984-.837 3.069-.629 2.561.491 4.027 3.016 3.351 5.391l-10.91 38.309 19.747 8.463c4.438 1.901 7.262 6.508 6.56 11.284z" fill="#f9f5f3"/></g></svg>