<svg id="Capa_1" enable-background="new 0 0 512 512" height="512" viewBox="0 0 512 512" width="512" xmlns="http://www.w3.org/2000/svg"><g><g><path d="m466 393.247c22.214-36.871 35-80.064 35-126.247 0-135.31-109.69-245-245-245s-245 109.69-245 245c0 46.183 12.786 89.376 35 126.247z" fill="#1c2e7a"/></g><g><path d="m446.596 190.892-190.596-89.737-190.596 89.737c-11.845 5.577-19.404 17.491-19.404 30.583l49.437 113.06h321.127l49.436-113.06c0-13.092-7.559-25.006-19.404-30.583z" fill="#dae2fe"/></g><g><g><path d="m256 52c-104.766 0-190 85.234-190 190v163.846h30l4-163.846c0-88.365 67.634-141.426 156-141.426 88.365 0 154 53.061 154 141.426l6 163.846h30v-163.846c0-104.766-85.234-190-190-190z" fill="#ff4155"/></g><g><path d="m96.774 167.788c-6.29-3.631-9.02-11.041-7.009-17.706-15.132 27.256-23.765 58.596-23.765 91.918v163.846h30v-163.846c0-28.016 7.209-54.345 19.86-77.248-4.741 5.289-12.689 6.729-19.086 3.036z" fill="#e80054"/></g><g><path d="m256 82c-88.366 0-160 71.634-160 160v163.846h30l4-163.846c0-71.682 54.318-116.962 126-116.962s124 45.28 124 116.962l6 163.846h30v-163.846c0-88.366-71.634-160-160-160z" fill="#ffb332"/></g><g><path d="m256 112c-71.682 0-130 58.318-130 130v163.846h30l5-163.846c0-55.14 39.86-91.333 95-91.333s94 37.193 94 92.333l6 162.846h30v-163.846c0-71.682-58.318-130-130-130z" fill="#ffdd40"/></g><g><path d="m256 142c-55.14 0-100 44.86-100 100v163.846h30l6-163.846c0-38.598 24.798-64.538 63.396-64.538s65.604 25.94 65.604 64.538l5 163.846h30v-163.846c0-55.14-44.86-100-100-100z" fill="#8ddd16"/></g><g><path d="m256 172c-38.598 0-70 31.402-70 70v163.846h30v-163.846c0-22.056 17.944-40 40-40s40 17.944 40 40v163.846h30v-163.846c0-38.598-31.402-70-70-70z" fill="#b74bd1"/></g><g><path d="m122.755 182.788c-6.367-3.676-9.095-11.226-6.94-17.954-12.624 22.883-19.815 49.183-19.815 77.166v163.846h30v-163.846c0-22.619 5.812-43.905 16.013-62.45-4.719 5.452-12.782 6.977-19.258 3.238z" fill="#ff9100"/></g><g><path d="m148.735 197.788c-6.302-3.638-9.032-11.07-6.999-17.744-10.032 18.428-15.736 39.538-15.736 61.956v163.846h30v-163.846c0-17.164 4.351-33.331 12.002-47.46-4.718 5.46-12.787 6.989-19.267 3.248z" fill="#ffb332"/></g><g><path d="m174.716 212.788c-6.267-3.618-8.999-10.988-7.029-17.634-7.448 13.984-11.687 29.927-11.687 46.846v163.846h30v-163.846c0-11.749 2.923-22.824 8.06-32.557-4.706 5.536-12.827 7.107-19.344 3.345z" fill="#66c60a"/></g><g><path d="m200.698 227.786c-6.232-3.598-8.966-10.907-7.058-17.524-4.872 9.534-7.64 20.316-7.64 31.738v163.846h30v-163.846c0-6.339 1.488-12.334 4.124-17.665-4.691 5.619-12.869 7.236-19.426 3.451z" fill="#a934c4"/></g><g><path d="m415.226 167.788c6.29-3.631 9.02-11.041 7.009-17.706 15.132 27.256 23.765 58.596 23.765 91.918v163.846h-30v-163.846c0-28.016-7.209-54.345-19.861-77.248 4.742 5.289 12.69 6.729 19.087 3.036z" fill="#e80054"/></g><g><path d="m389.245 182.788c6.367-3.676 9.095-11.226 6.94-17.954 12.624 22.883 19.815 49.183 19.815 77.166v163.846h-30v-163.846c0-22.619-5.812-43.905-16.013-62.45 4.719 5.452 12.782 6.977 19.258 3.238z" fill="#ff9100"/></g><g><path d="m363.265 197.788c6.302-3.638 9.032-11.07 6.999-17.744 10.032 18.428 15.736 39.538 15.736 61.956v163.846h-30v-163.846c0-17.164-4.351-33.331-12.002-47.46 4.718 5.46 12.787 6.989 19.267 3.248z" fill="#ffb332"/></g><g><path d="m337.284 212.788c6.267-3.618 8.999-10.988 7.029-17.634 7.448 13.984 11.687 29.927 11.687 46.846v163.846h-30v-163.846c0-11.749-2.923-22.824-8.06-32.557 4.706 5.536 12.827 7.107 19.344 3.345z" fill="#66c60a"/></g><g><path d="m311.302 227.786c6.232-3.598 8.966-10.907 7.058-17.524 4.873 9.535 7.64 20.316 7.64 31.738v163.846h-30v-163.846c0-6.339-1.488-12.334-4.124-17.665 4.691 5.619 12.869 7.236 19.426 3.451z" fill="#a934c4"/></g></g><g><path d="m318.46 4.239c-34.517-15.341-62.46 15.889-62.46 15.889s-27.943-31.23-62.46-15.889c-34.518 15.341-34.518 66.295-3.835 100.265 18.904 20.929 39.68 34.579 52.845 41.975 8.356 4.694 18.544 4.694 26.9 0 13.165-7.396 33.941-21.045 52.845-41.975 30.683-33.969 30.683-84.924-3.835-100.265z" fill="#fc9ae9"/></g><g><path d="m269.45 146.479c-20.161-26.032-36.702-99.792-13.45-126.351 0 0-27.943-31.23-62.46-15.889s-34.517 66.295-3.835 100.265c18.904 20.929 39.68 34.579 52.845 41.975 8.356 4.694 18.544 4.694 26.9 0z" fill="#fc70db"/></g><g><path d="m443.804 424.323c8.172-9.743 15.601-20.129 22.196-31.076v-171.772l-210 115.032-210-115.032v171.772c6.595 10.947 14.025 21.333 22.196 31.076z" fill="#e9efff"/></g><g><path d="m256 336.507-42.519-23.291-167.481 80.031c6.595 10.947 14.025 21.333 22.196 31.076h375.607c8.172-9.743 15.601-20.129 22.196-31.076l-167.481-80.031z" fill="#dae2fe"/></g><g><g><path d="m461.052 65.774c-10.861-6.476-19.941-15.556-26.417-26.417-1.82-3.052-5.082-4.948-8.635-4.948-3.553 0-6.816 1.896-8.635 4.948-6.476 10.861-15.556 19.941-26.417 26.417-3.052 1.82-4.948 5.082-4.948 8.635 0 3.553 1.896 6.816 4.948 8.635 10.861 6.476 19.94 15.556 26.416 26.416 1.82 3.052 5.082 4.948 8.635 4.948 3.553 0 6.816-1.896 8.635-4.948 6.476-10.861 15.556-19.94 26.417-26.416 3.052-1.82 4.948-5.082 4.948-8.635.001-3.553-1.896-6.816-4.947-8.635z" fill="#ffdd40"/></g><g><path d="m426 74.409c0-11.472 4.837-21.808 12.573-29.102-1.401-1.917-2.716-3.901-3.938-5.95-1.82-3.052-5.082-4.948-8.635-4.948s-6.816 1.896-8.635 4.948c-6.476 10.861-15.556 19.941-26.417 26.417-3.052 1.82-4.948 5.082-4.948 8.635 0 3.553 1.896 6.816 4.948 8.635 10.861 6.476 19.94 15.556 26.417 26.416 1.82 3.052 5.082 4.948 8.635 4.948 3.553 0 6.816-1.896 8.635-4.948 1.222-2.049 2.536-4.034 3.938-5.95-7.736-7.293-12.573-17.629-12.573-29.101z" fill="#ffb332"/></g></g><g><g><path d="m121.052 65.774c-10.861-6.476-19.941-15.556-26.417-26.417-1.82-3.052-5.082-4.948-8.635-4.948-3.553 0-6.816 1.896-8.635 4.948-6.476 10.861-15.556 19.941-26.417 26.417-3.051 1.819-4.948 5.082-4.948 8.635 0 3.553 1.896 6.816 4.948 8.635 10.861 6.476 19.94 15.556 26.417 26.416 1.82 3.052 5.082 4.948 8.635 4.948 3.553 0 6.816-1.896 8.635-4.948 6.476-10.861 15.556-19.94 26.416-26.416 3.052-1.82 4.948-5.082 4.948-8.635.001-3.553-1.895-6.816-4.947-8.635z" fill="#ffdd40"/></g><g><path d="m86 74.409c0-11.472 4.837-21.808 12.573-29.102-1.401-1.917-2.716-3.901-3.938-5.95-1.82-3.052-5.082-4.948-8.635-4.948s-6.816 1.896-8.635 4.948c-6.476 10.861-15.556 19.941-26.417 26.417-3.052 1.819-4.948 5.082-4.948 8.635 0 3.553 1.896 6.816 4.948 8.635 10.861 6.476 19.94 15.556 26.417 26.416 1.82 3.052 5.082 4.948 8.635 4.948 3.553 0 6.816-1.896 8.635-4.948 1.222-2.049 2.536-4.034 3.938-5.95-7.736-7.293-12.573-17.629-12.573-29.101z" fill="#ffb332"/></g></g><g><path d="m443.802 424.323-163.506-125.014c-14.341-10.965-34.25-10.965-48.591 0l-163.507 125.014c44.943 53.593 112.387 87.677 187.802 87.677s142.859-34.084 187.802-87.677z" fill="#e9efff"/></g><g><path d="m356 461.542h-200c-33.137 0-60-26.863-60-60 0-33.137 26.863-60 60-60h200c33.137 0 60 26.863 60 60 0 33.137-26.863 60-60 60z" fill="#fc9ae9"/></g><g><path d="m202.777 401.542c0-33.137 26.863-60 60-60h-106.777c-33.137 0-60 26.863-60 60 0 33.137 26.863 60 60 60h106.777c-33.137 0-60-26.863-60-60z" fill="#fc70db"/></g><g fill="#fff"><path d="m256.564 369.042c-4.142 0-7.5 3.358-7.5 7.5v50c0 4.142 3.358 7.5 7.5 7.5s7.5-3.358 7.5-7.5v-50c0-4.142-3.357-7.5-7.5-7.5z"/><path d="m362.777 418.814h-13.376v-9.771h11.836c4.142 0 7.5-3.358 7.5-7.5s-3.358-7.5-7.5-7.5h-11.836v-9.772h13.376c4.142 0 7.5-3.358 7.5-7.5s-3.358-7.5-7.5-7.5h-20.876c-4.142 0-7.5 3.358-7.5 7.5v49.543c0 4.142 3.358 7.5 7.5 7.5h20.876c4.142 0 7.5-3.358 7.5-7.5s-3.358-7.5-7.5-7.5z"/><path d="m297.307 369.782h-13.742c-1.992 0-3.902.792-5.309 2.202s-2.195 3.321-2.191 5.313v.034.001 47.683c0 .458.048.905.126 1.341.133 1.794.9 3.489 2.184 4.766 1.406 1.397 3.307 2.181 5.288 2.181h.028c.416-.001 10.224-.039 14.148-.108 15.391-.269 26.561-13.581 26.561-31.652.001-18.998-10.887-31.761-27.093-31.761zm.27 48.415c-1.508.027-3.981.049-6.429.065l-.068-33.48h6.227c11.222 0 12.094 12.829 12.094 16.761 0 8.186-3.656 16.511-11.824 16.654z"/><path d="m237.064 389.537c0-11.3-9.523-20.494-21.229-20.494h-13.287c-4.14 0-7.498 3.355-7.5 7.495l-.017 26.046v.002.002 23.954c0 4.142 3.358 7.5 7.5 7.5s7.5-3.358 7.5-7.5v-10.842l13.903 15.797c1.482 1.685 3.552 2.545 5.633 2.545 1.76 0 3.527-.616 4.952-1.87 3.109-2.736 3.412-7.476.675-10.585l-11.475-13.038c7.81-3.029 13.345-10.402 13.345-19.012zm-27.021-5.495h5.792c3.377 0 6.229 2.516 6.229 5.494 0 2.979-2.853 5.495-6.229 5.495-1.377 0-3.578.008-5.798.018z"/><path d="m163.146 369.042h-13.922c-1.993 0-3.905.793-5.312 2.205s-2.195 3.326-2.188 5.319v49.976c0 4.142 3.358 7.5 7.5 7.5s7.5-3.358 7.5-7.5v-14.259c2.431-.012 4.901-.022 6.422-.022 12.068 0 21.886-9.694 21.886-21.61s-9.819-21.609-21.886-21.609zm0 28.22c-1.511 0-3.951.009-6.366.021-.012-2.514-.022-5.071-.022-6.631 0-1.333-.006-3.971-.013-6.61h6.4c3.733 0 6.886 3.027 6.886 6.61s-3.153 6.61-6.885 6.61z"/></g></g></svg>