<svg id="Capa_1" enable-background="new 0 0 512 512" height="512" viewBox="0 0 512 512" width="512" xmlns="http://www.w3.org/2000/svg"><g><circle cx="256" cy="256" fill="#ffce3c" r="256"/><g><path d="m245.989 137.142h19.539v19.539h-19.539z" fill="#ff8155"/><path d="m265.527 156.681h19.539v19.539h-19.539z" fill="#ff8155"/><path d="m226.778 196.392v97.693h-39.078v-97.693h-39.077v97.693h19.539v19.539h19.538v19.538h39.078v-19.538h19.538v-19.539h19.539v-97.693z" fill="#ff4760"/><g fill="#ff8155"><path d="m226.45 58.988h19.539v78.154h-19.539z"/><path d="m304.604 58.988h19.539v78.154h-19.539z"/><path d="m285.066 137.142h19.539v19.539h-19.539z"/><path d="m148.296 78.527v97.693h58.615v-19.539h-39.077v-39.077h39.077v-19.539h-39.077v-19.538z"/><path d="m167.834 58.988h39.077v19.539h-39.077z"/><path d="m343.682 78.527v97.693h58.615v-19.539h-39.077v-39.077h39.077v-19.539h-39.077v-19.538z"/><path d="m363.22 58.988h39.077v19.539h-39.077z"/><path d="m89.662 156.681v-97.693h-19.539v117.232h58.616v-19.539z"/><path d="m441.374 156.681v-97.693h-19.538v117.232h58.616v-19.539z"/></g><g fill="#ff4760"><path d="m324.471 235.47h39.077v-39.078h-78.155v136.77h19.539l19.539.001v-39.078h39.077v-19.538h-39.077z"/><path d="m363.548 235.47h19.539v39.077h-19.539z"/></g></g><g fill="#3ad99e"><path d="m461.241 333.163v-19.539h-19.539v-19.539h-19.539v-19.538h-19.538v19.538h-19.539v19.539h-19.538v19.539h-19.539v19.538h39.077v58.616h58.616v-58.616h39.077v-19.538z"/><path d="m304.847 424.944v-19.539h-19.539v-19.538h-19.539v-19.539h-19.538v19.539h-19.539v19.538h-19.538v19.539h-19.539v19.538h39.077v58.616h58.616v-58.616h39.077v-19.538z"/><path d="m148.623 333.163v-19.539h-19.539v-19.539h-19.538v-19.538h-19.539v19.538h-19.538v19.539h-19.539v19.539h-19.539v19.538h39.078v58.616h58.615v-58.616h39.078v-19.538z"/></g></g></svg>