<svg id="Capa_1" enable-background="new 0 0 512 512" height="512" viewBox="0 0 512 512" width="512" xmlns="http://www.w3.org/2000/svg"><g><circle cx="256" cy="256" fill="#9be69d" r="256"/><g fill="#fff"><path d="m100.191 412.987c-2.657 0-5.308-1.052-7.274-3.137-39.412-41.763-61.117-96.401-61.117-153.85 0-18.224 2.194-36.355 6.521-53.889 1.324-5.361 6.741-8.635 12.104-7.313 5.362 1.323 8.637 6.743 7.313 12.105-3.94 15.968-5.938 32.486-5.938 49.097 0 52.324 19.768 102.087 55.662 140.124 3.791 4.017 3.607 10.346-.409 14.136-1.932 1.823-4.4 2.727-6.862 2.727z"/><path d="m256 480.2c-20.265 0-40.354-2.706-59.71-8.042-5.324-1.468-8.451-6.974-6.983-12.298s6.979-8.449 12.298-6.983c17.626 4.859 35.927 7.323 54.396 7.323 28.345 0 55.776-5.694 81.533-16.925 5.061-2.207 10.956.106 13.164 5.17 2.207 5.062-.107 10.956-5.17 13.163-28.295 12.337-58.416 18.592-89.528 18.592z"/><path d="m442.842 370.81c-1.66 0-3.342-.414-4.892-1.285-4.814-2.707-6.523-8.803-3.816-13.617 17.053-30.337 26.066-64.885 26.066-99.908 0-21.056-3.189-41.811-9.48-61.687-1.666-5.266 1.251-10.885 6.517-12.551 5.267-1.666 10.886 1.25 12.552 6.516 6.908 21.831 10.411 44.616 10.411 67.722 0 38.449-9.901 76.386-28.633 109.708-1.835 3.265-5.229 5.102-8.725 5.102z"/><path d="m364.879 81.504c-1.73 0-3.483-.449-5.081-1.395-31.313-18.52-67.205-28.309-103.798-28.309-29.291 0-57.562 6.067-84.026 18.031-5.03 2.277-10.956.04-13.231-4.992-2.274-5.033-.04-10.957 4.993-13.231 29.071-13.144 60.113-19.808 92.264-19.808 40.172 0 79.586 10.752 113.979 31.096 4.754 2.812 6.328 8.944 3.517 13.698-1.867 3.155-5.198 4.91-8.617 4.91z"/></g><g><path d="m434.279 393.127-1.942 1.941-1.942-1.941c-17.665-17.665-46.306-17.665-63.972 0-17.665 17.665-17.665 46.307 0 63.972l1.941 1.941 45.168 45.168c10.385 10.385 27.222 10.385 37.607 0l45.169-45.169 1.942-1.941c17.665-17.665 17.665-46.306 0-63.972-17.664-17.665-46.306-17.664-63.971.001z" fill="#fe646f"/><path d="m448.789 491.291c2.719 2.719 5.881 4.73 9.266 6.02l-6.908 6.908c-10.389 10.375-27.228 10.375-37.618 0l-45.163-45.177-1.942-1.942c-8.836-8.836-13.247-20.404-13.247-31.986 0-11.568 4.411-23.15 13.247-31.986 9.71-9.696 22.734-14.079 35.426-13.108-.069.069-.125.125-.181.181-8.822 8.836-13.247 20.418-13.247 31.986 0 11.582 4.425 23.15 13.247 31.986z" fill="#fd4755"/></g><g><g><path d="m113.478 48.786c-12.964 0-24.691 5.288-33.149 13.821-8.459-8.533-20.185-13.821-33.149-13.821-25.781 0-46.68 20.898-46.68 46.679v10.66c0 44.088 35.74 79.829 79.829 79.829 44.088 0 79.829-35.74 79.829-79.829v-10.66c-.001-25.78-20.9-46.679-46.68-46.679z" fill="#fe646f"/><path d="m105.265 181.972c-7.835 2.588-16.221 3.977-24.93 3.977-44.086 0-79.834-35.736-79.834-79.823v-10.661c0-12.89 5.223-24.559 13.669-33.017 8.458-8.446 20.126-13.669 33.017-13.669 9.165 0 17.718 2.648 24.918 7.224-2.923 1.845-5.631 4.013-8.062 6.445-8.446 8.458-13.669 20.126-13.669 33.017v10.662c-.001 35.377 23.012 65.374 54.891 75.845z" fill="#fd4755"/><path d="m80.356 74.633c-5.3 0-10.16-3.562-11.599-8.92-4.127-15.377-2.864-48.666 31.465-64.596 6.002-2.787 13.124-.177 15.91 5.824 2.784 6.002.177 13.125-5.825 15.91-24.025 11.149-19.032 34.156-18.384 36.742 1.715 6.39-2.087 12.915-8.477 14.63-1.032.277-2.07.41-3.09.41z" fill="#ce6a52"/></g><ellipse cx="48.532" cy="47.094" fill="#9be69d" rx="42.762" ry="24.693" transform="matrix(.707 -.707 .707 .707 -19.086 48.111)"/></g><g><path d="m356.949 309.54h-201.898c-28.313 0-51.265 22.952-51.265 51.265 0 28.313 22.952 51.265 51.265 51.265h201.898c28.313 0 51.265-22.952 51.265-51.265 0-28.313-22.952-51.265-51.265-51.265z" fill="#5c5860"/><path d="m256 55.195c-78.004 0-141.238 63.234-141.238 141.238v130.96h282.476v-130.96c0-78.004-63.234-141.238-141.238-141.238z" fill="#5c5860"/><path d="m305.16 63.99c-53.775 19.955-92.094 71.73-92.094 132.442v130.959h-98.304v-130.959c0-78 63.23-141.231 141.241-141.231 17.288.001 33.849 3.106 49.157 8.789z" fill="#413d44"/><path d="m360.225 347.697h-208.45c-33.263 0-60.228-26.965-60.228-60.228 0-20.8 16.862-37.662 37.662-37.662h253.58c20.8 0 37.662 16.862 37.662 37.662.002 33.263-26.963 60.228-60.226 60.228z" fill="#ffdfcf"/><path d="m151.775 327.392c-22.014 0-39.923-17.91-39.923-39.923 0-9.571 7.787-17.358 17.358-17.358h253.58c9.571 0 17.358 7.787 17.358 17.358 0 22.014-17.91 39.923-39.923 39.923z" fill="#ffcebf"/><path d="m372.768 222.282v85.313c0 32.248-13.068 61.436-34.196 82.572-14.344 14.344-32.394 24.973-52.6 30.317-9.551 2.534-19.585 3.879-29.929 3.888-64.711.026-116.811-53.29-116.811-117.992v-84.098c0-28.92 14.215-54.522 36.049-70.194 9.784-7.017 22.671-7.612 33.222-1.802 1.724.948 3.474 1.845 5.258 2.689 12.801 6.077 27.127 9.474 42.239 9.474 17.214 0 33.412-4.405 47.497-12.163 10.551-5.81 23.438-5.215 33.222 1.802 21.835 15.672 36.049 41.274 36.049 70.194z" fill="#ffdfcf"/><path d="m286.179 420.424c-.069.017-.138.034-.207.06-9.551 2.534-19.585 3.879-29.929 3.888-64.711.026-116.811-53.29-116.811-117.992v-84.098c0-28.92 14.215-54.522 36.049-70.194 9.784-7.017 22.671-7.612 33.222-1.802 1.724.948 3.474 1.845 5.258 2.689-9.06 16.576-14.197 35.592-14.197 55.807v98.812c0 54.067 36.739 99.547 86.615 112.83z" fill="#ffcebf"/><path d="m256 242.553v79.236c-6.689 0-12.103-5.422-12.103-12.103v-55.031c0-6.68 5.414-12.102 12.103-12.102z" fill="#ffcebf"/><g fill="#413d44"><path d="m336.037 258.295c11.749 0 21.308-9.559 21.308-21.308 0-2.614-2.119-4.732-4.732-4.732s-4.732 2.119-4.732 4.732c0 6.531-5.313 11.844-11.844 11.844-2.613 0-4.732 2.119-4.732 4.732s2.119 4.732 4.732 4.732z"/><path d="m319.252 255.573c11.749 0 21.308-9.559 21.308-21.308 0-2.614-2.119-4.732-4.732-4.732s-4.732 2.119-4.732 4.732c0 6.531-5.313 11.844-11.844 11.844-2.613 0-4.732 2.119-4.732 4.732s2.119 4.732 4.732 4.732z"/><path d="m177.431 258.295c-11.749 0-21.308-9.559-21.308-21.308 0-2.614 2.119-4.732 4.732-4.732s4.732 2.119 4.732 4.732c0 6.531 5.313 11.844 11.844 11.844 2.613 0 4.732 2.119 4.732 4.732s-2.119 4.732-4.732 4.732z"/><path d="m194.216 255.573c-11.749 0-21.308-9.559-21.308-21.308 0-2.614 2.119-4.732 4.732-4.732s4.732 2.119 4.732 4.732c0 6.531 5.313 11.844 11.844 11.844 2.613 0 4.732 2.119 4.732 4.732s-2.119 4.732-4.732 4.732z"/></g><path d="m240.842 270.111c0 6.937-2.04 13.396-5.574 18.821h-58.035c-3.533-5.424-5.574-11.884-5.574-18.821 0-19.099 15.487-34.586 34.586-34.586 19.11 0 34.597 15.486 34.597 34.586z" fill="#f9f7f8"/><path d="m189.007 270.111c0 6.937 2.05 13.406 5.564 18.821h-17.338c-3.533-5.414-5.574-11.874-5.574-18.821 0-19.109 15.477-34.586 34.586-34.586 2.996 0 5.902.378 8.679 1.095-14.909 3.851-25.917 17.377-25.917 33.491z" fill="#f9f7f8"/><path d="m340.34 270.111c0 6.937-2.04 13.396-5.574 18.821h-58.035c-3.533-5.424-5.574-11.884-5.574-18.821 0-19.099 15.487-34.586 34.596-34.586 19.101 0 34.587 15.486 34.587 34.586z" fill="#f9f7f8"/><path d="m288.516 270.111c0 6.937 2.05 13.406 5.564 18.821h-17.348c-3.533-5.414-5.574-11.874-5.574-18.821 0-19.109 15.487-34.586 34.586-34.586 3.006 0 5.912.378 8.689 1.095-14.909 3.851-25.917 17.377-25.917 33.491z" fill="#f9f7f8"/><circle cx="207.783" cy="265.801" fill="#5c5860" r="13.811"/><circle cx="304.217" cy="265.801" fill="#5c5860" r="13.811"/><path d="m285.82 351.803c-16.443 16.443-43.198 16.443-59.641 0-3.658-3.658-3.657-9.588 0-13.245s9.588-3.658 13.245 0c9.14 9.139 24.011 9.139 33.15 0 3.657-3.657 9.588-3.658 13.245 0s3.659 9.588.001 13.245z" fill="#ffcebf"/></g><g><path d="m43.617 431.981h99.683v36.648h-99.683z" fill="#f9f7f8"/><path d="m111.271 431.981h32.029v36.648h-32.029z" fill="#d2cfe9"/><path d="m43.617 452.61h99.683v16.019h-99.683z" fill="#d2cfe9"/><path d="m38.26 388.609h-13.835c-13.214 0-23.925 10.712-23.925 23.925v75.54c0 13.214 10.712 23.926 23.925 23.926h13.835c13.214 0 23.925-10.712 23.925-23.925v-75.54c0-13.214-10.711-23.926-23.925-23.926z" fill="#f9f7f8"/><path d="m158.738 388.609h-13.835c-13.214 0-23.925 10.712-23.925 23.925v75.54c0 13.214 10.712 23.925 23.925 23.925h13.835c13.214 0 23.925-10.712 23.925-23.925v-75.54c0-13.213-10.712-23.925-23.925-23.925z" fill="#f9f7f8"/><g fill="#d2cfe9"><path d="m62.187 452.441v35.633c0 13.213-10.713 23.926-23.926 23.926h-13.836c-13.213 0-23.925-10.713-23.925-23.926v-35.633c0 13.213 10.712 23.926 23.926 23.926h13.836c13.213 0 23.925-10.713 23.925-23.926z"/><path d="m182.663 452.441v35.633c0 13.213-10.712 23.926-23.926 23.926h-13.836c-13.213 0-23.926-10.713-23.926-23.926v-35.633c0 13.213 10.712 23.926 23.926 23.926h13.836c13.214 0 23.926-10.713 23.926-23.926z"/></g></g><path d="m449.876 84.693c-11.506-4.067-27.528-7.22-30.994-14.285-.251-.511-1.283-2.452-.696-5.569.281-1.493 1.572-6.477 6.378-7.925 11.467-3.453 18.751 2.219 19.543 2.877 7.668 6.364 19.049 5.32 25.419-2.345 6.369-7.663 5.333-19.03-2.327-25.404-4.873-4.055-11.479-7.755-19.283-10.021v-1.497c0-9.969-8.082-18.051-18.051-18.051s-18.051 8.082-18.051 18.051v2.619c-14.964 5.44-26.019 18.633-29.105 35.009-3.014 15.995 2.309 31.575 13.893 40.661 10.887 8.539 26.256 14.619 41.242 19.917 8.945 3.162 9.856 9.576 9.045 14.4-.903 5.373-5.53 14.488-17.142 14.566-12.06.077-14.881-.366-23.678-6.122-8.344-5.457-19.531-3.119-24.988 5.224-5.457 8.342-3.119 19.529 5.224 24.987 9.598 6.278 17.196 9.39 25.509 10.849v1.728c0 9.969 8.082 18.051 18.051 18.051s18.051-8.082 18.051-18.051v-3.767c17.756-6.417 31.291-21.946 34.576-41.481 4.07-24.215-9.037-46.086-32.616-54.421z" fill="#ffd15b"/></g></svg>