<svg id="Capa_1" enable-background="new 0 0 512 512" height="512" viewBox="0 0 512 512" width="512" xmlns="http://www.w3.org/2000/svg"><g><path d="m389.783 419.365v44.701c0 6.473-3.5 12.444-9.151 15.6-36.883 20.596-79.387 32.334-124.632 32.334-141.385 0-256-114.615-256-256 0-15.17 1.32-30.033 3.85-44.478 1.683-9.609 10.113-16.57 19.868-16.57 50.067 0 90.655-40.588 90.655-90.655v-54.239c0-4.627 2.363-8.95 6.288-11.399 38.988-24.329 84.997-38.46 134.293-38.657 140.607-.562 255.983 113.43 257.038 254.034.132 17.59-1.51 34.772-4.758 51.38-1.799 9.198-9.926 15.796-19.298 15.796-54.208.001-98.153 43.945-98.153 98.153z" fill="#1ab975"/><path d="m468.763 228.138c0 112.429-91.142 203.571-203.571 203.571s-203.572-91.141-203.572-203.571 91.142-203.571 203.571-203.571 203.572 91.142 203.572 203.571z" fill="#1ed688"/><path d="m100 58.65h180.407c5.82 0 11.351-2.948 14.262-7.988 3.456-5.984 9.923-10.012 17.331-10.012h88c11.046 0 20 8.954 20 20 0 11.044-8.952 19.998-19.995 20 11.044.002 19.995 8.956 19.995 20 0 11.044-8.952 19.998-19.995 20 11.044.002 19.995 8.956 19.995 20 0 11.046-8.954 20-20 20 11.288 0 20.391 9.351 19.987 20.729-.385 10.838-9.621 19.271-20.466 19.271h-69.933l9.241 52.408c2.177 12.346-4.187 22.893-14.853 26.59-2.639.915-7.976-.648-7.976-.648-5.585 0-9.349-3.351-10.319-8.851l-12.891-59.359c-2.054-11.648-12.174-20.14-24.001-20.14h-168.789z" fill="#b46e5a"/><path d="m323.975 279.647c-2.638.915-5.54 1.411-8.641 1.411-.44 0-.878-.028-1.313-.082-2.398-.298-13.837-28.245-13.837-28.245l-7.395-41.941c-2.054-11.648-12.174-20.14-24.001-20.14h-168.788v-19.196h177.126c16.062 0 29.805 11.532 32.594 27.35zm36.944-158.945h39.081c11.046 0 20-8.954 20-20h-59.08c-5.523 0-10 4.477-10 10s4.477 10 9.999 10zm0-40.571h39.081c11.046 0 20-8.954 20-20h-59.08c-5.523 0-10 4.477-10 10s4.477 10 9.999 10zm0 80.571h39.085c11.044-.002 19.995-8.956 19.995-20h-59.081c-5.523 0-10 4.477-10 10s4.479 10 10.001 10zm0 40h39.085c11.044-.002 19.995-8.956 19.995-20h-59.081c-5.523 0-10 4.477-10 10s4.479 10 10.001 10z" fill="#a65d4e"/><path d="m316 272.292c0 3.111-.711 6.057-1.979 8.684-5.089-.633-9.712-4.851-10.605-9.918l-3.232-18.327c9.037 1.924 15.816 9.951 15.816 19.561z" fill="#915041"/><path d="m412 458.326h-180.407c-5.82 0-11.351 2.948-14.262 7.988-3.456 5.984-9.923 10.012-17.331 10.012h-88c-11.046 0-20-8.954-20-20 0-11.044 8.952-19.998 19.995-20-11.044-.002-19.995-8.956-19.995-20 0-11.044 8.952-19.998 19.995-20-11.044-.002-19.995-8.956-19.995-20 0-11.046 8.954-20 20-20-11.288 0-20.391-9.351-19.987-20.729.385-10.838 9.621-19.271 20.466-19.271h69.933l-9.241-52.408c-2.715-15.4 7.857-28 23.495-28 .44 0 .878.028 1.313.082 1.421.177 13.837 28.245 13.837 28.245l7.395 41.941c2.054 11.648 12.174 20.14 24.001 20.14h168.788z" fill="#faa68e"/><path d="m211.815 264.245c-9.037-1.924-15.815-9.951-15.815-19.562 0-3.111.711-6.057 1.979-8.684 5.089.633 9.712 4.851 10.605 9.918z" fill="#d47f6c"/><path d="m223.952 438.53h188.048v19.796h-180.407c-5.82 0-11.351 2.948-14.262 7.988-3.456 5.984-9.923 10.012-17.331 10.012h-88c-11.046 0-20-8.954-20-20 0-.351.009-.699.027-1.045 2.263.808 4.711 1.249 7.267 1.249h91.727c7.721 0 14.462-4.027 18.065-10.012 3.034-5.039 8.799-7.988 14.866-7.988zm-62.871-92.204c0-5.523-4.477-10-10-10h-59.081c0 11.046 8.954 20 20 20h39.081c5.522 0 10-4.477 10-10zm0 40c0-5.523-4.477-10-10-10h-59.081c0 11.044 8.952 19.998 19.995 20h39.085c5.523 0 10.001-4.477 10.001-10zm0 40c0-5.523-4.477-10-10-10h-59.081c0 11.044 8.952 19.998 19.995 20h39.085c5.523 0 10.001-4.477 10.001-10z" fill="#e09380"/><path d="m297 430.489h72.043c2.761 0 5 1.867 5 4.171v30.183c0 2.303-2.239 4.171-5 4.171h-72.043c-2.761 0-5-1.867-5-4.171v-30.183c0-2.303 2.239-4.171 5-4.171zm-77-263.505v30.183c0 2.303-2.239 4.171-5 4.171h-72.043c-2.761 0-5-1.867-5-4.171v-30.183c0-2.303 2.239-4.171 5-4.171h72.043c2.761 0 5 1.867 5 4.171z" fill="#b4d2d7"/><path d="m297 315.638h77.043v122.892h-82.043v-117.892c0-2.761 2.239-5 5-5zm-77-262.676v118.492l-82.043-.6v-122.892h77.043c2.761 0 5 2.238 5 5z" fill="#e1ebf0"/><path d="m200.16 171.834c0 4.142-3.358 7.5-7.5 7.5s-7.5-3.358-7.5-7.5 3.358-7.5 7.5-7.5 7.5 3.358 7.5 7.5zm117.436 262.918c-4.142 0-7.5 3.358-7.5 7.5s3.358 7.5 7.5 7.5 7.5-3.358 7.5-7.5-3.358-7.5-7.5-7.5z" fill="#738c96"/><path d="m380.574 479.698h-31.502c-2.761 0-5-2.239-5-5v-164.744c0-2.761 2.239-5 5-5h158.252c-14.556 75.168-61.996 138.607-126.75 174.744z" fill="#eac23f"/><path d="m435.495 438.53c-16.32 16.051-34.784 29.93-54.921 41.168h-31.502c-2.761 0-5-2.239-5-5v-36.168z" fill="#e1b91e"/><path d="m121.309 38.256h41.619c2.099 0 3.896 1.293 4.637 3.127.336.29.363.589.363.894v165.723c0 .305-.027.604-.363.894-.741 1.833-2.538 3.127-4.637 3.127h-159.165c12.698-73.341 56.605-135.988 117.546-173.765z" fill="#f76c57"/><path d="m14.501 170.854 153.427.22v35.948c0 2.762-2.239 5-5 5h-159.165c2.451-14.155 6.064-27.912 10.738-41.168z" fill="#e5554e"/><path d="m451.734 242.104c0 2.762-2.239 5-5 5h-27.5c-2.761 0-5-2.238-5-5 0-2.761 2.239-5 5-5h27.5c2.761 0 5 2.239 5 5z" fill="#e5554e"/><path d="m114.374 279.243c0 2.762-2.239 5-5 5h-8.75v8.75c0 2.762-2.239 5-5 5s-5-2.238-5-5v-8.75h-8.75c-2.761 0-5-2.238-5-5 0-2.761 2.239-5 5-5h8.75v-8.75c0-2.761 2.239-5 5-5s5 2.239 5 5v8.75h8.75c2.761 0 5 2.238 5 5z" fill="#fff5f5"/></g></svg>