<svg id="Capa_1" enable-background="new 0 0 512 512" height="512" viewBox="0 0 512 512" width="512" xmlns="http://www.w3.org/2000/svg"><g><path d="m512 256c0 141.385-114.615 256-256 256s-256-114.615-256-256 114.615-256 256-256 256 114.615 256 256z" fill="#3342ae"/><path d="m454.406 223.594c0 91.679-74.321 166-166 166-2.819 0-5.622-.071-8.406-.21v60.797c0 22.091-17.909 40-40 40h-20v19.307c-108.88-15.323-195.768-99.139-215.692-206.473 4.818-2.057 10.122-3.196 15.692-3.196h120.904c-11.82-22.827-18.498-48.746-18.498-76.226 0-91.679 74.321-166 166-166s166 74.321 166 166.001z" fill="#2b3894"/><path d="m156.452 260v110.362c0 22.091-17.909 40-40 40h-76.452c-22.091 0-40-17.909-40-40v-110.362c0-22.091 17.909-40 40-40h76.452c22.092 0 40 17.909 40 40z" fill="#b4e7fd"/><path d="m300 260v110.362c0 22.091-17.909 40-40 40h-20v50l-75-50h-90.043c-22.091 0-40-17.909-40-40v-110.362c0-22.091 17.909-40 40-40h185.043c22.091 0 40 17.909 40 40z" fill="#d5f1fe"/><path d="m139.555 328.741-47.201 39.103c-3.47 2.875-8.494 2.875-11.964 0l-47.2-39.103c-15.122-12.527-17.592-34.786-5.586-50.324 13.425-17.374 39.056-19.01 54.582-3.485l4.187 4.187 4.187-4.187c15.526-15.526 41.156-13.89 54.582 3.485 12.005 15.538 9.535 37.797-5.587 50.324z" fill="#e5554e"/><path d="m139.555 328.741-15.218 12.607c-3.242.412-6.545.625-9.899.625-41.021 0-74.619-31.785-77.508-72.07 13.933-8.828 32.83-7.395 45.255 5.03l4.187 4.187 4.187-4.187c15.526-15.526 41.156-13.89 54.582 3.485 12.006 15.537 9.536 37.796-5.586 50.323z" fill="#f76c57"/><path d="m175.617 290c0-4.142 3.358-7.5 7.5-7.5h75c4.142 0 7.5 3.358 7.5 7.5s-3.358 7.5-7.5 7.5h-75c-4.142 0-7.5-3.358-7.5-7.5zm82.5 23.75h-75c-4.142 0-7.5 3.358-7.5 7.5s3.358 7.5 7.5 7.5h75c4.142 0 7.5-3.358 7.5-7.5s-3.358-7.5-7.5-7.5zm0 31.25h-75c-4.142 0-7.5 3.358-7.5 7.5s3.358 7.5 7.5 7.5h75c4.142 0 7.5-3.358 7.5-7.5s-3.358-7.5-7.5-7.5z" fill="#9bb9c3"/><path d="m512 166c0 91.679-74.321 166-166 166s-166-74.321-166-166 74.321-166 166-166 166 74.321 166 166z" fill="#e9cc5a"/><path d="m481.673 261.673c-30.057 42.545-79.62 70.327-135.673 70.327-91.679 0-166-74.321-166-166 0-56.053 27.782-105.616 70.327-135.673-19.103 27.042-30.327 60.046-30.327 95.673 0 91.679 74.321 166 166 166 35.627 0 68.631-11.224 95.673-30.327z" fill="#eac23f"/><path d="m379.851 227.494h-93.851v-100h93.851z" fill="#d5f1fe"/><path d="m316 122.494v110c0 5.523-4.477 10-10 10h-50c-5.523 0-10-4.477-10-10v-110c0-5.523 4.477-10 10-10h50c5.523 0 10 4.477 10 10z" fill="#1ed688"/><path d="m265.316 242.494h-9.316c-5.523 0-10-4.477-10-10v-110c0-5.523 4.477-10 10-10h9.316c-.618 1.425-.965 3.02-.965 4.703v120.594c0 1.683.347 3.278.965 4.703z" fill="#1ab975"/><path d="m291.851 125.568c4.142 0 7.5 3.358 7.5 7.5s-3.358 7.5-7.5 7.5-7.5-3.358-7.5-7.5 3.358-7.5 7.5-7.5z" fill="#127d4f"/><path d="m438.086 214.27c4.888 2.625 8.154 7.881 7.901 13.874-.342 8.099-7.31 14.35-15.417 14.35h-79.57c-8.284 0-15-6.716-15-15v-105h.004c.035-1.599.328-3.219.905-4.805l18.771-51.572c1.852-5.09 7.448-7.853 12.562-6.068 10.547 3.681 16.017 15.261 12.209 25.725l-10.922 30.009c-1.187 3.261 1.228 6.71 4.698 6.71h56.344c8.107 0 15.074 6.25 15.417 14.35.253 5.993-3.012 11.25-7.9 13.874-1.418.761-1.463 2.772-.043 3.529 4.734 2.522 7.957 7.508 7.957 13.247 0 5.74-3.224 10.727-7.96 13.249-1.4.745-1.4 2.757 0 3.502 4.736 2.522 7.96 7.509 7.96 13.249 0 5.739-3.223 10.725-7.957 13.247-1.422.757-1.377 2.769.041 3.53z" fill="#d47f6c"/><path d="m380.392 204.89c0-4.142 3.358-7.5 7.5-7.5h58.107c0 .035.001.069.001.104 0 5.739-3.223 10.725-7.957 13.247-.671.358-1.015.996-1.041 1.649h-49.11c-4.142 0-7.5-3.358-7.5-7.5zm-24.713-138.773-3.248 8.923c.736 1.413 1.925 2.603 3.48 3.328 3.754 1.75 8.216.126 9.967-3.628l6.049-12.972c-1.145-.683-2.376-1.263-3.686-1.72-5.113-1.783-10.709.98-12.562 6.069zm24.713 168.877c0 4.142 3.358 7.5 7.5 7.5h42.678c8.107 0 15.075-6.25 15.417-14.35.009-.218.013-.434.013-.65h-58.108c-4.142 0-7.5 3.358-7.5 7.5zm7.5-82.604h49.112c.041-.661.405-1.309 1.082-1.672 4.739-2.545 7.953-7.563 7.914-13.328h-58.108c-4.142 0-7.5 3.358-7.5 7.5s3.358 7.5 7.5 7.5zm0 30.128h49.099c-.008-.697.341-1.398 1.049-1.775 4.729-2.518 7.951-7.495 7.96-13.225h-58.108c-4.142 0-7.5 3.358-7.5 7.5s3.358 7.5 7.5 7.5z" fill="#b2705b"/></g></svg>