<svg id="Capa_1" enable-background="new 0 0 512 512" height="512" viewBox="0 0 512 512" width="512" xmlns="http://www.w3.org/2000/svg"><g><path d="m512 256c0 141.385-114.615 256-256 256-26.399 0-51.864-3.996-75.824-11.415-1.325-.41-1.009-3.877-2.325-4.308-2.356-.772-4.697-1.578-7.023-2.416-1.161-.419-3.956 2.2-5.11 1.765-96.836-36.502-165.718-130.02-165.718-239.626 0-4.946.14-9.859.417-14.736.214-3.777 7.185-12.224 7.562-15.955 4.992-49.487 23.321-87.175 52.426-124.266 2.864-3.65-.093-10.167 2.961-13.654 46.922-53.565 115.828-87.389 192.634-87.389 141.385 0 256 114.615 256 256z" fill="#54469d"/><path d="m458.544 312.385-57.248 16.076 17.957 56.686-59.042-7.056-5.103 59.243-51.848-29.114-27.385 52.78-36.76-46.738-45.5 38.283-16.075-57.248-56.686 17.957 7.056-59.042-59.243-5.103 29.113-51.849-52.78-27.386 46.738-36.76-38.282-45.499 57.248-16.076-17.957-56.686 59.042 7.056 5.103-59.243 51.848 29.114 27.385-52.78 36.76 46.738 45.5-38.283 16.075 57.248 56.686-17.957-7.056 59.042 59.243 5.103-29.113 51.849 52.78 27.386-46.738 36.76z" fill="#6354b2"/><path d="m431.359 172.686c-2.951 3.88-7.425 5.92-11.95 5.92-3.166 0-6.356-.998-9.069-3.062-101.585-77.26-250.253-91.298-372.574-45.65 1.03-1.782-1.508-5.321-.437-7.076 7.667-12.563 16.387-24.413 26.037-35.428 36.655-9.652 75.519-14.673 115.355-14.673 94.133 0 182.84 28.038 249.779 78.951 6.595 5.013 7.874 14.424 2.859 21.018z" fill="#00aaf2"/><path d="m431.359 172.686c-2.951 3.88-7.425 5.92-11.95 5.92-3.166 0-6.356-.998-9.069-3.062-67.551-51.376-155.921-74.796-243.52-71.299-11.786.47-19.838-11.773-14.629-22.355.053-.107.106-.215.159-.322 2.549-5.161 7.73-8.52 13.485-8.677 4.283-.117 8.579-.176 12.886-.176 94.133 0 182.84 28.038 249.779 78.951 6.595 5.015 7.874 14.426 2.859 21.02z" fill="#00c1fb"/><path d="m411.899 197.504c-2.966 3.59-7.253 5.447-11.573 5.447-3.364 0-6.748-1.126-9.544-3.436-101.611-83.936-255.621-94.539-371.74-32.601.538-1.441-1.882-3.27-1.319-4.699 5.269-13.377 11.633-26.203 18.979-38.369 43.783-17.532 92.071-26.786 142.018-26.786 87.146 0 169.242 28.172 231.167 79.326 6.388 5.277 7.289 14.731 2.012 21.118z" fill="#64dcfc"/><path d="m411.899 197.504c-2.966 3.59-7.253 5.447-11.573 5.447-3.364 0-6.748-1.126-9.544-3.436-64.685-53.433-150.605-77.147-234.466-71.348-10.852.75-18.92-9.883-15.234-20.117.038-.105.076-.21.114-.315 2.037-5.633 7.202-9.573 13.181-9.937 8.062-.49 16.181-.738 24.345-.738 87.146 0 169.242 28.172 231.167 79.326 6.386 5.277 7.287 14.731 2.01 21.118z" fill="#9ae7fd"/><path d="m396.64 219.462c-5.275 6.385-14.73 7.288-21.117 2.011-101.054-83.474-254.012-81.199-368.48-17.223.162-.791-1.481-1.58-1.311-2.368 2.939-13.659 6.969-26.912 11.992-39.666 47.941-24.738 103.286-37.971 160.997-37.971 81.384 0 158.062 26.316 215.907 74.1 6.388 5.275 7.288 14.73 2.012 21.117z" fill="#fff261"/><path d="m396.64 219.462c-5.275 6.385-14.73 7.288-21.117 2.011-62.41-51.553-144.618-70.399-225.33-62.204-11.337 1.151-20.572-9.068-18.102-20.193.026-.117.052-.234.078-.351 1.604-7.176 7.62-12.523 14.947-13.145 10.434-.887 20.979-1.336 31.605-1.336 81.384 0 158.062 26.316 215.907 74.1 6.388 5.276 7.288 14.731 2.012 21.118z" fill="#fff587"/><path d="m407.636 248.75c-2.966 3.632-7.279 5.515-11.629 5.515-3.336 0-6.692-1.107-9.478-3.381-105.822-86.389-275.544-89.596-386.112-9.62.762-13.431 2.56-26.584 5.314-39.382 52.517-31.354 115.47-48.282 181.483-48.282 82.275 0 159.798 26.296 218.287 74.044 6.418 5.239 7.373 14.688 2.135 21.106z" fill="#ff73c6"/><path d="m407.736 248.625c-2.968 3.714-7.331 5.639-11.73 5.639-3.336 0-6.692-1.107-9.478-3.381-65.987-53.87-156.821-75.394-242.666-64.574-9.425 1.188-17.593-6.613-16.693-16.07.01-.103.02-.205.03-.308.672-6.966 6.035-12.556 12.979-13.423 15.433-1.927 31.145-2.908 47.035-2.908 82.149 0 159.56 26.215 218.018 73.825 6.411 5.22 7.666 14.743 2.505 21.2z" fill="#ff94d4"/><path d="m381.705 151.526-201.529 349.058c-4.883-1.512-9.704-3.166-14.458-4.958l202.997-351.6c2.07-3.587 6.655-4.817 10.245-2.745 3.587 2.071 4.816 6.657 2.745 10.245z" fill="#ca6d36"/><path d="m381.705 151.526-126.487 219.083c-1.989 3.445-6.351 4.733-9.866 2.872-.044-.023-.088-.047-.133-.07-3.733-1.978-5.106-6.638-2.994-10.296l126.491-219.089c2.07-3.587 6.655-4.817 10.245-2.745 3.586 2.071 4.815 6.657 2.744 10.245z" fill="#d97f4a"/><path d="m197.999 277.755-21.821 11.934c-.336.184-.612.459-.795.795l-8.982 21.821c-.759 1.387-2.751 1.387-3.509 0l-11.934-21.821c-.184-.336-.459-.612-.795-.795l-21.821-11.934c-1.387-.759-1.387-2.751 0-3.509l21.821-11.934c.336-.184.612-.459.795-.795l11.934-21.821c.759-1.387 2.751-1.387 3.509 0l8.982 21.821c.183.336.459.612.795.795l21.821 11.934c1.387.758 1.387 2.75 0 3.509zm312.095-86.536-71.423-56.341c-1.292-1.019-2-2.609-1.893-4.251l-3.948-4.965 5.617-82.151c.135-2.068 3.308-7.426 1.763-8.318-1.544-.892-3.553-.979-5.277.172l-75.655 50.517c-1.369.914-3.099 1.096-4.628.486l-84.505-33.684c-3.85-1.534-7.788 2.011-6.664 6l24.666 87.563c.29 1.029.239 2.108-.121 3.084-.194.527 3.044 3.262 2.675 3.705l-56.403 67.494c-1.145 1.378-6.659 3.292-6.237 4.776.555 1.949 2.266 3.55 4.617 3.643l90.899 3.6c1.644.065 3.151.935 4.03 2.327l48.567 76.921c2.212 3.504 7.483 2.95 8.918-.937l31.513-85.338c.57-1.544 1.863-2.708 3.458-3.114l88.165-22.42c4.018-1.019 5.12-6.203 1.866-8.769z" fill="#ffc143"/><path d="m200.951 277.755-21.821 11.934c-.336.184-.612.459-.795.795l-11.934 21.821c-.379.694-1.067 1.04-1.755 1.04v-74.69c.688 0 1.375.347 1.755 1.04l11.934 21.821c.184.336.459.611.795.795l21.821 11.934c1.387.759 1.387 2.751 0 3.51zm87.076-128.423 84.146 3.706-144.109 72.271c-.723-1.457-.847-3.271.298-4.649l58.819-69.86c.368-.444.652-.941.846-1.468zm152.183-114.139-68.038 117.845 64.601-22.322c.001-.03.002-.06.004-.089l6.52-91.03c.136-2.069-1.148-3.363-3.087-4.404z" fill="#fff261"/><path d="m511.999 195.209c-.037 2.115-1.393 4.176-3.77 4.781l-88.165 22.42c-.676.172-1.297.48-1.832.896l-46.06-70.268zm-184.39 39.669 48.567 76.921c1.335 2.115 3.784 2.751 5.831 2.069l-9.834-160.83-46.292 80.179c.692.4 1.288.965 1.728 1.661zm27.042-148.51-84.505-33.684c-2-.797-4.024-.223-5.35 1.073l107.376 99.28-13.852-66.656c-1.168.456-2.48.461-3.669-.013z" fill="#ffcd6b"/><path d="m462.385 302.669 11.686 6.391c.743.406.743 1.473 0 1.879l-11.686 6.391c-.18.098-.327.246-.426.426l-6.391 11.686c-.406.743-1.473.743-1.879 0l-6.391-11.686c-.098-.18-.246-.327-.426-.426l-11.686-6.391c-.743-.406-.743-1.473 0-1.879l11.686-6.391c.18-.098.327-.246.426-.426l6.391-11.686c.406-.743 1.473-.743 1.879 0l6.391 11.686c.098.18.246.328.426.426zm-212.344-184.765-6.391-11.686c-.406-.743-1.473-.743-1.879 0l-6.391 11.686c-.098.18-.246.327-.426.426l-11.686 6.391c-.743.406-.743 1.473 0 1.879l11.686 6.391c.18.098.327.246.426.426l6.391 11.686c.406.743 1.473.743 1.879 0l6.391-11.686c.098-.18.246-.327.426-.426l11.686-6.391c.743-.406.743-1.473 0-1.879l-11.686-6.391c-.18-.099-.327-.247-.426-.426zm-59.391-85.104-6.391-11.686c-.406-.743-1.473-.743-1.879 0l-6.392 11.686c-.098.18-.246.327-.426.426l-11.686 6.391c-.743.406-.743 1.473 0 1.879l11.686 6.391c.18.098.327.246.426.426l6.391 11.686c.406.743 1.473.743 1.879 0l6.391-11.686c.098-.18.246-.327.426-.426l11.686-6.391c.743-.406.743-1.473 0-1.879l-11.686-6.391c-.179-.099-.326-.247-.425-.426z" fill="#fff5f5"/></g></svg>