<svg id="Layer_1" enable-background="new 0 0 512 512" height="512" viewBox="0 0 512 512" width="512" xmlns="http://www.w3.org/2000/svg"><g><path d="m256 21.996c-135.311 0-245.002 109.691-245.002 245.002 0 115.026 79.275 211.521 186.166 237.873l48.416 6.894c3.457.145 6.928.236 10.42.236 2.702 0 5.39-.06 8.072-.146l50.764-6.983c106.891-26.351 186.166-122.846 186.166-237.873 0-135.312-109.691-245.003-245.002-245.003z" fill="#ff4155"/><path d="m288.059 202.576h-64.117c3.27 17.379 16.377 33.4 32.059 33.4 15.681 0 28.787-16.021 32.058-33.4z" fill="#ffaa7b"/><path d="m306.264 403.08c-1.224 1.445-2.878 2.535-4.81 3.053-15.37 4.118-32.014 6.017-48.573 5.741.787.887 1.696 1.689 2.747 2.363-2.759 2.729-7.755 9.142-7.755 19.763v28.944c-.067.939-.55 9.62 3.912 15.298 3.392-1.639 8.251-.083 8.827 4.727l3.459 28.884c17.445-.565 34.426-2.955 50.764-6.983z" fill="#4f71b6"/><path d="m210.547 406.133c-1.933-.518-3.587-1.609-4.811-3.054l-8.572 101.792c15.605 3.847 31.796 6.198 48.417 6.894l2.94-28.692c.317-3.094 2.424-4.874 4.796-5.337-4.689-5.445-3.942-14.735-3.942-14.735s0-15.25 0-29 8.889-20.077 8.889-20.077c-1.236-.508-2.299-1.199-3.216-2.015-15.207-.078-30.391-1.995-44.501-5.776z" fill="#3c58a0"/><path d="m348.249 234.446c-6.289-19.042-24.135-31.87-44.19-31.87h-17.558c-3.232 16.157-15.417 31.9-30.5 31.9-.098 0-.195-.008-.293-.01-4.345 6.502-7.82 14.874-7.82 25.033l.002 135.425c-.03.596-.567 13.447 7.267 18.985 15.805.071 31.631-1.847 46.297-5.776 4.221-1.131 7.14-4.977 7.063-9.346l-2.203-125.2c0-2.973 2.021-5.675 4.941-6.238 3.408-.657 6.561 1.553 7.224 4.802l7.113 34.91c21.033-1.163 30.662-9.783 34.854-15.857-13.01-63.783-9.737-49.311-12.197-56.758z" fill="#49b1f7"/><path d="m249.388 395s0-109.5 0-135.5c0-10.245 3.73-18.653 8.246-25.091-.541.041-1.085.068-1.634.068-15.084 0-27.269-15.743-30.501-31.9h-12.312c-22.307 0-42.034 13.4-50.254 34.138-.982 2.475-.302.206-11.379 54.492 4.193 6.073 13.822 14.693 34.854 15.856l7.113-34.91c.663-3.249 3.814-5.458 7.223-4.802 2.92.562 4.942 3.265 4.942 6.238l-2.203 125.2c-.077 4.369 2.842 8.215 7.063 9.346 15.083 4.041 31.392 5.946 47.643 5.756-9.545-4.001-8.801-18.891-8.801-18.891z" fill="#1e9ef4"/><path d="m301.162 146.053c0 27.745-20.22 57.225-45.162 57.225s-45.162-29.48-45.162-57.225 20.22-45.577 45.162-45.577 45.162 17.832 45.162 45.577z" fill="#ffc7ab"/><g><g><path d="m498.486 353.055c-2.077 0-4.185-.48-6.16-1.496l-88.037-45.244c-6.631-3.408-9.244-11.546-5.836-18.178 3.408-6.631 11.545-9.248 18.178-5.836l88.037 45.244c6.631 3.408 9.244 11.546 5.837 18.178-2.394 4.656-7.121 7.332-12.019 7.332z" fill="#ffdd40"/></g><g><path d="m422.495 347.725c-5.709 0-11.012-3.649-12.851-9.377l-12.969-40.392c-1.095-3.409-.79-7.113.846-10.298 1.637-3.185 4.471-5.588 7.88-6.683l40.392-12.969c7.1-2.278 14.702 1.628 16.98 8.727 2.279 7.099-1.627 14.701-8.727 16.98l-27.538 8.842 8.841 27.538c2.279 7.099-1.627 14.701-8.727 16.98-1.369.442-2.76.652-4.127.652z" fill="#ffdd40"/></g></g><g><g><path d="m404.25 196.865c-5.709 0-11.012-3.649-12.851-9.377-2.279-7.099 1.628-14.701 8.727-16.98l94.244-30.259c7.1-2.278 14.702 1.627 16.98 8.727 2.279 7.099-1.627 14.701-8.727 16.98l-94.244 30.259c-1.371.44-2.762.65-4.129.65z" fill="#ffdd40"/></g><g><path d="m440.976 216.576c-2.077 0-4.185-.48-6.16-1.496l-37.732-19.392c-3.185-1.637-5.588-4.471-6.683-7.88s-.79-7.113.846-10.298l19.392-37.731c3.409-6.631 11.546-9.246 18.178-5.836 6.631 3.408 9.244 11.547 5.836 18.178l-13.22 25.725 25.725 13.221c6.631 3.408 9.244 11.546 5.836 18.178-2.393 4.655-7.119 7.331-12.018 7.331z" fill="#ffdd40"/></g></g><g><g><path d="m338.226 115.043c-2.077 0-4.185-.48-6.16-1.496-6.631-3.408-9.244-11.546-5.836-18.178l45.244-88.036c3.409-6.631 11.544-9.247 18.178-5.836 6.631 3.408 9.244 11.546 5.837 18.178l-45.244 88.036c-2.394 4.656-7.12 7.332-12.019 7.332z" fill="#ffdd40"/></g><g><path d="m337.759 115.972c-2.127 0-4.244-.503-6.171-1.493-3.185-1.637-5.588-4.471-6.683-7.88l-12.968-40.392c-2.279-7.099 1.628-14.701 8.727-16.98 7.101-2.278 14.702 1.628 16.98 8.726l8.842 27.538 27.538-8.842c7.1-2.278 14.702 1.627 16.981 8.727 2.279 7.099-1.627 14.701-8.727 16.98l-40.392 12.969c-1.347.433-2.739.647-4.127.647z" fill="#ffdd40"/></g></g><g><g><path d="m13.514 353.055c-4.899 0-9.625-2.675-12.019-7.332-3.408-6.632-.795-14.77 5.836-18.178l88.037-45.244c6.633-3.409 14.77-.795 18.178 5.836 3.408 6.632.795 14.77-5.836 18.178l-88.037 45.244c-1.974 1.014-4.082 1.496-6.159 1.496z" fill="#ffc839"/></g><g><path d="m89.505 347.725c-1.368 0-2.758-.21-4.13-.65-7.099-2.279-11.006-9.882-8.727-16.98l8.841-27.538-27.538-8.842c-7.099-2.279-11.006-9.882-8.727-16.98s9.881-11.007 16.981-8.727l40.392 12.969c3.409 1.095 6.244 3.498 7.88 6.683s1.941 6.889.846 10.298l-12.969 40.392c-1.836 5.724-7.14 9.374-12.849 9.375z" fill="#ffc839"/></g></g><g><g><path d="m107.75 196.865c-1.368 0-2.758-.21-4.13-.65l-94.243-30.259c-7.099-2.279-11.006-9.882-8.727-16.98 2.279-7.099 9.882-11.006 16.98-8.727l94.244 30.259c7.099 2.279 11.006 9.882 8.727 16.98-1.839 5.727-7.142 9.377-12.851 9.377z" fill="#ffc839"/></g><g><path d="m71.024 216.576c-4.899 0-9.625-2.675-12.019-7.332-3.408-6.632-.795-14.77 5.836-18.178l25.725-13.221-13.22-25.725c-3.408-6.631-.795-14.77 5.836-18.178 6.631-3.409 14.77-.796 18.178 5.836l19.392 37.731c1.636 3.185 1.941 6.889.846 10.298-1.094 3.409-3.498 6.243-6.683 7.88l-37.731 19.393c-1.975 1.015-4.083 1.496-6.16 1.496z" fill="#ffc839"/></g></g><g><g><path d="m173.774 115.043c-4.899 0-9.625-2.675-12.018-7.332l-45.244-88.036c-3.408-6.632-.795-14.769 5.836-18.178 6.633-3.408 14.77-.795 18.178 5.836l45.244 88.036c3.408 6.632.795 14.77-5.836 18.178-1.975 1.015-4.083 1.496-6.16 1.496z" fill="#ffc839"/></g><g><path d="m174.241 115.972c-1.388 0-2.78-.214-4.126-.646l-40.393-12.969c-7.099-2.279-11.006-9.882-8.727-16.98 2.279-7.099 9.882-11.006 16.981-8.727l27.538 8.842 8.842-27.538c2.279-7.099 9.882-11.007 16.98-8.726 7.099 2.279 11.006 9.882 8.727 16.98l-12.968 40.392c-1.094 3.409-3.498 6.243-6.683 7.88-1.926.989-4.044 1.492-6.171 1.492z" fill="#ffc839"/></g></g><path d="m152.058 288.734c3.353 5.648 12.363 15.426 34.702 16.598l-4.827 23.691c-2.347 11.52-5.637 17.087-6.601 30.354l-.065 29.104c-.006 2.754.156 5.507.485 8.242.639 5.313 1.177 10.397 4.058 15.047l3.839 6.193c1.691 2.728.52 6.173-2.337 7.635-1.769.905-2.888 2.727-2.888 4.722v4.76c0 6.963-4.593 13.264-11.353 14.933-8.398 2.073-16.758-3.375-18.292-11.84l-5.835-87.489c-2.21-12.193-.425-15.185 9.114-61.95z" fill="#ffaa7b"/><path d="m332.812 336.772c-.183.323-.385.632-.59.938 1.875 6.613 3.756 12.171 4.446 21.667l.065 29.104c.006 2.754-.156 5.507-.485 8.242-.639 5.313-1.177 10.397-4.058 15.047l-3.839 6.193c-1.691 2.728-.52 6.173 2.337 7.635 1.769.905 2.888 2.727 2.888 4.722v4.76c0 6.963 4.593 13.264 11.353 14.933 8.398 2.073 16.758-3.375 18.292-11.84l5.836-87.489c1.422-7.845 1.189-11.884-1.699-26.225-3.658-1.938-21.85-10.062-34.546 12.313z" fill="#ffc7ab"/><path d="m368.023 327.83c-1.563-8.108-4.17-19.921-8.081-39.097-3.353 5.648-12.363 15.427-34.702 16.598l4.827 23.692c.844 4.142 1.809 7.512 2.745 10.749 14.173-24.978 35.21-11.942 35.211-11.942z" fill="#ffaa7b"/></g></svg>