<svg id="Capa_1" enable-background="new 0 0 512 512" height="512" viewBox="0 0 512 512" width="512" xmlns="http://www.w3.org/2000/svg"><g><path d="m2.889 294.587c-1.902-12.585-2.889-25.471-2.889-38.587 0-141.146 115.36-256.272 256.506-256 141.152.273 255.494 114.784 255.494 256 0 12.75-.932 25.282-2.732 37.532-.882 6.005-6.061 10.443-12.131 10.443h-483.34c-5.457 0-10.092-3.992-10.908-9.388z" fill="#ff4343"/><path d="m468.579 256c0 117.404-95.175 212.579-212.579 212.579s-212.579-95.175-212.579-212.579 95.175-212.579 212.579-212.579 212.579 95.175 212.579 212.579z" fill="#ff5757"/><path d="m257.185 480.449v-170.726c0-30.376 24.624-55 55-55l108.834 20.345 30.202-20.345h5.779c24.493 0 45.246 16.01 52.366 38.136-11.437 79.317-59.238 146.877-125.959 185.235-.654.376-114.568 1.119-114.568 1.119-3.999-.001-7.897.426-11.654 1.236z" fill="#2dd2e3"/><path d="m315.33 254.723h16.715l87.679 9.214 14.783-9.214h16.715l-61.596 92.912c-3.013 4.545-9.686 4.545-12.699 0zm145.749 73.731c-4.142 0-7.5 3.358-7.5 7.5v82.841c5.317-6.446 10.324-13.156 15-20.108v-62.733c0-4.142-3.358-7.5-7.5-7.5z" fill="#00bfd8"/><path d="m379.108 325.714-47.064-70.991h102.462l-47.064 70.991c-1.977 2.983-6.356 2.983-8.334 0z" fill="#fff5f5"/><path d="m24.042 364.455c-10.444-22.3-17.768-46.353-21.408-71.596 7.12-22.126 27.873-38.136 52.366-38.136h26.391c-30.376 0-55 24.624-55 55v54.21c0 1.315-1.791 1.713-2.349.522z" fill="#0573cf"/><path d="m128.593 478.093c-45.59-26.21-82.346-66.052-104.704-113.965v-54.405c0-30.376 24.624-55 55-55h9.896l6.385 4.32h66.383l4.649-4.32h33.613c30.376 0 55 24.624 55 55v171.613c-4.823-1.383-9.918-2.123-15.185-2.123-.001-.001-110.383-.744-111.037-1.12z" fill="#5290d9"/><path d="m127.493 301.043c-21.378 0-38.708-17.33-38.708-38.708v-7.612h77.417v7.612c0 21.377-17.331 38.708-38.709 38.708zm-76.572 27.411c-4.142 0-7.5 3.358-7.5 7.5v62.733c4.676 6.952 9.683 13.663 15 20.108v-82.841c0-4.142-3.358-7.5-7.5-7.5z" fill="#0573cf"/><path d="m39.815 183.056c-10.995 0-19.907-8.913-19.907-19.907v-7.963c0-10.995 8.913-19.907 19.907-19.907 10.995 0 19.907 8.913 19.907 19.907v7.963c0 10.994-8.913 19.907-19.907 19.907z" fill="#fed2a4"/><path d="m31.852 151.204v15.926c0 6.512 3.127 12.294 7.961 15.926-10.994-.001-19.906-8.913-19.906-19.907v-7.963c0-10.994 8.912-19.906 19.906-19.907-4.834 3.631-7.961 9.413-7.961 15.925zm95.555-119.444c-48.376 0-87.593 39.216-87.593 87.593v31.852c0 40.094 26.939 73.897 63.704 84.295v27.186c0 13.193 10.695 23.889 23.889 23.889 13.193 0 23.889-10.696 23.889-23.889v-27.186c36.765-10.399 63.704-44.202 63.704-84.296v-31.852c0-48.376-39.217-87.592-87.593-87.592z" fill="#ffbd86"/><path d="m215 119.352v31.852c0 40.446-27.413 74.488-64.672 84.563-7.185 1.943-14.767 1.943-21.952 0-37.259-10.075-64.672-44.117-64.672-84.563v-31.852c0-44.324 32.923-80.959 75.648-86.785 42.725 5.826 75.648 42.461 75.648 86.785z" fill="#fed2a4"/><path d="m101.528 125.324c0 6.597-5.348 11.944-11.945 11.944s-11.944-5.348-11.944-11.944 5.348-11.945 11.944-11.945c6.597.001 11.945 5.349 11.945 11.945zm63.703-11.944c-6.597 0-11.944 5.348-11.944 11.945s5.348 11.944 11.944 11.944 11.944-5.348 11.944-11.944-5.347-11.945-11.944-11.945z" fill="#003c79"/><path d="m179.167 119.352c0 3.298-2.674 5.972-5.972 5.972s-5.972-2.674-5.972-5.972c0-3.299 2.674-5.972 5.972-5.972s5.972 2.674 5.972 5.972zm-81.621-5.972c-3.298 0-5.972 2.674-5.972 5.972s2.674 5.972 5.972 5.972 5.972-2.674 5.972-5.972c.001-3.298-2.673-5.972-5.972-5.972z" fill="#fff5f5"/><path d="m492.093 155.186v7.963c0 10.995-8.913 19.907-19.907 19.907-1.965 0-3.864-.285-5.658-.816-9.758 25.746-31.302 45.695-58.046 53.259v27.186c0 13.193-10.695 23.889-23.889 23.889-13.193 0-23.889-10.696-23.889-23.889v-27.186c-36.765-10.398-63.704-44.201-63.704-84.295v-31.852c0-48.376 39.217-87.593 87.593-87.593 48.376 0 87.593 39.216 87.593 87.593v15.926c10.994 0 19.907 8.913 19.907 19.908z" fill="#bb5d4c"/><path d="m472.185 119.352v31.852c0 40.446-27.413 74.488-64.672 84.563-7.185 1.943-14.768 1.943-21.952 0-37.259-10.075-64.672-44.117-64.672-84.563v-31.852c0-44.325 32.923-80.959 75.648-86.785 42.726 5.826 75.648 42.461 75.648 86.785z" fill="#c96e59"/><path d="m373.047 156.564c-2.332-2.333-2.332-6.114 0-8.447 2.332-2.331 6.114-2.331 8.446 0 .83.83 1.93 1.287 3.1 1.287s2.27-.457 3.1-1.287c2.332-2.331 6.114-2.331 8.446 0 2.333 2.333 2.333 6.114 0 8.447-3.086 3.086-7.186 4.785-11.546 4.785s-8.461-1.699-11.546-4.785z" fill="#a44f3e"/><path d="m358.713 125.324c0 6.597-5.348 11.944-11.944 11.944-6.597 0-11.944-5.348-11.944-11.944 0-6.597 5.348-11.944 11.944-11.944s11.944 5.348 11.944 11.944zm63.704-11.944c-6.597 0-11.944 5.348-11.944 11.944 0 6.597 5.348 11.944 11.944 11.944 6.597 0 11.944-5.348 11.944-11.944s-5.347-11.944-11.944-11.944z" fill="#55271a"/><path d="m360.704 119.352c0 3.298-2.674 5.972-5.972 5.972s-5.972-2.674-5.972-5.972 2.674-5.972 5.972-5.972 5.972 2.674 5.972 5.972zm69.676-5.972c-3.298 0-5.972 2.674-5.972 5.972s2.674 5.972 5.972 5.972 5.972-2.674 5.972-5.972-2.674-5.972-5.972-5.972z" fill="#fff5f5"/><path d="m384.593 206.945c-13.194 0-23.889-10.695-23.889-23.889 0-3.298 2.674-5.972 5.972-5.972h35.833c3.298 0 5.972 2.674 5.972 5.972.001 13.193-10.695 23.889-23.888 23.889z" fill="#fff5f5"/><path d="m390.565 206.192c-1.909.491-3.91.753-5.972.753-13.193 0-23.889-10.695-23.889-23.889 0-3.298 2.674-5.972 5.972-5.972h11.944c-3.298 0-5.972 2.674-5.972 5.972 0 11.131 7.614 20.484 17.917 23.136z" fill="#d5f3f7"/><path d="m358.841 25v44.707c0 16.73-13.563 30.293-30.293 30.293h-29.42v-75c0-8.284 6.716-15 15-15h29.713c8.284 0 15 6.716 15 15z" fill="#00bfd8"/><path d="m470.044 25v75h-146.96v-75c0-8.284 6.716-15 15-15h116.96c8.284 0 15 6.716 15 15z" fill="#2dd2e3"/><path d="m101.528 25v41.172c0 18.683-15.145 33.828-33.828 33.828h-25.745v-75c0-8.284 6.716-15 15-15h29.573c8.284 0 15 6.716 15 15z" fill="#0573cf"/><path d="m212.949 25v75h-147.377v-75c0-8.284 6.716-15 15-15h117.377c8.284 0 15 6.716 15 15z" fill="#5290d9"/><path d="m214.937 154.972c-1.662 48.909-40.211 88.028-87.53 88.028-47.319 0-85.867-39.119-87.53-88.028 20.558-7.798 42.348-12.912 64.978-14.972h45.104c22.631 2.06 44.421 7.174 64.978 14.972z" fill="#d5f3f7"/><path d="m149.959 140c22.631 2.06 44.421 7.174 64.978 14.972-1.659 48.817-40.067 87.881-87.264 88.027-11.049-25.722-17.169-54.062-17.169-83.832 0-6.46.288-12.854.853-19.167z" fill="#fff5f5"/><path d="m353 199v106h-159.938c-2.622 0-4.747-2.125-4.747-4.747v-101.253c0-15.244 3.516-29.666 9.782-42.5h141.914c1.989 0 3.792 1.172 4.603 2.988 5.39 12.068 8.386 25.44 8.386 39.512z" fill="#003c79"/><path d="m194.064 199v106h-35.064v-106c0-13.861 2.907-27.043 8.145-38.969.945-2.152 3.088-3.531 5.438-3.531h31.262c-6.265 12.834-9.781 27.256-9.781 42.5z" fill="#002c5d"/><path d="m152.797 490.346c-8.309-3.665-16.387-7.758-24.204-12.252v-87.075c0-30.376 24.624-55 55-55h26.894c-30.376 0-55 24.624-55 55v97.563c-.001 1.383-1.425 2.321-2.69 1.764z" fill="#afeaf2"/><path d="m383.407 478.094c-37.52 21.57-81.023 33.906-127.407 33.906-36.842 0-71.866-7.783-103.518-21.793v-99.188c0-30.376 24.624-55 55-55h120.926c30.376 0 55 24.624 55 55v87.075z" fill="#d5f3f7"/><path d="m314 337v141h-10v-141zm-106 0h-10v95.787h10v38.72c3.311.628 6.645 1.193 10 1.692v-43.249h-10zm-20.237 129.805c3.307.912 6.641 1.76 10 2.542v-39.397h-10z" fill="#b3cbed"/><path d="m214.695 476h-1.711c-4.142 0-7.5-3.358-7.5-7.5s3.358-7.5 7.5-7.5h1.711c4.142 0 7.5 3.358 7.5 7.5s-3.358 7.5-7.5 7.5zm-13.577-7.5c0-4.142-3.358-7.5-7.5-7.5h-1.711c-4.142 0-7.5 3.358-7.5 7.5s3.358 7.5 7.5 7.5h1.711c4.142 0 7.5-3.358 7.5-7.5z" fill="#83afe4"/><path d="m320.512 331.525-60.814 147.505c-1.361 3.3-6.035 3.3-7.396 0l-60.814-147.506c-1.085-2.633.85-5.525 3.698-5.525h121.628c2.848.001 4.783 2.893 3.698 5.526z" fill="#fff5f5"/><path d="m279.889 343.839.111 167.051c-3.819.355-7.663.626-11.529.812h-24.941c-3.866-.186-7.71-.457-11.529-.812l.111-167.162c0-4.484 3.524-8.008 8.008-8.008h31.763c4.482 0 8.006 3.635 8.006 8.119z" fill="#5290d9"/><path d="m168.407 264.352c-10.995 0-19.907-8.913-19.907-19.907v-7.963c0-10.995 8.913-19.907 19.907-19.907 10.995 0 19.907 8.913 19.907 19.907v7.963c.001 10.994-8.912 19.907-19.907 19.907z" fill="#ffbd86"/><path d="m160.444 232.5v15.926c0 6.512 3.127 12.294 7.961 15.926-10.994-.001-19.906-8.913-19.906-19.907v-7.963c0-10.994 8.912-19.906 19.906-19.907-4.833 3.631-7.961 9.413-7.961 15.925zm183.149-15.926v-15.926c0-48.376-39.217-87.593-87.593-87.593-48.376 0-87.593 39.216-87.593 87.593v31.852c0 40.094 26.939 73.897 63.704 84.295v27.186c0 13.193 10.695 23.889 23.889 23.889 13.193 0 23.889-10.696 23.889-23.889v-27.186c26.744-7.564 48.288-27.513 58.046-53.259 1.793.531 3.692.816 5.657.816 10.995 0 19.907-8.913 19.907-19.907v-7.963c.001-10.995-8.912-19.908-19.906-19.908z" fill="#f6a96c"/><path d="m343.593 200.648v31.852c0 40.446-27.413 74.488-64.672 84.563-7.185 1.943-14.768 1.943-21.952 0-37.259-10.075-64.672-44.117-64.672-84.563v-31.852c0-44.325 32.923-80.959 75.648-86.785 42.725 5.826 75.648 42.461 75.648 86.785z" fill="#ffbd86"/><path d="m244.454 237.86c-2.333-2.333-2.333-6.114 0-8.447 2.332-2.331 6.114-2.331 8.446 0 .83.83 1.93 1.287 3.1 1.287s2.27-.457 3.1-1.287c2.332-2.331 6.114-2.331 8.446 0 2.333 2.333 2.333 6.114 0 8.447-3.086 3.086-7.186 4.785-11.546 4.785s-8.46-1.699-11.546-4.785z" fill="#f6a96c"/><path d="m230.12 206.62c0 6.597-5.348 11.944-11.944 11.944s-11.945-5.348-11.945-11.944 5.348-11.945 11.945-11.945 11.944 5.349 11.944 11.945zm63.704-11.944c-6.597 0-11.944 5.348-11.944 11.945s5.348 11.944 11.944 11.944c6.597 0 11.944-5.348 11.944-11.944s-5.347-11.945-11.944-11.945z" fill="#004b94"/><path d="m232.111 200.648c0 3.298-2.674 5.972-5.972 5.972s-5.972-2.674-5.972-5.972c0-3.299 2.674-5.972 5.972-5.972s5.972 2.674 5.972 5.972zm69.676-5.972c-3.298 0-5.972 2.674-5.972 5.972s2.674 5.972 5.972 5.972 5.972-2.674 5.972-5.972-2.674-5.972-5.972-5.972z" fill="#fff5f5"/><path d="m256 288.241c-13.194 0-23.889-10.695-23.889-23.889 0-3.298 2.674-5.972 5.972-5.972h35.833c3.298 0 5.972 2.674 5.972 5.972.001 13.193-10.694 23.889-23.888 23.889z" fill="#fff5f5"/><path d="m261.972 287.488c-1.909.491-3.91.753-5.972.753-13.193 0-23.889-10.695-23.889-23.889 0-3.298 2.674-5.972 5.972-5.972h11.944c-3.298 0-5.972 2.674-5.972 5.972.001 11.131 7.614 20.484 17.917 23.136z" fill="#d5f3f7"/><path d="m218.237 429.95c0 4.142-3.358 7.5-7.5 7.5h-15.474c-4.142 0-7.5-3.358-7.5-7.5s3.358-7.5 7.5-7.5h.237v-11.922c0-4.142 3.358-7.5 7.5-7.5s7.5 3.358 7.5 7.5v11.922h.237c4.142 0 7.5 3.358 7.5 7.5zm113.763 58.55c0 12.979-10.521 23.5-23.5 23.5s-23.5-10.521-23.5-23.5 10.521-23.5 23.5-23.5 23.5 10.521 23.5 23.5z" fill="#5290d9"/><path d="m320.17 488.5c0 6.445-5.225 11.67-11.67 11.67s-11.67-5.225-11.67-11.67 5.225-11.67 11.67-11.67 11.67 5.225 11.67 11.67z" fill="#0573cf"/><path d="m256 104.957c6.106 0 12.08-2.393 17.872-1.314 32.239 6.005 58.87 27.955 71.401 57.357h-143.51s14.152-56.043 54.237-56.043z" fill="#003c79"/><path d="m201.763 161h-35.036c14.783-34.685 49.188-59 89.273-59 6.106 0 12.079.564 17.872 1.643-32.238 6.005-59.578 27.955-72.109 57.357z" fill="#002c5d"/></g></svg>