<svg id="Layer_1" enable-background="new 0 0 512 512" height="512" viewBox="0 0 512 512" width="512" xmlns="http://www.w3.org/2000/svg"><g><path d="m256 21.996c-135.311 0-245.002 109.691-245.002 245.002 0 46.919 13.198 90.751 36.07 128.004l292.315 102.433c94.259-34.115 161.619-124.406 161.619-230.437 0-135.311-109.691-245.002-245.002-245.002z" fill="#2a428c"/><path d="m235.118 105.765c0-22.694 7.293-43.715 19.651-60.851h-126.996s-35.697 33.943 0 69.64v40.868s-20.422 15.427 0 35.849 0 40.868 0 40.868-20.813 15.036 0 35.849 0 40.868 0 40.868-18.948 14.554 0 35.849 0 40.868 0 40.868-20.782 17.271 0 35.849 0 40.868 0 40.868-4.699 3.743-4.484 10.668c38.243 24.698 83.798 39.042 132.711 39.042 29.279 0 57.355-5.145 83.383-14.565v-287.404c-57.492-.001-104.265-46.774-104.265-104.266z" fill="#deeeff"/><path d="m129.773 44.914h-52.29c-16.728 0-30.415 13.687-30.415 30.415v319.673c9.964 16.228 21.768 31.203 35.116 44.643l25.876 22.646-.001.001c5.592 4.244 11.379 8.243 17.332 12.003-.923-7.779 4.383-12.004 4.383-12.004s20.782-22.29 0-40.868 0-35.849 0-35.849 18.948-19.573 0-40.868 0-35.849 0-35.849 20.813-20.055 0-40.868 0-35.849 0-35.849 20.422-20.446 0-40.868 0-35.849 0-35.849v-40.868c-35.698-35.698-.001-69.641-.001-69.641z" fill="#a8b7ef"/><path d="m235.492 114.554c-2.092 0-4.151 0-6.157 0-11.238 0-20.434 9.195-20.434 20.434 0 11.239 9.195 20.434 20.434 20.434h18.385c-6.71-12.338-10.995-26.176-12.228-40.868z" fill="#a8b7ef"/><path d="m279.791 191.271c-16.164 0-34.794 0-50.456 0-11.238 0-20.434 9.195-20.434 20.434 0 11.239 9.195 20.434 20.434 20.434h54.687c11.239 0 20.434-9.195 20.434-20.434 0-2.981-.662-5.809-1.822-8.369-8.148-3.078-15.811-7.149-22.843-12.065z" fill="#a8b7ef"/><path d="m439.093 288.585-24.611 14.209 20.434 35.393 24.611-14.209c9.733-5.619 13.099-18.18 7.479-27.913-5.619-9.734-18.18-13.099-27.913-7.48z" fill="#ff4155"/><path d="m452.973 222.802h-28.419v40.868h28.419c11.239 0 20.434-9.195 20.434-20.434 0-11.239-9.195-20.434-20.434-20.434z" fill="#e80054"/><path d="m420.267 128.16c-15.364 2.38-27.621-6.498-27.821-6.642-.112-.072-11.35-7.383-21.305-19.109-13.195-15.543-18.013-31.055-14.319-46.104 5.094-20.751 18.766-31.027 38.322-31.027 4.763 0 9.562.677 12.566 1.492l1.881-.033c-18.69-16.622-43.288-26.737-70.207-26.737-13.111 0-25.668 2.405-37.265 6.785l.838.257c.091 3.076.946 11.488 7.238 18.088 5.092 5.341 12.474 8.168 21.954 8.411l14.849 141.587c-1.002 2.199-5.257 12.584-1.365 22.697 1.942 5.046 5.586 9.17 10.863 12.314 47.644-7.784 84.668-47.516 88.33-96.407-7.401 8.198-15.636 13.046-24.559 14.428z" fill="#fea5da"/><path d="m407.902 25.265s-42.106-11.813-52.536 30.682c-9.21 37.527 36.268 66.832 36.268 66.832s27.265 20.181 52.996-6.635c.334-3.416.518-6.876.518-10.379 0-32.203-14.471-61.085-37.246-80.5z" fill="#ffc0e9"/><path d="m348.533 175.389-15.032-143.33c-30.294 0-29.045-26.125-29.045-26.125-41.207 14.459-70.837 53.747-70.837 99.831 0 58.319 47.447 105.766 105.765 105.766 6.647 0 13.15-.623 19.46-1.801-21.731-11.42-10.311-34.341-10.311-34.341z" fill="#fc90ce"/><path d="m378.749 89.888c-9.226-10.574-17.433-22.307-24.064-35.278-.5.22-1.008.462-1.524.744-4.366 2.384-10.036 7.674-12.258 19.339-1.148 6.026-4.449 13.157-7.944 20.706-8.688 18.765-19.499 42.117-3.227 63.127 5.683 7.338 11.374 12.92 16.717 17.176 40.055-5.19 60.082-53.973 32.3-85.814z" fill="#ff4155"/><path d="m355.365 55.947c-3.939-7.532-7.345-15.488-10.1-23.889-1.863-5.68-9.903-5.68-11.765 0-7.305 22.278-19.182 41.438-33.484 57.829-29.372 33.663-5.31 86.274 39.366 86.274 3.158 0 6.209-.272 9.149-.772-5.593-4.285-11.614-10.035-17.615-17.783-22.108-28.544 7.369-61.167 11.459-82.634 2.277-11.941 8.19-16.938 12.99-19.025z" fill="#e80054"/><circle cx="334.962" cy="101.952" fill="#e80054" r="9.833"/><ellipse cx="330.295" cy="128.285" fill="#e80054" rx="20.167" ry="20.167" transform="matrix(.922 -.387 .387 .922 -23.905 137.987)"/><circle cx="332.795" cy="151.452" fill="#e80054" r="10"/><path d="m415.413 302.256-23.68 13.672c-9.733 5.619-13.099 18.18-7.479 27.913 5.619 9.733 18.18 13.099 27.913 7.479l23.68-13.672z" fill="#e80054"/><g fill="#ff4155"><path d="m425.63 222.802h-27.343c-11.239 0-20.434 9.195-20.434 20.434 0 11.239 9.195 20.434 20.434 20.434h27.343z"/><path d="m157.116 114.554h-28.419v40.868h28.419c11.239 0 20.434-9.195 20.434-20.434 0-11.239-9.195-20.434-20.434-20.434z"/><path d="m157.116 191.271h-28.419v40.868h28.419c11.239 0 20.434-9.195 20.434-20.434 0-11.239-9.195-20.434-20.434-20.434z"/><path d="m157.116 267.988h-28.419v40.868h28.419c11.239 0 20.434-9.195 20.434-20.434 0-11.239-9.195-20.434-20.434-20.434z"/><path d="m284.022 267.988h-28.419v40.868h28.419c11.239 0 20.434-9.195 20.434-20.434 0-11.239-9.196-20.434-20.434-20.434z"/><path d="m157.116 344.705h-28.419v40.868h28.419c11.239 0 20.434-9.195 20.434-20.434 0-11.238-9.195-20.434-20.434-20.434z"/><path d="m284.022 344.705h-28.419v40.868h28.419c11.239 0 20.434-9.195 20.434-20.434 0-11.238-9.196-20.434-20.434-20.434z"/><path d="m157.116 421.422h-28.419v40.868h28.419c11.239 0 20.434-9.195 20.434-20.434 0-11.239-9.195-20.434-20.434-20.434z"/><path d="m284.022 421.422h-28.419v40.868h28.419c11.239 0 20.434-9.195 20.434-20.434 0-11.239-9.196-20.434-20.434-20.434z"/></g><path d="m129.773 114.554h-27.343c-11.239 0-20.434 9.195-20.434 20.434 0 11.239 9.195 20.434 20.434 20.434h27.343z" fill="#e80054"/><path d="m129.773 191.271h-27.343c-11.239 0-20.434 9.195-20.434 20.434 0 11.239 9.195 20.434 20.434 20.434h27.343z" fill="#e80054"/><path d="m129.773 267.988h-27.343c-11.239 0-20.434 9.195-20.434 20.434 0 11.239 9.195 20.434 20.434 20.434h27.343z" fill="#e80054"/><path d="m256.679 267.988h-27.344c-11.239 0-20.434 9.195-20.434 20.434 0 11.239 9.195 20.434 20.434 20.434h27.344z" fill="#e80054"/><path d="m129.773 344.705h-27.343c-11.239 0-20.434 9.195-20.434 20.434 0 11.239 9.195 20.434 20.434 20.434h27.343z" fill="#e80054"/><path d="m256.679 344.705h-27.344c-11.239 0-20.434 9.195-20.434 20.434 0 11.239 9.195 20.434 20.434 20.434h27.344z" fill="#e80054"/><path d="m82.129 439.597c8.095 8.154 16.761 15.737 25.931 22.694h21.713v-40.868h-27.343c-10.475-.001-19.167 7.989-20.301 18.174z" fill="#e80054"/><path d="m256.679 421.422h-27.344c-11.239 0-20.434 9.195-20.434 20.434 0 11.239 9.195 20.434 20.434 20.434h27.344z" fill="#e80054"/><path d="m483.393 358.344c-39.972 7.834-107.328 27.421-107.328 67.156 0 19.709 6.207 34.977 14.178 46.462 41.583-27.289 74.358-66.888 93.15-113.618z" fill="#3c58a0"/><ellipse cx="458.134" cy="237.846" fill="#ff4155" rx="9.154" ry="9.154" transform="matrix(.618 -.786 .786 .618 -11.988 451.02)"/><circle cx="451.258" cy="302.256" fill="#ff7186" r="9.154"/><ellipse cx="160.563" cy="131.041" fill="#ff7186" rx="9.153" ry="9.154" transform="matrix(.925 -.381 .381 .925 -37.787 70.963)"/><ellipse cx="160.563" cy="207.758" fill="#ff7186" rx="9.153" ry="9.154" transform="matrix(.925 -.381 .381 .925 -66.983 76.736)"/><ellipse cx="160.563" cy="284.475" fill="#ff7186" rx="9.153" ry="9.154" transform="matrix(.925 -.381 .381 .925 -96.178 82.508)"/><ellipse cx="160.563" cy="361.192" fill="#ff7186" rx="9.153" ry="9.154" transform="matrix(.925 -.381 .381 .925 -125.373 88.28)"/><ellipse cx="160.563" cy="437.909" fill="#ff7186" rx="9.153" ry="9.154" transform="matrix(.925 -.381 .381 .925 -154.568 94.053)"/><ellipse cx="287.469" cy="284.475" fill="#ff7186" rx="9.153" ry="9.154" transform="matrix(.925 -.381 .381 .925 -86.629 130.803)"/><ellipse cx="287.469" cy="361.192" fill="#ff7186" rx="9.153" ry="9.154" transform="matrix(.925 -.381 .381 .925 -115.824 136.575)"/><ellipse cx="287.469" cy="437.909" fill="#ff7186" rx="9.153" ry="9.154" transform="matrix(.925 -.381 .381 .925 -145.019 142.348)"/></g></svg>