<svg id="Layer_1" enable-background="new 0 0 512 512" height="512" viewBox="0 0 512 512" width="512" xmlns="http://www.w3.org/2000/svg"><g><path d="m45.453 392.324 421.094.001c21.874-36.67 34.455-79.526 34.455-125.327 0-135.311-109.691-245.002-245.002-245.002s-245.003 109.691-245.003 245.002c.001 45.8 12.581 88.657 34.456 125.326z" fill="#fb7ac0"/><path d="m236.048 34.202c-.965 13.63 5.225 27.22 18.397 40.392 39.317 39.317 75.911 142.754 77.84 148.264.075 2.739 1.23 24.477 18.77 38.491 14.257 11.39 35.165 14.298 62.133 8.688.322-.582.655-1.159 1-1.729 4.378-7.231 6.898-15.711 6.898-24.782 0-13.878-5.897-26.373-15.321-35.126-11.591-10.766-14.294-26.214-10.142-38.842 15.455-47.001-19.175-64.047-41.445-122.926-19.365-51.198-74.152-47.961-91.875-45.46-2.09.295-4.197.406-6.303.369-.778.014-1.557-.001-2.335-.029-4.244 3.642-16.399 15.497-17.617 32.69z" fill="#56415e"/><path d="m255.999 1.541c-2.106.037-4.213-.074-6.303-.369-17.724-2.501-72.51-5.738-91.875 45.461-22.27 58.878-56.9 75.924-41.445 122.926 4.152 12.627 1.449 28.076-10.142 38.842-9.424 8.753-15.321 21.248-15.321 35.126 0 9.071 2.52 17.55 6.898 24.782 5.489 9.068 8.023 19.661 6.864 30.197-1.496 13.607.895 28.977 12.121 43.667h139.203 139.204c11.227-14.69 13.618-30.06 12.121-43.667-1.159-10.536 1.374-21.13 6.864-30.197-79.837 17.308-80.407-45.718-80.407-45.718s-37.365-108.146-78.275-149.056.493-71.994.493-71.994z" fill="#47354f"/><path d="m393.906 469.511 37.6-31.59c13.377-13.736 25.16-29.032 35.04-45.596-1.042-2.678-2.143-5.223-3.324-7.585-16.14-32.28-44.467-41.293-57.374-43.772 0 0-18.28-3.338-39.65-9.93-4.77 11.01-9.968 21.37-15.6 31.008-16.562 28.343-41.648 50.391-72.546 63.758-13.574 5.873-29.145 5.872-42.723 0-14.66-6.342-27.992-14.66-39.746-24.656-.216.125-.425.256-.643.38-4.041-.073-32.644.199-54.573 21.292-11.956 11.501-19.587 27.03-22.847 46.302 39.395 27.045 87.085 42.878 138.48 42.878 51.147 0 98.624-15.682 137.906-42.489z" fill="#ffdd40"/><path d="m195.321 403.039c.5-.284.985-.578 1.478-.866-13.547-11.281-25.041-24.77-34.014-40.127-5.698-9.753-10.951-20.24-15.765-31.385-21.891 6.844-40.87 10.307-40.87 10.307-12.907 2.478-41.233 11.492-57.374 43.772-1.181 2.362-2.282 4.906-3.323 7.584 18.486 30.989 43.62 57.55 73.43 77.724 11.354-69.526 76.438-67.009 76.438-67.009z" fill="#ffb332"/><path d="m299.921 284.068c0-6.104 0-4.275 0-8.227-9.456 8.454-24.918 18.959-38.791 21.452-1.153 8.102-3.383 19.297-7.691 31.604-7.832 22.369-24.331 53.09-58.496 72.632-.311-.006-.783-.008-1.37 0 12.107 10.471 25.913 19.152 41.127 25.734 13.98 6.046 30.008 6.046 43.985 0 31.21-13.503 56.553-35.777 73.287-64.415 5.692-9.74 10.941-20.21 15.756-31.34-30.363-9.213-67.807-25.101-67.807-47.44z" fill="#ffaa7b"/><path d="m255.999 297.84c-15.029-.364-33.279-12.485-43.921-21.999v8.227c0 22.04-36.447 37.799-66.584 47.065 4.858 11.267 10.162 21.863 15.919 31.715 8.971 15.352 20.436 28.854 33.932 40.177 50.906-28.911 63.996-81.832 67.356-106.046-2.279.502-4.525.808-6.702.861z" fill="#fc9460"/><path d="m171.473 191.647s-5.283-33.432.802-53.342c-5.52-3.68-16.186-5.477-20.984-.787-9.821 9.602-2.625 24.101.819 33.26 1.057 2.812 1.739 5.656 2.048 8.506.67 6.192 4.027 15.254 17.947 15.04-.212-.892-.427-1.77-.632-2.677z" fill="#fc9460"/><path d="m362.096 137.519c-4.797-4.69-15.463-2.893-20.984.787 6.084 19.91.802 53.342.802 53.342-.206.907-.421 1.785-.632 2.677 13.92.214 17.277-8.849 17.947-15.04.308-2.85.99-5.694 2.048-8.506 3.445-9.16 10.641-23.659.819-33.26z" fill="#ffaa7b"/><path d="m336.534 127.947c-2.006-2.26-3.109-4.901-3.19-7.636-.31-10.41-2.939-35.891-20.598-47.65-12.526-8.341-30.134-8.254-52.337.26-2.396.919-5.035.919-7.431 0-.181-.07-.356-.127-.537-.196-14.831 12.908-17.193 36.121-17.488 46.028-.083 2.803-1.213 5.507-3.269 7.823-11.328 12.765-8.847 50.061-6.204 65.415 5.853 25.835 14.331 48.361 25.196 66.956 7.938 13.585 18.823 24.985 31.966 33.632 14.698-8.697 26.785-20.756 35.354-35.421 10.604-18.145 18.88-40.135 24.605-65.402 2.478-15.756 5.117-51.205-6.067-63.809z" fill="#ffc7ab"/><g><path d="m251.489 257.158c-10.605-18.151-18.881-40.139-24.595-65.357-2.58-14.988-5.002-51.393 6.056-63.853 2.007-2.26 3.11-4.9 3.191-7.636.303-10.161 2.823-34.675 19.364-46.777-.858-.099-1.708-.298-2.528-.612-22.203-8.512-39.812-8.6-52.336-.262-17.659 11.759-20.288 37.241-20.598 47.651-.081 2.736-1.185 5.376-3.191 7.636-11.058 12.461-8.636 48.865-6.056 63.853 5.713 25.218 13.989 47.206 24.594 65.357 10.767 18.426 27.072 32.757 47.152 41.445 8.994 3.89 19.307 3.89 28.299 0 4.865-2.105 9.503-4.547 13.899-7.293-13.749-8.586-25.093-20.19-33.251-34.152z" fill="#ffaa7b"/></g><g><path d="m231.38 243.033c-1.979-2.839-1.281-6.745 1.557-8.724 1.265-.883 31.282-21.431 55.42-5.986 2.915 1.866 3.766 5.741 1.899 8.656-1.866 2.915-5.74 3.765-8.655 1.9-6.998-4.478-15.986-4.955-26.723-1.416-8.535 2.814-14.713 7.084-14.774 7.127-2.833 1.976-6.741 1.289-8.724-1.557z" fill="#fc9460"/></g><g><path d="m283.734 151.04c-2.219-.077-4.334-1.309-5.441-3.414-1.643-3.124-.442-6.988 2.682-8.63.657-.345 16.249-8.347 32.971.049 3.155 1.584 4.427 5.424 2.844 8.578-1.585 3.154-5.431 4.426-8.578 2.843-10.741-5.393-21.188-.213-21.289-.159-1.018.537-2.116.77-3.189.733z" fill="#47354f"/></g><g><path d="m223.864 147.316c2.128-.632 3.865-2.357 4.407-4.673.804-3.437-1.33-6.874-4.766-7.678-.723-.168-17.826-3.992-31.899 8.34-2.655 2.326-2.921 6.363-.595 9.018 2.327 2.654 6.369 2.918 9.018.595 9.039-7.922 20.454-5.535 20.565-5.508 1.12.262 2.242.211 3.27-.094z" fill="#47354f"/></g><path d="m321.683 170.961c-5.347-6.032-10.508-9.516-15.29-11.291.939 2.265 1.465 4.89 1.436 7.684-.048 4.743-1.682 8.951-4.2 11.713 3.983-.895 7.096-2.191 9.017-3.187 3.887-2.016 6.819-2.817 8.561-3.135.725-.132 1.005-1.187.476-1.784z" fill="#edeef2"/><path d="m285.478 167.043c.021-2.04.339-3.979.89-5.75-2.384 1.314-4.311 2.828-5.675 4.105-3.111 2.91-8.505 6.583-11.458 8.522-.558.367-.342 1.365.298 1.374l.289.004c2.722.037 5.424.573 8 1.608 4.459 1.793 8.732 2.713 12.691 3.053-3.076-2.753-5.09-7.516-5.035-12.916z" fill="#edeef2"/><path d="m277.42 168.142c-2.843 2.205-6.114 4.417-8.185 5.777-.558.367-.342 1.365.298 1.374l.289.004c2.722.037 5.424.573 8 1.608.435.175.867.335 1.298.493-1.177-2.015-1.872-4.573-1.844-7.356.007-.649.061-1.281.144-1.9z" fill="#fc9460"/><path d="m285.482 161.801c-.67 1.744-1.054 3.674-1.074 5.71-.052 5.269 2.331 9.903 5.919 12.431 5.206.47 9.872-.068 13.699-.966 2.832-2.581 4.673-6.596 4.717-11.133.029-2.972-.716-5.743-2.015-8.048-8.694-3.361-16.159-1.042-21.246 2.006z" fill="#6c5475"/><path d="m297.515 164.093c0-2.225-.666-4.257-1.763-5.824-4.006.424-7.492 1.868-10.269 3.532-.671 1.744-1.054 3.674-1.075 5.71-.008.786.045 1.554.141 2.307 1.344 1.979 3.37 3.239 5.637 3.239 4.048.001 7.329-4.013 7.329-8.964z" fill="#47354f"/><path d="m191.707 170.961c5.348-6.032 10.508-9.516 15.29-11.291-.939 2.265-1.464 4.89-1.436 7.684.048 4.743 1.682 8.951 4.2 11.713-3.984-.895-7.097-2.191-9.017-3.187-3.887-2.016-6.819-2.817-8.561-3.135-.724-.132-1.005-1.187-.476-1.784z" fill="#edeef2"/><path d="m227.913 167.043c-.021-2.04-.339-3.979-.89-5.75 2.384 1.314 4.31 2.828 5.675 4.105 3.111 2.91 8.505 6.583 11.458 8.522.559.367.342 1.365-.298 1.374l-.29.004c-2.722.037-5.424.573-8 1.608-4.459 1.793-8.732 2.713-12.691 3.053 3.077-2.753 5.091-7.516 5.036-12.916z" fill="#edeef2"/><path d="m235.971 168.142c2.843 2.205 6.114 4.417 8.185 5.777.559.367.342 1.365-.298 1.374l-.29.004c-2.722.037-5.424.573-8 1.608-.435.175-.867.335-1.298.493 1.177-2.015 1.872-4.573 1.844-7.356-.006-.649-.061-1.281-.143-1.9z" fill="#fc9460"/><path d="m227.908 161.801c.67 1.744 1.054 3.674 1.074 5.71.052 5.269-2.331 9.903-5.919 12.431-5.206.47-9.872-.068-13.699-.966-2.831-2.581-4.673-6.596-4.717-11.133-.029-2.972.716-5.743 2.015-8.048 8.694-3.361 16.159-1.042 21.246 2.006z" fill="#6c5475"/><path d="m215.876 164.093c0-2.225.666-4.257 1.763-5.824 4.006.424 7.492 1.868 10.269 3.532.671 1.744 1.054 3.674 1.075 5.71.008.786-.045 1.554-.141 2.307-1.344 1.979-3.37 3.239-5.637 3.239-4.048.001-7.329-4.013-7.329-8.964z" fill="#47354f"/><path d="m501.002 266.998c0-53.786-17.345-103.513-46.729-143.922-12.964 11.573-24.668 31.284-10.415 60.919 18.043 37.514 11.399 81.207 6.081 103.248-3.876 16.065 1.19 33.185 13.696 43.987 6.399 5.527 14.879 9.644 25.972 9.798 7.401-23.356 11.395-48.225 11.395-74.03z" fill="#fc90ce"/><path d="m10.998 266.998c0-53.786 17.346-103.513 46.729-143.922 12.964 11.573 24.668 31.284 10.415 60.919-18.043 37.514-11.399 81.207-6.081 103.248 3.876 16.065-1.19 33.185-13.696 43.987-6.399 5.527-14.879 9.644-25.972 9.798-7.401-23.356-11.395-48.225-11.395-74.03z" fill="#fc90ce"/><path d="m431.506 437.921c-2.563-4.655-5.331-8.81-8.163-12.498-9.562-12.457-29.438-5.819-29.438 9.885v34.204c13.576-9.265 26.172-19.856 37.601-31.591z" fill="#ffb332"/></g></svg>