<svg id="Layer_1" enable-background="new 0 0 512 512" height="512" viewBox="0 0 512 512" width="512" xmlns="http://www.w3.org/2000/svg"><g><path d="m83.939 441.395h344.121c45.025-44.426 72.942-106.147 72.942-174.397 0-135.311-109.691-245.002-245.002-245.002s-245.002 109.691-245.002 245.002c0 68.25 27.916 129.971 72.941 174.397z" fill="#816ae2"/><path d="m256 0c-33.34 0-65.026 8.075-93.662 22.583-4.025 6.149-13.761 23.686-9.958 44.668 3.231 17.822 15.446 33.5 36.312 46.61l-2.019 19.95c-.961 1.458-4.545 7.35-5.788 15.857-1.301 8.903-.157 22.436 12.68 36.35 22.736 24.644 22.956 83.916 22.944 87.776-.553 2.015-4.444 17.202-1.603 35.59 2.76 17.855 12.695 42.038 44.315 56.02l20.647 25.184c-2.046 5.962-13.394 42.615 5.367 72.352 10.561 16.739 28.55 28.341 53.642 34.676 33.785-12.148 64.133-31.503 89.182-56.219 36.888-46.862 59.344-108.864 59.344-176.869.001-146.095-103.602-264.528-231.403-264.528z" fill="#ffdd40"/><path d="m281.566 390.29-21.412-26.116c-60.513-26.492-42.147-90.171-42.147-90.171s.733-62.911-23.341-89.003-6.54-50.662-6.54-50.662l2.15-21.256c-64.776-40.078-25.471-91.462-25.13-91.904-82.636 40.369-140.55 134.123-140.55 243.348 0 68.004 22.456 130.006 59.344 176.868 44.24 43.653 104.999 70.606 172.06 70.606 30.036 0 58.802-5.422 85.391-15.315-92.273-21.858-59.825-106.395-59.825-106.395z" fill="#ffc839"/><g><path d="m345.279 418.127c-1.999 0-4.02-.56-5.82-1.733-76.739-49.985-146.074-27.401-146.766-27.167-5.588 1.889-11.652-1.107-13.543-6.695-1.891-5.589 1.106-11.651 6.694-13.543 3.223-1.091 79.942-26.081 165.275 29.504 4.943 3.219 6.341 9.837 3.121 14.781-2.048 3.143-5.47 4.853-8.961 4.853z" fill="#ff8f33"/></g><path d="m343.208 230.557-2.196 37.745c-2.167 2.085-10.91 11.27-11.292 24.001-.248 8.255 3.093 16.219 9.919 23.709 2.879.526 5.821.808 8.817.808 26.479 0 48.959-21.286 57.092-50.886-18.633-18.767-41.121-29.422-62.34-35.377z" fill="#deeeff"/><path d="m342.474 268.988 2.212-38.014c-21.059-6.113-40.992-7.538-54.821-7.554-1.146 5.796-1.765 11.852-1.765 18.089 0 38.898 23.636 70.902 53.964 74.887-24.652-25.178.41-47.408.41-47.408z" fill="#d3dcfb"/><path d="m320.101 225.567c-3.21 4.497-5.105 9.997-5.105 15.943 0 15.176 12.302 27.478 27.478 27.478s27.478-12.302 27.478-27.478c0-.322-.014-.641-.025-.961-16.922-8.34-34.412-12.755-49.826-14.982z" fill="#6c5475"/><path d="m222.105 223.253c-16.211.037-40.665 2.012-65.513 11.095l21.297 32.741c-1.816 3.202-7.673 14.837-3.907 25.869 2.369 6.939 8.072 12.201 16.94 15.661 19.568-12.453 32.978-37.819 32.978-67.109 0-6.298-.628-12.41-1.795-18.257z" fill="#deeeff"/><path d="m163.545 316.82c10.484 0 20.342-3.34 28.933-9.207-31.265-11.387-12.824-40.56-12.824-40.56l-21.609-33.222c-17.908 6.353-36.101 16.34-51.635 31.938 8.093 29.685 30.607 51.051 57.135 51.051z" fill="#d3dcfb"/><path d="m191.899 225.567c3.21 4.497 5.105 9.997 5.105 15.943 0 15.176-12.302 27.478-27.478 27.478s-27.478-12.302-27.478-27.478c0-.322.014-.641.025-.961 16.922-8.34 34.412-12.755 49.826-14.982z" fill="#6c5475"/><g><path d="m406.807 168.504c-2.956 0-5.899-1.22-8.01-3.61-30.373-34.384-73.126-30.727-74.932-30.555-5.857.56-11.085-3.723-11.665-9.579-.58-5.857 3.668-11.078 9.523-11.678 2.24-.23 55.281-5.13 93.086 37.667 3.906 4.422 3.488 11.173-.934 15.079-2.031 1.794-4.555 2.676-7.068 2.676z" fill="#6c5475"/></g><g><path d="m105.193 168.504c-2.514 0-5.036-.882-7.068-2.676-4.422-3.906-4.839-10.657-.934-15.079 37.804-42.796 90.848-37.895 93.086-37.667 5.869.602 10.139 5.847 9.538 11.716-.601 5.86-5.838 10.12-11.688 9.541-1.93-.185-44.597-3.776-74.923 30.555-2.112 2.389-5.055 3.61-8.011 3.61z" fill="#6c5475"/></g><path d="m348.455 166.199c-28.657 0-52.63 24.928-58.799 58.348 26.681-.169 79.028 4.865 115.587 42.505 2.305-7.977 3.567-16.575 3.567-25.543 0-41.592-27.022-75.31-60.355-75.31z" fill="#ffc839"/><path d="m163.545 166.199c28.657 0 52.63 24.928 58.799 58.348-26.681-.169-79.028 4.865-115.587 42.505-2.305-7.977-3.567-16.575-3.567-25.543 0-41.592 27.022-75.31 60.355-75.31z" fill="#ffb332"/></g></svg>