<svg id="Layer_1" enable-background="new 0 0 512 512" height="512" viewBox="0 0 512 512" width="512" xmlns="http://www.w3.org/2000/svg"><g><path d="m256 21.996c-135.311 0-245.003 109.691-245.003 245.002 0 112.738 76.152 207.676 179.819 236.219l140.546-3.046c98.433-31.792 169.639-124.159 169.639-233.173.001-135.311-109.69-245.002-245.001-245.002z" fill="#e80054"/><path d="m185.713 303.35c3.27 4.118 5.05 9.221 5.05 14.479l.055 185.387c20.756 5.716 42.609 8.784 65.182 8.784 26.297 0 51.619-4.16 75.363-11.829l-.028-191.174c0-4.088 1.43-8.154 3.519-12.701-65.703 57.204-149.141 7.054-149.141 7.054z" fill="#ffaa7b"/><g fill="#ffc7ab"><path d="m307.523 146.767c0-.02 0-.034 0-.043z"/><g><path d="m307.523 146.911c0-.025 0-.044 0-.063z"/><path d="m307.523 146.965s0-.029 0-.054z"/><path d="m307.523 146.84c0-.021 0-.058 0-.073z"/><path d="m307.523 146.849v-.009z"/><path d="m329.481 125.032c-11.382 0-20.69 8.684-21.778 19.78l-.181 2.155v-.002c0 .107.002-1.403.024-15.247 0-12.114-9.821-21.935-21.935-21.935s-21.935 9.821-21.935 21.935v-106.993c0-11.894-9.249-22.023-21.135-22.446-12.479-.444-22.735 9.541-22.735 21.921v102.529c0-12.114-9.821-21.935-21.935-21.935s-21.935 9.82-21.935 21.935l-.001 63.947-15.846-39.234c-.788-1.952-1.718-3.851-2.897-5.595-7.303-10.797-19.632-13.66-28.973-13.293-3.82.15-7.133 1.642-9.646 3.941l5.871 41.346c6.983 19.725 12.634 41.565 15.897 55.609.02.087.041.173.061.26 2.871 12.225 9.059 23.381 17.607 32.52 5.109 7.453 13.543 18.833 27.703 37.122.856 1.078 1.604 2.226 2.25 3.424 6.962 3.705 24.554 12.143 47.336 16.364 11.774 2.182 25.924 3.329 41.002 1.432h.001c.021-.003.043-.006.064-.009.712-.09 1.424-.179 2.141-.283-.008-.005-.014-.011-.021-.016 17.835-2.582 36.857-9.504 54.732-24.115 4.992-13.123 18.2-29.373 18.2-63.258v-91.882c-.996-11.192-10.487-19.977-21.936-19.977z"/></g></g><path d="m118.573 136.495c-4.844 4.432-6.711 11.867-3.481 18.493 3.299 6.769 6.441 14.628 9.352 22.852 8.63-2.145 14.791-12.337 8.647-25.763-4.099-8.959-10.209-13.427-14.518-15.582z" fill="#fce4d9"/><path d="m242.061 42.619h-2.191c-8.788 0-15.978-7.19-15.978-15.977v-10.665c0-8.787 7.19-15.977 15.977-15.977h2.191c8.788 0 15.977 7.19 15.977 15.977v10.664c.001 8.788-7.189 15.978-15.976 15.978z" fill="#fce4d9"/><g fill="#ff4155"><path d="m335.656 35.248c-3.575 18.089.691 43.668 31.344 74.322 62.33 62.33 61 142.66 32 200.66-25.006 50.013-53.718 120.096 1.677 154.48 60.823-44.576 100.325-116.523 100.325-197.712 0-107.424-69.141-198.69-165.346-231.75z"/><path d="m33.691 163.922c-14.553 31.334-22.693 66.252-22.693 103.076 0 86.069 44.389 161.759 111.518 205.456 57.014-62.744-.576-191.628-27.516-251.224-13.053-28.875-37.058-46.519-61.309-57.308z"/></g></g></svg>