<svg id="Layer_1" enable-background="new 0 0 511.993 511.993" height="512" viewBox="0 0 511.993 511.993" width="512" xmlns="http://www.w3.org/2000/svg"><g><path d="m73.456 430.389 393.888-39.425c21.38-36.369 33.655-78.734 33.655-123.972 0-135.311-109.691-245.002-245.002-245.002s-245.002 109.69-245.002 245.001c0 62.785 23.627 120.044 62.461 163.398z" fill="#47cb8f"/><path d="m248.991 10.444c-13.79 8.157-29.473 22.229-25.871 42.938l2.912 16.743c1.915 11.01 11.415 19 22.589 19h44.742c.527-1.188 1.037-2.399 1.51-3.656 7.923-21.026 12.608-44.752 17.878-58.748 1.302-3.458.293-7.385-2.537-9.759-5.671-4.757-16.178-10.013-29.333-.449-3.229 2.348-7.47 1.894-10.132-.911-4.65-4.898-9.892-8.617-15.458-11.202-1.578 2.403-3.683 4.497-6.3 6.044z" fill="#2a428b"/><path d="m248.621 87.625c-10.418 0-19.327-7.493-21.112-17.757l-2.912-16.743c-3.447-19.818 11.668-33.41 25.157-41.389 2.895-1.712 5.204-4.026 6.913-6.676-18.676-9.408-41.362-5.62-57.915 10.738-2.902 2.868-7.422 2.826-10.338.789-12.146-8.482-22.622-4.006-28.605.344-3.201 2.327-4.477 6.484-3.101 10.195 5.209 14.046 9.88 37.519 17.727 58.344 6.509 17.275 18.452 27.936 24.48 32.467.335-.026.67-.051 1.012-.051h69.446c.344 0 .683.026 1.02.052 5.771-4.337 16.95-14.311 23.606-30.311h-45.378z" fill="#1d2e79"/><path d="m155.696 242.748c7.278 14.496 21.285 23.922 41.639 28.029-.078 4.504.34 19.261 8.58 28.029 4.097 4.358 9.507 6.568 16.082 6.568 6.516 0 10.856 1.69 12.901 5.025 3.943 6.432-1.443 17.186-1.499 17.293l-.173.342.011.382c.025.896.781 22.004 14.797 28.485 11.64 5.384 11.273 30.63 11.195 33.432-.761 1.927-4.822 13.21.482 22.24 3.254 5.543 9.312 9.015 18.025 10.337-3.34 7.326-13.796 33.911-1.759 57.031 6.074 11.667 16.916 20.504 32.355 26.433 13.684-2.98 26.944-7.094 39.671-12.255l-.013-.002 52.682-46.968c-15.868-42.015-13.407-142.639-31.642-199.368-19.633-61.082-90.612-82.889-90.612-82.889-9.752 0-77.786 0-87.537 0 0 0-16.154 4.968-35.179 16.789-5.089 15.813-10.116 40.935-.006 61.067z" fill="#2a428b"/><path d="m311.023 505.768c-62.977-22.476-31.038-84.077-31.038-84.077-31.011-3.351-19.266-31.04-19.266-31.04s1.277-28.942-12.056-35.109-13.928-27.167-13.928-27.167 12.511-24.5-12.739-24.5-23.12-34.325-23.12-34.325c-59.413-11.204-49.52-63.988-41.14-89.114-21.287 12.829-46.865 34.357-57.468 67.345-16.127 50.171-16.066 134.675-26.812 182.608 44.86 50.081 110.014 81.604 182.54 81.604 18.923 0 37.338-2.162 55.027-6.225z" fill="#1d2e79"/><path d="m260.906 223.297c7.251 0 13.128-5.878 13.128-13.128v-45.276c-5.769 0-15.456 0-26.257 0v45.276c0 7.251 5.878 13.128 13.129 13.128z" fill="#ade9f7"/><path d="m269.372 115.703h-69.447c-7.251 0-13.128 5.878-13.128 13.128 0 7.251 5.878 13.128 13.128 13.128h69.447c7.251 0 13.128-5.878 13.128-13.128.001-7.25-5.877-13.128-13.128-13.128z" fill="#ade9f7"/><path d="m197.335 270.777c-.078 4.504.34 19.261 8.58 28.029 4.097 4.358 9.507 6.568 16.082 6.568 6.516 0 10.856 1.69 12.901 5.025 3.943 6.432-1.443 17.186-1.499 17.293l-.173.342.011.382c.025.896.781 22.004 14.797 28.485 11.64 5.384 11.273 30.63 11.195 33.432-.761 1.927-4.822 13.21.482 22.24 3.254 5.543 9.312 9.015 18.025 10.337-.024.053-.052.116-.077.171 25.95-14.92 43.463-42.927 43.463-74.948 0-47.634-38.753-86.386-86.387-86.386-13.669 0-26.604 3.196-38.105 8.873.238.051.465.109.705.157z" fill="#5071b3"/><path d="m279.985 421.691c-31.011-3.351-19.266-31.04-19.266-31.04s1.277-28.942-12.056-35.109-13.928-27.167-13.928-27.167 12.511-24.5-12.739-24.5-23.12-34.325-23.12-34.325c-29.785 13.645-50.528 43.737-50.528 78.584 0 47.634 38.753 86.386 86.386 86.386 16.582 0 32.083-4.699 45.251-12.829z" fill="#3f57a0"/><g><path d="m234.736 412.31c-4.217 0-7.635-3.418-7.635-7.635v-113.081c0-4.217 3.418-7.635 7.635-7.635s7.635 3.418 7.635 7.635v113.081c0 4.216-3.418 7.635-7.635 7.635z" fill="#ffd402"/></g><path d="m357.694 373.241c0-9.775 7.924-17.699 17.699-17.699h-57.171c-9.775 0-17.699 7.924-17.699 17.699s7.924 17.699 17.699 17.699h57.171c-9.776-.001-17.699-7.925-17.699-17.699z" fill="#fef156"/><path d="m421.336 373.241c0-9.775-7.924-17.699-17.699-17.699h-30.245c-9.775 0-17.699 7.924-17.699 17.699s7.924 17.699 17.699 17.699h30.245c9.776-.001 17.699-7.925 17.699-17.699z" fill="#fffbb3"/><path d="m467.344 390.964c-1.069-.202-2.171-.313-3.3-.313h-85.416c-9.775 0-17.699 7.924-17.699 17.699s7.924 17.699 17.699 17.699h63.707c9.321-10.909 17.696-22.646 25.009-35.085z" fill="#ffd402"/><path d="m441.862 425.76h-85.416c-9.775 0-17.699 7.924-17.699 17.699s7.924 17.699 17.699 17.699h48.961c13.582-10.467 26.033-22.324 37.144-35.363-.231-.009-.457-.035-.689-.035z" fill="#fef156"/><path d="m356.446 460.869c-9.775 0-17.699 7.924-17.699 17.699 0 6.712 3.737 12.55 9.242 15.55 20.846-8.452 40.264-19.686 57.793-33.249z" fill="#ffd402"/><path d="m423.694 310.789c-6.566-6.293-3.038-19.381-3.002-19.513l.052-.301c.07-1.057 1.591-26.027-10.923-38.843-4.727-4.841-10.833-7.288-18.17-7.288-.484 0-.975.011-1.469.031-8.463.381-14.382-1.691-17.588-6.115-4.263-5.884-2.94-14.735-1.733-19.597-16.411 10.756-27.258 29.299-27.258 50.386 0 33.255 26.959 60.214 60.214 60.214 16.489 0 31.425-6.634 42.3-17.371-10.667 2.966-18.208 2.436-22.423-1.603z" fill="#fef156"/><path d="m403.817 209.335c-12.965 0-24.963 4.112-34.79 11.083-1.931 9.179-2.652 26.987 21.22 25.957 32.076-1.384 29 44.5 29 44.5s-8.748 31.424 24.589 23.652c12.387-11.029 20.196-27.088 20.196-44.977-.001-33.256-26.96-60.215-60.215-60.215z" fill="#fffbb3"/><path d="m434.581 269.55c0-16.964-13.801-30.765-30.764-30.765-16.964 0-30.765 13.801-30.765 30.765s13.801 30.765 30.765 30.765c16.964-.001 30.764-13.801 30.764-30.765z" fill="#ffd402"/><path d="m277.744 140.818h-86.19c-7.251 0-13.128 5.878-13.128 13.128 0 7.251 5.878 13.128 13.128 13.128h86.19c7.251 0 13.128-5.878 13.128-13.128 0-7.251-5.877-13.128-13.128-13.128z" fill="#e8f8fc"/><g><path d="m235.66 403.011c-.981 0-1.979-.042-2.997-.127-10.734-.9-16.867-2.174-26.689-9.95-3.306-2.617-3.865-7.419-1.248-10.725 2.618-3.305 7.419-3.866 10.726-1.247 6.57 5.2 9.553 5.957 18.487 6.705 10.3.851 16.518-6.375 17.939-13.467.55-2.742 1.486-11.965-9.534-15.519l-19.954-6.574c-17.11-5.517-22.267-20.578-19.767-33.05 2.794-13.945 15.422-27.238 34.178-25.672 10.735.9 16.867 2.175 26.69 9.95 3.306 2.617 3.865 7.419 1.248 10.725-2.618 3.307-7.419 3.868-10.726 1.247-6.57-5.2-9.553-5.957-18.487-6.705-10.3-.856-16.511 6.371-17.931 13.455-.55 2.746-1.489 11.979 9.527 15.531l19.954 6.574c17.113 5.518 22.273 20.572 19.775 33.038-2.645 13.196-14.096 25.809-31.191 25.811z" fill="#fef156"/></g><g fill="#94dc79"><path d="m355.19 42.917c-17.912 21.141-44.485 62.767-11.588 95.665 37.95 37.951 94.117 50.014 134.173 24.197-25.057-53.232-68.706-95.975-122.585-119.862z"/><path d="m104.663 170.543c44.439-28.201 23.775-78.489 9.54-103.376-62.461 44.401-103.208 117.354-103.208 199.824 0 22.853 3.144 44.969 8.999 65.955.756-.358 1.501-.728 2.221-1.121 12.974-7.081 21.232-20.507 22.416-35.241 2.267-28.198 12.632-95.961 60.032-126.041z"/></g></g></svg>