<svg id="Capa_1" enable-background="new 0 0 512 512" height="512" viewBox="0 0 512 512" width="512" xmlns="http://www.w3.org/2000/svg"><g><g><g><path d="m466.166 383.334c18.709-34.61 29.334-74.23 29.334-116.334 0-135.31-109.69-245-245-245s-245 109.69-245 245c0 42.104 10.625 81.724 29.334 116.334z" fill="#b1e4f9"/></g></g><g><g><circle cx="250.5" cy="222" fill="#90d8f9" r="180"/></g></g><g><g><path d="m250.5 512c93.206 0 174.251-52.05 215.666-128.666.148-2.497.243-5.008.243-7.542 0-34.366-14.014-67.245-38.805-91.045l-161.195-154.747h-31.819l-161.195 154.747c-24.791 23.799-38.805 56.679-38.805 91.045 0 2.534.096 5.045.243 7.542 41.416 76.616 122.461 128.666 215.667 128.666z" fill="#c3785c"/></g></g><g><g><path d="m194.394 405.809c-43.66-97.277 56.106-274.492 56.106-274.492v-1.317h-15.909l-161.196 154.747c-24.791 23.799-38.805 56.679-38.805 91.045 0 2.534.096 5.045.243 7.542 41.416 76.616 122.461 128.666 215.667 128.666 34.213 0 66.783-7.021 96.361-19.688-1.971.187-109.21 9.878-152.467-86.503z" fill="#a05838"/></g></g><path d="m262.806 349.283h-24.612c-6.796 0-12.306-5.51-12.306-12.306s5.509-12.306 12.306-12.306h41.985c6.796 0 12.306-5.51 12.306-12.306 0-6.796-5.509-12.306-12.306-12.306h-17.373v-12.306c0-6.796-5.51-12.306-12.306-12.306-6.796 0-12.306 5.509-12.306 12.306v12.306c-20.389 0-36.918 16.529-36.918 36.917 0 20.389 16.529 36.918 36.918 36.918h24.612c6.796 0 12.306 5.51 12.306 12.306s-5.51 12.306-12.306 12.306h-41.985c-6.796 0-12.306 5.51-12.306 12.306s5.51 12.306 12.306 12.306h17.373v12.306c0 6.796 5.509 12.306 12.306 12.306 6.796 0 12.306-5.51 12.306-12.306v-12.306c20.389 0 36.918-16.529 36.918-36.917-.001-20.39-16.529-36.918-36.918-36.918z" fill="#7f3822"/><g><g><path d="m319.836 17.333c-17.332 0-17.332-17.333-34.665-17.333s-17.338 17.333-34.671 17.333-17.338-17.333-34.671-17.333c-17.332 0-17.332 17.333-34.665 17.333-4.304 0-7.54-1.069-10.237-2.676-10.77-6.417-24.427 1.685-24.427 14.222 0 3.745 1.285 7.376 3.64 10.287l73.493 90.834h53.733l73.493-90.834c2.355-2.911 3.64-6.542 3.64-10.287 0-12.537-13.657-20.639-24.427-14.222-2.696 1.607-5.932 2.676-10.236 2.676z" fill="#c3785c"/></g></g><g><g><path d="m188.947 15.88c-2.179.9-4.704 1.453-7.783 1.453-4.304 0-7.54-1.069-10.237-2.676-10.77-6.417-24.427 1.685-24.427 14.222 0 3.745 1.285 7.376 3.64 10.287l73.493 90.834h53.733l26.333-32.546c-71.1-9.537-102.733-56.486-114.752-81.574z" fill="#a05838"/></g></g><g><g><path d="m250.5 142.941c-13.449 0-26.893-1.445-39.96-4.294-4.047-.882-6.612-4.878-5.729-8.926.882-4.047 4.879-6.614 8.926-5.729 24.028 5.239 49.462 5.245 73.528-.003 4.046-.883 8.043 1.683 8.925 5.729.883 4.047-1.683 8.043-5.729 8.926-13.078 2.852-26.522 4.297-39.961 4.297z" fill="#f1e0c7"/></g></g><g><g><path d="m290.393 181.989c-4.142 0-7.5-3.358-7.5-7.5v-3.279c0-17.862-14.531-32.394-32.393-32.394s-32.393 14.532-32.393 32.394v3.279c0 4.142-3.358 7.5-7.5 7.5s-7.5-3.358-7.5-7.5v-3.279c0-26.133 21.26-47.394 47.393-47.394s47.393 21.261 47.393 47.394v3.279c0 4.142-3.358 7.5-7.5 7.5z" fill="#f9efdc"/></g></g><g><g><g><path d="m243 153.816c-4.142 0-7.5-3.358-7.5-7.5v-30c0-4.142 3.358-7.5 7.5-7.5s7.5 3.358 7.5 7.5v30c0 4.142-3.358 7.5-7.5 7.5z" fill="#fcf9f0"/></g></g><g><g><path d="m258 153.816c-4.142 0-7.5-3.358-7.5-7.5v-30c0-4.142 3.358-7.5 7.5-7.5s7.5 3.358 7.5 7.5v30c0 4.142-3.358 7.5-7.5 7.5z" fill="#fcf9f0"/></g></g></g><g><g><g><circle cx="406.5" cy="412" fill="#ffdd40" r="100"/></g></g><g><g><circle cx="406.5" cy="412" fill="#ffc839" r="85"/></g></g><g><g><path d="m379.172 412c0-36.75 23.447-68.12 56.164-79.956-9.008-3.259-18.717-5.044-28.836-5.044-46.869 0-85 38.131-85 85s38.131 85 85 85c10.119 0 19.828-1.785 28.836-5.044-32.717-11.836-56.164-43.206-56.164-79.956z" fill="#ffb332"/></g></g><g><g><path d="m471.638 357.469c-3.219-3.838-6.768-7.388-10.606-10.606l-47.032 47.031v-66.544c-2.473-.217-4.971-.35-7.5-.35s-5.027.132-7.5.35v66.544l-47.031-47.031c-3.838 3.219-7.388 6.768-10.606 10.606l47.031 47.031h-66.544c-.217 2.473-.35 4.971-.35 7.5s.132 5.027.35 7.5h66.544l-47.031 47.031c3.219 3.838 6.768 7.388 10.606 10.606l47.031-47.031v66.544c2.473.217 4.971.35 7.5.35s5.027-.132 7.5-.35v-66.544l47.031 47.031c3.838-3.219 7.388-6.768 10.606-10.606l-47.031-47.031h66.544c.217-2.473.35-4.971.35-7.5s-.132-5.027-.35-7.5h-66.544z" fill="#ffa219"/></g></g><g><g><circle cx="406.5" cy="412" fill="#ffdd40" r="55"/></g></g><g><g><path d="m398.977 466.472c-12.356-14.76-19.805-33.761-19.805-54.472s7.448-39.712 19.805-54.472c-26.779 3.68-47.477 26.698-47.477 54.472s20.698 50.792 47.477 54.472z" fill="#ffc839"/></g></g></g><g><g><path d="m426.479 166.029c-4.099 6.24-9.993 12.666-18.465 18.17-1.683 1.094-1.683 3.533 0 4.626 8.472 5.505 14.366 11.93 18.465 18.17 1.086 1.653 3.496 1.653 4.582 0 4.099-6.24 9.993-12.666 18.465-18.17 1.683-1.094 1.683-3.533 0-4.626-8.472-5.505-14.366-11.93-18.465-18.17-1.087-1.654-3.496-1.654-4.582 0z" fill="#fcf9f0"/></g></g><g><g><path d="m321.258 216.078c-6.897 10.499-16.814 21.311-31.069 30.574-2.833 1.84-2.833 5.944 0 7.784 14.255 9.262 24.172 20.074 31.069 30.574 1.828 2.782 5.882 2.782 7.71 0 6.897-10.499 16.814-21.311 31.069-30.574 2.833-1.84 2.833-5.944 0-7.784-14.255-9.262-24.172-20.074-31.069-30.574-1.828-2.782-5.882-2.782-7.71 0z" fill="#f9efdc"/></g></g></g></svg>