<svg id="Capa_1" enable-background="new 0 0 512 512" height="512" viewBox="0 0 512 512" width="512" xmlns="http://www.w3.org/2000/svg"><g><path d="m512 256c0 28.26-4.58 55.45-13.04 80.87-73.887 37.238-174.242 13.215-239.783 42.215-5.64 2.5 88.943 115.915 83.093 118.005-26.95 9.65-56 14.91-86.27 14.91-141.38 0-256-114.62-256-256s114.62-256 256-256 256 114.62 256 256z" fill="#ffe177"/><g><circle cx="171.308" cy="169.225" fill="#fd3581" r="149.102"/><path d="m198.708 315.818c-8.882 1.642-18.043 2.51-27.399 2.51-82.344 0-149.103-66.749-149.103-149.102 0-82.344 66.759-149.102 149.103-149.102 9.357 0 18.518.867 27.399 2.51-69.258 12.856-121.713 73.604-121.713 146.591 0 72.997 52.455 133.735 121.713 146.593z" fill="#fe0364"/><g fill="#5a5a5a"><g><circle cx="115.062" cy="142.38" r="20.777"/><circle cx="227.554" cy="142.38" r="20.777"/></g><path d="m236.242 243.035c-4.395 0-8.47-2.829-9.853-7.245-7.574-24.194-29.707-40.449-55.073-40.449-25.376 0-47.515 16.255-55.089 40.449-1.704 5.444-7.502 8.475-12.941 6.77-5.444-1.704-8.475-7.499-6.771-12.942 10.286-32.857 40.347-54.933 74.801-54.933 34.445 0 64.498 22.076 74.785 54.933 1.704 5.443-1.326 11.238-6.771 12.942-1.027.322-2.067.475-3.088.475z"/></g></g><g><path d="m498.96 336.87c-24.79 74.52-82.91 133.83-156.69 160.22-78.63-4.16-141.09-69.24-141.09-148.89 0-82.35 66.75-149.1 149.1-149.1 78.54 0 142.89 60.71 148.68 137.77z" fill="#0ed2b3"/><path d="m359.51 490.2c-5.64 2.5-11.39 4.8-17.24 6.89-78.62-4.17-141.09-69.23-141.09-148.89 0-82.35 66.76-149.1 149.1-149.1 9.36 0 18.52.86 27.4 2.5-69.26 12.86-121.71 73.61-121.71 146.6 0 66.46 43.48 122.76 103.54 142z" fill="#0ab69f"/><g fill="#5a5a5a"><g><circle cx="294.034" cy="321.352" r="20.777"/><circle cx="406.527" cy="321.352" r="20.777"/></g><path d="m350.271 429.041c-34.444 0-64.497-22.076-74.784-54.933-1.704-5.443 1.326-11.238 6.771-12.942 5.443-1.704 11.238 1.328 12.941 6.77 7.574 24.194 29.707 40.449 55.072 40.449 25.376 0 47.515-16.255 55.09-40.449 1.704-5.444 7.498-8.474 12.942-6.77 5.443 1.704 8.474 7.499 6.77 12.942-10.287 32.858-40.348 54.933-74.802 54.933z"/></g></g><g><path d="m441.399 79.209-8.512 4.299c-23.712-19.072-53.039-29.457-83.811-29.457-11.362 0-20.574 9.211-20.574 20.574s9.212 20.574 20.574 20.574c14.576 0 28.675 3.383 41.392 9.732l-3.074 1.553c-12.416 6.27-13.388 23.63-1.75 31.247l50.617 33.127c11.637 7.616 27.156-.22 27.935-14.107l3.389-60.401c.779-13.888-13.769-23.411-26.186-17.141z" fill="#814ba2"/><path d="m462.682 163.085c-4.28 9.71-16.7 14.12-26.42 7.77l-50.62-33.13c-11.64-7.62-10.66-24.98 1.75-31.25l3.08-1.55c-12.72-6.35-26.82-9.73-41.4-9.73-11.36 0-20.57-9.21-20.57-20.57 0-10.65 8.08-19.4 18.44-20.47-1.56 2.9-2.44 6.22-2.44 9.74 0 11.36 9.21 20.57 20.57 20.57 14.58 0 28.68 3.38 41.4 9.73l-3.08 1.55c-12.41 6.27-13.39 23.63-1.75 31.25l50.62 33.13c3.3 2.16 6.92 3.07 10.42 2.96z" fill="#6f3f8a"/><path d="m162.924 416.801c-14.576 0-28.675-3.383-41.392-9.732l3.074-1.553c12.416-6.27 13.388-23.63 1.75-31.247l-50.617-33.127c-11.637-7.616-27.156.22-27.935 14.107l-3.389 60.401c-.779 13.888 13.769 23.411 26.186 17.141l8.512-4.299c23.712 19.072 53.039 29.457 83.811 29.457 11.362 0 20.574-9.211 20.574-20.574s-9.212-20.574-20.574-20.574z" fill="#814ba2"/><path d="m180.984 447.229c-3.49 6.39-10.27 10.72-18.06 10.72-30.77 0-60.1-10.39-83.81-29.46l-8.51 4.3c-12.42 6.27-26.97-3.25-26.19-17.14l3.39-60.4c.65-11.5 11.39-18.84 21.67-16.71-.77 1.83-1.25 3.85-1.37 6.01l-3.39 60.4c-.78 13.89 13.77 23.41 26.19 17.14l8.51-4.3c23.13 18.61 51.62 28.95 81.57 29.44z" fill="#6f3f8a"/></g></g></svg>