<svg id="Layer_1" enable-background="new 0 0 512 512" height="512" viewBox="0 0 512 512" width="512" xmlns="http://www.w3.org/2000/svg"><g><path d="m58.358 411.786h395.285c29.766-40.564 47.36-90.617 47.36-144.788 0-135.311-109.691-245.002-245.002-245.002s-245.003 109.691-245.003 245.002c0 54.17 17.593 104.224 47.36 144.788z" fill="#9957bc"/><path d="m437.141 5.815-8.629 5.817c-8.706 5.868-20.102 5.868-28.808 0l-10.726-7.23c-8.706-5.869-20.103-5.868-28.809.001l-10.72 7.227c-8.707 5.87-20.103 5.87-28.81 0l-10.72-7.227c-8.707-5.87-20.104-5.869-28.81 0l-10.718 7.226c-4.349 2.932-9.37 4.399-14.391 4.402-.58 0-1.161-.024-1.74-.062-1.467 2.337-5.962 9.883-9.676 20.179-4.091 11.341-7.892 28.201-2.76 44.116 5.033 15.608 17.558 27.49 37.243 35.341-3.256 4.207-11.685 16.219-16.72 33.613-5.663 19.566-7.791 49.757 13.873 83.012-3.482 2.708-13.423 11.458-15.546 24.511-1.454 8.934 1.081 17.991 7.537 26.942-3.88 3.256-15.957 14.583-16.101 29.531-.098 10.028 5.223 19.518 15.818 28.227-4.092 3.697-15.524 15.37-15.486 30.326.025 10.109 5.313 19.576 15.723 28.157-5.072 6.458-27.97 37.94-21.048 71.612 3.076 14.962 11.506 28.316 25.144 39.927 74.441-4.88 139.797-43.009 181.381-99.677v-397.194c0-8.479-9.471-13.516-16.501-8.777z" fill="#e8f8fc"/><path d="m270.275 399.697c-36.75-29 0-58.3 0-58.3-37.5-29.3 0-57.45 0-57.45-23-30.25 7.98-51.358 7.98-51.358-42.937-64.358 3.27-117.642 3.27-117.642-73-27.5-25.525-98.917-25.525-98.917-5.031.003-10.062-1.464-14.42-4.402l-10.716-7.224c-8.707-5.87-20.105-5.87-28.812.001l-10.711 7.221c-8.707 5.871-20.106 5.871-28.814 0l-10.709-7.221c-8.707-5.871-20.105-5.871-28.812-.001l-19.204 12.947c-3.576 2.411-8.258 2.411-11.834 0l-17.108-11.534c-7.031-4.74-16.502.298-16.502 8.777v397.192c44.586 60.759 116.501 100.214 197.642 100.214 6.194 0 12.333-.233 18.411-.684-58.465-48.288-4.136-111.619-4.136-111.619z" fill="#ade9f7"/><g><g><g><path d="m131.635 407.966c-4.906 0-8.883-3.977-8.883-8.883v-113.227c0-4.906 3.977-8.883 8.883-8.883h45.891c4.906 0 8.883 3.977 8.883 8.883s-3.977 8.883-8.883 8.883h-37.009v104.344c.001 4.906-3.976 8.883-8.882 8.883z" fill="#02c0fc"/></g><g><path d="m173.881 350.28h-42.246c-4.906 0-8.883-3.977-8.883-8.883s3.977-8.883 8.883-8.883h42.246c4.906 0 8.883 3.977 8.883 8.883s-3.977 8.883-8.883 8.883z" fill="#02c0fc"/></g></g><g><g><path d="m269.372 407.863h-47.622c-4.906 0-8.883-3.977-8.883-8.883v-113.021c0-4.906 3.977-8.883 8.883-8.883h47.622c4.906 0 8.883 3.977 8.883 8.883s-3.977 8.883-8.883 8.883h-38.739v95.255h38.739c4.906 0 8.883 3.977 8.883 8.883s-3.977 8.883-8.883 8.883z" fill="#02c0fc"/></g><g><path d="m265.861 351.352h-44.111c-4.906 0-8.883-3.977-8.883-8.883s3.977-8.883 8.883-8.883h44.111c4.906 0 8.883 3.977 8.883 8.883 0 4.907-3.977 8.883-8.883 8.883z" fill="#02c0fc"/></g></g><g><g><path d="m368.516 407.863h-47.623c-4.906 0-8.883-3.977-8.883-8.883v-113.021c0-4.906 3.977-8.883 8.883-8.883h47.623c4.906 0 8.883 3.977 8.883 8.883s-3.977 8.883-8.883 8.883h-38.74v95.255h38.74c4.906 0 8.883 3.977 8.883 8.883s-3.977 8.883-8.883 8.883z" fill="#02c0fc"/></g><g><path d="m365.005 351.352h-44.112c-4.906 0-8.883-3.977-8.883-8.883s3.977-8.883 8.883-8.883h44.112c4.906 0 8.883 3.977 8.883 8.883 0 4.907-3.977 8.883-8.883 8.883z" fill="#02c0fc"/></g></g></g><g><g><path d="m131.523 245.505c-8.279 0-14.99-6.711-14.99-14.99v-120.068c0-6.56 4.266-12.358 10.529-14.31 6.262-1.954 13.067.395 16.795 5.793l56.557 81.898-.71-73.46c-.08-8.278 6.566-15.054 14.844-15.134.049-.001.099-.001.148-.001 8.211 0 14.906 6.615 14.986 14.845l1.124 116.239c.001.048.001.096.001.145 0 8.084-4.595 14.744-11.707 16.965-6.965 2.178-14.317-.531-18.724-6.897l-53.863-77.997v71.983c0 8.278-6.711 14.989-14.99 14.989z" fill="#fe3d97"/></g></g><g><path d="m320.33 245.505c-41.43 0-75.136-33.706-75.136-75.136s33.706-75.137 75.136-75.137 75.136 33.706 75.136 75.136-33.705 75.137-75.136 75.137zm0-120.293c-24.899 0-45.156 20.257-45.156 45.157s20.257 45.157 45.156 45.157 45.157-20.257 45.157-45.157-20.257-45.157-45.157-45.157z" fill="#fc77a6"/></g></g></svg>