<svg id="Capa_1" enable-background="new 0 0 512 512" height="512" viewBox="0 0 512 512" width="512" xmlns="http://www.w3.org/2000/svg"><g><circle cx="256" cy="256" fill="#fd4755" r="256"/><path d="m268.77 511.69c-4.23.2-8.49.31-12.77.31-141.39 0-256-114.62-256-256s114.61-256 256-256c4.28 0 8.54.11 12.77.31-135.45 6.65-243.24 118.59-243.24 255.69s107.79 249.04 243.24 255.69z" fill="#fb2b3a"/><circle cx="256" cy="256" fill="#f9f7f8" r="202.457"/><g><path d="m393.115 198.364 1.826-1.955c4.658-4.986 5.145-12.569 1.162-18.11l-28.69-39.911c-3.777-5.255-10.596-7.275-16.665-5.027-5.38 1.992-11.198 3.081-17.27 3.081-23.623 0-43.397-16.458-48.49-38.529-1.51-6.544-7.25-11.235-13.966-11.235h-30.043c-6.716 0-12.456 4.691-13.966 11.235-5.093 22.071-24.867 38.529-48.49 38.529-6.072 0-11.89-1.089-17.27-3.081-6.069-2.248-12.888-.228-16.665 5.027l-28.69 39.911c-3.983 5.541-3.496 13.124 1.162 18.11l1.826 1.955c35.489 37.995 34.479 97.288-2.285 134.053l-.589.589c-4.194 4.194-5.364 10.543-2.94 15.956l17.265 38.56c3.033 6.774 10.744 10.102 17.754 7.662l11.839-4.122c29.061-10.119 61.32-3.742 84.341 16.67l2.242 1.988c5.415 4.802 13.563 4.802 18.978 0l2.242-1.988c23.021-20.412 55.28-26.789 84.341-16.67l11.839 4.122c7.01 2.44 14.721-.888 17.754-7.662l17.265-38.56c2.424-5.414 1.254-11.762-2.94-15.956l-.589-.589c-36.768-36.765-37.777-96.059-2.288-134.053z" fill="#dc8758"/><g fill="#d6694b"><path d="m256 390.301c-1.404 0-2.808-.455-3.978-1.366-4.803-3.741-9.964-7.079-15.337-9.92-3.16-1.671-4.368-5.589-2.696-8.749 1.67-3.161 5.588-4.369 8.749-2.696 4.582 2.423 9.026 5.167 13.262 8.186 4.234-3.018 8.678-5.762 13.262-8.186 3.16-1.672 7.078-.464 8.749 2.696 1.672 3.16.464 7.078-2.696 8.749-5.376 2.843-10.536 6.18-15.337 9.92-1.17.91-2.574 1.366-3.978 1.366z"/><path d="m218.427 371.197c-.59 0-1.19-.081-1.785-.252-8.32-2.383-16.934-3.724-25.599-3.985-3.574-.108-6.383-3.093-6.275-6.667.107-3.574 3.119-6.385 6.666-6.275 9.739.294 19.419 1.801 28.772 4.48 3.437.984 5.426 4.569 4.441 8.006-.814 2.842-3.405 4.693-6.22 4.693z"/><path d="m149.623 373.706c-2.487 0-4.84-1.442-5.909-3.83l-9.746-21.767c-1.041-2.326-.621-5.046 1.073-6.95 4.078-4.582 7.812-9.511 11.098-14.65 1.926-3.012 5.93-3.894 8.941-1.966 3.012 1.926 3.893 5.929 1.967 8.942-2.9 4.535-6.113 8.923-9.581 13.086l5.667 12.657c4.624-1.434 9.342-2.584 14.075-3.432 3.521-.631 6.883 1.712 7.514 5.231.63 3.52-1.712 6.883-5.231 7.513-5.385.964-10.751 2.371-15.947 4.18l-1.791.624c-.704.245-1.423.362-2.13.362z"/><path d="m162.81 314.161c-.764 0-1.539-.136-2.296-.423-3.342-1.268-5.023-5.007-3.755-8.35 3.354-8.836 5.615-18.103 6.719-27.545.415-3.551 3.635-6.093 7.182-5.677 3.551.416 6.093 3.631 5.678 7.182-1.229 10.498-3.743 20.805-7.474 30.634-.982 2.587-3.442 4.179-6.054 4.179zm7.482-54.063c-3.326 0-6.155-2.548-6.443-5.923-.809-9.469-2.778-18.803-5.854-27.742-1.163-3.381.634-7.065 4.015-8.228 3.379-1.165 7.064.634 8.228 4.015 3.422 9.944 5.613 20.325 6.512 30.854.304 3.562-2.337 6.697-5.9 7.001-.187.015-.374.023-.558.023z"/><path d="m153.6 208.141c-2.205 0-4.355-1.127-5.566-3.159-3.125-5.239-6.704-10.282-10.637-14.989-1.895-2.267-2.014-5.53-.289-7.93l18.408-25.608c1.536-2.137 4.212-3.132 6.772-2.515 5.742 1.383 11.708 2.023 17.616 1.908 3.571-.078 6.529 2.772 6.599 6.346.07 3.575-2.772 6.529-6.346 6.599-5.55.108-11.137-.344-16.594-1.35l-13.072 18.183c3.141 4.072 6.044 8.335 8.661 12.723 1.831 3.071.828 7.045-2.244 8.876-1.038.621-2.181.916-3.308.916z"/><path d="m201.972 165.094c-2.725 0-5.26-1.734-6.153-4.465-1.11-3.399.745-7.054 4.143-8.164 7.783-2.543 15.004-6.428 21.462-11.547 2.8-2.221 6.874-1.75 9.094 1.051 2.222 2.802 1.751 6.874-1.051 9.095-7.663 6.075-16.237 10.687-25.484 13.708-.667.218-1.345.322-2.011.322z"/><path d="m271.319 136.236c-2.048 0-4.063-.97-5.321-2.779-3.15-4.531-5.832-9.362-8.005-14.41h-3.986c-2.172 5.047-4.855 9.878-8.004 14.409-2.04 2.936-6.076 3.662-9.01 1.621-2.936-2.04-3.662-6.075-1.621-9.011 3.389-4.877 6.136-10.165 8.164-15.715.932-2.553 3.362-4.252 6.081-4.252h12.767c2.719 0 5.148 1.699 6.081 4.252 2.028 5.551 4.775 10.838 8.165 15.714 2.041 2.936 1.316 6.97-1.62 9.011-1.127.784-2.415 1.159-3.691 1.16z"/><path d="m310.017 165.09c-.667 0-1.345-.104-2.013-.322-9.245-3.022-17.817-7.636-25.48-13.712-2.802-2.222-3.272-6.293-1.051-9.095 2.222-2.802 6.293-3.272 9.095-1.05 6.457 5.12 13.677 9.006 21.459 11.55 3.398 1.111 5.252 4.767 4.142 8.165-.893 2.73-3.428 4.464-6.152 4.464z"/><path d="m358.401 208.143c-1.128 0-2.27-.295-3.31-.915-3.071-1.831-4.075-5.805-2.244-8.876 2.617-4.387 5.519-8.65 8.661-12.724l-13.072-18.184c-5.457 1.007-11.051 1.459-16.594 1.35-3.574-.07-6.416-3.024-6.346-6.599.07-3.574 3.023-6.424 6.599-6.346 5.91.116 11.875-.525 17.616-1.908 2.559-.617 5.236.378 6.773 2.515l18.408 25.608c1.725 2.399 1.606 5.662-.289 7.929-3.934 4.709-7.512 9.752-10.636 14.99-1.212 2.032-3.361 3.16-5.566 3.16z"/><path d="m349.186 314.154c-2.612 0-5.073-1.592-6.054-4.18-3.73-9.831-6.244-20.138-7.471-30.635-.415-3.551 2.127-6.767 5.678-7.182 3.549-.419 6.767 2.126 7.182 5.678 1.104 9.441 3.364 18.709 6.717 27.547 1.268 3.343-.413 7.081-3.757 8.349-.755.287-1.532.423-2.295.423zm-7.477-54.065c-.185 0-.371-.008-.559-.024-3.562-.305-6.204-3.44-5.899-7.002.9-10.53 3.093-20.911 6.516-30.853 1.164-3.381 4.849-5.179 8.229-4.013 3.38 1.164 5.177 4.848 4.013 8.229-3.077 8.937-5.048 18.27-5.857 27.741-.289 3.374-3.117 5.922-6.443 5.922z"/><path d="m362.377 373.706c-.707 0-1.425-.117-2.128-.361l-1.792-.624c-5.195-1.809-10.56-3.215-15.947-4.18-3.519-.63-5.861-3.994-5.232-7.513.63-3.519 3.992-5.862 7.514-5.231 4.734.847 9.453 1.998 14.075 3.431l5.667-12.657c-3.468-4.163-6.681-8.551-9.581-13.086-1.926-3.012-1.046-7.016 1.967-8.942 3.011-1.927 7.015-1.046 8.941 1.966 3.286 5.139 7.019 10.068 11.098 14.65 1.694 1.904 2.114 4.624 1.073 6.95l-9.746 21.767c-1.069 2.388-3.422 3.83-5.909 3.83z"/><path d="m293.574 371.198c-2.816 0-5.407-1.851-6.22-4.693-.984-3.437 1.004-7.022 4.441-8.006 9.354-2.678 19.034-4.186 28.773-4.48 3.569-.099 6.559 2.701 6.666 6.275.108 3.574-2.701 6.559-6.275 6.667-8.665.262-17.278 1.603-25.599 3.986-.596.17-1.196.251-1.786.251z"/></g></g><path d="m445.97 103.89-327.79 327.79-37.86-37.86 36.5-36.5 20.23-20.23 200.84-200.84 70.22-70.22z" fill="#fd4755"/><path d="m385.84 164.02-227.64 227.64-10.11 3.52c-7.01 2.44-14.72-.88-17.75-7.66l-13.52-30.2 20.23-20.23 200.84-200.84c4.48-.4 8.8-1.39 12.86-2.89 6.07-2.25 12.89-.23 16.66 5.03z" fill="#fb2b3a"/></g></svg>