<svg id="Layer_1" enable-background="new 0 0 512 512" height="512" viewBox="0 0 512 512" width="512" xmlns="http://www.w3.org/2000/svg"><g><path d="m75.982 433.168h360.036c40.332-43.671 64.984-102.038 64.984-166.17 0-135.311-109.691-245.002-245.002-245.002s-245.002 109.691-245.002 245.002c0 64.133 24.653 122.499 64.984 166.17z" fill="#816ae2"/><path d="m198.292 82.422c-1.173.638-2.518 1-3.947 1h-.262l-.09.292c-1.565 2.019-11.677 15.747-8.898 30.155 1.506 7.813 6.533 14.34 14.951 19.421-1.895 3.042-5.792 10.548-3.397 17.754 1.698 5.11 6.167 8.944 13.299 11.413-1.982 3.566-5.94 12.137-3.238 19.76 1.736 4.9 5.869 8.463 12.287 10.597l62.168 116.471c-2.126 2.349-7.645 9.352-6.603 17.832.8 6.513 5.264 12.285 13.273 17.174-1.636 3.101-5.072 10.986-2.219 18.164 1.934 4.863 6.33 8.376 13.082 10.459-2.004 3.87-6.155 13.606-3.201 23.264 2.07 6.769 7.206 12.09 15.27 15.824l3.977 14.451c-1.553 1.549-5.058 5.604-4.887 10.517.114 3.287 1.82 6.26 5.073 8.845v14.799c-1.562 2.368-8.795 14.306-5.102 27.023 1.742 5.998 5.647 11.181 11.629 15.505 44.578-12.334 84.057-36.944 114.561-69.974v-350.746z" fill="#deeeff"/><path d="m323.308 502.613c-24.483-16.674-6.879-41.54-6.879-41.54v-16c-11.43-8.427 0-18.146 0-18.146l-4.404-16c-27.75-12.323-11.092-38.943-11.092-38.943-24.925-6.349-11.067-28.235-11.067-28.235-26.659-15.251-6.867-34.212-6.867-34.212l-62.967-117.964c-22.993-7.177-7.829-29.968-7.829-29.968-25.822-7.645-10.022-28.808-10.022-28.808-31.594-17.703-6.837-48.375-6.837-48.375l.344-1.122c-.439.072-.885.122-1.344.122h-118.362v349.746c44.762 48.469 108.84 78.832 180.018 78.832 23.346 0 45.921-3.286 67.308-9.387z" fill="#d3dcfb"/><path d="m202.62 55.422v19.725c0 4.57-3.705 8.275-8.275 8.275h-1.421v1h243.094v-29z" fill="#d3dcfb"/><path d="m75.982 55.422v29h119.363c4.57 0 8.275-3.705 8.275-8.275v-20.725z" fill="#bec8f7"/><path d="m399.087 0h-199.813l1.823.67c-1.649 2.19-4.046 6.216-3.597 10.681.342 3.392 2.232 6.353 5.62 8.809v17.175c-1.469 1.278-5.102 4.925-5.471 9.997-.252 3.477 1.08 6.864 3.93 10.089h234.439v-20.49c0-20.396-16.535-36.931-36.931-36.931z" fill="#3c58a0"/><path d="m112.913 0c-20.396 0-36.931 16.535-36.931 36.931v20.49h127.638c-10.68-10.679 1-19.378 1-19.378v-18.665c-12.156-8.123-1-19.378-1-19.378z" fill="#2a428c"/><path d="m349.62 38.044h-145c-5.155 0-9.333-4.179-9.333-9.333 0-5.155 4.179-9.333 9.333-9.333h145c5.155 0 9.333 4.179 9.333 9.333 0 5.155-4.178 9.333-9.333 9.333z" fill="#4f71b6"/><path d="m402.953 28.711c0-5.155-4.179-9.333-9.333-9.333h-10.5c-5.155 0-9.334 4.179-9.334 9.333 0 5.155 4.179 9.333 9.334 9.333h10.5c5.155 0 9.333-4.178 9.333-9.333z" fill="#4f71b6"/><ellipse cx="112.962" cy="28.711" fill="#fc90ce" rx="10.504" ry="10.504" transform="matrix(.923 -.385 .385 .923 -2.344 45.722)"/><ellipse cx="171.286" cy="28.711" fill="#88ce65" rx="10.504" ry="10.504" transform="matrix(.229 -.974 .974 .229 104.159 188.89)"/><ellipse cx="142.124" cy="28.711" fill="#ffdd40" rx="10.504" ry="10.504" transform="matrix(.707 -.707 .707 .707 21.326 108.906)"/><path d="m368.276 266.357c-7.847-1.543-12.043-9.214-12.122-9.359-.408-.677-40.891-67.958-50.774-93.742-2.69-7.017-2.651-13.02.115-17.844 2.665-4.647 7.43-7.467 11.397-9.107-18.15-9.694-38.877-15.196-60.892-15.196-71.491 0-129.445 57.955-129.445 129.445s57.954 129.446 129.445 129.446c67.952 0 123.67-52.361 129.019-118.937-5.983 4.518-11.609 6.302-16.743 5.294z" fill="#ff7186"/><path d="m315.178 135.401c-7.844 3.567-17.651 11.562-11.199 28.392 10.046 26.206 50.89 93.979 50.89 93.979s10.234 19.206 29.975 5.263c.393-4.108.601-8.27.601-12.481 0-50.166-28.539-93.665-70.267-115.153z" fill="#fc9daf"/><path d="m289.867 343.749c-26.659-15.251-6.867-34.212-6.867-34.212l-62.967-117.964c-22.993-7.177-7.829-29.968-7.829-29.968-25.721-7.615-10.147-28.64-10.025-28.804-44.622 20.429-75.624 65.469-75.624 117.754 0 71.49 57.954 129.445 129.445 129.445 15.799 0 30.935-2.835 44.932-8.016-24.924-6.35-11.065-28.235-11.065-28.235z" fill="#ff4155"/><ellipse cx="256" cy="250.555" fill="#ff4155" rx="99.132" ry="99.132" transform="matrix(.707 -.707 .707 .707 -102.188 254.405)"/><path d="m289.866 343.749c-26.658-15.251-6.867-34.212-6.867-34.212l-62.967-117.964c-22.992-7.177-7.83-29.967-7.83-29.967-32.781 16.172-55.335 49.924-55.335 88.95 0 54.749 44.383 99.132 99.132 99.132 11.896-.001 23.3-2.098 33.867-5.939z" fill="#e80054"/><g><path d="m316.429 426.927h-120.858c-4.419 0-8-3.582-8-8s3.581-8 8-8h120.858c4.418 0 8 3.582 8 8s-3.581 8-8 8z" fill="#bec8f7"/></g><g><path d="m316.429 461.073h-120.858c-4.419 0-8-3.582-8-8s3.581-8 8-8h120.858c4.418 0 8 3.582 8 8s-3.581 8-8 8z" fill="#bec8f7"/></g><path d="m466.525 232.372v71.347c0 16.356 9.335 30.63 22.936 37.781 7.494-23.493 11.541-48.524 11.541-74.502 0-25.314-3.841-49.731-10.969-72.701-13.91 7.048-23.508 21.491-23.508 38.075z" fill="#9181f2"/><path d="m45.475 232.372v71.347c0 16.356-9.335 30.63-22.936 37.781-7.494-23.493-11.541-48.524-11.541-74.502 0-25.314 3.841-49.731 10.968-72.701 13.911 7.048 23.509 21.491 23.509 38.075z" fill="#9181f2"/><path d="m250.38 212.952-.095 1.186c-.36 1.845-4.363 23.964 7.873 36.089 7.343 7.276 18.901 9.304 34.363 6.022.326-.069.648-.123.972-.184l-1.284-1.284c-2.334-2.334-2.334-6.119 0-8.454l22.772-22.772c2.477-2.477 2.477-6.492 0-8.969l-23.015-23.015c-2.476-2.476-6.492-2.476-8.968 0l-22.772 22.772c-2.334 2.335-6.119 2.335-8.454 0z" fill="#deeeff"/><path d="m260.227 286.764 22.772 22.772c2.476 2.477 6.492 2.477 8.968 0l23.015-23.015c2.477-2.477 2.477-6.492 0-8.969l-22.772-22.772c-50.816 10.781-40.437-40.437-40.437-40.437l-22.772-22.772c-2.477-2.476-6.492-2.476-8.968 0l-23.015 23.015c-2.477 2.477-2.477 6.492 0 8.968l22.772 22.772c2.335 2.334 2.335 6.119 0 8.454l-22.772 22.772c-2.477 2.477-2.477 6.492 0 8.968l23.015 23.015c2.477 2.477 6.492 2.477 8.968 0l22.772-22.772c2.335-2.333 6.12-2.333 8.454.001z" fill="#bec8f7"/></g></svg>