<svg id="Layer_1" enable-background="new 0 0 512 512" height="512" viewBox="0 0 512 512" width="512" xmlns="http://www.w3.org/2000/svg"><g><path d="m457.6 406.231c27.36-39.54 43.402-87.51 43.402-139.233 0-135.311-109.691-245.002-245.002-245.002s-245.002 109.691-245.002 245.002c0 51.723 16.042 99.693 43.402 139.233z" fill="#49b1f7"/><g><path d="m344.664 276.618c-6.749-23.639-9.547-42.091-10.153-56.351-5.126 18.497-11.825 34.875-19.985 48.838-4.708 8.059-10.552 15.274-17.339 21.528-10.139 59.151 8.82 103.71 23.74 128.06 3.144 5.131 11.522 2.979 11.441-2.946-.671-49.038 30.468-75.48 12.296-139.129z" fill="#2a428c"/></g><g><path d="m179.344 317.604c-2.016 0-4.042-.673-5.719-2.055-3.836-3.161-4.383-8.833-1.222-12.669 20.664-25.077 51.134-39.459 83.597-39.459 32.432 0 62.884 14.36 83.548 39.398 3.164 3.833 2.621 9.506-1.213 12.67-3.831 3.162-9.506 2.621-12.67-1.213-17.232-20.88-42.624-32.855-69.665-32.855-27.066 0-52.473 11.994-69.706 32.906-1.779 2.16-4.356 3.277-6.95 3.277z" fill="#becaf5"/></g><path d="m297.463 295.82c0-5.762 0-4.036 0-7.767-10.046 8.982-27.275 20.424-41.464 20.768-.499-.012-1.002-.041-1.508-.08l.011.172c.028.461 2.553 46.058-17.685 67.059-.615-.049-1.581-.108-2.795-.127l20.825 24.922 1.151 1.377 65.095-77.903c-13.649-7.735-23.63-17.217-23.63-28.421z" fill="#ffaa7b"/><path d="m256 308.821c-14.189-.344-31.417-11.786-41.463-20.768v7.767c0 11.203-9.981 20.686-23.632 28.421l44.411 53.149c1.295.054 2.074.142 2.074.142 21.498-21.499 18.61-68.711 18.61-68.711z" fill="#fc9460"/><path d="m451.626 390.858c-15.237-30.473-41.979-38.982-54.163-41.322 0 0-17.904-3.268-38.559-9.723l-93.516 111.915c-2.331 2.79-5.753 4.39-9.388 4.39s-7.057-1.6-9.388-4.39l-43.636-52.221c-.035.829-.044 1.674-.018 2.543-7.316-.655-34.924-1.768-55.213 15.922-14.3 12.467-21.63 31.507-21.824 56.576l1.482 1.013-.001.003c37.378 23.1 81.428 36.436 128.598 36.436 45.334 0 87.786-12.321 124.203-33.788l42.302-31.512c13.11-12.155 24.892-25.724 35.095-40.47-1.731-5.691-3.714-10.852-5.974-15.372z" fill="#fc90ce"/><g fill="#fc75c9"><path d="m127.402 475.562.001.001v-.003z"/><path d="m204.549 403.729c-.065-.849-.09-1.661-.098-2.457l-51.356-61.46c-20.656 6.456-38.559 9.723-38.559 9.723-12.185 2.34-38.926 10.849-54.163 41.322-2.26 4.52-4.243 9.681-5.973 15.373 14.97 21.635 33.336 40.74 54.32 56.554l18.682 12.775c.001-82.44 77.147-71.83 77.147-71.83z"/></g><path d="m422.504 446.701c-3.846-14.517-11.333-25.591-18.956-33.658-8.397-8.885-23.346-2.896-23.346 9.329v55.841c15.235-8.981 29.412-19.561 42.302-31.512z" fill="#fc75c9"/><path d="m256.655 0c-.753 0-1.499.031-2.241.078-1.837 1.94-5.007 6.045-5.27 11.503-.219 4.534 1.609 8.955 5.434 13.157-.697.875-1.471 2.199-1.575 3.855-.1 1.566.395 3.094 1.475 4.558-.43.342-.952.774-1.538 1.282 1.223-.043 2.457-.073 3.715-.073 13.721 0 25.362 2.641 35.16 6.71.277-1.789.422-3.622.422-5.488 0-19.651-15.931-35.582-35.582-35.582z" fill="#2a428c"/><path d="m256.655 33.38c-4.87-4.87 0-8.639 0-8.639-13.565-13.565 0-24.741 0-24.741-19.652 0-35.582 15.931-35.582 35.583 0 1.866.145 3.699.422 5.488 9.487-3.94 20.706-6.533 33.863-6.695.811-.654 1.297-.996 1.297-.996z" fill="#1c2e7a"/><path d="m256.655 24.741c-.704 0-1.405.011-2.104.032-.69.875-1.445 2.184-1.548 3.82-.1 1.566.395 3.094 1.475 4.558-.847.675-2.043 1.684-3.415 2.991 1.833-.086 3.69-.142 5.592-.142 19.193 0 34.84 4.505 47.423 10.997 2.235 1.153 4.392 2.407 6.484 3.738-12.63-15.835-32.077-25.994-53.907-25.994z" fill="#deeeff"/><path d="m256.655 24.741c-21.83 0-41.277 10.159-53.907 25.995 2.092-1.331 4.25-2.586 6.484-3.738 11.863-6.121 26.452-10.471 44.166-10.95 1.935-1.736 3.258-2.668 3.258-2.668-4.872-4.87-.001-8.639-.001-8.639z" fill="#becaf5"/><path d="m304.078 44.377c-12.584-6.492-28.23-10.997-47.423-10.997-.845 0-1.675.019-2.507.037-4.386 3.564-16.011 14.377-17.343 29.783-.973 11.239 3.8 22.394 14.154 33.18.648.236 1.294.468 1.955.721 2.402.921 5.081.921 7.483 0 61.107-23.425 67.47 30.211 67.964 46.766.084 2.833 1.276 5.483 3.177 7.624 2.111 2.379 3.672 5.611 4.813 9.345v-.001c3.096-2.064 7.902-3.487 12.247-3.385l.001-.012v-40.181c-.001-30.45-16.975-58.669-44.521-72.88z" fill="#2a428c"/><path d="m256.655 33.38c-19.193 0-34.84 4.505-47.423 10.997-27.546 14.211-44.52 42.43-44.52 72.879v40.181l.001.012c4.345-.102 9.151 1.322 12.247 3.385 1.141-3.733 2.702-6.965 4.813-9.344 1.9-2.141 3.092-4.79 3.177-7.624.494-16.555 6.857-70.191 67.964-46.766.377.145.762.258 1.151.357-.301-.333-.606-.657-.917-.968-35.611-35.61 3.507-63.109 3.507-63.109z" fill="#1c2e7a"/><path d="m176.203 208.572s-4.987-31.561.757-50.357c-5.211-3.474-15.281-5.17-19.809-.743-9.272 9.064-2.478 22.752.773 31.398.998 2.655 1.642 5.34 1.933 8.03.632 5.845 3.801 14.4 16.942 14.199-.199-.842-.402-1.671-.596-2.527z" fill="#fc9460"/><path d="m356.159 157.472c-4.528-4.427-14.598-2.731-19.809.743 5.744 18.796.757 50.357.757 50.357-.194.856-.397 1.685-.596 2.527 13.141.202 16.31-8.353 16.943-14.199.291-2.69.935-5.375 1.933-8.03 3.25-8.646 10.044-22.334.772-31.398z" fill="#ffaa7b"/><path d="m332.027 148.436c-1.893-2.134-2.935-4.627-3.012-7.209-.293-9.828-2.775-33.882-19.445-44.983-11.825-7.874-28.448-7.792-49.408.246-2.262.867-4.753.867-7.014 0-1.063-.408-2.107-.781-3.148-1.147-14.567 12.138-16.863 34.61-17.146 44.129-.079 2.658-1.151 5.223-3.101 7.419-10.744 12.107-8.391 47.478-5.884 62.04 5.551 24.502 13.592 45.866 23.896 63.501 7.74 13.246 18.436 24.298 31.375 32.577 14.785-8.282 26.91-20.087 35.387-34.594 10.011-17.13 17.824-37.889 23.229-61.742 2.338-14.873 4.83-48.339-5.729-60.237z" fill="#ffc7ab"/><g><path d="m248.725 270.416c-10.012-17.135-17.825-37.893-23.218-61.7-2.435-14.149-4.721-48.516 5.717-60.28 1.895-2.134 2.936-4.626 3.013-7.209.29-9.745 2.741-33.474 19.037-44.695-.042-.015-.085-.026-.127-.042-20.96-8.035-37.583-8.118-49.407-.247-16.671 11.101-19.153 35.157-19.445 44.984-.077 2.583-1.118 5.075-3.013 7.209-10.439 11.763-8.153 46.131-5.717 60.28 5.394 23.807 13.207 44.565 23.218 61.7 10.164 17.395 25.556 30.923 44.513 39.125 8.491 3.672 18.227 3.673 26.716 0 4.042-1.749 7.911-3.754 11.613-5.973-13.659-8.188-24.903-19.467-32.9-33.152z" fill="#ffaa7b"/></g><path d="m318.611 324.875-64.906 77.677 29.661 30.002 74.963-89.712c2.266-2.711 1.077-6.852-2.285-7.939-9.85-3.185-20.155-7.079-29.33-11.674-2.768-1.387-6.119-.729-8.103 1.646z" fill="#ffc0e9"/><path d="m256 399.805-19.96-23.887c-4.548-.27-18.095-.316-26.446 7.714-4.598 4.421-6.824 10.535-6.638 18.19 21.541 25.779 39.152 46.855 42.505 50.868 5.49 6.57 15.588 6.57 21.078 0l16.826-20.136z" fill="#fea5da"/><path d="m193.389 324.875c-1.984-2.375-5.335-3.033-8.102-1.647-9.175 4.595-19.48 8.489-29.33 11.674-3.362 1.087-4.551 5.227-2.285 7.938 16.397 19.623 34.822 41.673 50.878 60.888-2.309-30.271 32.84-26.197 32.84-26.197z" fill="#fc90ce"/><path d="m346.276 371.698v32.031h18v-32.031c0-25.094-8.782-49.555-24.728-68.878-3.164-3.833-8.837-4.377-12.67-1.213-3.834 3.164-4.377 8.836-1.213 12.67 13.291 16.107 20.611 36.499 20.611 57.421z" fill="#deeeff"/><g><path d="m156.724 418.144c-4.971 0-9-4.029-9-9v-37.445c0-25.066 8.765-49.507 24.68-68.817 3.16-3.836 8.832-4.384 12.669-1.222 3.836 3.161 4.383 8.833 1.222 12.669-13.265 16.096-20.57 36.471-20.57 57.37v37.445c-.001 4.97-4.031 9-9.001 9z" fill="#deeeff"/></g><path d="m167.593 428.815c-7.443 0-12.405 0-19.847 0-7.379 0-14.365 2.085-20.314 5.779l12.531-20.771c8.041-13.329 27.371-13.329 35.412 0l12.531 20.771c-5.948-3.693-12.934-5.779-20.313-5.779z" fill="#2a428c"/><path d="m205.69 461.711c-4.8-2.991-8.941-3.816-12.306-2.455-5.23 2.117-6.981 8.912-6.998 8.981l-.045.181-.508.689-2.473-7.584c-2.232-6.844-8.568-11.442-15.766-11.442-7.442 0-12.404 0-19.847 0-4.084 0-7.888 1.483-10.825 4.013-2.435-.126-7.986-.873-11.383-4.939-2.475-2.963-3.264-7.037-2.356-12.121 6.735-5.586 15.342-8.843 24.564-8.843h19.847c16.701 0 31.4 10.668 36.578 26.546l2.468 7.57c-.317-.2-.634-.399-.95-.596z" fill="#3c58a0"/><path d="m206.186 460.914 10.555 32.367c1.874 5.747-1.266 11.925-7.013 13.799-5.747 1.875-11.925-1.266-13.799-7.013l-10.454-32.058s4.284-17.328 20.711-7.095z" fill="#4b6bb2"/><path d="m124.319 436.126c-6.013 4.614-10.673 11.013-13.15 18.609l-2.593 7.951c6.062 4.574 12.345 8.868 18.827 12.873l4.577-14.037c1.127-3.457 3.304-6.338 6.108-8.346l-.002-.001s-17.673.673-13.767-17.049z" fill="#2a428c"/><path d="m339.853 408.901c.991 2.067 2.91 3.543 5.711 4.396-.64 1.673-1.683 5.336-.29 8.87 1.09 2.767 3.424 4.838 6.938 6.157l10.375 7.691c.304 1.865 2.187 9.693 12.335 10.088.108 1.201.564 3.418 2.391 5.158 1.92 1.829 4.798 2.597 8.536 2.316 3.428-5.535 5.413-12.058 5.413-19.047 0-20.008-16.219-36.227-36.227-36.227-5.46 0-10.633 1.215-15.276 3.378-.497 1.438-1.231 4.457.094 7.22z" fill="#deeeff"/><path d="m386.367 452.707c-11.115 1.152-10.641-7.422-10.641-7.422-11.6 0-12.362-9.731-12.362-9.731l-10.751-7.969c-11.301-4.159-5.906-14.841-5.906-14.841-10.154-2.43-5.878-11.519-5.861-11.554-12.955 5.521-22.037 18.369-22.037 33.34 0 20.008 16.219 36.227 36.227 36.227 13.38 0 25.058-7.26 31.331-18.05z" fill="#d3dcfb"/><path d="m345.564 413.297c-.64 1.673-1.683 5.336-.29 8.87 1.09 2.767 3.424 4.838 6.938 6.157l10.375 7.691c.304 1.865 2.187 9.693 12.335 10.088.014.155.034.327.062.512 2.14-3.524 3.372-7.661 3.372-12.085 0-12.879-10.441-23.32-23.32-23.32-3.411 0-6.647.738-9.568 2.054.033.011.062.023.096.033z" fill="#d3dcfb"/><path d="m355.035 457.85c8.999 0 16.802-5.1 20.69-12.565-11.599 0-12.362-9.731-12.362-9.731l-10.751-7.969c-11.257-4.142-5.949-14.755-5.908-14.837-8.764 3.354-14.99 11.839-14.99 21.782.001 12.879 10.442 23.32 23.321 23.32z" fill="#a8b7ef"/><path d="m355.035 414.107c4.603 0 8.5-2.999 9.858-7.147v-18.851c0-5.445-4.414-9.858-9.858-9.858s-9.858 4.414-9.858 9.858v18.851c1.359 4.147 5.256 7.147 9.858 7.147z" fill="#6289cc"/><path d="m355.035 413.587c-5.444 0-9.858-4.414-9.858-9.858v28.247c0 5.444 4.414 9.858 9.858 9.858s9.858-4.414 9.858-9.858v-28.247c0 5.444-4.413 9.858-9.858 9.858z" fill="#4b6bb2"/><g fill="#73c3f9"><path d="m443.994 109.899c-28.041 16.743-69.46 52.43-65.638 115.911 6.423 106.683 77.216 89.74 105.036 132.538 11.357-28.228 17.61-59.057 17.61-91.35 0-59.789-21.428-114.567-57.008-157.099z"/><path d="m68.006 109.899c28.041 16.743 69.461 52.43 65.638 115.911-6.423 106.683-77.216 89.74-105.036 132.538-11.356-28.228-17.61-59.057-17.61-91.35 0-59.789 21.427-114.567 57.008-157.099z"/></g></g></svg>