<svg id="Layer_1" enable-background="new 0 0 512 512" height="512" viewBox="0 0 512 512" width="512" xmlns="http://www.w3.org/2000/svg"><g><path d="m210.042 507.342 235.788-83.347c35.529-42.517 56.922-97.256 56.922-156.998 0-135.311-109.691-245.002-245.002-245.002s-245.002 109.692-245.002 245.003c0 118.984 84.823 218.144 197.294 240.344z" fill="#816ae2"/><path d="m243.421 237.171c.528 9.513 4.953 60.905 39.232 93.19l24.397-40.53c5.994-9.957 16.512-15.902 28.134-15.902 11.623 0 22.141 5.945 28.135 15.902l59.957 99.606c35.622-41.277 57.181-95.03 57.181-153.831 0-130.122-105.484-235.606-235.605-235.606-62.65 0-119.582 24.461-161.785 64.343 3.006 24.715 22.293 34.192 45.707 30.442-1.57 12.085-7.532 73.256 26.193 111.215 18.49 20.812 45.658 31.33 80.86 31.329 2.489-.001 5.025-.053 7.594-.158z" fill="#4fabf7"/><path d="m202.757 463.089 80.686-134.041c-37.455-35.459-38.59-93.444-38.59-93.444-139.442 6.791-114.3-142.677-114.3-142.677s-42.105 9.615-46.11-29.864c-46.252 43.018-75.195 104.395-75.195 172.542 0 115.034 82.448 210.797 191.471 231.46.582-1.354 1.259-2.682 2.038-3.976z" fill="#1e9ef4"/><path d="m243.421 237.171c.528 9.513 4.953 60.905 39.232 93.19l24.397-40.53c5.994-9.957 16.512-15.902 28.134-15.902 11.623 0 22.141 5.945 28.135 15.902l30.694 50.992c21.018-29.738 33.376-66.031 33.376-105.217 0-100.812-81.724-182.536-182.536-182.536-44.131 0-84.604 15.662-116.165 41.73.028-.004.06-.009.087-.014-1.57 12.085-7.532 73.256 26.193 111.215 18.49 20.812 45.658 31.33 80.86 31.329 2.488-.002 5.024-.054 7.593-.159z" fill="#deeeff"/><path d="m244.852 53.069v182.536h182.536c0-100.812-81.724-182.536-182.536-182.536z" fill="#ff7186"/><path d="m283.444 329.046c-37.456-35.458-38.592-93.441-38.592-93.441-135.138 6.581-115.695-133.598-114.366-142.258-41.564 33.458-68.17 84.747-68.17 142.258 0 95.868 73.907 174.468 167.851 181.947z" fill="#d3dcfb"/><g><path d="m244.852 77.814c-5.522 0-10-4.477-10-10v-13.745c0-5.523 4.478-10 10-10 5.523 0 10 4.477 10 10v13.746c0 5.522-4.477 9.999-10 9.999z" fill="#e80054"/></g><g><path d="m160.967 100.295c-3.457 0-6.818-1.793-8.67-5.002l-6.872-11.904c-2.762-4.783-1.122-10.899 3.66-13.66 4.786-2.76 10.9-1.121 13.66 3.661l6.872 11.904c2.762 4.783 1.123 10.899-3.66 13.66-1.575.909-3.294 1.341-4.99 1.341z" fill="#a8b7ef"/></g><g><path d="m99.532 161.711c-1.696 0-3.415-.432-4.99-1.341l-11.904-6.873c-4.783-2.761-6.422-8.878-3.66-13.66 2.762-4.783 8.876-6.422 13.66-3.66l11.904 6.873c4.783 2.761 6.422 8.877 3.66 13.66-1.853 3.208-5.214 5.001-8.67 5.001z" fill="#a8b7ef"/></g><g><path d="m402.057 336.374c-1.696 0-3.415-.432-4.99-1.341l-11.904-6.873c-4.783-2.761-6.422-8.877-3.66-13.66 2.76-4.783 8.875-6.423 13.66-3.66l11.904 6.873c4.783 2.761 6.422 8.877 3.66 13.66-1.851 3.208-5.214 5.001-8.67 5.001z" fill="#a8b7ef"/></g><g><path d="m77.062 245.605h-13.746c-5.522 0-10-4.477-10-10s4.478-10 10-10h13.746c5.522 0 10 4.477 10 10s-4.477 10-10 10z" fill="#a8b7ef"/></g><g><path d="m426.388 245.605h-13.745c-5.522 0-10-4.477-10-10s4.478-10 10-10h13.745c5.522 0 10 4.477 10 10s-4.477 10-10 10z" fill="#e80054"/></g><g><path d="m87.647 336.374c-3.457 0-6.818-1.794-8.67-5.001-2.762-4.783-1.123-10.899 3.66-13.66l11.904-6.873c4.786-2.761 10.9-1.122 13.66 3.66 2.762 4.783 1.123 10.899-3.66 13.66l-11.904 6.873c-1.575.909-3.294 1.341-4.99 1.341z" fill="#a8b7ef"/></g><g><path d="m390.173 161.711c-3.457 0-6.817-1.793-8.67-5.002-2.762-4.783-1.123-10.899 3.66-13.66l11.904-6.873c4.783-2.761 10.899-1.123 13.66 3.66 2.762 4.783 1.123 10.899-3.66 13.66l-11.904 6.873c-1.574.91-3.294 1.342-4.99 1.342z" fill="#e80054"/></g><g><path d="m154.075 402.821c-1.696 0-3.415-.432-4.99-1.341-4.782-2.761-6.422-8.878-3.66-13.66l6.872-11.904c2.761-4.783 8.876-6.423 13.66-3.661 4.783 2.761 6.422 8.877 3.66 13.66l-6.872 11.904c-1.852 3.208-5.214 5.002-8.67 5.002z" fill="#a8b7ef"/></g><g><path d="m328.738 100.295c-1.696 0-3.415-.432-4.99-1.341-4.783-2.762-6.422-8.877-3.66-13.66l6.873-11.904c2.762-4.783 8.876-6.421 13.66-3.66 4.783 2.762 6.422 8.877 3.66 13.66l-6.873 11.904c-1.853 3.208-5.214 5.001-8.67 5.001z" fill="#e80054"/></g><path d="m244.852 235.605c-7.45 0-13.49-6.04-13.49-13.49v-108.33c0-7.45 6.04-13.49 13.49-13.49 7.451 0 13.49 6.04 13.49 13.49v108.329c.001 7.451-6.039 13.491-13.49 13.491z" fill="#e80054"/><path d="m363.821 235.605c0 10.051-8.148 18.199-18.199 18.199h-92.572c-10.051 0-18.199-8.148-18.199-18.199 0-10.051 8.148-18.199 18.199-18.199h92.572c10.051 0 18.199 8.148 18.199 18.199z" fill="#4f71b6"/><path d="m235.969 407.915c-91.025-4.639-163.653-80.152-163.653-172.31 0-48.988 20.943-95.845 57.46-128.556 4.114-3.685 4.462-10.007.776-14.121-3.684-4.114-10.008-4.46-14.12-.776-40.747 36.5-64.116 88.787-64.116 143.454 0 99.272 75.522 181.23 172.129 191.454z" fill="#4fabf7"/><g><path d="m123.107 109.6c-2.744 0-5.477-1.123-7.451-3.328-3.686-4.114-3.338-10.436.776-14.121 35.333-31.651 80.94-49.083 128.42-49.083 19.1 0 37.966 2.791 56.074 8.296 5.284 1.607 8.266 7.192 6.659 12.476-1.606 5.285-7.195 8.263-12.476 6.66-16.222-4.931-33.131-7.432-50.258-7.432-42.548 0-83.416 15.619-115.076 43.979-1.907 1.711-4.292 2.553-6.668 2.553z" fill="#73c3f9"/></g><path d="m417.388 235.605c0 34.487-10.164 67.652-29.028 95.827l11.269 18.721c24.485-33 37.759-72.912 37.759-114.549 0-17.65-2.39-35.139-7.102-51.98-1.488-5.319-7.008-8.423-12.324-6.936-5.318 1.488-8.424 7.006-6.936 12.325 4.222 15.087 6.362 30.763 6.362 46.592z" fill="#73c3f9"/><g><path d="m420.651 196.322c-4.373 0-8.389-2.891-9.624-7.309-7.764-27.751-22.586-53.37-42.864-74.087-20.255-20.693-45.516-36.055-73.053-44.426-5.284-1.606-8.266-7.192-6.659-12.476 1.606-5.285 7.193-8.262 12.475-6.66 30.74 9.345 58.933 26.486 81.528 49.571 22.626 23.115 39.166 51.709 47.832 82.69 1.488 5.318-1.617 10.836-6.936 12.324-.9.253-1.806.373-2.699.373z" fill="#9bd8f9"/></g><g><circle cx="244.852" cy="235.605" fill="#ff7186" r="33.22"/></g><g><ellipse cx="251.462" cy="226.113" fill="#fc9daf" rx="14.229" ry="14.229" transform="matrix(.16 -.987 .987 .16 -11.859 438.298)"/></g><path d="m318.643 359.854 30.729 52.75c.138 3.456 1.728 26.658 19.662 39.695 10.061 7.314 23.28 9.923 39.419 7.861 13.7-10.706 26.236-22.832 37.377-36.165l-81.227-134.939c-13.346-22.172-45.492-22.172-58.838 0l-24.521 40.736c1.726 6.246 10.009 29.579 37.399 30.062z" fill="#ffdd40"/><path d="m350.859 412.178-31.349-53.816c-31.349 0-37.174-30.383-37.174-30.383l-80.864 134.337c-9.614 15.971-4.481 34.987 8.571 45.026 15.433 3.046 31.381 4.658 47.708 4.658 57.882 0 111.056-20.094 152.979-53.66-58.899 9.102-59.871-46.162-59.871-46.162z" fill="#ffb332"/><path d="m335.184 388.515c-8.657 0-15.675-7.018-15.675-15.675v39.338c0 8.657 7.018 15.675 15.675 15.675s15.675-7.018 15.675-15.675v-39.338c0 8.657-7.018 15.675-15.675 15.675z" fill="#3c58a0"/><path d="m335.184 342.687c-8.657 0-15.675 7.018-15.675 15.675v16.141c0 8.657 7.018 15.675 15.675 15.675s15.675-7.018 15.675-15.675v-16.141c0-8.657-7.018-15.675-15.675-15.675z" fill="#4f71b6"/><ellipse cx="335.184" cy="457.896" fill="#3c58a0" rx="15.675" ry="15.675" transform="matrix(.707 -.707 .707 .707 -225.608 371.126)"/></g></svg>