<svg id="Capa_1" enable-background="new 0 0 512 512" height="512" viewBox="0 0 512 512" width="512" xmlns="http://www.w3.org/2000/svg"><g><path d="m512 256c0 47.865-13.136 92.661-36 130.981-1.533 2.57-13.806-2.747-15.426-.236-15.333 23.766-23.8 52.688-45.918 70.177-24.105 19.06-51.72 33.875-81.718 43.315-24.284 7.642-50.13-18.514-76.938-18.514-31.432 0-61.541 24.612-89.362 14.247-97.32-36.255-166.638-130.017-166.638-239.97 0-141.385 114.615-256 256-256s256 114.615 256 256z" fill="#f44545"/><path d="m182.691 300h-103.003c-3.314 0-6-2.686-6-6v-198.5c0-3.314 2.686-6 6-6h103.002c3.314 0 6 2.686 6 6v198.5c.001 3.314-2.685 6-5.999 6z" fill="#d63030"/><path d="m476 10v376.981c-9.23 15.47-20.046 29.884-32.222 43.019h-293.22c-5.523 0-10-4.477-10-10v-410c0-5.523 4.477-10 10-10h315.442c5.523 0 10 4.477 10 10z" fill="#e9f3fe"/><path d="m158.596 430h-29.092c-5.523 0-10-4.477-10-10v-410c0-5.523 4.477-10 10-10h29.092c-5.523 0-10 4.477-10 10v410c0 5.523 4.477 10 10 10z" fill="#c8e2fd"/><path d="m202.752 216c0-4.142 3.358-7.5 7.5-7.5h175c4.142 0 7.5 3.358 7.5 7.5s-3.358 7.5-7.5 7.5h-175c-4.142 0-7.5-3.358-7.5-7.5zm182.5 21.5h-175c-4.142 0-7.5 3.358-7.5 7.5s3.358 7.5 7.5 7.5h175c4.142 0 7.5-3.358 7.5-7.5s-3.358-7.5-7.5-7.5zm0 30h-175c-4.142 0-7.5 3.358-7.5 7.5s3.358 7.5 7.5 7.5h175c4.142 0 7.5-3.358 7.5-7.5s-3.358-7.5-7.5-7.5zm-49 27h-77c-4.142 0-7.5 3.358-7.5 7.5s3.358 7.5 7.5 7.5h77c4.142 0 7.5-3.358 7.5-7.5s-3.358-7.5-7.5-7.5zm-77-205h77c4.142 0 7.5-3.358 7.5-7.5s-3.358-7.5-7.5-7.5h-77c-4.142 0-7.5 3.358-7.5 7.5s3.358 7.5 7.5 7.5z" fill="#a7d0fc"/><path d="m392.752 137.5c0 4.142-3.358 7.5-7.5 7.5h-175c-4.142 0-7.5-3.358-7.5-7.5s3.358-7.5 7.5-7.5h175c4.142 0 7.5 3.358 7.5 7.5zm-66.5 21h-57c-4.142 0-7.5 3.358-7.5 7.5s3.358 7.5 7.5 7.5h57c4.142 0 7.5-3.358 7.5-7.5s-3.358-7.5-7.5-7.5z" fill="#85a6d3"/><path d="m447 352v150c0 5.523-4.477 10-10 10h-242.851c-5.523 0-10-4.477-10-10v-150c0-5.523 4.477-10 10-10h242.851c5.523 0 10 4.477 10 10z" fill="#ffc14f"/><path d="m204.843 512h-37.843c-5.523 0-10-4.477-10-10v-150c0-5.523 4.477-10 10-10h37.843c-5.523 0-10 4.477-10 10v150c0 5.523 4.477 10 10 10z" fill="#ffb52d"/><path d="m339.843 398.261v-9.065c0-15.02 12.176-27.196 27.196-27.196 15.02 0 27.196 12.176 27.196 27.196v9.065c0 15.02-12.176 27.196-27.196 27.196-15.02 0-27.196-12.176-27.196-27.196zm43.085 39.347h-31.779c-16.568 0-30 13.431-30 30v19.392c0 2.761 2.239 5 5 5h81.778c2.761 0 5-2.239 5-5v-19.392c.001-16.568-13.431-30-29.999-30z" fill="#ff883e"/><path d="m271 204.628v244.372c0 5.523-4.477 10-10 10h-188.723c-5.523 0-10-4.477-10-10v-244.372c0-5.523 4.477-10 10-10h188.723c5.523 0 10 4.477 10 10z" fill="#6e9e50"/><g fill="#4f7139"><path d="m73.688 194.628v264.372h-28.688c-5.523 0-10-4.477-10-10v-244.372c0-5.523 4.477-10 10-10z"/><path d="m168.637 250.965c-39.601 0-71.819 32.218-71.819 71.818 0 39.602 32.218 71.819 71.819 71.819s71.819-32.218 71.819-71.819c0-39.6-32.218-71.818-71.819-71.818zm55.745 81.348c-6.732 1.847-16.431 3.301-27.614 4.22.316-4.568.472-9.182.472-13.75 0-4.807-.173-9.664-.523-14.465 10.075-1.001 18.895-2.539 25.482-4.506 2.109 5.935 3.257 12.322 3.257 18.971 0 3.221-.27 6.38-.787 9.457-.096.023-.191.047-.287.073zm-55.745 47.277c-2.604-.755-7.986-9.754-11.144-27.107 3.657.104 7.381.158 11.144.158s7.487-.054 11.144-.158c-3.157 17.353-8.54 26.353-11.144 27.107zm0-41.949c-4.414 0-8.787-.079-13.055-.231-.35-4.512-.548-9.386-.548-14.626 0-4.777.165-9.249.458-13.421 4.281.183 8.682.278 13.145.278s8.864-.095 13.145-.278c.294 4.171.458 8.644.458 13.421 0 5.24-.198 10.114-.548 14.626-4.268.151-8.641.231-13.055.231zm-56.032-5.401c-.517-3.076-.787-6.235-.787-9.457 0-6.65 1.148-13.036 3.257-18.971 6.587 1.967 15.407 3.505 25.482 4.506-.35 4.801-.523 9.659-.523 14.465 0 4.568.156 9.182.472 13.75-11.183-.919-20.882-2.373-27.613-4.22-.096-.026-.192-.05-.288-.073zm56.032-66.262c2.67.773 8.261 10.215 11.38 28.442-3.723.146-7.534.221-11.38.221-3.845 0-7.656-.076-11.379-.221 3.119-18.227 8.709-27.669 11.379-28.442zm46.519 24.214c-5.413 1.358-12.348 2.454-20.15 3.219-1.412-8.819-3.506-17.007-6.316-23.792 10.751 4.068 19.956 11.308 26.466 20.573zm-66.572-20.573c-2.809 6.784-4.903 14.972-6.315 23.792-7.802-.765-14.737-1.861-20.15-3.219 6.51-9.265 15.714-16.505 26.465-20.573zm-30.402 79.277c6.965 1.23 15.132 2.189 24.018 2.828 1.413 8.984 3.529 17.329 6.384 24.225-13.145-4.975-23.979-14.692-30.402-27.053zm70.509 27.053c2.855-6.896 4.972-15.241 6.385-24.225 8.886-.639 17.052-1.598 24.017-2.828-6.424 12.361-17.257 22.078-30.402 27.053z"/></g></g></svg>