<svg id="Layer_1" enable-background="new 0 0 512 512" height="512" viewBox="0 0 512 512" width="512" xmlns="http://www.w3.org/2000/svg"><g><path d="m256 21.996c-135.311 0-245.002 109.691-245.002 245.002 0 114.468 78.504 210.592 184.607 237.492l50.003 7.275c3.447.144 6.909.235 10.392.235s6.945-.091 10.393-.234l50.002-7.275c106.103-26.9 184.607-123.024 184.607-237.492 0-135.312-109.691-245.003-245.002-245.003z" fill="#e80054"/><path d="m306.113 299.638c-1.212 1.432-2.85 2.512-4.763 3.025-14.264 3.822-32.85 4.661-48.222 4.661 0 8.609-2.828 51.438-7.336 85.691-3.672 27.901-.818 56.273 8.308 82.894l12.292 35.857c17.185-.717 33.913-3.195 50.005-7.275l-17.316-53.997c-3.206-9.998-4.386-20.535-3.469-30.995z" fill="#6389c6"/><path d="m258.873 307.324c-15.372 0-33.958-.839-48.222-4.661-1.914-.513-3.552-1.593-4.764-3.025l10.502 119.861c.917 10.46-.263 20.997-3.469 30.995l-17.316 53.997c16.092 4.08 32.821 6.558 50.005 7.275l12.292-35.857c9.126-26.622 11.98-54.993 8.308-82.894-4.508-34.253-7.336-77.082-7.336-85.691z" fill="#4f71b6"/><path d="m226.59 101.1c.95 16.524 14.236 32.519 29.411 33.047 15.175-.528 28.461-16.523 29.411-33.047-18.689 0-40.135 0-58.822 0z" fill="#ffaa7b"/><path d="m351.647 141.088c-10.893-19.16-27.006-28.662-48.851-35.626l-17.386-4.362c-3.144 15.715-14.842 31.023-29.411 31.562-.658-.024-1.308-.089-1.953-.172-4.658 5.309-8.518 12.758-8.518 22.892v93.152c0 9.92 2.43 19.471 7.027 27.621 7.181 12.729 17.999 19.672 31.355 20.153v11.81c5.525-.889 10.976-2.047 16.306-3.475 4.179-1.12 7.07-4.928 6.994-9.254l-2.089-118.729c-.045-2.526 2.461-4.31 4.833-3.44 1.352.496 2.279 1.75 2.355 3.188l1.937 36.795c8.786 11.192 33.248 13.233 37.4 7.219 17.193-46.118 3.84-72.583.001-79.334z" fill="#49b1f7"/><path d="m285.411 294.835c-16.476 0-26.071-9.709-31.548-19.418-4.614-8.179-6.834-17.492-6.834-26.883v-93.152c0-10.25 4.068-17.614 8.822-22.73-14.499-.639-26.128-15.891-29.261-31.552l-17.386 4.362c-21.844 6.965-37.957 16.467-48.85 35.626-3.838 6.751-17.192 33.215 0 79.333 4.152 6.014 28.613 3.973 37.4-7.219l1.938-36.795c.075-1.438 1.002-2.692 2.355-3.188 2.372-.869 4.878.915 4.833 3.44l-2.089 118.729c-.076 4.326 2.814 8.134 6.994 9.254 23.376 6.263 49.263 7.355 73.627 3.208v-13.015z" fill="#1e9ef4"/><path d="m299.928 45.131c0 27.473-20.022 56.664-44.719 56.664-24.698 0-44.719-29.191-44.719-56.664s20.021-45.131 44.719-45.131c24.697 0 44.719 17.658 44.719 45.131z" fill="#ffc7ab"/><path d="m160.353 220.422c5.995 2.522 18.926 5.002 37.4-7.219l10.107 21.703c4.915 10.553 5.573 16.923 12.617 28.052l17.085 23.209c1.617 2.196 3.367 4.293 5.239 6.276 3.637 3.854 7.059 7.585 12.091 9.59l6.703 2.67c2.952 1.176 4.048 4.608 2.635 7.454-.876 1.762-.694 3.872.481 5.46l2.803 3.789c4.1 5.543 4.153 13.265-.246 18.573-5.466 6.595-15.329 7.18-21.534 1.344l-56.16-66.216c-8.938-8.405-9.279-11.838-29.221-54.685z" fill="#ffaa7b"/><path d="m321.47 247.114c-4.131-2.138-8.546-2.785-12.378-2.785-3.792 0-7.016.634-8.829 1.086l-.156-.632c-2.113 5.686-3.993 10.921-8.584 18.175l-17.085 23.208c-1.617 2.196-3.367 4.292-5.239 6.276-3.637 3.854-7.059 7.585-12.091 9.59l-6.703 2.67c-2.952 1.176-4.048 4.608-2.634 7.454.876 1.763.693 3.872-.481 5.461l-2.803 3.789c-4.1 5.543-4.153 13.265.246 18.573 5.465 6.595 15.329 7.18 21.534 1.344l56.16-66.216c4.417-4.154 6.736-7.097 10.357-14.18-2.26-6.43-6.048-11.088-11.314-13.813z" fill="#ffc7ab"/><g><path d="m375.882 107.913c-.877 0-1.769-.146-2.644-.451-4.17-1.461-6.367-6.024-4.906-10.195l5.284-15.088-15.792 2.492c-2.536.396-5.108-.441-6.918-2.26-1.81-1.818-2.638-4.396-2.225-6.929l2.569-15.775-15.109 5.211c-4.176 1.438-8.731-.776-10.171-4.954-1.44-4.177.778-8.73 4.955-10.171l27.766-9.576c2.663-.917 5.61-.369 7.763 1.444s3.194 4.626 2.742 7.404l-2.944 18.078 18.092-2.856c2.779-.439 5.587.616 7.39 2.778 1.803 2.161 2.338 5.111 1.407 7.769l-9.707 27.721c-1.156 3.295-4.248 5.358-7.552 5.358z" fill="#ffc839"/></g><g><path d="m111.041 162.421c-2.306 0-4.594-.991-6.176-2.909l-18.69-22.657c-1.792-2.173-2.31-5.128-1.363-7.78s3.219-4.611 5.981-5.158l17.975-3.558-8.988-15.968c-1.381-2.453-1.371-5.452.027-7.896s3.977-3.974 6.792-4.027l29.366-.557c4.423-.054 8.067 3.431 8.15 7.848.084 4.417-3.43 8.066-7.847 8.15l-15.979.303 7.839 13.926c1.258 2.235 1.368 4.938.296 7.269-1.072 2.33-3.197 4.005-5.714 4.503l-15.668 3.101 10.163 12.32c2.812 3.408 2.328 8.45-1.081 11.262-1.487 1.229-3.29 1.828-5.083 1.828z" fill="#ffc839"/></g><g><path d="m400.959 162.421c-1.793 0-3.596-.599-5.086-1.829-3.408-2.812-3.892-7.854-1.081-11.262l10.163-12.32-15.667-3.101c-2.517-.498-4.642-2.173-5.714-4.503-1.073-2.33-.963-5.033.295-7.269l7.839-13.926-15.979-.303c-4.417-.084-7.931-3.733-7.847-8.15.084-4.418 3.722-7.919 8.15-7.848l29.366.557c2.815.054 5.395 1.583 6.793 4.027 1.398 2.443 1.408 5.442.027 7.896l-8.988 15.968 17.975 3.558c2.763.547 5.035 2.506 5.981 5.158.947 2.652.429 5.607-1.363 7.78l-18.69 22.657c-1.581 1.918-3.869 2.91-6.174 2.91z" fill="#ffdd40"/></g><g><path d="m136.119 107.913c-3.304 0-6.396-2.062-7.55-5.357l-9.708-27.721c-.931-2.657-.396-5.607 1.407-7.769 1.803-2.161 4.607-3.215 7.39-2.778l18.092 2.856-2.944-18.078c-.453-2.778.589-5.591 2.742-7.404 2.154-1.815 5.101-2.364 7.763-1.444l27.766 9.576c4.177 1.44 6.395 5.994 4.955 10.171-1.44 4.176-5.992 6.395-10.171 4.954l-15.109-5.211 2.569 15.775c.413 2.533-.415 5.11-2.225 6.929-1.811 1.818-4.385 2.655-6.918 2.26l-15.791-2.492 5.284 15.088c1.461 4.171-.736 8.734-4.906 10.195-.877.304-1.769.45-2.646.45z" fill="#ffdd40"/></g><path d="m489.362 192.218c-22.881-1.414-51.001 4.341-77 30.341-56.912 56.912-84 135.463-74 183.143 5.509 26.268 36.51 45.952 63.246 58.337 60.297-44.628 99.394-116.264 99.394-197.041 0-26.081-4.091-51.205-11.64-74.78z" fill="#ff4155"/><path d="m22.637 192.218c22.881-1.414 51.001 4.341 77 30.341 56.912 56.912 84 135.463 74 183.143-5.509 26.268-36.51 45.952-63.246 58.337-60.297-44.628-99.394-116.264-99.394-197.041.001-26.081 4.092-51.205 11.64-74.78z" fill="#ff4155"/><path d="m314.247 213.203-10.107 21.704c-2.183 4.688-3.527 8.55-4.963 12.37 0 0 25.374-8.408 32.655 15.474 3.802-7.104 8.839-18.745 19.815-42.328-5.995 2.52-18.926 5-37.4-7.22z" fill="#ffaa7b"/></g></svg>