<svg id="Capa_1" enable-background="new 0 0 512 512" height="512" viewBox="0 0 512 512" width="512" xmlns="http://www.w3.org/2000/svg"><g><path d="m118.88 472.21c-71.46-45.41-118.88-125.27-118.88-216.21 0-141.38 114.62-256 256-256s256 114.62 256 256c0 90.94-47.42 170.8-118.88 216.21" fill="#5a565e"/><path d="m407.893 360.291 17.723-160.127c1.455-12.096 11.901-21.085 24.076-20.7 12.178.379 22.051 9.994 22.746 22.155l6.99 121.952" fill="#ffcebf"/><path d="m104.107 360.291-17.722-160.127c-1.455-12.096-11.901-21.085-24.076-20.7-12.178.379-22.051 9.994-22.746 22.155l-6.99 121.952" fill="#ca6e59"/><g><path d="m449.808 222.738c0 6.017-.273 11.966-.811 17.847-.511 5.598-30.719 11.126-31.696 16.574-1.339 7.47 26.352 14.79 24.185 21.937-24.137 79.556-98.052 137.451-185.486 137.451-55.095 0-104.829-22.994-140.113-59.908-24.013-44.047-46.338-81.963-46.338-133.9 0-48.668 25.304-93.153 40.218-127.191 35.532-40.816 87.869-66.618 146.233-66.618 47.567 0 91.139 17.139 124.87 45.586 14.015 11.813-7.262 28.346 2.934 43.647 10.195 15.3 51.862 29.368 57.401 47.313 5.59 18.094 8.603 37.333 8.603 57.262z" fill="#99e6fc"/><path d="m288.434 413.841c-10.549 1.784-21.381 2.706-32.434 2.706-55.095 0-104.829-22.994-140.113-59.908-26.094-43.906-45.16-81.963-45.16-133.9 0-48.668 6.895-77.496 39.04-127.191 35.532-40.816 87.87-66.618 146.233-66.618 11.062 0 21.91.93 32.468 2.706-45.151 7.605-85.002 30.821-113.808 63.911-29.634 34.038-47.575 78.524-47.575 127.191 0 51.937 20.425 99.11 53.695 133.9 28.2 29.506 65.635 50.119 107.654 57.203z" fill="#62dbfb"/><g><g fill="#5bd89d"><path d="m441.205 165.476h-87.272c-6.538 0-12.453-2.646-16.737-6.93-4.285-4.285-6.931-10.2-6.931-16.738 0-8.39 4.37-15.747 10.951-19.955h-44.606c-13.076 0-23.668-10.592-23.668-23.668 0-13.067 10.592-23.668 23.668-23.668h84.259c28.03 23.625 49.257 55.068 60.336 90.959z"/><path d="m179.533 256.538c4.285 4.285 6.931 10.208 6.931 16.737 0 13.076-10.592 23.668-23.66 23.668h-21.193c.145.179.282.35.41.538 1.451 1.895 2.62 4.012 3.44 6.299.393 1.093.708 2.219.93 3.388.307 1.494.461 3.039.461 4.626 0 13.067-10.592 23.668-23.668 23.668h-11.676c3.277 4.063 5.241 9.226 5.241 14.843v.009c0 2.194-.299 4.31-.862 6.325-33.27-34.789-53.695-81.963-53.695-133.9 0-48.668 17.941-93.153 47.575-127.191h53.038c3.559 0 6.939.785 9.969 2.202 2.535 1.169 4.814 2.782 6.76 4.728 4.285 4.285 6.931 10.208 6.931 16.737 0 13.067-10.592 23.668-23.66 23.668h-14.638c3.278 4.063 5.249 9.227 5.249 14.851 0 12.47-9.653 22.686-21.893 23.583-.589.051-1.178.077-1.775.077h-55.539c3.277 4.063 5.241 9.226 5.241 14.851s-1.963 10.788-5.241 14.851h55.538c13.067 0 23.668 10.592 23.668 23.668 0 5.625-1.972 10.788-5.249 14.843h14.638c6.53 0 12.453 2.646 16.729 6.931z"/><path d="m448.997 240.585c-1.212 13.272-3.764 26.152-7.511 38.511-2.842 1.212-5.966 1.878-9.244 1.878h-49.461c3.448 2.074 6.316 4.993 8.33 8.467 2.014 3.482 3.167 7.52 3.167 11.83 0 13.067-10.601 23.668-23.668 23.668h-33.466c3.44 2.065 6.308 4.984 8.322 8.467 2.014 3.482 3.167 7.52 3.167 11.83 0 13.067-10.592 23.668-23.668 23.668h-13.178c-6.538 0-12.453-2.654-16.737-6.931-4.285-4.285-6.931-10.2-6.931-16.737 0-9.978 6.171-18.496 14.894-21.987-4.362-1.741-8.083-4.746-10.72-8.552-2.629-3.815-4.174-8.441-4.174-13.426 0-8.621 4.609-16.157 11.488-20.297h-4.225c-6.538 0-12.453-2.654-16.737-6.931-4.285-4.285-6.931-10.2-6.931-16.737 0-13.076 10.592-23.668 23.668-23.668h4.225c-6.879-4.14-11.488-11.676-11.488-20.297 0-13.067 10.592-23.668 23.668-23.668h104.052c13.067 0 23.659 10.601 23.659 23.668 0 8.621-4.6 16.157-11.488 20.297h4.233c6.529 0 12.453 2.646 16.737 6.931.009.008.009.008.017.016z"/></g><path d="m146.391 307.168c.307 1.494.461 3.039.461 4.626 0 13.067-10.592 23.668-23.668 23.668h-11.676c3.277 4.063 5.241 9.226 5.241 14.843v.009c0 2.194-.299 4.31-.862 6.325-33.27-34.789-53.695-81.963-53.695-133.9 0-48.668 17.941-93.153 47.575-127.191h53.038c3.559 0 6.939.785 9.969 2.202-19.998 23.668-34.422 52.201-41.251 83.568-.589.051-1.178.077-1.775.077h-55.539c3.277 4.063 5.241 9.226 5.241 14.851s-1.963 10.788-5.241 14.851h53.217c-.222 3.849-.341 7.733-.341 11.642 0 26.288 5.232 51.348 14.715 74.205.077.179.145.359.222.538 1.373 3.276 2.824 6.503 4.369 9.686z" fill="#4ac688"/></g></g><path d="m504.71 219.41-5.1 34.81-13.71 93.6c-2.11 14.39-8.81 27.71-19.09 38l-73.69 73.69v12.7c-37.919 24.106-82.609 38.503-130.57 39.708-2.177.055-4.36-4.744-6.55-4.744s-4.37-.03-6.55-.08v-27.134c0-31.08 12.35-60.88 34.32-82.85l12.29-12.29 18.22 18.23 33.2-25.27 69.87-53.18 38.94-116.72c2.35-7.01 7.53-12.34 13.88-15.06 4.77-2.05 10.2-2.62 15.6-1.33 2.26.53 4.38 1.37 6.32 2.44 8.9 4.92 14.16 14.97 12.62 25.48z" fill="#ffdfcf"/><path d="m492.091 193.928c-8.845 2.752-15.966 9.911-18.369 19.367l-30.062 118.495-89.925 67.807-6.258-21.818 69.871-53.188 38.946-116.713c4.108-12.285 16.896-19.405 29.481-16.393 2.256.534 4.378 1.367 6.316 2.443z" fill="#ffcebf"/><path d="m300.337 290.465c-18.11 6.021-27.911 25.582-21.89 43.692l8.111 24.397c-17.259 13.144-25.133 36.254-17.906 57.992 9.094 27.357 38.644 42.161 66 33.067 27.357-9.094 42.161-38.644 33.067-66l-23.689-71.257c-6.021-18.111-25.583-27.911-43.693-21.891z" fill="#ffdfcf"/><path d="m294.16 425.01c-7.96 16.04-12.21 36.7-12.21 54.95v30.74c-6.405.645-12.872 1.054-19.4 1.218-2.176.055-4.36-4.744-6.55-4.744s-4.37-.03-6.55-.08v-27.134c0-25.36 8.23-49.87 23.2-69.97z" fill="#ffcebf"/><path d="m314.279 288.83c-9.945 8.903-14.22 23.184-9.744 36.65l8.111 24.397c-17.257 13.146-25.131 36.26-17.906 57.994 7.593 22.84-17 36.032-26.095 8.675-7.222-21.74.648-44.848 17.906-57.994l-8.105-24.395c-6.021-18.113 3.778-37.673 21.891-43.694 4.64-1.542 9.368-2.045 13.942-1.633z" fill="#ffcebf"/><path d="m262.55 479.96v31.96c-2.18.05-4.36.08-6.55.08s-4.37-.03-6.55-.08c-47.96-1.21-92.65-15.6-130.57-39.71v-12.7l-73.69-73.69c-10.28-10.29-16.98-23.61-19.09-38l-13.71-93.6-5.1-34.81c-1.54-10.51 3.72-20.56 12.62-25.48 1.94-1.07 4.06-1.91 6.32-2.44 5.4-1.29 10.83-.72 15.6 1.33 6.35 2.72 11.53 8.05 13.88 15.06l38.94 116.72 69.87 53.18 33.2 25.27 18.22-18.23 12.29 12.29c21.97 21.97 34.32 51.77 34.32 82.85z" fill="#d78878"/><path d="m141.5 448.17v36.85c-7.78-3.89-15.32-8.17-22.62-12.81v-12.7l-73.69-73.69c-10.28-10.29-16.98-23.61-19.09-38l-13.71-93.6-5.1-34.8c-1.54-10.52 3.72-20.56 12.62-25.48 1.94-1.08 4.06-1.91 6.32-2.45 2.5-.6 5-.8 7.44-.63-3.2 4.93-4.67 10.99-3.76 17.21l.56 3.82 18.26 124.59c2.11 14.38 8.8 27.7 19.08 37.99z" fill="#ca6e59"/><path d="m211.663 290.465c18.11 6.021 27.911 25.582 21.89 43.692l-8.11 24.397c17.259 13.144 25.133 36.254 17.906 57.992-9.094 27.357-38.644 42.161-66 33.067-27.357-9.094-42.161-38.644-33.067-66l23.689-71.257c6.02-18.111 25.582-27.911 43.692-21.891z" fill="#d78878"/><path d="m222.851 296.676c-8.47 3.84-15.38 11.06-18.55 20.58l-42.16 124.34c-17.24-13.15-25.09-36.25-17.86-57.98l23.69-71.26c6.02-18.11 25.58-27.91 43.69-21.89 4.21 1.4 7.97 3.53 11.19 6.21z" fill="#ca6e59"/></g></svg>