<svg id="Capa_1" enable-background="new 0 0 512 512" height="512" viewBox="0 0 512 512" width="512" xmlns="http://www.w3.org/2000/svg"><g><path d="m512 256c0 78.275-35.13 148.345-90.485 195.303-3.537 3-19.727-3.502-23.425-.694-42.966 32.622-75.672 45.54-133.781 45.54-59.036 0-113.404-19.983-156.71-53.554-2.989-2.317-14.234 11.153-17.115 8.709-55.354-46.959-90.484-117.029-90.484-195.304 0-141.385 114.615-256 256-256s256 114.615 256 256z" fill="#49b6fc"/><path d="m472 260.468v12.255c0 56.486-45.791 102.277-102.276 102.277h-227.448c-56.485 0-102.276-45.791-102.276-102.276v-12.255c0-31.902 14.606-60.391 37.495-79.148 10.013-68.624 69.105-121.321 140.505-121.321 34.794 0 66.664 12.514 91.357 33.287 15.13-13.254 34.949-21.287 56.643-21.287 47.497 0 86 38.503 86 86 0 11.879-2.408 23.195-6.764 33.487 16.623 18.188 26.764 42.4 26.764 68.981zm-362-230.468c-11.046 0-20 8.954-20 20s8.954 20 20 20 20-8.954 20-20-8.954-20-20-20zm239.839 12.239c-4.683 10.467-15.189 17.761-27.398 17.761-16.569 0-30-13.432-30-30 0-12.21 7.294-22.715 17.762-27.398.526-.236 39.872 39.11 39.636 39.637z" fill="#93d0fd"/><path d="m276.354 266.933c-13.01-33.367-6.041-72.726 20.906-99.673s66.306-33.915 99.673-20.906c13.009 33.367-87.212 133.588-120.579 120.579zm-32.708 6.713c-33.367 13.01-72.726 6.041-99.673-20.906s-33.915-66.306-20.906-99.673c33.367-13.009 133.589 87.212 120.579 120.579z" fill="#00a86d"/><path d="m376.027 246.027c-26.947 26.947-66.306 33.915-99.673 20.906-13.01-33.367 87.212-133.588 120.579-120.579 13.009 33.367 6.041 72.726-20.906 99.673zm-153.286-72.054c26.947 26.947 33.915 66.306 20.905 99.673-33.367 13.01-133.588-87.212-120.579-120.579 33.367-13.009 72.727-6.041 99.674 20.906z" fill="#4bcd5c"/><path d="m321.225 231.665-57.725 57.724v127.036c0 4.142-3.357 7.5-7.5 7.5s-7.5-3.358-7.5-7.5v-127.036l-57.725-57.724c-2.929-2.929-2.929-7.678 0-10.606 2.93-2.929 7.678-2.929 10.607 0l54.618 54.617 54.617-54.617c2.931-2.93 7.679-2.929 10.607 0s2.929 7.677.001 10.606z" fill="#007b4e"/><path d="m231.781 98.649c-16.23 3.099-33.501-3.368-43.462-17.856s-9.817-32.929-1.112-46.974c16.23-3.099 53.279 50.786 44.574 64.83zm188.044 169.556c-4.317-22.605 4.691-46.66 24.87-60.534s45.864-13.673 65.425-1.549c4.317 22.606-70.734 74.207-90.295 62.083z" fill="#007b4e"/><path d="m231.781 98.649c-16.23 3.099-53.279-50.786-44.574-64.83 16.23-3.099 33.501 3.368 43.462 17.856 9.962 14.488 9.817 32.93 1.112 46.974zm188.044 169.556c-4.317-22.605 70.734-74.206 90.295-62.082 4.317 22.605-4.691 46.66-24.87 60.534s-45.864 13.672-65.425 1.548z" fill="#00915d"/><path d="m352.441 30c0 4.359-.93 8.501-2.602 12.238-3.737 1.672-7.879 2.602-12.238 2.602-16.569 0-30-13.432-30-30 0-4.359.93-8.501 2.602-12.238 3.737-1.672 7.879-2.602 12.238-2.602 16.568 0 30 13.432 30 30zm-203.278 285.224c-4.683 10.468-15.189 17.761-27.398 17.761-16.569 0-30-13.432-30-30 0-12.21 7.294-22.715 17.762-27.398.526-.235 39.871 39.11 39.636 39.637z" fill="#bde2fd"/><path d="m395.418 314.704c0 11.046-8.954 20-20 20s-20-8.954-20-20 8.954-20 20-20 20 8.955 20 20zm-323.653-157.563c-11.046 0-20 8.954-20 20s8.954 20 20 20 20-8.954 20-20-8.955-20-20-20zm302.246-73.313c-11.046 0-20 8.954-20 20s8.954 20 20 20 20-8.954 20-20-8.954-20-20-20zm-104.011 32.105c-6.686 0-12.106 5.42-12.106 12.106s5.42 12.106 12.106 12.106 12.106-5.42 12.106-12.106-5.42-12.106-12.106-12.106zm159.646-12.105c-6.686 0-12.106 5.42-12.106 12.106s5.42 12.106 12.106 12.106 12.106-5.42 12.106-12.106-5.42-12.106-12.106-12.106zm-327.54 8.481c-6.686 0-12.106 5.42-12.106 12.106s5.42 12.106 12.106 12.106 12.106-5.42 12.106-12.106-5.42-12.106-12.106-12.106zm86.473 202.943c-6.686 0-12.106 5.42-12.106 12.106s5.42 12.106 12.106 12.106 12.106-5.42 12.106-12.106-5.42-12.106-12.106-12.106zm-66.814-42.266c-4.359 0-8.501.93-12.238 2.602-1.672 3.737-2.602 7.879-2.602 12.238 0 16.568 13.431 30 30 30 4.359 0 8.501-.93 12.238-2.602 1.672-3.738 2.602-7.879 2.602-12.238 0-16.569-13.432-30-30-30z" fill="#e5f2fd"/><path d="m421.515 451.303c-44.629 37.86-102.405 60.697-165.515 60.697-38.859 0-75.696-8.658-108.687-24.151-11.956-5.615-16.204-20.517-9.085-31.642 31.584-49.353 79.635-87.154 136.404-105.651 5.208-1.697 10.881 1.067 12.674 6.243.175.506.331 1.02.465 1.543 3.087-1.574 6.636-2.37 10.39-2.129 8.219.527 15.396 6.21 17.802 14.087.018.059.036.119.053.178 1.457 4.927 4.803 9.099 9.481 11.223 5.74 2.607 11.383 5.392 16.921 8.346 4.452 2.375 9.688 2.79 14.498 1.265 2.641-.838 5.52-1.142 8.51-.785 9.14 1.089 16.462 8.526 17.427 17.68.009.082.017.165.024.247.432 5.005 2.735 9.653 6.64 12.813 11.393 9.217 22.089 19.259 31.998 30.036z" fill="#ad5e2e"/><path d="m451.298 429.652c0 7.148-5.795 12.943-12.943 12.943s-12.943-5.795-12.943-12.943 5.795-12.943 12.943-12.943 12.943 5.795 12.943 12.943zm-182.895-86.304c-4.685 0-8.994 1.611-12.403 4.31-3.409-2.699-7.718-4.31-12.403-4.31-9.306 0-17.127 6.355-19.36 14.962-2.708-1.369-5.769-2.14-9.01-2.14-9.82 0-17.986 7.077-19.678 16.409-3.974-2.935-9.074-4.434-14.533-3.729-8.923 1.152-16.083 8.368-17.18 17.298-.008.063-.015.126-.022.19-.512 4.508-2.991 8.535-6.884 10.864-2.227 1.333-4.436 2.693-6.625 4.082-8.414 5.338-18.14 8.513-28.104 8.371-.369-.005-.741-.001-1.115.015-10.04.403-18.385 8.453-19.12 18.474-.014.19-.025.38-.034.57-.328 7.174-3.288 13.942-8.232 19.15-1.081 1.138-2.152 2.285-3.215 3.441 18.108 15.361 38.38 28.249 60.294 38.142-.01-.043-.02-.085-.03-.128-2.792-11.934 4.401-24.228 16.19-27.577 2.619-.744 5.245-1.011 7.794-.856 5.151.312 10.201-1.633 13.737-5.393 5.312-5.649 10.821-11.126 16.518-16.418 3.99-3.706 5.889-9.078 5.436-14.505-.006-.074-.012-.148-.017-.222-.776-10.45 5.795-20.274 15.741-23.574 1.856-.616 3.721-.988 5.565-1.135 5.911-.475 11.258-3.907 13.959-9.186 3.074-6.006 8.731-10.626 15.846-12.131.308-.065.615-.124.923-.176 5.422-.923 9.919-4.524 12.505-9.378 2.654-4.981 7.101-8.968 12.683-10.949-2.4-8.358-10.099-14.471-19.226-14.471zm-147.939 49.595c7.148 0 12.943-5.795 12.943-12.943s-5.795-12.943-12.943-12.943-12.943 5.795-12.943 12.943 5.795 12.943 12.943 12.943zm86.475 73.694c-7.148 0-12.943 5.795-12.943 12.943s5.795 12.943 12.943 12.943 12.943-5.795 12.943-12.943-5.795-12.943-12.943-12.943zm38.971-36.028c-5.523 0-10 4.477-10 10s4.477 10 10 10 10-4.477 10-10-4.477-10-10-10zm118.101-3.604c-5.523 0-10 4.477-10 10s4.477 10 10 10 10-4.477 10-10-4.477-10-10-10zm65.635-29.12c0-5.523-4.477-10-10-10s-10 4.477-10 10 4.477 10 10 10 10-4.477 10-10z" fill="#a05528"/><path d="m359.821 493.169c-9.285 13.668-26.07 21.307-43.359 18.106-17.288-3.201-30.226-16.343-34.002-32.429 9.285-13.669 73.585-1.763 77.361 14.323z" fill="#00a86d"/><path d="m359.821 493.169c-9.285 13.668-73.585 1.763-77.36-14.323 9.285-13.668 26.07-21.307 43.359-18.106 17.287 3.2 30.225 16.343 34.001 32.429z" fill="#4bcd5c"/></g></svg>