<svg id="Capa_1" enable-background="new 0 0 512 512" height="512" viewBox="0 0 512 512" width="512" xmlns="http://www.w3.org/2000/svg"><g><path d="m512 256c0 141.38-114.62 256-256 256-42.96 0-83.44-10.58-118.99-29.29-43.45-22.85 7.088-65.07-17.112-107.671-7.29-12.82-100.128-19.099-105.138-33.179v-.01c-9.56-26.84-14.76-55.73-14.76-85.85 0-141.38 114.62-256 256-256s256 114.62 256 256z" fill="#fd4755"/><path d="m260.781 386.069 163.313-130.765c12.443-9.771 30.29-8.433 41.117 3.1 10.835 11.531 11.071 29.426.543 41.23l-105.566 118.403" fill="#f7ae75"/><g><path d="m407.108 198.851c0 52.24 25.045 99.762-7.888 135.25-36.321 39.119-88.186 63.601-145.778 63.601-68.86 0-129.541-35.001-165.226-88.176-21.244-31.632-7.053-69.703-7.053-110.674 0-61.935 1.746-117.254 46.134-153.724 34.318-28.198 78.257-45.128 126.145-45.128 60.531 0 114.736 27.046 151.216 69.703 29.704 34.748 2.45 79.847 2.45 129.148z" fill="#60b7ff"/><path d="m292.357 393.897c-12.584 2.493-25.594 3.806-38.916 3.806-68.86 0-129.54-35.001-165.225-88.178-21.244-31.63-6.76-69.699-6.76-110.673 0-61.931 1.455-117.252 45.839-153.721 34.317-28.196 78.259-45.13 126.146-45.13 13.314 0 26.332 1.305 38.916 3.806-32.678 6.478-62.467 20.965-87.246 41.324-44.392 36.469-72.705 91.79-72.705 153.721 0 40.974 12.382 79.043 33.626 110.673 28.787 42.893 73.831 73.964 126.325 84.372z" fill="#26a6fe"/><g fill="#6fd7a3"><path d="m214.416 98.012h-45.941c7.3 0 13.907 2.957 18.689 7.74 4.792 4.782 7.749 11.399 7.749 18.698 0 14.599-11.839 26.438-26.438 26.438h-68.767c7.3 0 13.907 2.957 18.689 7.74 4.792 4.792 7.749 11.399 7.749 18.698 0 14.599-11.839 26.438-26.438 26.438h50.106c14.599 0 26.438 11.839 26.438 26.438 0 14.609-11.839 26.438-26.438 26.438h43.545c7.3 0 13.907 2.957 18.698 7.749 4.782 4.782 7.74 11.389 7.74 18.698 0 14.599-11.839 26.438-26.438 26.438h-105.143c-21.244-31.632-33.625-69.703-33.625-110.674 0-61.935 28.319-117.254 72.707-153.724h87.119c14.599 0 26.438 11.839 26.438 26.438-.001 14.609-11.839 26.447-26.439 26.447z"/><path d="m452.293 198.851c0 52.24-20.14 99.762-53.072 135.25h-113.146c-7.3 0-13.907-2.957-18.689-7.749-4.792-4.782-7.749-11.389-7.749-18.689 0-14.609 11.839-26.447 26.438-26.447h91.695c-14.609 0-26.447-11.839-26.447-26.438 0-7.3 2.957-13.907 7.749-18.698 4.782-4.782 11.389-7.74 18.698-7.74h-52.408c-7.3 0-13.907-2.957-18.689-7.74-4.792-4.792-7.749-11.399-7.749-18.698 0-14.599 11.839-26.438 26.438-26.438h43.527c-7.3 0-13.916-2.957-18.698-7.74-4.792-4.792-7.749-11.399-7.749-18.698 0-14.609 11.839-26.447 26.447-26.447h-45.941c-14.599 0-26.438-11.839-26.438-26.438s11.839-26.438 26.438-26.438h81.71c29.704 34.748 47.635 79.847 47.635 129.148z"/></g><g><path d="m138.232 150.886h-38.527c7.302 0 13.912 2.959 18.689 7.744 4.793 4.793 7.752 11.395 7.752 18.697 0 14.595-11.838 26.441-26.441 26.441h32.764c.948 39.102 13.174 75.393 33.564 105.756h-77.816c-21.244-31.63-33.626-69.699-33.626-110.673 0-61.931 28.321-117.252 72.705-153.721h77.816c-32.539 26.728-56.44 63.593-66.88 105.756z" fill="#3ec3a4"/></g></g><g><path d="m479.05 345.6-36.64 27.28-98.54 73.37c-15.15 11.27-33.54 17.35-52.43 17.36h-135.33l-19.1 19.1c-56.53-29.72-100.59-79.98-122.25-140.85 27.36-23.14 62.14-35.96 98.24-35.96h22.57l-.01 33.47 53.69 7.28 112.99 15.33 142.94-71.43c8.6-4.28 18.25-4.41 26.57-1.08 6.27 2.5 11.78 6.96 15.55 13.1 1.59 2.57 2.76 5.28 3.56 8.05 3.66 12.69-.74 26.75-11.81 34.98z" fill="#ffce9a"/><path d="m490.862 310.62c-10.649-5.596-23.762-5.56-34.651.916l-136.416 81.205-144.84-20.31 14.288-25.781 113 15.319 142.937-71.411c15.053-7.509 33.334-2.304 42.124 12.019 1.584 2.563 2.767 5.276 3.558 8.043z" fill="#f7ae75"/><path d="m226.135 223.186c-22.158-11.102-49.121-2.138-60.222 20.02l-14.955 29.851c-27.918-3.779-56.37 10.213-69.694 36.809-16.77 33.472-3.23 74.2 30.242 90.97s74.2 3.23 90.97-30.242l43.681-87.185c11.099-22.159 2.136-49.121-20.022-60.223z" fill="#ffce9a"/><g fill="#f7ae75"><path d="m96.92 341.06c-22.04 7.42-44.91 22.49-61.67 39.24l-1.98 1.98c-7.29-12.82-13.5-26.34-18.51-40.42v-.01c21.74-18.37 48.16-30.24 76.2-34.34z"/><path d="m240.439 234.487c-17.307-.957-34.347 8.232-42.601 24.707l-14.956 29.851c-27.918-3.775-56.373 10.22-69.696 36.812-14.001 27.945-48.698 17.476-31.928-15.996 13.331-26.595 41.778-40.587 69.696-36.812l14.958-29.843c11.103-22.162 38.063-31.124 60.225-20.021 5.676 2.844 10.481 6.723 14.302 11.302z"/></g></g></g></svg>