<svg id="Capa_1" enable-background="new 0 0 512 512" height="512" viewBox="0 0 512 512" width="512" xmlns="http://www.w3.org/2000/svg"><g><circle cx="256" cy="256" fill="#5a565e" r="256"/><g><path d="m483.07 256c0 7.05-.32 14.02-.95 20.91-.599 6.558-35.991 13.035-37.136 19.418-1.569 8.752 30.874 17.329 28.336 25.702-28.28 93.21-114.88 161.04-217.32 161.04-64.55 0-122.82-26.94-164.16-70.19-28.134-51.606-54.29-96.03-54.29-156.88 0-57.02 29.647-109.14 47.12-149.02 41.63-47.82 102.95-78.05 171.33-78.05 55.73 0 106.78 20.08 146.3 53.41 16.42 13.84-8.508 33.211 3.437 51.137s60.763 34.408 67.253 55.433c6.55 21.2 10.08 43.74 10.08 67.09z" fill="#99e6fc"/><path d="m294 479.9c-12.36 2.09-25.05 3.17-38 3.17-64.55 0-122.82-26.94-164.16-70.19-30.573-51.442-52.91-96.03-52.91-156.88 0-57.02 8.079-90.797 45.74-149.02 41.63-47.82 102.95-78.05 171.33-78.05 12.96 0 25.67 1.09 38.04 3.17-52.9 8.91-99.59 36.11-133.34 74.88-34.72 39.88-55.74 92-55.74 149.02 0 60.85 23.93 116.12 62.91 156.88 33.04 34.57 76.9 58.72 126.13 67.02z" fill="#62dbfb"/><g><g fill="#5bd89d"><path d="m472.99 188.91h-102.25c-7.66 0-14.59-3.1-19.61-8.12s-8.12-11.95-8.12-19.61c0-9.83 5.12-18.45 12.83-23.38h-52.26c-15.32 0-27.73-12.41-27.73-27.73 0-15.31 12.41-27.73 27.73-27.73h98.72c32.84 27.68 57.71 64.52 70.69 106.57z"/><path d="m166.41 295.6c5.02 5.02 8.12 11.96 8.12 19.61 0 15.32-12.41 27.73-27.72 27.73h-24.83c.17.21.33.41.48.63 1.7 2.22 3.07 4.7 4.03 7.38.46 1.28.83 2.6 1.09 3.97.36 1.75.54 3.56.54 5.42 0 15.31-12.41 27.73-27.73 27.73h-13.68c3.84 4.76 6.14 10.81 6.14 17.39v.01c0 2.57-.35 5.05-1.01 7.41-38.98-40.76-62.91-96.03-62.91-156.88 0-57.02 21.02-109.14 55.74-149.02h62.14c4.17 0 8.13.92 11.68 2.58 2.97 1.37 5.64 3.26 7.92 5.54 5.02 5.02 8.12 11.96 8.12 19.61 0 15.31-12.41 27.73-27.72 27.73h-17.15c3.84 4.76 6.15 10.81 6.15 17.4 0 14.61-11.31 26.58-25.65 27.63-.69.06-1.38.09-2.08.09h-65.07c3.84 4.76 6.14 10.81 6.14 17.4s-2.3 12.64-6.14 17.4h65.07c15.31 0 27.73 12.41 27.73 27.73 0 6.59-2.31 12.64-6.15 17.39h17.15c7.65 0 14.59 3.1 19.6 8.12z"/><path d="m482.12 276.91c-1.42 15.55-4.41 30.64-8.8 45.12-3.33 1.42-6.99 2.2-10.83 2.2h-57.95c4.04 2.43 7.4 5.85 9.76 9.92 2.36 4.08 3.71 8.81 3.71 13.86 0 15.31-12.42 27.73-27.73 27.73h-39.21c4.03 2.42 7.39 5.84 9.75 9.92s3.71 8.81 3.71 13.86c0 15.31-12.41 27.73-27.73 27.73h-15.44c-7.66 0-14.59-3.11-19.61-8.12-5.02-5.02-8.12-11.95-8.12-19.61 0-11.69 7.23-21.67 17.45-25.76-5.11-2.04-9.47-5.56-12.56-10.02-3.08-4.47-4.89-9.89-4.89-15.73 0-10.1 5.4-18.93 13.46-23.78h-4.95c-7.66 0-14.59-3.11-19.61-8.12-5.02-5.02-8.12-11.95-8.12-19.61 0-15.32 12.41-27.73 27.73-27.73h4.95c-8.06-4.85-13.46-13.68-13.46-23.78 0-15.31 12.41-27.73 27.73-27.73h121.91c15.31 0 27.72 12.42 27.72 27.73 0 10.1-5.39 18.93-13.46 23.78h4.96c7.65 0 14.59 3.1 19.61 8.12.01.01.01.01.02.02z"/></g><path d="m127.58 354.92c.36 1.75.54 3.56.54 5.42 0 15.31-12.41 27.73-27.73 27.73h-13.68c3.84 4.76 6.14 10.81 6.14 17.39v.01c0 2.57-.35 5.05-1.01 7.41-38.98-40.76-62.91-96.03-62.91-156.88 0-57.02 21.02-109.14 55.74-149.02h62.14c4.17 0 8.13.92 11.68 2.58-23.43 27.73-40.33 61.16-48.33 97.91-.69.06-1.38.09-2.08.09h-65.07c3.84 4.76 6.14 10.81 6.14 17.4s-2.3 12.64-6.14 17.4h62.35c-.26 4.51-.4 9.06-.4 13.64 0 30.8 6.13 60.16 17.24 86.94.09.21.17.42.26.63 1.61 3.84 3.31 7.62 5.12 11.35z" fill="#4ac688"/></g></g><g><path d="m104.114 196.967c-6.097 0-11.04-4.943-11.04-11.04v-162.463c0-6.097 4.943-11.04 11.04-11.04 6.097 0 11.04 4.943 11.04 11.04v162.463c0 6.097-4.943 11.04-11.04 11.04z" fill="#d78878"/><path d="m153.606 113.646h-98.984c-9.429 0-17.073-7.644-17.073-17.073v-54.465c0-9.429 7.644-17.073 17.073-17.073h98.983c9.429 0 17.073 7.644 17.073 17.073v54.465c0 9.429-7.643 17.073-17.072 17.073z" fill="#f9f7f8"/><path d="m67.39 113.648h-12.77c-9.43 0-17.07-7.65-17.07-17.08v-54.46c0-9.43 7.64-17.07 17.07-17.07h12.77c-9.43 0-17.08 7.64-17.08 17.07v54.46c0 9.43 7.65 17.08 17.08 17.08z" fill="#dedbee"/></g><g><path d="m392.553 256.734c-6.097 0-11.04-4.943-11.04-11.04v-162.463c0-6.097 4.943-11.04 11.04-11.04 6.097 0 11.04 4.943 11.04 11.04v162.463c0 6.098-4.943 11.04-11.04 11.04z" fill="#d78878"/><path d="m442.045 173.413h-98.983c-9.429 0-17.073-7.644-17.073-17.073v-54.465c0-9.429 7.644-17.073 17.073-17.073h98.983c9.429 0 17.073 7.644 17.073 17.073v54.465c0 9.429-7.644 17.073-17.073 17.073z" fill="#f9f7f8"/></g><g><path d="m302.651 417.751c-6.097 0-11.04-4.943-11.04-11.04v-162.463c0-6.097 4.943-11.04 11.04-11.04 6.097 0 11.04 4.943 11.04 11.04v162.463c0 6.098-4.943 11.04-11.04 11.04z" fill="#d78878"/><path d="m352.143 334.43h-98.983c-9.429 0-17.073-7.644-17.073-17.073v-54.465c0-9.429 7.644-17.073 17.073-17.073h98.983c9.429 0 17.073 7.644 17.073 17.073v54.465c-.001 9.429-7.644 17.073-17.073 17.073z" fill="#f9f7f8"/></g><g fill="#dedbee"><path d="m355.829 173.415h-12.77c-9.43 0-17.07-7.65-17.07-17.08v-54.46c0-9.43 7.64-17.07 17.07-17.07h12.77c-9.43 0-17.08 7.64-17.08 17.07v54.46c0 9.43 7.65 17.08 17.08 17.08z"/><path d="m265.927 334.432h-12.77c-9.43 0-17.07-7.65-17.07-17.08v-54.46c0-9.43 7.64-17.07 17.07-17.07h12.77c-9.43 0-17.08 7.64-17.08 17.07v54.46c0 9.43 7.65 17.08 17.08 17.08z"/></g></g></svg>