<svg id="Layer_1" enable-background="new 0 0 512 512" height="512" viewBox="0 0 512 512" width="512" xmlns="http://www.w3.org/2000/svg"><g><path d="m256 21.996c-135.311 0-245.002 109.691-245.002 245.002 0 127.348 97.165 231.989 221.401 243.866l121.903-19.401c86.365-37.877 146.701-124.118 146.701-224.464-.001-135.312-109.692-245.003-245.003-245.003z" fill="#2a428c"/><path d="m383.66 0h-170.659c-3 2.391-8.888 7.996-8.974 15.243-.065 5.38 3.066 10.447 9.311 15.079-3.596 4.49-14.75 19.978-12.559 36.838 1.315 10.114 7.223 18.811 17.564 25.854l18.569 137.299v172.938h146.748c24.837 0 45.159-20.322 45.159-45.159v-312.933c0-24.837-20.322-45.159-45.159-45.159z" fill="#deeeff"/><path d="m215.525 0h-87.185c-24.838 0-45.159 20.322-45.159 45.159v312.933c0 24.838 20.322 45.159 45.159 45.159h110.072v-173.038l-18.673-138.066c-37.286-24.801-4.214-62.108-4.214-62.108-22.5-15.409 0-30.039 0-30.039z" fill="#d3dcfb"/><path d="m383.66 30.039h-170.69c.124.094.241.189.368.283-3.596 4.49-14.75 19.978-12.559 36.838 1.315 10.114 7.223 18.811 17.564 25.854l18.569 137.299v48.783h161.867v-233.936c0-8.197-6.924-15.121-15.119-15.121z" fill="#d3dcfb"/><path d="m238.412 230.213-18.673-138.066c-37.286-24.801-4.214-62.108-4.214-62.108h-87.185c-8.197 0-15.121 6.924-15.121 15.121v233.937h125.192v-48.884z" fill="#bec8f7"/><path d="m236.912 305.798v67.414h146.748c8.195 0 15.12-6.924 15.12-15.12v-52.295h-161.868z" fill="#73c3f9"/><path d="m238.412 305.798h-125.192v52.295c0 8.195 6.924 15.12 15.121 15.12h110.072v-67.415z" fill="#49b1f7"/><path d="m236.912 277.427h161.867v30.039h-161.867z" fill="#49b1f7"/><path d="m113.22 277.427h125.192v30.039h-125.192z" fill="#1e9ef4"/><ellipse cx="255.999" cy="157.537" fill="#e80054" rx="74.762" ry="74.762" transform="matrix(.135 -.991 .991 .135 65.449 390.01)"/><circle cx="277.532" cy="137.694" fill="#ff4155" r="33.42"/><path d="m270.911 435.253c22.727 4.211 55.637 4.027 84.97-19.951 4.332-11.388 15.793-25.489 15.793-54.893.001-8.032.001-64.775.001-85.646 0-9.994-8.177-18.17-18.171-18.17h-1.728c-9.994 0-18.171 8.177-18.171 18.171v-12.227c0-9.712-7.071-18.24-16.713-19.398-11.494-1.38-21.356 7.662-21.356 18.895v-3.84c0-9.711-7.071-18.239-16.713-19.398-11.493-1.381-21.356 7.661-21.356 18.895v-60.527c0-9.712-7.071-18.24-16.714-19.398-11.494-1.38-21.356 7.662-21.356 18.895v101.025c0 1.224-.626 2.295-1.569 2.924l.461 17.592c.138 5.271-3.473 8.399-6.608 9.475-3.227 1.11-7.775.812-10.845-3.351-3.071-4.162-5.147-8.91-6.238-14.171-12.451 15.688-14.777 37.263-5.731 55.32 8.913 17.234-3.046-1.716 39.014 52.606.743.935 1.391 1.932 1.952 2.971 6.043 3.216 21.308 10.539 41.078 14.201z" fill="#ffc7ab"/><path d="m233.975 177.626h8.873c5.096 0 9.265 4.169 9.265 9.265v16.666c0 5.096-4.169 9.265-9.265 9.265h-8.873c-5.096 0-9.265-4.169-9.265-9.265v-16.666c.001-5.095 4.17-9.265 9.265-9.265z" fill="#fce4d9"/><g fill="#ffaa7b"><path d="m219.934 318.158-.537-20.472c0 1.99-1.646 3.584-3.634 3.512-5.132-.188-13.036-.367-19.417 6.857-1.09 1.234-2.105 2.514-3.06 3.827 1.313 5.387 3.562 9.811 6.226 13.421 6.559 8.891 20.712 3.901 20.422-7.145z"/><path d="m227.881 418.082c2.838 3.573 4.382 8.001 4.382 12.564l.135 80.218c7.769.742 15.639 1.136 23.602 1.136 34.964 0 68.209-7.34 98.301-20.538l-.054-68.481c0-3.548 1.241-7.076 3.053-11.021-57.015 49.639-129.419 6.122-129.419 6.122z"/></g></g></svg>