<svg id="Capa_1" enable-background="new 0 0 512 512" height="512" viewBox="0 0 512 512" width="512" xmlns="http://www.w3.org/2000/svg"><g><path d="m49.04 406.707c-30.841-42.28-49.04-94.368-49.04-150.707 0-141.385 114.615-256 256-256s256 114.615 256 256c0 56.339-18.199 108.427-49.04 150.707-.148.203-14.619-8.938-16.769-8.833-36.964 1.802-340.439-.725-382.638 1.892-3.28.203-14.329 7.193-14.513 6.941z" fill="#00c8de"/><path d="m455.596 211.749c0 110.234-89.362 199.596-199.596 199.596s-199.596-89.362-199.596-199.596 89.362-199.596 199.596-199.596 199.596 89.362 199.596 199.596z" fill="#2dd2e3"/><path d="m76.718 163.801c-1.464-1.465-2.196-3.385-2.196-5.304s.732-3.839 2.196-5.304l17.982-17.982c1.407-1.406 3.314-2.196 5.304-2.196 1.989 0 3.897.79 5.304 2.197l17.981 17.983c2.929 2.929 2.928 7.677-.001 10.606s-7.678 2.929-10.606-.001l-12.678-12.679-12.679 12.68c-2.93 2.928-7.678 2.928-10.607 0zm28.59 9.03c-1.407-1.407-3.314-2.198-5.304-2.197-1.989 0-3.897.79-5.304 2.196l-17.983 17.983c-1.464 1.465-2.196 3.385-2.196 5.304s.732 3.839 2.196 5.304c2.93 2.929 7.678 2.929 10.607 0l12.679-12.68 12.678 12.679c2.929 2.93 7.678 2.93 10.607.001s2.93-7.678.001-10.606z" fill="#afeaf2"/><path d="m83.638 360h345.532l12.628 8.786 21.162 37.921c-17.181 23.554-38.286 44.064-62.353 60.569-.893.612-6.101 1.219-7.002 1.82-1.803 1.203-3.622 2.384-5.456 3.542h-262.128c-1.835-1.158-3.653-2.339-5.456-3.542-.901-.601-8.279-1.208-9.172-1.82-13.555-9.296-26.171-19.862-37.675-31.527-8.921-9.047 9.92-75.749 9.92-75.749z" fill="#ffef31"/><path d="m73.718 435.748c-8.921-9.046-17.174-18.753-24.679-29.041l21.162-37.921 13.437-8.786h32.352z" fill="#ead000"/><path d="m338.66 406.213c0 4.142-3.358 7.5-7.5 7.5h-150.32c-4.142 0-7.5-3.358-7.5-7.5s3.358-7.5 7.5-7.5h150.32c4.142 0 7.5 3.358 7.5 7.5zm-41.203 22.074h-82.915c-4.142 0-7.5 3.358-7.5 7.5s3.358 7.5 7.5 7.5h82.915c4.142 0 7.5-3.358 7.5-7.5s-3.357-7.5-7.5-7.5z" fill="#ffb509"/><path d="m364.064 247.564 14.793 8.436 62.942 112.786h-331.239c-10.642 0-17.36-11.443-12.174-20.735l51.37-92.051 12.367-8.436z" fill="#80cf00"/><path d="m111.087 368.786h-40.885l62.941-112.786 12.367-8.436h33.226z" fill="#6db000"/><path d="m338.66 300.5c0 4.142-3.358 7.5-7.5 7.5h-150.32c-4.142 0-7.5-3.358-7.5-7.5s3.358-7.5 7.5-7.5h150.32c4.142 0 7.5 3.358 7.5 7.5zm-41.203 22.074h-82.915c-4.142 0-7.5 3.358-7.5 7.5s3.358 7.5 7.5 7.5h82.915c4.142 0 7.5-3.358 7.5-7.5s-3.357-7.5-7.5-7.5z" fill="#a3e72d"/><path d="m315.043 150.623 2.963 5.31 7.277 4.067 53.574 96h-205.285c-8.838 0-14.416-9.502-10.11-17.219l43.965-78.781 9.839-5.226 2.317-4.151z" fill="#814ba3"/><path d="m174.029 256h-40.885l53.574-96 9.839-5.226 2.317-4.151h33.963z" fill="#6f3f8b"/><path d="m315.681 195.213c0 4.142-3.358 7.5-7.5 7.5h-104.362c-4.142 0-7.5-3.358-7.5-7.5s3.358-7.5 7.5-7.5h104.362c4.142 0 7.5 3.358 7.5 7.5zm-31.833 22.074h-55.695c-4.142 0-7.5 3.358-7.5 7.5s3.358 7.5 7.5 7.5h55.695c4.142 0 7.5-3.358 7.5-7.5s-3.358-7.5-7.5-7.5z" fill="#a374c0"/><path d="m276.337 72.293 48.946 87.707h-98.266c-1.584 0-2.583-1.703-1.812-3.086l47.224-84.622c.854-1.529 3.054-1.529 3.908.001z" fill="#ff4fb8"/><path d="m227.602 160h-40.885l64.043-114.76c2.289-4.101 8.19-4.101 10.479 0l15.203 27.243z" fill="#ff2aaa"/><path d="m279.164 103.5c0 4.142-3.358 7.5-7.5 7.5h-31.329c-4.142 0-7.5-3.358-7.5-7.5s3.358-7.5 7.5-7.5h31.329c4.143 0 7.5 3.358 7.5 7.5zm-16.944 22.074h-12.44c-4.142 0-7.5 3.358-7.5 7.5s3.358 7.5 7.5 7.5h12.44c4.142 0 7.5-3.358 7.5-7.5s-3.358-7.5-7.5-7.5z" fill="#ff94d4"/><path d="m111.393 467.275h289.213c-41.144 28.216-90.947 44.725-144.606 44.725s-103.462-16.509-144.607-44.725z" fill="#ffb509"/><path d="m407.228 120.782c-1.464 1.464-3.384 2.197-5.303 2.197s-3.839-.732-5.303-2.197l-10.265-10.265v309.073c0 4.142-3.358 7.5-7.5 7.5s-7.5-3.358-7.5-7.5v-309.073l-10.265 10.265c-2.929 2.929-7.678 2.929-10.606 0-2.929-2.929-2.929-7.678 0-10.606l23.068-23.068c1.406-1.407 3.314-2.197 5.303-2.197s3.897.79 5.303 2.197l23.068 23.068c2.929 2.928 2.929 7.677 0 10.606z" fill="#fff5f5"/></g></svg>