<svg id="Layer_1" enable-background="new 0 0 512 512" height="512" viewBox="0 0 512 512" width="512" xmlns="http://www.w3.org/2000/svg"><g><path d="m2.295 289.538c3.269 23.873 9.964 46.653 19.595 67.819l34.183 54.636c4.136 5.004 8.477 9.831 12.991 14.489l43.155 35.442c2.496 1.613 5.027 3.175 7.585 4.698l37.816 18.318c9.451 3.609 19.182 6.649 29.153 9.08l40.477 6.336c.686.049 1.375.087 2.063.131l40.947-.775c10.922-1.119 21.625-2.968 32.074-5.473l40.675-13.647c2.062-.901 4.109-1.828 6.141-2.784l46.539-28.622c7.389-5.772 14.433-11.964 21.108-18.53l41.831-54.643c19.971-35.471 31.377-76.408 31.377-120.014 0-135.311-109.691-245.002-245.002-245.002-111.463 0-205.527 74.439-235.227 176.311z" fill="#47354f"/><path d="m104.435 366.267c-1.499 1.993-3.578 3.314-5.929 3.894-6.146 1.511-12.235-2.436-13.394-8.605l-1.055-15.819c-8.492 1.267-17.244 1.758-25.94 1.485.554.565 1.154 1.103 1.834 1.581-2.566 1.693-5.868 5.271-5.868 12.477l.001 26.455c-.012.389-.174 8.571 5.352 11.765 2.669-1.332 6.535-.126 6.991 3.682l2.636 23.3c12.967 13.379 27.44 25.287 43.155 35.442z" fill="#4f71b6"/><path d="m55.583 361.28c0-10.667 7.667-12.405 7.667-12.405-1.07-.416-2.008-.965-2.833-1.603-11.409-.18-22.769-1.675-33.36-4.513-1.52-.407-2.821-1.265-3.783-2.402l-1.383 16.999c8.989 19.755 20.52 38.108 34.183 54.636l.845-8.73c.312-3.04 2.818-4.457 5.186-4.263l.003-.014c-6.809-1.711-6.524-11.205-6.524-11.205s-.001-15.833-.001-26.5z" fill="#3c58a0"/><path d="m96.693 196.135c1.97-4.971 4.773-9.409 8.205-13.194-1.417-.167-2.854-.254-4.305-.254h-13.808c-2.542 12.706-12.123 25.086-23.985 25.086-.319 0-.636-.013-.952-.031-4.502 3.238-8.848 8.595-8.848 17.205l.001 109.556c.017.441.444 9.736 6.95 14.3-.017.011-.035.025-.052.036 8.143.157 16.317-.352 24.261-1.544l-3.855-57.792-.02-.153c-1.418-7.827-.748-11.017 3.611-31.78 5.126-24.409 11.976-59.157 12.797-61.435z" fill="#49b1f7"/><path d="m54.5 334.447s0-92.75 0-109.5c0-9.27 5.359-14.477 10.146-17.283-.609.066-1.223.108-1.846.108-11.862 0-21.444-12.38-23.986-25.086h-9.682c-6.912 0-13.505 1.642-19.357 4.622-6.354 21.797-9.775 44.843-9.775 68.692 0 2.629.056 5.245.138 7.854 2.387.484 5.015.836 7.936.998l5.593-27.453c.521-2.555 3-4.292 5.68-3.776 2.296.442 3.886 2.567 3.886 4.906l-1.733 98.454c-.06 3.436 2.235 6.46 5.555 7.35 11.463 3.071 23.825 4.576 36.176 4.535-8.314-3.249-8.731-14.421-8.731-14.421z" fill="#1e9ef4"/><path d="m88.01 182.686h-50.42c2.571 13.666 12.878 26.265 25.21 26.265s22.638-12.598 25.21-26.265z" fill="#ffaa7b"/><path d="m98.314 138.238c0 21.818-15.9 45-35.514 45s-35.514-23.183-35.514-45 15.9-35.841 35.514-35.841 35.514 14.023 35.514 35.841z" fill="#ffc7ab"/><path d="m215.865 360.669c-1.515 1.798-3.551 3.128-5.925 3.714-6.461 1.595-12.873-2.564-14.091-9.055l-1.13-16.935c-9.189 1.39-18.673 1.908-28.086 1.574 1.268.856 2.739 1.623 4.448 2.243-2.204 1.87-4.664 5.412-4.664 11.904v33.189c-.003.237-.015 4.577 2.522 7.356 2.779-1.156 6.555.154 7.016 4l10.818 95.361c13.112 3.197 26.633 5.345 40.477 6.336z" fill="#4f71b6"/><path d="m169.767 340.045c-12-.181-23.95-1.75-35.09-4.734-1.593-.427-2.958-1.327-3.966-2.519l-10.907 133.83c11.983 7.138 24.625 13.281 37.816 18.318l8.366-86.196c.296-2.888 2.483-4.38 4.738-4.486-2.857-2.243-2.806-6.936-2.806-6.936s0-22.708 0-33.208 6.958-12.39 6.958-12.39c-1.976-.413-3.659-.993-5.109-1.679z" fill="#3c58a0"/><path d="m86.455 238.519c2.764 4.656 10.193 12.718 28.611 13.685l-3.979 19.533c-1.935 9.498-4.648 14.088-5.442 25.026l-.054 23.996c-.005 2.271.129 4.541.4 6.795.527 4.38.97 8.572 3.346 12.406l3.165 5.106c1.394 2.249.429 5.089-1.927 6.294-1.459.746-2.381 2.249-2.381 3.893v3.924c0 5.741-3.787 10.936-9.36 12.312-6.924 1.709-13.816-2.783-15.081-9.762l-4.811-72.132c-1.823-10.053-.351-12.52 7.513-51.076z" fill="#ffaa7b"/><path d="m207.969 182.233c2.16-5.45 5.271-10.293 9.098-14.376-1.737-.241-3.503-.372-5.292-.372h-14.476c-2.665 13.321-12.71 26.301-25.146 26.301-.535 0-1.065-.033-1.591-.08-5.616 5.128-10.979 12.832-10.979 23.574v110.94c.055 3.485 2.388 10.063 10.236 13.475 8.399.124 16.822-.425 25.01-1.67l-4.008-60.083-.02-.153c-1.486-8.2-.785-11.538 3.776-33.258 4.468-21.282 12.532-61.959 13.392-64.298z" fill="#49b1f7"/><path d="m161.083 328.197s0-89.25 0-110.917c0-11.002 5.845-18.647 11.598-23.512-.176.005-.352.017-.529.017-12.436 0-22.482-12.98-25.147-26.301h-10.151c-18.392 0-34.656 11.048-41.433 28.146-.81 2.041-.249.17-9.382 44.927 3.457 5.007 11.395 12.114 28.736 13.073l5.865-28.783c.546-2.678 3.145-4.5 5.955-3.959 2.407.464 4.074 2.692 4.074 5.143l-1.816 103.223c-.063 3.602 2.343 6.773 5.823 7.705 12.678 3.397 26.404 4.965 40.06 4.732-13.483-2.892-13.653-13.494-13.653-13.494z" fill="#1e9ef4"/><path d="m198.583 167.485h-52.862c2.696 14.328 13.502 27.537 26.431 27.537s23.735-13.209 26.431-27.537z" fill="#ffaa7b"/><path d="m209.386 120.883c0 22.874-16.67 47.18-37.234 47.18s-37.234-24.305-37.234-47.18 16.67-37.577 37.234-37.577 37.234 14.703 37.234 37.577z" fill="#ffc7ab"/><path d="m333.046 358.525c-3.798 4.382-10.446 5.777-15.863 2.268-2.848-1.845-4.758-4.694-5.381-8.025l-1.444-21.65c-9.205 1.378-18.689 1.927-28.118 1.654 1.033.864 2.275 1.645 3.772 2.254-2.361 1.91-4.637 5.243-4.637 10.421l.001 35.364c-.009.251-.126 5.353 3.433 8.781 2.694-.449 5.725 1.056 6.143 4.545l11.382 100.103c14.07-3.374 27.666-7.962 40.675-13.647z" fill="#4f71b6"/><path d="m282.875 345.447c0-8.875 7.042-10.877 7.042-10.877-2.047-.347-3.678-.982-5.01-1.75-12.698-.158-25.352-1.8-37.139-4.958-1.667-.447-3.094-1.388-4.149-2.635l-14.305 175.26c5.189.328 10.417.514 15.689.514 8.528 0 16.954-.438 25.257-1.289l10.261-105.487c.409-3.991 4.262-5.443 7.18-4.348l.001-.01c-5.049-2.704-4.827-9.005-4.827-9.005s0-26.54 0-35.415z" fill="#3c58a0"/><path d="m328.426 152.283h-15.144c-2.773 13.858-13.18 27.356-26.089 27.508-4.87 4.836-9.276 12.085-9.276 22.488v122.947l.011.177c.284 2.398 2.146 6.706 7.025 9.142 8.571.104 17.161-.462 25.519-1.719l-3.984-59.726-.02-.153c-1.901-10.492-.408-13.537 7.546-52.257 1.199-6.008 9.813-48.735 10.601-50.88 2.58-6.508 6.443-12.195 11.229-16.834-2.417-.451-4.896-.693-7.418-.693z" fill="#49b1f7"/><path d="m279.417 325.227s0-100.614 0-122.947c0-10.861 4.967-18.087 10.069-22.654-.826.112-1.664.173-2.512.173-13.011 0-23.521-13.579-26.309-27.516h-10.62c-19.241 0-36.257 11.558-43.347 29.446-.847 2.135-.261.178-9.815 47.002 3.617 5.238 11.922 12.673 30.063 13.677l6.135-30.112c.572-2.802 3.29-4.708 6.231-4.142 2.518.485 4.262 2.816 4.262 5.381l-1.9 107.991c-.066 3.769 2.451 7.086 6.092 8.061 13.29 3.561 27.68 5.201 41.996 4.949-9.431-1.686-10.345-9.309-10.345-9.309z" fill="#1e9ef4"/><path d="m197.318 226.599c2.892 4.871 10.664 13.306 29.932 14.317l-4.163 20.435c-2.024 9.937-4.862 14.739-5.694 26.182l-.056 25.104c-.005 2.375.135 4.75.418 7.109.551 4.583 1.015 8.968 3.501 12.979l3.311 5.342c1.458 2.353.449 5.324-2.016 6.585-1.526.781-2.491 2.352-2.491 4.073v4.105c0 6.006-3.962 11.441-9.793 12.88-7.244 1.788-14.455-2.911-15.778-10.213l-5.033-75.464c-1.906-10.516-.366-13.097 7.862-53.434z" fill="#ffaa7b"/><path d="m314.625 152.283h-55.304c2.82 14.99 14.126 28.809 27.652 28.809 13.526.001 24.831-13.819 27.652-28.809z" fill="#ffaa7b"/><path d="m325.927 103.529c0 23.931-17.44 49.359-38.954 49.359s-38.954-25.428-38.954-49.359 17.44-39.313 38.954-39.313 38.954 15.382 38.954 39.313z" fill="#ffc7ab"/><path d="m453.991 320.951c-1.116 1.317-2.623 2.311-4.384 2.783-12.915 3.461-26.817 5.21-40.735 5.266.728.679 1.535 1.305 2.434 1.861-3.479 2.124-8.916 6.772-8.916 15.086l.002 32.921c-.017.313-.246 5.702 2.522 10.35 3.038-1.068 6.973.436 7.466 4.552l4.417 36.887c16.37-16.104 30.484-34.488 41.831-54.643z" fill="#4f71b6"/><path d="m366.743 323.734c-1.762-.472-3.27-1.467-4.385-2.784l-13.209 156.859c16.618-7.816 32.218-17.436 46.539-28.622l5.668-55.323c.323-3.151 2.683-4.795 5.14-4.951-2.898-4.439-2.609-9.966-2.609-9.966s0-21.75 0-33 10.764-15.113 10.764-15.113c-1.303-.488-2.441-1.128-3.448-1.87-15.154.269-30.392-1.461-44.46-5.23z" fill="#3c58a0"/><path d="m493.387 251.788c-5.983 1.778-10.849 6.47-14.484 13.954 1.238 4.385 2.327 8.861 2.8 15.374l.059 26.529c.006 2.51-.142 5.02-.442 7.513-.583 4.843-1.073 9.477-3.699 13.715l-3.499 5.645c-1.541 2.487-.474 5.626 2.13 6.959 1.613.825 2.633 2.486 2.633 4.304v4.339c0 6.346 4.187 12.091 10.348 13.612 7.655 1.889 15.275-3.077 16.673-10.792l5.319-79.747c1.122-6.193 1.113-9.785-.619-19.125-2.7-1.451-9.691-4.52-17.219-2.28z" fill="#ffc7ab"/><path d="m510.955 256c-1.288-7.413-3.838-18.693-8.037-39.276-3.056 5.148-11.269 14.061-31.631 15.129l4.4 21.595c1.182 5.802 2.626 9.95 3.83 14.538 11.099-25.294 31.437-11.987 31.438-11.986z" fill="#ffaa7b"/><path d="m492.259 167.241c-5.732-17.357-22-29.05-40.279-29.05h-16.004c-2.774 13.866-12.781 27.392-25.416 28.928-4.42 6.961-8.171 16.347-8.171 28.161l.001 115.602c-.026.622-.477 14.061 8.804 19.905 13.139-.233 26.215-1.962 38.412-5.23 3.847-1.031 6.508-4.536 6.438-8.519l-2.008-114.12c0-2.71 1.842-5.173 4.504-5.686 3.107-.598 5.98 1.416 6.584 4.377l6.483 31.821c19.171-1.06 27.948-8.917 31.77-14.453-11.859-58.14-8.876-44.948-11.118-51.736z" fill="#49b1f7"/><path d="m403.888 310.947s0-88 0-115.667c0-12.114 4.127-21.646 8.768-28.535-1.457.336-2.951.523-4.481.523-13.749 0-24.855-14.35-27.802-29.077h-11.223c-20.333 0-38.314 12.214-45.807 31.117-.895 2.256-.276.188-10.372 49.669 3.822 5.536 12.599 13.393 31.77 14.453l6.483-31.821c.604-2.961 3.477-4.975 6.584-4.377 2.662.513 4.505 2.976 4.505 5.686l-2.008 114.12c-.07 3.982 2.591 7.488 6.438 8.519 15.045 4.031 31.427 5.741 47.615 5.154-11.117-4.439-10.47-19.764-10.47-19.764z" fill="#1e9ef4"/><path d="m313.431 216.724c3.056 5.148 11.269 14.061 31.631 15.129l-4.4 21.595c-2.139 10.501-5.138 15.575-6.017 27.667l-.059 26.529c-.006 2.51.142 5.02.442 7.513.582 4.843 1.073 9.477 3.699 13.715l3.499 5.645c1.541 2.487.474 5.626-2.13 6.959-1.613.825-2.633 2.486-2.633 4.304v4.339c0 6.346-4.187 12.091-10.348 13.612-7.655 1.889-15.275-3.077-16.673-10.792l-5.319-79.747c-2.014-11.114-.386-13.841 8.308-56.468z" fill="#ffaa7b"/><path d="m437.396 138.191h-58.443c2.981 15.841 14.928 30.444 29.221 30.444 14.294 0 26.241-14.603 29.222-30.444z" fill="#ffaa7b"/><path d="m449.34 86.67c0 25.289-18.43 52.161-41.165 52.161s-41.165-26.871-41.165-52.161 18.43-41.544 41.165-41.544 41.165 16.255 41.165 41.544z" fill="#ffc7ab"/><path d="m2.295 289.538c.52-1.865 1.034-3.849 1.501-6.14l4.278-18.546c-2.74-.144-5.601-.523-7.935-.973.274 8.675 1.003 17.234 2.156 25.659z" fill="#ffaa7b"/></g></svg>