<svg id="Capa_1" enable-background="new 0 0 512 512" height="512" viewBox="0 0 512 512" width="512" xmlns="http://www.w3.org/2000/svg"><g><path d="m20.795 357.233c-12.385-28.738-19.658-60.198-20.672-93.233-.055-1.798 4.47-2.489 4.452-4.296-.021-2.142-.016-4.278.017-6.409.016-1.063-4.523-3.235-4.493-4.296 3.792-137.053 117.721-248.999 255.902-248.999 139.044 0 252.197 110.852 255.905 249 .014.511-2.506 1.426-2.495 1.937.038 1.818.057 3.64.057 5.467 0 2.206-.028 4.405-.083 6.598-.012.468 2.507.531 2.493.998-1.025 33.391-8.444 65.172-21.074 94.16-.902 2.07-2.963 3.393-5.221 3.393h-458.265c-2.844 0-5.397-1.708-6.523-4.32z" fill="#00a86d"/><path d="m472.574 234.275c0 105.566-85.578 191.144-191.144 191.144s-191.144-85.578-191.144-191.144 85.578-191.144 191.144-191.144 191.144 85.578 191.144 191.144z" fill="#1fb480"/><path d="m264.562 357c100.213 0 104.633 149.622 4.548 154.67-4.342.219-8.713.33-13.109.33-105.517 0-196.124-63.839-235.305-155z" fill="#2dd2e3"/><path d="m491.305 357c-39.181 91.161-129.788 155-235.305 155-4.397 0-8.767-.111-13.109-.33-100.086-5.048-95.666-154.67 4.547-154.67z" fill="#87e0ec"/><path d="m336.945 250.697c1.407 1.406 2.197 3.314 2.197 5.303s-.79 3.897-2.197 5.303l-28.285 28.284c-1.464 1.464-3.384 2.197-5.303 2.197-1.92 0-3.839-.732-5.304-2.197-2.929-2.929-2.929-7.678.001-10.606l15.481-15.481h-121.071l15.481 15.481c2.93 2.929 2.93 7.677.001 10.606-1.465 1.464-3.385 2.197-5.304 2.197s-3.839-.732-5.303-2.197l-28.285-28.284c-1.407-1.406-2.197-3.314-2.197-5.303s.79-3.897 2.197-5.303l28.285-28.284c2.928-2.93 7.677-2.929 10.606 0s2.929 7.678-.001 10.606l-15.48 15.481h121.072l-15.481-15.481c-2.93-2.929-2.93-7.677-.001-10.606 2.93-2.929 7.679-2.93 10.606 0zm175.055 5.303c0-2.341-.032-4.674-.094-7h-45.442l15.481-15.481c2.93-2.929 2.93-7.677.001-10.606s-7.678-2.93-10.606 0l-28.285 28.284c-1.407 1.406-2.197 3.314-2.197 5.303s.79 3.897 2.197 5.303l28.285 28.284c1.464 1.465 3.384 2.197 5.303 2.197s3.839-.732 5.304-2.197c2.929-2.929 2.929-7.678-.001-10.606l-15.482-15.481h45.413c.082-2.657.123-5.323.123-8zm-468.34-33.087c-2.928-2.93-7.677-2.929-10.606 0s-2.929 7.678.001 10.606l15.481 15.481h-48.442c-.062 2.326-.094 4.659-.094 7 0 2.677.041 5.343.123 8h48.413l-15.481 15.481c-2.93 2.929-2.93 7.677-.001 10.606 1.465 1.465 3.384 2.197 5.304 2.197 1.919 0 3.839-.732 5.303-2.197l28.285-28.284c1.407-1.406 2.197-3.314 2.197-5.303s-.79-3.897-2.197-5.303z" fill="#fff5f5"/><path d="m158.231 76.811v13.386c0 20.33-16.481 36.811-36.811 36.811-.445 0-.888-.008-1.329-.024v11.016c0 6.627-5.373 12-12 12s-12-5.373-12-12v-21.093c-7.072-6.708-11.482-16.194-11.482-26.711v-13.385c0-20.33 16.481-36.811 36.811-36.811 20.33 0 36.811 16.481 36.811 36.811zm271 0v13.386c0 20.33-16.481 36.811-36.811 36.811-.445 0-.888-.008-1.329-.024v11.016c0 6.627-5.373 12-12 12s-12-5.373-12-12v-21.093c-7.072-6.708-11.482-16.194-11.482-26.711v-13.385c0-20.33 16.481-36.811 36.811-36.811 20.33 0 36.811 16.481 36.811 36.811z" fill="#ffbd86"/><path d="m109.42 87.681v-10.87c0-15.977 10.179-29.576 24.405-34.667 14.227 5.091 24.406 18.69 24.406 34.667v10.87zm271 0v-10.87c0-15.977 10.179-29.576 24.405-34.667 14.227 5.091 24.406 18.69 24.406 34.667v10.87z" fill="#fed2a4"/><path d="m158.515 87.957c.144 2.222.146 4.456-.129 6.666-1.747 14.026-11.045 25.782-24.56 30.242-14.226-5.091-24.405-18.69-24.405-34.667v-3.302c13.635-2.245 27.633-3.413 41.903-3.413 2.31 0 4.613.031 6.908.092zm270.716-4.383c-2.295-.061-4.598-.092-6.908-.092-14.271 0-28.268 1.168-41.903 3.413v3.302c0 15.977 10.179 29.576 24.405 34.667 13.515-4.46 22.813-16.215 24.56-30.242.275-2.209.273-4.444.129-6.666z" fill="#fff5f5"/><path d="m116 88v5c0 4.142-3.358 7.5-7.5 7.5s-7.5-3.358-7.5-7.5v-5c0-4.142 3.358-7.5 7.5-7.5s7.5 3.358 7.5 7.5zm271 0v5c0 4.142-3.358 7.5-7.5 7.5s-7.5-3.358-7.5-7.5v-5c0-4.142 3.358-7.5 7.5-7.5s7.5 3.358 7.5 7.5z" fill="#fed2a4"/><path d="m109.152 461.809-33.383-10.133 28.214-190.378 25.424 8.702z" fill="#005aaf"/><path d="m132.197 467.383c0 5.132-4.16 9.292-9.292 9.292h-37.843c-5.132 0-9.292-4.16-9.292-9.292v-15.708l48.372 6.498c4.612.62 8.055 4.556 8.055 9.21z" fill="#003c79"/><path d="m146.313 270-14.264 191.809-25.336-1.292c-4.509-.23-8.047-3.953-8.047-8.468v-190.751z" fill="#0573cf"/><path d="m155.094 467.383c0 5.132-4.16 9.292-9.292 9.292h-37.843c-5.132 0-9.292-4.16-9.292-9.292v-15.708l48.373 6.498c4.611.62 8.054 4.556 8.054 9.21z" fill="#004b94"/><path d="m384.666 379.596v72.08c0 5.766-6.716 10.44-15 10.44s-15-4.674-15-10.44v-72.08c0-5.766 6.716-10.44 15-10.44s15 4.674 15 10.44z" fill="#ffbd86"/><path d="m354.666 380 .334-134 47.313 24-32.647 110z" fill="#f72c2c"/><path d="m411.094 467.383c0 5.132-4.16 9.292-9.292 9.292h-37.843c-5.132 0-9.292-4.16-9.292-9.292v-15.708l48.373 6.498c4.611.62 8.054 4.556 8.054 9.21z" fill="#003c79"/><path d="m399.666 380.026v87.623c0 3.328-30-12.645-30-15.974v-71.649c0-3.328 6.716-6.026 15-6.026s15 2.698 15 6.026z" fill="#fed2a4"/><path d="m369.666 380v-118.702l47.647 8.702-7.836 105.371c-.194 2.61-2.369 4.629-4.986 4.629z" fill="#ff5757"/><path d="m151.323 178.211-5.01 91.789h-44.222v-73.383c-10.236 0-18.534-8.298-18.534-18.534v-27.637c0-11.046 8.954-20 20-20 26.381-.001 47.766 21.385 47.766 47.765zm223.234-47.766c-11.046 0-20 8.954-20 20v27.637c0 10.236 8.298 18.534 18.534 18.534v45.312c0 15.503 12.568 28.071 28.071 28.071h16.15l5.01-91.789c.001-26.379-21.384-47.765-47.765-47.765z" fill="#afeaf2"/><path d="m107.557 199.484v102.774c0 6.627-5.373 12-12 12s-12-5.373-12-12v-102.774c0-6.627 5.373-12 12-12s12 5.373 12 12zm310.993 82.716-17.032 16.352-43.207-43.207c-1.417-1.417-2.441-3.134-3.028-4.966-.47-1.285-.726-2.672-.726-4.12v-46.706c1.414-5.054 6.052-12.547 11.557-12.547 6.627 0 12 5.373 12 12v42.824z" fill="#ffbd86"/><path d="m107.557 292v10.258c0 6.627-5.373 12-12 12s-12-5.373-12-12v-10.258c0-6.627 5.373-12 12-12s12 5.373 12 12zm310.107-10.618 8.078 7.452c4.686 4.686 4.686 12.285 0 16.971s-12.284 4.686-16.971 0l-7.254-7.254c-4.686-4.686-4.686-12.285 0-16.971 4.687-4.685 11.461-4.884 16.147-.198z" fill="#fed2a4"/><path d="m124.408 168.447v31.105h-40.851v-31.105c0-8.602 6.973-15.574 15.574-15.574h9.702c8.602-.001 15.575 6.972 15.575 15.574zm255.426-15.575h-9.702c-8.602 0-15.574 6.973-15.574 15.574v31.105h40.851v-31.105c-.001-8.601-6.974-15.574-15.575-15.574z" fill="#d5f3f7"/><path d="m426.094 467.383c0 5.132-4.16 9.292-9.292 9.292h-37.843c-5.132 0-9.292-4.16-9.292-9.292v-15.708l48.373 6.498c4.611.62 8.054 4.556 8.054 9.21z" fill="#004b94"/></g></svg>