<svg id="Layer_1" enable-background="new 0 0 512 512" height="512" viewBox="0 0 512 512" width="512" xmlns="http://www.w3.org/2000/svg"><g><path d="m245.002 21.996c-82.519 0-155.508 40.797-199.902 103.319l-45.1 141.683c0 72.516 31.514 137.663 81.583 182.522l37.577 27.72c36.783 22.064 79.827 34.76 125.842 34.76 135.311 0 245.002-109.691 245.002-245.002s-109.691-245.002-245.002-245.002z" fill="#1d2e79"/><path d="m149.331 342.116c6.763 4.578 15.27 5.484 25.376 2.767l61.043-145.451c-6.897-16.879-10.709-35.347-10.709-54.707 0-6.713.468-13.317 1.352-19.787-6.075 1.963-11.297 6.448-13.961 12.796l-76.874 183.174c2.589 8.586 6.842 16.518 13.773 21.208z" fill="#6ad9fb"/><g fill="#02c0fc"><path d="m119.16 477.24 56.285-134.115c-23.889 7.003-34.414-7.739-38.938-24.477l-54.924 130.872c11.586 10.38 24.163 19.674 37.577 27.72z"/><path d="m80.783 253.281c-5.283 3.866-11.407 6.091-17.937 6.091-19.813 0-35.933-20.381-35.933-45.432 0-11.612 3.468-22.216 9.157-30.256-8.87-.324-14.513-4.024-18.074-8.998-11.599 28.49-17.996 59.653-17.996 92.312 0 1.53.03 3.053.058 4.577 14.925 20.244 37.529 33.173 62.788 33.173 19.212 0 36.885-7.484 50.814-19.973-25.427-.339-31.798-17.828-32.877-31.494z"/><path d="m319.524 483.327c-27.903 5.501-33.187-16.114-33.767-30.123-6.512 8.282-15.525 13.419-25.469 13.419-19.813 0-35.933-20.381-35.933-45.432 0-10.599 2.894-20.354 7.724-28.091-26.326 3.799-34.167-13.209-36.256-27.183-10.557 15.321-16.845 34.491-16.845 55.274 0 50.072 36.475 90.808 81.31 90.808 23.331.001 44.395-11.034 59.236-28.672z"/></g><path d="m309.716 88.017c11.525 9.15 26.332 12.005 44.025 8.496l20.452 84.716 30.844 16.233c-.259 2.438-.733 8.788.23 16.531 1.616 12.984 6.58 23.624 14.356 30.767 9.434 8.665 22.896 12.423 40.14 11.277 31.916-26.547 52.237-66.555 52.237-111.312 0-79.929-64.795-144.725-144.725-144.725-30.997 0-59.714 9.75-83.263 26.343.265 6.664 2.76 43.46 25.704 61.674z" fill="#e8f8fc"/><path d="m406.649 196.615-31.157-16.398-20.633-85.467c-68 14.667-69.377-69.425-69.377-69.425-38.001 26.082-62.931 69.827-62.931 119.4 0 79.929 64.796 144.725 144.725 144.725 36.088 0 69.088-13.211 94.435-35.058-64.261 5.627-55.062-57.777-55.062-57.777z" fill="#ade9f7"/><g><path d="m367.276 51.527c-9.286 0-16.813 7.527-16.813 16.813v135.811c0 9.286 7.527 16.813 16.813 16.813s16.813-7.527 16.813-16.813v-135.81c0-9.286-7.527-16.814-16.813-16.814z" fill="#fe3d97"/></g><g><path d="m299.025 143.96c-6.566 6.566-6.566 17.212 0 23.778l56.362 56.362c6.565 6.567 17.212 6.567 23.778 0 6.566-6.566 6.566-17.212 0-23.777l-56.362-56.362c-6.565-6.567-17.213-6.568-23.778-.001z" fill="#fc77a6"/></g><g><path d="m411.749 143.96-56.362 56.362c-6.567 6.566-6.567 17.212 0 23.777 6.565 6.567 17.212 6.567 23.778 0l56.362-56.362c6.566-6.566 6.566-17.212 0-23.778-6.565-6.565-17.212-6.566-23.778.001z" fill="#fc77a6"/></g><path d="m94.549 73.621c30.578 26.723 102.457 74.732 116.439-49.282-43.511 6.044-83.366 23.514-116.439 49.282z" fill="#2a428b"/><path d="m398.941 457.588c46.351-37.484 78.763-91.52 88.215-153.129-60.284 13.497-140.731 50.772-88.215 153.129z" fill="#2a428b"/><path d="m205.007 388.38c6.354 5.599 15.109 7.721 26.092 6.366 6.528-11.484 17.176-18.986 29.189-18.986 19.813 0 35.933 20.381 35.933 45.431 0 13.362-4.588 25.392-11.874 33.713.047.703.103 1.419.176 2.149 1.101 11.008 4.966 19.295 11.178 23.967 5.619 4.225 13.084 5.575 22.284 4.092 14.588-16.422 23.614-39.015 23.614-63.92 0-50.072-36.475-90.808-81.31-90.808-26.955 0-50.884 14.728-65.686 37.353 1.604 8.938 5.163 16.024 10.404 20.643z" fill="#6ad9fb"/><path d="m19.386 178.621c4.01 3.931 9.268 6.108 15.692 6.517 6.596-10.147 16.594-16.63 27.767-16.63 19.813 0 35.933 20.381 35.933 45.432 0 17.521-7.891 32.747-19.411 40.324.937 9.877 4.336 17.902 9.91 23.306 5.536 5.366 13.141 8.253 22.714 8.662 19.53-16.601 32.163-42.828 32.163-72.292 0-50.072-36.474-90.809-81.309-90.809-6.094 0-12.031.758-17.745 2.184-11.162 15.72-20.507 32.819-27.75 50.983.627.807 1.29 1.592 2.036 2.323z" fill="#6ad9fb"/></g></svg>