<svg id="Capa_1" enable-background="new 0 0 512 512" height="512" viewBox="0 0 512 512" width="512" xmlns="http://www.w3.org/2000/svg"><g><path d="m512 256c0 141.385-114.615 256-256 256-69.28 0-132.132-27.52-178.221-72.225-4.291-4.162 5.34-13.686 1.349-18.137-35.463-39.545-63.058-84.972-68.426-140.863-.302-3.15-10.067-6.316-10.254-9.498-.297-5.054-.448-10.148-.448-15.277 0-141.385 114.615-256 256-256 69.28 0 132.132 27.52 178.221 72.224 2.306 2.237-4.548 10.667-2.327 12.988 38.62 40.371 63.545 85.966 69.191 144.766.302 3.15 10.279 7.562 10.467 10.744.297 5.055.448 10.149.448 15.278z" fill="#00c8de"/><path d="m446.895 231.098c0 111.474-90.368 201.842-201.842 201.842s-201.842-90.368-201.842-201.842 90.367-201.842 201.842-201.842 201.842 90.368 201.842 201.842z" fill="#2dd2e3"/><path d="m272.576 400.741c10.496.611 18.819 9.316 18.819 19.965 0 11.046-8.954 20-20 20h-96.112c-9.466 0-18.511-1.802-26.81-5.082-9.462-3.739-19.488-5.848-29.663-5.848h-33.124c-8.534 0-15.452-6.918-15.452-15.452v-123.549h31.483c6.11 0 11.935-2.694 15.817-7.412 4.671-5.676 9.481-10.649 14.254-14.789 12.94-11.224 23.086-25.31 30.107-40.934l10.52-23.409c2.707-6.023 9.784-8.745 15.812-6.05 14.142 6.321 20.461 22.918 14.114 37.04l-20.471 45.554h89.044c10.845 0 20.081 8.433 20.466 19.271.405 11.378-8.699 20.729-19.987 20.729 11.046 0 20 8.954 20 20s-8.954 20-20 20c11.046 0 20 8.954 20 20 .002 10.65-8.321 19.354-18.817 19.966z" fill="#bb5d4c"/><path d="m165.92 267.617 14.558-32.395c5.186-11.541 1.914-24.733-7.174-32.621 3.158-4.862 9.47-6.857 14.923-4.419 14.142 6.321 20.461 22.918 14.114 37.04l-20.471 45.554h-7.438c-6.77-.001-11.287-6.984-8.512-13.159zm125.222 149.904c-.001-.007-.001-.013-.003-.02 0 0 0 0-.001 0-.391-2.424-1.216-4.703-2.395-6.753-2.414 4.197-6.308 7.435-10.969 9.003-2.706.387-5.532.741-8.486 1.04h-63.708c-17.375-1.743-32.912-3.302-49.532-12.6-34.034-19.041-25.552-59.267-27.729-93.957-1.308-20.847 3.393-37.438 8.828-50.626-1.729 1.711-3.515 3.368-5.358 4.966-4.773 4.14-9.583 9.113-14.254 14.789-3.883 4.718-9.707 7.412-15.817 7.412h-31.484v139h48.575c10.174 0 20.201 2.109 29.663 5.849 8.299 3.28 17.344 5.082 26.81 5.082h96.112c11.046 0 20-8.954 20-20 .001-1.084-.086-2.148-.252-3.185zm-2.194-46.338c1.56 2.848 2.447 6.116 2.447 9.593 0 11.046-8.954 20-20 20h-51.802c-5.298 0-9.593-4.295-9.593-9.593s4.295-9.593 9.593-9.593h51.802c7.569 0 14.157-4.205 17.553-10.407zm0-40c1.56 2.848 2.447 6.116 2.447 9.593 0 11.046-8.954 20-20 20h-51.802c-5.298 0-9.593-4.295-9.593-9.593s4.295-9.593 9.593-9.593h51.802c7.569 0 14.157-4.205 17.553-10.407zm2.447-30.408c0 11.046-8.954 20-20 20h-51.802c-5.298 0-9.593-4.295-9.593-9.593s4.295-9.593 9.593-9.593h51.802c7.57 0 14.157-4.206 17.553-10.407 1.56 2.849 2.447 6.117 2.447 9.593z" fill="#a44f3e"/><path d="m241.424 111.133c-10.496-.611-18.819-9.316-18.819-19.965 0-11.046 8.954-20 20-20h96.112c9.466 0 18.511 1.802 26.81 5.082 9.462 3.739 19.488 5.848 29.663 5.848h33.124c8.534 0 15.452 6.918 15.452 15.452v123.548h-31.483c-6.11 0-11.935 2.694-15.817 7.412-4.671 5.676-9.481 10.649-14.254 14.789-12.94 11.224-23.086 25.31-30.107 40.934l-10.52 23.409c-2.707 6.023-9.784 8.745-15.812 6.05-14.142-6.321-20.461-22.918-14.114-37.04l20.471-45.554h-89.044c-10.845 0-20.081-8.433-20.466-19.271-.405-11.378 8.699-20.729 19.987-20.729-11.046 0-20-8.954-20-20s8.954-20 20-20c-11.046 0-20-8.954-20-20-.002-10.649 8.321-19.354 18.817-19.965z" fill="#fed2a4"/><path d="m443.766 97.55v123.548h-31.483c-6.11 0-11.935 2.694-15.817 7.412-4.671 5.676-9.481 10.649-14.254 14.789-12.94 11.224-23.086 25.31-30.107 40.934l-10.52 23.409c-2.707 6.023-9.784 8.745-15.812 6.05-4.43-1.98-8.093-4.969-10.839-8.574l-.001-.002c3.128-6.961 6.256-13.922 9.384-20.883 4.091-9.497 8.629-16.425 12.03-21.004 3.236-4.359 19.782-32.446 33.653-63.229 19.498-43.271 9.895-91.643-8.441-125.187 1.341.441 2.664.921 3.969 1.436 9.462 3.739 19.488 5.848 29.663 5.848h33.124c8.533.001 15.451 6.919 15.451 15.453zm-201.161 13.617h47.802c5.298 0 9.592-4.295 9.592-9.593s-4.295-9.593-9.592-9.593h-47.802c-7.57 0-14.157-4.206-17.553-10.407-1.56 2.848-2.447 6.116-2.447 9.593 0 11.046 8.955 20 20 20zm-20 20c0-3.476.887-6.745 2.447-9.593 3.396 6.202 9.984 10.407 17.553 10.407h47.802c5.298 0 9.592 4.295 9.592 9.593s-4.295 9.593-9.592 9.593h-47.802c-11.045 0-20-8.954-20-20zm77.395 90.339c0 5.298-4.295 9.593-9.592 9.593h-47.802c-11.046 0-20-8.954-20-20 0-3.476.887-6.745 2.447-9.593 3.396 6.202 9.984 10.407 17.553 10.407h47.802c5.297 0 9.592 4.295 9.592 9.593zm-77.395-50.339c0-3.476.887-6.745 2.447-9.593 3.396 6.202 9.984 10.407 17.553 10.407h47.802c5.298 0 9.592 4.295 9.592 9.593s-4.295 9.593-9.592 9.593h-47.802c-11.045 0-20-8.954-20-20z" fill="#ffbd86"/><path d="m453.164 289.462c0 4.142-3.358 7.5-7.5 7.5h-40.201c-4.142 0-7.5-3.358-7.5-7.5 0-4.142 3.358-7.5 7.5-7.5h40.201c4.142 0 7.5 3.358 7.5 7.5z" fill="#ff4fb8"/><path d="m393.304 372.289c0 4.142-3.358 7.5-7.5 7.5h-40.201c-4.142 0-7.5-3.358-7.5-7.5s3.358-7.5 7.5-7.5h40.201c4.142 0 7.5 3.358 7.5 7.5z" fill="#ff2aaa"/><path d="m114.955 209.394c0 4.142-3.358 7.5-7.5 7.5h-12.6v12.601c0 4.142-3.358 7.5-7.5 7.5s-7.5-3.358-7.5-7.5v-12.601h-12.601c-4.142 0-7.5-3.358-7.5-7.5s3.358-7.5 7.5-7.5h12.601v-12.6c0-4.142 3.358-7.5 7.5-7.5s7.5 3.358 7.5 7.5v12.6h12.601c4.141 0 7.499 3.357 7.499 7.5z" fill="#6db000"/><path d="m185.687 123.972c0 4.142-3.358 7.5-7.5 7.5h-12.601v12.601c0 4.142-3.358 7.5-7.5 7.5s-7.5-3.358-7.5-7.5v-12.601h-12.601c-4.142 0-7.5-3.358-7.5-7.5s3.358-7.5 7.5-7.5h12.601v-12.6c0-4.142 3.358-7.5 7.5-7.5s7.5 3.358 7.5 7.5v12.6h12.601c4.142 0 7.5 3.358 7.5 7.5z" fill="#80cf00"/><path d="m103.239 71.167c0 4.142-3.358 7.5-7.5 7.5h-12.6v12.601c0 4.142-3.358 7.5-7.5 7.5s-7.5-3.358-7.5-7.5v-12.601h-12.601c-4.142 0-7.5-3.358-7.5-7.5s3.358-7.5 7.5-7.5h12.601v-12.6c0-4.142 3.358-7.5 7.5-7.5s7.5 3.358 7.5 7.5v12.6h12.601c4.141 0 7.499 3.358 7.499 7.5z" fill="#a3e72d"/><path d="m96.809 374.787v54.988c0 5.523-4.477 10-10 10h-9.03c-1.367-1.326-2.718-2.666-4.055-4.022-6.821-6.916-19.255-60.967-19.255-60.967 0-5.523 4.477-10 10-10h22.341c5.522.001 9.999 4.478 9.999 10.001zm360.723-205.787v52.225c0 5.523-4.477 10-10 10h-22.341c-5.523 0-10-4.477-10-10v-52.225c0-5.523 4.477-10 10-10h22.341c5.523 0 10 4.477 10 10z" fill="#fff69a"/><path d="m96.809 290.775v93.821c0 5.523-4.477 10-10 10h-22.341c-5.523 0-10-4.477-10-10v-93.821c0-5.523 4.477-10 10-10h22.341c5.523 0 10 4.477 10 10zm360.723-180.796v66.067c0 5.523-4.477 10-10 10h-22.341c-5.523 0-10-4.477-10-10v-93.821c0-5.523 4.477-10 10-10h9.03c1.367 1.326 2.719 2.666 4.055 4.022 1.415 1.435 2.813 14.746 4.194 16.214 5.277 5.607 10.303 11.452 15.062 17.518z" fill="#fff"/><path d="m73.724 378.554v57.2c-8.283-8.398-15.99-17.366-23.056-26.84-1.629-2.184 5.361-4.395 3.801-6.632-7.447-10.677-14.101-21.948-19.877-33.728h29.133c5.522 0 9.999 4.477 9.999 10z" fill="#80cf00"/><path d="m73.724 281.277v117.636c0 5.523-4.477 10-10 10h-13.056c-28.979-38.85-47.192-86.202-50.219-137.636h63.275c5.523 0 10 4.477 10 10z" fill="#a3e72d"/><path d="m511.551 240.723h-63.275c-5.523 0-10-4.477-10-10v-60.72c0-5.523 4.477-10 10-10h35.277c3.848 9.505 7.141 19.295 9.84 29.327.981 3.646 11.722 7.324 12.544 11.033 2.904 13.104 4.804 26.585 5.614 40.36z" fill="#ff2aaa"/><path d="m505.937 200.363h-57.661c-5.523 0-10-4.477-10-10v-114.116c33.153 33.615 57.077 76.357 67.661 124.116z" fill="#ff4fb8"/></g></svg>