<svg id="Layer_1" enable-background="new 0 0 512 512" height="512" viewBox="0 0 512 512" width="512" xmlns="http://www.w3.org/2000/svg"><g><path d="m451.475 119.296h-390.95c-31.08 41.069-49.527 92.228-49.527 147.702 0 133.316 106.481 241.757 239.034 244.927l120.754-28.441c77.46-41.157 130.216-122.654 130.216-216.485 0-55.475-18.447-106.635-49.527-147.703z" fill="#2a428c"/><path d="m396.892 32.755c-.579 0-1.151.023-1.727.035-1.7 3.191-7.989 15.741-10.459 31.121-3.742 23.295 3.298 41.729 20.359 53.329.704 1.069 3.763 6.06 2.871 10.835-.455 2.436-1.918 4.478-4.347 6.069-2.01 1.318-3.232 3.247-3.632 5.734-1.472 9.151 9.113 23.794 11.88 27.433-1.547 2.808-5.609 11.434-2.158 19.327 1.474 3.373 4.119 6.126 7.883 8.256 35.492-9.171 61.708-41.404 61.708-79.762.001-45.495-36.881-82.377-82.378-82.377z" fill="#ffdd40"/><path d="m348.016 48.828c13.229 18.746 21.004 41.617 21.004 66.305s-7.775 47.559-21.004 66.306c13.674 10.096 30.575 16.073 48.877 16.073 7.897 0 15.524-1.134 22.754-3.209-17.734-8.684-6.003-27.11-6.003-27.11s-19.781-24.879-9.231-31.794c10.55-6.916 1.733-19.24 1.733-19.24-40.884-27.489-9.252-83.404-9.252-83.404-18.303 0-35.204 5.976-48.878 16.073z" fill="#ffb332"/><path d="m163.984 48.828c-13.674-10.096-30.575-16.073-48.877-16.073-14.343 0-27.826 3.672-39.571 10.117-1.021 6.525-1.38 17.236 4.442 26.576 5.494 8.814 15.244 14.361 28.991 16.498l9.484 64.137c-2.006 2.812-10.721 16.149-7.191 30.952 1.438 6.029 4.715 11.46 9.788 16.252 16.01-1.144 30.753-6.855 42.933-15.848-13.229-18.746-21.004-41.617-21.004-66.306.002-24.688 7.776-47.559 21.005-66.305z" fill="#49b1f7"/><path d="m120.029 150.473-9.737-65.848c-35.921-5.028-35.015-31.708-33.07-42.635-26.427 13.717-44.493 41.312-44.493 73.143 0 45.496 36.882 82.378 82.378 82.378 2.697 0 5.36-.145 7.99-.399-23.153-20.523-3.068-46.639-3.068-46.639z" fill="#1e9ef4"/><path d="m140.471 101.176h-8.879c-1.644 0-2.977-1.333-2.977-2.977v-15.2c0-4.536-3.677-8.214-8.213-8.214-3.062 0-5.869 1.703-7.284 4.418l-10.52 20.191c-1.607 3.084-4.795 5.019-8.274 5.019h-6.046c.162.542.252 1.115.252 1.709v38.409c0 .157-.011.311-.024.464h3.984c3.435 0 6.803.948 9.734 2.739s6.299 2.739 9.734 2.739h26.202c3.551 0 6.811-1.357 9.266-3.598-2.888-10.084-4.443-20.73-4.443-31.742 0-4.583.27-9.102.791-13.545-1.059-.26-2.161-.412-3.303-.412z" fill="#ffc7ab"/><path d="m84.082 100.181h-11.52c-3.282 0-5.942 2.66-5.942 5.942v38.409c0 3.282 2.66 5.942 5.942 5.942h11.52c3.281 0 5.942-2.66 5.942-5.942v-38.409c-.001-3.282-2.661-5.942-5.942-5.942z" fill="#deeeff"/><path d="m432.521 116.159h-28.988c.502.367 1.012.727 1.533 1.081.704 1.069 3.763 6.06 2.871 10.835-.455 2.436-1.918 4.478-4.347 6.069-1.18.774-2.081 1.765-2.711 2.949 13.688.993 25.993 7.033 35.049 16.282 4.359-4.452 7.97-9.64 10.616-15.363 4.715-10.201-2.785-21.853-14.023-21.853z" fill="#e80054"/><path d="m364.313 147.749c9.104-6.785 20.375-10.816 32.58-10.816 1.915 0 3.807.099 5.671.293.469-.692 1.066-1.314 1.848-1.826 10.55-6.916 1.733-19.24 1.733-19.24h-37.146c-.096 10.964-1.728 21.559-4.686 31.589z" fill="#ff4155"/><path d="m396.893 134.881c-11.872 0-22.87 3.806-31.842 10.259-1.052 3.906-2.307 7.726-3.748 11.456 9.57 8.232 22.003 13.223 35.59 13.223 15.79 0 30.034-6.729 40.021-17.469-9.987-10.74-24.231-17.469-40.021-17.469z" fill="#ff7186"/><g><path d="m432.581 97.784c-.965 0-1.946-.196-2.886-.609l-20.993-9.231c-1.929-.848-3.389-2.502-3.991-4.522s-.286-4.203.864-5.969l8.684-13.334c2.165-3.322 6.612-4.262 9.935-2.097 3.323 2.163 4.262 6.612 2.098 9.934l-4.069 6.247 13.251 5.826c3.63 1.597 5.278 5.834 3.682 9.463-1.182 2.691-3.814 4.292-6.575 4.292z" fill="#ff8f33"/></g><path d="m233.667 2.816c-2.75 3.671-8.16 11.755-11.328 22.239-3.99 13.202-4.955 32.73 13.105 50.79 31.34 31.339 43.453 69.191 44.838 73.784-1.295 3.566-8.193 24.659 2.56 42.832 6.113 10.331 16.75 17.635 31.689 21.829 33.879-20.041 56.604-56.943 56.604-99.158-.002-63.585-51.549-115.132-115.135-115.132-8.337 0-16.463.894-24.297 2.577z" fill="#deeeff"/><path d="m316.306 213.221c-53.866-14.189-34.444-63.533-34.444-63.533s-11.415-40.959-45.358-74.903c-33.942-33.942-.003-73.13 0-73.133-54.3 9.263-95.637 56.541-95.637 113.482 0 63.587 51.547 115.133 115.133 115.133 22.113 0 42.767-6.24 60.306-17.046z" fill="#bec8f7"/><path d="m288.193 443.741c22.513 4.172 55.113 3.989 84.17-19.763 4.291-11.281 15.644-25.249 15.644-54.376.001-7.956.001-64.165.001-84.84 0-9.9-8.1-17.999-18-17.999h-1.712c-9.9 0-18 8.099-18 18v-12.112c0-9.62-7.004-18.068-16.556-19.215-11.386-1.367-21.155 7.59-21.155 18.717v-3.803c0-9.62-7.004-18.068-16.555-19.215-11.385-1.368-21.155 7.589-21.155 18.717v-59.957c0-9.62-7.005-18.068-16.556-19.216-11.386-1.367-21.155 7.59-21.155 18.717v100.074c0 1.213-.62 2.274-1.554 2.896l.457 17.426c.136 5.221-3.44 8.32-6.546 9.386-3.197 1.1-7.702.805-10.743-3.319-3.042-4.123-5.099-8.826-6.18-14.037-12.333 15.54-14.638 36.912-5.677 54.799 8.829 17.072-3.017-1.699 38.647 52.111.736.926 1.378 1.913 1.934 2.943 5.986 3.185 21.108 10.438 40.691 14.066z" fill="#ffc7ab"/><path d="m251.605 188.541h8.789c5.048 0 9.178 4.13 9.178 9.177v16.509c0 5.048-4.13 9.178-9.178 9.178h-8.789c-5.048 0-9.178-4.13-9.178-9.178v-16.509c.001-5.047 4.13-9.177 9.178-9.177z" fill="#fce4d9"/><path d="m237.697 327.749-.532-20.279c0 1.971-1.63 3.55-3.6 3.479-5.084-.186-12.913-.363-19.234 6.792-1.08 1.222-2.085 2.491-3.031 3.791 1.301 5.336 3.529 9.719 6.167 13.294 6.497 8.808 20.517 3.865 20.23-7.077z" fill="#ffaa7b"/><path d="m245.569 426.731c2.811 3.539 4.341 7.926 4.341 12.446l.123 72.747c1.984.048 3.973.076 5.968.076 41.48 0 80.543-10.323 114.785-28.517l-.041-51.898c0-3.514 1.229-7.009 3.024-10.917-56.478 49.171-128.2 6.063-128.2 6.063z" fill="#ffaa7b"/><path d="m314.803 83.148c-13.647-16.839-39.023-17.743-53.834-1.919l-3.191 3.41c-.963 1.029-2.594 1.029-3.557 0l-3.191-3.41c-14.811-15.824-40.186-14.92-53.833 1.919-13.925 17.183-8.598 42.698 10.918 53.104 15.136 8.07 29.994 18.069 42.379 30.172 3.069 2.999 7.944 2.999 11.013 0 12.385-12.103 27.243-22.102 42.379-30.172 19.515-10.405 24.842-35.921 10.917-53.104z" fill="#ff4155"/><path d="m501.002 266.998c0-19.064-2.179-37.619-6.3-55.43-27.528 8.359-67.946 28.114-67.946 72.08 0 56.354-17.903 117.214 10.382 148.293 39.669-43.531 63.864-101.407 63.864-164.943z" fill="#3c58a0"/><path d="m136.128 227.949c-38.748-18.805-92.694-3.32-123.242 8.509-1.245 10.005-1.888 20.198-1.888 30.54 0 107.24 68.908 198.368 164.856 231.57 21.832-27.611 30.011-79.408-8.655-122.67-55.67-62.289 25.894-120.302-31.071-147.949z" fill="#3c58a0"/><ellipse cx="291.228" cy="102.43" fill="#ff7186" rx="16.866" ry="16.866" transform="matrix(.23 -.973 .973 .23 124.628 362.334)"/><ellipse cx="405.378" cy="152.83" fill="#f9a0b1" rx="8.265" ry="8.265" transform="matrix(.23 -.973 .973 .23 163.499 512.25)"/></g></svg>