<svg id="Capa_1" enable-background="new 0 0 512 512" height="512" viewBox="0 0 512 512" width="512" xmlns="http://www.w3.org/2000/svg"><g><circle cx="256" cy="256" fill="#fe646f" r="256"/><circle cx="256" cy="256" fill="#f6f8f9" r="195.455"/><g><path d="m126.614 385.386c7.03 7.03 18.429 7.03 25.459 0l16.351-16.351-25.459-25.459-16.351 16.351c-7.03 7.03-7.03 18.428 0 25.459z" fill="#685e68"/><path d="m131.441 388.841c-1.738-.848-3.374-1.998-4.827-3.451-7.033-7.033-7.027-18.436 0-25.463l16.355-16.355 1.576 14.992-9.647 9.647c-5.58 5.58-6.736 13.911-3.457 20.63z" fill="#554e56"/><path d="m221.167 357.881-59.448 17.855-25.457-25.457 17.86-59.442 33.155 11.533 12.198 4.24z" fill="#ffdfcf"/><path d="m156.116 200.835h215.291v94.815h-215.291z" fill="#fd3" transform="matrix(.707 -.707 .707 .707 -98.28 259.216)"/><path d="m144.546 358.563-8.284-8.284 17.86-59.442 33.155 11.533-10.81 10.811z" fill="#ffcebf"/><path d="m133.766 210.092h215.291v31.599h-215.291z" fill="#ffbf4d" transform="matrix(.707 -.707 .707 .707 -89.022 236.866)"/><path d="m391.767 137.25-17.018-17.018c-11.855-11.855-31.075-11.855-42.93 0l-22.707 22.707 59.947 59.947 22.707-22.707c11.856-11.854 11.856-31.074.001-42.929z" fill="#fe646f"/><path d="m393.619 139.28c-11.919-9.962-29.703-9.34-40.899 1.856l-22.706 22.706-20.903-20.903 22.706-22.706c11.854-11.854 31.079-11.854 42.933 0l17.019 17.019c.652.652 1.269 1.328 1.85 2.028z" fill="#fd4755"/><path d="m377.737 192.633-58.37-58.37c-5.663-5.663-14.845-5.663-20.508 0-5.663 5.663-5.663 14.845 0 20.508l58.37 58.37c5.663 5.663 14.845 5.663 20.508 0 5.663-5.663 5.663-14.845 0-20.508z" fill="#e1edfd"/><path d="m319.062 168.971c0 3.712 1.417 7.418 4.252 10.253l-24.455-24.455c-2.835-2.835-4.252-6.541-4.252-10.253s1.417-7.418 4.252-10.253c5.663-5.663 14.843-5.663 20.506 0l24.455 24.455c-5.663-5.663-14.843-5.663-20.506 0-2.834 2.835-4.252 6.541-4.252 10.253z" fill="#d5dcf8"/></g><path d="m230.727 40.338h50.546v431.323h-50.546z" fill="#fe646f" transform="matrix(.707 -.707 .707 .707 -106.039 256)"/><path d="m269.64 511.64c-4.52.24-9.07.36-13.64.36-141.38 0-256-114.62-256-256s114.62-256 256-256c4.57 0 9.12.12 13.64.36-135.05 7.08-242.37 118.83-242.37 255.64s107.32 248.56 242.37 255.64z" fill="#fd4755"/></g></svg>