<svg id="Capa_1" enable-background="new 0 0 512 512" height="512" viewBox="0 0 512 512" width="512" xmlns="http://www.w3.org/2000/svg"><g><circle cx="256" cy="256" fill="#3da569" r="256"/><circle cx="256" cy="256" fill="#4eb77d" r="200"/><g><g><path d="m230.905 92.135-37.246 66.596c-8.443 15.096-28.808 18.271-41.445 6.461l-32.82-30.672c-8.956-8.37-11.046-21.772-5.062-32.471l28.338-50.669c7.154-12.794 19.937-19.192 32.72-19.192s25.567 6.397 32.72 19.192" fill="#e1e5e5"/><path d="m377.884 90.21-21.676 93.295c-2.722 11.738-14.952 18.587-26.386 14.755l-90.833-30.361c-16.833-5.623-18.99-28.553-3.501-37.219l6.106-3.411 6.823-3.814-17.513-31.319-18.82-33.656-3.975-7.1c-7.154-12.794-19.939-19.196-32.716-19.196h115.061l-4.038.009c12.777 0 25.562 6.393 32.716 19.187l3.975 7.1 9.885 17.674 13.439-7.521 1.567-.886c15.498-8.66 33.906 5.174 29.886 22.463z" fill="#eff4f4"/></g><g><path d="m349.071 439.78-71.854-63.33c-9.043-7.963-9.273-21.979-.476-30.227l69.808-65.568c12.933-12.152 34.144-3.177 34.428 14.57l.107 6.994.122 7.815 35.879-.564 38.556-.607 8.136-.132c14.657-.23 26.357-8.45 32.416-19.698l-54.57 101.297 1.907-3.559c-6.06 11.248-17.751 19.473-32.408 19.703l-8.136.132-20.248.32.248 15.398.037 1.8c.271 17.75-20.637 27.395-33.952 15.656z" fill="#eff4f4"/><path d="m417.084 309.469-40.965-64.375c-9.286-14.593-2.422-34.027 13.969-39.552l42.569-14.347c11.617-3.915 24.406.601 30.987 10.944l31.169 48.979c15.742 24.732-1.723 57.153-31.036 57.613" fill="#e1e5e5"/></g><g><path d="m129.159 360.749 76.304.254c17.297.058 29.954 16.324 25.759 33.105l-10.895 43.581c-2.973 11.893-13.677 20.222-25.936 20.182l-58.055-.192c-29.317-.094-47.186-32.294-31.753-57.221" fill="#e1e5e5"/><path d="m56.158 233.165 92.094-26.315c11.584-3.316 23.508 4.055 25.705 15.912l17.526 94.155c3.251 17.447-15.752 30.459-30.846 21.121l-5.946-3.684-6.646-4.115-18.888 30.51-20.297 32.787-4.279 6.921c-7.716 12.463-7.11 26.749-.911 37.921l-55.83-100.608 1.967 3.526c-6.199-11.172-6.814-25.453.903-37.917l4.279-6.921 10.658-17.219-13.097-8.102-1.535-.94c-15.088-9.35-11.925-32.158 5.143-37.032z" fill="#eff4f4"/></g></g></g></svg>