<svg id="Layer_1" enable-background="new 0 0 512 512" height="512" viewBox="0 0 512 512" width="512" xmlns="http://www.w3.org/2000/svg"><g><path d="m256 21.996c-135.311 0-245.002 109.691-245.002 245.002 0 131.517 103.629 238.817 233.685 244.732l106.464-18.894c88.051-37.142 149.855-124.271 149.855-225.838 0-135.311-109.691-245.002-245.002-245.002z" fill="#73c3f9"/><path d="m309.139 219.264-33.417-42.52s-17.963 2.443-57.303 7.096c-39.339 4.653-47.211 47.653-47.211 47.653-7.458 26.363-10.509 46.206.753 51.936 10.553 5.369 18.357-4.037 18.357-4.037 4.258-5.201 8.481-12.155 12.419-19.647l42.327-20.156s13.604 34.491 29.299 50.567 26.47.317 26.47.317c34.928-28.439 8.306-71.209 8.306-71.209z" fill="#fc9460"/><g><path d="m299.223 279.771c-15.695-16.076-29.299-50.567-29.299-50.567l-24.365 11.603c2.57 6.254 14.862 35.068 28.806 49.349 15.695 16.076 26.47.317 26.47.317 2.075-1.69 3.927-3.432 5.586-5.211-2.256-1.136-4.662-2.892-7.198-5.491z" fill="#f48345"/></g><g><path d="m191.62 235.91s7.871-43 47.211-47.653c18.672-2.208 32.52-3.918 41.926-5.106l-5.035-6.406s-17.963 2.443-57.303 7.096c-39.339 4.653-47.211 47.653-47.211 47.653-7.458 26.363-10.509 46.206.753 51.936 6.408 3.26 11.798 1.073 15.047-1.149-4.381-8.982-1.246-25.663 4.612-46.371z" fill="#f48345"/></g><path d="m244.845 441.014-.162 70.716c3.752.171 7.523.27 11.317.27 33.744 0 65.894-6.824 95.147-19.164l.167-51.822z" fill="#ffc7ab"/><path d="m182.821 185.72 12.98 3.447c21.016 3.185 56.922-2.859 70.686-5.454 3.6-.679 7.282.638 9.621 3.458 5.908 7.121 13.919 18.542 19.951 25.644 15.471 18.215 19.85 42.331 8.169 63.401-2.685 4.844-5.021 9.198-7.537 11.644 0 0-9.081 10.279-16.468 2.713l-21.684-29.327c-1.43-3.602-18.817-64.316-50.603-67.828-1.298-.138-2.853-.113-2.767-.112-4.348.121-9.172 1.86-11.335 5.526-2.107 3.436-.409 6.76 5.503 40.088 2.613 14.542 5.01 29.661 4.909 38.076-.168 14.026 23.901 54.428 35.185 72.586 3.723 5.991 5.661 12.916 5.576 19.97l-.013 5.498h106.531l.061-19.007c.032-2.649.581-5.263 1.59-7.712 12.186-29.573 25.196-65.228 29.431-98.041.84-6.509.115-13.117-2.047-19.314-4.204-12.052-12.36-33.075-20.16-39.756-22.11-18.938-43.107-53.05-67.041-53.337-34.886-.418-116.54 19.306-116.772 38.649-.041 3.578 1.589 6.933 6.234 9.188z" fill="#ffc7ab"/><path d="m182.822 185.72 12.98 3.446c19.221 2.913 51.58-1.851 70.686-5.454h.004c6.149-1.15 9.729 3.548 9.641 3.487 2.738 3.302 6.304 8.026 8.926 11.502.013.017.025.034.038.051 3.802 5.041 7.677 10.193 10.964 14.062 15.623 18.393 19.508 42.124 8.573 62.631l.026-.001c-2.499 4.488-5.26 9.783-7.967 12.414-3.079 3.143-7.166 6.051-11.506 5.408h-.002s22.301 16.671 38.867-5.081c3.334-3.241 6.167-9.572 9.872-15.621 11.484-18.756 9.32-42.84-4.877-59.636l-40.636-48.075c-2.988-3.604-7.692-5.303-12.292-4.436-70.918 13.373-92.728 6.195-92.825 6.194-.002.002-.005.003-.005.003-.026.02-.047.038-.071.056-3.123 2.422-6.582 5.923-6.629 9.859-.028 2.348.671 4.598 2.464 6.506.939 1.003 2.172 1.91 3.769 2.685z" fill="#ffaa7b"/><path d="m279.868 0h-93.724c-6.465 0-11.754 5.289-11.754 11.754v207.408c0 6.464 5.289 11.753 11.753 11.754h93.725c6.465 0 11.754-5.289 11.754-11.754v-207.408c0-6.465-5.289-11.754-11.754-11.754z" fill="#ff4155"/><path d="m177.39 219.162v-207.408c0-6.465 5.289-11.754 11.754-11.754h-48.34c-6.465 0-11.754 5.289-11.754 11.754v207.408c0 6.464 5.289 11.754 11.754 11.754h48.34c-6.465-.001-11.754-5.29-11.754-11.754z" fill="#e80054"/><g><path d="m258.54 261.245c-1.43-3.602-18.817-64.316-50.603-67.828-1.298-.138-2.853-.113-2.767-.112-4.348.121-9.172 1.86-11.335 5.526-2.107 3.436-.409 6.76 5.503 40.088 7.192 40.034 3.669 35.006 5.613 43.26l69.685.835z" fill="#ffc7ab"/></g><path d="m286.782 436.507v-56.952c0-4.132-2.2-7.766-5.479-9.817h-36.428c-6.09 0-11.073 4.983-11.073 11.073v54.442c0 6.09 4.983 11.073 11.073 11.073h36.428c3.279-2.053 5.479-5.687 5.479-9.819z" fill="#3c58a0"/><path d="m317.8 437.357v-58.652c0-3.569 1.596-6.776 4.101-8.967h-46.703c6.09 0 11.073 4.983 11.073 11.073v54.442c0 6.09-4.983 11.073-11.073 11.073h46.703c-2.505-2.192-4.101-5.4-4.101-8.969z" fill="#2a428c"/><path d="m326.65 415.518h26.361c4.399 0 8.303-2.195 10.696-5.536v-31.277c0-6.561-5.368-11.929-11.929-11.929h-23.893c-6.561 0-11.929 5.368-11.929 11.929v31.277c2.391 3.341 6.295 5.536 10.694 5.536z" fill="#4f71b6"/><path d="m351.777 414.286h-23.893c-6.561 0-11.929-5.368-11.929-11.929v35c0 6.561 5.368 11.929 11.929 11.929h23.893c6.561 0 11.929-5.368 11.929-11.929v-35c0 6.561-5.368 11.929-11.929 11.929z" fill="#3c58a0"/><g><path d="m330.986 109.715c-1.081 0-2.177-.275-3.181-.855l-12.608-7.279c-3.049-1.76-4.093-5.658-2.333-8.707 1.76-3.048 5.658-4.092 8.707-2.333l12.608 7.279c3.049 1.76 4.093 5.658 2.333 8.707-1.181 2.046-3.324 3.188-5.526 3.188z" fill="#ff4155"/></g><g><path d="m341.907 68.977h-14.559c-3.52 0-6.374-2.853-6.374-6.374s2.854-6.374 6.374-6.374h14.559c3.52 0 6.374 2.853 6.374 6.374 0 3.52-2.853 6.374-6.374 6.374z" fill="#ff4155"/></g><g><path d="m318.389 35.52c-2.203 0-4.345-1.143-5.526-3.188-1.76-3.048-.716-6.946 2.333-8.707l12.608-7.279c3.048-1.76 6.946-.716 8.707 2.333 1.76 3.048.716 6.946-2.333 8.707l-12.608 7.279c-1.003.579-2.099.855-3.181.855z" fill="#ff4155"/></g><g fill="#9bd8f9"><path d="m136.525 314.609c-44-29.773-49.398-81.227-49.398-143.828 0-24.001-8.028-45.232-17.926-62.296-36.295 42.729-58.204 98.059-58.204 158.514 0 105.263 66.391 195.002 159.577 229.672 61.602-62.507 6.544-154.595-34.049-182.062z"/><path d="m384.334 58.274c-3.34 5.594-7.005 12.768-10.107 21.323-10.302 28.413-5.765 60.163 12.009 84.607 34.93 48.039 46.628 106.352 22.289 154.641-24.48 48.568-26.2 108.924 15.38 126.559 47.459-44.681 77.097-108.08 77.097-178.407 0-88.251-46.669-165.594-116.668-208.723z"/></g></g></svg>