<svg id="Layer_1" enable-background="new 0 0 512 512" height="512" viewBox="0 0 512 512" width="512" xmlns="http://www.w3.org/2000/svg"><g><path d="m245.002 21.996c-135.311 0-245.002 109.691-245.002 245.002 0 43.27 11.232 83.911 30.917 119.192l116.12 105.42c30.003 13.105 63.131 20.39 97.964 20.39 135.311 0 245.002-109.691 245.002-245.002s-109.69-245.002-245.001-245.002z" fill="#2a428c"/><path d="m187.26 374.07c10.592-9.74 15.548-20.15 16.966-23.518.83.082 1.647.148 2.455.202l-42.519-73.645c-14.55 28.531-37.219 53.333-67.024 70.541l25.586 44.317c32.595 4.241 53.065-7.35 64.536-17.897z" fill="#deeeff"/><path d="m121.778 390.329 24.992 43.288c29.806-17.208 62.618-24.44 94.603-22.774l-35.6-61.661c-.824-.066-1.659-.142-2.518-.239-.001-.001-18.2 50.268-81.477 41.386z" fill="#d3dcfb"/><path d="m305.563 282.308c-2.91 2.192-6.597 4.437-10.931 6.624-4.472 2.255-9.855.783-12.521-3.423l-4.777-7.539c-9.13.652-18.262-1.161-26.406-5.194l37.58 65.09c.862-13.512 7.068-26.476 17.747-35.602 4.232-3.616 5.172-9.798 2.389-14.618z" fill="#e80054"/><g><path d="m73.201 364.123-6.703-11.609c-4.282-7.416-13.764-9.957-21.18-5.675s-9.957 13.764-5.675 21.18l6.703 11.609z" fill="#deeeff"/></g><path d="m204.226 350.553c14.065 1.393 24.98-1.229 32.453-7.8 7.472-6.57 9.261-15.145 9.689-18.771l2.54.423-66.238-114.728c-1.551 24.299-8.243 48.07-19.624 69.622l41.162 71.296c.005-.013.013-.03.018-.042z" fill="#d3dcfb"/><path d="m203.254 348.942 35.665 61.773c24.355.919 48.287 7.009 70.107 17.816l-61.088-105.808-2.935-.489c-.001-.001-.496 31.369-41.749 26.708z" fill="#bec8f7"/><path d="m468.169 38.472h-82.076c-1.226 2.085-2.246 4.653-2.453 7.624-.38 5.47 2.066 10.881 7.271 16.085 10.697 10.698-9.057 123.364-22.123 188.978l124.268-.025c11.422-7.933 18.944-21.136 18.944-36.017v-132.814c0-24.107-19.724-43.831-43.831-43.831z" fill="#ff7186"/><path d="m391.971 61.12c-9.592-9.592-7.286-17.779-4.11-22.648h-54.849c.718 3.506 1.096 7.135 1.096 10.85 0 29.76-21.212 59.972-50.973 59.972-3.715 0-7.344-.378-10.85-1.096v106.918c0 14.906 7.546 28.129 19.001 36.057l79.004-.016c10.875-54.732 33.742-177.975 21.681-190.037z" fill="#ff4155"/><path d="m441.587 93.843c-2.262-6.307-9.019-21.05-23.754-24.983-.785-.21-.992-1.225-.354-1.727l2.209-1.735c1.001-.787.616-2.385-.634-2.626-5.348-1.031-16.8-2.767-28.393-1.522-3.012 4.097-4.907 9.916 1.967 15.262 12.307 9.572-4.975 19.156-4.975 19.156l-13.026 36.281h59.166c.147-5.965 1.142-21.753 7.376-33 .867-1.564 1.021-3.423.418-5.106z" fill="#56415e"/><path d="m388.868 95.668s17.282-9.584 4.974-19.156c-6.945-5.402-4.939-11.287-1.872-15.391-12.393 1.097-25.206 5.453-31.113 17.6-.669 1.376-1.931 2.367-3.413 2.751-3.263.845-9.134 3.391-12.96 11.02-.748 1.492-.876 3.222-.34 4.803 1.859 5.48 6.389 20.194 6.862 34.655h24.835z" fill="#47354f"/><g><path d="m437.007 129.536c-1.853-1.699-5.997-.838-7.593.202.35 2.178.37 4.406.068 6.605l-1.884 13.719c0 1.106-.035 2.191-.099 3.257 4.593 1.385 7.327-2.738 7.711-5.568.165-1.218.436-2.419.811-3.591 1.221-3.814 5.629-10.368.986-14.624z" fill="#ffaa7b"/></g><g><path d="m347.336 129.536c1.853-1.699 5.997-.838 7.593.202-.35 2.178-.37 4.406-.068 6.605l1.884 13.719c0 1.106.035 2.191.099 3.257-4.593 1.385-7.327-2.738-7.711-5.568-.166-1.218-.436-2.419-.811-3.591-1.222-3.814-5.629-10.368-.986-14.624z" fill="#fc9460"/></g><path d="m421.822 201.576c-4.586-4.586-5.748-13.28-5.958-19.363-2.393 2.788-4.905 5.119-7.305 6.983-4.676 3.631-10.446 5.603-16.389 5.603-.689 0-1.376-.029-2.059-.082-.039 5.553-1.254 14.503-7.784 21.032-.089.089-.178.164-.268.249l.986.501s6.385 2.801 9.125 6.82c2.74-4.018 9.125-6.82 9.125-6.82l26.327-13.39c-1.902-.564-3.832-1.079-5.8-1.533z" fill="#ffaa7b"/><path d="m357.31 203.409 25.537 12.989c.233-.209.465-.417.697-.649 6.504-6.504 7.735-15.41 7.783-20.967-5.643-.178-11.09-2.127-15.544-5.586-2.4-1.864-4.912-4.195-7.305-6.983-.209 6.083-1.372 14.777-5.958 19.363-1.824.421-3.613.9-5.38 1.415z" fill="#fc9460"/><path d="m468.209 217.717-24.658-11.736c-3.252-1.506-9.248-4.5-14.12-6.083l-.135 3.949c-1.202-.389-2.412-.762-3.637-1.106l-25.575 13.008s-9.787 4.291-9.787 9.787v37.931c2.568-2.81 6.277-4.519 10.281-4.519h67.591c9.226 0 17.805-2.896 24.887-7.814-.392-14.659-9.679-28.939-24.847-33.417z" fill="#d3dcfb"/><path d="m428.731 125.5c-.424-1.106-.958-2.227-1.632-3.283-1.141-1.79-1.642-3.906-1.49-6.017.44-6.07.204-17.943-7.765-21.528-6.77-3.046-15.074-1.283-20.371.479-3.195 1.062-6.635 1.125-9.866.213-5.501 4.879-5.628 14.873-5.231 20.283.157 2.139-.369 4.279-1.526 6.093-.666 1.046-1.199 2.152-1.626 3.247-1.383 3.553-1.786 7.407-1.268 11.18l1.925 14.017c0 20.152 10.757 33.849 19.908 40.955 1.079.838 2.218 1.584 3.401 2.244 1.9-.858 3.704-1.936 5.368-3.228 8.958-6.956 19.489-20.365 19.489-40.093l1.884-13.719c.504-3.657.123-7.392-1.2-10.843z" fill="#ffc7ab"/><g><path d="m399.884 190.157c-8.958-6.956-19.489-20.365-19.489-40.093l-1.884-13.722c-.507-3.694-.112-7.466 1.242-10.945.417-1.072.939-2.156 1.591-3.179 1.132-1.776 1.647-3.871 1.494-5.965-.41-5.581-.255-16.148 6.03-20.585-.674-.135-1.343-.298-2-.517-5.296-1.761-13.6-3.525-20.371-.479-7.991 3.596-8.206 15.526-7.761 21.58.154 2.094-.362 4.189-1.494 5.965-.652 1.024-1.174 2.107-1.592 3.179-1.354 3.478-1.749 7.251-1.242 10.945l1.884 13.722c0 19.728 10.531 33.137 19.489 40.093 4.676 3.631 10.446 5.603 16.389 5.603 4.214 0 8.339-.996 12.051-2.868-1.522-.767-2.977-1.678-4.337-2.734z" fill="#ffaa7b"/></g><path d="m384.259 215.749-19.262-9.797-2.878 10.446-.306-.974c-.346.108-8.577 2.727-16.943 8.332-11.208 7.511-17.133 16.804-17.133 26.876v8.317h14.402c3.918 0 6.952 3.504 6.31 7.37-1.3 7.835-4.749 15.445-10.512 21.904-5.025 5.633-1.216 14.666 6.333 14.702.07 0 .141.001.212.001 20.675 0 38.003-14.295 42.656-33.539.942-3.893 3.531-7.03 6.907-8.815 0-19.465 0-34.047 0-35.035.001-5.497-9.786-9.788-9.786-9.788z" fill="#bec8f7"/><path d="m364.591 205.745-5.907-3.005c-1.205.339-2.395.706-3.577 1.087l-.195-3.93c-4.757 1.545-11.166 4.714-14.121 6.083l-24.658 11.736c-15.235 4.499-24.474 18.812-24.847 33.457 7.071 4.894 15.629 7.774 24.83 7.774h12.642c0-3.064 0-5.893 0-8.317 0-23.76 33.361-34.233 33.361-34.233l2.878-10.446z" fill="#a9bbfc"/><g><path d="m418.466 191.12c-.52-.287-1.166.013-1.285.595-.773 3.785-4.126 15.71-16.58 22.787-1.226.697-1.52 2.333-.592 3.396l12.583 14.413c2.613 3.009 7.423 2.468 9.309-1.043 3.188-5.936 7.63-14.97 10.918-24.683.589-1.739.17-3.662-1.07-5.015-3.828-4.175-8.313-7.706-13.283-10.45z" fill="#deeeff"/></g><g><path d="m365.877 191.12c.52-.287 1.166.013 1.285.595.773 3.785 4.126 15.71 16.58 22.787 1.226.697 1.52 2.333.592 3.396l-12.584 14.413c-2.613 3.009-7.423 2.468-9.309-1.043-3.188-5.936-7.63-14.97-10.918-24.683-.589-1.739-.17-3.662 1.07-5.015 3.829-4.175 8.313-7.706 13.284-10.45z" fill="#deeeff"/></g><path d="m283.135 0c-9.387 0-18.222 2.345-25.966 6.47-.792 7.957.578 20.875 15.258 28.735 19.872 10.641 15.53 44.376 15.345 45.735-.174.859-1.686 9.231 3.58 16.655 2.883 4.066 7.214 7.027 12.914 8.86 20.068-8.302 34.191-28.065 34.191-51.133 0-30.554-24.769-55.322-55.322-55.322z" fill="#49b1f7"/><path d="m289.25 81.197s5.25-35.875-16.116-47.315c-14.614-7.825-15.38-20.794-14.405-28.211-18.312 9.018-30.916 27.859-30.916 49.651 0 30.553 24.769 55.322 55.322 55.322 8.316 0 16.196-1.847 23.272-5.133-21.155-5.707-17.157-24.314-17.157-24.314z" fill="#1e9ef4"/><g><path d="m304.575 65.322h-42.88c-5.523 0-10-4.478-10-10s4.477-10 10-10h42.88c5.523 0 10 4.478 10 10s-4.477 10-10 10z" fill="#d3dcfb"/></g><path d="m267.935 323.86c4.849-3.727 5.805-10.007 5.919-13.673l-68.254-118.22c-4.282-7.416-13.764-9.957-21.18-5.675s-9.957 13.764-5.675 21.18l67.433 116.797c9.617 3.433 16.933 3.299 21.757-.409z" fill="#ff7186"/><path d="m93.179 401.45c3.703 2.615 7.713 3.56 11.916 2.814 8.62-1.535 15.422-9.754 17.367-12.327.569.075 1.125.134 1.686.2l-26.015-45.06-28.822 16.64c5.124 12.098 14.259 30.946 23.868 37.733z" fill="#ff4155"/><path d="m97.08 462.305 50.684-29.263-24.555-42.531c-.477-.061-.949-.115-1.431-.182 0 0-13.667 19.831-27.734 9.895-9.307-6.574-18.353-25.327-23.411-37.271l-35.388 20.431c-1.506.87-2.948 1.807-4.327 2.805 16.59 29.735 39.189 55.655 66.162 76.116z" fill="#e80054"/><path d="m82.235 450.099c19.15 17.036 40.989 31.11 64.803 41.511l-24.664-42.72c-4.073-7.054-11.599-11.399-19.745-11.399-9.298-.001-16.747 5.333-20.394 12.608z" fill="#d3dcfb"/><path d="m104.088 418.923c-10.212 5.896-13.743 19.075-7.848 29.286 5.896 10.212 19.075 13.743 29.287 7.847 10.212-5.896 13.743-19.074 7.847-29.286-5.895-10.211-19.074-13.742-29.286-7.847z" fill="#deeeff"/><g><path d="m67.954 414.176c-2.493 0-4.918-1.293-6.255-3.608l-4.211-7.294c-1.992-3.45-.81-7.863 2.641-9.856 3.451-1.989 7.864-.81 9.855 2.641l4.211 7.294c1.992 3.45.81 7.863-2.641 9.856-1.136.655-2.376.967-3.6.967z" fill="#cc0053"/></g><g><path d="m90.443 401.191c-2.493 0-4.918-1.293-6.255-3.608l-4.211-7.294c-1.992-3.45-.81-7.863 2.641-9.856 3.452-1.99 7.863-.81 9.855 2.641l4.211 7.294c1.992 3.45.81 7.863-2.641 9.856-1.135.655-2.376.967-3.6.967z" fill="#cc0053"/></g><path d="m0 266.998c0 2.65.043 5.29.127 7.919 146.64 38.57 99.836-61.621 159.535-121.32 49.053-49.054 28.288-100.541 16.114-121.666-101.597 29.872-175.776 123.8-175.776 235.067z" fill="#3c58a0"/><path d="m196.206 507.114c15.77 3.192 32.084 4.886 48.796 4.886 124.322 0 227.006-92.603 242.865-212.593-45.345 4.432-119.797 22.451-119.797 93.044 0 101.496-87.491 82.496-87.491 82.496s-76.242-26.309-84.373 32.167z" fill="#3c58a0"/><g><path d="m283.134 86.762c-5.523 0-10-4.478-10-10v-42.88c0-5.522 4.477-10 10-10s10 4.478 10 10v42.88c0 5.523-4.477 10-10 10z" fill="#deeeff"/></g><g fill="#ff4155"><path d="m245.002 322.233 63.969 110.798c4.282 7.416 13.764 9.957 21.18 5.675s9.957-13.764 5.675-21.18l-63.542-110.058c.001.001 2.97 26.552-27.282 14.765z"/><path d="m304.489 280.448c-2.783-4.821-8.607-7.096-13.854-5.24-4.91 1.737-9.97 2.674-15.011 2.864l5.221 8.24c3.077 4.856 9.33 6.548 14.463 3.958 3.555-1.793 7.567-4.077 11.012-6.652z"/></g></g></svg>