<svg id="Layer_1" enable-background="new 0 0 512 512" height="512" viewBox="0 0 512 512" width="512" xmlns="http://www.w3.org/2000/svg"><g><path d="m75.982 433.168h360.036c40.332-43.671 64.984-102.038 64.984-166.17 0-135.311-109.691-245.002-245.002-245.002s-245.002 109.691-245.002 245.002c0 64.133 24.653 122.499 64.984 166.17z" fill="#816ae2"/><path d="m198.292 82.422c-1.175.639-1.764.938-5.118 1.058l.546 1.063c-.99 3.06-4.688 16.219 1.396 25.895 3.365 5.352 9.088 8.635 17.029 9.774l-10.025 34.854v57.256l7.954 7.921c-1.041 3.855-4.432 19.118 3.467 30.459 5.233 7.514 14.279 11.634 26.893 12.246.216.009 21.659 1.094 29.64 13.553 3.938 6.146 3.971 14.172.1 23.855l-15.672 12.539v17.117c-.859.892-2.403 2.841-2.332 5.28.049 1.671.833 3.181 2.331 4.494v16.865c-2.333 1.843-10.206 8.765-10.648 18.59-.307 6.819 3.034 13.456 9.934 19.746-2.135 2.214-6.238 7.28-6.059 13.374.13 4.364 2.407 8.335 6.773 11.814v54.658c-1.27 2.015-6.325 10.989-3.316 21.871 1.541 5.571 4.929 10.656 10.096 15.226 68.058-1.459 130.668-31.043 174.739-78.761v-350.747z" fill="#deeeff"/><path d="m240.5 261.447c-41.25-2-28.739-41.644-28.739-41.644l-8.141-8.106v-56.42l10.454-36.343c-30.176-3.014-18.729-34.512-18.729-34.512l-.531-1.032c-6.243.501-26.639-.398-118.832.032v349.746c44.762 48.469 108.84 78.832 180.018 78.832 2.515 0 5.021-.049 7.522-.126-20.973-17.258-7.522-36.593-7.522-36.593v-55.841c-15.25-11.508 0-24.5 0-24.5-24-20.508 0-37.544 0-37.544v-18.323c-5.25-3.958.001-8.422.001-8.422v-17.036l15.416-12.333c15.416-37.793-30.917-39.835-30.917-39.835z" fill="#d3dcfb"/><path d="m330.86 219.804v-38.845c0-7.135-5.784-12.918-12.918-12.918-7.135 0-12.918 5.784-12.918 12.918v38.845z" fill="#ffc839"/><path d="m206.976 219.804v-38.845c0-16.292 8.068-31.482 21.582-40.631 5.908-4 7.454-12.031 3.455-17.939-4-5.907-12.03-7.455-17.939-3.455-20.622 13.962-32.934 37.149-32.934 62.025v38.845z" fill="#ffb332"/><path d="m202.62 55.422v19.725c0 4.57-3.705 8.275-8.275 8.275h-1.421v1h243.094v-29z" fill="#d3dcfb"/><path d="m75.982 55.422v29h119.363c4.57 0 8.275-3.705 8.275-8.275v-20.725z" fill="#bec8f7"/><path d="m399.087 0h-199.813l1.823.67c-1.649 2.19-4.046 6.216-3.597 10.681.342 3.392 2.232 6.353 5.62 8.809v17.175c-1.469 1.278-5.102 4.925-5.471 9.997-.252 3.477 1.08 6.864 3.93 10.089h234.439v-20.49c0-20.396-16.535-36.931-36.931-36.931z" fill="#3c58a0"/><path d="m112.913 0c-20.396 0-36.931 16.535-36.931 36.931v20.49h127.638c-10.68-10.68 1-19.378 1-19.378v-18.665c-12.156-8.122-1-19.378-1-19.378z" fill="#2a428c"/><path d="m349.62 38.044h-145c-5.155 0-9.333-4.179-9.333-9.333 0-5.155 4.179-9.333 9.333-9.333h145c5.155 0 9.333 4.179 9.333 9.333 0 5.155-4.178 9.333-9.333 9.333z" fill="#4f71b6"/><path d="m402.953 28.711c0-5.155-4.179-9.333-9.334-9.333h-10.5c-5.155 0-9.333 4.179-9.333 9.333 0 5.155 4.179 9.333 9.333 9.333h10.5c5.156 0 9.334-4.178 9.334-9.333z" fill="#4f71b6"/><ellipse cx="112.962" cy="28.711" fill="#fc90ce" rx="10.504" ry="10.504" transform="matrix(.925 -.38 .38 .925 -2.432 45.11)"/><ellipse cx="171.286" cy="28.711" fill="#88ce65" rx="10.504" ry="10.504" transform="matrix(.231 -.973 .973 .231 103.819 188.747)"/><ellipse cx="142.124" cy="28.711" fill="#ffdd40" rx="10.504" ry="10.504" transform="matrix(.685 -.729 .729 .685 23.853 112.589)"/><path d="m466.525 232.372v71.347c0 16.356 9.335 30.63 22.936 37.781 7.494-23.493 11.541-48.524 11.541-74.502 0-25.314-3.841-49.731-10.969-72.701-13.91 7.048-23.508 21.491-23.508 38.075z" fill="#9181f2"/><path d="m45.475 232.372v71.347c0 16.356-9.335 30.63-22.936 37.781-7.494-23.493-11.541-48.524-11.541-74.502 0-25.314 3.841-49.731 10.969-72.701 13.91 7.048 23.508 21.491 23.508 38.075z" fill="#9181f2"/><g><path d="m221.328 142.55c-4.143 0-8.211-1.988-10.709-5.677-4-5.908-2.453-13.94 3.455-17.939 12.402-8.397 26.9-12.835 41.926-12.835 15.001 0 29.478 4.424 41.866 12.794 5.911 3.994 7.466 12.024 3.471 17.936-3.994 5.911-12.025 7.467-17.935 3.471-8.099-5.472-17.575-8.365-27.401-8.365-9.843 0-19.333 2.902-27.442 8.393-2.219 1.502-4.74 2.222-7.231 2.222z" fill="#ffc839"/></g><g><path d="m317.942 193.877c-7.135 0-12.918-5.783-12.918-12.918 0-16.312-8.083-31.512-21.623-40.658-5.911-3.994-7.466-12.024-3.473-17.936 3.994-5.911 12.024-7.466 17.936-3.472 20.66 13.958 32.996 37.161 32.996 62.067 0 7.134-5.783 12.917-12.918 12.917z" fill="#ffdd40"/></g><path d="m335.495 221.717c.05 0 .1.003.15.004v-3.348c0-5.892-4.777-10.669-10.669-10.669h-14.068c-5.892 0-10.669 4.777-10.669 10.669v3.344z" fill="#ffeb97"/><path d="m176.505 221.717h35.256v-3.344c0-5.892-4.777-10.669-10.669-10.669h-14.068c-5.892 0-10.669 4.777-10.669 10.669v3.348c.05 0 .1-.004.15-.004z" fill="#ffeb97"/><path d="m342.16 311.447c-12.527 0-22.719-10.191-22.719-22.719v-44.281c0-10.704 2.88-18.544 8.561-23.301.589-.493 1.197-.935 1.815-1.343-13.156 0-77.874 0-120.18 0l.375.374c-1.245 3.433-4.939 15.312-.327 24.554 2.43 4.87 6.753 8.192 12.857 9.883l3.128 4.126c-5.635 4.716-28.676 26.696-19.438 63.871 8.77 35.291 37.531 46.1 46.684 48.686-2.222 2.297-5.343 6.428-5.414 11.551-.06 4.293 2.025 8.354 6.185 12.092h81.809c11.512 0 20.931-9.419 20.931-20.931v-62.561h-14.267z" fill="#3c58a0"/><path d="m256 370.515s-38-6.765-48.312-48.265c-10.313-41.5 20.062-63.25 20.062-63.25l-4.324-5.702c-23.073-5.952-11.667-33.491-11.666-33.494-15.868 0-28.861 0-35.256 0-11.512 0-20.931 9.419-20.931 20.931v133.273c0 11.512 9.419 20.931 20.931 20.931h79.495c-15.749-12.561.001-24.424.001-24.424z" fill="#2a428c"/><path d="m328.506 419.439h-74.66c-1.593 1.69-4.187 5.07-4.005 9.037.143 3.115 1.929 5.876 5.307 8.206 8.721 6.013.809 18.614-.277 20.257-.931.812-4.935 4.609-4.999 9.773-.038 3.044 1.28 5.921 3.92 8.568h74.714c15.356 0 27.921-12.564 27.921-27.921-.001-15.355-12.565-27.92-27.921-27.92z" fill="#49b1f7"/><path d="m256 419.439h-72.506c-15.356 0-27.921 12.564-27.921 27.921 0 15.356 12.564 27.921 27.921 27.921h72.506c-10.417-8.886.001-17.333.001-17.333s10.501-15.259-.001-22.5c-10.502-7.242 0-16.009 0-16.009z" fill="#1e9ef4"/><g fill="#deeeff"><circle cx="188.209" cy="446.697" r="11.25"/><circle cx="222.105" cy="446.697" r="11.25"/><circle cx="256.001" cy="446.697" r="11.25"/><circle cx="289.896" cy="446.697" r="11.25"/><circle cx="323.792" cy="446.697" r="11.25"/></g><path d="m335.495 219.804h-8.216c-5.214 4.239-9.337 11.684-9.337 24.644v44.281c0 13.376 10.843 24.219 24.219 24.219h14.266v-72.212c-.001-11.513-9.42-20.932-20.932-20.932z" fill="#4f71b6"/><g><path d="m256 370.515c-34.817 0-63.143-28.326-63.143-63.143s28.326-63.143 63.143-63.143c29.865 0 55.881 21.207 61.86 50.426.886 4.328-1.905 8.556-6.234 9.441-4.321.881-8.555-1.904-9.441-6.234-4.462-21.806-23.886-37.633-46.185-37.633-25.995 0-47.143 21.149-47.143 47.143 0 25.995 21.148 47.143 47.143 47.143 17.293 0 33.174-9.447 41.446-24.655 2.111-3.882 6.972-5.317 10.85-3.205 3.882 2.11 5.316 6.969 3.205 10.85-11.075 20.361-32.342 33.01-55.501 33.01z" fill="#49b1f7"/></g><g><path d="m311.5 308.819c-1.049 0-2.114-.207-3.14-.646l-25.207-10.772c-4.063-1.736-5.949-6.438-4.213-10.5 1.736-4.064 6.437-5.95 10.5-4.213l17.851 7.629 7.629-17.851c1.735-4.064 6.436-5.951 10.5-4.213 4.064 1.736 5.949 6.438 4.213 10.5l-10.772 25.207c-1.299 3.039-4.255 4.859-7.361 4.859z" fill="#73c3f9"/></g></g></svg>