<svg id="Capa_1" enable-background="new 0 0 512 512" height="512" viewBox="0 0 512 512" width="512" xmlns="http://www.w3.org/2000/svg"><g><path d="m55.228 414.844c-34.58-43.647-55.228-98.834-55.228-158.844 0-141.385 114.615-256 256-256s256 114.615 256 256c0 60.01-20.648 115.197-55.228 158.844-.125.159-401.419.159-401.544 0z" fill="#6f3f8b"/><path d="m358.073 408.849-262.35 37.64c-10.277-8.693-19.859-18.181-28.652-28.37-.71-.823-6.371 3.403-7.071 2.57-1.619-1.925-3.21-3.873-4.773-5.846l-39.51-247.365-14.928-93.468c-.436-2.727 1.422-5.29 4.149-5.726l222.471-35.534c38.017-6.072 73.758 19.824 79.83 57.841z" fill="#ff4fb8"/><path d="m507.063 68.284c2.727.436 4.584 2.999 4.149 5.726l-14.929 93.469-39.51 247.365c-1.563 1.972-3.154 3.921-4.773 5.846-1.107 1.316-7.566-1.156-8.699.137-8.45 9.647-17.614 18.654-27.408 26.938l-261.966-38.917 50.833-318.257c6.072-38.017 41.813-63.913 79.83-57.841z" fill="#a3e72d"/><path d="m452 25v395.69c-46.96 55.83-117.337 91.31-196 91.31-66.119 0-126.383-25.066-171.809-66.214v-425.786h362.809c2.761 0 5 2.239 5 5z" fill="#d5f3f7"/><path d="m90.362 170v281.199c-10.952-9.303-21.112-19.511-30.362-30.509v-395.69c0-2.761 2.239-5 5-5h25.362z" fill="#afeaf2"/><path d="m269.192 340c0-4.143 3.357-7.5 7.5-7.5h56.271c4.143 0 7.5 3.357 7.5 7.5s-3.357 7.5-7.5 7.5h-56.271c-4.142 0-7.5-3.357-7.5-7.5zm7.5 47.5h31.457c4.143 0 7.5-3.357 7.5-7.5s-3.357-7.5-7.5-7.5h-31.457c-4.143 0-7.5 3.357-7.5 7.5s3.358 7.5 7.5 7.5zm56.272 25h-56.271c-4.143 0-7.5 3.357-7.5 7.5s3.357 7.5 7.5 7.5h56.271c4.143 0 7.5-3.357 7.5-7.5s-3.358-7.5-7.5-7.5zm-217.641-65h72.211c4.143 0 7.5-3.357 7.5-7.5s-3.357-7.5-7.5-7.5h-72.211c-4.143 0-7.5 3.357-7.5 7.5s3.358 7.5 7.5 7.5zm103.158 25h-103.158c-4.143 0-7.5 3.357-7.5 7.5s3.357 7.5 7.5 7.5h103.158c4.143 0 7.5-3.357 7.5-7.5s-3.357-7.5-7.5-7.5zm-30.947 40h-72.211c-4.143 0-7.5 3.357-7.5 7.5s3.357 7.5 7.5 7.5h72.211c4.143 0 7.5-3.357 7.5-7.5s-3.357-7.5-7.5-7.5z" fill="#2dd2e3"/><path d="m357.231 275.213h-202.462v-202.463h202.463v202.463z" fill="#2dd2e3"/><path d="m179.036 275.213h-24.268v-202.463h24.268z" fill="#00c8de"/><path d="m407.5 420c0 4.143-3.357 7.5-7.5 7.5h-72.211c-4.143 0-7.5-3.357-7.5-7.5s3.357-7.5 7.5-7.5h72.211c4.143 0 7.5 3.357 7.5 7.5zm-7.5-47.5h-103.158c-4.143 0-7.5 3.357-7.5 7.5s3.357 7.5 7.5 7.5h103.158c4.143 0 7.5-3.357 7.5-7.5s-3.357-7.5-7.5-7.5zm-72.211-25h72.211c4.143 0 7.5-3.357 7.5-7.5s-3.357-7.5-7.5-7.5h-72.211c-4.143 0-7.5 3.357-7.5 7.5s3.357 7.5 7.5 7.5zm-137.248-274.154-34.567 38.006c-1.23 1.352-3.479.482-3.479-1.345v-38.007c0-1.104.896-2 2-2h34.567c1.736 0 2.647 2.061 1.479 3.346zm166.964-3.346h-34.567c-1.737 0-2.648 2.061-1.479 3.346l34.567 38.006c1.23 1.352 3.479.482 3.479-1.345v-38.007c0-1.104-.895-2-2-2zm-1.479 166.612-34.567 38.006c-1.168 1.285-.257 3.346 1.479 3.346h34.567c1.104 0 2-.895 2-2v-38.006c0-1.828-2.249-2.698-3.479-1.346zm-200.052 0c-1.23-1.352-3.479-.482-3.479 1.346v38.006c0 1.105.896 2 2 2h34.567c1.737 0 2.648-2.061 1.479-3.346zm-37.831-236.612c-4.143 0-7.5 3.357-7.5 7.5v60.472c0 4.143 3.357 7.5 7.5 7.5s7.5-3.357 7.5-7.5v-60.472c0-4.143-3.357-7.5-7.5-7.5z" fill="#009ab2"/><path d="m227.611 143.982v-9.463c0-15.679 12.71-28.389 28.389-28.389s28.389 12.71 28.389 28.389v9.463c0 15.679-12.71 28.389-28.389 28.389s-28.389-12.71-28.389-28.389zm46.291 41.074h-35.804c-16.569 0-30 13.431-30 30v21.778c0 2.761 2.239 5 5 5h85.804c2.761 0 5-2.239 5-5v-21.778c0-16.569-13.431-30-30-30z" fill="#fff5f5"/></g></svg>