<svg id="Layer_1" enable-background="new 0 0 512 512" height="512" viewBox="0 0 512 512" width="512" xmlns="http://www.w3.org/2000/svg"><g><path d="m245.002 16.631c-113.192 0-208.438 76.767-236.558 181.073l403.376 243.343c48.09-44.734 78.184-108.555 78.184-179.414 0-135.311-109.691-245.002-245.002-245.002z" fill="#01c0fa"/><path d="m174.992 92.407-166.671 105.749c-.049.183-.1.365-.148.548 5.959-2.776 12.578-4.351 19.556-4.351h337.409c8.517 0 16.517 2.315 23.41 6.342l-170.672-108.288c-13.089-8.305-29.796-8.305-42.884 0z" fill="#fdb441"/><path d="m168.448 369.284-59.586-37.806v1.809c-2.835 2.664-16.05 16.065-16.66 34.862-.415 12.759 5.111 25.088 16.426 36.66-.234.673-.567 1.7-.94 3.026z" fill="#ffc344"/><path d="m110.362 404.431c-37.534-37.534 0-70.484 0-70.484s0-.533 0-1.517l-108.508-68.846c-.631-.388-1.242-.798-1.845-1.216.195 66.047 26.527 125.935 69.191 169.887l40.424-25.648c.437-1.407.738-2.176.738-2.176z" fill="#fdb441"/><path d="m409.634 230.305c0 13.669-6.961 26.11-18.637 33.288l-166.578 105.691 154.112 97.781c11.846-7.715 22.979-16.428 33.289-26.018v-200.866c0-5.297-.907-10.389-2.551-15.145.234 1.725.365 3.482.365 5.269z" fill="#ffc344"/><path d="m68.171 193.499h-40.442c-6.868 0-13.398 1.51-19.285 4.204-5.495 20.383-8.444 41.81-8.444 63.93 0 .763.022 1.521.029 2.282.384.255.761.518 1.154.76l66.988 42.503z" fill="#fe9738"/><path d="m336.173 70.983c-6.86-12.261-26.578-13.246-31.2-13.305h-.949c-10.616 0-19.253-8.637-19.253-19.252l-.001-4.385c-.683-16.91-6.858-24.434-13.001-27.711-3.248-.634-6.572-.965-9.929-.965h-113.161c-1.501 1.736-4.094 5.366-4.183 9.832-.066 3.281 1.216 6.348 3.814 9.121v17.219c-.996 1.94-5.291 11.163-2.185 20.43 1.958 5.839 6.436 10.443 13.314 13.696-.186 5.609 2.695 15.325 15.217 18.205 11.683 2.688 19.692 41.624 22.049 57.957l-46.335 16.271c-2.846.466-41.507 7.597-41.507 48.083v116.816l66.129 41.958c13.089 8.305 29.795 8.305 42.884 0l119.209-75.636v-218.707c0-3.254-.316-6.474-.912-9.627z" fill="#f9f3f1"/><path d="m150.738 5.365h-74.246c-11.436 0-20.707 9.271-20.707 20.707v273.246l54.577 34.628s0-76.768 0-117.768 40.375-46.622 40.375-46.622l47.623-16.724s-7.748-56.833-23.369-60.427c-15.621-3.593-13.982-17.675-13.982-17.675-23.686-10.435-11.2-32.821-11.2-32.821v-18.197c-9.098-9.099.929-18.347.929-18.347z" fill="#f3eae6"/><path d="m283.316 34.101v4.326c0 11.436 9.271 20.707 20.707 20.707h.949c5.38.067 32.108 1.412 32.112 21.473-.001-13.75-5.463-26.936-15.186-36.659l-23.396-23.396c-9.724-9.724-22.912-15.186-36.663-15.186 18.251 0 21.115 19.776 21.477 28.735z" fill="#f3eae6"/><path d="m150.738 169.557h91.394c10.577-11.235 17.071-26.358 17.071-43.006 0-34.666-28.102-62.768-62.768-62.768-13.837 0-26.62 4.487-36.996 12.072-.117 5.635 2.831 15.165 15.216 18.014 11.683 2.688 19.692 41.624 22.049 57.957l-46.335 16.271c-.158.026-.444.076-.811.148.391.439.777.884 1.18 1.312z" fill="#3c58a0"/><path d="m198.361 152.833s-7.748-56.833-23.369-60.427c-15.537-3.574-13.999-17.519-13.983-17.669-16.507 11.308-27.342 30.292-27.342 51.812 0 16.649 6.494 31.772 17.071 43.006z" fill="#2a428c"/><g><path d="m149.81 41.911h-61.874c-5.025 0-9.099-4.074-9.099-9.099 0-5.026 4.074-9.099 9.099-9.099h61.874c5.025 0 9.099 4.074 9.099 9.099s-4.074 9.099-9.099 9.099z" fill="#fe76a8"/></g><path d="m210.56 133.811c-7.336 2.195-15.856 6.915-15.856 17.014v38.448c.577.016 1.15.046 1.731.046 18.018 0 34.25-7.603 45.697-19.762-2.371-17.247-15.051-31.315-31.572-35.746z" fill="#2ed1e2"/><path d="m259.783 473.432v-32.385c0-27.196 18.085-34.653 23.312-36.242l-65.219-41.38c-13.089-8.304-29.795-8.304-42.884 0l-66.67 42.301c-1.671 5.177-5.724 20.604-2.185 39.824 1.291 7.012 3.738 14.969 8.081 23.278 37.843 23.94 82.691 37.807 130.784 37.807 8.622 0 17.137-.456 25.529-1.326-6.8-8.925-10.748-20.063-10.748-31.877z" fill="#fed402"/><path d="m110.362 404.431-42.191 26.769c14.397 15.01 30.696 28.177 48.494 39.146-18.913-33.902-6.303-65.915-6.303-65.915z" fill="#ffc344"/><path d="m163.367 216.179c0-5.523 4.478-10 10-10h46.135c5.522 0 10 4.477 10 10s-4.478 10-10 10h-46.135c-5.522 0-10-4.477-10-10z" fill="#fea3c6"/><g fill="#efe2dd"><path d="m105.435 257.179c0-5.523 4.478-10 10-10h162c5.522 0 10 4.477 10 10s-4.478 10-10 10h-162c-5.523 0-10-4.477-10-10z"/><path d="m105.435 293.05c0-5.523 4.478-10 10-10h162c5.522 0 10 4.477 10 10s-4.478 10-10 10h-162c-5.523 0-10-4.477-10-10z"/><path d="m145.738 328.921c0-5.523 4.478-10 10-10h81.394c5.522 0 10 4.477 10 10s-4.478 10-10 10h-81.394c-5.523 0-10-4.477-10-10z"/></g><g><path d="m465.165 263.314c-23.784-13.611-31.903-42.576-32.943-46.657 1.802-3.045 10.824-20.063.602-39.865-7.232-14.01-.93-25.803 3.878-31.948-14.218-5.842-29.785-9.071-46.108-9.071-27.285 0-52.468 9.002-72.741 24.197-1.576 6.568-1.425 12.666.474 17.838 3.138 8.543 10.875 14.717 23.005 18.354l51.481 65.348.142.151c.42.381 41.894 38.52 42.082 82.885-.757 1.541-3.837 8.649-.721 16.777 1.001 2.61 2.537 5.032 4.578 7.267 39.809-17.281 68.527-55.272 72.594-100.376-17.698 4.217-33.253 2.579-46.323-4.9z" fill="#2a428c"/><path d="m435.548 144.373c-4.945 6.488-11.217 18.673-3.827 32.989 11.029 21.365-.828 39.088-.828 39.088s15.309 68.294 80.469 53.059c.409-4.056.638-8.165.638-12.328 0-51.17-31.657-94.941-76.452-112.808z" fill="#3c58a0"/><path d="m393.787 260.742-51.725-65.658c-25.324-7.428-25.954-24.296-22.632-36.269-30.44 22.06-50.243 57.897-50.243 98.364 0 67.051 54.356 121.406 121.406 121.406 17.633 0 34.385-3.763 49.504-10.524-10.461-11.081-3.821-23.218-3.821-23.218 0-45.557-42.489-84.101-42.489-84.101z" fill="#1c2e7a"/><g><path d="m344.91 344.845c-4.755 0-8.61-3.855-8.61-8.61 0-43.463 25.851-65.831 48.66-85.566 21.962-19.003 42.707-36.952 42.707-72.543 0-4.756 3.855-8.61 8.61-8.61s8.61 3.855 8.61 8.61c0 43.463-25.851 65.831-48.66 85.566-21.962 19.003-42.707 36.952-42.707 72.543.001 4.755-3.855 8.61-8.61 8.61z" fill="#fe76a8"/></g><g><path d="m433.891 201.55h-86.596c-4.755 0-8.61-3.855-8.61-8.611 0-4.755 3.855-8.61 8.61-8.61h86.596c4.755 0 8.611 3.855 8.611 8.61-.001 4.756-3.856 8.611-8.611 8.611z" fill="#fea3c6"/></g><g><path d="m433.891 330.029h-86.596c-4.755 0-8.61-3.855-8.61-8.61 0-4.756 3.855-8.61 8.61-8.61h86.596c4.755 0 8.611 3.855 8.611 8.61-.001 4.755-3.856 8.61-8.611 8.61z" fill="#4fabf7"/></g><g><path d="m420.442 297.909h-58.551c-4.755 0-8.611-3.855-8.611-8.61 0-4.756 3.855-8.611 8.611-8.611h58.551c4.755 0 8.61 3.855 8.61 8.611.001 4.756-3.855 8.61-8.61 8.61z" fill="#fea3c6"/></g><g><path d="m420.442 233.67h-58.551c-4.755 0-8.611-3.855-8.611-8.61s3.855-8.61 8.611-8.61h58.551c4.755 0 8.61 3.855 8.61 8.61.001 4.755-3.855 8.61-8.61 8.61z" fill="#4fabf7"/></g><g><path d="m436.276 344.845c-4.755 0-8.61-3.855-8.61-8.61 0-35.591-20.744-53.541-42.707-72.543-22.808-19.735-48.66-42.103-48.66-85.566 0-4.756 3.855-8.61 8.61-8.61s8.61 3.855 8.61 8.61c0 35.591 20.744 53.541 42.707 72.543 22.808 19.735 48.66 42.103 48.66 85.566.001 4.755-3.855 8.61-8.61 8.61z" fill="#2ed1e2"/></g></g><path d="m196.704 151.825c0-10.41 9.052-15.104 16.529-17.21-4.323-1.469-8.948-2.27-13.753-2.27h-6.091c-21.7 0-39.773 16.27-42.652 37.211 11.447 12.159 27.68 19.762 45.697 19.762.09 0 .179-.007.269-.007.001-9.431.001-25.625.001-37.486z" fill="#01c0fa"/><path d="m221.072 104.159c0 13.607-11.03 28.774-24.637 28.774s-24.637-15.167-24.637-28.774 11.03-24.637 24.637-24.637c13.606 0 24.637 11.03 24.637 24.637z" fill="#ffc7ab"/><path d="m282.505 404.431s-24.722 4.83-24.722 36.616v32.385c0 11.899 4.002 23.111 10.891 32.068 40.812-3.916 78.697-17.849 111.178-39.304z" fill="#fef056"/></g></svg>