<svg id="Capa_1" enable-background="new 0 0 512 512" height="512" viewBox="0 0 512 512" width="512" xmlns="http://www.w3.org/2000/svg"><g><path d="m512 256c0 141.385-114.615 256-256 256s-256-114.615-256-256 114.615-256 256-256 256 114.615 256 256z" fill="#1f3597"/><path d="m487.57 256c0 127.893-103.678 231.57-231.57 231.57s-231.57-103.677-231.57-231.57 103.677-231.57 231.57-231.57 231.57 103.677 231.57 231.57z" fill="#2740b1"/><path d="m453 256c0 9.286-.643 18.422-1.885 27.365-.904 6.502-13.358 4.926-14.88 11.209-11.75 48.499-41.448 89.986-81.665 117.034-4.738 3.187 1.612 14.15-3.406 16.924-28.211 15.593-60.651 24.468-95.164 24.468-6.784 0-13.487-.343-20.094-1.012-5.255-.532-14.633-11.455-19.757-12.392-5.271-.964-10.367-2.141-15.298-3.52-45.775-46.25-74.042-109.862-74.042-180.076 0-75.01 32.26-142.484 83.663-189.306 1.192-1.085 6.761-3.886 8.349-4.19 12.04-2.3 24.469-3.504 37.179-3.504 49.335 0 94.434 18.135 128.995 48.102 3.229 2.8-.822 8.812 2.218 11.813 20.912 20.646 37.443 43.737 47.489 72 1.596 4.49 10.006 8.146 11.278 12.779 4.576 16.657 7.02 34.196 7.02 52.306z" fill="#6c7fd9"/><path d="m131 256c0 70.883 28.749 135.052 75.223 181.482-56.861-13.874-92.323-53.904-117.734-106.652-2.38-4.941-14.631.566-16.6-4.593-8.328-21.818-12.889-45.495-12.889-70.237 0-26.891 5.388-52.523 15.143-75.876 1.85-4.428 13.299-.248 15.455-4.505 19.095-37.691 49.952-68.415 87.742-87.342 4.038-2.022-1.287-12.437 2.903-14.184 12.388-5.165 25.417-9.102 38.934-11.657-54.027 47.03-88.177 116.309-88.177 193.564z" fill="#4f66d1"/><path d="m315.353 202.039c-9.255-19.896 13.545-47.293 19.85-54.87 3.178-3.819 13.549-16.281 28.444-27.378 3.438-2.561 1.041-11.818 4.928-14.111 3.304-1.949 12.835 3.012 16.42 1.422 28.971 25.12 50.536 58.555 60.985 96.592-17.43-.483-19.783-14.522-37.668-17.519-33.541-5.62-57.753 38.311-81.567 27.593-7.507-3.378-10.713-10.269-11.392-11.729zm.938 33.307c-33.603 17.957-50.954 76.029-34.045 111.592 13.526 28.449 39.473 22.505 59.579 58.633 4.478 8.045 7.316 15.752 9.338 22.96 52.796-29.182 90.772-81.894 99.784-143.989-37.267-38.006-96.405-69.638-134.656-49.196zm-111.704-142.232c-2.81-2.238-5.849-4.658-9.088-7.212-4.698-3.705-82.903 43.257-102.879 91.078 8.639 3.82 17.44 9.583 26.223 20.68 15.188 19.189 21.748 92.214 10.121 97.006-.722.297-1.44.607-2.156.93-18.414 8.302 21.036 138.045 85.783 152.606 7.614 1.712 15.395 2.983 23.315 3.786-12.21-21.939-32.212-52.73-21.203-79.938 6.603-16.319 18.517-16.902 18.93-28.81.547-15.753-19.538-36.751-46.581-49.27-7.548-3.494-12.612-10.784-13.518-19.052-1.336-12.186-2.209-26.401 3.062-39.598 16.612-41.594 78.692-34.101 86.553-64.575 6.632-25.714-31.177-55.823-58.562-77.631z" fill="#00c53b"/><path d="m219.177 449.564c-67.748-12.81-123.231-60.307-147.287-123.328 7.127-13.46 18.679-28.042 37.093-36.344.716-.323 1.434-.632 2.156-.93 11.628-4.792 17.788-17.463 14.048-29.47-5.811-18.658-9.631-39.499-24.819-58.688-8.783-11.097-17.584-16.86-26.223-20.68 19.976-47.821 58.263-86.085 106.1-106.03 2.721 2.059 5.36 4.084 7.906 6.059 2.478 1.921 4.929 3.837 7.349 5.75 1.444 9.224 2.317 24.103-5.393 37.609-16.061 28.137-51.595 19.182-63.83 41.872-13.409 24.867 24.89 43.747 21.447 96-2.107 31.974-18.303 53.082-5.192 70.896 6.349 8.626 13.839 8.692 20.511 20.509 7.795 13.805 4.632 26.217 5.335 36.625 1.014 15.023 10.76 35.887 50.799 60.15z" fill="#00915d"/><path d="m213.666 229.06c0 4.143-3.357 7.5-7.5 7.5h-7.438v46.381c0 4.143-3.357 7.5-7.5 7.5s-7.5-3.357-7.5-7.5v-46.381h-7.318c-4.143 0-7.5-3.357-7.5-7.5s3.357-7.5 7.5-7.5h29.757c4.142 0 7.499 3.357 7.499 7.5zm62.943-7.5c-4.143 0-7.5 3.357-7.5 7.5v18.517h-22.287v-18.517c0-4.143-3.357-7.5-7.5-7.5s-7.5 3.357-7.5 7.5v53.881c0 4.143 3.357 7.5 7.5 7.5s7.5-3.357 7.5-7.5v-20.364h22.287v20.364c0 4.143 3.357 7.5 7.5 7.5s7.5-3.357 7.5-7.5v-53.881c0-4.143-3.357-7.5-7.5-7.5zm58.982 53.88h-14.996v-11.694h13.337c4.143 0 7.5-3.357 7.5-7.5s-3.357-7.5-7.5-7.5h-13.337v-11.695h14.996c4.143 0 7.5-3.357 7.5-7.5s-3.357-7.5-7.5-7.5h-22.496c-4.143 0-7.5 3.357-7.5 7.5v53.39c0 4.143 3.358 7.5 7.5 7.5h22.496c4.143 0 7.5-3.357 7.5-7.5s-3.358-7.501-7.5-7.501z" fill="#ffc143"/><path d="m233.36 100.994c-.026-.069-.054-.139-.082-.208-1.434-3.482-4.792-5.73-8.558-5.73h-.01c-3.769.003-7.127 2.26-8.556 5.747-.023.058-.046.115-.068.174l-29.08 76.354c-1.475 3.87.469 8.203 4.34 9.678 3.866 1.475 8.203-.468 9.678-4.34l5.403-14.186h36.371l5.346 14.165c1.133 3.003 3.987 4.854 7.018 4.854.88 0 1.775-.156 2.647-.485 3.875-1.462 5.831-5.789 4.368-9.665zm-21.22 52.489 12.555-32.967 12.442 32.967zm192.492 26.163c0 4.143-3.357 7.5-7.5 7.5h-32.335c-4.143 0-7.5-3.357-7.5-7.5v-76.738c0-4.143 3.357-7.5 7.5-7.5h32.335c4.143 0 7.5 3.357 7.5 7.5s-3.357 7.5-7.5 7.5h-24.835v23.369h22.45c4.143 0 7.5 3.357 7.5 7.5s-3.357 7.5-7.5 7.5h-22.45v23.369h24.835c4.142 0 7.5 3.358 7.5 7.5zm-232.334-15.112c-2.338 13.093-15.425 22.966-30.441 22.966-12.466 0-24.633-5.212-32.545-13.942-2.782-3.069-2.549-7.813.52-10.594 3.069-2.782 7.813-2.55 10.594.52 5.117 5.646 13.129 9.017 21.432 9.017 8.627 0 14.745-5.391 15.675-10.603.928-5.195-3.28-9.924-11.546-12.974-11.943-4.405-22.545-9.124-22.99-9.322-.361-.161-.709-.351-1.04-.566-7.447-4.855-11.284-13.373-10.013-22.229 1.363-9.496 8.341-17.242 18.211-20.216 20.041-6.033 36.579 7.602 37.273 8.186 3.171 2.665 3.58 7.396.915 10.567-2.658 3.162-7.367 3.578-10.539.938-.267-.216-11.232-8.972-23.323-5.328-4.282 1.29-7.157 4.274-7.689 7.983-.414 2.887.679 5.557 2.938 7.24 2.423 1.063 11.583 5.035 21.449 8.675 18.274 6.741 22.892 19.752 21.119 29.682zm165.046-59.472-25.286 76.117c-1.281 3.773-4.774 6.294-8.708 6.321h-.064c-3.907 0-7.404-2.466-8.714-6.152l-26.496-76.334c-1.358-3.913.713-8.186 4.626-9.544 3.911-1.362 8.187.712 9.544 4.626l20.921 60.271 19.943-60.033c1.306-3.932 5.554-6.06 9.481-4.753 3.93 1.305 6.059 5.55 4.753 9.481zm-247.49 235.7v23.369h22.45c4.143 0 7.5 3.357 7.5 7.5s-3.357 7.5-7.5 7.5h-22.45v23.369h24.834c4.143 0 7.5 3.357 7.5 7.5s-3.357 7.5-7.5 7.5h-32.334c-4.143 0-7.5-3.357-7.5-7.5v-76.738c0-4.143 3.357-7.5 7.5-7.5h32.334c4.143 0 7.5 3.357 7.5 7.5s-3.357 7.5-7.5 7.5zm120.753 66.59c1.463 3.876-.493 8.203-4.368 9.665-.872.329-1.768.485-2.647.485-3.03 0-5.885-1.851-7.018-4.854l-5.346-14.165h-36.371l-5.403 14.186c-1.475 3.872-5.812 5.814-9.678 4.34-3.871-1.475-5.814-5.808-4.34-9.678l29.08-76.354c.022-.059.045-.116.068-.174 1.429-3.488 4.788-5.745 8.559-5.747h.007c3.768 0 7.127 2.25 8.56 5.734.027.068.055.136.08.204zm-25.039-23.869-12.442-32.967-12.555 32.967zm244.078-58.428c-4.143 0-7.5 3.357-7.5 7.5v29.895h-38.593v-29.895c0-4.143-3.357-7.5-7.5-7.5s-7.5 3.357-7.5 7.5v77.445c0 4.143 3.357 7.5 7.5 7.5s7.5-3.357 7.5-7.5v-32.551h38.593v32.551c0 4.143 3.357 7.5 7.5 7.5s7.5-3.357 7.5-7.5v-77.445c0-4.143-3.357-7.5-7.5-7.5zm-169.239 54.872 22.107 25.118c2.736 3.109 2.435 7.849-.675 10.585-1.425 1.254-3.192 1.87-4.952 1.87-2.08 0-4.15-.86-5.633-2.545l-28.741-32.656v27.701c0 4.143-3.357 7.5-7.5 7.5s-7.5-3.357-7.5-7.5v-77.445c0-4.143 3.357-7.5 7.5-7.5h20.605c15.861 0 28.766 12.394 28.766 27.627.001 13.668-10.386 25.048-23.977 27.245zm8.978-27.245c0-6.845-6.304-12.627-13.766-12.627h-13.057c.013 4.649.027 10.181.027 12.627 0 2.902.025 8.226.049 12.676 4.53-.023 9.988-.048 12.98-.048 7.463 0 13.767-5.784 13.767-12.628zm78.768-27.627h-42.77c-4.143 0-7.5 3.357-7.5 7.5s3.357 7.5 7.5 7.5h13.799v69.945c0 4.143 3.357 7.5 7.5 7.5s7.5-3.357 7.5-7.5v-69.945h13.971c4.143 0 7.5-3.357 7.5-7.5s-3.357-7.5-7.5-7.5z" fill="#e5f2fd"/><path d="m213.663 229.289c-.123 4.105-3.704 7.271-7.811 7.271h-7.125v24.782c0 4.142-3.358 7.5-7.5 7.5s-7.5-3.358-7.5-7.5v-24.782h-7.318c-4.219 0-7.624-3.482-7.497-7.73.123-4.105 3.704-7.27 7.811-7.27h29.443c4.219 0 7.624 3.482 7.497 7.729zm120.269 19.457h-13.337v-11.695h14.996c4.219 0 7.624-3.482 7.497-7.73-.123-4.105-3.704-7.27-7.811-7.27h-22.182c-4.142 0-7.5 3.358-7.5 7.5v35.281c0 4.142 3.358 7.5 7.5 7.5 4.142 0 7.5-3.358 7.5-7.5v-1.085h13.023c4.107 0 7.688-3.165 7.811-7.271.126-4.247-3.278-7.73-7.497-7.73zm-57.093-27.183c-4.247-.127-7.73 3.278-7.73 7.497v18.517h-22.287v-18.203c0-4.107-3.165-7.688-7.27-7.811-4.247-.127-7.73 3.278-7.73 7.497v35.772c0 4.142 3.358 7.5 7.5 7.5s7.5-3.358 7.5-7.5v-2.255h22.287v2.255c0 4.142 3.358 7.5 7.5 7.5s7.5-3.358 7.5-7.5v-35.458c0-4.107-3.165-7.688-7.27-7.811z" fill="#ffcd6b"/><path d="m248.691 141.618c1.851 4.905-1.774 10.148-7.017 10.148-3.12 0-5.915-1.932-7.017-4.852l-9.962-26.398-10.062 26.419c-1.108 2.908-3.896 4.83-7.009 4.83-5.253 0-8.878-5.26-7.009-10.169l15.471-40.621c.16-.417.319-.784.83-1.453 2.163-2.832 5.553-4.468 9.116-4.468 1.853 0 3.654.744 4.891 2.124 1.14 1.272 1.952 2.543 2.436 3.815zm83.9-46.038c-3.928-1.307-8.176.821-9.481 4.753l-13.81 41.569c-1.613 4.855 2.001 9.864 7.117 9.864 3.231 0 6.099-2.069 7.117-5.135l13.809-41.569c1.307-3.931-.822-8.176-4.752-9.482zm64.541-.172h-32.335c-4.142 0-7.5 3.358-7.5 7.5v48.847c0 4.142 3.358 7.5 7.5 7.5 4.142 0 7.5-3.358 7.5-7.5v-2.978h22.136c4.107 0 7.688-3.165 7.811-7.27.127-4.247-3.278-7.73-7.497-7.73h-22.45v-23.369h24.521c4.107 0 7.688-3.165 7.811-7.27.126-4.248-3.278-7.73-7.497-7.73zm-114.887 4.688c-1.357-3.914-5.633-5.988-9.544-4.626-3.913 1.358-5.984 5.631-4.626 9.544l14.478 41.712c1.047 3.017 3.891 5.04 7.085 5.04 5.158 0 8.776-5.086 7.085-9.959zm-131.068 34.756c-9.866-3.64-19.026-7.611-21.449-8.675-2.259-1.684-3.352-4.354-2.938-7.24.532-3.709 3.407-6.693 7.689-7.983 12.091-3.644 23.057 5.112 23.323 5.328 3.172 2.64 7.881 2.224 10.539-.938 2.665-3.171 2.256-7.902-.915-10.567-.694-.584-17.232-14.219-37.273-8.186-9.87 2.974-16.848 10.72-18.211 20.216-1.271 8.856 2.565 17.374 10.013 22.229.331.216.679.405 1.04.566.445.198 11.047 4.917 22.99 9.322 1.546.571 2.95 1.2 4.206 1.88 1.131.613 2.383.962 3.67.962 7.707 0 10.447-10.31 3.696-14.028-1.912-1.052-4.034-2.021-6.38-2.886zm196.976 190.203h-42.456c-4.107 0-7.688 3.165-7.811 7.27-.127 4.247 3.278 7.73 7.497 7.73h13.799v42.445c0 4.142 3.358 7.5 7.5 7.5 4.142 0 7.5-3.358 7.5-7.5v-42.445h13.657c4.107 0 7.688-3.165 7.811-7.27.127-4.248-3.278-7.73-7.497-7.73zm-233.465.707h-32.334c-4.142 0-7.5 3.358-7.5 7.5v49.238c0 4.142 3.358 7.5 7.5 7.5 4.142 0 7.5-3.358 7.5-7.5v-3.369h22.136c4.107 0 7.688-3.165 7.811-7.27.127-4.247-3.278-7.73-7.497-7.73h-22.45v-23.369h24.52c4.107 0 7.688-3.165 7.811-7.27.126-4.248-3.279-7.73-7.497-7.73zm48.846 49.939 9.592-25.185 9.497 25.163c1.102 2.919 3.896 4.852 7.017 4.852 5.243 0 8.868-5.242 7.017-10.148l-14.865-39.39c-.068-.183-.15-.36-.209-.567-.876-3.098-3.497-5.372-6.716-5.372h-.402c-3.563 0-6.954 1.636-9.116 4.468-.511.669-.67 1.036-.83 1.453l-15.001 39.386c-1.87 4.909 1.756 10.169 7.009 10.169 3.111.002 5.9-1.92 7.007-4.829zm265.883-50.643c-4.105.123-7.27 3.704-7.27 7.811v29.581h-38.593v-29.581c0-4.107-3.165-7.688-7.27-7.811-4.247-.127-7.73 3.278-7.73 7.497v49.945c0 4.142 3.358 7.5 7.5 7.5 4.142 0 7.5-3.358 7.5-7.5v-5.051h38.593v5.051c0 4.142 3.358 7.5 7.5 7.5 4.142 0 7.5-3.358 7.5-7.5v-49.945c-.001-4.219-3.483-7.624-7.73-7.497zm-145.032 27.624c0 13.668-10.387 25.049-23.978 27.245 3.449 3.918.666 10.073-4.553 10.073h-3.821c-1.743 0-3.402-.75-4.553-2.058l-4.966-5.642v1.635c0 3.35-2.716 6.066-6.066 6.066h-2.869c-3.35 0-6.066-2.716-6.066-6.066v-51.38c0-4.142 3.358-7.5 7.5-7.5h20.605c15.862 0 28.767 12.393 28.767 27.627zm-15 0c0-6.845-6.304-12.627-13.766-12.627h-13.057c.013 4.649.027 10.181.027 12.627 0 2.902.025 8.226.049 12.676 4.53-.023 9.988-.048 12.98-.048 7.463 0 13.767-5.784 13.767-12.628z" fill="#fff"/><path d="m472.269 277.17c0 12.683-4.387 22.964-17.07 22.964h-38.562c-12.682 0-22.963-10.281-22.963-22.963 0-12.13 9.406-22.063 21.322-22.905 0-.02 0-.039 0-.058 0-12.683 10.281-22.964 22.963-22.964h29.755c12.682 0-16.768 10.281-16.768 22.964v.058c11.917.84 21.323 10.774 21.323 22.904zm-14.004-79.011c-3.122 6.978-10.125 11.841-18.265 11.841-11.046 0-20-8.954-20-20 0-8.14 4.862-15.144 11.841-18.265.351-.157 26.581 26.073 26.424 26.424z" fill="#49b6fc"/><path d="m512 151.766c0 8.284-6.716 15-15 15s-15-6.716-15-15 6.716-15 15-15 15 6.716 15 15zm-21.322 102.499c0-.02 0-.039 0-.058 0-12.683-10.281-22.964-22.963-22.964h-.593c-12.682 0-22.963 10.281-22.963 22.964v.058c-11.917.841-21.322 10.774-21.322 22.905 0 12.682 10.281 22.963 22.963 22.963h43.236c12.682 0 22.963-10.281 22.963-22.963.001-12.13-9.405-22.064-21.321-22.905zm-50.678-84.265c-2.906 0-5.667.62-8.159 1.735-1.115 2.491-1.735 5.253-1.735 8.159 0 11.046 8.954 20 20 20 2.906 0 5.667-.62 8.159-1.735 1.115-2.492 1.735-5.253 1.735-8.159 0-11.046-8.954-20-20-20z" fill="#93d0fd"/><path d="m87.389 69.21c-3.099-16.23 3.368-33.501 17.856-43.462s32.929-9.817 46.974-1.112c3.099 16.23-50.786 53.279-64.83 44.574z" fill="#00a86d"/><path d="m87.389 69.21c-3.099-16.23 50.786-53.279 64.83-44.574 3.099 16.23-3.368 33.501-17.856 43.462-14.489 9.961-32.93 9.817-46.974 1.112z" fill="#4bcd5c"/><path d="m75.452 272.876c-16.23 3.099-33.501-3.368-43.462-17.856s-9.817-32.929-1.112-46.974c16.231-3.1 53.279 50.785 44.574 64.83z" fill="#00915d"/><path d="m75.452 272.876c-16.23 3.099-53.279-50.786-44.574-64.83 16.23-3.099 33.501 3.368 43.462 17.856 9.962 14.488 9.817 32.929 1.112 46.974z" fill="#00c53b"/><path d="m401.863 511.24c-16.23 3.099-33.501-3.368-43.462-17.856s-9.817-32.93-1.112-46.974c16.23-3.099 53.278 50.786 44.574 64.83z" fill="#00915d"/><path d="m401.863 511.24c-16.23 3.099-53.279-50.786-44.574-64.83 16.23-3.099 33.501 3.368 43.462 17.856s9.816 32.93 1.112 46.974z" fill="#00a86d"/></g></svg>