<svg id="Capa_1" enable-background="new 0 0 512 512" height="512" viewBox="0 0 512 512" width="512" xmlns="http://www.w3.org/2000/svg"><g><path d="m487.37 146.33-205.615 34.235-257.125-34.235c41.07-86.51 129.24-146.33 231.37-146.33s190.3 59.82 231.37 146.33z" fill="#ffd15b"/><path d="m306.23 176.48-24.48 4.08-257.12-34.23c41.07-86.51 129.24-146.33 231.37-146.33 9.31 0 18.5.5 27.55 1.47-90.26 9.65-166.5 66.23-203.83 144.86z" fill="#ffc344"/><path d="m512 256c0 9.89-.56 19.65-1.65 29.25l-238.696 50.816-270.004-50.816c-1.09-9.6-1.65-19.36-1.65-29.25 0-39.25 8.83-76.43 24.63-109.67h462.74c15.8 33.24 24.63 70.42 24.63 109.67z" fill="#6fd7a3"/><path d="m297.5 330.57-25.85 5.5-270-50.82c-1.09-9.6-1.65-19.36-1.65-29.25 0-39.25 8.83-76.43 24.63-109.67h55.09c-15.8 33.24-24.63 70.42-24.63 109.67 0 9.89.56 19.65 1.65 29.25z" fill="#3ec3a4"/><path d="m510.35 285.25c-14.52 127.61-122.86 226.75-254.35 226.75s-239.83-99.14-254.35-226.75z" fill="#fd4755"/><path d="m283.55 510.53c-9.05.97-18.24 1.47-27.55 1.47-131.49 0-239.83-99.14-254.35-226.75h55.09c13.49 118.58 108 212.58 226.81 225.28z" fill="#fb2b3a"/><g fill="#6fd7a3"><path d="m243.966 55.746c-.026-.069-.053-.138-.082-.206-1.394-3.387-4.66-5.574-8.322-5.574-.003 0-.006 0-.009 0-3.666.004-6.932 2.198-8.32 5.591-.023.057-.046.114-.068.171l-24.834 65.205c-1.474 3.871.468 8.204 4.339 9.678 3.873 1.474 8.204-.469 9.678-4.339l4.345-11.409h29.548l4.297 11.388c1.134 3.003 3.987 4.854 7.019 4.854.879 0 1.775-.156 2.646-.485 3.875-1.462 5.832-5.79 4.369-9.665zm-17.558 44.116 9.129-23.969 9.045 23.969z"/><path d="m370.939 116.102h-20.113v-17.767h18.077c4.142 0 7.5-3.358 7.5-7.5s-3.358-7.5-7.5-7.5h-18.077v-17.766h20.113c4.142 0 7.5-3.358 7.5-7.5s-3.358-7.5-7.5-7.5h-27.613c-4.142 0-7.5 3.358-7.5 7.5v65.533c0 4.142 3.358 7.5 7.5 7.5h27.613c4.142 0 7.5-3.358 7.5-7.5s-3.358-7.5-7.5-7.5z"/><path d="m172.447 84.018c-8.252-3.044-15.925-6.362-18.142-7.333-2.19-1.691-2.121-4.085-1.979-5.075.188-1.313 1.131-4.519 5.798-5.925 9.716-2.926 18.646 4.138 18.907 4.348 3.171 2.634 7.878 2.216 10.534-.943 2.665-3.171 2.255-7.902-.916-10.567-.611-.514-15.176-12.526-32.852-7.2-8.841 2.664-15.094 9.621-16.319 18.156-1.147 7.99 2.315 15.675 9.037 20.057.331.216.679.406 1.04.567.382.17 9.467 4.214 19.7 7.989 3.081 1.136 10.141 4.372 9.161 9.858-.715 4.007-5.515 8.152-12.308 8.152-6.787 0-13.325-2.744-17.49-7.34-2.78-3.069-7.523-3.303-10.594-.521-3.069 2.781-3.302 7.525-.521 10.594 6.961 7.681 17.654 12.267 28.604 12.267 13.565 0 24.952-8.628 27.075-20.515 1.593-8.916-2.493-20.578-18.735-26.569z"/><path d="m322.747 50.469c-3.932-1.307-8.176.822-9.482 4.753l-16.015 48.208-16.808-48.424c-1.358-3.913-5.633-5.984-9.545-4.626-3.913 1.358-5.984 5.631-4.626 9.545l22.63 65.194c1.273 3.585 4.673 5.983 8.474 5.983h.062c3.825-.026 7.222-2.477 8.47-6.147l21.593-65.004c1.306-3.931-.822-8.176-4.753-9.482z"/></g><g fill="#fd4755"><path d="m281.755 180.565c-4.142 0-7.5 3.358-7.5 7.5v24.434h-30.767v-24.434c0-4.142-3.358-7.5-7.5-7.5s-7.5 3.358-7.5 7.5v66.137c0 4.142 3.358 7.5 7.5 7.5s7.5-3.358 7.5-7.5v-26.703h30.767v26.703c0 4.142 3.358 7.5 7.5 7.5s7.5-3.358 7.5-7.5v-66.137c0-4.142-3.358-7.5-7.5-7.5z"/><path d="m339.794 246.701h-20.113v-17.766h18.077c4.142 0 7.5-3.358 7.5-7.5s-3.358-7.5-7.5-7.5h-18.077v-17.766h20.113c4.142 0 7.5-3.358 7.5-7.5s-3.358-7.5-7.5-7.5h-27.613c-4.142 0-7.5 3.358-7.5 7.5v65.533c0 4.142 3.358 7.5 7.5 7.5h27.613c4.142 0 7.5-3.358 7.5-7.5s-3.358-7.501-7.5-7.501z"/><path d="m208.73 180.565h-36.524c-4.142 0-7.5 3.358-7.5 7.5s3.358 7.5 7.5 7.5h10.688v58.637c0 4.142 3.358 7.5 7.5 7.5s7.5-3.358 7.5-7.5v-58.637h10.836c4.142 0 7.5-3.358 7.5-7.5s-3.357-7.5-7.5-7.5z"/></g><g fill="#ffd15b"><path d="m453.148 335.166c-8.252-3.044-15.925-6.362-18.142-7.333-2.19-1.691-2.121-4.085-1.979-5.075.188-1.313 1.13-4.518 5.798-5.925 9.731-2.931 18.673 4.159 18.908 4.349 3.169 2.634 7.876 2.215 10.532-.944 2.665-3.171 2.255-7.902-.916-10.567-.611-.514-15.175-12.525-32.851-7.2-8.841 2.663-15.095 9.62-16.32 18.156-1.147 7.99 2.316 15.676 9.037 20.057.331.216.679.406 1.04.567.382.17 9.467 4.214 19.701 7.989 3.081 1.136 10.14 4.372 9.161 9.858-.715 4.007-5.515 8.152-12.308 8.152-6.787 0-13.325-2.744-17.49-7.34-2.781-3.069-7.524-3.303-10.594-.521-3.069 2.781-3.303 7.524-.521 10.594 6.961 7.681 17.655 12.267 28.605 12.267 13.565 0 24.952-8.628 27.075-20.516 1.592-8.915-2.494-20.577-18.736-26.568z"/><path d="m81.915 306.894c-.026-.068-.053-.136-.081-.204-1.394-3.388-4.659-5.576-8.322-5.576-.003 0-.006 0-.009 0-3.667.003-6.933 2.199-8.32 5.593-.023.056-.045.113-.067.169l-24.835 65.204c-1.474 3.871.468 8.204 4.339 9.678 3.869 1.474 8.204-.469 9.678-4.339l4.345-11.409h29.548l4.297 11.388c1.134 3.003 3.987 4.854 7.019 4.854.88 0 1.775-.156 2.646-.485 3.875-1.462 5.832-5.79 4.369-9.665zm-17.558 44.116 9.129-23.968 9.045 23.968z"/><path d="m342.191 306.894c-.026-.068-.053-.136-.081-.204-1.394-3.388-4.659-5.576-8.322-5.576-.003 0-.006 0-.009 0-3.667.003-6.933 2.199-8.32 5.593-.023.056-.045.113-.067.169l-24.834 65.205c-1.474 3.871.468 8.204 4.339 9.678 3.87 1.474 8.204-.469 9.678-4.339l4.345-11.409h29.548l4.297 11.388c1.134 3.003 3.987 4.854 7.019 4.854.88 0 1.775-.156 2.646-.485 3.875-1.462 5.832-5.79 4.369-9.665zm-17.558 44.116 9.129-23.968 9.045 23.968z"/><path d="m165.007 301.113c-.024 0-.049 0-.074 0-4.142.04-7.467 3.43-7.427 7.572l.414 42.808-32.47-47.019c-1.865-2.701-5.271-3.874-8.403-2.898-3.134.977-5.268 3.878-5.268 7.16v66.013c0 4.142 3.358 7.5 7.5 7.5s7.5-3.358 7.5-7.5v-41.954l30.965 44.839c2.234 3.228 5.95 4.603 9.464 3.506 3.593-1.123 5.916-4.506 5.915-8.692l-.618-63.908c-.039-4.117-3.389-7.427-7.498-7.427z"/><path d="m403.882 367.194c-5.411.03-11.224.052-15.617.055v-58.636c0-4.142-3.358-7.5-7.5-7.5s-7.5 3.358-7.5 7.5v66.081c0 3.653 2.632 6.775 6.232 7.392.54.093.978.168 8.244.168 3.531 0 8.674-.018 16.225-.06 4.142-.023 7.481-3.4 7.458-7.542s-3.368-7.475-7.542-7.458z"/><path d="m191.246 301.113c-4.142 0-7.5 3.358-7.5 7.5v66.136c0 4.142 3.358 7.5 7.5 7.5s7.5-3.358 7.5-7.5v-66.136c0-4.142-3.358-7.5-7.5-7.5z"/><path d="m281.621 308.314c-.814-4-4.229-6.955-8.305-7.186-4.071-.229-7.803 2.32-9.063 6.203-.028.086-.055.173-.08.26l-12.572 44.101-13.034-44.178c-.026-.089-.054-.178-.084-.267-1.301-3.871-5.063-6.385-9.129-6.109-4.074.274-7.458 3.265-8.245 7.359l-11.625 64.405c-.736 4.076 1.973 7.977 6.049 8.713 4.075.737 7.978-1.972 8.713-6.049l7.12-39.449 11.724 39.738c.026.089.054.178.083.266 1.233 3.672 4.656 6.13 8.525 6.13h.047c3.889-.02 7.308-2.519 8.508-6.218.028-.086.054-.172.079-.258l11.319-39.707 7.563 39.575c.777 4.068 4.707 6.737 8.774 5.959 4.069-.778 6.736-4.706 5.959-8.775z"/></g><g><path d="m279.149 445.842c-2.472-10.5-11.894-18.319-23.149-18.319-11.255 0-20.677 7.819-23.149 18.319-10.5 2.472-18.319 11.894-18.319 23.149 0 13.138 10.65 23.788 23.788 23.788h35.361c13.138 0 23.788-10.65 23.788-23.788-.001-11.255-7.82-20.677-18.32-23.149z" fill="#f9f7f8"/><path d="m262.867 428.528c-2.951.887-5.661 2.333-8.002 4.215-4.072 3.268-7.048 7.848-8.284 13.101-10.498 2.468-18.318 11.893-18.318 23.147 0 6.568 2.662 12.515 6.968 16.821 4.302 4.306 10.249 6.968 16.821 6.968h-13.735c-6.568 0-12.515-2.662-16.821-6.968-4.302-4.306-6.964-10.253-6.964-16.821 0-11.255 7.816-20.679 18.318-23.147 1.236-5.253 4.207-9.833 8.28-13.101 4.072-3.268 9.238-5.221 14.868-5.221 2.388 0 4.694.352 6.869 1.006z" fill="#dedbee"/><g fill="#f9f7f8"><g><path d="m212.61 439.417c-5.326 0-9.644-4.318-9.644-9.644v-7.715c0-5.326 4.318-9.644 9.644-9.644 5.326 0 9.644 4.318 9.644 9.644v7.715c0 5.326-4.318 9.644-9.644 9.644z"/><path d="m240.563 420.855c-5.326 0-9.644-4.318-9.644-9.644v-7.715c0-5.326 4.318-9.644 9.644-9.644 5.326 0 9.644 4.318 9.644 9.644v7.715c0 5.326-4.318 9.644-9.644 9.644z"/></g><g><path d="m299.39 439.417c5.326 0 9.644-4.318 9.644-9.644v-7.715c0-5.326-4.318-9.644-9.644-9.644-5.326 0-9.644 4.318-9.644 9.644v7.715c0 5.326 4.318 9.644 9.644 9.644z"/><path d="m271.437 420.855c5.326 0 9.644-4.318 9.644-9.644v-7.715c0-5.326-4.318-9.644-9.644-9.644-5.326 0-9.644 4.318-9.644 9.644v7.715c0 5.326 4.318 9.644 9.644 9.644z"/></g></g><g fill="#dedbee"><g><path d="m216.103 438.764c-1.081.424-2.258.654-3.49.654-5.328 0-9.646-4.318-9.646-9.646v-7.713c0-5.328 4.318-9.646 9.646-9.646 1.232 0 2.409.23 3.49.654-3.601 1.398-6.152 4.896-6.152 8.993v7.713c0 4.094 2.551 7.593 6.152 8.991z"/><path d="m244.056 420.2c-1.082.424-2.262.654-3.494.654-5.324 0-9.642-4.318-9.642-9.642v-7.717c0-5.324 4.318-9.642 9.642-9.642 1.232 0 2.413.23 3.494.654-3.601 1.394-6.152 4.896-6.152 8.989v7.717c-.001 4.091 2.55 7.593 6.152 8.987z"/></g><g><path d="m302.881 438.764c-1.082.424-2.258.654-3.49.654-5.324 0-9.642-4.318-9.642-9.646v-7.713c0-2.662 1.081-5.075 2.825-6.822 1.743-1.743 4.156-2.825 6.818-2.825 1.232 0 2.409.23 3.49.654-1.26.487-2.393 1.236-3.328 2.171-1.743 1.747-2.825 4.16-2.825 6.822v7.713c-.001 4.095 2.551 7.594 6.152 8.992z"/><path d="m274.928 420.2c-1.082.424-2.258.654-3.49.654-5.324 0-9.642-4.318-9.642-9.642v-7.717c0-2.662 1.082-5.071 2.825-6.818s4.156-2.825 6.818-2.825c1.232 0 2.409.23 3.49.654-1.26.487-2.393 1.232-3.328 2.171-1.743 1.747-2.825 4.156-2.825 6.818v7.717c0 4.092 2.551 7.59 6.152 8.988z"/></g></g></g></g></svg>