<svg id="Capa_1" enable-background="new 0 0 512 512" height="512" viewBox="0 0 512 512" width="512" xmlns="http://www.w3.org/2000/svg"><g><path d="m256 10.998c-135.311 0-245.002 109.691-245.002 245.002 0 101.388 61.587 188.389 149.39 225.641h191.225c87.803-37.253 149.389-124.253 149.389-225.641 0-135.311-109.691-245.002-245.002-245.002z" fill="#27a6ff"/><g><path d="m510.906 77.317c-7.199 7.198-14.648 10.279-22.138 9.151-7.786-1.17-14.214-6.875-16.775-14.887-3.864-12.096-12.904-17.591-16.072-19.191-.01-.098-.024-.2-.042-.305-.64-3.524-6.678-8.507-17.95-14.811-5.514-3.083-8.65-6.831-9.321-11.138-1.002-6.43 3.732-12.44 4.888-13.795l3.714-1.2c-1.521-.087-3.051-.143-4.594-.143-33.834 0-62.774 21.283-74.181 51.158 1.02 3.376 2.898 7.196 6.354 10.133 5.123 4.354 12.402 5.667 21.635 3.911 4.913-.937 8.367-.604 10.559 1.015 3.348 2.473 3.98 8.176 4.712 14.779 1.13 10.194 2.536 22.879 14.473 31.592 19.717 14.391 34.022 18.225 39.105 19.196-.999 2.967-2.316 8.947.437 14.984 1.162 2.547 2.917 4.799 5.234 6.758 29.821-11.434 51.056-40.347 51.056-74.141 0-4.452-.387-8.812-1.094-13.066z" fill="#fef156"/><path d="m457.422 141.549s-16.062-1.494-40.341-19.215-2.918-52.993-30.946-47.656c-19.575 3.727-25.145-7.732-26.727-14.986-3.975 9.447-6.177 19.816-6.177 30.691 0 43.773 35.612 79.385 79.385 79.385 10.61 0 20.733-2.108 29.993-5.902-11.653-9.128-5.187-22.317-5.187-22.317z" fill="#ffd301"/><path d="m437.173 38.626c20.015 11.192 17.062 14.684 17.062 14.684s11.825 4.788 16.283 18.741c2.637 8.253 9.452 14.66 18.02 15.948 6.397.961 14.212-.742 22.657-8.817-5.461-38.486-38.609-68.184-78.579-68.184 0 0-15.458 16.436 4.557 27.628z" fill="#fffbb3"/><g><path d="m445.813 142.854c-28.933 0-52.471-23.538-52.471-52.471s23.538-52.472 52.471-52.472c3.877 0 7.783.438 11.61 1.304 3.892.88 6.334 4.749 5.454 8.641s-4.747 6.339-8.642 5.454c-2.782-.629-5.616-.947-8.422-.947-20.964 0-38.02 17.055-38.02 38.02 0 20.964 17.055 38.019 38.02 38.019 2.806 0 5.64-.318 8.422-.948 3.894-.886 7.761 1.562 8.642 5.454.88 3.892-1.562 7.761-5.454 8.641-3.827.866-7.733 1.305-11.61 1.305z" fill="#ff953a"/></g><g><path d="m445.813 85.638h-57.463c-3.991 0-7.226-3.235-7.226-7.226s3.235-7.226 7.226-7.226h57.463c3.991 0 7.226 3.235 7.226 7.226s-3.236 7.226-7.226 7.226z" fill="#fea53d"/></g><g><path d="m445.813 109.578h-57.463c-3.991 0-7.226-3.235-7.226-7.226s3.235-7.226 7.226-7.226h57.463c3.991 0 7.226 3.235 7.226 7.226-.001 3.992-3.236 7.226-7.226 7.226z" fill="#fea53d"/></g></g><g><path d="m42.963 75.772c1.718-.001 3.529-.119 5.429-.37l30.195 16.45.202.093c.066.025 6.636 2.575 13.166 7.973 8.644 7.146 13.027 15.593 13.027 25.108 0 13.894 5.657 20.307 10.403 23.24 4.249 2.626 9.557 3.53 15.177 2.738 17.236-14.574 28.209-36.335 28.209-60.62 0-12.191-2.769-23.745-7.7-34.077-.144.147-.279.293-.425.44-8.478 8.477-16.869 12.388-24.92 11.619-11.362-1.082-18.388-11.269-18.457-11.37l-.352-.522-.609-.161c-23.853-6.299-25.205-27.293-25.251-28.181l-.041-.845-.705-.468c-2.639-1.753-4.053-3.756-4.204-5.953-.256-3.729 3.011-7.268 4.063-8.305l6.753-1.193c-2.482-.235-4.995-.367-7.538-.367-28.765 0-54.003 15.379-67.93 38.346 1.656 6.042 8.918 26.427 31.508 26.425z" fill="#fef156"/><path d="m106.655 125.026c0-24.202-27.268-34.643-27.268-34.643l-30.679-16.714c-30.022 4.343-35.895-25.676-36.009-26.274-8.021 12.4-12.699 27.154-12.699 42.988 0 43.773 35.612 79.385 79.385 79.385 20.669 0 39.513-7.947 53.653-20.937-13.449 3.231-26.383-3.301-26.383-23.805z" fill="#ffd301"/><path d="m79.385 28.211s1.102 23.012 26.495 29.718c0 0 18.484 27.446 45.932.015-12.429-27.641-40.207-46.947-72.427-46.947 0 .001-11.173 9.792 0 17.214z" fill="#fffbb3"/><g><path d="m79.562 140.589c-9.713 0-15.439-1.076-24.407-6.943-3.609-2.361-4.621-7.201-2.26-10.809 2.361-3.611 7.201-4.62 10.809-2.26 6.187 4.048 8.702 4.443 16.724 4.392 8.748-.058 13.486-6.607 14.186-12.669.345-2.988.144-10.178-9.149-12.42l-15.816-3.814c-16.4-3.955-22.367-17.62-21.005-29.409 1.51-13.07 12.162-26.362 29.599-26.478 10.292-.07 16.114.881 25.378 6.94 3.609 2.361 4.621 7.2 2.26 10.809-2.362 3.609-7.202 4.621-10.809 2.26-6.188-4.048-8.707-4.445-16.724-4.392-8.752.058-13.491 6.6-14.19 12.653-.345 2.991-.145 10.192 9.153 12.435l15.816 3.814c16.396 3.954 22.362 17.612 21.002 29.393-1.511 13.078-12.162 26.378-29.596 26.494-.329.003-.653.004-.971.004z" fill="#ff953a"/></g><g><path d="m79.387 152.555c-4.313 0-7.808-3.496-7.808-7.808v-108.728c0-4.313 3.496-7.808 7.808-7.808 4.313 0 7.809 3.496 7.809 7.808v108.727c0 4.313-3.496 7.809-7.809 7.809z" fill="#fea53d"/></g></g><path d="m256.001 375.12c-17.082 0-32.845-5.726-45.493-15.346l-50.12 121.867c29.378 12.464 61.689 19.361 95.612 19.361.518 0 1.032-.016 1.549-.02v-59.614c0-14.807 10.638-27.535 25.293-30.264 15.713-2.925 26.999-7.605 34.807-12.047l-16.156-39.284c-12.648 9.622-28.411 15.347-45.492 15.347z" fill="#fea53d"/><g><path d="m19.542 174.964c1.969 8.646 4.805 16.726 8.367 24.017 5.2 10.646 16.017 17.391 27.864 17.391h47.223c11.848 0 22.665-6.746 27.865-17.391 3.561-7.291 6.398-15.372 8.366-24.017z" fill="#6ad9fb"/></g><g><path d="m372.772 174.964c1.969 8.646 4.805 16.726 8.367 24.017 5.2 10.646 16.017 17.391 27.864 17.391h47.223c11.848 0 22.665-6.746 27.865-17.391 3.561-7.291 6.398-15.372 8.366-24.017z" fill="#6ad9fb"/></g><path d="m441.276 163.093c0-7.696 6.239-13.935 13.936-13.935h-84.25c-7.697 0-13.936 6.239-13.936 13.935 0 7.697 6.239 13.935 13.936 13.935h84.25c-7.697 0-13.936-6.238-13.936-13.935z" fill="#ade9f7"/><path d="m508.205 163.093c0-7.696-6.239-13.935-13.936-13.935h-41.057c-7.697 0-13.936 6.239-13.936 13.935 0 7.697 6.239 13.935 13.936 13.935h41.057c7.697 0 13.936-6.238 13.936-13.935z" fill="#d2f1f9"/><path d="m256.001 226.577c-.65 0-1.292.033-1.937.049-2.222 2.969-8.281 11.976-6.572 19.943.74 3.445 2.809 6.229 6.16 8.298-2.482 3.043-7.635 10.381-6.594 17.775.61 4.331 3.215 7.931 7.743 10.707l13.324 32.521c-.681 2.191-2.688 10.096 1.543 16.154 2.935 4.202 8.146 6.512 15.512 6.879-1.036 3.219-2.394 9.601.676 15.118 2.523 4.535 7.427 7.423 14.586 8.599 18.694-13.715 30.862-35.829 30.862-60.74 0-41.522-33.781-75.303-75.303-75.303z" fill="#ffd301"/><path d="m180.697 301.881c0 41.523 33.781 75.304 75.305 75.304 17.365 0 33.363-5.924 46.116-15.836-24.352-3.076-14.793-23.892-14.793-23.892-25.538 0-17.599-21.64-17.599-21.64l-13.724-33.497c-17.053-9.981 0-27.871 0-27.871-16.444-8.052 0-27.871 0-27.871-41.524-.001-75.305 33.78-75.305 75.303z" fill="#ffc242"/><path d="m379.538 270.437-.206-.384c-.268.458-.537.917-.794 1.384-5.614 10.183-16.325 16.509-27.954 16.509h-51.308c1.357 4.409 2.092 9.088 2.092 13.936s-.735 9.527-2.092 13.935h51.308c20.56 0 39.584-10.561 50.497-27.785-23.038 2.322-21.543-17.595-21.543-17.595z" fill="#fef156"/><path d="m430.899 268.383h28.66c7.697 0 13.935-6.239 13.935-13.935 0-7.697-6.239-13.936-13.935-13.936h-28.66c-21.78 0-41.844 11.85-52.361 30.925 0 0-1.511 20.133 21.92 17.555.877-1.327 1.711-2.691 2.488-4.099 5.614-10.183 16.325-16.51 27.953-16.51z" fill="#fffbb3"/><path d="m212.724 287.945h-51.308c-10.351 0-19.965-5.021-25.914-13.304-3.599-.438-12.367-.87-17.645 4.285-3.168 3.094-4.489 7.596-3.941 13.403 11.206 14.665 28.711 23.488 47.5 23.488h51.308c-1.357-4.409-2.092-9.087-2.092-13.935 0-4.849.735-9.528 2.092-13.937z" fill="#fef156"/><path d="m136.812 276.356.002-.011c-1.252-1.516-2.383-3.15-3.352-4.908-10.517-19.075-30.58-30.925-52.361-30.925h-28.66c-7.696 0-13.935 6.239-13.935 13.936s6.239 13.935 13.935 13.935h28.66c11.628 0 22.339 6.326 27.954 16.51 1.922 3.487 4.167 6.729 6.68 9.705-4.043-23.233 21.077-18.242 21.077-18.242z" fill="#ffd301"/><path d="m253.652 254.867c-2.482 3.043-7.635 10.381-6.594 17.775.61 4.331 3.215 7.931 7.743 10.707l13.324 32.521c-.681 2.191-2.688 10.096 1.543 16.154 2.935 4.202 8.146 6.512 15.512 6.879-.044.137-.089.288-.134.436 11.176-8.685 18.387-22.242 18.387-37.46 0-26.155-21.278-47.433-47.433-47.433-.952 0-1.895.036-2.833.092.164.11.316.225.485.329z" fill="#fef156"/><path d="m256.001 349.314c11.997 0 22.961-4.486 31.323-11.858-25.538 0-17.599-21.64-17.599-21.64l-13.724-33.497c-17.053-9.981 0-27.871 0-27.871-26.155 0-47.434 21.278-47.434 47.433s21.279 47.433 47.434 47.433z" fill="#ffd301"/><circle cx="256.001" cy="301.881" fill="#fffbb3" r="19.562"/><path d="m154.975 227.609c0-7.696-6.239-13.935-13.935-13.935h-52.082c-7.697 0-13.935 6.239-13.935 13.935 0 7.697 6.239 13.936 13.935 13.936h52.082c7.696-.001 13.935-6.239 13.935-13.936z" fill="#ffd301"/><path d="m508.205 227.609c0-7.696-6.239-13.935-13.935-13.935h-52.082c-7.697 0-13.935 6.239-13.935 13.935 0 7.697 6.239 13.936 13.935 13.936h52.082c7.696-.001 13.935-6.239 13.935-13.936z" fill="#fef156"/><path d="m256 441.37v59.633c33.923 0 66.235-6.897 95.613-19.362l-34.57-84.058c-7.687 4.405-18.866 9.092-34.484 12-15.359 2.86-26.559 16.164-26.559 31.787z" fill="#ffc242"/><path d="m430.316 227.609c0-7.696 6.239-13.935 13.936-13.935h-73.29c-7.697 0-13.936 6.239-13.936 13.935 0 7.697 6.239 13.936 13.936 13.936h73.29c-7.697-.001-13.936-6.239-13.936-13.936z" fill="#ffd301"/><path d="m77.087 227.609c0-7.696 6.239-13.935 13.936-13.935h-73.29c-7.696 0-13.936 6.239-13.936 13.935 0 7.697 6.239 13.936 13.936 13.936h73.29c-7.697-.001-13.936-6.239-13.936-13.936z" fill="#ffc242"/><g fill="#02c0fc"><path d="m196.535 18.281c-1.693 8.147-2.606 16.779-2.606 25.719 0 49.429 27.79 89.5 62.071 89.5s62.071-40.071 62.071-89.5c0-8.941-.913-17.573-2.606-25.719-19.04-4.748-38.955-7.283-59.465-7.283s-40.425 2.535-59.465 7.283z"/><path d="m494.639 311.699c-63.125 8.565-185.812 39.137-97.566 144.624 48.315-34.086 83.752-85.204 97.566-144.624z"/><path d="m17.361 311.699c63.125 8.565 185.812 39.137 97.566 144.624-48.315-34.086-83.752-85.204-97.566-144.624z"/></g><path d="m88.046 163.093c0-7.696 6.239-13.935 13.935-13.935h-84.25c-7.696 0-13.936 6.239-13.936 13.935 0 7.697 6.239 13.935 13.936 13.935h84.25c-7.696 0-13.935-6.238-13.935-13.935z" fill="#ade9f7"/><path d="m154.975 163.093c0-7.696-6.239-13.935-13.936-13.935h-41.057c-7.696 0-13.935 6.239-13.935 13.935 0 7.697 6.239 13.935 13.935 13.935h41.057c7.697 0 13.936-6.238 13.936-13.935z" fill="#d2f1f9"/></g></svg>