<svg id="Capa_1" enable-background="new 0 0 512 512" height="512" viewBox="0 0 512 512" width="512" xmlns="http://www.w3.org/2000/svg"><g><path d="m0 256c0-141.385 114.615-256 256-256s256 114.615 256 256c0 74.763-32.048 142.04-83.157 188.843-2.803 2.567-13.968 3.418-16.724 1.449-41.901-29.926-93.204-47.533-148.619-47.533-62.522 0-166.429 57.951-167.5 57.092-58.526-46.915-96-119.007-96-199.851z" fill="#ff2aaa"/><path d="m458.064 256c0 111.597-90.467 202.064-202.064 202.064s-202.064-90.467-202.064-202.064 90.467-202.064 202.064-202.064 202.064 90.467 202.064 202.064z" fill="#ff4fb8"/><path d="m488.892 307.129c-.752.733-1.095 1.788-.917 2.823l4.077 23.771c.447 2.605-2.288 4.592-4.627 3.362l-21.348-11.223c-.929-.489-2.039-.489-2.968 0l-7.03 3.696-2.102-19.606c.177-1.034-.166-2.09-.917-2.823l-17.271-16.835c-1.893-1.845-.848-5.06 1.767-5.44l23.868-3.468c1.039-.151 1.937-.803 2.401-1.745l8.357-12.046 5.945 12.046c.465.941 1.363 1.594 2.401 1.745l23.868 3.468c2.616.38 3.66 3.595 1.768 5.44zm-44.849-151.114-8.922 8.922c-1.172 1.172-3.071 1.172-4.243 0l-8.922-8.922c-1.172-1.172-1.172-3.071 0-4.243l8.922-8.922c1.172-1.172 3.071-1.172 4.243 0l8.922 8.922c1.171 1.172 1.171 3.071 0 4.243z" fill="#ff94d4"/><path d="m456.078 329.557-14.318 7.527c-2.34 1.23-5.074-.757-4.627-3.362l4.077-23.771c.177-1.034-.166-2.09-.917-2.823l-17.271-16.835c-1.893-1.845-.848-5.06 1.767-5.44l23.868-3.468c1.039-.151 1.937-.803 2.401-1.745l10.674-21.628c1.17-2.37 4.55-2.37 5.72 0l4.729 9.582-6.277 16.83c-.397 1.065-1.165 1.804-2.053 1.974l-11.805 5.409c-2.237.43-3.13 4.068-1.512 6.156l8.513 10.438c.643.829.936 2.024.784 3.194z" fill="#ff73c6"/><path d="m184.187 331.725c-31.193 7.059-54.485 34.947-54.485 68.275v75.09c0 1.615-1.756 2.635-3.149 1.817-10.706-6.287-20.915-13.33-30.553-21.056v-55.851c0-38.66 31.34-70 70-70h16.106s7.071.596 2.081 1.725z" fill="#6f3f8b"/><path d="m416 400v47.766c-18.702 14.992-39.553 27.413-62.017 36.727-2.829 1.173-5.684 10.383-8.563 11.456-27.837 10.378-57.966 16.051-89.42 16.051-29.796 0-58.404-5.091-85-14.449-1.035-.364-2.076-2.642-3.105-3.019-2.956-1.083-5.886-2.22-8.79-3.408-1.042-.426-2.07 1.048-3.105.608-10.368-4.404-20.386-9.471-30-15.15v-76.582c0-33.827 23.995-62.051 55.893-68.578 4.557-.932 10.7 9.025 15.533 9.025l121.074-1.688 18.105-8.759h9.395c38.66 0 70 31.34 70 70z" fill="#814ba3"/><path d="m336.605 330-60.705 90.05c-9.514 14.113-30.287 14.113-39.801 0l-60.704-90.05h18.105l13.125 6.038 98.546 1.863 13.329-7.901zm-173.105 78.665c-4.142 0-7.5 3.358-7.5 7.5v75.567c4.923 2.091 9.925 4.032 15 5.818v-81.386c0-4.141-3.358-7.499-7.5-7.499z" fill="#6f3f8b"/><path d="m265.787 407.688c-6.055 5.957-16.393 5.225-21.396-2.195l-50.891-75.493h19.574l50.891 75.493c.548.812 1.16 1.543 1.822 2.195z" fill="#d5f3f7"/><path d="m318.5 330-50.891 75.493c-.796 1.18-1.726 2.191-2.753 3.033-1.027-.842-1.958-1.853-2.753-3.033l-50.892-75.493z" fill="#fff5f5"/><path d="m429.639 328.759v40.644c0 10.068-3.781 19.253-10 26.213v52.15h-60v-52.15c-6.219-6.96-10-16.145-10-26.213v-60.644c0-5.523 4.477-10 10-10s10 4.477 10 10v17.453s.109.846.315.047c1.11-4.313 5.025-7.501 9.685-7.501 5.523 0 10 4.477 10 10 0-5.523 4.477-10 10-10 5.522 0 9.999 4.476 10 9.998.001-5.522 4.478-9.998 10-9.998 5.523.001 10 4.478 10 10.001z" fill="#fed2a4"/><path d="m369.639 353.759v-25.082c0-5.342 4.053-9.58 9.385-9.899 2.051-.123 3.979.374 5.615 1.32-2.989 1.729-5 4.96-5 8.662v25c0 2.761-2.239 5-5 5-2.761-.001-5-2.239-5-5.001zm29.386-34.981c-5.332.319-9.385 4.531-9.385 9.872v25.109c0 2.761 2.239 5 5 5s5-2.239 5-5v-25c0-3.701 2.011-6.933 5-8.662-1.636-.946-3.564-1.442-5.615-1.319zm20 0c-5.332.319-9.385 4.608-9.385 9.949v25.032c0 2.761 2.239 5 5 5s5-2.239 5-5v-25c0-3.701 2.011-6.933 5-8.662-1.636-.946-3.564-1.442-5.615-1.319zm-59.071 46.058c-.12 0-.239.005-.357.013v-56.089c0-3.71 2.021-6.948 5.021-8.674-1.466-.843-3.166-1.326-4.979-1.326-5.523 0-10 4.477-10 10v41.443c-3.425-2.071-7.911-1.956-11.275.632-4.377 3.368-5.196 9.646-1.829 14.023l6.552 8.517c.148.229.306.454.476.674l10.754 13.979c1.475 2.74 3.265 5.286 5.322 7.588v52.15h9.958v-52.15c-5.08-5.686-8.533-12.856-9.627-20.78 12.626.009 22.895 10.283 22.895 22.911 0 2.761 2.238 5 5 5s5-2.239 5-5c0-18.147-14.764-32.911-32.911-32.911z" fill="#ffbd86"/><path d="m380.404 361.128c-2.82 0-5.106-2.286-5.106-5.106v-2.213c0-2.82 2.286-5.106 5.106-5.106 2.82 0 5.106 2.286 5.106 5.106v2.213c.001 2.819-2.286 5.106-5.106 5.106zm25.022-5.107v-2.213c0-2.82-2.286-5.106-5.106-5.106-2.82 0-5.106 2.286-5.106 5.106v2.213c0 2.82 2.286 5.106 5.106 5.106 2.819.001 5.106-2.286 5.106-5.106zm19.213 0v-2.213c0-2.82-2.286-5.106-5.106-5.106-2.82 0-5.106 2.286-5.106 5.106v2.213c0 2.82 2.286 5.106 5.106 5.106 2.82.001 5.106-2.286 5.106-5.106z" fill="#ffe5c2"/><path d="m378.501 140.879v19.121c0 56.954-43.284 103.798-98.751 109.432-55.467-5.634-98.751-52.478-98.751-109.432v-19.121c0-56.954 43.284-103.798 98.751-109.432 55.467 5.634 98.751 52.478 98.751 109.432z" fill="#a44f3e"/><path d="m279.75 269.432c-3.698.376-7.451.568-11.249.568h-25.002c-60.751 0-110-49.249-110-110v-19.121c0-60.751 49.249-110 110-110h25.002c3.798 0 7.551.193 11.249.568-55.467 5.634-98.751 52.478-98.751 109.432v19.121c0 56.954 43.284 103.798 98.751 109.432z" fill="#883f2e"/><path d="m171 205v10c0 13.807-11.193 25-25 25s-25-11.193-25-25v-10c0-13.807 11.193-25 25-25s25 11.193 25 25z" fill="#fed2a4"/><path d="m136 200v20c0 8.178 3.927 15.439 9.998 20-13.806-.001-24.998-11.194-24.998-25v-10c0-13.806 11.192-24.999 24.998-25-6.071 4.561-9.998 11.822-9.998 20zm230-20v-20c0-60.751-49.249-110-110-110-60.751 0-110 49.249-110 110v40c0 50.351 33.83 92.801 80 105.859v24.141c0 16.569 13.431 30 30 30s30-13.431 30-30v-24.141c33.586-9.499 60.641-34.551 72.895-66.883 2.252.666 4.637 1.024 7.105 1.024 13.807 0 25-11.193 25-25v-10c0-13.807-11.193-25-25-25z" fill="#ffbd86"/><path d="m366 160v40c0 50.792-34.425 93.543-81.216 106.195-9.023 2.44-18.545 2.44-27.568 0-46.791-12.652-81.216-55.403-81.216-106.195v-40c0-55.663 41.345-101.669 95-108.985 53.655 7.316 95 53.322 95 108.985z" fill="#fed2a4"/><path d="m270.5 206.731c-3.875 3.875-9.024 6.009-14.5 6.009s-10.625-2.134-14.5-6.009c-2.929-2.93-2.929-7.678 0-10.607 2.929-2.928 7.678-2.928 10.606 0 1.042 1.042 2.424 1.616 3.893 1.616s2.851-.574 3.893-1.616c2.929-2.928 7.678-2.928 10.606 0 2.931 2.93 2.931 7.678.002 10.607z" fill="#f6a96c"/><path d="m223.5 167.5c0 8.284-6.716 15-15 15s-15-6.716-15-15 6.716-15 15-15 15 6.716 15 15zm80-15c-8.284 0-15 6.716-15 15s6.716 15 15 15 15-6.716 15-15-6.716-15-15-15z" fill="#55271a"/><path d="m226 160c0 4.142-3.358 7.5-7.5 7.5s-7.5-3.358-7.5-7.5 3.358-7.5 7.5-7.5 7.5 3.358 7.5 7.5zm87.5-7.5c-4.142 0-7.5 3.358-7.5 7.5s3.358 7.5 7.5 7.5 7.5-3.358 7.5-7.5-3.358-7.5-7.5-7.5z" fill="#fff5f5"/><path d="m256 270c-16.569 0-30-13.431-30-30 0-4.142 3.358-7.5 7.5-7.5h45c4.142 0 7.5 3.358 7.5 7.5 0 16.569-13.431 30-30 30z" fill="#fff5f5"/><path d="m263.5 269.055c-2.397.617-4.91.945-7.5.945-16.568 0-30-13.431-30-30 0-4.142 3.358-7.5 7.5-7.5h15c-4.142 0-7.5 3.358-7.5 7.5 0 13.979 9.561 25.724 22.5 29.055z" fill="#d5f3f7"/><path d="m208.457 290.294-17.271 16.835c-.752.733-1.095 1.788-.917 2.823l4.077 23.771c.447 2.605-2.288 4.592-4.627 3.362l-21.348-11.223c-.929-.489-2.039-.489-2.968 0l-11.557 6.076 3.771-21.986c.177-1.034-.166-2.09-.917-2.823l-17.271-16.835c-1.893-1.845-.848-5.06 1.767-5.44l23.868-3.468c1.039-.151 1.937-.803 2.401-1.745l6.478-13.125 6.478 13.125c.464.941 1.362 1.594 2.401 1.745l23.868 3.468c2.615.38 3.66 3.595 1.767 5.44zm-101.002-5.44-23.868-3.468c-1.039-.151-1.937-.803-2.401-1.745l-6.478-13.125-6.478 13.125c-.464.941-1.362 1.594-2.401 1.745l-23.868 3.468c-2.616.38-3.66 3.595-1.768 5.44l17.271 16.835c.752.733 1.095 1.788.917 2.823l-3.771 21.986 11.557-6.076c.929-.489 2.039-.489 2.968 0l21.348 11.223c2.34 1.23 5.074-.757 4.627-3.362l-4.077-23.771c-.177-1.034.166-2.09.917-2.823l17.271-16.835c1.894-1.845.849-5.06-1.766-5.44zm198.47 0-23.868-3.468c-1.039-.151-1.937-.803-2.401-1.745l-6.478-13.125-6.478 13.125c-.465.941-1.363 1.594-2.401 1.745l-23.868 3.468c-2.616.38-3.66 3.595-1.767 5.44l17.271 16.835c.751.733 1.094 1.788.917 2.823l-3.771 21.986 11.557-6.076c.929-.489 2.039-.489 2.968 0l21.348 11.223c2.34 1.23 5.074-.757 4.627-3.362l-4.077-23.771c-.177-1.034.166-2.09.917-2.823l17.271-16.835c1.893-1.845.849-5.06-1.767-5.44zm99.235 0-23.868-3.468c-1.039-.151-1.937-.803-2.401-1.745l-10.674-21.628c-1.17-2.37-4.55-2.37-5.719 0l-10.674 21.628c-.465.941-1.363 1.594-2.401 1.745l-23.868 3.468c-2.616.38-3.66 3.595-1.767 5.44l17.271 16.835c.752.733 1.095 1.788.917 2.823l-4.077 23.771c-.447 2.605 2.288 4.592 4.627 3.362l7.115-3.74 1.196-2.664 13.038-6.958c.929-.489 2.039-.489 2.968 0l1.875.986.923 2.623 1.744.178 17.404 8.426c2.34 1.23 3.681.014 3.234-2.592l-1.234-7.791.291-1.964-2.339-13.637c-.177-1.034.166-2.09.917-2.823l17.271-16.835c1.891-1.845.847-5.06-1.769-5.44zm-71.376 126.737-13.162-13.162c-1.172-1.172-3.071-1.172-4.243 0l-13.162 13.162c-1.172 1.172-1.172 3.071 0 4.243l13.162 13.163c1.172 1.172 3.071 1.172 4.243 0l13.162-13.163c1.171-1.172 1.171-3.071 0-4.243zm97.5-181.425-13.162-13.162c-1.172-1.172-3.071-1.172-4.243 0l-13.162 13.162c-1.172 1.172-1.172 3.071 0 4.243l13.162 13.163c1.172 1.172 3.071 1.172 4.243 0l13.162-13.163c1.171-1.172 1.171-3.072 0-4.243z" fill="#ffef31"/><path d="m70.511 258.013 4.729 9.582-6.277 16.83c-.397 1.065-1.165 1.804-2.053 1.974l-11.805 5.409c-2.237.43-3.13 4.068-1.511 6.156l8.513 10.438c.643.829.936 2.024.784 3.194l-3.753 17.96-14.318 7.527c-2.34 1.23-5.074-.757-4.627-3.362l4.077-23.771c.177-1.034-.166-2.09-.917-2.823l-17.271-16.835c-1.893-1.845-.848-5.06 1.767-5.44l23.868-3.468c1.039-.151 1.937-.803 2.401-1.745l10.674-21.628c1.17-2.368 4.55-2.368 5.719.002zm294.107 42.072c-.002-.001-.003-.002-.005-.003-1.465-.841-3.163-1.323-4.974-1.323-5.523 0-10 4.477-10 10v24.585l14.234-7.483c.929-.489 2.039-.489 2.968 0l2.798 1.471v-18.573c0-3.71-2.02-6.948-5.021-8.674zm28.198 33.638-1.738-10.134c-.913 1.509-1.439 3.278-1.439 5.17 0-5.523-4.477-10-10-10-5.056 0-9.234 3.752-9.905 8.623l18.455 9.702c2.34 1.231 5.074-.756 4.627-3.361zm-228.789-75.71-10.674 21.628c-.464.941-1.362 1.594-2.401 1.745l-23.868 3.468c-2.616.38-3.66 3.595-1.767 5.44l17.271 16.835c.752.733 1.095 1.788.917 2.823l-4.077 23.771c-.447 2.605 2.288 4.592 4.627 3.362l14.318-7.527 3.753-17.96c.152-1.171-.142-2.365-.784-3.194l-8.513-10.438c-1.619-2.088-.726-5.726 1.511-6.156l11.805-5.409c.888-.171 1.656-.909 2.053-1.974l6.277-16.83-4.729-9.582c-1.169-2.372-4.549-2.372-5.719-.002zm99.235 0-10.674 21.628c-.465.941-1.363 1.594-2.401 1.745l-23.868 3.468c-2.616.38-3.66 3.595-1.767 5.44l17.271 16.835c.751.733 1.094 1.788.917 2.823l-4.077 23.771c-.447 2.605 2.288 4.592 4.627 3.362l14.318-7.527 3.753-17.96c.152-1.171-.142-2.365-.784-3.194l-8.513-10.438c-1.619-2.088-.725-5.726 1.512-6.156l11.805-5.409c.888-.171 1.656-.909 2.053-1.974l6.277-16.83-4.729-9.582c-1.17-2.372-4.55-2.372-5.72-.002z" fill="#ead000"/><path d="m253.5 60.879v24.021c0 16.569-13.431 30-30 30h-28.745c-23.202 0-42.011-18.809-42.011-42.011 0-23.202 18.809-42.011 42.011-42.011h28.745c16.569.001 30 13.432 30 30.001z" fill="#883f2e"/><path d="m359.255 36.984v35.906c0 23.202-18.809 42.011-42.011 42.011h-93.383c-23.202 0-42.011-18.809-42.011-42.011 0-23.202 18.809-42.011 42.011-42.011h129.289c3.372 0 6.105 2.733 6.105 6.105z" fill="#a44f3e"/><path d="m428.843 444.844c-19.533 17.888-41.851 32.786-66.228 43.967-5.625 2.58-17.366 5.925-17.366 5.296v-45.347c0-5.523 4.477-10 10-10h64.39c4.133-.001 7.681 2.507 9.204 6.084z" fill="#814ba3"/><path d="m372.842 438.759c-5.523 0-10 4.477-10 10v39.947c-5.698 2.62-11.509 5.038-17.423 7.243-.111-.597-.17-1.213-.17-1.843v-45.347c0-5.523 4.477-10 10-10z" fill="#6f3f8b"/></g></svg>