<svg id="Layer_1" enable-background="new 0 0 512 512" height="512" viewBox="0 0 512 512" width="512" xmlns="http://www.w3.org/2000/svg"><g><path d="m256 21.996c-135.311 0-245.002 109.691-245.002 245.002 0 110.534 73.204 203.958 173.771 234.471l55.943 10.043c5.058.311 10.152.488 15.288.488 4.384 0 8.739-.12 13.066-.348l58.163-10.183c100.568-30.512 173.773-123.936 173.773-234.471 0-135.311-109.691-245.002-245.002-245.002z" fill="#816ae2"/><path d="m314.822 354.126c-1.433 1.691-3.368 2.967-5.629 3.573-15.845 4.246-32.848 6.469-49.92 6.725-.068.052-.137.101-.204.154-9.567 7.532-14.419 19.787-14.419 36.422 0 22.086 1.244 36.636 3.704 43.469 3.23-5.015 12.187-4.006 13.044 3.149l7.668 64.035c20.129-1.058 39.61-4.554 58.164-10.183z" fill="#3c58a0"/><path d="m261.882 364.383c-20.112.54-40.397-1.679-59.075-6.684-2.262-.606-4.197-1.883-5.63-3.575l-12.408 147.344c17.87 5.422 36.603 8.852 55.943 10.043l6.534-63.773c.205-2.002 1.055-3.53 2.24-4.593-1.645-5.281-3.336-16.857-3.336-42.145 0-19.666 6.886-30.636 15.732-36.617z" fill="#2a428c"/><path d="m364.912 159.435c-9.619-24.269-32.705-39.95-58.81-39.95h-14.408c-3.783 18.908-18.043 37.332-35.695 37.332-1.821 0-3.604-.206-5.346-.579-8.671 7.592-18.07 21.182-18.07 44.429v140.336c-.013.773-.163 17.656 10.034 25.4 22.537 1.384 45.573-.734 66.576-6.362 4.939-1.324 8.355-5.824 8.266-10.937l-2.578-146.516c0-3.48 2.366-6.643 5.783-7.301 3.989-.768 7.678 1.818 8.453 5.62l8.324 40.855c24.613-1.361 35.881-11.448 40.788-18.556-12.963-63.53-12.168-60.875-13.317-63.771z" fill="#49b1f7"/><path d="m234.083 341.028s0-93.028 0-140.361c0-22.84 9.081-36.287 18.479-44.089-16.045-2.192-28.723-19.428-32.257-37.093h-20.547c-23.469 0-44.354 15.012-51.713 37.296-2.879 8.715.951-8.222-14.275 66.423 4.907 7.107 16.175 17.195 40.789 18.556l8.324-40.855c.775-3.802 4.465-6.388 8.453-5.62 3.417.658 5.783 3.82 5.783 7.3l-2.578 146.517c-.09 5.113 3.326 9.614 8.266 10.937 13.633 3.653 28.126 5.802 42.779 6.501-11.818-6.459-11.503-25.512-11.503-25.512z" fill="#1e9ef4"/><path d="m134.338 220.416c-1.757 8.617-3.778 18.506-6.109 29.877-.857 4.211-6.467 5.126-8.619 1.406l-27.748-49.935c-8.832-15.262-25.272-24.744-42.905-24.744h-8.738c-11.764 0-21.886 9.04-22.438 20.791-.59 12.546 9.405 22.902 21.821 22.902h9.355c2.09 0 4.039 1.124 5.088 2.933l38.421 68.385c7.326 12.66 20.486 20.119 34.706 20.119 19.307 0 35.74-13.219 39.617-32.248l8.183-40.164c-26.341-1.354-36.779-12.73-40.634-19.322z" fill="#ffaa7b"/><path d="m494.219 197.811c-.553-11.751-10.675-20.791-22.439-20.791h-8.738c-17.633 0-34.073 9.482-42.905 24.744l-27.747 49.935c-1.022 1.767-2.823 2.476-4.526 2.296-.337 7.027.662 16.125 6.262 23.683 5.436 7.336 14.174 11.771 26.024 13.256l37.806-67.288c1.047-1.809 2.996-2.933 5.086-2.933h9.355c12.416-.001 22.412-10.357 21.822-22.902z" fill="#ffc7ab"/><path d="m293.516 119.484h-75.034c3.827 20.338 19.165 39.086 37.517 39.086 18.352.001 33.69-18.748 37.517-39.086z" fill="#ffaa7b"/><path d="m308.85 53.337c0 32.469-23.662 66.968-52.851 66.968s-52.851-34.5-52.851-66.968 23.663-53.337 52.851-53.337c29.189 0 52.851 20.869 52.851 53.337z" fill="#ffc7ab"/><g fill="#9181f2"><path d="m500.358 284.715c-17.532-2.06-37.87 2.421-51.019 27.434-13.141 25-34.049 37.171-52.18 43.073-25.035 8.149-40.672 32.983-37.973 59.171 2.093 20.306 8.097 43.263 22.356 63.015 66.779-39.925 112.957-110.726 118.816-192.693z"/><path d="m471.168 149.743c-24.7-45.23-63.247-81.808-109.941-104.05-5.811 11.469-7.902 29.054 5.523 54.307 23.516 44.232 56.357 71.997 104.418 49.743z"/><path d="m11.642 284.715c17.532-2.06 37.87 2.421 51.019 27.434 13.141 25 34.049 37.171 52.18 43.073 25.035 8.149 40.672 32.983 37.973 59.171-2.093 20.306-8.097 43.263-22.356 63.015-66.779-39.925-112.957-110.726-118.816-192.693z"/><path d="m40.832 149.743c24.7-45.23 63.247-81.808 109.941-104.05 5.811 11.469 7.902 29.054-5.523 54.307-23.516 44.232-56.357 71.997-104.418 49.743z"/></g><path d="m389.394 253.911c-2.365.523-5.052-.809-5.624-3.618-2.339-11.412-4.369-21.339-6.131-29.982-3.924 6.609-14.469 18.053-40.611 19.424l8.183 40.167c3.371 16.543 16.315 28.989 32.977 31.707 16.479 2.691 32.799-4.811 41.345-19.579l1.41-2.509c-28.442-3.286-32.184-22.964-31.549-35.61z" fill="#ffaa7b"/></g></svg>