<svg id="Layer_1" enable-background="new 0 0 512 512" height="512" viewBox="0 0 512 512" width="512" xmlns="http://www.w3.org/2000/svg"><g><path d="m494.968 310.229c3.942-17.445 6.034-35.592 6.034-54.229 0-109.842-72.286-202.798-171.881-233.901l-136.249-2.874c-104.714 27.848-181.874 123.294-181.874 236.775 0 18.637 2.092 36.784 6.034 54.229z" fill="#e80054"/><path d="m275.198 308.229 24.378 84.372c-7.475 3.848-47.411 25.716-44.073 52.037 2.32 18.296 25.133 34.029 67.917 46.959 86.098-24.597 152.818-95.11 171.984-183.368z" fill="#876d93"/><path d="m301.362 393.38-24.602-85.151h-260.164c23.935 110.215 122.02 192.773 239.404 192.773 24.341 0 47.848-3.56 70.04-10.171-139.765-41.209-24.678-97.451-24.678-97.451z" fill="#6c5475"/><path d="m126.119 166.314c-.35 0-.695.018-1.043.027v20.86c.346-.016.693-.027 1.043-.027 12.453 0 22.585 10.132 22.585 22.586v65.871c0 5.76 4.67 10.43 10.43 10.43s10.43-4.67 10.43-10.43v-65.871c.001-23.957-19.488-43.446-43.445-43.446z" fill="#deeeff"/><g><path d="m232.852 366.719h-59.818c-5.76 0-10.43-4.67-10.43-10.43s4.669-10.43 10.43-10.43h59.818c5.76 0 10.43 4.67 10.43 10.43-.001 5.76-4.67 10.43-10.43 10.43z" fill="#deeeff"/></g><g><path d="m399.862 359.162c-3.171 0-6.303-1.441-8.352-4.173-3.456-4.608-2.523-11.145 2.085-14.602 6.994-5.246 11.005-13.26 11.005-21.986v-57.878c0-15.14-12.317-27.457-27.457-27.457h-12.698c-5.76 0-10.43-4.67-10.43-10.43s4.67-10.43 10.43-10.43h12.698c26.642 0 48.317 21.675 48.317 48.317v57.878c0 15.128-7.233 29.586-19.348 38.674-1.875 1.407-4.072 2.087-6.25 2.087z" fill="#deeeff"/></g><path d="m263.983 115.553c.712 18.514 15.782 33.016 34.31 33.016h23.212c1.923-44.11 5.413-95.773 7.616-126.469-21.891-6.836-45.101-10.681-69.153-11.063z" fill="#ffc7ab"/><path d="m321.571 147.068h-23.279c-17.643 0-32.132-13.943-32.81-31.573l-4.012-104.432c-1.819-.04-3.642-.065-5.471-.065-21.83 0-42.986 2.87-63.129 8.227 3.125 44.088 13.077 108.988 21.403 160.272h106.132c.254-9.993.659-20.972 1.166-32.429z" fill="#ffaa7b"/><path d="m494.917 383.311c-18.022-1.037-47.231-5.956-72.336-25.083-19.477-14.84-41.92-27.071-59.701-35.671-15.488-7.491-27.219-20.736-32.938-36.67-15.247 1.968-31.28 6.2-40.062 15.049-4.918 4.956-7.166 10.972-6.681 17.882 1.381 19.679 11.28 27.217 19.235 33.273 8.102 6.169 13.956 10.627 10.401 24.751-4.733 18.803-6.846 28.461-2.971 37.917 30.352-3.247 67.713-3.855 93.229.671 25.652 4.551 64.716 5.835 88.424 6.18 11.267.166 20.483-8.93 20.483-20.198 0-9.61-7.49-17.549-17.083-18.101z" fill="#ffc7ab"/><path d="m314.29 377.208c7.595-30.171-26.928-20.495-29.595-58.495-1.446-20.611 23.059-28.467 45.791-31.343-1.45-3.751-2.575-7.654-3.319-11.68-.58-3.14-1.185-6.421-1.787-9.916h-98.358c.01 5.625-.557 10.238-1.448 14.01-3.579 15.154-2.675 30.986 1.692 45.932 1.395 4.774 2.331 9.347 2.331 13.025 0 4.518-1.412 10.018-3.354 15.445-13.591 37.992 20.533 73.174 49.729 66.054 9.334-2.276 21.734-4.235 35.485-5.653-3.914-9.231-1.882-18.648 2.833-37.379z" fill="#ffaa7b"/><ellipse cx="93.105" cy="328.509" fill="#47354f" rx="93.105" ry="93.105" transform="matrix(.707 -.707 .707 .707 -205.021 162.053)"/><path d="m327.372 176.744h-52.247c-4.223 2.123-7.145 6.489-7.145 11.515v68.753c0 5.026 2.922 9.392 7.145 11.516h52.248c6.884 0 12.516-5.632 12.516-12.516v-66.752c-.001-6.884-5.633-12.516-12.517-12.516z" fill="#56415e"/><path d="m270.355 256.012v-66.752c0-6.884 5.632-12.516 12.516-12.516h-69.533c-6.884 0-12.516 5.632-12.516 12.516v66.752c0 6.884 5.632 12.516 12.516 12.516h69.533c-6.884 0-12.516-5.632-12.516-12.516z" fill="#47354f"/><g><path d="m356.744 249.97h-17.9c-4.033 0-7.301-3.269-7.301-7.301 0-4.033 3.268-7.301 7.301-7.301h17.9c4.434 0 8.041-3.607 8.041-8.039v-9.384c0-4.434-3.607-8.04-8.041-8.04h-17.9c-4.033 0-7.301-3.268-7.301-7.301 0-4.032 3.268-7.301 7.301-7.301h17.9c12.485 0 22.643 10.157 22.643 22.643v9.384c0 12.483-10.158 22.64-22.643 22.64z" fill="#6c5475"/></g><g><path d="m113.137 247.943c-4.033 0-7.301-3.268-7.301-7.301v-21.029c0-4.434-3.607-8.04-8.04-8.04h-9.384c-4.433 0-8.04 3.607-8.04 8.04v21.029c0 4.033-3.268 7.301-7.301 7.301-4.032 0-7.301-3.268-7.301-7.301v-21.029c0-12.485 10.157-22.642 22.642-22.642h9.384c12.485 0 22.642 10.157 22.642 22.642v21.029c0 4.032-3.268 7.301-7.301 7.301z" fill="#6c5475"/></g><path d="m126.12 166.314c-23.956 0-43.445 19.489-43.445 43.446 0 5.76 4.67 10.43 10.43 10.43s10.43-4.67 10.43-10.43c0-12.454 10.131-22.586 22.585-22.586z" fill="#deeeff"/><path d="m161.591 29.88c-54.456 22.762-98.948 64.606-125.097 117.187 21.768.091 52.242-3.483 88.583-17.687 53.261-20.818 45.505-71.704 36.514-99.5z" fill="#ff4155"/><path d="m384.63 47.457c-20.875 31.194-50.693 87.754-10.601 109.923 56.667 31.334 78.667 49.412 78.667 81.039 0 22.87 23.503 37.977 47.556 36.628.485-6.287.751-12.636.751-19.047-.001-88.129-46.539-165.379-116.373-208.543z" fill="#ff4155"/><circle cx="121.34" cy="307.193" fill="#56415e" r="38.665"/></g></svg>