<svg id="Capa_1" enable-background="new 0 0 512 512" height="512" viewBox="0 0 512 512" width="512" xmlns="http://www.w3.org/2000/svg"><g><path d="m512 255.597c.217 141.019-114.752 256.28-255.772 256.403-13.97.012-27.679-1.095-41.042-3.236-15.335-2.457-26.638-15.65-26.638-31.181v-273.577c0-66.899-54.233-121.132-121.132-121.132 46.792-50.944 113.959-82.874 188.584-82.874 141.25 0 255.782 114.397 256 255.597z" fill="#1ed688"/><path d="m262.263 348.18c-8.284 0-15-6.716-15-15v-170.637c0-8.284 6.716-15 15-15h192.904c8.284 0 15 6.716 15 15v170.637c0 8.284-6.716 15-15 15zm-45.395 160.848c3.664-2.735 6.036-7.104 6.036-12.028v-403c0-8.284-6.716-15-15-15h-136.856c-44.01 45.975-71.048 108.33-71.048 177 0 63.883 23.4 122.301 62.096 167.15 1.742 2.019 14.674-1.044 16.478.92 11.429 12.443 24.074 23.752 37.746 33.738 3.368 2.46-4.36 9.895-.87 12.191 30.001 19.746 64.404 33.351 101.418 39.029z" fill="#1ab975"/><path d="m292.5 72.5v375c0 8.284-6.716 15-15 15h-162.549c-6.847 0-13.513-2.293-18.857-6.573-6.679-5.349-13.083-11.025-19.19-17.004-4.691-4.593-7.309-10.9-7.309-17.465v-340.928c.766-9.019-.317-15.901 8.426-23.03h199.479c8.284 0 15 6.716 15 15z" fill="#b4e7fd"/><path d="m277.5 462.5h-151.287c-8.284 0-15-6.716-15-15v-375c0-8.284 6.716-15 15-15h151.287c8.284 0 15 6.716 15 15v375c0 8.284-6.716 15-15 15z" fill="#d5f1fe"/><path d="m264.532 137.476v111.801c0 8.284-6.716 15-15 15h-136.968c-8.284 0-15-6.716-15-15v-111.801c0-8.284 6.716-15 15-15h136.968c8.284 0 15 6.716 15 15z" fill="#93dcfc"/><path d="m228.415 168.149v50.455c0 8.284-6.716 15-15 15h-64.734c-8.284 0-15-6.716-15-15v-50.455c0-8.284 6.716-15 15-15h64.734c8.284 0 15 6.716 15 15z" fill="#40c1fa"/><path d="m136.048 316.93c0-4.142 3.358-7.5 7.5-7.5h75c4.142 0 7.5 3.358 7.5 7.5s-3.358 7.5-7.5 7.5h-75c-4.142 0-7.5-3.358-7.5-7.5zm82.5 23.75h-75c-4.142 0-7.5 3.358-7.5 7.5s3.358 7.5 7.5 7.5h75c4.142 0 7.5-3.358 7.5-7.5s-3.358-7.5-7.5-7.5zm0 31.25h-75c-4.142 0-7.5 3.358-7.5 7.5s3.358 7.5 7.5 7.5h75c4.142 0 7.5-3.358 7.5-7.5s-3.358-7.5-7.5-7.5z" fill="#93dcfc"/><path d="m300 72.5v375c0 12.407-10.094 22.5-22.5 22.5h-162.051c-7.089-4.665-13.932-9.673-20.506-15h182.557c4.136 0 7.5-3.364 7.5-7.5v-375c0-4.136-3.364-7.5-7.5-7.5h-192.904c-4.135 0-7.5 3.364-7.5 7.5v366.61c-5.223-5.104-10.228-10.428-15-15.96v-350.65c0-12.407 10.093-22.5 22.5-22.5h192.904c12.406 0 22.5 10.093 22.5 22.5zm-151.122 356.533c0 4.142 3.358 7.5 7.5 7.5h49.34c4.142 0 7.5-3.358 7.5-7.5s-3.358-7.5-7.5-7.5h-49.34c-4.143 0-7.5 3.358-7.5 7.5zm39.67-342.533c0-4.142-3.358-7.5-7.5-7.5s-7.5 3.358-7.5 7.5 3.358 7.5 7.5 7.5 7.5-3.358 7.5-7.5z" fill="#2b3894"/><path d="m512 140v110.362c0 22.091-17.909 40-40 40h-125l-68.781 45.854c-2.658 1.772-6.219-.133-6.219-3.328v-38.526c0-2.209-1.791-4-4-4h-16c-22.091 0-40-17.909-40-40v-110.362c0-22.091 17.909-40 40-40h220c22.091 0 40 17.909 40 40z" fill="#eac23f"/><path d="m512 140v110.362c0 22.091-17.909 40-40 40h-155.34c-22.092 0-40-17.909-40-40v-110.362c0-22.091 17.909-40 40-40h155.34c22.091 0 40 17.909 40 40z" fill="#e9cc5a"/><path d="m448.423 157.487 2.11-11.181c.108-.574-.087-1.164-.517-1.56l-8.371-7.706c-1.059-.975-.496-2.742.931-2.926l11.286-1.448c.58-.074 1.08-.443 1.324-.974l4.742-10.343c.6-1.308 2.455-1.319 3.07-.018l4.865 10.286c.25.528.755.891 1.335.958l11.302 1.314c1.43.166 2.013 1.927.966 2.914l-8.279 7.805c-.425.401-.614.993-.499 1.566l2.243 11.155c.284 1.411-1.211 2.51-2.473 1.819l-9.982-5.462c-.513-.281-1.134-.277-1.643.01l-9.916 5.58c-1.254.707-2.761-.374-2.494-1.789zm26.077 52.875h-135c-4.142 0-7.5 3.358-7.5 7.5 0 4.142 3.358 7.5 7.5 7.5h135c4.142 0 7.5-3.358 7.5-7.5 0-4.142-3.358-7.5-7.5-7.5zm0 30h-135c-4.142 0-7.5 3.358-7.5 7.5 0 4.142 3.358 7.5 7.5 7.5h135c4.142 0 7.5-3.358 7.5-7.5 0-4.142-3.358-7.5-7.5-7.5zm0-60h-135c-4.142 0-7.5 3.358-7.5 7.5 0 4.142 3.358 7.5 7.5 7.5h135c4.142 0 7.5-3.358 7.5-7.5 0-4.142-3.358-7.5-7.5-7.5z" fill="#e1b91e"/><path d="m242 217.862c0-4.142 3.358-7.5 7.5-7.5h95c4.142 0 7.5 3.358 7.5 7.5s-3.358 7.5-7.5 7.5h-95c-4.142 0-7.5-3.358-7.5-7.5zm132.5 22.5h-125c-4.142 0-7.5 3.358-7.5 7.5s3.358 7.5 7.5 7.5h125c4.142 0 7.5-3.358 7.5-7.5 0-4.143-3.358-7.5-7.5-7.5zm40-60h-165c-4.142 0-7.5 3.358-7.5 7.5s3.358 7.5 7.5 7.5h165c4.142 0 7.5-3.358 7.5-7.5 0-4.143-3.358-7.5-7.5-7.5z" fill="#fff68e"/><path d="m433.143 136.803-8.279 7.805c-.425.401-.614.993-.499 1.566l2.243 11.155c.284 1.411-1.21 2.51-2.473 1.819l-9.982-5.462c-.513-.281-1.134-.277-1.643.01l-9.916 5.581c-1.254.706-2.762-.375-2.495-1.79l2.11-11.181c.108-.574-.087-1.164-.517-1.56l-8.371-7.706c-1.059-.975-.496-2.742.931-2.926l11.286-1.448c.58-.074 1.08-.442 1.324-.974l4.742-10.343c.6-1.308 2.455-1.319 3.07-.018l4.865 10.286c.25.529.755.891 1.335.958l11.302 1.314c1.43.166 2.014 1.927.967 2.914zm-49.29-2.914-11.302-1.314c-.581-.068-1.085-.43-1.335-.958l-4.865-10.286c-.615-1.301-2.47-1.29-3.07.018l-4.742 10.343c-.244.531-.744.899-1.324.974l-11.286 1.448c-1.427.183-1.99 1.951-.931 2.926l8.371 7.706c.43.396.626.985.517 1.56l-2.11 11.181c-.267 1.415 1.24 2.496 2.495 1.79l9.916-5.581c.51-.287 1.131-.29 1.644-.01l9.982 5.462c1.262.691 2.757-.408 2.473-1.819l-2.243-11.155c-.115-.573.073-1.165.499-1.566l8.279-7.805c1.045-.987.461-2.748-.968-2.914zm-48.324 0-11.302-1.314c-.581-.068-1.085-.43-1.335-.958l-4.865-10.286c-.615-1.301-2.47-1.29-3.07.018l-4.742 10.343c-.244.531-.744.899-1.324.974l-11.286 1.448c-1.427.183-1.99 1.951-.931 2.926l8.372 7.706c.43.396.625.985.517 1.56l-2.11 11.181c-.267 1.415 1.24 2.496 2.495 1.79l9.916-5.581c.509-.287 1.131-.29 1.643-.01l9.982 5.462c1.263.691 2.757-.408 2.473-1.819l-2.243-11.155c-.115-.573.073-1.165.499-1.566l8.279-7.805c1.045-.987.462-2.748-.968-2.914zm-48.323 0-11.302-1.314c-.581-.068-1.085-.43-1.335-.958l-4.865-10.286c-.615-1.301-2.47-1.29-3.07.018l-4.742 10.343c-.244.531-.744.899-1.324.974l-11.286 1.448c-1.428.183-1.99 1.951-.931 2.926l8.371 7.706c.43.396.626.985.517 1.56l-2.11 11.181c-.267 1.415 1.24 2.496 2.495 1.79l9.916-5.581c.51-.287 1.131-.29 1.644-.01l9.982 5.462c1.262.691 2.757-.408 2.473-1.819l-2.243-11.155c-.115-.573.073-1.165.499-1.566l8.279-7.805c1.045-.987.461-2.748-.968-2.914z" fill="#fff5f5"/></g></svg>