<svg id="Capa_1" enable-background="new 0 0 512 512" height="512" viewBox="0 0 512 512" width="512" xmlns="http://www.w3.org/2000/svg"><g><g><circle cx="250.5" cy="267" fill="#fff0ad" r="245"/></g><g><circle cx="250.5" cy="267" fill="#c8effe" r="245"/></g><g fill="#99e6fc"><path d="m27.246 344.722c2.966-28.307 15.706-55.001 35.871-75.167 23.573-23.573 54.916-36.555 88.256-36.555 8.813 0 17.644.934 26.247 2.775l1.847.395-.711-1.75c-6.612-16.263-10.607-33.276-11.938-50.731-49.734-4.383-100.985 12.448-139.051 50.513-8.444 8.444-15.839 17.538-22.194 27.118-.044 1.889-.073 3.781-.073 5.68 0 35.779 7.684 69.758 21.469 100.397-.584-7.522-.515-15.114.277-22.675z"/><path d="m274.365 328.662-1.759-.686.422 1.84c9.675 42.218-2.806 85.681-33.386 116.261-23.572 23.572-54.914 36.554-88.25 36.554-6.833 0-13.592-.567-20.234-1.646 31.016 17.332 66.18 28.128 103.637 30.499 14.431-7.841 27.995-17.851 40.199-30.055 38.711-38.711 55.461-91.059 50.272-141.579-17.491-1.081-34.569-4.825-50.901-11.188z"/></g><path d="m467.91 278.654c24.115-29.423 38.59-67.05 38.59-108.06 0-94.217-76.378-170.594-170.594-170.594s-170.594 76.377-170.594 170.594c0 23.13 4.612 45.18 12.953 65.293 23.078 5.041 44.273 16.563 61.376 33.667 16.669 16.668 28.034 37.223 33.267 59.619 19.491 7.75 40.745 12.015 62.997 12.015 29.671 0 57.568-7.58 81.872-20.901l54.316 14.554c5.205 1.395 9.968-3.368 8.573-8.573z" fill="#01d0fb"/><path d="m235.965 231.369c-10.794-17.711-17.013-38.516-17.013-60.775s6.219-43.063 17.013-60.775c21.075-55.254 70.041-96.738 129.691-107.229-9.661-1.699-19.601-2.59-29.75-2.59-94.216 0-170.594 76.377-170.594 170.594 0 23.13 4.612 45.18 12.953 65.293 23.078 5.041 44.273 16.563 61.376 33.667 16.669 16.668 28.034 37.223 33.267 59.619 19.491 7.75 40.745 12.015 62.997 12.015 10.132 0 20.051-.904 29.697-2.599-59.625-10.506-108.568-51.982-129.637-107.22z" fill="#01c0fa"/><g><g><circle cx="335.906" cy="170.594" fill="#ffd15b" r="116.954"/></g><path d="m272.954 222.147c-10.464-12.755-17.146-28.725-18.287-46.188-.189-2.898 2.089-5.364 4.993-5.364h1.34c0-57.414 41.372-105.162 95.93-115.065-6.821-1.238-13.846-1.888-21.024-1.888-64.592 0-116.954 52.362-116.954 116.954s52.362 116.954 116.954 116.954c7.178 0 14.203-.65 21.024-1.888-36.975-6.714-67.887-30.811-83.976-63.515z" fill="#ffc344"/><g><g><path d="m335.906 252.008c-43.09 0-78.468-33.649-81.239-76.05-.189-2.898 2.089-5.364 4.993-5.364h10.024c2.598 0 4.785 1.988 4.977 4.579 2.35 31.734 28.921 56.835 61.245 56.835s58.896-25.101 61.246-56.835c.192-2.591 2.379-4.579 4.977-4.579h10.024c2.904 0 5.183 2.466 4.993 5.364-2.771 42.402-38.15 76.05-81.24 76.05z" fill="#eca026"/></g><g><g><path d="m308.312 151.979h-10c-2.761 0-5-2.239-5-5v-18.979c0-2.761 2.239-5 5-5h10c2.761 0 5 2.239 5 5v18.979c0 2.762-2.239 5-5 5z" fill="#eca026"/></g><g><path d="m373.5 151.979h-10c-2.761 0-5-2.239-5-5v-18.979c0-2.761 2.239-5 5-5h10c2.761 0 5 2.239 5 5v18.979c0 2.762-2.239 5-5 5z" fill="#eca026"/></g></g></g></g><g><path d="m240.348 268.847c-49.136-49.136-128.802-49.136-177.938 0-42.414 42.413-48.21 107.571-17.402 156.209l-10.198 38.06c-1.395 5.205 3.368 9.968 8.573 8.573l37.069-9.933c48.988 33.508 116.401 28.523 159.896-14.972 49.136-49.135 49.136-128.801 0-177.937z" fill="#fe5694"/></g><g><path d="m77.17 439.174c1.031-3.846.44-7.921-1.523-11.386-27.186-47.99-20.336-110.038 20.563-150.936 27.597-27.597 64.824-39.692 100.864-36.29-45.091-17.545-98.257-8.122-134.664 28.285-42.414 42.413-48.21 107.571-17.402 156.209l-10.198 38.06c-1.395 5.205 3.368 9.968 8.573 8.573l27.014-7.238z" fill="#fe0364"/></g><g><circle cx="151.379" cy="357.816" fill="#ffd15b" r="82.184"/></g><path d="m106.53 381.662c-3.276-6.188-5.313-13.129-5.767-20.493-.089-1.451.898-2.696 2.244-3.046 0-.103-.007-.204-.007-.307 0-39.594 28.003-72.641 65.282-80.436-5.456-1.141-11.108-1.748-16.902-1.748-45.389 0-82.184 36.795-82.184 82.184s36.794 82.184 82.183 82.184c5.795 0 11.446-.607 16.902-1.748-29.468-6.162-53.125-28.109-61.751-56.59z" fill="#ffc344"/><g><g><path d="m151.379 408.729c-26.904 0-48.983-21.059-50.616-47.559-.106-1.713 1.284-3.153 3-3.153h9.02c1.586 0 2.868 1.237 2.992 2.818 1.441 18.38 16.859 32.895 35.603 32.895s34.161-14.515 35.603-32.895c.124-1.581 1.407-2.818 2.992-2.818h9.02c1.717 0 3.106 1.44 3 3.153-1.631 26.499-23.709 47.559-50.614 47.559z" fill="#eca026"/></g><g><g><path d="m135.212 343h-9c-1.657 0-3-1.343-3-3v-16.755c0-1.657 1.343-3 3-3h9c1.657 0 3 1.343 3 3v16.755c0 1.657-1.343 3-3 3z" fill="#eca026"/></g><g><path d="m176.546 343h-9c-1.657 0-3-1.343-3-3v-16.755c0-1.657 1.343-3 3-3h9c1.657 0 3 1.343 3 3v16.755c0 1.657-1.343 3-3 3z" fill="#eca026"/></g></g></g></g></svg>