<svg id="Layer_1" enable-background="new 0 0 512 512" height="512" viewBox="0 0 512 512" width="512" xmlns="http://www.w3.org/2000/svg"><g><path d="m255.359 21.996c-135.311 0-245.002 109.691-245.002 245.002 0 33.621 6.778 65.657 19.032 94.824l368.911 104.165c61.807-44.477 102.061-117.028 102.061-198.989 0-135.311-109.691-245.002-245.002-245.002z" fill="#e80054"/><path d="m263.744 300.173c-2.888-.732-5.455-2.481-7.079-4.978-5.781-8.886-7.404-22.036-7.734-31.65-4.412 5.14-9.044 9.439-13.469 12.875-8.184 6.356-18.188 9.949-28.555 10.297-.808 14.304-4.273 39.511-18.38 48.916-1.409.939-3.191 1.735-5.27 2.411 17.794 7.988 39.022 5.763 54.828-6.51 6.709-5.21 17.977-15.411 27.363-30.896-.571-.15-1.13-.319-1.704-.465z" fill="#ffaa7b"/><path d="m205.245 286.752c-10.957 0-21.596-3.637-30.217-10.332-4.425-3.436-9.056-7.735-13.469-12.875-.331 9.613-1.953 22.764-7.735 31.65-1.625 2.497-4.192 4.246-7.079 4.978-.573.145-1.133.314-1.702.464 9.386 15.486 20.656 25.686 27.364 30.896 4 3.107 8.34 5.555 12.873 7.369 1.562-.592 2.939-1.26 4.08-2.021 14.756-9.837 18.279-35.72 19.07-50.243-1.059.069-2.12.114-3.185.114z" fill="#fc9460"/><path d="m339.842 497.019c20.982-7.708 40.62-18.195 58.459-31.032l-5.901-64.341c-3.493-30.25-17.138-71.514-65.183-75.441-5.638-.461-8.637-2.648-15.281-6.394-7.115-4.012-14.289-7.555-21.619-10.657-12.023 21.739-27.522 35.834-36.421 42.745-28.652 22.246-68.861 22.087-97.304-.001-8.899-6.91-24.398-21.005-36.422-42.744-7.329 3.102-14.503 6.645-21.619 10.657-6.644 3.746-9.643 5.933-15.28 6.394-28.142 2.3-44.473 17.414-53.883 35.618 8.381 19.949 19.339 38.545 32.437 55.393z" fill="#49b1f7"/><path d="m208.007 56.009-.964.959c-4.34 3.729-12.631 12.239-13.963 23.76-1.022 8.84 2.291 17.571 9.848 25.952.18.199.349.426.525.638 3.896.225 7.824-.265 11.569-1.51 9.765-3.247 25.077-6.5 37.56-.883 14.693 6.611 13.462 26.835 12.651 38.028-.282 3.891.643 7.794 2.746 11.093 1.242 1.948 2.227 4.014 3.009 6.053.972 2.536 1.663 6.821 2.09 9.481 2.255-1.093 7.144-2.283 9.902-1.893.337-11.7 1.417-25.979 1.417-25.979 11.445-56.047-33.292-84.154-76.39-85.699z" fill="#56415e"/><path d="m190.634 56.85c-43.875 5.978-48.045 30.854-48.065 39.981-.004 1.914-1.065 3.688-2.785 4.525-22.823 11.102-10.518 66.277-10.518 66.277 2.292.153 6.356 1.081 8.145 1.948.438-2.727 1.153-7.077 2.164-9.671.77-1.978 1.732-3.975 2.934-5.862 2.087-3.274 3.038-7.137 2.754-10.999-.82-11.163-2.091-31.493 12.644-38.123 12.483-5.617 27.796-2.364 37.561.883 3.222 1.071 6.581 1.593 9.938 1.575-.441-.605-.892-1.184-1.364-1.708-24.94-27.658 6.367-49.467 6.477-49.544-6.714-.402-13.415-.164-19.885.718z" fill="#47354f"/><path d="m287.912 167.541c-3.417-3.132-11.057-1.544-14 .373.645 4.015.682 8.123.125 12.179l-3.473 25.296c0 2.039-.064 4.04-.182 6.005 8.469 2.555 13.509-5.049 14.217-10.266.305-2.246.804-4.46 1.496-6.62 2.251-7.036 10.378-19.121 1.817-26.967z" fill="#ffaa7b"/><path d="m122.578 167.541c3.417-3.132 11.057-1.544 14 .373-.645 4.015-.681 8.123-.124 12.179l3.473 25.296c0 2.039.064 4.04.182 6.005-8.469 2.555-13.509-5.049-14.217-10.266-.305-2.246-.804-4.46-1.495-6.62-2.254-7.036-10.381-19.121-1.819-26.967z" fill="#fc9460"/><path d="m272.654 160.099c-.782-2.04-1.767-4.105-3.009-6.053-2.103-3.299-3.028-7.202-2.746-11.094.811-11.192.376-33.082-14.317-39.693-12.482-5.617-27.794-2.365-37.559.882-4.408 1.466-9.07 1.888-13.634 1.317-9.047 9.337-9.23 26.781-8.524 36.388.29 3.951-.682 7.903-2.818 11.253-1.231 1.931-2.215 3.975-3.003 5.998-2.554 6.562-3.299 13.679-2.342 20.647l3.554 25.887c0 37.217 19.867 62.513 36.766 75.636 1.155.897 2.357 1.719 3.579 2.506 2.396-1.288 4.692-2.777 6.861-4.461 16.516-12.826 35.933-37.549 35.933-73.924l3.473-25.296c.927-6.742.225-13.63-2.214-19.993z" fill="#ffc7ab"/><g><path d="m225.142 279.312c-16.516-12.826-35.933-37.549-35.933-73.924l-3.474-25.301c-.935-6.81-.207-13.766 2.289-20.179.77-1.977 1.732-3.975 2.935-5.862 2.087-3.274 3.038-7.137 2.754-10.999-.739-10.052-.486-28.883 10.329-37.373-2.901-.113-5.789-.607-8.575-1.534-9.765-3.247-25.077-6.499-37.559-.882-14.735 6.63-15.13 28.626-14.31 39.789.284 3.862-.667 7.724-2.754 10.999-1.203 1.887-2.165 3.885-2.935 5.862-2.496 6.413-3.224 13.369-2.289 20.179l3.474 25.301c0 36.374 19.417 61.098 35.933 73.924 8.621 6.695 19.26 10.331 30.217 10.331 8.86 0 17.512-2.38 25.057-6.83-1.785-1.052-3.509-2.219-5.159-3.501z" fill="#ffaa7b"/></g><path d="m155.605 353.17c28.97 22.497 69.988 22.745 99.28.001 9.045-7.024 24.761-21.323 36.925-43.375-9.023-3.907-18.274-7.133-27.978-9.598-9.203 15.047-20.18 24.973-26.735 30.064-18.638 14.471-45.001 14.524-63.702 0-6.557-5.091-17.533-15.017-26.736-30.064-9.704 2.465-18.956 5.691-27.978 9.598 12.163 22.051 27.879 36.35 36.924 43.374z" fill="#73c3f9"/><path d="m318.518 309.153h-115.22s-48.1 42.352-3.769 77.791v47.266s-34.163 33.21-7.09 69.62c20.08 5.322 41.167 8.171 62.921 8.171 29.703 0 58.171-5.289 84.515-14.971.888-2.424 1.373-5.037 1.373-7.759v-157.388c0-12.501-10.229-22.73-22.73-22.73z" fill="#deeeff"/><path d="m61.809 331.883v85.328c32.939 42.381 79.495 73.636 133.093 87.245-27.938-36.654 6.627-70.246 6.627-70.246v-47.266c-44.331-35.438 3.769-77.791 3.769-77.791h-120.759c-12.502 0-22.73 10.229-22.73 22.73z" fill="#d3dcfb"/><ellipse cx="201.528" cy="410.577" fill="#bec8f7" rx="23.633" ry="23.633" transform="matrix(.526 -.851 .851 .526 -253.679 366.154)"/><path d="m498.978 141.895-12.136-8.71c-2.102-1.509-3.067-4.13-2.487-6.652 1.41-6.13 2.168-12.508 2.168-19.066s-.758-12.936-2.168-19.066c-.58-2.522.385-5.143 2.487-6.652l12.136-8.71c2.669-1.916 3.451-5.544 1.808-8.389-4.069-7.047-7.965-13.795-12.602-21.828-1.643-2.845-5.179-3.987-8.173-2.634l-13.626 6.162c-2.357 1.066-5.111.591-7.004-1.172-9.306-8.666-20.549-15.275-33.017-19.094-2.471-.757-4.256-2.905-4.511-5.476l-1.473-14.847c-.324-3.27-3.074-5.761-6.36-5.761h-25.212c-3.286 0-6.036 2.491-6.361 5.761l-1.473 14.847c-.255 2.571-2.04 4.72-4.511 5.476-.595.182-1.185.377-1.775.572-1.293 4.087-5.096 18.621 2.019 29.875 4.659 7.369 13.011 11.736 24.835 12.99l7.501 34.772c-.341 6.445 3.35 18.697 19.678 21.075l5.16 12.457c-.844 2.361-3.42 11.094 1.086 19.353 3.765 6.902 11.401 11.535 22.713 13.784l-.059.387c.594-.523 1.181-1.054 1.76-1.594 1.893-1.763 4.646-2.238 7.004-1.172l13.626 6.162c2.994 1.354 6.527.217 8.169-2.629 4.069-7.047 7.964-13.795 12.602-21.828 1.644-2.845.865-6.478-1.804-8.393z" fill="#ffdd40"/><path d="m435.495 137.802-5.718-13.806c-20.41-2.463-19.223-19.818-19.223-19.818l-7.775-36.044c-40.581-3.58-26.315-42.05-26.315-42.05-12.468 3.819-23.711 10.428-33.017 19.094-1.893 1.763-4.647 2.238-7.004 1.172l-13.625-6.162c-2.994-1.354-6.527-.217-8.17 2.629-4.069 7.047-7.965 13.795-12.603 21.828-1.643 2.845-.864 6.479 1.805 8.395l12.136 8.71c2.102 1.509 3.067 4.13 2.487 6.652-1.41 6.13-2.168 12.508-2.168 19.066s.758 12.936 2.168 19.066c.58 2.522-.385 5.143-2.487 6.652l-12.136 8.71c-2.669 1.916-3.451 5.544-1.808 8.389 4.069 7.047 7.965 13.795 12.603 21.828 1.643 2.846 5.179 3.988 8.172 2.634l13.625-6.162c2.357-1.066 5.111-.591 7.004 1.172 9.306 8.666 20.549 15.275 33.017 19.094 2.471.757 4.256 2.905 4.511 5.477l1.473 14.847c.324 3.27 3.075 5.761 6.361 5.761h25.212c3.286 0 6.036-2.491 6.361-5.761l1.473-14.847c.255-2.572 2.04-4.72 4.511-5.477 12.468-3.819 23.711-10.428 33.017-19.094-34.728-6.127-23.887-31.955-23.887-31.955z" fill="#ffb332"/><g><g><path d="m367.333 137.802c-2.07 0-4.139-.79-5.718-2.368l-22.248-22.248c-3.159-3.159-3.159-8.279 0-11.438l22.248-22.248c3.158-3.157 8.278-3.157 11.436 0 3.158 3.159 3.158 8.278 0 11.437l-16.53 16.529 16.53 16.53c3.158 3.159 3.158 8.278 0 11.437-1.578 1.579-3.648 2.369-5.718 2.369z" fill="#4f71b6"/></g><g><path d="m435.495 137.802c-2.069 0-4.139-.79-5.718-2.368-3.158-3.159-3.158-8.278 0-11.437l16.53-16.53-16.53-16.529c-3.158-3.159-3.158-8.278 0-11.437 3.158-3.157 8.279-3.157 11.437 0l22.248 22.248c3.158 3.159 3.158 8.278 0 11.438l-22.248 22.248c-1.58 1.577-3.65 2.367-5.719 2.367z" fill="#4f71b6"/></g><g><path d="m392.204 152.953c-.641 0-1.291-.077-1.941-.237-4.337-1.069-6.986-5.45-5.917-9.787l18.433-74.795c1.069-4.338 5.448-6.985 9.787-5.917 4.337 1.069 6.986 5.45 5.917 9.787l-18.433 74.795c-.909 3.687-4.212 6.154-7.846 6.154z" fill="#4f71b6"/></g></g><g fill="#ff4155"><path d="m88.359 256c19.707-28.801-14.598-87.557-38.61-122.262-24.912 38.358-39.392 84.115-39.392 133.26 0 16.32 1.61 32.263 4.655 47.689 21.578-18.457 54.814-31.601 73.347-58.687z"/><path d="m390.026 289.643c-17.799 40.506 41.928 68.549 64.15 120.533 29.058-40.272 46.185-89.722 46.185-143.178 0-12.891-1.002-25.548-2.921-37.902-32.313 6.821-90.62 22.329-107.414 60.547z"/></g></g></svg>