<svg id="Layer_1" enable-background="new 0 0 512 512" height="512" viewBox="0 0 512 512" width="512" xmlns="http://www.w3.org/2000/svg"><g><path d="m256 21.996c-135.311 0-245.002 109.691-245.002 245.002 0 106.835 68.388 197.682 163.769 231.195l67.819 13.438c4.442.24 8.912.37 13.414.37 3.324 0 6.628-.085 9.919-.217l71.313-13.591c95.381-33.513 163.769-124.36 163.769-231.195.001-135.311-109.69-245.002-245.001-245.002z" fill="#88ce65"/><path d="m326.514 370.909c-1.717 2.027-4.037 3.557-6.747 4.283-21.224 5.686-44.178 8.382-67.046 8.097 1.387 1.118 2.871 2.115 4.459 2.967-4.215 2.864-12.043 10.119-12.043 24.494l.002 50.674c-.006.116-.348 8.604 4.778 15.014 4.764-2.437 11.736-.284 12.553 6.546l3.449 28.8c24.909-.992 48.858-5.701 71.313-13.591z" fill="#4f71b6"/><path d="m192.234 375.193c-2.711-.726-5.032-2.257-6.749-4.285l-10.719 127.285c21.404 7.521 44.163 12.161 67.819 13.438l2.92-28.501c.405-3.953 2.894-6.376 5.849-7.269-5.141-6.031-4.718-14.36-4.718-14.36s0-32.25 0-50.75 13.75-24.63 13.75-24.63c-1.91-.796-3.626-1.746-5.17-2.812-21.515-.065-43.015-2.766-62.982-8.116z" fill="#3c58a0"/><path d="m385.414 134.337c-8.823-26.714-33.859-44.71-61.993-44.71h-9.934c-8.665 27.844-30.341 52.634-57.215 52.802-8.693 9.061-16.217 21.861-16.217 39.071l.002 170.49c-.015.272-.337 6.749 1.889 14.366 2.643 9.042 7.795 15.807 14.985 19.757 21.468-.076 42.914-2.777 62.835-8.115 5.921-1.587 10.016-6.982 9.908-13.111l-2.563-167.628c-.045-2.897 4.19-3.248 4.623-.383l4.696 31.039c15.496 9.959 46.535 6.306 53.879-3.04 7.754-50.554-1.445-80.091-4.895-90.538z" fill="#49b1f7"/><path d="m241.554 352.072s0-130.572 0-170.572c0-17.476 7.872-30.266 16.738-39.129-.76.04-1.524.066-2.292.066-26.842 0-48.775-24.744-57.5-52.809h-9.921c-28.133 0-53.17 17.996-61.992 44.71-3.451 10.447-12.65 39.984-4.895 90.538 7.344 9.346 38.383 12.998 53.879 3.04l4.695-31.039c.433-2.865 4.667-2.514 4.623.383l-2.564 167.628c-.108 6.13 3.987 11.525 9.909 13.111 21.542 5.772 44.866 8.465 68.072 8.085-20.141-8.465-18.752-34.012-18.752-34.012z" fill="#1e9ef4"/><path d="m307.748 107.872c-8.304 5.616-19.002 9.632-31.458 7.176-13.428-2.649-27.153-2.649-40.581 0-12.456 2.456-23.154-1.56-31.458-7.175 11.473 20.893 30.367 36.347 51.748 36.347 21.383-.001 40.276-15.455 51.749-36.348z" fill="#ffc7ab"/><path d="m279.164 3.975c-13.48 6.883-32.776 20.642-32.776 43.025 0 3.897-.041 7.652-.081 11.263-.299 27.264-.504 47.027 18.392 56.356 3.879.324 7.748.858 11.592 1.616 11.952 2.357 22.277-1.253 30.429-6.509 7.935-13.697 12.636-29.943 12.636-45.788 0-29.824-16.664-51.467-40.192-59.963z" fill="#56415e"/><path d="m281.01 4.663c-7.673-3.043-16.126-4.663-25.01-4.663-34.991 0-63.356 25.017-63.356 63.939 0 15.844 4.701 32.091 12.636 45.788 8.153 5.256 18.478 8.866 30.43 6.509 10.733-2.117 21.655-2.537 32.464-1.27-.629-.518-1.389-.999-2.306-1.434-21.019-9.97-17.98-33.032-17.98-66.532 0-22.425 19.938-35.886 33.122-42.337z" fill="#47354f"/><path d="m358.714 274.499c-9.802-1.927-20.435 1.067-31.599 8.876-.785 6.098-1.945 12.471-4.667 20.763l-15.431 37.802c-1.46 3.577-3.139 7.063-5.023 10.437-3.661 6.554-7.07 12.865-13.288 17.362l-8.283 5.99c-3.648 2.639-3.965 7.733-1.037 11.153 1.813 2.118 2.294 5.079 1.23 7.667l-2.537 6.177c-3.712 9.035-1.111 19.661 6.772 25.43 9.793 7.167 23.545 4.553 30.048-5.613l54.212-110.42c4.607-7.202 6.774-12.036 9.279-22.91-2.18-2.954-8.728-10.562-19.676-12.714z" fill="#ffc7ab"/><path d="m336.429 227.915-6.366 33.316c-1.807 9.456-2.122 16.457-3.223 24.168.002-.001.003-.002.005-.003 33.623-24.437 51.082 3.78 51.082 3.78 2.71-11.123 5.62-28.866 12.383-64.3-7.363 5.541-24.268 13.427-53.881 3.039z" fill="#ffaa7b"/><path d="m121.691 224.876c7.362 5.541 24.267 13.427 53.879 3.039l6.366 33.316c3.095 16.2 1.794 25.178 7.615 42.907l15.431 37.802c1.46 3.577 3.139 7.064 5.023 10.437 3.661 6.554 7.07 12.865 13.288 17.362l8.283 5.99c3.648 2.639 3.965 7.733 1.037 11.153-1.813 2.118-2.294 5.079-1.23 7.667l2.537 6.177c3.712 9.035 1.11 19.661-6.772 25.43-9.793 7.167-23.545 4.553-30.048-5.613l-54.212-110.419c-9.366-14.644-8.645-19.479-21.197-85.248z" fill="#ffaa7b"/><g fill="#b4d667"><path d="m501.002 266.998c0-53.887-17.411-103.699-46.894-144.149-15.658 15.506-28.007 40.941-24.22 81.651 8 86-18.31 150.93-49 181.62-17.715 17.715-12.31 55.564 13.696 82.917 64.266-44.159 106.418-118.169 106.418-202.039z"/><path d="m10.998 266.998c0-53.887 17.411-103.699 46.894-144.149 15.658 15.506 28.007 40.941 24.22 81.651-8 86 18.31 150.93 49 181.62 17.715 17.715 12.311 55.564-13.696 82.917-64.266-44.159-106.418-118.169-106.418-202.039z"/></g></g></svg>