<svg id="Layer_1" enable-background="new 0 0 512 512" height="512" viewBox="0 0 512 512" width="512" xmlns="http://www.w3.org/2000/svg"><g><path d="m486.624 349.852c9.299-25.88 14.379-53.773 14.379-82.854 0-135.311-109.691-245.002-245.002-245.002s-245.002 109.691-245.002 245.002c0 29.086 5.081 56.982 14.383 82.866z" fill="#816ae2"/><path d="m375.695 160.973c-35.729 0-46.528-34.89-59.034-75.288-1.545-4.99-3.143-10.151-4.808-15.312-4.22-13.077-3.6-24.557 1.841-34.118 4.127-7.252 10.491-12.422 16.541-15.996-21.763-12.868-47.135-20.259-74.235-20.259-21.25 0-41.439 4.545-59.659 12.708-3.972 11.283-8.674 30.974-2.107 49.495 4.953 13.971 15.491 24.691 31.325 31.872l4.668 20.083c-1.227 2.774-6.645 16.344-1.79 29.825 3.066 8.516 9.602 15.188 19.434 19.839l6.45 19.364c-2.024 2.673-8.947 12.848-7.505 25.317.997 8.618 5.776 16.394 14.216 23.134-.611.561-1.402 1.312-2.31 2.225 1.539-.123 3.092-.201 4.663-.201 15.163 0 28.953 5.853 39.247 15.421 5.456 5.072 13.896 5.072 19.353 0 10.294-9.567 24.084-15.421 39.247-15.421 3.955 0 7.811.411 11.541 1.169 17.965-23.815 28.844-53.293 29.482-85.293-7.381 6.824-16.199 11.436-26.56 11.436z" fill="#ffdd40"/><path d="m328.742 19.376c-13.14 8.012-27.332 23.512-18.317 51.457 15.27 47.333 23.937 91.639 65.27 91.639 10.303 0 19.096-4.318 26.495-10.799.058-1.7.095-3.406.095-5.12 0-54.41-29.598-101.894-73.543-127.177z" fill="#f7e38d"/><path d="m165.539 233.661c15.163 0 28.953 5.853 39.246 15.421 5.457 5.072 13.896 5.072 19.353 0 9.757-9.069 22.658-14.791 36.889-15.364 1.456-1.407 2.357-2.158 2.357-2.158-29.311-21.94-7.384-48.081-7.384-48.081l-6.91-20.744c-33.272-15.265-17.285-48.417-17.285-48.417l-4.952-21.307c-45.244-20.036-35.082-63.366-28.582-81.149-52.082 22.435-88.556 74.293-88.556 134.692 0 34.867 12.162 66.884 32.456 92.043 7.144-3.169 15.048-4.936 23.368-4.936z" fill="#ffb332"/><path d="m429.027 290.137c-5.675-1.727-10.071-6.328-11.222-12.147-5.237-26.469-28.567-46.429-56.574-46.429-15.163 0-28.953 5.854-39.247 15.421-5.456 5.072-13.896 5.072-19.353 0-10.294-9.567-24.084-15.421-39.247-15.421-.797 0-1.588.025-2.377.057.008.007.016.014.024.02-5.381 4.939-24.134 23.953-23.742 48.754.267 16.891 9.436 32.741 27.26 47.137-2.492 1.917-7.385 6.052-11.643 11.869-7.911 10.809-9.71 22.207-5.201 32.963 10.078 24.039.169 42.719.117 42.819-.524.826-12.786 20.479-7.194 41.925 3.45 13.23 12.959 24.125 28.264 32.383 8.572 4.625 14.276 11.587 16.984 20.705 93.059-11.315 170.013-74.806 200.747-160.34-7.562-28.511-29.5-51.168-57.596-59.716z" fill="#49b1f7"/><path d="m263.384 231.56c-15.163 0-28.953 5.854-39.247 15.421-5.456 5.072-13.896 5.072-19.353 0-10.294-9.567-24.084-15.421-39.246-15.421-27.058 0-49.761 18.627-55.994 43.758-1.577 6.361-6.994 11.048-13.486 11.946-34.349 4.751-61.997 29.86-70.678 62.6 33.972 94.528 124.395 162.136 230.62 162.136 10.63 0 21.099-.688 31.372-2.002-2.591-8.94-8.082-16.606-17.767-21.832-49.425-26.667-20.515-72.182-20.515-72.182s10.503-19.151 0-44.204 17.933-44.203 17.933-44.203c-61.341-47.923-3.639-96.017-3.639-96.017z" fill="#1e9ef4"/><g><g><g><path d="m111.903 415.984c-11.971 0-23.227-4.77-30.96-13.103-3.897-4.2-3.984-10.864.104-14.878 4.284-4.206 11.16-3.972 15.151.433 3.712 4.096 9.582 6.541 15.704 6.541 5.912 0 9.3-3.551 9.728-5.951.506-2.83-3.548-5.399-7.51-6.861-10.517-3.879-19.86-8.038-20.252-8.212-.506-.226-.993-.491-1.457-.794-7.792-5.08-11.807-13.986-10.478-23.243 1.408-9.813 8.55-17.796 18.638-20.835 13.086-3.942 25.416.7 32.636 5.328 8.383 5.374 4.661 18.558-5.356 18.658-.82-.07-3.602.453-6.69-1.365-2.962-1.745-8.647-4.279-14.532-2.506-2.239.674-3.661 2.025-3.903 3.706-.098.681-.032 1.591.72 2.315 2.639 1.151 10.031 4.321 17.944 7.241 18.209 6.716 22.746 20.036 20.921 30.262-2.408 13.48-15.196 23.264-30.408 23.264z" fill="#deeeff"/></g></g><g><g><path d="m402.232 381.555c-3.547 0-6.855-1.791-8.794-4.761l-21.529-32.972c-3.171-4.858-1.805-11.366 3.052-14.537 4.856-3.173 11.365-1.806 14.537 3.051l12.721 19.482 12.563-19.299c3.164-4.862 9.67-6.238 14.533-3.073 4.861 3.164 6.237 9.672 3.073 14.532l-21.352 32.801c-1.937 2.976-5.246 4.772-8.796 4.774-.003.002-.005.002-.008.002z" fill="#deeeff"/></g><g><path d="m402.149 415.984c-.009 0-.018 0-.026 0-5.801-.014-10.492-4.729-10.478-10.529l.084-34.429c.014-5.792 4.714-10.478 10.503-10.478h.026c5.801.014 10.492 4.728 10.478 10.529l-.084 34.429c-.015 5.793-4.715 10.478-10.503 10.478z" fill="#deeeff"/></g></g><g><g><path d="m285.534 415.984c-2.913 0-5.812-1.205-7.889-3.564l-28.313-32.169c-3.833-4.354-3.409-10.991.945-14.824 4.355-3.832 10.992-3.409 14.824.946l28.313 32.169c3.833 4.354 3.409 10.991-.945 14.824-1.995 1.756-4.47 2.618-6.935 2.618z" fill="#deeeff"/></g><g><path d="m249.09 415.984c-5.801 0-10.503-4.703-10.503-10.503v-67.401c0-5.801 4.702-10.503 10.503-10.503s10.503 4.703 10.503 10.503v67.401c0 5.8-4.702 10.503-10.503 10.503z" fill="#deeeff"/></g><g><path d="m249.235 383.694c-5.77 0-10.465-4.659-10.502-10.437 0 0-.081-12.765-.081-17.661 0-3.996-.045-17.48-.045-17.48-.009-2.793 1.093-5.473 3.064-7.451 1.97-1.978 4.648-3.088 7.439-3.088h17.911c15.997 0 29.011 12.569 29.011 28.019s-13.014 28.021-29.011 28.021c-4.954 0-17.719.077-17.723.077-.019 0-.041 0-.063 0zm10.411-35.111c.008 2.857.013 5.559.013 7.013 0 1.688.01 4.32.022 7.036 2.82-.013 5.574-.023 7.341-.023 4.264 0 8.005-3.277 8.005-7.014 0-3.736-3.74-7.013-8.005-7.013h-7.376z" fill="#deeeff"/></g></g><g><g><path d="m353.567 415.984c-2.914 0-5.813-1.205-7.889-3.564l-28.312-32.169c-3.832-4.354-3.409-10.992.945-14.824 4.355-3.832 10.992-3.409 14.824.946l28.312 32.169c3.833 4.354 3.409 10.992-.946 14.824-1.994 1.756-4.47 2.618-6.934 2.618z" fill="#deeeff"/></g><g><path d="m317.123 415.984c-5.801 0-10.503-4.703-10.503-10.503v-67.401c0-5.801 4.703-10.503 10.503-10.503 5.801 0 10.503 4.703 10.503 10.503v67.401c0 5.8-4.702 10.503-10.503 10.503z" fill="#deeeff"/></g><g><path d="m317.268 383.694c-5.77 0-10.465-4.659-10.502-10.438 0 0-.08-12.764-.08-17.66 0-3.996-.044-17.48-.044-17.48-.009-2.793 1.093-5.473 3.064-7.451 1.97-1.978 4.647-3.088 7.439-3.088h17.911c15.997 0 29.011 12.569 29.011 28.019s-13.014 28.021-29.011 28.021c-4.953 0-17.719.077-17.723.077-.022 0-.044 0-.065 0zm10.411-35.111c.008 2.857.013 5.559.013 7.013 0 1.688.01 4.32.022 7.036 2.82-.013 5.574-.023 7.341-.023 4.264 0 8.005-3.277 8.005-7.014 0-3.736-3.74-7.013-8.005-7.013h-7.376z" fill="#deeeff"/></g></g><g><path d="m192.223 415.804c-27.538 2.455-50.512-20.52-48.057-48.058 1.882-21.109 18.881-38.108 39.99-39.989 27.538-2.454 50.512 20.519 48.057 48.057-1.882 21.109-18.881 38.108-39.99 39.99zm-4.034-67.221c-12.791 0-23.197 10.406-23.197 23.197 0 12.792 10.406 23.198 23.197 23.198s23.197-10.406 23.197-23.198c0-12.791-10.406-23.197-23.197-23.197z" fill="#deeeff"/></g></g><g><path d="m200.672 205.337c-2.807 0-5.606-1.118-7.674-3.331-3.962-4.237-3.738-10.884.499-14.845 17.029-15.921 39.227-24.689 62.503-24.689s45.473 8.768 62.503 24.689c4.238 3.961 4.461 10.608.5 14.845-3.962 4.238-10.608 4.461-14.846.5-13.125-12.27-30.227-19.027-48.157-19.027s-35.033 6.757-48.157 19.027c-2.025 1.894-4.602 2.831-7.171 2.831z" fill="#ff8f33"/></g><g><path d="m310.425 128.629c-12.93 0-25.002-6.709-33.991-18.891-3.444-4.668-2.452-11.244 2.215-14.688s11.243-2.452 14.688 2.215c2.854 3.868 8.869 10.357 17.088 10.357 8.218 0 14.234-6.489 17.088-10.357 3.445-4.669 10.02-5.661 14.688-2.215 4.667 3.444 5.659 10.02 2.214 14.687-8.988 12.183-21.06 18.892-33.99 18.892z" fill="#ff8f33"/></g><g><path d="m201.575 128.629c-12.93 0-25.002-6.709-33.991-18.891-3.444-4.668-2.452-11.244 2.215-14.688s11.243-2.452 14.688 2.215c2.854 3.868 8.869 10.357 17.088 10.357s14.234-6.489 17.088-10.357c3.444-4.668 10.019-5.66 14.688-2.215 4.668 3.444 5.659 10.02 2.215 14.688-8.99 12.182-21.061 18.891-33.991 18.891z" fill="#ff8f33"/></g><path d="m440.362 242.5c22.288 22.288 44.879 27.401 60.607 27.529.012-1.01.033-2.018.033-3.031 0-47.852-13.732-92.49-37.451-130.216-22.3 31.144-49.187 79.719-23.189 105.718z" fill="#9181f2"/><path d="m71.638 242.5c-22.288 22.288-44.879 27.401-60.607 27.529-.012-1.01-.033-2.018-.033-3.031 0-47.852 13.732-92.49 37.451-130.216 22.3 31.144 49.187 79.719 23.189 105.718z" fill="#9181f2"/><circle cx="366.891" cy="274.414" fill="#73c3f9" r="21.529"/></g></svg>