<svg id="Layer_1" enable-background="new 0 0 512 512" height="512" viewBox="0 0 512 512" width="512" xmlns="http://www.w3.org/2000/svg"><g><path d="m256 21.996c-135.311 0-245.002 109.691-245.002 245.002 0 115.007 79.249 211.489 186.113 237.86l57.516 7.125c.459.003.914.017 1.373.017 5.78 0 11.51-.215 17.19-.609l60.17-11.868c97.398-32.389 167.642-124.249 167.642-232.525 0-135.311-109.691-245.002-245.002-245.002z" fill="#47354f"/><path d="m374.225 310.745c-6.993 2.444-12.736 7.724-17.147 15.714 1.605 5.686 3.019 11.488 3.632 19.932l.077 34.366c.007 3.252-.184 6.503-.573 9.732-.754 6.273-1.389 12.277-4.792 17.767l-4.533 7.313c-1.997 3.221-.614 7.289 2.76 9.015 2.089 1.069 3.41 3.22 3.41 5.576v5.62c0 8.221 5.424 15.662 13.405 17.633 9.917 2.448 19.788-3.986 21.599-13.98l6.891-103.305c1.407-7.764 1.441-12.373-.592-23.63-4.34-1.942-14.075-5.269-24.137-1.753z" fill="#ffc7ab"/><path d="m398.679 314.3c-1.643-9.596-4.964-24.242-10.487-51.323-3.959 6.669-14.598 18.215-40.975 19.599l5.699 27.974c1.46 7.166 3.227 12.386 4.74 18.007 13.125-25.603 35.475-16.924 41.023-14.257z" fill="#ffaa7b"/><path d="m142.728 262.978c3.959 6.669 14.598 18.215 40.975 19.599l-5.699 27.974c-2.771 13.603-6.656 20.176-7.794 35.841l-.077 34.366c-.007 3.252.184 6.503.573 9.732.755 6.273 1.389 12.277 4.792 17.767l4.533 7.313c1.997 3.221.614 7.289-2.76 9.015-2.089 1.069-3.41 3.22-3.41 5.576v5.62c0 8.221-5.424 15.662-13.406 17.633-9.916 2.448-19.787-3.986-21.599-13.98l-6.89-103.305c-2.609-14.399-.501-17.932 10.762-73.151z" fill="#ffaa7b"/><path d="m324.811 397.995c-1.445 1.706-3.398 2.994-5.679 3.605-18.579 4.978-38.732 7.216-58.741 6.758 1.042 1.049 2.202 1.929 3.476 2.621-3.649 2.283-9.366 7.142-9.366 15.168l.001 43.124c-.015.523-.224 10.883 5.651 17.639 4.011-2.205 10.055-.422 10.755 5.415l2.283 19.065c20.887-1.448 41.052-5.51 60.171-11.868z" fill="#4f71b6"/><path d="m211.79 401.601c-2.282-.611-4.235-1.9-5.68-3.607l-8.999 106.864c18.439 4.55 37.697 7.016 57.516 7.125l2.001-19.534c.345-3.364 2.483-5.412 5.006-6.143-5.932-6.409-5.634-16.991-5.634-16.991s0-32.5 0-43.167 11.388-15.35 11.388-15.35c-1.863-.526-3.415-1.371-4.719-2.405-17.396-.219-34.733-2.466-50.879-6.792z" fill="#3c58a0"/><path d="m374.385 198.877c-7.426-22.485-28.498-37.631-52.178-37.631h-20.732c-3.817 19.078-18.203 37.667-36.014 37.667-.197 0-.392-.014-.589-.019-5.667 7.195-10.372 16.999-10.372 29.754v164.694c.003.157.088 3.886 1.613 8.052 1.567 4.284 4.1 7.457 7.406 9.375 18.976.167 38.001-2.088 55.611-6.806 4.984-1.335 8.43-5.876 8.34-11.035l-2.601-147.833c0-3.511 2.387-6.701 5.835-7.366 4.024-.775 7.747 1.834 8.53 5.67l8.398 41.221c24.835-1.374 36.204-11.552 41.155-18.723-15.362-75.316-11.497-58.227-14.402-67.02z" fill="#49b1f7"/><path d="m256 393.315s0-133.334 0-164.667c0-12.954 4.94-22.742 10.732-29.777-.422.021-.845.041-1.271.041-17.811 0-32.198-18.589-36.015-37.667h-14.538c-26.34 0-49.633 15.822-59.339 40.309-1.16 2.923-.357.243-13.436 64.342 4.951 7.171 16.32 17.349 41.155 18.722l8.399-41.221c.782-3.836 4.504-6.445 8.529-5.67 3.448.664 5.835 3.855 5.835 7.366l-2.601 147.833c-.09 5.159 3.356 9.7 8.34 11.036 17.579 4.71 36.568 6.965 55.51 6.808-11.036-3.194-11.3-17.455-11.3-17.455z" fill="#1e9ef4"/><path d="m303.314 161.245h-75.708c3.861 20.52 19.337 39.438 37.854 39.438s33.992-18.917 37.854-39.438z" fill="#ffaa7b"/><path d="m318.786 94.504c0 32.76-23.875 67.57-53.326 67.57s-53.326-34.809-53.326-67.57 23.875-53.816 53.326-53.816 53.326 21.056 53.326 53.816z" fill="#ffc7ab"/><path d="m432.717 73.439c-15.587-.924-27.644-16.014-27.764-16.166l-15.104-13.431c-16.006-16.006-6.521-32.606.375-41.948-5.352-1.225-10.915-1.894-16.637-1.894-21.559 0-40.962 9.197-54.526 23.871 2.126 5.695 6.773 12.167 16.911 14.566 16.961 4.013 67.939 66.845 73.266 73.459-.399 2.113-1.044 8.057 3.104 12.473 2.527 2.689 6.321 4.248 11.32 4.69 14.852-13.576 24.171-33.104 24.171-54.812 0-1.553-.064-3.091-.158-4.621-4.801 2.829-9.807 4.111-14.958 3.813z" fill="#ff4155"/><path d="m447.759 71.325c-1.339-34.54-26.255-63.027-59.119-69.796-6.898 9.546-16.33 26.897.147 43.374l14.987 13.298s20.588 26.202 43.985 13.124z" fill="#ff7186"/><path d="m410.857 111.516s-56.014-70.156-74.539-74.539c-9.949-2.354-14.265-8.81-16.132-14.285-12.897 13.356-20.845 31.522-20.845 51.555 0 41.005 33.241 74.247 74.246 74.247 20.026 0 38.186-7.943 51.541-20.832-18.458-.84-14.271-16.146-14.271-16.146z" fill="#e80054"/><g><path d="m343.389 114.444c-2.56 0-5.118-.977-7.071-2.929-3.905-3.905-3.905-10.237.001-14.143l60.397-60.396c3.905-3.904 10.236-3.902 14.142 0 3.905 3.905 3.905 10.237-.001 14.142l-60.397 60.397c-1.953 1.953-4.512 2.929-7.071 2.929z" fill="#bec8f7"/></g><g fill="#49b1f7"><path d="m190.187 123.506c-13.36 5.914-36.273 19.723-51.001 48.755-6.425 12.665-23.575 14.887-32.947 4.217-7.939-9.038-6.228-23.049 3.749-29.771 14.69-9.896 39.914-21.867 79.4-26.097 1.724-.184 2.385 2.194.799 2.896z"/><path d="m111.677 204.729c-3.122-1.894-7.141-1.521-9.823.957-14.406 13.307-23.216 25.773-28.548 35.485-5.487 9.996-.844 22.544 9.77 26.711 12.53 4.919 26.014-4.4 25.927-17.861-.087-13.645 2.473-25.459 6.103-35.339 1.368-3.726-.035-7.895-3.429-9.953z"/><path d="m76.259 179.179c-1.799-1.951-4.679-2.499-7.051-1.309-12.736 6.391-21.396 13.322-27.073 19.029-5.843 5.874-5.127 15.57 1.445 20.615 7.758 5.956 19.048 2.163 21.696-7.252 2.686-9.544 6.851-17.277 11.373-23.445 1.706-2.325 1.565-5.518-.39-7.638z"/></g><g><path d="m403.785 114.444c-2.559 0-5.119-.977-7.071-2.929l-60.397-60.397c-3.905-3.905-3.906-10.237-.001-14.142 3.905-3.904 10.238-3.904 14.142 0l60.397 60.396c3.905 3.905 3.906 10.237.001 14.143-1.952 1.953-4.511 2.929-7.071 2.929z" fill="#deeeff"/></g><path d="m58 301.315c-15.354-11.905-31.818-15.167-46.216-14.706 5.344 67.456 38.001 127.219 86.925 168.224 30.558-53.233-7.826-128.024-40.709-153.518z" fill="#56415e"/><path d="m473.145 153.463c-27.125 12.028-62.357 39.526-48.258 99.409 22 93.442 12 123.775 12 123.775s-5.511 25.737 12.93 40.212c32.082-41.426 51.185-93.409 51.185-149.862 0-40.974-10.073-79.592-27.857-113.534z" fill="#56415e"/><circle cx="127.73" cy="160.786" fill="#73c3f9" r="8.843"/><ellipse cx="93.306" cy="251.081" fill="#73c3f9" rx="8.843" ry="8.843" transform="matrix(.16 -.987 .987 .16 -169.479 302.963)"/></g></svg>