<svg id="Capa_1" enable-background="new 0 0 512 512" height="512" viewBox="0 0 512 512" width="512" xmlns="http://www.w3.org/2000/svg"><g><path d="m487.213 266.064c0 10.149 24.197 10.096 23.048 19.936-3.832 32.827-13.874 63.757-28.92 91.585-1.866 3.45-13.983 4.611-16 7.963-9.565 15.897-20.807 30.67-33.482 44.073-1.831 1.936 6.484 6.085 4.594 7.963-46.282 45.995-110.049 74.416-180.453 74.416-68.173 0-130.123-26.648-176-70.096v-371.808c45.877-43.448 107.827-70.096 176-70.096 70.404 0 134.17 28.421 180.452 74.415 2.403 2.388-4.397 11.721-2.09 14.202 11.802 12.693 13.926 19.689 22.979 34.578 2.237 3.68 21.946 7.421 24 11.22 15.046 27.828 25.089 58.758 28.92 91.585.422 3.612-19.233 7.247-18.963 10.903.465 6.305-4.085 22.737-4.085 29.161z" fill="#d5f1fe"/><path d="m150.909 489.504c-26.299-11.855-50.236-28.022-70.909-47.6v-371.808c20.673-19.579 44.61-35.745 70.909-47.6z" fill="#b4e7fd"/><path d="m481.34 134.415h-186.19c-16.569 0-30-13.431-30-30 0-16.569 13.431-30 30-30h141.301c17.734 17.623 32.9 37.827 44.889 60zm-225.34 303.17h180.452c17.733-17.623 32.899-37.827 44.888-60h-225.34c-16.569 0-30 13.431-30 30 0 16.569 13.431 30 30 30zm254.26-211.585h-99.19c-16.569 0-30 13.431-30 30 0 16.569 13.431 30 30 30h99.19c1.149-9.84 1.74-19.851 1.74-30s-.591-20.16-1.74-30z" fill="#93dcfc"/><path d="m265.163 105.275c4.983.831 10.268 1.278 15.743 1.278h182.968c6.394 8.878 12.233 18.182 17.467 27.862h-186.191c-16.281 0-29.532-12.969-29.987-29.14zm174.761 152.863c-24.491 0-45.199-8.942-51.991-21.235-4.287 5.188-6.862 11.841-6.862 19.097 0 16.568 13.431 30 30 30h99.19c1.068-9.148 1.653-18.444 1.73-27.862zm-183.924 179.447h180.452c8.739-8.685 16.854-17.997 24.273-27.862h-234.65c1.097 15.571 14.075 27.862 29.925 27.862z" fill="#72d1fb"/><path d="m113.172 468.484c-68.267-45.978-113.172-123.987-113.172-212.484s44.905-166.506 113.172-212.484z" fill="#2b3894"/><path d="m113.172 43.516v424.968c-15.46-10.412-29.721-22.467-42.534-35.914v-353.14c12.813-13.447 27.075-25.502 42.534-35.914z" fill="#232e7a"/><path d="m180.102 226h229.898c16.569 0 30 13.431 30 30 0 16.569-13.431 30-30 30h-276.896c12.631-22.297 28.511-42.512 46.998-60z" fill="#1ed688"/><path d="m439.924 258.138c-1.096 15.571-14.074 27.862-29.924 27.862h-276.896c5.495-9.699 11.604-19.004 18.275-27.862z" fill="#1ab975"/><path d="m184.516 291.122c-11.981 19.989-33.879 33.354-58.894 33.292-37.457-.091-68.153-30.787-68.245-68.244-.061-25.056 13.348-46.985 33.392-58.954 1.16-.692 2.517.519 1.977 1.757-3.697 8.472-5.728 17.837-5.679 27.682.184 37.331 30.739 67.884 68.069 68.069 9.804.048 19.132-1.966 27.576-5.633 1.272-.552 2.517.841 1.804 2.031z" fill="#1ab975"/><path d="m194.208 256c0 13.104-3.684 25.348-10.073 35.752-10.404 6.389-22.647 10.073-35.752 10.073-37.785 0-68.415-30.63-68.415-68.415 0-13.104 3.684-25.348 10.073-35.751 10.404-6.389 22.647-10.074 35.752-10.074 37.784 0 68.415 30.63 68.415 68.415z" fill="#35e298"/><path d="m164.974 276.19c1.093 3.996-1.261 8.12-5.256 9.213-9.512 2.601-21.718 3.901-33.925 3.901s-24.413-1.301-33.925-3.901c-3.996-1.093-6.349-5.217-5.256-9.213 1.092-3.995 5.218-6.345 9.212-5.256 16.245 4.441 43.692 4.441 59.938 0 3.994-1.088 8.119 1.261 9.212 5.256zm-14.09-32.457c4.832 0 9.48-2.244 12.754-6.155 2.658-3.177 2.238-7.907-.939-10.565-3.176-2.658-7.906-2.238-10.565.938-.416.497-.871.782-1.25.782s-.834-.285-1.25-.781c-2.658-3.177-7.388-3.597-10.564-.939-3.177 2.658-3.598 7.388-.939 10.564 3.273 3.912 7.921 6.156 12.753 6.156zm-50.183 0c4.832 0 9.48-2.243 12.753-6.155 2.658-3.177 2.238-7.907-.939-10.565s-7.907-2.238-10.565.938c-.416.497-.871.782-1.25.782s-.834-.285-1.25-.782c-2.658-3.176-7.388-3.596-10.565-.938s-3.597 7.389-.939 10.565c3.275 3.912 7.923 6.155 12.755 6.155z" fill="#127d4f"/><path d="m120.102 377.585h139.898c16.569 0 30 13.431 30 30 0 16.569-13.431 30-30 30h-186.896c12.631-22.297 28.511-42.512 46.998-60z" fill="#cc4646"/><path d="m289.924 409.723c-1.096 15.571-14.075 27.862-29.924 27.862h-186.896c5.495-9.699 11.604-19.004 18.275-27.862z" fill="#af3030"/><path d="m70.806 336.596c0 2.761-2.239 5-5 5h-27.5c-2.761 0-5-2.239-5-5s2.239-5 5-5h27.5c2.761 0 5 2.239 5 5z" fill="#e5554e"/><path d="m184.516 442.707c-11.981 19.989-33.879 33.354-58.894 33.293-37.457-.091-68.153-30.788-68.245-68.245-.061-25.056 13.348-46.985 33.392-58.953 1.16-.693 2.517.519 1.977 1.757-3.697 8.472-5.728 17.837-5.679 27.682.184 37.33 30.739 67.884 68.069 68.068 9.804.048 19.132-1.965 27.576-5.633 1.272-.552 2.517.841 1.804 2.031z" fill="#e5554e"/><path d="m194.208 407.585c0 13.104-3.684 25.348-10.073 35.752-10.404 6.389-22.647 10.073-35.752 10.073-37.785 0-68.415-30.63-68.415-68.415 0-13.104 3.684-25.348 10.073-35.751 10.404-6.389 22.647-10.074 35.752-10.074 37.784 0 68.415 30.63 68.415 68.415z" fill="#f76c57"/><path d="m163.042 435.168c-1.464 1.464-3.384 2.196-5.303 2.196s-3.839-.732-5.303-2.196c-14.691-14.691-38.596-14.691-53.287 0-2.929 2.928-7.678 2.928-10.606 0-2.929-2.93-2.929-7.678 0-10.607 20.54-20.539 53.96-20.539 74.5 0 2.929 2.929 2.929 7.677-.001 10.607zm-66.65-44.839c.646-.062 1.169.063 1.437.331s.388.791.331 1.436c-.367 4.126 2.681 7.768 6.807 8.135.226.02.45.029.673.029 3.842 0 7.115-2.937 7.462-6.836.451-5.08-1.249-9.953-4.665-13.37-3.416-3.416-8.285-5.117-13.37-4.666-4.126.366-7.174 4.008-6.808 8.134s4.018 7.158 8.133 6.807zm49.554 9.931c.223 0 .447-.01.673-.029 4.125-.367 7.173-4.009 6.807-8.135-.058-.645.063-1.168.331-1.436.269-.267.792-.39 1.438-.331 4.122.356 7.768-2.681 8.134-6.808.366-4.126-2.682-7.768-6.808-8.134-5.077-.449-9.955 1.25-13.371 4.667-3.416 3.416-5.116 8.289-4.665 13.369.346 3.901 3.619 6.838 7.461 6.837z" fill="#af3030"/><path d="m326.896 104.415c0 16.568-13.431 30-30 30h-186.896c12.631-22.297 28.512-42.512 46.998-60h139.898c16.569 0 30 13.431 30 30z" fill="#e9cc5a"/><path d="m326.821 106.553c-1.096 15.57-14.075 27.862-29.924 27.862h-186.897c5.495-9.699 11.604-19.004 18.275-27.862z" fill="#eac23f"/><path d="m184.516 139.537c-11.981 19.99-33.879 33.354-58.894 33.293-37.457-.091-68.153-30.787-68.245-68.245-.06-25.056 13.349-46.985 33.393-58.953 1.16-.692 2.517.519 1.977 1.757-3.697 8.472-5.728 17.837-5.679 27.682.184 37.33 30.739 67.884 68.069 68.069 9.804.048 19.132-1.966 27.576-5.633 1.271-.553 2.516.84 1.803 2.03z" fill="#e9cc5a"/><path d="m194.208 104.415c0 13.104-3.684 25.348-10.073 35.751-10.404 6.389-22.647 10.074-35.752 10.074-37.785 0-68.415-30.63-68.415-68.415 0-13.104 3.684-25.348 10.073-35.752 10.404-6.388 22.647-10.073 35.751-10.073 37.785 0 68.416 30.63 68.416 68.415z" fill="#fff36c"/><path d="m163.042 114.602c2.929 2.93 2.929 7.678 0 10.607-10.27 10.27-23.76 15.404-37.25 15.404s-26.98-5.135-37.25-15.404c-2.929-2.93-2.929-7.678 0-10.607 2.929-2.928 7.678-2.928 10.606 0 14.691 14.691 38.596 14.691 53.287 0 2.93-2.928 7.679-2.928 10.607 0zm-74.156-24.202c3.176 2.658 7.907 2.237 10.565-.938.416-.497.871-.782 1.25-.782.378 0 .834.285 1.25.782 1.483 1.772 3.612 2.687 5.756 2.687 1.698 0 3.405-.573 4.809-1.748 3.177-2.658 3.597-7.389.939-10.565-3.273-3.912-7.922-6.155-12.753-6.155-4.832 0-9.48 2.243-12.754 6.155-2.659 3.176-2.239 7.906.938 10.564zm50.184 0c1.404 1.175 3.111 1.748 4.809 1.748 2.144 0 4.273-.914 5.756-2.688.416-.496.871-.781 1.25-.781s.834.285 1.25.782c2.658 3.176 7.389 3.597 10.565.938 3.177-2.658 3.597-7.389.939-10.565-3.274-3.912-7.922-6.155-12.754-6.155s-9.48 2.244-12.753 6.156c-2.659 3.178-2.239 7.907.938 10.565z" fill="#c1924d"/><path d="m230 38.75c0 2.761-2.239 5-5 5h-8.75v8.75c0 2.761-2.239 5-5 5s-5-2.239-5-5v-8.75h-8.75c-2.761 0-5-2.239-5-5s2.239-5 5-5h8.75v-8.75c0-2.761 2.239-5 5-5s5 2.239 5 5v8.75h8.75c2.761 0 5 2.239 5 5z" fill="#eac23f"/></g></svg>