<svg id="Layer_1" enable-background="new 0 0 512 512" height="512" viewBox="0 0 512 512" width="512" xmlns="http://www.w3.org/2000/svg"><g><path d="m21.046 336.605 26.642 59.39c7.333 11.817 15.643 22.961 24.818 33.325l108.165 70.861c23.734 7.663 49.045 11.819 75.329 11.819s51.594-4.156 75.329-11.818l108.164-70.86c9.175-10.364 17.485-21.51 24.819-33.327l26.642-59.393c6.527-22.066 10.048-45.422 10.048-69.605 0-135.311-109.691-245.002-245.002-245.002s-245.002 109.691-245.002 245.002c0 24.184 3.521 47.541 10.048 69.608z" fill="#ffdd40"/><path d="m389.632 472.363c-17.129.318-34.357-1.631-50.258-5.892-1.986-.532-3.685-1.653-4.942-3.138l-3.103 36.849c20.787-6.71 40.358-16.118 58.303-27.819z" fill="#4f71b6"/><path d="m457.194 362.922 4.958 24.337c.669 3.285 1.413 6.093 2.16 8.736 8.129-13.1 15.055-27.021 20.628-41.614-5.632 4.124-14.355 7.839-27.746 8.541z" fill="#ffc7ab"/><path d="m480.829 290.104c-6.46-19.561-24.793-32.739-45.394-32.739h-18.037c-3.206 16.027-14.987 31.652-29.744 32.709-5.453 6.547-10.292 15.956-10.292 28.74v132.5c0 .178.182 12.61 10.427 22.227 19.232-12.297 36.635-27.198 51.704-44.219l-1.742-99.009c0-3.054 2.077-5.83 5.076-6.408 3.501-.674 6.74 1.596 7.421 4.933l7.307 35.862c12.022-.665 20.414-3.703 26.238-7.341 2.689-6.774 5.074-13.701 7.161-20.757-10.545-51.864-7.762-39.346-10.125-46.498z" fill="#49b1f7"/><path d="m279.291 345.871c3.444 5.802 12.7 15.847 35.648 17.051l-4.958 24.337c-2.411 11.834-5.791 17.553-6.781 31.181l-.067 29.898c-.006 2.829.16 5.658.498 8.467.656 5.458 1.209 10.681 4.169 15.457l3.943 6.362c1.737 2.802.534 6.341-2.401 7.843-1.817.93-2.967 2.802-2.967 4.851v4.89c0 7.152-4.718 13.626-11.663 15.34-8.627 2.129-17.215-3.467-18.79-12.163l-5.994-89.874c-2.269-12.525-.436-15.6 9.363-63.64z" fill="#ffaa7b"/><path d="m122.368 472.363c17.944 11.701 37.516 21.109 58.302 27.819l-3.103-36.847c-1.258 1.484-2.956 2.605-4.941 3.137-15.9 4.26-33.128 6.209-50.258 5.891z" fill="#4f71b6"/><path d="m240.7 387.755s-24.386-13.218-35.05 13.379c1.392 4.936 2.618 9.976 3.15 17.306l.067 29.897c.006 2.829-.16 5.658-.498 8.467-.656 5.458-1.209 10.681-4.169 15.457l-3.943 6.362c-1.737 2.802-.534 6.341 2.401 7.843 1.817.93 2.967 2.802 2.967 4.851v4.889c0 7.153 4.719 13.626 11.663 15.34 8.627 2.129 17.215-3.467 18.79-12.163l5.995-89.874c1.307-7.211 1.253-11.292-.899-22.626-.305.561-.474.872-.474.872z" fill="#dba783"/><path d="m220.697 290.104c-6.461-19.561-24.793-32.739-45.394-32.739h-18.037c-3.32 16.598-15.837 32.77-31.332 32.77-.081 0-.161-.007-.242-.008-5.434 6.545-10.247 15.938-10.247 28.687v132.5c0 .184.182 13.415 11.424 23.137 15.635-.076 31.249-2.038 45.757-5.926 4.336-1.162 7.334-5.112 7.256-9.601l-2.263-128.613c0-3.054 2.077-5.83 5.076-6.408 3.501-.674 6.74 1.596 7.421 4.933l7.307 35.862c21.606-1.195 31.497-10.05 35.805-16.289-13.366-65.521-10.004-50.655-12.531-58.305z" fill="#ff4155"/><path d="m116.945 451.315s0-104 0-132.5c0-13.047 5.136-22.417 10.704-28.752-.568.044-1.139.073-1.715.073-15.495 0-28.012-16.172-31.333-32.77h-12.647c-22.915 0-43.18 13.765-51.623 35.068-.932 2.348-.408.543-9.284 44.171 2.087 7.055 4.471 13.981 7.16 20.755 5.824 3.638 14.216 6.675 26.238 7.34l7.307-35.862c.681-3.337 3.918-5.607 7.42-4.933 3 .578 5.077 3.354 5.077 6.409l-1.742 99.008c15.447 17.449 33.341 32.677 53.15 45.148 1.164.002 2.327-.03 3.491-.049-12.201-9.415-12.203-23.106-12.203-23.106z" fill="#e80054"/><path d="m47.688 395.995c.747-2.643 1.491-5.451 2.16-8.736l4.958-24.337c-13.392-.702-22.115-4.417-27.747-8.541 5.574 14.593 12.5 28.514 20.629 41.614z" fill="#cc8c60"/><path d="m293.458 0h-57.961c-.907 1.944-1.883 4.256-2.765 6.825-3.415 9.95-3.686 18.856-.781 25.756 3.431 8.153 11.136 13.65 22.905 16.349l24.874 71.924c-1.59 3.085-8.048 16.968-2.376 29.095 1.768 3.78 4.535 6.977 8.263 9.586h7.841c43.872 0 79.767-35.895 79.767-79.767.001-43.873-35.895-79.768-79.767-79.768z" fill="#49b1f7"/><path d="m264.084 163.793c.741-2.505 2.988-4.259 5.6-4.259h18.698c-21.523-12.766-7.02-38.553-7.02-38.553l-25.362-73.333c-34.079-7.318-24.562-35.699-18.843-47.648h-19.908c-43.872 0-79.767 35.895-79.767 79.767 0 43.872 35.895 79.767 79.767 79.767 3.43 0 6.154 2.955 5.808 6.367-1.068 10.539-5.288 20.456-11.952 28.483-2.454 2.957-.389 7.418 3.453 7.333 4.217-.093 8.491-.697 12.745-1.858 18.342-5.007 31.765-19.081 36.781-36.066z" fill="#1e9ef4"/><path d="m221.856 62.567h6.794c7.611 0 14.682-3.932 18.698-10.397l15.242-24.54c2.451-3.946 7.584-5.245 11.617-2.941 6.516 3.723 9.57 11.473 7.347 18.64l-2.281 7.354c-.971 3.13 1.369 6.304 4.646 6.304h15.579c10.998 0 19.38 9.849 17.621 20.706l-5.701 35.185c-1.401 8.644-8.864 14.995-17.621 14.995h-35.302c-3.639 0-7.22-.902-10.425-2.626-3.205-1.723-6.786-2.625-10.425-2.625h-15.788v-60.055z" fill="#ffc7ab"/><path d="m210.329 89.423h9.599c5 0 9.342-2.913 11.445-7.119v-17.112c0-6.498-5.316-11.814-11.814-11.814h-8.861c-6.498 0-11.814 5.316-11.814 11.814v17.111c2.103 4.207 6.445 7.12 11.445 7.12z" fill="#deeeff"/><path d="m219.559 88.439h-8.861c-6.498 0-11.814-5.316-11.814-11.814v40.748c0 6.498 5.316 11.814 11.814 11.814h8.861c6.498 0 11.814-5.316 11.814-11.814v-40.748c0 6.498-5.316 11.814-11.814 11.814z" fill="#bec8f7"/><path d="m241.7 389.755c-1.472-8.36-4.33-21.033-8.991-43.884-3.444 5.802-12.7 15.847-35.648 17.05l4.958 24.337c1.346 6.609 2.995 11.312 4.361 16.55 10.518-27.503 35.319-14.053 35.32-14.053z" fill="#cc8c60"/><path d="m378.862 451.315s0-104 0-132.5c0-13.217 5.27-22.664 10.921-29.002-1.218.206-2.456.323-3.716.323-15.495 0-28.012-16.172-31.333-32.77h-12.647c-22.915 0-43.18 13.765-51.624 35.068-1.009 2.543-.31.212-11.689 55.977 4.307 6.239 14.199 15.093 35.804 16.288l7.307-35.862c.681-3.337 3.918-5.607 7.42-4.933 2.999.578 5.077 3.354 5.077 6.409l-2.263 128.612c-.079 4.488 2.92 8.439 7.256 9.601 14.884 3.988 30.931 5.966 46.972 5.943.911-.573 1.813-1.159 2.716-1.744-10.186-9.276-10.201-21.41-10.201-21.41z" fill="#1e9ef4"/><path d="m418.999 257.366h-65.865c3.359 17.852 16.823 34.31 32.932 34.31s29.573-16.458 32.933-34.31z" fill="#ffaa7b"/><path d="m432.459 199.302c0 28.501-20.771 58.785-46.393 58.785s-46.393-30.284-46.393-58.785 20.771-46.82 46.393-46.82 46.393 18.319 46.393 46.82z" fill="#ffc7ab"/><path d="m158.866 257.366h-65.865c3.359 17.852 16.823 34.31 32.932 34.31s29.574-16.458 32.933-34.31z" fill="#cc8c60"/><path d="m172.326 199.302c0 28.501-20.771 58.785-46.393 58.785s-46.393-30.284-46.393-58.785 20.771-46.82 46.393-46.82c25.623 0 46.393 18.319 46.393 46.82z" fill="#dba783"/></g></svg>