<svg id="Layer_1" enable-background="new 0 0 512 512" height="512" viewBox="0 0 512 512" width="512" xmlns="http://www.w3.org/2000/svg"><g><path d="m245.002 21.996c-104.13 0-193.074 64.968-228.544 156.575l316.968 316.971c91.609-35.469 156.577-124.414 156.577-228.545.001-135.31-109.69-245.001-245.001-245.001z" fill="#49b1f7"/><path d="m90.048 126.73c3.616 4.71 9.534 7.238 17.606 7.525-.346 8.738-.608 50.366 23.756 76.469 12.768 13.68 30.22 20.684 51.878 20.821l70.895 75.8c-.181 1.989-.473 7.749 1.344 14.042 2.027 7.022 7.139 15.969 19.962 19.108l41.692 91.992c-.246 2.006-.829 9.8 4.012 15.527 3.132 3.706 7.835 5.74 13.998 6.06-.439 3.512-.729 11.417 4.343 16.98 4.057 4.452 10.554 6.319 19.317 5.567 4.54-3.887 8.956-7.96 13.227-12.232 43.333-43.334 67.199-100.95 67.199-162.234s-23.866-118.9-67.199-162.234c-43.334-43.334-100.95-67.2-162.235-67.2-44.338 0-86.751 12.499-123.229 35.817-.612 3.4-1.464 11.813 3.434 18.192z" fill="#ff4155"/><path d="m360.812 474.908c-29.725 3.815-23.865-22.288-23.865-22.288-21.665 0-18.221-20.355-18.221-20.355l-42.178-93.062c-24.48-5.444-20.802-32.38-20.802-32.38l-71.806-76.776c-81.421 0-74.709-97.265-74.709-97.265-27.503 0-20.911-25.127-20.85-25.358-14.606 9.149-28.286 20.01-40.774 32.498-11.88 11.88-22.287 24.84-31.15 38.648-10.62 27.433-16.457 57.247-16.457 88.428 0 46.919 13.198 90.752 36.07 128.005l80.92 80.923c35.872 23.289 86.24 36.074 128.012 36.074 31.18 0 60.994-5.837 88.425-16.457 9.565-6.14 18.711-13.037 27.385-20.635z" fill="#e80054"/><path d="m107.655 134.256c-.346 8.738-.608 50.366 23.756 76.469 12.768 13.68 30.22 20.684 51.878 20.821l70.895 75.8c-.181 1.989-.473 7.749 1.344 14.042 2.027 7.022 7.139 15.969 19.962 19.108l41.692 91.992c-.246 2.006-.829 9.8 4.012 15.527 3.132 3.706 7.835 5.74 13.998 6.06-.001.008-.002.019-.003.027 43.773-36.173 71.714-90.857 71.714-151.945 0-108.659-88.4-197.059-197.058-197.059-37.71 0-72.975 10.655-102.957 29.102.258.014.502.046.767.056z" fill="#ff7186"/><path d="m318.727 432.265-42.178-93.062c-24.48-5.444-20.802-32.38-20.802-32.38l-71.806-76.776c-81.421 0-74.709-97.265-74.709-97.265-57.706 34.408-96.448 97.447-96.448 169.374 0 33.55 8.437 65.164 23.287 92.846 20.216 32.927 47.994 60.706 80.92 80.923 27.683 14.852 59.299 23.29 92.852 23.29 48.394 0 92.76-17.545 127.097-46.595-21.656-.005-18.213-20.355-18.213-20.355z" fill="#ff4155"/><g><path d="m209.843 104.593c-8.94 0-16.188-7.248-16.188-16.188v-72.217c0-8.94 7.247-16.188 16.188-16.188s16.188 7.248 16.188 16.188v72.217c-.001 8.94-7.248 16.188-16.188 16.188z" fill="#ff7186"/></g><g><path d="m495.812 318.345h-72.218c-8.941 0-16.188-7.247-16.188-16.188 0-8.94 7.247-16.188 16.188-16.188h72.218c8.94 0 16.188 7.248 16.188 16.188 0 8.941-7.247 16.188-16.188 16.188z" fill="#ff7186"/></g><path d="m370.185 344.233c-3.794-2.012-7.63-3.779-11.673-5.32-5.893 16.752-21.866 28.797-40.606 28.797-6.673 0-12.991-1.534-18.632-4.257.032.169.059.337.099.508-5.201.676-19.663 3.512-25.506 14.385 2.613 1.316 4.707 2.204 6.411 2.343 10.561.863 19.026 5.06 25.16 12.472 10.021 12.11 11.705 30.18 11.77 40.367 26.056-21.334 45.669-50.25 55.448-83.348.684-2.317-.335-4.815-2.471-5.947z" fill="#ffc839"/><path d="m277.298 338.912c-4.936 1.882-9.707 4.163-14.433 6.827-3.428 1.933-4.975 3.061-7.883 3.299-8.22.672-14.483 3.467-19.255 7.466 2.105 6.427 4.992 8.29 5.084 8.486l.421.098c16.878 3.915 27.3 10.749 33.981 13.917 6.81-12.677 26.137-13.742 26.137-13.742-.137-.35-.248-.688-.346-1.02-11.029-4.731-19.699-13.94-23.706-25.331z" fill="#ffb332"/><path d="m164.703 349.039c-2.908-.238-4.456-1.366-7.883-3.299-4.726-2.665-9.497-4.945-14.433-6.828-5.893 16.752-21.865 28.797-40.606 28.797-7.31 0-14.195-1.839-20.228-5.069.034.22.068.439.115.662-4.345.72-15.864 3.294-25.371 11.158 10.86 22.973 26.722 43.136 46.182 59.069.065-10.187 1.749-28.258 11.77-40.368 6.134-7.412 14.599-11.608 25.16-12.472 7.732-.633 10.727-8.04 39.569-15.721.093-.194 2.895-2.191 4.964-8.479-4.771-3.99-11.029-6.779-19.239-7.45z" fill="#88ce65"/><path d="m61.174 338.912c-4.013 1.53-7.869 3.303-11.674 5.32-2.136 1.132-3.155 3.63-2.47 5.948 2.616 8.854 5.942 17.406 9.901 25.596 11.637-9.843 26.643-11.23 26.643-11.23-.124-.357-.224-.701-.311-1.039-10.257-4.912-18.28-13.767-22.089-24.595z" fill="#6faf46"/><path d="m346.108 335.132c-.188-.188-.361-.392-.537-.594-4.063 11.358-14.929 19.509-27.666 19.509-3.687 0-7.208-.701-10.461-1.947-1.637.518-5.566 2.078-7.397 5.559-.991 1.884-1.216 3.998-.675 6.303-.215.028-.448.06-.694.096 5.808 2.849 12.331 4.456 19.226 4.456 19.082 0 35.346-12.258 41.356-29.31-4.239-1.657-8.596-3.021-13.152-4.072z" fill="#ffdd40"/><path d="m290.238 334.538c-.176.202-.349.406-.537.594-4.556 1.051-8.913 2.415-13.152 4.072 4.166 11.818 13.259 21.33 24.801 26.057-3.676-9.383 7.166-11.908 7.166-11.908.211-.211.412-.435.614-.658-8.782-2.757-15.803-9.525-18.892-18.157z" fill="#ffc839"/><path d="m129.984 335.132c-.188-.188-.362-.392-.537-.594-4.064 11.358-14.929 19.509-27.666 19.509-4.405 0-8.576-.994-12.329-2.739-1.393.452-5.12 1.938-6.975 5.371-1.059 1.959-1.329 4.181-.809 6.624-.134.022-.291.051-.438.076 6.133 3.271 13.127 5.134 20.55 5.134 19.082 0 35.346-12.258 41.356-29.31-4.239-1.656-8.596-3.02-13.152-4.071z" fill="#b4d667"/><path d="m74.114 334.538c-.176.202-.349.406-.537.594-4.556 1.051-8.913 2.415-13.152 4.072 3.965 11.249 12.394 20.409 23.149 25.342-3.287-9.433 6.781-11.943 6.781-11.943.208-.208.405-.423.604-.637-7.818-3.112-14.001-9.478-16.845-17.428z" fill="#88ce65"/><path d="m346.108 335.132c-4.362-4.362-5.468-12.631-5.666-18.417-2.277 2.651-4.666 4.869-6.949 6.642-4.447 3.454-9.935 5.33-15.588 5.33-.629 0-1.254-.032-1.877-.078-.695 6.683-2.672 17.5-8.299 23.404-.337.099-.844.264-1.442.504 3.578 1.499 7.501 2.333 11.618 2.333 12.956 0 24.029-8.208 28.299-19.696-.032-.007-.064-.015-.096-.022z" fill="#ffaa7b"/><path d="m317.537 328.671c-5.522-.08-10.87-1.936-15.22-5.314-2.283-1.773-4.672-3.991-6.948-6.642-.199 5.786-1.305 14.055-5.667 18.417-.032.008-.063.016-.095.023 3.19 8.582 10.178 15.33 18.911 18.197 6.202-6.205 8.305-17.701 9.019-24.681z" fill="#fc9460"/><path d="m129.984 335.132c-4.362-4.362-5.468-12.631-5.667-18.417-2.277 2.651-4.666 4.869-6.948 6.642-4.448 3.454-9.936 5.33-15.589 5.33-.91 0-1.813-.066-2.712-.162-.765 5.741-3.006 16.032-9.509 22.749-.284.089-.694.233-1.174.433 4.039 2.01 8.586 3.145 13.395 3.145 12.956 0 24.029-8.208 28.299-19.696-.032-.009-.063-.017-.095-.024z" fill="#ffaa7b"/><path d="m100.576 328.636c-5.223-.247-10.253-2.072-14.383-5.28-2.283-1.773-4.672-3.991-6.949-6.642-.199 5.786-1.305 14.055-5.667 18.417-.032.008-.063.016-.095.023 2.938 7.904 9.097 14.255 16.873 17.448 7.081-7.08 9.44-17.974 10.221-23.966z" fill="#fc9460"/><path d="m297.19 447.635c7.582-4.57 14.785-9.71 21.537-15.37-.29-16.62-5.016-50.365-38.326-53.088-3.261-.267-4.996-1.532-8.84-3.699-5.299-2.989-10.649-5.546-16.185-7.656-6.608 18.785-24.519 32.292-45.534 32.292-7.956 0-15.464-1.939-22.085-5.364.031.208.057.415.099.626-9.564.947-52.66 6.5-52.66 29.604v29.59c22.54 11.088 47.876 17.328 74.647 17.328 22.26 0 43.527-4.315 63.021-12.141z" fill="#49b1f7"/><path d="m136.696 424.981c0-24.333 53.064-28.267 53.064-28.267-.129-.39-.231-.766-.319-1.134-11.676-5.473-20.816-15.488-25.132-27.758-5.536 2.11-10.885 4.668-16.185 7.656-3.843 2.167-5.578 3.432-8.839 3.699-33.31 2.723-38.036 36.468-38.326 53.089 10.847 9.092 22.845 16.851 35.737 23.035 0-10.592 0-21.626 0-30.32z" fill="#218ee8"/><path d="m241.469 363.583c-.21-.211-.405-.44-.603-.666-4.557 12.736-16.74 21.876-31.024 21.876-4.146 0-8.106-.79-11.764-2.196-1.898.409-6.721 1.794-9.103 5.634-1.277 2.059-1.651 4.456-1.12 7.146-.216.021-.454.046-.702.072 6.792 3.551 14.508 5.566 22.689 5.566 21.397 0 39.635-13.745 46.375-32.866-4.754-1.858-9.639-3.387-14.748-4.566z" fill="#73c3f9"/><path d="m178.819 362.918c-.197.226-.392.455-.603.666-5.109 1.179-9.994 2.708-14.749 4.566 4.487 12.729 14.073 23.069 26.291 28.564-3.602-10.933 9.321-12.779 9.321-12.779.236-.235.459-.481.684-.725-9.736-3.138-17.509-10.69-20.944-20.292z" fill="#49b1f7"/><path d="m241.469 363.583c-4.891-4.891-6.131-14.164-6.354-20.652-2.553 2.973-5.232 5.46-7.792 7.448-4.987 3.873-11.141 5.977-17.48 5.977-.56 0-1.116-.037-1.672-.069-.495 6.129-2.411 18.544-9.825 26.256-.404.08-1.015.22-1.741.44 4.07 1.738 8.54 2.713 13.239 2.713 14.528 0 26.945-9.203 31.733-22.086-.037-.009-.073-.018-.108-.027z" fill="#ffaa7b"/><path d="m209.675 356.348c-6.279-.037-12.369-2.131-17.312-5.969-2.56-1.988-5.239-4.475-7.792-7.448-.224 6.488-1.463 15.761-6.355 20.652-.036.008-.071.017-.107.026 3.548 9.547 11.292 17.063 20.976 20.32 8.071-8.075 10.087-21.189 10.59-27.581z" fill="#fc9460"/><path d="m208.761 223.84c-2.497 2.543-6.153 7.207-6.836 13.247-.594 5.258 1.195 10.421 5.308 15.348 2.76.406 5.594.173 8.266-.716 5.649-1.879 14.507-3.76 21.728-.511 8.499 3.824 6.751 16.487 6.282 22.962-.163 2.251 2.372 4.509 3.588 6.418.718 1.127 1.288 2.322 1.741 3.502.562 1.467.962 2.982 1.209 4.521 1.305-.632 3.169-1.321 4.765-1.095.195-6.768.82-14.065.82-14.065 6.857-33.587-21.16-49.827-46.871-49.611z" fill="#2a428c"/><path d="m201.391 224.362c-25.381 3.458-27.793 17.848-27.805 23.128-.002 1.107-.616 2.133-1.611 2.618-13.202 6.422-6.084 37.376-6.084 37.376 1.326.089 2.714.625 3.749 1.127.253-1.577.667-3.13 1.251-4.631.445-1.144 1.002-2.299 1.698-3.391 1.207-1.894 3.757-4.129 3.593-6.363-.475-6.457-2.246-19.182 6.278-23.017 7.221-3.249 16.079-1.368 21.728.511 1.651.549 3.364.837 5.083.892-.263-.347-.522-.697-.805-1.032-11.237-13.338-1.117-24.473 2.439-27.719-3.215-.088-6.411.078-9.514.501z" fill="#1c2e7a"/><path d="m308.771 30.396c-3.668 11.709-3.065 26.542 17.258 35.251 37.333 16 99.333 70 117.333 125.333 8.805 27.066 26.7 32.988 42.687 31.98-16.939-93.328-86.748-168.223-177.278-192.564z" fill="#73c3f9"/><path d="m257.664 287.394c-1.977-1.812-5.915-.893-7.617.216.373 2.323.394 4.699.072 7.045l-2.009 14.633c0 1.18-.037 2.337-.105 3.474 4.899 1.478 7.333-2.921 7.743-5.939.176-1.299.465-2.58.865-3.83 1.302-4.069 6.004-11.06 1.051-15.599z" fill="#ffaa7b"/><path d="m162.022 287.394c1.977-1.812 5.915-.893 7.617.216-.373 2.323-.394 4.699-.072 7.045l2.009 14.633c0 1.18.037 2.337.106 3.474-4.899 1.478-7.333-2.921-7.743-5.939-.176-1.299-.465-2.58-.865-3.83-1.304-4.069-6.005-11.06-1.052-15.599z" fill="#fc9460"/><path d="m249.355 283.549c-.458-1.196-1.036-2.406-1.764-3.548-1.233-1.934-1.775-4.221-1.61-6.503.475-6.56.22-19.391-8.392-23.266-7.317-3.292-16.292-1.386-22.015.517-2.751.915-5.672 1.148-8.512.709-5.488 5.407-5.623 15.771-5.205 21.459.17 2.311-.399 4.622-1.648 6.582-.72 1.129-1.296 2.325-1.756 3.508-1.494 3.838-1.93 8-1.37 12.076l2.079 15.141c0 21.767 11.62 36.563 21.504 44.238.816.634 1.675 1.197 2.55 1.732 1.518-.792 2.974-1.709 4.339-2.768 9.681-7.518 21.062-22.009 21.062-43.33l2.036-14.827c.542-3.954.131-7.991-1.298-11.72z" fill="#ffc7ab"/><g><path d="m220.737 353.426c-9.681-7.518-21.062-22.009-21.062-43.33l-2.036-14.83c-.548-3.992-.121-8.069 1.342-11.828.451-1.159 1.015-2.33 1.72-3.436 1.223-1.919 1.78-4.183 1.614-6.447-.434-5.91-.265-16.979 6.133-21.934-1.467-.113-2.924-.402-4.336-.871-5.724-1.903-14.699-3.809-22.015-.517-8.637 3.886-8.868 16.779-8.388 23.322.166 2.263-.391 4.527-1.614 6.447-.705 1.106-1.269 2.277-1.72 3.436-1.463 3.759-1.89 7.836-1.342 11.828l2.036 14.83c0 21.321 11.381 35.812 21.062 43.33 5.053 3.924 11.289 6.056 17.712 6.056 5.047 0 9.97-1.334 14.303-3.802-1.181-.674-2.327-1.414-3.409-2.254z" fill="#ffaa7b"/></g><path d="m316.94 210.618c-2.225 2.266-5.482 6.421-6.091 11.803-.529 4.685 1.065 9.285 4.729 13.675 2.46.362 4.984.154 7.365-.638 5.033-1.674 12.925-3.35 19.359-.455 7.573 3.407 6.015 14.69 5.597 20.459-.145 2.006 2.113 4.017 3.197 5.718.64 1.004 1.148 2.069 1.551 3.12.501 1.307.857 2.657 1.077 4.028 1.162-.563 2.824-1.177 4.245-.976.174-6.031.731-12.532.731-12.532 6.112-29.925-18.851-44.394-41.76-44.202z" fill="#2a428c"/><path d="m310.374 211.083c-22.614 3.081-24.763 15.903-24.774 20.607-.002.986-.548 1.901-1.436 2.332-11.763 5.722-5.421 33.302-5.421 33.302 1.181.079 2.418.557 3.34 1.004.226-1.405.594-2.789 1.115-4.126.397-1.019.893-2.049 1.513-3.021 1.076-1.688 3.348-3.679 3.201-5.669-.423-5.754-2.001-17.091 5.594-20.508 6.434-2.895 14.326-1.219 19.359.455 1.471.489 2.997.746 4.529.795-.234-.309-.465-.621-.717-.92-10.012-11.884-.995-21.805 2.173-24.697-2.864-.079-5.711.069-8.476.446z" fill="#1c2e7a"/><path d="m360.513 267.244c-1.761-1.614-5.27-.796-6.787.193.332 2.069.351 4.186.064 6.277l-1.79 13.038c0 1.051-.033 2.082-.094 3.095 4.365 1.317 6.534-2.602 6.899-5.291.157-1.158.414-2.299.771-3.412 1.161-3.627 5.35-9.856.937-13.9z" fill="#ffaa7b"/><path d="m275.297 267.244c1.761-1.614 5.27-.796 6.787.193-.332 2.069-.351 4.186-.064 6.277l1.79 13.038c0 1.051.033 2.082.094 3.095-4.365 1.317-6.534-2.602-6.899-5.291-.157-1.158-.414-2.299-.771-3.412-1.161-3.627-5.35-9.856-.937-13.9z" fill="#fc9460"/><path d="m353.023 263.741c-.407-1.062-.921-2.139-1.568-3.154-1.096-1.719-1.578-3.752-1.431-5.78.422-5.831.196-17.235-7.459-20.679-6.503-2.926-14.48-1.232-19.567.459-2.445.813-5.042 1.021-7.565.63-4.878 4.806-4.998 14.017-4.627 19.073.151 2.054-.355 4.108-1.465 5.85-.64 1.004-1.151 2.066-1.561 3.118-1.328 3.411-1.715 7.111-1.218 10.733l1.848 13.457c0 19.347 10.328 32.497 19.113 39.319.725.563 1.489 1.064 2.267 1.54 1.349-.704 2.643-1.519 3.856-2.461 8.605-6.682 18.72-19.562 18.72-38.513l1.81-13.178c.483-3.511.118-7.099-1.153-10.414z" fill="#ffc7ab"/><g><path d="m327.587 325.849c-8.605-6.682-18.72-19.562-18.72-38.513l-1.81-13.181c-.487-3.548-.108-7.172 1.193-10.513.401-1.03.902-2.071 1.529-3.054 1.087-1.706 1.582-3.718 1.435-5.73-.386-5.253-.235-15.092 5.451-19.495-1.304-.1-2.599-.357-3.854-.775-5.087-1.692-13.064-3.386-19.567-.459-7.676 3.454-7.882 14.913-7.455 20.729.148 2.012-.347 4.024-1.435 5.73-.627.983-1.128 2.024-1.529 3.054-1.301 3.341-1.68 6.965-1.193 10.513l1.81 13.181c0 18.95 10.116 31.831 18.721 38.513 4.491 3.488 10.034 5.382 15.742 5.382 4.486 0 8.861-1.186 12.713-3.38-1.05-.597-2.069-1.255-3.031-2.002z" fill="#ffaa7b"/></g><path d="m100.816 210.618c-2.225 2.266-5.482 6.421-6.091 11.803-.529 4.685 1.065 9.285 4.729 13.675 2.459.362 4.984.154 7.365-.638 5.033-1.674 12.925-3.35 19.359-.455 7.573 3.407 6.015 14.69 5.597 20.459-.145 2.006 2.113 4.017 3.197 5.718.64 1.004 1.148 2.069 1.551 3.12.501 1.307.857 2.657 1.077 4.028 1.162-.563 2.824-1.177 4.245-.976.174-6.031.731-12.532.731-12.532 6.112-29.925-18.851-44.394-41.76-44.202z" fill="#2a428c"/><path d="m94.25 211.083c-22.614 3.081-24.763 15.903-24.774 20.607-.002.986-.549 1.901-1.435 2.332-11.763 5.722-5.421 33.302-5.421 33.302 1.181.079 2.418.557 3.34 1.004.226-1.405.594-2.789 1.115-4.126.397-1.019.893-2.049 1.513-3.021 1.076-1.688 3.348-3.679 3.201-5.669-.423-5.754-2.001-17.091 5.594-20.508 6.434-2.895 14.326-1.219 19.359.455 1.471.489 2.997.746 4.529.795-.234-.309-.465-.621-.717-.92-10.012-11.884-.995-21.805 2.173-24.697-2.865-.079-5.712.069-8.477.446z" fill="#1c2e7a"/><path d="m144.389 267.244c-1.761-1.614-5.27-.796-6.787.193.332 2.069.351 4.186.064 6.277l-1.79 13.038c0 1.051-.033 2.082-.094 3.095 4.365 1.317 6.533-2.602 6.899-5.291.157-1.158.414-2.299.771-3.412 1.161-3.627 5.349-9.856.937-13.9z" fill="#ffaa7b"/><path d="m59.173 267.244c1.761-1.614 5.27-.796 6.787.193-.332 2.069-.351 4.186-.064 6.277l1.79 13.038c0 1.051.033 2.082.094 3.095-4.365 1.317-6.533-2.602-6.899-5.291-.157-1.158-.414-2.299-.771-3.412-1.161-3.627-5.35-9.856-.937-13.9z" fill="#fc9460"/><path d="m136.884 263.728c-.407-1.062-.92-2.138-1.567-3.152-1.095-1.718-1.577-3.751-1.43-5.777.422-5.829.196-17.228-7.456-20.671-6.5-2.925-14.474-1.232-19.559.459-2.444.813-5.039 1.02-7.562.63-4.876 4.804-4.996 14.011-4.625 19.065.151 2.053-.354 4.107-1.464 5.848-.639 1.003-1.151 2.065-1.56 3.116-1.327 3.41-1.714 7.108-1.217 10.729l1.847 13.452c0 19.339 10.323 32.484 19.105 39.303.725.563 1.488 1.063 2.266 1.539 1.348-.703 2.642-1.518 3.855-2.46 8.601-6.679 18.713-19.554 18.713-38.496l1.809-13.173c.481-3.512.115-7.098-1.155-10.412z" fill="#ffc7ab"/><g><path d="m111.459 325.81c-8.601-6.679-18.713-19.554-18.713-38.496l-1.809-13.176c-.487-3.547-.108-7.169 1.192-10.508.401-1.03.902-2.07 1.528-3.053 1.087-1.705 1.582-3.717 1.434-5.728-.386-5.251-.235-15.085 5.449-19.487-1.304-.1-2.598-.357-3.852-.774-5.085-1.691-13.059-3.384-19.559-.459-7.673 3.452-7.879 14.907-7.452 20.72.148 2.011-.347 4.022-1.434 5.728-.627.983-1.128 2.023-1.528 3.053-1.3 3.34-1.679 6.962-1.192 10.508l1.809 13.176c0 18.942 10.112 31.817 18.713 38.496 4.489 3.486 10.03 5.38 15.736 5.38 4.484 0 8.857-1.185 12.707-3.378-1.049-.598-2.067-1.256-3.029-2.002z" fill="#ffaa7b"/></g><path d="m297.19 447.635c-1.993-8.901-7.228-15.473-12.344-19.976-4.663-4.104-11.983-.817-11.983 5.395v26.704c8.466-3.398 16.595-7.462 24.327-12.123z" fill="#218ee8"/></g></svg>