<svg id="Capa_1" enable-background="new 0 0 512 512" height="512" viewBox="0 0 512 512" width="512" xmlns="http://www.w3.org/2000/svg"><g><g><path d="m68.422 312h375.156c19.677 0 37.024 10.132 47.124 25.445 6.688-22.312 10.298-45.955 10.298-70.445 0-135.31-109.69-245-245-245s-245 109.69-245 245c0 24.49 3.61 48.133 10.298 70.445 10.1-15.313 27.447-25.445 47.124-25.445z" fill="#d8ecfe"/></g><g><path d="m67.043 211.992c-13.817 8.427-23.043 23.64-23.043 41.008 0 4.889.736 9.604 2.094 14.048-13.802.54-26.101 6.91-34.519 16.71 1.257 18.536 4.573 36.507 9.722 53.687 8.135-12.333 20.976-21.285 35.943-24.309l9.802-16.9v-84.244z" fill="#eaf6ff"/></g><g><path d="m197.972 124h75.926c-1.55-25.111-22.396-45-47.897-45-10.465 0-20.141 3.359-28.028 9.045v35.955z" fill="#eaf6ff"/></g><g><path d="m474.906 286.048c1.358-4.444 2.094-9.159 2.094-14.048 0-20.914-13.38-38.694-32.043-45.272v69.509l10.359 17c14.73 3.132 27.352 12.028 35.387 24.209 4.195-13.995 7.177-28.514 8.819-43.436-7.106-4.719-15.534-7.607-24.616-7.962z" fill="#eaf6ff"/></g><path d="m104.85 459.82c41.634 32.684 94.114 52.18 151.15 52.18s109.516-19.496 151.15-52.18z" fill="#fee45a"/><g fill="#fdb441"><path d="m243 459.82v20.18c0 1.657 1.343 3 3 3h20c1.657 0 3-1.343 3-3v-20.18z"/><path d="m151 459.82v20.18c0 1.657 1.343 3 3 3h20c1.657 0 3-1.343 3-3v-20.18z"/><path d="m197 459.82v20.18c0 1.657 1.343 3 3 3h20c1.657 0 3-1.343 3-3v-20.18z"/><path d="m289 459.82v20.18c0 1.657 1.343 3 3 3h20c1.657 0 3-1.343 3-3v-20.18z"/><path d="m335 459.82v20.18c0 1.657 1.343 3 3 3h20c1.657 0 3-1.343 3-3v-20.18z"/></g><g><g><path d="m325.51 30h107.965v15h-107.965z" fill="#8d9ca8"/><path d="m325.51 30h25.49v15h-25.49z" fill="#7a8c98"/><g><path d="m325.188 124c4.193 0 7.795 2.851 8.759 6.932l12.177 51.577c.188.792.263 1.615.226 2.446l-.048 1.045h9.698c4.963 0 9 4.037 9 9v6.293h9.682c8.406 0 16.303 4.484 20.61 11.702l50.665 84.918v-248.913c0-2.761-2.239-5-5-5h-122.929c-2.761 0-5 2.239-5 5v75z" fill="#9facba"/></g><g><path d="m338.071 49c0-2.761 2.239-5 5-5h-25.043c-2.761 0-5 2.239-5 5v75h12.159c4.193 0 7.795 2.851 8.759 6.932l4.125 17.47z" fill="#8d9ca8"/></g><path d="m445.957 28v-10c0-1.657-1.343-3-3-3h-126.929c-1.657 0-3 1.343-3 3v10c0 1.657 1.343 3 3 3h126.929c1.657 0 3-1.343 3-3z" fill="#9facba"/><path d="m347 28v-10c0-1.657 1.343-3 3-3h-33.972c-1.657 0-3 1.343-3 3v10c0 1.657 1.343 3 3 3h33.972c-1.657 0-3-1.343-3-3z" fill="#8d9ca8"/><g><path d="m354.993 64h-17c-1.657 0-3 1.343-3 3v23c0 1.657 1.343 3 3 3h17c1.657 0 3-1.343 3-3v-23c0-1.657-1.343-3-3-3z" fill="#7a8c98"/><path d="m387.993 64h-17c-1.657 0-3 1.343-3 3v23c0 1.657 1.343 3 3 3h17c1.657 0 3-1.343 3-3v-23c0-1.657-1.343-3-3-3z" fill="#8d9ca8"/><path d="m420.993 64h-17c-1.657 0-3 1.343-3 3v23c0 1.657 1.343 3 3 3h17c1.657 0 3-1.343 3-3v-23c0-1.657-1.343-3-3-3z" fill="#8d9ca8"/><path d="m354.993 106h-17c-1.657 0-3 1.343-3 3v23c0 1.657 1.343 3 3 3h17c1.657 0 3-1.343 3-3v-23c0-1.657-1.343-3-3-3z" fill="#b6c4cf"/><path d="m387.993 106h-17c-1.657 0-3 1.343-3 3v23c0 1.657 1.343 3 3 3h17c1.657 0 3-1.343 3-3v-23c0-1.657-1.343-3-3-3z" fill="#8d9ca8"/><path d="m420.993 106h-17c-1.657 0-3 1.343-3 3v23c0 1.657 1.343 3 3 3h17c1.657 0 3-1.343 3-3v-23c0-1.657-1.343-3-3-3z" fill="#8d9ca8"/><path d="m344.823 177h10.17c1.657 0 3-1.343 3-3v-23c0-1.657-1.343-3-3-3h-17c-.006 0-.011.001-.016.002z" fill="#7a8c98"/><path d="m387.993 148h-17c-1.657 0-3 1.343-3 3v23c0 1.657 1.343 3 3 3h17c1.657 0 3-1.343 3-3v-23c0-1.657-1.343-3-3-3z" fill="#8d9ca8"/><path d="m420.993 148h-17c-1.657 0-3 1.343-3 3v23c0 1.657 1.343 3 3 3h17c1.657 0 3-1.343 3-3v-23c0-1.657-1.343-3-3-3z" fill="#b6c4cf"/><g fill="#8d9ca8"><path d="m374.682 201.293c6.1 0 11.925 2.371 16.311 6.424v-14.717c0-1.657-1.343-3-3-3h-17c-1.657 0-3 1.343-3 3v8.293z"/><path d="m420.993 190h-17c-1.657 0-3 1.343-3 3v23c0 1.657 1.343 3 3 3h17c1.657 0 3-1.343 3-3v-23c0-1.657-1.343-3-3-3z"/></g></g></g><g><path d="m186.49 21v-16c0-2.761-2.239-5-5-5h-97.965c-2.761 0-5 2.239-5 5v16z" fill="#8d9ca8"/><path d="m117.035 0h-33.51c-2.761 0-5 2.239-5 5v16h33.51v-16c0-2.761 2.239-5 5-5z" fill="#7a8c98"/><g><path d="m116.708 212.995c4.308-7.218 12.204-11.702 20.61-11.702h9.682v-6.293c0-4.963 4.037-9 9-9h9.698l-.047-1.045c-.037-.831.038-1.654.226-2.446l12.177-51.577c.964-4.081 4.565-6.932 8.759-6.932h12.159v-99c0-2.761-2.239-5-5-5h-122.929c-2.761 0-5 2.239-5 5v272.913z" fill="#9facba"/></g><path d="m100 25c0-2.761 2.239-5 5-5h-33.957c-2.761 0-5 2.239-5 5v272.913l33.957-56.914z" fill="#8d9ca8"/><g><path d="m108.007 40h-17c-1.657 0-3 1.343-3 3v23c0 1.657 1.343 3 3 3h17c1.657 0 3-1.343 3-3v-23c0-1.657-1.343-3-3-3z" fill="#7a8c98"/><path d="m141.007 40h-17c-1.657 0-3 1.343-3 3v23c0 1.657 1.343 3 3 3h17c1.657 0 3-1.343 3-3v-23c0-1.657-1.343-3-3-3z" fill="#8d9ca8"/><path d="m174.007 40h-17c-1.657 0-3 1.343-3 3v23c0 1.657 1.343 3 3 3h17c1.657 0 3-1.343 3-3v-23c0-1.657-1.343-3-3-3z" fill="#8d9ca8"/><path d="m108.007 82h-17c-1.657 0-3 1.343-3 3v23c0 1.657 1.343 3 3 3h17c1.657 0 3-1.343 3-3v-23c0-1.657-1.343-3-3-3z" fill="#b6c4cf"/><path d="m141.007 82h-17c-1.657 0-3 1.343-3 3v23c0 1.657 1.343 3 3 3h17c1.657 0 3-1.343 3-3v-23c0-1.657-1.343-3-3-3z" fill="#8d9ca8"/><path d="m174.007 82h-17c-1.657 0-3 1.343-3 3v23c0 1.657 1.343 3 3 3h17c1.657 0 3-1.343 3-3v-23c0-1.657-1.343-3-3-3z" fill="#8d9ca8"/><path d="m108.007 124h-17c-1.657 0-3 1.343-3 3v23c0 1.657 1.343 3 3 3h17c1.657 0 3-1.343 3-3v-23c0-1.657-1.343-3-3-3z" fill="#7a8c98"/><path d="m141.007 124h-17c-1.657 0-3 1.343-3 3v23c0 1.657 1.343 3 3 3h17c1.657 0 3-1.343 3-3v-23c0-1.657-1.343-3-3-3z" fill="#8d9ca8"/><path d="m157.007 153h15.836l4.164-17.636v-8.364c0-1.657-1.343-3-3-3h-17c-1.657 0-3 1.343-3 3v23c0 1.657 1.343 3 3 3z" fill="#b6c4cf"/><path d="m108.007 166h-17c-1.657 0-3 1.343-3 3v23c0 1.657 1.343 3 3 3h17c1.657 0 3-1.343 3-3v-23c0-1.657-1.343-3-3-3z" fill="#7a8c98"/><g fill="#8d9ca8"><path d="m141.007 166h-17c-1.657 0-3 1.343-3 3v23c0 1.657 1.343 3 3 3h17c1.657 0 3-1.343 3-3v-23c0-1.657-1.343-3-3-3z"/><path d="m156 186h9.698l-.047-1.045c-.037-.831.038-1.654.226-2.446l3.897-16.509h-12.767c-1.657 0-3 1.343-3 3v17.23c.642-.146 1.307-.23 1.993-.23z"/></g></g></g></g><path d="m347.257 186c.172-1.199.139-2.453-.161-3.721l-12.177-51.577c-1.066-4.514-5.095-7.702-9.732-7.702h-138.374c-4.638 0-8.667 3.188-9.732 7.702l-12.177 51.577c-.299 1.268-.333 2.522-.161 3.721z" fill="#fff"/><path d="m198.542 182.279 12.177-51.577c1.066-4.514 5.095-7.702 9.732-7.702h-33.639c-4.638 0-8.667 3.188-9.732 7.702l-12.177 51.577c-.299 1.268-.333 2.522-.161 3.721h33.639c-.172-1.199-.138-2.453.161-3.721z" fill="#eaf6ff"/><path d="m366 201.293v-6.293c0-5.523-4.477-10-10-10h-200c-5.523 0-10 4.477-10 10v6.293z" fill="#fee45a"/><path d="m196 185h-40c-5.523 0-10 4.477-10 10v6.293h40v-6.293c0-5.523 4.477-10 10-10z" fill="#fed402"/><path d="m68.422 312h375.156c4.405 0 8.687.524 12.804 1.483-.146-.265-.287-.53-.443-.792l-59.789-100.208c-4.511-7.56-12.665-12.19-21.469-12.19h-237.363c-8.804 0-16.958 4.63-21.469 12.19l-59.789 100.208c-.156.262-.297.527-.443.792 4.117-.959 8.4-1.483 12.805-1.483z" fill="#fac600"/><g><path d="m158.232 212.483c4.511-7.56 12.665-12.19 21.469-12.19h-42.383c-8.804 0-16.958 4.63-21.469 12.19l-59.789 100.208c-.156.262-.297.527-.443.792 4.117-.959 8.399-1.483 12.804-1.483h30.434z" fill="#e8b800"/><path d="m455.527 312h-11.949c4.405 0 8.687.524 12.804 1.483-.146-.265-.287-.53-.443-.792z" fill="#fac600"/></g><path d="m426.416 312-48.824-81.832c-1.804-3.024-5.066-4.876-8.588-4.876h-226.007c-3.521 0-6.783 1.852-8.588 4.876l-48.825 81.832z" fill="#9facba"/><path d="m403.126 312-33.982-56.956c-3.609-6.048-10.132-9.752-17.175-9.752h-191.938c-7.043 0-13.567 3.704-17.175 9.752l-33.982 56.956z" fill="#c4e2ff"/><path d="m156 271h19.462l9.52-15.956c3.609-6.048 10.132-9.752 17.175-9.752h-42.126c-7.043 0-13.567 3.704-17.175 9.752l-33.982 56.956h19.126v-13c0-15.4 12.6-28 28-28z" fill="#b3dafe"/><g><path d="m239 312v-13c0-15.4-12.6-28-28-28h-55c-15.4 0-28 12.6-28 28v13z" fill="#7a8c98"/><path d="m188 271h-32c-15.4 0-28 12.6-28 28v13h32v-13c0-15.4 12.6-28 28-28z" fill="#596c76"/><path d="m384 312v-13c0-15.4-12.6-28-28-28h-55c-15.4 0-28 12.6-28 28v13z" fill="#7a8c98"/><path d="m333 271h-32c-15.4 0-28 12.6-28 28v13h32v-13c0-15.4 12.6-28 28-28z" fill="#596c76"/></g><path d="m477.074 460.82h-442.148c-13.214 0-23.926-10.712-23.926-23.925v-68.473c0-31.713 25.709-57.422 57.422-57.422h375.156c31.713 0 57.422 25.709 57.422 57.422v68.473c0 13.213-10.712 23.925-23.926 23.925z" fill="#fed402"/><path d="m70 436.895v-68.473c0-31.714 25.709-57.422 57.422-57.422h-59c-31.713 0-57.422 25.708-57.422 57.422v68.473c0 13.214 10.712 23.926 23.926 23.926h59c-13.214-.001-23.926-10.713-23.926-23.926z" fill="#fac600"/><g><path d="m316.434 423.011h-120.868c-10.264 0-19.517-6.185-23.441-15.669l-12.952-31.301c-4.148-10.021 3.218-21.041 14.064-21.041h165.526c10.846 0 18.212 11.02 14.065 21.041l-12.952 31.301c-3.925 9.484-13.178 15.669-23.442 15.669z" fill="#7a8c98"/></g><g><path d="m109 423.172h-50c-14.85 0-27-12.15-27-27 0-14.85 12.15-27 27-27h50c14.85 0 27 12.15 27 27 0 14.85-12.15 27-27 27z" fill="#fff"/><path d="m64 396.172c0-14.85 12.15-27 27-27h-32c-14.85 0-27 12.15-27 27 0 14.85 12.15 27 27 27h32c-14.85 0-27-12.15-27-27z" fill="#eaf6ff"/><path d="m453 423.172h-50c-14.85 0-27-12.15-27-27 0-14.85 12.15-27 27-27h50c14.85 0 27 12.15 27 27 0 14.85-12.15 27-27 27z" fill="#fff"/><path d="m413.476 412.42c-2.005.8-4.186 1.252-6.476 1.252-9.665 0-17.5-7.835-17.5-17.5s7.835-17.5 17.5-17.5c2.29 0 4.471.452 6.476 1.252 4.941-6.52 12.761-10.752 21.524-10.752h-32c-14.85 0-27 12.15-27 27 0 14.85 12.15 27 27 27h32c-8.763 0-16.583-4.233-21.524-10.752z" fill="#eaf6ff"/></g><g fill="#7a8c98"><path d="m229 140.999c0-2.762-2.238-5-5-5h-29c-2.762 0-5 2.238-5 5s2.238 5 5 5h9.5v24c0 2.762 2.238 5 5 5s5-2.238 5-5v-24h9.5c2.762 0 5-2.239 5-5z"/><path d="m299.188 137.147c-2.126-1.762-5.279-1.464-7.039.664l-8.149 9.846-8.148-9.846c-1.76-2.128-4.911-2.426-7.039-.664-2.128 1.76-2.425 4.912-.664 7.039l9.362 11.312-9.362 11.312c-1.761 2.127-1.464 5.279.664 7.039.933.772 2.062 1.148 3.185 1.148 1.438 0 2.866-.617 3.854-1.812l8.148-9.845 8.148 9.846c.988 1.195 2.416 1.812 3.854 1.812 1.123 0 2.252-.376 3.185-1.148 2.128-1.76 2.425-4.912.664-7.039l-9.362-11.312 9.362-11.312c1.761-2.128 1.464-5.28-.663-7.04z"/><path d="m313 135.999c-2.762 0-5 2.238-5 5v29c0 2.762 2.238 5 5 5s5-2.238 5-5v-29c0-2.762-2.238-5-5-5z"/><path d="m246.972 138.762c-.847-1.693-2.578-2.764-4.472-2.764s-3.625 1.07-4.472 2.764l-14.5 29c-1.235 2.47-.234 5.474 2.235 6.708 2.47 1.236 5.473.234 6.708-2.235l2.138-4.276c.131.01.257.039.39.039h15.41l2.118 4.236c.876 1.752 2.642 2.765 4.476 2.765.751 0 1.515-.17 2.232-.529 2.47-1.234 3.471-4.238 2.235-6.708zm-7.382 19.237 2.91-5.819 2.91 5.819z"/></g><g fill="#596c76"><path d="m329 366.006h-146c-2.762 0-5 2.238-5 5s2.238 5 5 5h146c2.762 0 5-2.238 5-5s-2.238-5-5-5z"/><path d="m322 384.006h-132c-2.762 0-5 2.238-5 5s2.238 5 5 5h132c2.762 0 5-2.238 5-5s-2.238-5-5-5z"/><path d="m311 402.006h-110c-2.762 0-5 2.238-5 5s2.238 5 5 5h110c2.762 0 5-2.238 5-5s-2.238-5-5-5z"/></g><g><circle cx="105" cy="396.172" fill="#b6c4cf" r="17.5"/><path d="m101 396.172c0-7.272 4.437-13.505 10.75-16.147-2.078-.87-4.357-1.353-6.75-1.353-9.665 0-17.5 7.835-17.5 17.5s7.835 17.5 17.5 17.5c2.393 0 4.672-.483 6.75-1.353-6.313-2.642-10.75-8.875-10.75-16.147z" fill="#9facba"/><circle cx="407" cy="396.172" fill="#b6c4cf" r="17.5"/><path d="m403 396.172c0-7.272 4.437-13.505 10.75-16.147-2.078-.87-4.357-1.353-6.75-1.353-9.665 0-17.5 7.835-17.5 17.5s7.835 17.5 17.5 17.5c2.393 0 4.672-.483 6.75-1.353-6.313-2.642-10.75-8.875-10.75-16.147z" fill="#9facba"/></g></g></svg>