<svg id="Layer_1" enable-background="new 0 0 512 512" height="512" viewBox="0 0 512 512" width="512" xmlns="http://www.w3.org/2000/svg"><g><path d="m374.191 465.36 77.822-59.749c37.365-43.006 59.987-99.165 59.987-160.609 0-.648-.02-1.292-.024-1.94l-433.463-154.578c-35.289 42.449-56.517 97.002-56.517 156.518 0 135.311 109.691 245.002 245.002 245.002 38.443 0 74.813-8.863 107.193-24.644z" fill="#5c45bf"/><path d="m212.707 249.74c-8.055 0-15.346 4.907-18.576 12.5-8.816 20.739-29.067 34.14-51.591 34.14h-.279c-4.139-.02-7.642-2.282-9.369-6.05-1.764-3.848-1.145-8.248 1.614-11.482 4.384-5.14 7.83-10.932 10.242-17.217 1.028-2.678.668-5.694-.964-8.068-1.645-2.394-4.357-3.822-7.256-3.822h-13.631c-5.517 0-10.787-1.063-15.632-2.977l.145 2.549s-60.67 96.961 16.81 174.441c0 0-16.083 27.084 13.667 41.605h236.303c29.835-14.54 56.281-34.955 77.822-59.749v-155.87z" fill="#ffdd40"/><path d="m126.221 423.754c-77.48-77.48-16.81-174.441-16.81-174.441l-.103-1.803c-16.899-5.69-29.109-21.675-29.109-40.468v-2.674h-35.815c-24.411 0-44.384 19.973-44.384 44.384v172.223c0 24.411 19.973 44.384 44.384 44.384h13.631c4.958 0 8.424 4.971 6.646 9.599-2.362 6.153-5.747 11.798-9.951 16.727-6.771 7.938-1.404 20.262 9.029 20.313.097.002.193.002.289.002 23.878 0 44.356-14.497 53.143-35.167 2.927-6.885 9.542-11.474 17.023-11.474h5.693c-29.749-14.521-13.666-41.605-13.666-41.605z" fill="#ffb332"/><path d="m105.582 401.037 85.659.395v-133.358c-9.888 17.382-28.367 28.306-48.7 28.306h-.279c-4.139-.02-7.642-2.282-9.369-6.05-1.764-3.849-1.145-8.248 1.614-11.482 4.384-5.14 7.829-10.932 10.242-17.217 1.028-2.678.668-5.694-.964-8.068-1.645-2.394-4.357-3.822-7.256-3.822h-13.631c-5.518 0-10.788-1.065-15.632-2.981l.145 2.554c0-.001-49.586 79.261-1.829 151.723z" fill="#fceca9"/><path d="m86.848 328.513c.851-44.483 22.563-79.2 22.563-79.2l-.103-1.806c-1.333-.45-2.64-.96-3.911-1.534h-61.012c-1.377 0-2.779 1.403-2.779 2.779v151.989l75.245.347z" fill="#ffdd40"/><path d="m266.998 0c-18.94 0-37.373 2.159-55.076 6.23-2.971 2.518-12.597 12.413.8 25.81 0 0-83.499 70.221 0 177.781 0 0-21.335 20.65 3.915 41.605h269.503c9.62 0 18.544-3.111 25.835-8.365-1.044-134.415-110.315-243.061-244.977-243.061z" fill="#49b1f7"/><path d="m214.722 209.821c-83.499-107.561 0-177.781 0-177.781-15.587-15.587 0-26.442 0-26.442-24.637 5.361-47.889 14.432-69.148 26.589l-25.212 16.55c-15.46 11.571-29.518 24.914-41.849 39.747v118.558c0 24.412 19.973 44.385 44.385 44.385h13.631c4.958 0 8.424 4.971 6.646 9.599-2.362 6.153-5.747 11.798-9.951 16.727-6.771 7.939-1.404 20.262 9.029 20.314h.288c23.878 0 44.356-14.497 53.143-35.166 2.927-6.886 9.542-11.474 17.024-11.474h5.93c-25.25-20.955-3.916-41.606-3.916-41.606z" fill="#218ee8"/><path d="m269.753 187.498v-152.679c0-1.376-1.402-2.779-2.778-2.779h-54.253s-71.893 60.466-15.538 155.124z" fill="#9bd8f9"/><path d="m214.722 32.04h-68.925c-8.925 5.09-17.502 10.722-25.679 16.856v137.912l79.071.364c-56.365-94.662 15.533-155.132 15.533-155.132z" fill="#73c3f9"/><g><path d="m370.524 59.581h-48.582c-6.211 0-11.245-5.035-11.245-11.245s5.034-11.245 11.245-11.245h48.582c6.211 0 11.245 5.035 11.245 11.245s-5.035 11.245-11.245 11.245z" fill="#218ee8"/></g><path d="m450.856 83.089h-131.726c-4.658 0-8.434 3.775-8.434 8.434 0 4.658 3.776 8.433 8.434 8.433h145.322c-4.286-5.824-8.823-11.451-13.596-16.867z" fill="#218ee8"/><path d="m484.646 132.419c-2.707-5.222-5.595-10.335-8.658-15.329h-156.858c-4.658 0-8.434 3.775-8.434 8.434 0 4.658 3.776 8.433 8.434 8.433h160.669c1.806 0 3.475-.572 4.847-1.538z" fill="#218ee8"/><g><path d="m479.799 167.958h-160.669c-4.658 0-8.434-3.776-8.434-8.434s3.776-8.434 8.434-8.434h160.669c4.658 0 8.434 3.775 8.434 8.434s-3.776 8.434-8.434 8.434z" fill="#218ee8"/></g><g><path d="m479.799 201.958h-160.669c-4.658 0-8.434-3.775-8.434-8.433s3.776-8.434 8.434-8.434h160.669c4.658 0 8.434 3.775 8.434 8.434 0 4.658-3.776 8.433-8.434 8.433z" fill="#218ee8"/></g><g><path d="m401.287 307.143h-160.669c-4.658 0-8.434-3.775-8.434-8.434 0-4.658 3.776-8.434 8.434-8.434h160.669c4.658 0 8.433 3.775 8.433 8.434s-3.776 8.434-8.433 8.434z" fill="#ffb332"/></g><g><path d="m401.287 341.143h-160.669c-4.658 0-8.434-3.775-8.434-8.434s3.776-8.434 8.434-8.434h160.669c4.658 0 8.433 3.775 8.433 8.434s-3.776 8.434-8.433 8.434z" fill="#ffb332"/></g><g><path d="m401.287 375.144h-160.669c-4.658 0-8.434-3.775-8.434-8.434s3.776-8.434 8.434-8.434h160.669c4.658 0 8.433 3.775 8.433 8.434s-3.776 8.434-8.433 8.434z" fill="#ffb332"/></g><g><path d="m401.287 409.145h-160.669c-4.658 0-8.434-3.775-8.434-8.434 0-4.658 3.776-8.433 8.434-8.433h160.669c4.658 0 8.433 3.775 8.433 8.433 0 4.659-3.776 8.434-8.433 8.434z" fill="#ffb332"/></g><path d="m219.406 165.883c-3.833-3.833-4.805-11.1-4.98-16.185-2.001 2.33-4.1 4.279-6.106 5.837-3.908 3.035-8.731 4.684-13.699 4.684-.603 0-1.203-.026-1.8-.074l.316.502c-.03 2.137-.517 12.555-7.041 19.344-.483.146-1.303.439-2.221.925 3.288 1.465 6.919 2.296 10.746 2.296 11.386 0 21.116-7.212 24.868-17.308-.027-.007-.054-.014-.083-.021z" fill="#ffaa7b"/><path d="m174.817 149.698c-.175 5.085-1.147 12.352-4.98 16.185-.028.007-.056.014-.084.02 2.729 7.342 8.627 13.143 16.017 15.77.66-.256 1.108-.359 1.108-.359 8.074-8.074 7.744-21.096 7.744-21.096-4.967 0-9.79-1.648-13.699-4.684-2.006-1.557-4.106-3.506-6.106-5.836z" fill="#fc9460"/><path d="m249.917 178.104c-2.555-.209-3.915-1.201-6.928-2.899-4.153-2.342-8.346-4.346-12.684-6-7.102 20.189-29.562 30.505-49.437 22.711v-.001c-10.214-4.004-18.278-12.325-21.931-22.71-4.338 1.654-8.531 3.658-12.684 5.999-3.012 1.698-4.372 2.69-6.927 2.899-8.617.705-14.792 4.059-19.208 8.705v20.233c0 1.376 1.402 2.779 2.779 2.779h144.077c1.376 0 2.778-1.403 2.778-2.779v-19.544c-4.451-4.999-10.798-8.654-19.835-9.393z" fill="#ffc839"/><path d="m219.406 165.883c-.165-.165-.318-.344-.472-.521-4.642 12.975-18.757 20.147-32.056 15.952.001-.001.002-.003.003-.004-7.704-2.428-13.863-8.372-16.573-15.948-.154.177-.307.357-.472.521-4.004.924-7.832 2.122-11.558 3.578 3.811 10.812 12.299 19.378 22.914 23.341-.002-.004-.003-.009-.005-.014 20.144 7.532 42.616-3.008 49.777-23.328-3.725-1.455-7.554-2.653-11.558-3.577z" fill="#ffdd40"/><g><path d="m193.767 55.583c-1.972 2.008-4.858 5.69-5.398 10.459-.469 4.152.944 8.228 4.191 12.118 2.179.321 4.417.137 6.527-.565 4.46-1.483 11.454-2.969 17.155-.403 6.711 3.019 5.33 13.017 4.96 18.129-.129 1.778 1.873 3.56 2.833 5.067.567.89 1.017 1.833 1.374 2.765.444 1.158.76 2.354.955 3.569 1.03-.499 2.502-1.043 3.762-.865.154-5.344.648-11.105.648-11.105 5.414-26.518-16.707-39.34-37.007-39.169z" fill="#2a428c"/><path d="m187.949 55.995c-20.039 2.73-21.944 14.092-21.953 18.261-.002.874-.486 1.684-1.272 2.067-10.424 5.071-4.804 29.51-4.804 29.51 1.047.07 2.142.494 2.96.89.2-1.245.527-2.471.988-3.657.352-.903.791-1.815 1.34-2.677.953-1.496 2.967-3.26 2.837-5.023-.375-5.098-1.773-15.145 4.957-18.173 5.701-2.565 12.695-1.08 17.155.403 1.303.433 2.656.661 4.013.704-.208-.274-.412-.55-.635-.815-8.872-10.531-.882-19.323 1.926-21.885-2.539-.07-5.062.061-7.512.395z" fill="#1c2e7a"/><path d="m232.378 105.761c-1.561-1.43-4.67-.705-6.014.171.295 1.834.311 3.71.057 5.563l-1.586 11.553c0 .931-.029 1.845-.083 2.743 3.868 1.167 5.79-2.306 6.113-4.689.139-1.026.367-2.037.683-3.024 1.029-3.214 4.741-8.733.83-12.317z" fill="#ffaa7b"/><path d="m156.865 105.761c1.561-1.43 4.67-.705 6.014.171-.294 1.834-.311 3.71-.057 5.563l1.586 11.553c0 .931.029 1.845.083 2.743-3.868 1.167-5.789-2.306-6.113-4.689-.139-1.026-.367-2.037-.683-3.024-1.028-3.214-4.74-8.733-.83-12.317z" fill="#fc9460"/><path d="m225.725 102.642c-.361-.941-.815-1.894-1.388-2.793-.97-1.522-1.397-3.323-1.267-5.119.374-5.164.174-15.264-6.606-18.315-5.76-2.591-12.824-1.091-17.33.407-2.166.72-4.465.904-6.7.558-4.32 4.256-4.426 12.415-4.098 16.892.134 1.819-.314 3.639-1.297 5.181-.567.889-1.02 1.83-1.382 2.761-1.176 3.021-1.519 6.298-1.078 9.506l1.636 11.919c0 17.135 9.147 28.782 16.927 34.824.642.499 1.319.942 2.008 1.364 1.195-.623 2.341-1.345 3.416-2.179 7.621-5.918 16.58-17.326 16.58-34.109l1.603-11.672c.425-3.111.101-6.289-1.024-9.225z" fill="#ffc7ab"/><g><path d="m203.197 157.649c-7.621-5.918-16.58-17.326-16.58-34.109l-1.603-11.674c-.431-3.142-.096-6.352 1.056-9.311.355-.912.799-1.834 1.354-2.705.963-1.511 1.402-3.293 1.271-5.075-.342-4.653-.208-13.366 4.828-17.266-1.155-.089-2.302-.316-3.413-.686-4.506-1.498-11.571-2.998-17.33-.407-6.799 3.059-6.981 13.208-6.603 18.359.131 1.782-.308 3.564-1.271 5.075-.555.871-.999 1.792-1.354 2.705-1.152 2.959-1.488 6.169-1.056 9.311l1.603 11.674c0 16.783 8.959 28.191 16.58 34.109 3.978 3.089 8.887 4.767 13.942 4.767 3.973 0 7.848-1.05 11.259-2.993-.929-.53-1.831-1.113-2.683-1.774z" fill="#ffaa7b"/></g></g><path d="m140.894 379.816c-3.833-3.833-4.805-11.1-4.98-16.185-2.001 2.33-4.1 4.279-6.106 5.837-3.908 3.035-8.731 4.684-13.699 4.684-.603 0-1.203-.026-1.8-.074l.316.502c-.03 2.137-.517 12.555-7.041 19.344-.483.146-1.303.439-2.221.925 3.288 1.465 6.919 2.296 10.746 2.296 11.386 0 21.116-7.212 24.869-17.308-.029-.007-.056-.014-.084-.021z" fill="#ffaa7b"/><path d="m96.304 363.631c-.175 5.085-1.147 12.352-4.98 16.185-.028.007-.056.014-.084.02 2.729 7.342 8.627 13.143 16.017 15.77.66-.256 1.108-.359 1.108-.359 8.074-8.074 7.744-21.096 7.744-21.096-4.967 0-9.79-1.648-13.699-4.684-2.006-1.557-4.106-3.506-6.106-5.836z" fill="#fc9460"/><path d="m171.405 392.037c-2.556-.209-3.915-1.201-6.928-2.899-4.153-2.342-8.346-4.346-12.684-6-7.102 20.19-29.562 30.505-49.437 22.711-10.214-4.004-18.278-12.325-21.931-22.71-4.338 1.654-8.531 3.658-12.684 5.999-3.012 1.698-4.372 2.69-6.927 2.899-8.617.705-14.792 4.059-19.208 8.705v20.233c0 1.376 1.402 2.779 2.779 2.779h144.077c1.376 0 2.778-1.403 2.778-2.779v-19.544c-4.452-5-10.799-8.655-19.835-9.394z" fill="#49b1f7"/><path d="m140.894 379.816c-.165-.165-.318-.344-.472-.522-4.642 12.975-18.757 20.147-32.056 15.952.001-.001.002-.003.003-.004-7.704-2.428-13.862-8.372-16.573-15.948-.154.177-.307.357-.472.522-4.004.924-7.832 2.122-11.558 3.578 3.811 10.812 12.299 19.378 22.914 23.341-.002-.004-.003-.009-.005-.014 20.144 7.533 42.616-3.009 49.777-23.328-3.726-1.455-7.555-2.653-11.558-3.577z" fill="#73c3f9"/><g><path d="m115.255 269.516c-1.972 2.008-4.858 5.69-5.398 10.459-.469 4.152.944 8.228 4.191 12.118 2.179.321 4.417.137 6.527-.565 4.46-1.483 11.454-2.969 17.155-.403 6.711 3.019 5.33 13.017 4.96 18.129-.129 1.777 1.873 3.56 2.833 5.067.567.89 1.017 1.833 1.374 2.765.444 1.158.76 2.354.955 3.57 1.03-.499 2.502-1.043 3.762-.865.154-5.344.648-11.105.648-11.105 5.413-26.519-16.708-39.34-37.007-39.17z" fill="#2a428c"/><path d="m109.436 269.928c-20.039 2.73-21.944 14.092-21.953 18.261-.002.874-.486 1.684-1.272 2.067-10.424 5.071-4.804 29.51-4.804 29.51 1.047.07 2.143.494 2.96.89.2-1.245.527-2.471.988-3.656.352-.903.791-1.815 1.34-2.677.953-1.496 2.966-3.26 2.837-5.023-.375-5.099-1.773-15.145 4.957-18.173 5.701-2.565 12.695-1.08 17.155.403 1.303.433 2.656.661 4.013.704-.208-.274-.412-.55-.635-.815-8.872-10.531-.882-19.323 1.926-21.885-2.539-.071-5.062.06-7.512.394z" fill="#1c2e7a"/><path d="m153.866 319.694c-1.561-1.43-4.67-.705-6.014.171.295 1.834.311 3.71.057 5.563l-1.586 11.553c0 .931-.029 1.845-.083 2.743 3.868 1.167 5.789-2.306 6.113-4.689.139-1.026.367-2.037.683-3.024 1.028-3.213 4.74-8.733.83-12.317z" fill="#ffaa7b"/><path d="m78.352 319.694c1.561-1.43 4.67-.705 6.014.171-.294 1.834-.311 3.71-.057 5.563l1.586 11.553c0 .931.03 1.845.084 2.743-3.868 1.167-5.79-2.306-6.113-4.689-.139-1.026-.367-2.037-.683-3.024-1.029-3.213-4.741-8.733-.831-12.317z" fill="#fc9460"/><path d="m147.212 316.575c-.361-.941-.815-1.894-1.388-2.793-.97-1.522-1.397-3.323-1.267-5.119.374-5.164.173-15.264-6.606-18.315-5.76-2.591-12.824-1.091-17.33.407-2.166.72-4.465.904-6.7.558-4.32 4.257-4.426 12.415-4.098 16.892.134 1.819-.314 3.639-1.297 5.181-.567.889-1.02 1.83-1.382 2.761-1.176 3.021-1.519 6.298-1.078 9.506l1.636 11.919c0 17.135 9.147 28.782 16.927 34.823.642.499 1.319.942 2.007 1.364 1.195-.623 2.341-1.345 3.415-2.179 7.621-5.918 16.58-17.326 16.58-34.109l1.603-11.672c.427-3.11.103-6.288-1.022-9.224z" fill="#ffc7ab"/><g><path d="m124.685 371.582c-7.621-5.918-16.58-17.326-16.58-34.109l-1.603-11.674c-.431-3.142-.096-6.352 1.056-9.311.355-.912.799-1.834 1.354-2.705.963-1.511 1.402-3.293 1.271-5.075-.342-4.652-.208-13.366 4.828-17.266-1.155-.089-2.302-.316-3.413-.686-4.506-1.498-11.571-2.999-17.33-.407-6.799 3.059-6.981 13.208-6.603 18.359.131 1.782-.308 3.564-1.271 5.075-.555.871-.999 1.792-1.354 2.705-1.152 2.959-1.488 6.168-1.056 9.311l1.603 11.674c0 16.783 8.959 28.191 16.58 34.109 3.978 3.089 8.887 4.767 13.942 4.767 3.973 0 7.848-1.05 11.259-2.993-.93-.53-1.832-1.113-2.683-1.774z" fill="#ffaa7b"/></g></g></g></svg>