<svg id="Layer_1" enable-background="new 0 0 512 512" height="512" viewBox="0 0 512 512" width="512" xmlns="http://www.w3.org/2000/svg"><g><path d="m438.219 430.758c39.027-43.397 62.783-100.801 62.783-163.76 0-135.311-109.691-245.002-245.002-245.002s-245.002 109.691-245.002 245.002c0 61.762 22.862 118.179 60.575 161.271z" fill="#816ae2"/><path d="m306.839 310.557c-2.912-.738-5.5-2.502-7.139-5.02-5.83-8.961-7.466-22.222-7.799-31.916-4.449 5.183-9.12 9.518-13.582 12.983-7.357 5.714-16.174 9.208-25.408 10.15 0 9.032-1.44 39.162-19.987 51.616-.924.058-3.15.273-5.817.996 17.641 7.31 38.339 4.864 53.856-7.185 6.765-5.253 18.129-15.541 27.593-31.156-.574-.151-1.138-.322-1.717-.468z" fill="#ffaa7b"/><path d="m254.42 296.581c-2.17.288-4.365.442-6.573.442-11.05 0-21.778-3.667-30.472-10.419-4.462-3.465-9.133-7.801-13.582-12.983-.334 9.694-1.969 22.956-7.8 31.916-1.639 2.518-4.227 4.282-7.139 5.02-.578.147-1.142.317-1.717.468 9.465 15.616 20.83 25.903 27.595 31.157 4.587 3.562 9.616 6.269 14.873 8.146 2.244-.438 3.805-.481 3.805-.481 19.711-12.865 21.051-44.169 21.01-53.266z" fill="#fc9460"/><path d="m436.58 412.884c-3.523-30.505-17.282-72.116-65.732-76.077-5.685-.465-8.71-2.67-15.409-6.448-7.175-4.046-14.41-7.619-21.801-10.746-12.124 21.923-27.754 36.136-36.728 43.105-24.607 19.106-57.663 21.811-84.648 8.438.063.483.114.96.202 1.455-4.837.632-19.651 2.891-34.744 8.465-24.553 9.068-38.726 22.765-40.984 39.609-2.784 20.755.831 44.619 4.354 60.984.145.673.292 1.332.438 1.99 34.163 18.093 73.12 28.341 114.472 28.341 35.806 0 69.811-7.693 100.469-21.5v-71.823c0-5.67 3.763-8.972 7.283-10.171 3.515-1.196 8.5-.878 11.954 3.604 10.591 13.75 16.705 33.011 18.266 57.34 16.258-11.103 31.122-24.099 44.247-38.694z" fill="#49b1f7"/><path d="m138.221 420.884c5.333-39.764 76.034-46.979 76.034-46.979-.154-.678-.276-1.333-.381-1.974-5.281-2.471-10.349-5.534-15.089-9.215-8.974-6.968-24.604-21.181-36.729-43.104-7.391 3.128-14.625 6.701-21.801 10.747-6.7 3.778-9.724 5.983-15.409 6.448-14.85 1.214-26.441 5.965-35.477 12.849-18.293 13.936-26.455 37.504-21.716 60.007l3.919 18.607c20.083 22.948 44.388 42.101 71.689 56.28-4.133-18.22-7.869-42.573-5.04-63.666z" fill="#1e9ef4"/><path d="m245.847 64.274.314.196c-3.321 3.042-10.606 10.911-11.612 22.158-.863 9.652 3.126 19.355 11.855 28.841.194.211.371.428.556.643 3.625.103 7.264-.402 10.746-1.56 9.847-3.275 25.289-6.555 37.877-.89 14.816 6.667 13.575 27.062 12.758 38.348-.285 3.924.648 7.86 2.769 11.187 1.252 1.964 2.246 4.047 3.034 6.104.98 2.557 1.677 6.878 2.108 9.561 2.274-1.102 7.205-2.302 9.986-1.909.34-11.799 1.429-26.198 1.429-26.198 11.965-58.598-36.968-86.906-81.82-86.481z" fill="#56415e"/><path d="m233.113 65.182c-44.245 6.029-48.45 31.114-48.47 40.318-.004 1.93-1.073 3.719-2.809 4.563-23.015 11.196-10.606 66.835-10.606 66.835 2.311.154 6.41 1.09 8.214 1.964.442-2.749 1.163-7.136 2.182-9.753.776-1.994 1.746-4.008 2.959-5.911 2.105-3.302 3.063-7.197 2.777-11.092-.827-11.257-2.109-31.759 12.751-38.445 12.588-5.664 28.03-2.384 37.877.89 3.537 1.176 7.235 1.677 10.917 1.553-.441-.558-.9-1.111-1.398-1.652-26.714-29.027 1.185-50.17 1.185-50.17-5.265-.091-10.493.207-15.579.9z" fill="#47354f"/><path d="m331.21 176.806c-3.446-3.158-11.15-1.557-14.118.377.65 4.049.687 8.191.126 12.282l-3.503 25.509c0 2.056-.065 4.074-.184 6.056 8.541 2.576 13.623-5.091 14.337-10.353.308-2.265.811-4.497 1.508-6.676 2.273-7.096 10.468-19.282 1.834-27.195z" fill="#ffaa7b"/><path d="m164.483 176.806c3.446-3.158 11.15-1.557 14.118.377-.65 4.049-.687 8.191-.126 12.282l3.503 25.509c0 2.056.065 4.074.184 6.056-8.54 2.576-13.623-5.091-14.337-10.353-.308-2.265-.81-4.497-1.508-6.676-2.272-7.096-10.468-19.282-1.834-27.195z" fill="#fc9460"/><path d="m315.824 169.302c-.788-2.057-1.782-4.14-3.034-6.104-2.121-3.327-3.054-7.263-2.769-11.187.818-11.287.379-33.361-14.438-40.028-12.588-5.664-28.028-2.384-37.876.89-4.422 1.47-9.097 1.899-13.677 1.336-8.561 9.635-8.723 26.75-8.023 36.28.295 4.015-.693 8.031-2.863 11.435-1.251 1.962-2.251 4.038-3.051 6.094-2.595 6.668-3.352 13.899-2.38 20.979l3.612 26.304c0 37.815 20.186 63.518 37.357 76.853.86.668 1.744 1.298 2.642 1.905 2.444-1.308 4.786-2.822 6.995-4.537 16.656-12.934 36.236-37.866 36.236-74.547l3.502-25.509c.934-6.802.226-13.747-2.233-20.164z" fill="#ffc7ab"/><g><path d="m268.828 289.52c-16.656-12.934-36.236-37.866-36.236-74.547l-3.503-25.514c-.943-6.868-.209-13.882 2.309-20.349.776-1.994 1.746-4.008 2.959-5.911 2.105-3.302 3.063-7.197 2.777-11.092-.744-10.123-.49-29.075 10.374-37.653-3.218-.035-6.432-.554-9.521-1.581-9.847-3.274-25.288-6.554-37.876-.89-14.859 6.686-15.257 28.867-14.43 40.124.286 3.894-.672 7.79-2.777 11.092-1.213 1.903-2.183 3.917-2.959 5.911-2.517 6.467-3.251 13.482-2.309 20.349l3.503 25.514c0 36.681 19.581 61.613 36.236 74.547 8.694 6.751 19.422 10.418 30.472 10.418 9.116 0 18.01-2.502 25.727-7.166-1.638-.989-3.225-2.07-4.746-3.252z" fill="#ffaa7b"/></g><path d="m306.928 310.581c-9.281 15.174-20.35 25.183-26.961 30.318-14.419 11.195-33.419 13.823-50.002 7.831-3.93.678-10.353 2.555-14.39 7.749-3.232 4.157-4.277 9.579-3.112 16.132-.221.029-.469.062-.731.098 27.462 13.518 61.082 10.775 86.174-8.708 9.121-7.083 24.97-21.503 37.236-43.741-9.099-3.94-18.428-7.193-28.214-9.679z" fill="#73c3f9"/><path d="m215.728 340.899c-6.612-5.134-17.68-15.144-26.962-30.318-9.786 2.486-19.115 5.739-28.214 9.679 12.267 22.238 28.115 36.658 37.236 43.74 5.152 4.001 10.687 7.289 16.464 9.89-5.285-23.395 19.157-24.043 19.157-24.043-6.282-1.789-12.297-4.767-17.681-8.948z" fill="#49b1f7"/><path d="m469.165 146.161c-31.374 10.831-85.478 34.944-97.611 75.383-17.333 57.771 13.993 80.811 66.665 98.068 24.942 8.172 30.96 33.056 35.819 59.185 17.226-33.52 26.964-71.519 26.964-111.799 0-43.943-11.579-85.178-31.837-120.837z" fill="#9181f2"/><path d="m130.888 151.373c3.329-27.931-12.76-54.575-29.707-74.256-55.036 44.927-90.183 113.296-90.183 189.881 0 32.854 6.47 64.194 18.202 92.822 7.01-17.807 19.483-37.237 41.687-49.239 49.617-26.819 53.334-103.267 60.001-159.208z" fill="#9181f2"/><g><path d="m414.505 74.864c-15.889-.942-28.18-16.324-28.302-16.48l-15.397-13.691c-16.317-16.317-6.647-33.238.382-42.762-5.456-1.249-11.127-1.931-16.96-1.931-21.977 0-41.757 9.375-55.583 24.334 2.168 5.806 6.904 12.403 17.239 14.848 17.29 4.09 69.257 68.141 74.687 74.884-.407 2.154-1.064 8.213 3.165 12.715 2.576 2.742 6.443 4.33 11.54 4.781 15.14-13.839 24.64-33.746 24.64-55.875 0-1.583-.065-3.151-.16-4.71-4.897 2.883-10 4.19-15.251 3.887z" fill="#ff4155"/><path d="m429.839 72.708c-1.365-35.209-26.764-64.25-60.265-71.149-7.032 9.731-16.647 27.418.15 44.215l15.277 13.556s20.986 26.71 44.838 13.378z" fill="#ff7186"/><path d="m392.221 113.678s-57.101-71.517-75.985-75.985c-10.142-2.4-14.541-8.981-16.444-14.562-13.147 13.615-21.249 32.133-21.249 52.555 0 41.801 33.886 75.687 75.686 75.687 20.414 0 38.927-8.097 52.541-21.236-18.817-.855-14.549-16.459-14.549-16.459z" fill="#e80054"/><g><path d="m323.444 116.664c-2.609 0-5.217-.995-7.208-2.986-3.981-3.981-3.981-10.436 0-14.417l61.568-61.568c3.981-3.98 10.435-3.978 14.416 0 3.981 3.981 3.98 10.436-.001 14.417l-61.568 61.568c-1.989 1.99-4.598 2.986-7.207 2.986z" fill="#bec8f7"/></g><g><path d="m385.012 116.664c-2.609 0-5.218-.995-7.208-2.986l-61.568-61.568c-3.981-3.981-3.982-10.436 0-14.417 3.981-3.98 10.436-3.98 14.416 0l61.568 61.568c3.981 3.981 3.982 10.436.001 14.417-1.991 1.99-4.6 2.986-7.209 2.986z" fill="#deeeff"/></g></g><path d="m228.615 240.563c-4.749-6.977-13.942-15.019-20.77-18.492-12.769-6.495-28.359-.715-33.746 12.559l-5.29 13.77c-.818 2.015-2.841 3.272-5.01 3.114l-1.046-.077c-4.902-.359-9.448 2.574-11.142 7.188l-4.884 13.306c-2.293 6.247-1.928 13.162 1.012 19.132l6.25 12.694c1.853 3.764 1.628 8.217-.593 11.775l-38.283 70.286c.249.614.573 1.591.875 2.505 3.282 9.954 12.787 38.755 54.396 31.359l24.528-84.964c3.138-7.448 8.061-14.009 14.334-19.104l1.32-1.072c5.727-4.65 9.789-11.034 11.577-18.191l10.402-33.04c1.947-7.796.592-16.104-3.93-22.748z" fill="#ffc7ab"/><path d="m115.96 384.264-35.547 65.263c-11.078 20.339-2.386 45.801 18.816 55.121 21.904 9.628 47.274-2.247 53.911-25.236l17.707-61.335c-48.437 9.062-52.308-31.233-54.887-33.813z" fill="#ffaa7b"/><path d="m354.969 491.16c14.245-6.3 27.782-13.905 40.447-22.687-1.997-28.555-10.09-46.332-18.521-57.277-7.125-9.249-21.925-4.194-21.925 7.481v72.483z" fill="#1e9ef4"/></g></svg>