<svg id="Capa_1" enable-background="new 0 0 512 512" height="512" viewBox="0 0 512 512" width="512" xmlns="http://www.w3.org/2000/svg"><g><path d="m256 22c-129.932 0-236.222 101.15-244.466 229l1.845 1h138.45l.299-.415c17.383-24.11 40.406-44.353 66.579-58.54 26.364-14.29 56.13-22.534 86.082-23.839l.857-.037.093-.854c1.341-12.281 11.662-21.542 24.008-21.542h138.093l1.122-.971c-42.179-73.93-121.755-123.802-212.962-123.802z" fill="#8ac9fe"/><g fill="#b3dafe"><path d="m303.278 65h-18c-.808 0-1.585-.131-2.315-.368.011.123.037.242.037.368v4c0 2.206-1.794 4-4 4h-5v7h29.278c4.142 0 7.5-3.358 7.5-7.5s-3.358-7.5-7.5-7.5z"/><path d="m312.778 35h-84.778c-4.142 0-7.5 3.358-7.5 7.5s3.358 7.5 7.5 7.5h14.639c4.142 0 7.5 3.358 7.5 7.5 0 1.265-.316 2.455-.869 3.5h29.377c-.553-1.045-.869-2.235-.869-3.5 0-4.142 3.358-7.5 7.5-7.5h27.5c4.142 0 7.5-3.358 7.5-7.5s-3.358-7.5-7.5-7.5z"/></g><g><path d="m46 73v179h105.829l.299-.415c29.661-41.139 73.914-69.067 122.872-78.773v-99.812z" fill="#9facba"/><path d="m46 73h16v149h-16z" fill="#8d9ca8"/><g fill="#596c76"><path d="m115 60h-73c-2.761 0-5 2.239-5 5v4c0 2.761 2.239 5 5 5h73z"/><path d="m279 60h-73v14h73c2.761 0 5-2.239 5-5v-4c0-2.761-2.239-5-5-5z"/></g><path d="m69 69v-4c0-2.761 2.239-5 5-5h-32c-2.761 0-5 2.239-5 5v4c0 2.761 2.239 5 5 5h32c-2.761 0-5-2.239-5-5z" fill="#465a61"/><g><g><path d="m90.437 187h-16c-2.761 0-5-2.239-5-5v-32c0-2.761 2.239-5 5-5h16c2.761 0 5 2.239 5 5v32c0 2.761-2.238 5-5 5z" fill="#d8ecfe"/></g><path d="m78 182v-32c0-2.761 2.239-5 5-5h-8.563c-2.761 0-5 2.239-5 5v32c0 2.761 2.239 5 5 5h8.563c-2.761 0-5-2.239-5-5z" fill="#c4e2ff"/><path d="m90 252v-25c0-2.761-2.239-5-5-5h-41c-2.761 0-5 2.239-5 5v25z" fill="#b6c4cf"/><path d="m64 222h-20c-2.761 0-5 2.239-5 5v25h20v-25c0-2.761 2.239-5 5-5z" fill="#9facba"/><path d="m230.562 187h.443c6.693-3.053 13.554-5.739 20.557-8.04v-28.96c0-2.761-2.239-5-5-5h-16c-2.761 0-5 2.239-5 5v32c0 2.761 2.239 5 5 5z" fill="#d8ecfe"/><path d="m234 182v-32c0-2.761 2.239-5 5-5h-8.438c-2.761 0-5 2.239-5 5v32c0 2.761 2.239 5 5 5h.443c1.378-.628 2.767-1.231 4.159-1.829-.716-.865-1.164-1.96-1.164-3.171z" fill="#c4e2ff"/></g><g><path d="m207 166v-119.5c0-25.681-20.819-46.5-46.5-46.5-25.681 0-46.5 20.819-46.5 46.5v119.5z" fill="#8d9ca8"/><path d="m168.5.7c-2.601-.451-5.27-.7-8-.7-25.681 0-46.5 20.819-46.5 46.5v119.5h16v-119.5c0-22.952 16.633-42.006 38.5-45.8z" fill="#7a8c98"/><path d="m114 179v73h37.829l.299-.415c14.989-20.789 33.708-38.202 54.872-51.602v-20.983z" fill="#8d9ca8"/></g><g><path d="m152.562 166v-22c0-2.761-2.239-5-5-5h-16c-2.761 0-5 2.239-5 5v22z" fill="#b6c4cf"/><path d="m140 139h-8.438c-2.761 0-5 2.239-5 5v22h8.438v-22c0-2.761 2.239-5 5-5z" fill="#9facba"/><path d="m190.562 166v-22c0-2.761-2.239-5-5-5h-16c-2.761 0-5 2.239-5 5v22z" fill="#b6c4cf"/><path d="m178 139h-8.438c-2.761 0-5 2.239-5 5v22h8.438v-22c0-2.761 2.239-5 5-5z" fill="#9facba"/></g><path d="m151.829 252 .299-.415c10.835-15.027 23.626-28.28 37.872-39.541v-16.044c0-2.761-2.239-5-5-5h-49c-2.761 0-5 2.239-5 5v56z" fill="#c4e2ff"/><path d="m151.829 252 .299-.415c2.671-3.704 5.472-7.288 8.372-10.774v-49.811h-24.5c-2.761 0-5 2.239-5 5v56z" fill="#d8ecfe"/><g><path d="m204 179v22.927c4.87-3.207 9.874-6.197 15-8.964v-13.963z" fill="#d9e7ec"/><path d="m212 179h-8v22.927c2.627-1.73 5.297-3.392 8-4.994z" fill="#b6c4cf"/><path d="m102 179h15v73h-15z" fill="#d9e7ec"/><path d="m102 179h8v73h-8z" fill="#b6c4cf"/><path d="m11.534 251c-.341 5.291-.534 10.623-.534 16 0 6.054.224 12.056.656 18l3.834 1h113.438l3.729-1 .61-1.306c5.404-11.559 11.89-22.485 19.306-32.694z" fill="#596c76"/></g><g><path d="m226 180h-131c-1.657 0-3-1.343-3-3v-9c0-1.657 1.343-3 3-3h131c1.657 0 3 1.343 3 3v9c0 1.657-1.343 3-3 3z" fill="#596c76"/></g><path d="m116 177v-9c0-1.657 1.343-3 3-3h-24c-1.657 0-3 1.343-3 3v9c0 1.657 1.343 3 3 3h24c-1.657 0-3-1.343-3-3z" fill="#465a61"/><g><circle cx="160.5" cy="47.5" fill="#d8ecfe" r="22.5"/></g><path d="m154 47.5c0-9.608 6.024-17.805 14.5-21.031-2.486-.946-5.182-1.469-8-1.469-12.426 0-22.5 10.074-22.5 22.5s10.074 22.5 22.5 22.5c2.818 0 5.514-.523 8-1.469-8.476-3.226-14.5-11.423-14.5-21.031z" fill="#c4e2ff"/><g><g><path d="m90.437 129h-16c-2.761 0-5-2.239-5-5v-32c0-2.761 2.239-5 5-5h16c2.761 0 5 2.239 5 5v32c0 2.761-2.238 5-5 5z" fill="#d8ecfe"/></g><path d="m78 124v-32c0-2.761 2.239-5 5-5h-8.563c-2.761 0-5 2.239-5 5v32c0 2.761 2.239 5 5 5h8.563c-2.761 0-5-2.239-5-5z" fill="#c4e2ff"/><g><path d="m246.562 129h-16c-2.761 0-5-2.239-5-5v-32c0-2.761 2.239-5 5-5h16c2.761 0 5 2.239 5 5v32c0 2.761-2.238 5-5 5z" fill="#d8ecfe"/></g><path d="m234 124v-32c0-2.761 2.239-5 5-5h-8.438c-2.761 0-5 2.239-5 5v32c0 2.761 2.239 5 5 5h8.438c-2.761 0-5-2.239-5-5z" fill="#c4e2ff"/><g><g><path d="m147.562 129h-16c-2.761 0-5-2.239-5-5v-32c0-2.761 2.239-5 5-5h16c2.761 0 5 2.239 5 5v32c0 2.761-2.238 5-5 5z" fill="#d8ecfe"/></g><path d="m135 124v-32c0-2.761 2.239-5 5-5h-8.438c-2.761 0-5 2.239-5 5v32c0 2.761 2.239 5 5 5h8.438c-2.761 0-5-2.239-5-5z" fill="#c4e2ff"/><g><path d="m185.562 129h-16c-2.761 0-5-2.239-5-5v-32c0-2.761 2.239-5 5-5h16c2.761 0 5 2.239 5 5v32c0 2.761-2.238 5-5 5z" fill="#d8ecfe"/></g><path d="m173 124v-32c0-2.761 2.239-5 5-5h-8.438c-2.761 0-5 2.239-5 5v32c0 2.761 2.239 5 5 5h8.438c-2.761 0-5-2.239-5-5z" fill="#c4e2ff"/></g></g></g><path d="m113.538 375 4.077-1c.098-.396.246-.784.446-1.156l11.252-20.844-3.082-1h-96.71l-3.365 1c2.781 7.516 5.929 14.853 9.407 22l6.18 1z" fill="#ffbd86"/><path d="m70 413-9.995 1c44.695 59.504 115.844 98 195.995 98s151.3-38.496 195.995-98l-5.995-1z" fill="#81b823"/><path d="m56 389-11.909 1c4.843 8.322 10.159 16.338 15.914 24h391.99c5.755-7.662 11.072-15.677 15.914-24l-8.909-1z" fill="#ffbd86"/><g><path d="m111.343 337 2.556-1c-1.366-3.998-1.162-8.395.68-12.333l18.078-38.667h-120.996c1.277 17.582 4.424 34.643 9.217 51l3.258 1z" fill="#8d9ca8"/></g><g><path d="m118.165 377.634c-.668-1.119-.852-2.414-.55-3.634h-82.053c2.651 5.449 5.495 10.786 8.529 16h423.818c1.911-3.284 3.738-6.622 5.497-10h-351.075c-1.726 0-3.283-.884-4.166-2.366z" fill="#9facba"/></g><path d="m131.886 347.232h-2.311c-5.69 0-10.911-2.866-13.966-7.667-.721-1.133-1.288-2.331-1.709-3.566h-93.032c1.586 5.412 3.346 10.75 5.288 16h103.157z" fill="#9facba"/><g><path d="m313.487 169.009h167.1c-3.477-7.963-7.352-15.712-11.626-23.207-.372-.016-.746-.029-1.122-.029h-138.093c-13.259 0-24.201 10.396-25.095 23.438 2.939-.129 5.884-.202 8.836-.202z" fill="#fdb441"/><path d="m361.159 145.774h-31.413c-13.259 0-24.201 10.396-25.095 23.438 2.939-.13 5.884-.203 8.836-.203h22.596c.993-12.947 11.886-23.235 25.076-23.235z" fill="#fea613"/><path d="m213.842 327.337c-4.031 0-7.733 2.2-9.661 5.74l-5.149 9.458c-1.577 2.896-4.605 4.696-7.904 4.696h-59.455l-1.462 1-13.029 24.137c-2.104 3.899.719 8.631 5.149 8.631h350.567c8.706-16.529 15.576-34.172 20.344-52.663l-2.452-1h-276.948z" fill="#596c76"/><g><path d="m152.94 372.369 13.029-24.137 1.462-1h-35.758l-1.462 1-13.029 24.137c-2.104 3.899.719 8.631 5.149 8.631h35.758c-4.431 0-7.254-4.732-5.149-8.631z" fill="#465a61"/></g><path d="m499.942 272.334h-26.654c-2.206 0-4-1.794-4-4v-54.365c0-2.206 1.794-4 4-4h19.992l.787-1c-3.447-14.174-8.117-27.868-13.907-40.96h-166.673c-77.632 0-148.247 44.937-181.126 115.262l-18.688 39.972c-5.442 11.639 3.054 24.989 15.902 24.989h61.552c3.662 0 7.031-2.002 8.783-5.218l5.149-9.458c1.751-3.216 5.12-5.218 8.783-5.218h279.416c1.487-5.769 2.767-11.628 3.836-17.554l-3.162-1h-40.932v-20.235h43.811l3.235-1c.439-5.031.744-10.101.873-15.214z" fill="#eaf6ff"/><path d="m140.673 323.243 18.688-39.972c32.879-70.325 103.494-115.262 181.126-115.262h-27c-77.632 0-148.247 44.937-181.126 115.262l-18.688 39.972c-5.442 11.639 3.054 24.989 15.902 24.989h27c-12.848 0-21.343-13.35-15.902-24.989z" fill="#d8ecfe"/><g><g><path d="m343.068 268.334v-54.365c0-2.761-2.239-5-5-5h-40.109c-43.756 0-84.556 21.546-109.531 56.433-2.375 3.317-.021 7.932 4.058 7.932h145.583c2.76 0 4.999-2.238 4.999-5z" fill="#9facba"/></g><g><path d="m468.288 213.969v54.365c0 2.761 2.239 5 5 5h27.632c.053-2.105.08-4.216.08-6.334 0-19.996-2.413-39.426-6.933-58.031h-20.779c-2.762 0-5 2.238-5 5z" fill="#9facba"/></g></g><g><path d="m255.297 215.981c-26.75 9.003-50.296 26.27-66.87 49.421-2.375 3.317-.021 7.932 4.058 7.932h62.812z" fill="#8d9ca8"/></g><g fill="#fdb441"><path d="m359.355 288.548h-178.712c-1.654 0-3.2.818-4.132 2.184l-8.339 12.235c-2.262 3.319.115 7.816 4.132 7.816h187.052v-22.235z"/><path d="m452 288.548v22.235h45.094c1.318-7.303 2.297-14.723 2.952-22.235z"/></g><path d="m205.877 302.967 8.339-12.235c.931-1.366 2.478-2.184 4.132-2.184h-37.705c-1.654 0-3.2.818-4.132 2.184l-8.339 12.235c-2.262 3.319.115 7.816 4.132 7.816h37.705c-4.017 0-6.394-4.497-4.132-7.816z" fill="#fea613"/><g><path d="m358.355 168.009h94.645v160.328h-94.645z" fill="#fff"/></g><g><path d="m435 310v-3c0-2.761-2.239-5-5-5h-48.645c-2.761 0-5 2.239-5 5v3c0 2.761 2.239 5 5 5h48.645c2.761 0 5-2.239 5-5z" fill="#eaf6ff"/></g><g><path d="m405.678 282.93c-13.234 0-23.962-10.728-23.962-23.962v-37.506c0-13.234 10.728-23.962 23.962-23.962 13.234 0 23.962 10.728 23.962 23.962v37.506c0 13.234-10.728 23.962-23.962 23.962z" fill="#9facba"/></g><path d="m398.076 258.968v-37.506c0-10.361 6.576-19.185 15.782-22.528-2.553-.927-5.307-1.434-8.18-1.434-13.234 0-23.962 10.728-23.962 23.962v37.506c0 13.234 10.728 23.962 23.962 23.962 2.873 0 5.627-.507 8.18-1.434-9.206-3.343-15.782-12.167-15.782-22.528z" fill="#8d9ca8"/><g><g><path d="m405.678 290.431c-17.349 0-31.462-14.114-31.462-31.462v-37.506c0-17.349 14.113-31.462 31.462-31.462s31.462 14.114 31.462 31.462v37.506c0 17.348-14.114 31.462-31.462 31.462zm0-85.431c-9.077 0-16.462 7.385-16.462 16.462v37.506c0 9.078 7.385 16.462 16.462 16.462s16.462-7.385 16.462-16.462v-37.506c0-9.077-7.385-16.462-16.462-16.462z" fill="#eaf6ff"/></g></g><g><path d="m324.343 364.616h-90.112c-6.437 0-11.703-5.266-11.703-11.703 0-6.437 5.266-11.703 11.703-11.703h90.112c6.437 0 11.703 5.266 11.703 11.703 0 6.437-5.266 11.703-11.703 11.703z" fill="#465a61"/></g><g><path d="m462.436 364.616h-90.112c-6.437 0-11.703-5.266-11.703-11.703 0-6.437 5.266-11.703 11.703-11.703h90.112c6.437 0 11.703 5.266 11.703 11.703 0 6.437-5.266 11.703-11.703 11.703z" fill="#465a61"/></g></g><g><path d="m322.625 134h-28.125c-4.125 0-7.5-3.375-7.5-7.5 0-4.125 3.375-7.5 7.5-7.5h28.125c4.125 0 7.5 3.375 7.5 7.5 0 4.125-3.375 7.5-7.5 7.5z" fill="#b3dafe"/></g><path d="m390.75 84h-45.25c-4.125 0-7.5 3.375-7.5 7.5s3.375 7.5 7.5 7.5h45.25c4.125 0 7.5-3.375 7.5-7.5s-3.375-7.5-7.5-7.5z" fill="#b3dafe"/><g><g><path d="m261 446.5h-10c-4.142 0-7.5-3.358-7.5-7.5s3.358-7.5 7.5-7.5h10c4.143 0 7.5 3.358 7.5 7.5s-3.357 7.5-7.5 7.5z" fill="#8bc727"/></g><g><g><path d="m145 446.5h-10c-4.142 0-7.5-3.358-7.5-7.5s3.358-7.5 7.5-7.5h10c4.142 0 7.5 3.358 7.5 7.5s-3.358 7.5-7.5 7.5z" fill="#8bc727"/></g><g><path d="m377 446.5h-10c-4.143 0-7.5-3.358-7.5-7.5s3.357-7.5 7.5-7.5h10c4.143 0 7.5 3.358 7.5 7.5s-3.357 7.5-7.5 7.5z" fill="#8bc727"/></g></g><g><g><path d="m201.5 474.5h-10c-4.142 0-7.5-3.358-7.5-7.5s3.358-7.5 7.5-7.5h10c4.142 0 7.5 3.358 7.5 7.5s-3.358 7.5-7.5 7.5z" fill="#8bc727"/></g><g><path d="m320.5 474.5h-10c-4.143 0-7.5-3.358-7.5-7.5s3.357-7.5 7.5-7.5h10c4.143 0 7.5 3.358 7.5 7.5s-3.357 7.5-7.5 7.5z" fill="#8bc727"/></g></g></g></g></svg>