<svg id="Layer_1" enable-background="new 0 0 512 512" height="512" viewBox="0 0 512 512" width="512" xmlns="http://www.w3.org/2000/svg"><g><path d="m430 439.465c43.887-44.275 71.002-105.202 71.002-172.467 0-135.311-109.691-245.002-245.002-245.002s-245.002 109.691-245.002 245.002c0 67.266 27.115 128.192 71.002 172.467z" fill="#49b1f7"/><path d="m19.174 317.146 67.159 45.468v-49.333z" fill="#a8b7ef"/><path d="m429.387 125.854c-7.033-11.247-29.914-13.106-40.767-13.334h-47.49c-13.04 0-23.649-10.609-23.649-23.65v-45.914c0-25.783-13.229-38.878-18.18-42.875-.873-.049-1.748-.081-2.626-.081h-90.877c-13.959 8.763-30.556 25.753-30.556 57.01v117.937s-1.909 13.813 9.424 19.906c0 0-1.046.888-2.366 2.429h247.7v-63.958c0-2.519-.214-5.015-.613-7.47z" fill="#ff4155"/><path d="m187.667 194.854c-11.333-6.094-9.424-19.906-9.424-19.906s0-64 0-117.937c0-31.257 16.598-48.247 30.556-57.01h-101.649c-13.89-.001-25.15 11.259-25.15 25.149v172.133h103.301c1.319-1.542 2.366-2.429 2.366-2.429z" fill="#e80054"/><path d="m408.148 336.447h-200.056c-13.928 0-25.259 11.331-25.259 25.259v81.839c0 17.395 4.814 34.199 13.923 48.596 3.127 4.943 6.814 10.058 11.123 15.119 15.561 3.1 31.647 4.74 48.12 4.74 68.045 0 129.604-27.747 174-72.535v-98.226c-4.64-2.571-11.609-4.792-21.851-4.792z" fill="#ff4155"/><path d="m430 314.717h-348v124.748c34.205 34.507 78.605 58.882 128.303 68.262-4.883-5.543-8.947-11.123-12.279-16.388-9.036-14.281-13.691-30.894-13.691-47.793v-81.839c0-13.122 10.637-23.759 23.759-23.759h200.055c10.526 0 17.436 2.413 21.852 5.044v-28.275z" fill="#e80054"/><path d="m365.337 94.866s0 0 0-21c0-7.792 3.563-12.895 8.272-16.237l-43.979-43.978c-8.74-8.741-20.594-13.651-32.955-13.651 0 0 19.305 12.379 19.305 42.956v45.914c0 13.89 11.26 25.15 25.15 25.15h34.235c-10.42-8.179-10.028-19.154-10.028-19.154z" fill="#ff7186"/><path d="m430 133.325c0-12.361-4.91-24.215-13.65-32.955l-43.54-43.54c-5.29 3.309-9.472 8.595-9.472 17.037v21s-.393 10.975 10.027 19.154h15.254c11.633.244 41.381 2.51 41.381 19.304z" fill="#fc9daf"/><path d="m492.826 194.854h-308.159s-17.667 14.927.5 29.26l-2.607 68.145s-15.754 10.944-1.43 24.888h311.696c6.899 0 12.543-5.645 12.543-12.543v-97.206c0-6.9-5.644-12.544-12.543-12.544z" fill="#deeeff"/><path d="m187.667 194.854h-168.493c-6.899 0-12.543 5.645-12.543 12.543v97.206c0 6.899 5.645 12.543 12.543 12.543h164.955c-14.324-13.943 1.43-24.888 1.43-24.888l2.607-68.145c-18.166-14.332-.499-29.259-.499-29.259z" fill="#bec8f7"/><g><g><path d="m393.768 292.261c-2.957 0-5.741-1.805-6.846-4.735l-15.932-42.217-16.087 42.238c-1.44 3.777-5.675 5.671-9.442 4.233-3.777-1.438-5.672-5.666-4.234-9.442l21.737-57.071c.022-.055.043-.111.066-.165 1.33-3.254 4.463-5.359 7.978-5.362h.008c3.512 0 6.644 2.099 7.98 5.348.026.066.053.132.078.199l21.539 57.073c1.427 3.781-.481 8.002-4.262 9.43-.851.319-1.725.471-2.583.471z" fill="#6c5475"/></g><g><path d="m387.097 278.045h-32.254c-4.041 0-7.317-3.276-7.317-7.317s3.276-7.317 7.317-7.317h32.254c4.041 0 7.317 3.276 7.317 7.317s-3.276 7.317-7.317 7.317z" fill="#6c5475"/></g></g><g><g><path d="m97.194 292.259c-4.041 0-7.317-3.276-7.317-7.317v-57.778c0-3.202 2.082-6.032 5.14-6.985 3.059-.954 6.38.192 8.198 2.828l27.024 39.131-.339-35.012c-.039-4.041 3.205-7.348 7.247-7.387.023-.001.048-.001.072-.001 4.009 0 7.277 3.229 7.316 7.247l.54 55.936c0 4.007-2.24 7.25-5.705 8.333-3.394 1.06-6.977-.256-9.126-3.357l-25.732-37.26v34.306c-.001 4.04-3.277 7.316-7.318 7.316z" fill="#56415e"/></g></g><g><g><path d="m185.559 292.259c-4.041 0-7.317-3.276-7.317-7.317v-57.778c0-3.202 2.082-6.032 5.14-6.985 3.057-.954 6.38.192 8.198 2.828l27.024 39.133-.339-35.012c-.039-4.041 3.205-7.349 7.247-7.387.023-.001.048-.001.071-.001 4.009 0 7.277 3.229 7.316 7.246l.541 55.936c0 4.007-2.24 7.25-5.705 8.333-3.399 1.063-6.981-.257-9.127-3.357l-25.732-37.26v34.306c0 4.039-3.275 7.315-7.317 7.315z" fill="#6c5475"/></g></g><g><g><path d="m421.622 292.262c-6.477 0-6.875-.068-7.394-.157-3.512-.602-6.081-3.648-6.081-7.212v-57.837c0-4.041 3.276-7.317 7.317-7.317s7.317 3.276 7.317 7.317v50.568c3.984-.006 8.961-.026 12.912-.047h.042c4.022 0 7.294 3.249 7.316 7.276.023 4.041-3.235 7.335-7.276 7.358-6.561.035-11.054.051-14.153.051z" fill="#6c5475"/></g></g><g><g><path d="m464.134 292.262c-6.484 0-6.883-.068-7.402-.158-3.512-.603-6.079-3.648-6.079-7.211v-57.837c0-4.041 3.276-7.317 7.317-7.317s7.317 3.276 7.317 7.317v50.568c3.984-.006 8.96-.026 12.912-.047h.042c4.022 0 7.293 3.249 7.316 7.276.022 4.041-3.235 7.335-7.276 7.358-6.558.035-11.048.051-14.147.051z" fill="#6c5475"/></g></g><g><g><path d="m161.382 292.259c-4.041 0-7.317-3.276-7.317-7.317v-57.886c0-4.041 3.276-7.317 7.317-7.317s7.317 3.276 7.317 7.317v57.886c0 4.041-3.276 7.317-7.317 7.317z" fill="#56415e"/></g></g><g><g><path d="m267.527 292.259c-9.793 0-19.361-4.107-25.594-10.985-2.713-2.994-2.486-7.622.509-10.335 2.993-2.713 7.621-2.486 10.335.509 3.504 3.868 9.019 6.177 14.749 6.177 5.551 0 9.46-3.312 10.031-6.515.759-4.242-5.018-6.862-7.538-7.791-8.98-3.312-16.953-6.862-17.289-7.011-.352-.157-.691-.342-1.015-.553-6.13-3.996-9.288-11.006-8.243-18.292 1.115-7.764 6.79-14.088 14.813-16.505 15.848-4.775 28.906 5.985 29.453 6.446 3.094 2.6 3.493 7.216.893 10.309-2.59 3.08-7.176 3.49-10.271.924-.221-.176-7.744-6.114-15.854-3.668-3.671 1.106-4.404 3.565-4.548 4.572-.103.72-.155 2.444 1.379 3.685 2.043.894 8.65 3.744 15.746 6.362 14.652 5.405 18.327 15.989 16.88 24.093-1.92 10.765-12.198 18.578-24.436 18.578z" fill="#6c5475"/></g></g><g><g><path d="m53.546 292.258c-.015 0-.031 0-.047 0-5.333-.007-10.245-1.421-14.598-4.203-8.266-5.282-12.458-12.404-12.458-21.168v-39.832c0-4.041 3.276-7.317 7.317-7.317s7.317 3.276 7.317 7.317v39.832c0 3.116.97 5.812 5.703 8.836 1.997 1.275 4.201 1.897 6.739 1.9h.027c2.318 0 4.358-.46 6.236-1.406 6.101-3.073 6.883-6.623 6.883-9.373v-39.79c0-4.041 3.276-7.317 7.317-7.317s7.317 3.276 7.317 7.317v39.79c0 6.807-2.591 16.225-14.935 22.443-3.914 1.972-8.226 2.971-12.818 2.971z" fill="#56415e"/></g></g><g><g><path d="m335.814 234.372h-31.968c-4.041 0-7.317-3.276-7.317-7.317s3.276-7.317 7.317-7.317h31.968c4.041 0 7.317 3.276 7.317 7.317 0 4.042-3.276 7.317-7.317 7.317z" fill="#6c5475"/></g><g><path d="m319.765 292.259c-4.041 0-7.317-3.276-7.317-7.317v-56.038c0-4.041 3.276-7.317 7.317-7.317s7.317 3.276 7.317 7.317v56.038c0 4.041-3.276 7.317-7.317 7.317z" fill="#6c5475"/></g></g><g fill="#73c3f9"><path d="m490.11 339.447h-4.523c-16.64 0-30.254 13.614-30.254 30.254v39.74c15.097-21.085 26.943-44.657 34.777-69.994z"/><path d="m21.89 339.447h4.523c16.64 0 30.254 13.614 30.254 30.254v39.74c-15.097-21.085-26.943-44.657-34.777-69.994z"/><path d="m455.333 124.528v22.011c0 16.051 12.67 29.283 28.502 30.199-7.388-18.634-16.999-36.145-28.502-52.21z"/><path d="m56.667 124.528v22.011c0 16.051-12.67 29.283-28.502 30.199 7.389-18.634 16.999-36.145 28.502-52.21z"/></g></g></svg>