<svg id="Capa_1" enable-background="new 0 0 512 512" height="512" viewBox="0 0 512 512" width="512" xmlns="http://www.w3.org/2000/svg"><g><g><g><path d="m444.498 423.5c35.28-42.446 56.502-96.993 56.502-156.5 0-135.31-109.69-245-245-245s-245 109.69-245 245c0 59.507 21.222 114.054 56.502 156.5z" fill="#a05838"/></g></g><g><g><path d="m107.5 461.851h297c14.733-11.246 28.166-24.109 40-38.351v-32.41c0-2.65-1.05-5.2-2.93-7.07l-15-15c-3.9-3.91-3.9-10.24 0-14.14l15-15c1.88-1.88 2.93-4.42 2.93-7.08v-25.89c0-2.65-1.05-5.2-2.93-7.07l-10-10c-3.9-3.91-3.9-10.24 0-14.15l10-10c1.88-1.87 2.93-4.41 2.93-7.07v-248.62c0-5.52-4.48-10-10-10h-16.24c-2.65 0-5.19 1.05-7.07 2.93l-20 20c-3.9 3.9-10.24 3.9-14.14 0l-20-20c-1.88-1.88-4.42-2.93-7.07-2.93h-200.31c-2.65 0-5.2 1.05-7.07 2.93l-10 10c-3.91 3.9-10.24 3.9-14.15 0l-10-10c-1.87-1.88-4.41-2.93-7.07-2.93h-23.88c-5.52 0-10 4.48-10 10v170.35c0 2.65 1.05 5.19 2.93 7.07l15 15c3.9 3.9 3.9 10.24 0 14.14l-15 15c-1.88 1.88-2.93 4.42-2.93 7.07v184.87c11.834 14.242 25.267 27.104 40 38.351z" fill="#ffdd40"/></g></g><g><g><path d="m107.5 461.851h297c14.733-11.246 28.166-24.109 40-38.351-162.83 0-294.83-132-294.83-294.83v-128.67c-2.65 0-5.2 1.05-7.07 2.93l-10 10c-3.91 3.9-10.24 3.9-14.15 0l-10-10c-1.87-1.88-4.41-2.93-7.07-2.93h-23.88c-5.523 0-10 4.477-10 10v170.346c0 2.653 1.054 5.198 2.93 7.073l15 15c3.905 3.905 3.905 10.235 0 14.14l-15 15c-1.876 1.876-2.93 4.42-2.93 7.073v184.868c11.834 14.242 25.267 27.104 40 38.351z" fill="#ffc839"/></g></g><g><g><path d="m404.5 170.494c0-11.046-8.954-20-20-20h-257c-11.046 0-20 8.954-20 20v291.367c41.203 31.448 92.665 50.139 148.5 50.139s107.297-18.691 148.5-50.139z" fill="#ffc839"/></g></g><g><g><path d="m107.5 170.494v291.357c41.201 31.451 92.666 50.149 148.5 50.149s107.299-18.698 148.5-50.149v-41.062c-136.829-18.562-243.83-130.977-254.025-270.294h-22.975c-11.046-.001-20 8.953-20 19.999z" fill="#ffb332"/></g></g><g><g><g><path d="m323.388 502.598c26.264-7.503 50.729-19.27 72.589-34.517-6.422-17.661-13.26-32.953-19.075-38.088-15.824-13.972-82.129-25.372-87.724-26.314l-66.027-.057c-1.8.298-71.756 11.969-88.068 26.371-5.815 5.134-12.651 20.423-19.072 38.08 21.864 15.25 46.333 27.021 72.601 34.525z" fill="#3c5082"/></g></g><g><g><path d="m308.245 502.598c-53.82-17.234-74.313-63.797-82.049-98.973l-3.045-.003c-1.8.298-71.756 11.969-88.068 26.371-5.815 5.134-12.651 20.423-19.072 38.08 21.864 15.25 46.333 27.021 72.601 34.525z" fill="#2d3c6b"/></g></g><g><g><path d="m354.526 458.74c-10.292-51.516-43.992-110.127-98.512-110.127s-88.22 58.611-98.512 110.127c-1.827 9.143 3.778 18.129 12.791 20.517l1.593.422c5.456 1.446 9.891 5.415 11.932 10.677l4.749 12.242c13.135 3.752 26.721 6.432 40.657 7.948v-.009l26.77-14.006 26.81 14.003v.009c13.937-1.518 27.525-4.2 40.661-7.954l4.745-12.233c2.042-5.262 6.477-9.231 11.933-10.677l1.592-.422c9.013-2.388 14.618-11.374 12.791-20.517z" fill="#4d6596"/></g></g><g><g><path d="m229.224 510.538 26.77-14.006 26.81 14.003v.008c11.144-1.217 22.064-3.18 32.71-5.837-98.471-25.281-93.938-144.197-93.938-144.197l-3.914-1.099c-32.147 19.293-52.552 61.247-60.16 99.33-1.827 9.143 3.778 18.129 12.791 20.517l1.593.422c5.456 1.446 9.891 5.415 11.932 10.677l4.749 12.242c13.135 3.752 26.721 6.432 40.657 7.948z" fill="#3c5082"/></g></g><g><g><path d="m223.151 403.622c-.445.074-5.057.843-11.99 2.176l16.814 67.717c.829 3.34 1.249 6.769 1.249 10.211v26.812c8.796.956 17.726 1.462 26.776 1.462 9.059 0 17.999-.507 26.804-1.465v-26.809c0-3.442.419-6.87 1.249-10.211l16.812-67.709c-6.113-1.175-10.431-1.915-11.687-2.126z" fill="#f1e0c7"/></g></g><g><g><path d="m226.196 403.625-3.045-.003c-.445.074-5.057.843-11.99 2.176l16.814 67.717c.829 3.34 1.249 6.769 1.249 10.211v26.812c8.796.956 17.726 1.462 26.776 1.462 9.059 0 17.999-.507 26.804-1.465v-19.502c-35.213-21.675-50.232-58.417-56.608-87.408z" fill="#e8d0b1"/></g></g><g><g><path d="m308.306 295.622s7.235-17.616 20.133-13.527c12.897 4.089-.312 42.264-25.48 44.669z" fill="#fd995b"/></g></g><g><g><path d="m203.722 295.622s-7.235-17.616-20.133-13.527c-12.897 4.089.312 42.264 25.48 44.669z" fill="#fd995b"/></g></g><g><g><path d="m317.042 286.695c0 44.94-27.323 97.645-61.028 97.645s-61.028-52.705-61.028-97.645 27.323-77.253 61.028-77.253 61.028 32.313 61.028 77.253z" fill="#f9ba8f"/></g></g><g><g><path d="m222.853 286.695c0-38.548 20.104-67.803 47.094-75.346-4.476-1.251-9.14-1.907-13.934-1.907-33.705 0-61.028 32.313-61.028 77.253s27.323 97.645 61.028 97.645c4.794 0 9.458-1.069 13.934-3.028-26.99-11.81-47.094-56.069-47.094-94.617z" fill="#fcad6d"/></g></g><g><g><path d="m282.708 184.453c-3.869 0-7.678.951-11.092 2.769l-3.551 1.89c-3.71 1.975-7.848 3.008-12.05 3.008-4.203 0-8.341-1.033-12.05-3.008l-3.551-1.89c-3.415-1.818-7.224-2.769-11.092-2.769-10.8 0-20.222 7.33-22.879 17.798l-18.385 72.445 67.957 14.712 67.957-14.712-18.385-72.445c-2.657-10.469-12.079-17.798-22.879-17.798z" fill="#3c5082"/></g></g><g><g><path d="m323.971 274.696-10.697-42.153c-63.878 14.015-113.073-5.701-108.165-25.042l-17.052 67.196 67.957 14.712z" fill="#2d3c6b"/></g></g><g><g><path d="m323.754 245.514c-.976-3.845-4.96-6.089-8.763-4.959-17.983 5.343-27.637 14.018-58.977 14.018s-40.994-8.675-58.977-14.018c-3.803-1.13-7.787 1.113-8.763 4.959l-6.77 26.679 74.51 17.215 74.51-17.214z" fill="#4d6596"/></g></g><g><g><g><path d="m235.707 284.716 1.654-6.835c-6.631-1.182-11.048-7.517-9.866-14.148 1.098-6.157 6.638-10.398 12.733-10.027-19.54-2.326-28.642-8.828-43.191-13.15-3.803-1.13-7.787 1.113-8.763 4.959l-6.77 26.678z" fill="#3c5082"/></g></g></g><g><g><g><path d="m256.014 299.858c-29.763 0-44.832-5.651-59.405-11.116-13.419-5.032-26.093-9.785-52.066-9.785-5.772 0-10.45-4.679-10.45-10.45 0-5.772 4.679-10.45 10.45-10.45 29.763 0 44.832 5.651 59.405 11.116 13.419 5.032 26.093 9.785 52.066 9.785s38.647-4.753 52.066-9.785c14.573-5.465 29.642-11.116 59.405-11.116 5.772 0 10.45 4.679 10.45 10.45 0 5.772-4.679 10.45-10.45 10.45-25.973 0-38.647 4.753-52.066 9.785-14.573 5.466-29.642 11.116-59.405 11.116z" fill="#3c5082"/></g></g></g><g><g><path d="m245.564 289.408c0-5.772 4.679-10.45 10.45-10.45-25.973 0-38.647-4.753-52.066-9.785-14.573-5.465-29.642-11.116-59.405-11.116-5.772 0-10.45 4.679-10.45 10.45 0 5.772 4.679 10.45 10.45 10.45 25.973 0 38.647 4.753 52.066 9.785 14.573 5.465 29.642 11.116 59.405 11.116-5.772 0-10.45-4.678-10.45-10.45z" fill="#2d3c6b"/></g></g><g><g><path d="m308.887 393.81c5.538-10.048-6.783-12.187-5.628-18.057s20.546-35.026 5.248-38.228-37.505-27.216-52.493-27.216-36.895 24.014-52.193 27.216 4.093 32.358 5.248 38.228-11.166 8.009-5.628 18.057c0 0-8.442 2.507-7.233 10.546 1.209 8.04 38.52 54.656 59.805 54.656s58.897-46.617 60.106-54.656c1.21-8.04-7.232-10.546-7.232-10.546z" fill="#ff4155"/></g></g><g><g><path d="m224.314 404.356c-1.209-8.04 7.233-10.546 7.233-10.546-5.538-10.048 6.783-12.187 5.628-18.057-.722-3.669-8.029-16.561-10.615-26.273-3.883-14.585 1.915-25.682 1.916-25.683-8.742 6.07-17.434 12.217-24.654 13.728-15.298 3.202 4.093 32.358 5.248 38.228s-11.166 8.009-5.628 18.057c0 0-8.442 2.507-7.233 10.546 1.209 8.04 38.52 54.656 59.805 54.656 4.19 0 9.014-1.812 14.068-4.775-20.54-12.089-44.797-43.424-45.768-49.881z" fill="#e80054"/></g></g></g><g><g><g><g><path d="m210.393 108.608c-3.03 0-5.885-1.85-7.018-4.854l-12.663-33.554-12.788 33.575c-1.475 3.871-5.809 5.813-9.679 4.339s-5.813-5.808-4.339-9.678l18.775-49.296c.021-.057.044-.114.067-.171 1.332-3.255 4.465-5.36 7.981-5.364h.009c3.514 0 6.646 2.098 7.983 5.348.028.068.056.137.081.206l18.604 49.298c1.463 3.875-.493 8.202-4.368 9.665-.87.331-1.766.486-2.645.486z" fill="#a05838"/></g></g><g><g><path d="m204.631 96.329h-27.86c-4.143 0-7.5-3.358-7.5-7.5s3.357-7.5 7.5-7.5h27.86c4.143 0 7.5 3.358 7.5 7.5s-3.358 7.5-7.5 7.5z" fill="#a05838"/></g></g></g><g><g><g><path d="m230.392 108.606c-4.143 0-7.5-3.358-7.5-7.5v-49.906c0-3.282 2.135-6.183 5.268-7.16 3.137-.975 6.539.198 8.404 2.898l21.154 30.633-.256-26.393c-.04-4.142 3.285-7.532 7.428-7.572h.074c4.108 0 7.458 3.31 7.498 7.428l.467 48.315c0 3.999-2.26 7.243-5.756 8.335-3.441 1.072-7.051-.244-9.206-3.354l-20.075-29.071v25.848c0 4.142-3.358 7.499-7.5 7.499z" fill="#a05838"/></g></g></g><g><g><g><path d="m353.917 108.378h-20.875c-4.143 0-7.5-3.358-7.5-7.5v-49.544c0-4.142 3.357-7.5 7.5-7.5h20.875c4.143 0 7.5 3.358 7.5 7.5s-3.357 7.5-7.5 7.5h-13.375v34.543h13.375c4.143 0 7.5 3.358 7.5 7.5s-3.357 7.501-7.5 7.501z" fill="#a05838"/></g></g><g><g><path d="m352.378 83.606h-19.336c-4.143 0-7.5-3.358-7.5-7.5s3.357-7.5 7.5-7.5h19.336c4.143 0 7.5 3.358 7.5 7.5s-3.357 7.5-7.5 7.5z" fill="#a05838"/></g></g></g><g><g><g><path d="m376.917 107.079c-4.143 0-7.5-3.358-7.5-7.5v-47.683c0-4.142 3.357-7.5 7.5-7.5s7.5 3.358 7.5 7.5v47.683c0 4.142-3.357 7.5-7.5 7.5z" fill="#a05838"/></g></g><g><g><path d="m377.016 107.867c-1.979 0-3.879-.782-5.284-2.177-1.411-1.401-2.209-3.306-2.216-5.296 0 0-.063-17.594-.063-24.341 0-5.531-.035-24.193-.035-24.193-.004-1.992.785-3.903 2.191-5.313 1.407-1.41 3.317-2.202 5.309-2.202h13.742c16.206 0 27.095 12.764 27.095 31.761 0 18.071-11.171 31.383-26.562 31.653-3.925.068-13.733.106-14.148.107-.011.001-.02.001-.029.001zm7.415-48.521c.01 5.848.021 13.492.021 16.707 0 3.83.021 11.163.038 16.774 2.451-.017 4.93-.039 6.44-.065 8.167-.143 11.823-8.468 11.823-16.655 0-3.932-.872-16.761-12.095-16.761z" fill="#a05838"/></g></g></g><g><g><g><path d="m112.552 108.606c-3.646 0-6.908-2.3-8.13-5.739-.123-.344-.22-.698-.291-1.056l-9.742-49.249c-.804-4.063 1.839-8.009 5.902-8.813s8.008 1.839 8.813 5.902l4.817 24.354 7.745-25.024c1.225-3.957 5.428-6.172 9.383-4.947 3.957 1.225 6.172 5.425 4.947 9.382l-15.211 49.143c-.021.066-.043.133-.065.199-1.182 3.473-4.441 5.823-8.11 5.848-.019 0-.04 0-.058 0z" fill="#a05838"/></g></g><g><g><path d="m145.066 108.606c-3.646 0-6.908-2.3-8.13-5.739-.036-.101-.069-.202-.102-.304l-15.172-49.249c-1.219-3.958 1.001-8.156 4.96-9.375 3.958-1.217 8.156 1.001 9.376 4.959l7.731 25.099 4.829-24.263c.808-4.063 4.757-6.701 8.819-5.892s6.7 4.757 5.892 8.82l-9.78 49.143c-.063.321-.148.637-.254.947-1.18 3.476-4.438 5.828-8.108 5.854-.02 0-.04 0-.061 0z" fill="#a05838"/></g></g></g><g><g><g><path d="m313.042 58.606h-27.613c-4.143 0-7.5-3.358-7.5-7.5s3.357-7.5 7.5-7.5h27.613c4.143 0 7.5 3.358 7.5 7.5s-3.357 7.5-7.5 7.5z" fill="#a05838"/></g></g><g><g><path d="m299.18 108.606c-4.143 0-7.5-3.358-7.5-7.5v-48.403c0-4.142 3.357-7.5 7.5-7.5s7.5 3.358 7.5 7.5v48.403c0 4.143-3.358 7.5-7.5 7.5z" fill="#a05838"/></g></g></g></g></g></svg>