<svg id="Capa_1" enable-background="new 0 0 512 512" height="512" viewBox="0 0 512 512" width="512" xmlns="http://www.w3.org/2000/svg"><g><path d="m512 256c0 141.385-114.615 256-256 256-21.426 0-42.238-2.632-62.128-7.591-5.042-1.257-8.038-9.049-12.957-10.6-60.808-19.174-105.393-59.086-137.191-113.021-1.516-2.572-11.398-.134-12.826-2.762-19.705-36.275-30.898-77.843-30.898-122.026 0-128.13 94.132-234.274 217.014-253.05 12.712-1.942 25.731 9.497 38.986 9.497 29.285 0 57.421-7.53 83.628 1.524 100.32 34.658 172.372 129.929 172.372 242.029z" fill="#00a4fb"/><path d="m476.677 254.136c0 124.257-100.73 224.987-224.987 224.987s-224.988-100.73-224.988-224.987 100.73-224.988 224.988-224.988 224.987 100.73 224.987 224.988z" fill="#65befc"/><path d="m392.706 429.043c-31.241 20.683-68.657 32.787-108.89 32.955-108.788.454-198.355-87.415-199.879-196.194-1.412-100.749 72.04-184.62 168.283-199.543-20.175-12.273-36.277-36.261-44.462-66.261h76.051c3.905 12.524 7.745 28.648 14.043 40.787 4.735 9.129 8.001 34.664 1.824 37.016-68.135 25.953-116.442 90.158-116.789 165.346-.455 98.379 82.242 179.092 183.717 179.278 7.862.014 15.61-.449 23.214-1.363 4.571-.548 6.728 5.437 2.888 7.979z" fill="#007b4e"/><path d="m482.017 262.95c0 69.575-35.696 130.813-89.773 166.398-15.463 4.181-31.732 6.399-48.525 6.367-101.475-.192-184.172-83.443-183.717-184.917.348-77.553 48.654-143.778 116.789-170.547 16.091-6.322 23.248-25.035 15.48-40.48-6.297-12.521-11.548-26.853-15.452-39.771h81.358c-8.185 30-24.287 53.988-44.462 66.261 95.332 14.782 168.302 97.213 168.302 196.689z" fill="#00915d"/><path d="m210.952 282.619 61.202-86.746c6.245-8.852 19.372-8.852 25.617 0l61.202 86.746c7.326 10.384-.1 24.712-12.809 24.712h-122.404c-12.708.001-20.134-14.328-12.808-24.712z" fill="#4bcd5c"/><path d="m191.625 334.181c0 4.143-3.358 7.5-7.5 7.5-12.211 0-23.289-6.735-28.908-17.577-5.62-10.842-4.737-23.775 2.303-33.753l68.135-96.573-8.114 1.17c-4.099.595-7.902-2.253-8.494-6.353-.591-4.1 2.253-7.902 6.353-8.493l26.397-3.807c4.104-.594 7.902 2.253 8.494 6.353l3.807 26.397c.591 4.1-2.253 7.902-6.353 8.493-.363.053-.724.078-1.08.078-3.668 0-6.875-2.693-7.414-6.431l-1.276-8.851-68.198 96.663c-3.854 5.463-4.319 12.269-1.242 18.204s8.905 9.479 15.59 9.479c4.142.001 7.5 3.358 7.5 7.501zm65.542-172.059c3.384 2.389 8.064 1.582 10.452-1.805 3.334-4.726 8.564-7.437 14.349-7.437 5.784 0 11.014 2.711 14.348 7.437l68.339 96.863-9.814-1.053c-4.114-.44-7.815 2.539-8.257 6.657s2.539 7.815 6.657 8.257l26.518 2.845c.267.029.534.043.8.043 1.705 0 3.368-.581 4.708-1.661 1.548-1.249 2.538-3.062 2.75-5.039l2.845-26.519c.442-4.118-2.539-7.815-6.657-8.257-4.12-.447-7.815 2.538-8.257 6.657l-.75 6.992-66.624-94.431c-6.092-8.635-16.038-13.79-26.605-13.79-10.568 0-20.514 5.155-26.605 13.79-2.39 3.384-1.582 8.063 1.803 10.451zm149.247 128.229c-2.389-3.386-7.067-4.194-10.452-1.805-3.384 2.388-4.192 7.067-1.805 10.452 3.854 5.462 4.319 12.268 1.242 18.203s-8.905 9.479-15.59 9.479h-146.929l6.84-6.84c2.929-2.93 2.929-7.678 0-10.607-2.929-2.928-7.678-2.928-10.606 0l-18.859 18.859c-2.929 2.93-2.929 7.678 0 10.607l18.859 18.859c1.464 1.464 3.384 2.196 5.303 2.196s3.839-.732 5.303-2.196c2.929-2.93 2.929-7.678 0-10.607l-5.271-5.271h145.361c12.211 0 23.289-6.735 28.908-17.577 5.618-10.841 4.736-23.775-2.304-33.752z" fill="#fff"/><path d="m188.319 231.751v222.807c0 .053 0 .106-.001.159-.077 7.442-7.559 12.587-14.629 10.262-20.565-6.765-32.865-20.588-53.379-33.344-14.992-9.322-34.788-9.747-48.525 1.342-.276.223-.536.232-.774-.017-15.715-16.424-29.265-34.937-40.191-55.081v-146.128c0-37.876 24.773-69.965 59-80.949v-29.051c0-8.284 6.716-15 15-15h22c8.284 0 15 6.716 15 15v29.051c34.226 10.984 46.499 43.073 46.499 80.949z" fill="#bde2fd"/><path d="m200.819 231.751v260c0 5.321-2.771 9.995-6.948 12.657-47.632-11.875-89.985-37.09-122.861-71.448v-28.527c0-3.926 3.182-7.108 7.108-7.108h89.446c4.107 0 7.688-3.164 7.811-7.269.128-4.247-3.278-7.731-7.497-7.731h-80.456c-9.064 0-16.411-7.347-16.411-16.411 0-9.064 7.347-16.411 16.411-16.411h80.143c4.107 0 7.688-3.164 7.811-7.269.128-4.247-3.278-7.731-7.497-7.731h-80.457c-9.064 0-16.411-7.347-16.411-16.411 0-9.064 7.347-16.411 16.411-16.411h80.143c4.107 0 7.688-3.164 7.811-7.269.128-4.247-3.278-7.731-7.497-7.731h-80.457c-9.064 0-16.411-7.347-16.411-16.411 0-9.064 7.347-16.411 16.411-16.411h80.143c4.107 0 7.688-3.164 7.811-7.269.128-4.247-3.278-7.731-7.497-7.731h-89.76c-3.926 0-7.108-3.182-7.108-7.108 0-1.667.048-3.324.143-4.968 2.495-43.302 35.825-76.589 68.23-76.124 27.781.399 54.883 27.158 61.294 76.124.212 1.633.141 3.301.141 4.968z" fill="#e5f2fd"/><path d="m124.745 101.751v30c0 2.761-2.239 5-5 5h-34.926c-2.761 0-5-2.239-5-5v-30c0-2.761 2.239-5 5-5h34.925c2.762 0 5.001 2.239 5.001 5z" fill="#ff7117"/><path d="m151.819 101.751v30c0 2.761-2.239 5-5 5h-32.383c-2.761 0-5-2.239-5-5v-30c0-2.761 2.239-5 5-5h32.383c2.762 0 5 2.239 5 5z" fill="#ff8835"/><path d="m414.702 459.353c-9.543 21.741-31.261 36.925-56.526 36.925s-46.983-15.185-56.526-36.925c9.544-21.741 103.509-21.741 113.052 0z" fill="#00a86d"/><path d="m414.702 459.353c-9.543 21.741-103.508 21.74-113.052 0 9.543-21.741 31.261-36.925 56.526-36.925 25.265-.001 46.983 15.184 56.526 36.925z" fill="#4bcd5c"/><path d="m480.025 444.497c-10.465 4.08-22.808 1.895-31.26-6.557-8.451-8.451-10.636-20.795-6.556-31.259 10.464-4.08 22.808-1.895 31.26 6.556 8.45 8.451 10.636 20.795 6.556 31.26z" fill="#007b4e"/><path d="m365.043 118.254c-4.793-12.292-2.225-26.792 7.702-36.719s24.427-12.494 36.719-7.702c4.793 12.292 2.226 26.792-7.701 36.719-9.928 9.927-24.428 12.494-36.72 7.702z" fill="#4bcd5c"/></g></svg>