<svg id="Capa_1" enable-background="new 0 0 512 512" height="512" viewBox="0 0 512 512" width="512" xmlns="http://www.w3.org/2000/svg"><g><g><g><path d="m146.915 486.415h218.17c80.56-40.129 135.915-123.301 135.915-219.415 0-135.31-109.69-245-245-245s-245 109.69-245 245c0 96.114 55.355 179.286 135.915 219.415z" fill="#ff4155"/></g></g><g><g><circle cx="256" cy="222" fill="#e80054" r="180"/></g></g><g><g><path d="m286 0h-60c-5.523 0-10 4.477-10 10v40.745h80v-40.745c0-5.523-4.477-10-10-10z" fill="#a05838"/></g></g><g><g><path d="m246 0h-20c-5.523 0-10 4.477-10 10v40.745h20v-40.745c0-5.523 4.477-10 10-10z" fill="#7f3822"/></g></g><g><g><path d="m350.014 493.27c5.11-2.126 10.143-4.399 15.071-6.854v-230.416c0-33.205-19.174-49.629-33.554-57.278-10.754-5.72-19.371-14.761-24.27-25.912l-.388-.884c0-76.947-7.66-121.181-7.66-121.181h-86.426s-7.66 44.234-7.66 121.181l-.388.884c-4.899 11.152-13.516 20.192-24.27 25.912-14.38 7.649-33.554 24.073-33.554 57.278v230.415c4.928 2.455 9.961 4.728 15.071 6.854h188.028z" fill="#ffdd40"/></g></g><g><g><path d="m193.383 493.27v-226.27c0-48.766 42.617-43.149 42.617-95.074s0-121.181 0-121.181h-23.213s-7.66 44.234-7.66 121.181l-.388.884c-4.899 11.152-13.516 20.192-24.27 25.912-14.38 7.649-33.554 24.073-33.554 57.278v230.415c4.924 2.453 9.95 4.73 15.055 6.854h31.413z" fill="#ffc839"/></g></g><g><g><path d="m324.486 211.965c-11.061-5.884-20.317-14.603-26.725-25.039-.037-.075-.074-.151-.111-.226-3.799-7.769-5.747-16.32-5.824-24.968-.152-17.032-.673-32.3-1.377-45.668-.14-2.656-2.334-4.728-4.994-4.728h-58.89c-2.677 0-4.877 2.109-4.995 4.783-.574 12.916-1.029 33.718-1.265 45.945-.157 8.12-1.95 16.133-5.404 23.484-.215.458-.437.919-.664 1.379h-.001c-6.41 10.439-15.665 19.156-26.724 25.039-16.985 9.034-25.597 23.849-25.597 44.034v237.27c28.97 12.06 60.747 18.73 94.085 18.73s65.115-6.67 94.085-18.73v-237.27c0-20.185-8.612-35-25.599-44.035z" fill="#ffb332"/></g></g><g><g><path d="m221.571 116.118c-.574 12.916-1.029 33.718-1.265 45.945-.157 8.12-1.95 16.133-5.404 23.484-.215.458-.437.919-.664 1.379h-.001c-6.41 10.439-15.665 19.156-26.724 25.039-16.986 9.035-25.598 23.85-25.598 44.035v237.27c10.162 4.23 20.669 7.795 31.468 10.642v-236.912c0-48.766 42.617-43.149 42.617-95.074v-60.59h-9.434c-2.677-.001-4.876 2.108-4.995 4.782z" fill="#ffa219"/></g></g><g><g><path d="m303.5 58.245h-95c-4.142 0-7.5-3.358-7.5-7.5 0-4.142 3.358-7.5 7.5-7.5h95c4.142 0 7.5 3.358 7.5 7.5 0 4.142-3.358 7.5-7.5 7.5z" fill="#fcea9d"/></g></g><g><g><path d="m308.5 179.426h-105c-4.142 0-7.5-3.358-7.5-7.5 0-4.142 3.358-7.5 7.5-7.5h105c4.142 0 7.5 3.358 7.5 7.5 0 4.142-3.358 7.5-7.5 7.5z" fill="#fcea9d"/></g></g><g><g><path d="m366 434h-220c-5.523 0-10-4.477-10-10v-140c0-5.523 4.477-10 10-10h220c5.523 0 10 4.477 10 10v140c0 5.523-4.477 10-10 10z" fill="#1e2f59"/></g></g><g><g><ellipse cx="256" cy="354" fill="#3c5082" rx="94.085" ry="130"/></g></g><g><g><path d="m203.787 354c0-61.853 31.265-113.613 73.149-126.765-6.733-2.114-13.74-3.235-20.936-3.235-51.962 0-94.085 58.203-94.085 130s42.123 130 94.085 130c7.196 0 14.203-1.121 20.936-3.235-41.884-13.152-73.149-64.912-73.149-126.765z" fill="#2d3c6b"/></g></g><g><g><g><path d="m310.962 308.902c-34.634-26.521-75.318-26.499-109.924 0-2.955 2.263-7.127 1.994-9.758-.637-.032-.032-.064-.064-.096-.096-3.155-3.155-2.851-8.388.685-11.109 39.925-30.717 88.264-30.776 128.261-.001 3.536 2.721 3.841 7.954.686 11.109-.032.032-.064.064-.096.096-2.631 2.632-6.803 2.901-9.758.638z" fill="#607bad"/></g></g></g><g><g><g><path d="m201.038 399.098c34.634 26.521 75.318 26.499 109.924 0 2.955-2.263 7.126-1.994 9.758.637l.096.096c3.155 3.155 2.851 8.388-.685 11.109-39.925 30.717-88.264 30.776-128.261.001-3.536-2.721-3.841-7.954-.686-11.109.032-.032.064-.064.096-.096 2.631-2.632 6.803-2.901 9.758-.638z" fill="#607bad"/></g></g></g><g><g><path d="m268.5 259h-25c-4.142 0-7.5-3.358-7.5-7.5 0-4.142 3.358-7.5 7.5-7.5h25c4.142 0 7.5 3.358 7.5 7.5 0 4.142-3.358 7.5-7.5 7.5z" fill="#607bad"/></g></g><g><g><path d="m268.5 464h-25c-4.142 0-7.5-3.358-7.5-7.5 0-4.142 3.358-7.5 7.5-7.5h25c4.142 0 7.5 3.358 7.5 7.5 0 4.142-3.358 7.5-7.5 7.5z" fill="#607bad"/></g></g><g><g><circle cx="256" cy="354" fill="#607bad" r="40"/></g></g><g><g><path d="m256 314c-22.091 0-40 17.909-40 40s17.909 40 40 40c-4.142 0-7.5-3.358-7.5-7.5s3.358-7.5 7.5-7.5v-50c-4.142 0-7.5-3.358-7.5-7.5s3.358-7.5 7.5-7.5z" fill="#4d6596"/></g></g><g><g><circle cx="256" cy="354" fill="#3c5082" r="25"/></g></g><g><g><circle cx="325.085" cy="354" fill="#607bad" r="10"/></g></g><g><g><circle cx="186.915" cy="354" fill="#4d6596" r="10"/></g></g><g><g><path d="m248.5 251.5c0-4.142 3.358-7.5 7.5-7.5h-12.5c-4.142 0-7.5 3.358-7.5 7.5s3.358 7.5 7.5 7.5h12.5c-4.142 0-7.5-3.358-7.5-7.5z" fill="#4d6596"/></g></g><g><g><path d="m248.5 456.5c0-4.142 3.358-7.5 7.5-7.5h-12.5c-4.142 0-7.5 3.358-7.5 7.5s3.358 7.5 7.5 7.5h12.5c-4.142 0-7.5-3.358-7.5-7.5z" fill="#4d6596"/></g></g><g><g><path d="m248 426.5c0-3.523 2.281-6.508 5.443-7.575-17.968-.573-35.876-7.169-52.406-19.827-2.955-2.263-7.126-1.994-9.758.637-.032.032-.064.064-.096.096-3.155 3.155-2.851 8.388.686 11.109 19.104 14.699 40.11 22.346 61.195 22.996-2.964-1.171-5.064-4.055-5.064-7.436z" fill="#4d6596"/></g></g><g><g><path d="m248 281.5c0 3.523 2.281 6.508 5.443 7.575-17.968.573-35.876 7.169-52.406 19.827-2.955 2.263-7.126 1.994-9.758-.637-.032-.032-.064-.064-.096-.096-3.155-3.155-2.851-8.388.686-11.109 19.104-14.699 40.11-22.346 61.195-22.996-2.964 1.171-5.064 4.055-5.064 7.436z" fill="#4d6596"/></g></g></g></svg>