<svg id="Capa_1" enable-background="new 0 0 512 512" height="512" viewBox="0 0 512 512" width="512" xmlns="http://www.w3.org/2000/svg"><g><path d="m512 256c0 141.385-114.615 256-256 256s-256-114.615-256-256 114.615-256 256-256 256 114.615 256 256z" fill="#1c314e"/><path d="m471.439 256c0 118.984-96.455 215.439-215.439 215.439s-215.439-96.455-215.439-215.439 96.455-215.439 215.439-215.439 215.439 96.455 215.439 215.439z" fill="#254167"/><path d="m377.57 377.767c-66.872 66.872-175.292 66.872-242.164 0s-66.872-175.292 0-242.164 175.292-66.872 242.164 0 66.872 175.293 0 242.164z" fill="#86befb"/><path d="m296.676 423.163c-56.032 13.47-117.536-1.661-161.27-45.395-66.872-66.872-66.872-175.292 0-242.164 43.734-43.734 105.238-58.865 161.27-45.395-29.644 7.126-57.756 22.258-80.894 45.395-66.872 66.872-66.872 175.292 0 242.164 23.138 23.137 51.25 38.268 80.894 45.395z" fill="#76b6fa"/><path d="m331.93 397.06c-37.551 47.778-140.658 32.151-196.725-19.292-33.868-31.074-44.34-69.499-47.706-86.326-16.463-82.319 34.872-159.264 47.706-155.838 15.662 4.181-33.057 126.162 17.174 166.4 48.752 39.054 143.168-36.985 182.569 3.018 21.394 21.72 16.4 67.332-3.018 92.038zm45.64-261.457c-42.444-42.444-101.627-57.948-156.3-46.512-9.172 20.424-12.196 42.633-3.723 59.492 13.847 27.554 48.778 21.67 63.949 55.474 10.599 23.615-.553 39.621 13.756 53.366 12.229 11.747 34.726 13.843 50.193 5.96 17.514-8.927 14.843-24.957 33.13-50.851 12.34-17.474 23.085-23.666 32.5-29.605-8.165-17.113-19.333-33.151-33.505-47.324z" fill="#88b56c"/><path d="m213.62 137.021c-2.959-14.778.452-31.903 7.65-47.93 24.741-5.175 50.405-4.833 75.024 1.026-29.784 7.088-58.037 22.25-81.273 45.487-.47.47-.937.942-1.401 1.417zm-39.605 175c-7.862-1.666-15.153-4.824-21.636-10.018-50.231-40.238-1.513-162.219-17.174-166.4-12.834-3.426-64.169 73.519-47.706 155.838 3.365 16.827 13.838 55.252 47.706 86.326 41.468 38.048 108.667 56.503 156.044 44.204-27.922-7.549-54.307-22.284-76.227-44.204-19.158-19.157-32.826-41.723-41.007-65.746z" fill="#6e9e50"/><path d="m256 75.581c-99.483 0-180.419 80.936-180.419 180.419s80.936 180.419 180.419 180.419 180.419-80.936 180.419-180.419-80.936-180.419-180.419-180.419zm0 345.838c-11.314 0-23.647-17.004-32.992-45.485-1.051-3.202-2.054-6.512-3.009-9.921 11.729.605 23.777.917 36.001.917s24.272-.313 36.001-.917c-.955 3.409-1.958 6.719-3.009 9.921-9.345 28.482-21.678 45.485-32.992 45.485zm0-69.489c-13.579 0-26.915-.389-39.8-1.138-4.932-22.277-8.031-47.786-9.058-74.767 14.768.863 30.024 1.311 45.532 1.311 17.854 0 35.373-.594 52.199-1.731-1.011 27.136-4.116 52.794-9.073 75.187-12.885.749-26.221 1.138-39.8 1.138zm-165.417-95.023c26.167 8.659 61.673 14.918 101.531 18.083.954 25.886 3.847 51.632 8.593 74.709-37.152-3.089-69.543-9.267-91.652-17.777-11.671-22.498-18.326-48-18.472-75.015zm26.295-90.312c20.264 7.373 48.333 12.85 80.248 15.884-3.549 23.45-5.361 48.707-5.361 73.521 0 1.31.005 2.621.015 3.933-40.192-3.265-75.533-9.735-100.549-18.659 2.422-27.331 11.519-52.772 25.647-74.679zm135.796 95.741c-15.666 0-31.046-.461-45.887-1.347-.016-1.659-.023-3.322-.023-4.989 0-25.448 1.811-50.009 5.247-72.304 14.17.976 28.937 1.486 43.989 1.486s29.819-.51 43.989-1.486c3.435 22.295 5.247 46.857 5.247 72.304 0 1.523-.007 3.044-.02 4.561-16.878 1.165-34.521 1.775-52.542 1.775zm3.326-171.755c11.314 0 23.647 17.004 32.992 45.485 3.271 9.968 6.082 20.975 8.403 32.784-13.328.875-27.218 1.332-41.395 1.332s-28.067-.457-41.395-1.332c2.321-11.809 5.132-22.817 8.403-32.784 9.345-28.482 21.678-45.485 32.992-45.485zm58.875 91.898c31.915-3.033 59.984-8.511 80.248-15.884 13.753 21.327 22.74 46.003 25.441 72.511-.628.072-1.258.224-1.875.465-23.868 9.293-58.552 16.144-98.463 19.788.007-1.12.011-2.24.011-3.359-.001-24.814-1.813-50.071-5.362-73.521zm71.173-28.601c-19.039 6.367-44.664 11.11-73.694 13.793-5.931-31.208-15.151-58.044-27.46-74.563 40.813 7.219 76.508 29.452 101.154 60.77zm-158.942-60.771c-12.309 16.52-21.529 43.355-27.46 74.563-29.03-2.683-54.655-7.426-73.694-13.793 24.646-31.317 60.341-53.55 101.154-60.77zm-106.006 258.531c22.639 6.36 51.393 10.962 83.136 13.372 5.726 22.277 13.38 41.146 22.87 53.882-43.576-7.707-81.318-32.532-106.006-67.254zm163.794 67.255c9.49-12.737 17.144-31.605 22.87-53.882 31.742-2.41 60.496-7.012 83.136-13.372-24.688 34.721-62.43 59.546-106.006 67.254zm118.05-86.97c-22.109 8.51-54.5 14.688-91.652 17.777 4.781-23.244 7.681-49.196 8.613-75.271 40.586-3.621 76.245-10.49 101.507-19.848.004.473.007.946.007 1.419 0 27.351-6.672 53.172-18.475 75.923z" fill="#5381c1"/><path d="m457.292 331.352c-23.976-15.674-41.805-36.255-51.39-61.375s-10-52.346-2.561-80.008c23.976 15.674 41.805 36.255 51.39 61.375 9.586 25.12 10.001 52.346 2.561 80.008zm-400.144-80.008c9.585-25.12 27.414-45.701 51.39-61.375 7.439 27.662 7.025 54.888-2.561 80.008s-27.414 45.701-51.39 61.375c-7.439-27.662-7.024-54.888 2.561-80.008z" fill="#f29500"/><path d="m69.839 265.91c7.458-19.545 17.799-36.906 30.084-51.533-.582 19.092-4.436 38.929-11.894 58.474s-17.799 36.906-30.084 51.533c.582-19.093 4.436-38.929 11.894-58.474zm384.095 58.474c-12.285-14.627-22.626-31.988-30.084-51.533s-11.312-39.382-11.894-58.474c12.285 14.627 22.626 31.988 30.084 51.533 7.459 19.545 11.312 39.381 11.894 58.474z" fill="#f77026"/><path d="m454.178 321.712c-2.709 22.901-14.542 43.599-33.575 61.379-14.359-21.73-21.036-44.617-18.327-67.519 2.709-22.901 14.542-43.599 33.575-61.379 14.359 21.73 21.036 44.618 18.327 67.519zm-378.149-67.519c-14.359 21.73-21.036 44.617-18.327 67.519 2.709 22.901 14.542 43.599 33.575 61.379 14.359-21.73 21.036-44.617 18.327-67.519-2.709-22.901-14.542-43.599-33.575-61.379z" fill="#ffa90b"/><path d="m165.585 412.447c-20.115 11.747-41.094 16.759-61.853 13.594-20.76-3.166-39.291-14.203-54.99-31.412 13.001-7.593 26.363-12.371 39.794-13.947-9.811-13.851-16.186-29.576-18.203-46.627-2.084-17.613.684-34.935 7.457-51.141 10.367 14.179 17.1 30.377 19.183 47.99 2.018 17.057-.515 33.842-6.828 49.605 6.815-.669 13.644-.51 20.45.527 20.76 3.165 39.291 14.202 54.99 31.411zm257.704-31.688c9.842-13.87 16.237-29.622 18.258-46.705 2.084-17.613-.684-34.935-7.457-51.141-10.367 14.179-17.1 30.377-19.183 47.99-2.021 17.084.523 33.895 6.858 49.68-7.055-.754-14.127-.622-21.173.453-20.76 3.166-39.291 14.203-54.99 31.412 20.115 11.747 41.094 16.759 61.853 13.594 20.76-3.166 39.291-14.203 54.99-31.412-12.795-7.474-25.94-12.221-39.156-13.871z" fill="#f29500"/><g fill="#ffc14f"><path d="m56.07 151.395c7.383-32.785 23.499-61.935 46.27-86.522 10.034 31.973 12.1 65.218 4.717 98.003s-23.499 61.935-46.27 86.522c-10.034-31.974-12.1-65.219-4.717-98.003z"/><path d="m6.61 226.351c-8.998-32.379-8.581-65.685-.143-98.116 23.96 23.428 41.501 51.745 50.499 84.123s8.581 65.685.143 98.117c-23.96-23.429-41.501-51.746-50.499-84.124z"/><path d="m49.11 367.402c-23.961-23.563-40.229-52.629-49.11-84.942 32.457 8.337 61.793 24.114 85.754 47.676s40.229 52.629 49.11 84.942c-32.457-8.337-61.793-24.114-85.754-47.676z"/></g><path d="m105.913 366.545c-3.181-17.448.537-35.281 9.962-52.55 14.912 12.832 24.683 28.206 27.864 45.654s-.537 35.281-9.962 52.55c-14.912-12.833-24.683-28.207-27.864-45.654zm272.19 45.654c-9.424-17.269-13.142-35.102-9.962-52.55 3.181-17.448 12.952-32.822 27.864-45.654 9.424 17.269 13.142 35.102 9.962 52.55-3.181 17.447-12.953 32.821-27.864 45.654z" fill="#ffb52d"/><path d="m105.257 75.074c7.447 28.81 8.4 58.49 1.799 87.802s-20.184 55.719-39.261 78.556c.382-27.945 3.674-56.47 10.125-85.117 6.452-28.647 15.704-55.829 27.337-81.241zm350.673 76.321c-7.383-32.785-23.499-61.935-46.27-86.522-10.034 31.973-12.1 65.218-4.717 98.003s23.499 61.935 46.27 86.522c10.034-31.974 12.1-65.219 4.717-98.003z" fill="#ffcd71"/><path d="m434.079 156.315c6.451 28.647 9.743 57.172 10.125 85.117-19.077-22.838-32.66-49.244-39.261-78.556s-5.648-58.992 1.799-87.802c11.634 25.412 20.886 52.594 27.337 81.241z" fill="#ffc14f"/><path d="m66.991 179.365c5.44-24.157 13.863-46.414 24.414-65.932 1.165 22.157-.764 45.876-6.204 70.033s-13.863 46.414-24.414 65.933c-1.165-22.158.764-45.877 6.204-70.034zm378.018 0c-5.44-24.157-13.863-46.414-24.413-65.932-1.165 22.157.764 45.876 6.204 70.033s13.863 46.414 24.414 65.933c1.164-22.158-.765-45.877-6.205-70.034z" fill="#ffb52d"/><path d="m13.862 135.843c20.185 21.864 35.059 47.566 43.104 76.515s8.563 58.64 2.552 87.784c-12.878-24.805-23.465-51.495-31.327-79.788s-12.563-56.619-14.329-84.511zm491.528 90.508c8.998-32.379 8.581-65.685.143-98.116-23.96 23.428-41.501 51.745-50.499 84.123s-8.581 65.685-.143 98.117c23.96-23.429 41.501-51.746 50.499-84.124z" fill="#ffcd71"/><path d="m483.809 220.354c-7.862 28.293-18.45 54.983-31.327 79.788-6.011-29.144-5.492-58.835 2.552-87.784 8.045-28.949 22.919-54.65 43.104-76.515-1.766 27.892-6.467 56.218-14.329 84.511z" fill="#ffc14f"/><path d="m29.459 245.832c-6.63-23.858-9.732-47.452-9.666-69.64 11.504 18.972 21.02 40.784 27.65 64.642s9.732 47.452 9.666 69.64c-11.504-18.972-21.02-40.784-27.65-64.642zm453.082 0c6.63-23.858 9.732-47.452 9.666-69.64-11.504 18.972-21.02 40.784-27.65 64.642s-9.732 47.452-9.666 69.64c11.504-18.972 21.02-40.784 27.65-64.642z" fill="#ffb52d"/><path d="m10.206 285.361c28.405 8.867 54.125 23.709 75.548 44.776 21.423 21.066 36.696 46.533 46.039 74.786-23.542-15.063-46.041-32.903-66.978-53.492-20.938-20.589-39.153-42.785-54.609-66.07zm452.684 82.041c23.961-23.562 40.229-52.629 49.11-84.941-32.457 8.337-61.793 24.114-85.754 47.676s-40.229 52.629-49.11 84.942c32.457-8.338 61.793-24.115 85.754-47.677z" fill="#ffcd71"/><path d="m447.185 351.431c-20.938 20.589-43.437 38.429-66.978 53.492 9.343-28.253 24.615-53.719 46.039-74.786 21.423-21.067 47.143-35.909 75.548-44.776-15.456 23.285-33.671 45.481-54.609 66.07z" fill="#ffc14f"/><path d="m78.634 372.873c-17.656-17.362-32.123-36.256-43.143-55.514 19.44 10.695 38.575 24.843 56.231 42.205s32.123 36.256 43.143 55.514c-19.441-10.695-38.575-24.843-56.231-42.205zm354.732 0c17.656-17.362 32.123-36.256 43.143-55.514-19.44 10.695-38.575 24.843-56.231 42.205s-32.123 36.256-43.143 55.514c19.441-10.695 38.575-24.843 56.231-42.205z" fill="#ffb52d"/><path d="m311.136 317.982-46.835 41.941c-4.725 4.232-11.877 4.232-16.603 0l-92.02-82.405c-42.258-48.376-13.253-97.538 29.064-105.617.962-.184 2.858 2.254 2.858 3.63 0 45.926 66.727 77.934 114.221 94.899 20.131 7.19 25.239 33.292 9.315 47.552z" fill="#f44545"/><path d="m356.321 277.518-43.998 39.401c-19.023 17.036-47.653 17.582-67.316 1.289-37.302-30.907-61.063-77.584-61.063-129.811 0-5.566.271-11.069.798-16.497 22.916-4.375 49.736 3.297 71.257 29.667 61.263-75.064 165.464 1.377 100.322 75.951z" fill="#fb5858"/></g></svg>