<svg id="Capa_1" enable-background="new 0 0 512 512" height="512" viewBox="0 0 512 512" width="512" xmlns="http://www.w3.org/2000/svg"><g><circle cx="256" cy="267" fill="#fff0ad" r="245"/><path d="m390 172c-47.145 0-85.5-38.355-85.5-85.5 0-9.932 1.72-19.465 4.848-28.34-17.061-4.345-34.934-6.66-53.348-6.66-119.017 0-215.5 96.483-215.5 215.5s96.483 215.5 215.5 215.5 215.5-96.483 215.5-215.5c0-40.818-11.351-78.984-31.065-111.518-14.15 10.373-31.585 16.518-50.435 16.518z" fill="#ffe177"/><path d="m390 172c-47.145 0-85.5-38.355-85.5-85.5 0-.908.041-1.806.069-2.707-15.502-4.099-31.778-6.293-48.569-6.293-104.658 0-189.5 84.842-189.5 189.5 0 45.065 15.741 86.447 42.01 118.972l-12.54 55.78c-1.235 4.609 2.982 8.826 7.591 7.591l63.969-14.735c26.411 13.97 56.513 21.892 88.47 21.892 104.658 0 189.5-84.842 189.5-189.5 0-36.496-10.327-70.575-28.203-99.494-8.579 2.898-17.753 4.494-27.297 4.494z" fill="#05e39c"/><path d="m149 275.5c0-93.072 67.104-170.448 155.565-186.444-.025-.851-.065-1.699-.065-2.556 0-.907.041-1.805.069-2.706-15.502-4.1-31.778-6.294-48.569-6.294-104.658 0-189.5 84.842-189.5 189.5 0 45.065 15.741 86.447 42.01 118.972l-12.54 55.78c-1.235 4.609 2.982 8.826 7.591 7.591l63.969-14.735c26.411 13.97 56.513 21.892 88.47 21.892 7.512 0 14.917-.451 22.201-1.301-75.095-25.189-129.201-96.123-129.201-179.699z" fill="#0ed290"/><g><g><g fill="#fff"><path d="m194.674 213.206h-11.462c-1.81 0-3.478.978-4.362 2.557l-21.865 39.036-21.842-39.034c-.884-1.58-2.553-2.558-4.363-2.558h-11.458c-3.819 0-6.228 4.109-4.363 7.442l32.023 57.229v54.917c0 2.761 2.239 5 5 5h10c2.761 0 5-2.239 5-5v-54.915l32.055-57.23c1.866-3.333-.543-7.444-4.363-7.444z"/><path d="m284.843 233.206c2.761 0 5-2.239 5-5v-10c0-2.761-2.239-5-5-5h-65.686c-5.523 0-10 4.477-10 10v104.588c0 5.523 4.477 10 10 10h65.686c2.761 0 5-2.239 5-5v-10c0-2.761-2.239-5-5-5h-55.686v-32.294h55.686c2.761 0 5-2.239 5-5v-10c0-2.761-2.239-5-5-5h-55.686v-32.294z"/></g></g><g><g><path d="m351.699 337.794h-41.938c-2.761 0-5-2.239-5-5v-10c0-2.761 2.239-5 5-5h41.938c5.889 0 10.662-4.774 10.662-10.662v-10.969c0-5.889-4.774-10.663-10.663-10.663h-19.359c-16.935 0-30.663-13.728-30.663-30.663v-10.969c0-16.934 13.728-30.662 30.662-30.662h41.938c2.761 0 5 2.239 5 5v10c0 2.761-2.239 5-5 5h-41.938c-5.889 0-10.663 4.774-10.663 10.663v10.968c0 5.889 4.774 10.663 10.663 10.663h19.36c16.934 0 30.662 13.728 30.662 30.662v10.97c.001 16.934-13.727 30.662-30.661 30.662z" fill="#fff"/></g></g></g><g><circle cx="390" cy="86.5" fill="#01c0fa" r="86.5"/><path d="m354.5 86.5c0-38.896 25.675-71.791 61-82.674-8.062-2.484-16.624-3.826-25.5-3.826-47.773 0-86.5 38.727-86.5 86.5 0 47.772 38.727 86.5 86.5 86.5 8.876 0 17.438-1.342 25.5-3.826-35.325-10.883-61-43.778-61-82.674z" fill="#08a9f1"/><g><path d="m375.32 128.948-41.393-41.393c-1.953-1.953-1.953-5.118 0-7.071l7.072-7.072c1.953-1.953 5.118-1.953 7.071 0l27.25 27.25c1.953 1.953 5.118 1.953 7.071 0l49.539-49.539c1.953-1.953 5.118-1.953 7.071 0l7.072 7.072c1.953 1.953 1.953 5.118 0 7.071l-63.682 63.682c-1.953 1.952-5.119 1.952-7.071 0z" fill="#fff"/></g></g></g></svg>