<svg width="58" height="58" viewBox="0 0 58 58" fill="none" xmlns="http://www.w3.org/2000/svg">
<g clip-path="url(#clip0_10655_119365)">
<path d="M29 58C44.3281 58 56.7539 45.5742 56.7539 30.2461C56.7539 14.918 44.3281 2.49219 29 2.49219C13.6719 2.49219 1.24609 14.918 1.24609 30.2461C1.24609 45.5742 13.6719 58 29 58Z" fill="#E5EEF9"/>
<path d="M33.3328 22.6778H38.289V15.7461C38.289 14.8077 37.5283 14.0469 36.5898 14.0469H33.3328V22.6778Z" fill="#D5E3F4"/>
<path d="M16.1208 34.3153H10.5632V40.0735C10.5632 41.0119 11.324 41.7727 12.2625 41.7727H16.1207V34.3153H16.1208Z" fill="#D5E3F4"/>
<path d="M33.3328 24.2637V32.7293C33.3328 33.6039 32.6214 34.3153 31.7469 34.3153H17.7068V50.2332H43.6763V24.2637H33.3328Z" fill="white"/>
<path d="M17.7068 34.3152H23.4492V50.2332H17.7068V34.3152Z" fill="#E5EEF9"/>
<path d="M43.6764 22.5645H33.3328V25.9629H41.9772V48.5341H19.406V34.3153H16.0076V50.2333C16.0076 51.1717 16.7684 51.9325 17.7068 51.9325H43.6764C44.6148 51.9325 45.3756 51.1717 45.3756 50.2333V24.2637C45.3756 23.3253 44.6148 22.5645 43.6764 22.5645Z" fill="#0268B4"/>
<path d="M54.0085 17.5039H50.5308C50.3589 17.5039 50.1963 17.5819 50.0888 17.7159L34.9676 36.5711C34.7554 36.8357 34.36 36.8558 34.1221 36.6141L31.8538 34.3098C31.8184 34.3122 31.783 34.3153 31.7469 34.3153H23.9977L34.1029 44.9631C34.3458 45.219 34.761 45.1931 34.97 44.9089L54.4646 18.4059C54.7398 18.0319 54.4728 17.5039 54.0085 17.5039Z" fill="#0ED290"/>
<path d="M28.3948 34.3153H23.9978L34.1031 44.9632C34.3459 45.2191 34.7611 45.1931 34.9701 44.9089L36.4889 42.844L28.3948 34.3153Z" fill="#00C285"/>
<path d="M5.77734 6.75983H31.7468V32.7293H5.77734V6.75983Z" fill="white"/>
<path d="M5.77734 6.75983H11.5547V32.7293H5.77734V6.75983Z" fill="#E5EEF9"/>
<path d="M31.7468 34.4285H5.77734C4.83892 34.4285 4.07812 33.6677 4.07812 32.7293V6.75983C4.07812 5.8214 4.83892 5.06061 5.77734 5.06061H31.7468C32.6853 5.06061 33.4461 5.8214 33.4461 6.75983V32.7293C33.4461 33.6677 32.6853 34.4285 31.7468 34.4285ZM7.47656 31.0301H30.0476V8.45904H7.47656V31.0301Z" fill="#3C87D0"/>
<path d="M38.1594 0.212062L23.0381 19.0673C22.826 19.3318 22.4305 19.3519 22.1926 19.1102L17.1251 13.9623C17.0186 13.8541 16.8732 13.7932 16.7215 13.7932H10.5224C10.0249 13.7932 9.76906 14.3886 10.1115 14.7496L22.1736 27.4593C22.4165 27.7152 22.8316 27.6892 23.0406 27.405L42.5352 0.902059C42.8104 0.528004 42.5434 0 42.079 0H38.6013C38.4294 0 38.2669 0.0780508 38.1594 0.212062Z" fill="#0ED290"/>
<path d="M13.9104 14.7496C13.5679 14.3887 13.8237 13.7932 14.3213 13.7932H10.5223C10.0247 13.7932 9.76894 14.3887 10.1114 14.7496L22.1735 27.4593C22.4163 27.7152 22.8315 27.6892 23.0405 27.405L24.2982 25.6953L13.9104 14.7496Z" fill="#00C285"/>
</g>
<defs>
<clipPath id="clip0_10655_119365">
<rect width="58" height="58" fill="white"/>
</clipPath>
</defs>
</svg>
