<svg width="58" height="58" viewBox="0 0 58 58" fill="none" xmlns="http://www.w3.org/2000/svg">
<path d="M58 29C58 45.0157 45.0157 58 29 58C24.1334 58 19.5478 56.8015 15.5207 54.682C10.5986 52.0935 16.3236 47.3108 13.5822 42.4849C12.7564 41.0326 2.23957 40.3213 1.67203 38.7263V38.7252C0.589062 35.6847 0 32.412 0 29C0 12.9843 12.9843 0 29 0C45.0157 0 58 12.9843 58 29Z" fill="#E5F6FD"/>
<path d="M29.541 43.7341L48.0413 28.9209C49.4509 27.814 51.4726 27.9656 52.6991 29.272C53.9265 30.5783 53.9532 32.6054 52.7606 33.9426L40.802 47.3555" fill="#F7AE75"/>
<path d="M46.1171 22.5261C46.1171 28.4439 48.9543 33.8273 45.2236 37.8474C41.1091 42.2788 35.2337 45.0522 28.7096 45.0522C20.9091 45.0522 14.0351 41.0872 9.99264 35.0635C7.58609 31.4802 9.19367 27.1674 9.19367 22.5262C9.19367 15.5101 9.39146 9.24352 14.4198 5.11216C18.3074 1.91785 23.2848 0 28.7096 0C35.5667 0 41.7071 3.0638 45.8396 7.89604C49.2045 11.8323 46.1171 16.9412 46.1171 22.5261Z" fill="#60B7FF"/>
<path d="M33.1189 44.621C31.6933 44.9034 30.2195 45.0522 28.7104 45.0522C20.9099 45.0522 14.036 41.0872 9.99352 35.0633C7.58697 31.4802 9.22774 27.1677 9.22774 22.5261C9.22774 15.5105 9.39256 9.24364 14.4204 5.11238C18.3079 1.9183 23.2857 0 28.7104 0C30.2186 0 31.6933 0.147832 33.1189 0.431148C29.4171 1.16498 26.0425 2.80609 23.2355 5.11238C18.2067 9.24364 14.9994 15.5105 14.9994 22.5261C14.9994 27.1677 16.4021 31.4802 18.8086 35.0633C22.0696 39.9222 27.1723 43.442 33.1189 44.621Z" fill="#26A6FE"/>
<path d="M24.2888 11.1022H19.0845C19.9115 11.1022 20.6599 11.4372 21.2016 11.979C21.7445 12.5207 22.0794 13.2703 22.0794 14.0971C22.0794 15.7509 20.7383 17.0921 19.0845 17.0921H11.2945C12.1215 17.0921 12.8699 17.427 13.4116 17.9689C13.9545 18.5117 14.2894 19.2602 14.2894 20.087C14.2894 21.7408 12.9483 23.0819 11.2945 23.0819H16.9706C18.6244 23.0819 19.9655 24.4231 19.9655 26.0768C19.9655 27.7318 18.6244 29.0718 16.9706 29.0718H21.9034C22.7304 29.0718 23.4788 29.4067 24.0215 29.9496C24.5632 30.4913 24.8983 31.2398 24.8983 32.0677C24.8983 33.7215 23.5572 35.0627 21.9034 35.0627H9.99268C7.58613 31.4793 6.18359 27.1666 6.18359 22.5254C6.18359 15.5093 9.3916 9.24269 14.4199 5.11133H24.2889C25.9427 5.11133 27.2838 6.45246 27.2838 8.10626C27.2837 9.76118 25.9427 11.1022 24.2888 11.1022Z" fill="#6FD7A3"/>
<path d="M51.2364 22.5246C51.2364 28.4424 48.9549 33.8257 45.2244 37.8459H32.407C31.5801 37.8459 30.8316 37.5109 30.2899 36.9681C29.7471 36.4263 29.4121 35.6779 29.4121 34.8509C29.4121 33.196 30.7532 31.855 32.407 31.855H42.7944C41.1394 31.855 39.7984 30.5139 39.7984 28.8601C39.7984 28.0331 40.1334 27.2847 40.6762 26.7419C41.2179 26.2002 41.9664 25.8651 42.7944 25.8651H36.8575C36.0306 25.8651 35.2821 25.5302 34.7404 24.9883C34.1976 24.4455 33.8626 23.697 33.8626 22.8702C33.8626 21.2164 35.2037 19.8753 36.8575 19.8753H41.7883C40.9614 19.8753 40.2119 19.5403 39.6702 18.9985C39.1273 18.4556 38.7924 17.7072 38.7924 16.8803C38.7924 15.2254 40.1335 13.8844 41.7883 13.8844H36.5841C34.9303 13.8844 33.5891 12.5433 33.5891 10.8895C33.5891 9.23567 34.9303 7.89453 36.5841 7.89453H45.8403C49.2052 11.8308 51.2364 16.9397 51.2364 22.5246Z" fill="#6FD7A3"/>
<path d="M15.6585 17.0935H11.2942C12.1213 17.0935 12.8701 17.4287 13.4113 17.9707C13.9542 18.5137 14.2894 19.2615 14.2894 20.0887C14.2894 21.7421 12.9484 23.084 11.2942 23.084H15.0057C15.1131 27.5135 16.4981 31.6246 18.8079 35.0642H9.99279C7.58624 31.4811 6.18359 27.1686 6.18359 22.527C6.18359 15.5114 9.39183 9.24453 14.4197 5.11328H23.2348C19.5487 8.14106 16.8412 12.3172 15.6585 17.0935Z" fill="#3EC3A4"/>
<path d="M54.2672 39.15L50.1166 42.2403L38.9539 50.5517C37.2377 51.8284 35.1544 52.5172 33.0145 52.5183H17.6842L15.5205 54.682C9.11672 51.3153 4.12555 45.6217 1.67188 38.7263C4.77125 36.105 8.71117 34.6527 12.8006 34.6527H15.3574L15.3562 38.4442L21.4383 39.2689L34.238 41.0055L50.4304 32.9138C51.4046 32.429 52.4978 32.4143 53.4403 32.7915C54.1505 33.0747 54.7747 33.5799 55.2018 34.2755C55.3819 34.5666 55.5144 34.8736 55.6051 35.1874C56.0197 36.6249 55.5212 38.2177 54.2672 39.15Z" fill="#FFCE9A"/>
<path d="M55.6047 35.186C54.3983 34.5521 52.9129 34.5562 51.6794 35.2898L36.226 44.4888L19.8184 42.1881L21.4369 39.2676L34.2377 41.0029L50.4298 32.9134C52.135 32.0628 54.2059 32.6524 55.2016 34.2749C55.3811 34.5653 55.5151 34.8726 55.6047 35.186Z" fill="#F7AE75"/>
<path d="M25.617 25.2818C23.1069 24.0242 20.0525 25.0396 18.7949 27.5497L17.1008 30.9313C13.9382 30.5032 10.7151 32.0882 9.20579 35.101C7.30606 38.8928 8.83989 43.5065 12.6316 45.4062C16.4234 47.306 21.0371 45.7721 22.9368 41.9804L27.8851 32.104C29.1424 29.5938 28.127 26.5395 25.617 25.2818Z" fill="#FFCE9A"/>
<path d="M10.9791 38.6346C8.48234 39.4751 5.8916 41.1823 3.99301 43.0797L3.76871 43.304C2.94289 41.8518 2.23941 40.3202 1.67188 38.7252V38.7241C4.13461 36.6431 7.1275 35.2984 10.3039 34.834L10.9791 38.6346Z" fill="#F7AE75"/>
<path d="M27.2371 26.5622C25.2765 26.4538 23.3462 27.4948 22.4112 29.3611L20.7169 32.7426C17.5543 32.315 14.3309 33.9004 12.8217 36.9128C11.2356 40.0784 7.30511 38.8925 9.20484 35.1007C10.715 32.088 13.9375 30.503 17.1001 30.9306L18.7946 27.5499C20.0523 25.0394 23.1064 24.0242 25.6169 25.2819C26.2599 25.6041 26.8042 26.0435 27.2371 26.5622Z" fill="#F7AE75"/>
</svg>
