<svg width="154" height="154" viewBox="0 0 154 154" fill="none" xmlns="http://www.w3.org/2000/svg">
<g clip-path="url(#clip0_12111_190170)">
<rect width="154" height="154" rx="6" fill="#DCF9FA"/>
<path d="M120.21 90.6719L112.931 94.929C111.348 95.855 110.477 97.6433 110.726 99.4609L111.959 108.475L130.096 115.245L132.943 105.049L120.21 90.6719Z" fill="#FFB09E"/>
<path d="M131.184 125.478L135.304 152.805C135.468 153.448 136.048 153.899 136.712 153.899H148.547C149.491 153.899 150.184 153.012 149.956 152.095L141.283 105.225C140.882 103.464 139.883 101.896 138.458 100.786L105.063 74.7827C104.366 74.2402 103.359 74.3652 102.816 75.0623L101.728 76.4613C100.43 78.1272 100.729 80.5319 102.395 81.827L123.47 98.2377C124.679 99.1798 125.517 100.519 125.836 102.02C126.572 105.491 123.014 108.316 119.778 106.858L106.47 100.618C106.178 100.486 105.875 100.396 105.572 100.346C104.001 100.088 102.393 100.901 101.71 102.421C100.892 104.233 101.701 106.364 103.513 107.181L118.456 114.147C118.838 114.325 119.198 114.545 119.53 114.804L129.165 122.306C130.183 123.099 130.897 124.22 131.184 125.478Z" fill="#FFCEBF"/>
<path d="M139.525 152.804L137.404 125.477C137.117 124.219 136.404 123.098 135.385 122.305L125.751 114.803C125.419 114.544 125.059 114.324 124.677 114.146L103.118 103.583C102.535 103.32 102.058 102.92 101.703 102.439C100.9 104.247 101.708 106.365 103.514 107.18L118.457 114.146C118.839 114.324 119.199 114.544 119.531 114.803L129.165 122.305C130.184 123.098 130.897 124.219 131.184 125.477L133.305 152.804C133.469 153.447 134.048 153.898 134.712 153.898H140.932C140.268 153.898 139.689 153.447 139.525 152.804Z" fill="#FFB09E"/>
<path d="M102.928 75.0839C102.407 75.7081 102.463 76.6347 103.116 77.1192C104.392 78.0674 106.115 79.0265 107.694 79.1304C108.986 79.2154 109.037 77.6751 107.979 76.9284L104.984 74.8137C104.333 74.3541 103.438 74.4718 102.928 75.0839V75.0839Z" fill="#F4DBDB"/>
<path d="M79.9645 50.3498L84.341 60.4743L88.393 50.2156L87.1209 61.1719L95.7593 54.3136L89.1795 63.166L100.09 61.5457L89.9653 65.9222L100.224 69.9742L89.2676 68.7021L96.126 77.3405L87.2736 70.7607L88.8939 81.671L84.5174 71.5465L80.4654 81.8052L81.7375 70.8488L73.099 77.7072L79.6789 68.8548L68.7686 70.4751L78.8931 66.0985L68.6344 62.0466L79.5907 63.3187L72.7324 54.6802L81.5848 61.2601L79.9645 50.3498Z" fill="url(#paint0_radial_12111_190170)"/>
<path d="M84.0169 55.3145L85.228 61.9363L89.5879 56.8072L87.3259 63.1475L93.6662 60.8855L88.5371 65.2454L95.159 66.4566L88.5371 67.6677L93.6662 72.0276L87.3259 69.7656L89.5879 76.1059L85.228 70.9768L84.0169 77.5987L82.8057 70.9768L78.4458 76.1059L80.7078 69.7656L74.3675 72.0276L79.4966 67.6677L72.8748 66.4566L79.4966 65.2454L74.3675 60.8855L80.7078 63.1475L78.4458 56.8072L82.8057 61.9363L84.0169 55.3145Z" fill="url(#paint1_radial_12111_190170)"/>
<circle cx="84.4454" cy="66.8836" r="5.57105" fill="url(#paint2_linear_12111_190170)"/>
<path d="M46.396 36.8152L44.5175 48.2707C44.2953 49.6254 43.2264 50.683 41.8694 50.891L30.983 52.5586L22.1097 32.8327L31.3018 27.4727L46.396 36.8152Z" fill="#0C8149"/>
<path d="M69.8216 58.6572C67.9567 61.0525 63.6078 60.7846 60.1046 58.0576C57.9384 56.3696 56.6041 54.137 56.3444 52.1119C56.1814 50.8356 55.5182 49.6752 54.5016 48.8849L39.0654 36.8635L32.965 35.1808C30.517 34.5038 28.3868 36.9793 29.4202 39.3002L30.6359 42.0326V42.0354L37.7889 58.0877C38.0376 58.6485 38.4244 59.1374 38.9106 59.5132C39.8501 60.2398 41.4248 61.591 41.9941 62.8645C43.511 66.271 42.4913 70.0314 39.7175 71.2665C36.9464 72.5044 33.4678 70.7443 31.9509 67.3406C31.2795 65.8293 31.1082 64.249 31.3651 62.851C31.4977 62.1381 31.3844 61.4033 31.0888 60.7401L25.0933 47.285C24.3501 45.6133 23.2062 44.1519 21.7613 43.0273L2.178 27.7791C0.730346 26.6517 -0.924807 25.8202 -2.6958 25.3311L-5.11501 24.6918C-5.63643 24.5543 -6 24.0823 -6 23.5428V11.1896C-6 10.4057 -5.25453 9.83615 -4.49812 10.0426L24.6706 18.0017C26.5992 18.532 28.4061 19.4412 29.9836 20.6706L66.3043 48.9513L66.2906 48.9679C66.4813 49.1005 66.672 49.2385 66.8596 49.3852C70.3603 52.1119 71.6866 56.2617 69.8216 58.6572Z" fill="#00BE64"/>
<path d="M41.9677 66.1244C41.9677 68.5511 40.1644 70.5184 37.9399 70.5184C35.7154 70.5184 32.4474 68.1849 32.4474 65.7582C32.4474 64.5424 32.1731 63.35 33.1797 62.4627C34.1824 61.579 36.4637 60.998 37.5737 60.998C39.7982 60.998 41.9677 63.6976 41.9677 66.1244Z" fill="#FFB884"/>
<path d="M70.5287 55.1388C70.5287 56.7566 66.1622 54.4065 63.9377 54.4065C61.7132 54.4065 59.9099 53.095 59.9099 51.4771C59.9099 49.8593 62.8117 48.1816 65.0362 48.1816C67.2607 48.1816 70.5287 53.172 70.5287 55.1388Z" fill="#FFB884"/>
<path opacity="0.2" d="M32.5 91L34.4304 99.5696L43 101.5L34.4304 103.43L32.5 112L30.5696 103.43L22 101.5L30.5696 99.5696L32.5 91Z" fill="#ABE2A4"/>
<path opacity="0.2" d="M68.5 113L69.695 118.305L75 119.5L69.695 120.695L68.5 126L67.305 120.695L62 119.5L67.305 118.305L68.5 113Z" fill="#00C9E9"/>
<path opacity="0.2" d="M135.5 52L137.43 60.5696L146 62.5L137.43 64.4304L135.5 73L133.57 64.4304L125 62.5L133.57 60.5696L135.5 52Z" fill="#F7DDA1"/>
<path opacity="0.2" d="M85.5 14L86.695 19.305L92 20.5L86.695 21.695L85.5 27L84.305 21.695L79 20.5L84.305 19.305L85.5 14Z" fill="#A957D6"/>
</g>
<defs>
<radialGradient id="paint0_radial_12111_190170" cx="0" cy="0" r="1" gradientUnits="userSpaceOnUse" gradientTransform="translate(84.4292 66.0104) rotate(76.2872) scale(16.3382)">
<stop stop-color="#F784D1"/>
<stop offset="1" stop-color="#F784D1" stop-opacity="0"/>
</radialGradient>
<radialGradient id="paint1_radial_12111_190170" cx="0" cy="0" r="1" gradientUnits="userSpaceOnUse" gradientTransform="translate(84.0169 66.4566) rotate(90) scale(11.1421)">
<stop stop-color="#FFE4F8"/>
<stop offset="1" stop-color="#FF97E2"/>
</radialGradient>
<linearGradient id="paint2_linear_12111_190170" x1="81.017" y1="63.4552" x2="88.7308" y2="72.0261" gradientUnits="userSpaceOnUse">
<stop stop-color="#FFE8FF"/>
<stop offset="0.1875" stop-color="#FCCCFC"/>
<stop offset="0.375" stop-color="#FAB5FA"/>
<stop offset="0.557292" stop-color="#E88BE8"/>
<stop offset="0.765625" stop-color="#DB62DB"/>
<stop offset="0.963542" stop-color="#AE34AE"/>
</linearGradient>
<clipPath id="clip0_12111_190170">
<rect width="154" height="154" rx="6" fill="white"/>
</clipPath>
</defs>
</svg>
