<svg width="154" height="154" viewBox="0 0 154 154" fill="none" xmlns="http://www.w3.org/2000/svg">
<rect width="154" height="154" rx="6" fill="#DCF9FA"/>
<g opacity="0.2">
<path d="M63.2 112.25H91.8V117.017H63.2V112.25Z" fill="#B0EFF7"/>
<path d="M110.426 91.7867L77.5 69.8481L44.5743 91.7867L41.9288 87.8208L76.1773 65.0004C76.5689 64.7391 77.0292 64.5996 77.5 64.5996C77.9708 64.5996 78.4311 64.7391 78.8228 65.0004L113.071 87.8208L110.426 91.7867Z" fill="#B0EFF7"/>
<path d="M65.5356 96.591C65.4656 96.282 65.3347 95.99 65.1506 95.7322C64.9664 95.4744 64.7327 95.2559 64.4631 95.0894L38.1511 79.2164C37.802 78.9947 37.3969 78.877 36.9833 78.877C36.5697 78.877 36.1646 78.9947 35.8155 79.2164L9.50347 95.0894C9.23387 95.2559 9.00017 95.4744 8.81601 95.7322C8.63186 95.99 8.50096 96.282 8.43097 96.591C8.40207 96.7402 8.38612 96.8917 8.3833 97.0438V127.455C8.38581 127.85 8.49026 128.237 8.68652 128.58C8.88278 128.922 9.16419 129.208 9.50347 129.409L35.8155 145.282C36.166 145.5 36.5705 145.616 36.9833 145.616C37.3961 145.616 37.8006 145.5 38.1511 145.282L64.4631 129.409C64.8024 129.208 65.0838 128.922 65.2801 128.58C65.4763 128.237 65.5808 127.85 65.5833 127.455V97.0438C65.5805 96.8917 65.5645 96.7402 65.5356 96.591V96.591Z" fill="url(#paint0_linear_12111_190209)"/>
<path d="M36.9833 113.394V145.617C36.5695 145.625 36.1628 145.508 35.8155 145.283L9.50347 129.41C9.16419 129.209 8.88278 128.923 8.68652 128.58C8.49026 128.238 8.38581 127.851 8.3833 127.456V97.0446C8.38612 96.8926 8.40207 96.7411 8.43097 96.5918L35.7201 113.061C36.1032 113.284 36.5398 113.399 36.9833 113.394V113.394Z" fill="#68CBE7"/>
<path d="M65.5706 96.6657V127.077C65.5681 127.472 65.4637 127.859 65.2674 128.201C65.0712 128.544 64.7898 128.83 64.4505 129.031L38.1385 144.904C37.7912 145.13 37.3845 145.246 36.9706 145.238V113.015C37.4141 113.021 37.8507 112.905 38.2338 112.682L65.523 96.2129C65.5519 96.3622 65.5678 96.5137 65.5706 96.6657V96.6657Z" fill="url(#paint1_linear_12111_190209)"/>
<path d="M146.569 96.591C146.499 96.282 146.368 95.99 146.184 95.7322C146 95.4744 145.766 95.2559 145.497 95.0894L119.185 79.2164C118.835 78.9947 118.43 78.877 118.017 78.877C117.603 78.877 117.198 78.9947 116.849 79.2164L90.5369 95.0894C90.2673 95.2559 90.0335 95.4744 89.8494 95.7322C89.6652 95.99 89.5343 96.282 89.4644 96.591C89.4355 96.7402 89.4195 96.8917 89.4167 97.0438V127.455C89.4192 127.85 89.5236 128.237 89.7199 128.58C89.9162 128.922 90.1976 129.208 90.5369 129.409L116.849 145.282C117.199 145.5 117.604 145.616 118.017 145.616C118.429 145.616 118.834 145.5 119.185 145.282L145.497 129.409C145.836 129.208 146.117 128.922 146.313 128.58C146.51 128.237 146.614 127.85 146.617 127.455V97.0438C146.614 96.8917 146.598 96.7402 146.569 96.591V96.591Z" fill="url(#paint2_linear_12111_190209)"/>
<path d="M118.004 113.015V145.238C117.59 145.246 117.183 145.13 116.836 144.904L90.5242 129.031C90.1849 128.83 89.9035 128.544 89.7072 128.201C89.5109 127.859 89.4065 127.472 89.404 127.077V96.6657C89.4068 96.5137 89.4228 96.3622 89.4517 96.2129L116.741 112.682C117.124 112.905 117.561 113.021 118.004 113.015V113.015Z" fill="#68CBE7"/>
<path d="M146.617 97.0446V127.456C146.614 127.851 146.51 128.238 146.313 128.58C146.117 128.923 145.836 129.209 145.497 129.41L119.185 145.283C118.837 145.508 118.43 145.625 118.017 145.617V113.394C118.46 113.399 118.897 113.284 119.28 113.061L146.569 96.5918C146.598 96.7411 146.614 96.8926 146.617 97.0446V97.0446Z" fill="url(#paint3_linear_12111_190209)"/>
<path d="M106.052 25.091C105.982 24.782 105.851 24.49 105.667 24.2322C105.483 23.9744 105.249 23.7559 104.98 23.5894L78.6679 7.71645C78.3187 7.49471 77.9136 7.37695 77.5 7.37695C77.0864 7.37695 76.6813 7.49471 76.3322 7.71645L50.0202 23.5894C49.7506 23.7559 49.5169 23.9744 49.3327 24.2322C49.1486 24.49 49.0177 24.782 48.9477 25.091C48.9188 25.2402 48.9028 25.3917 48.9 25.5438V55.9551C48.9025 56.3498 49.007 56.7371 49.2032 57.0795C49.3995 57.4219 49.6809 57.7078 50.0202 57.9095L76.3322 73.7825C76.6826 74.0007 77.0872 74.1163 77.5 74.1163C77.9129 74.1163 78.3174 74.0007 78.6679 73.7825L104.98 57.9095C105.319 57.7078 105.601 57.4219 105.797 57.0795C105.993 56.7371 106.098 56.3498 106.1 55.9551V25.5438C106.097 25.3917 106.081 25.2402 106.052 25.091Z" fill="url(#paint4_linear_12111_190209)"/>
<path d="M77.5 41.8943V74.117C77.0862 74.1247 76.6795 74.0085 76.3322 73.7833L50.0202 57.9103C49.6809 57.7087 49.3995 57.4228 49.2032 57.0804C49.007 56.7379 48.9025 56.3506 48.9 55.956V25.5446C48.9028 25.3926 48.9188 25.2411 48.9477 25.0918L76.2369 41.5606C76.62 41.7841 77.0565 41.8995 77.5 41.8943V41.8943Z" fill="#68CBE7"/>
<path d="M106.1 25.5446V55.956C106.097 56.3506 105.993 56.7379 105.797 57.0804C105.601 57.4228 105.319 57.7087 104.98 57.9103L78.6678 73.7833C78.3205 74.0085 77.9138 74.1247 77.5 74.117V41.8943C77.9435 41.8995 78.3801 41.7841 78.7632 41.5606L106.052 25.0918C106.081 25.2411 106.097 25.3926 106.1 25.5446V25.5446Z" fill="url(#paint5_linear_12111_190209)"/>
</g>
<rect x="43" y="87.1133" width="5" height="13" rx="2.5" transform="rotate(-25 43 87.1133)" fill="url(#paint6_linear_12111_190209)"/>
<rect x="58" y="82.1133" width="5" height="13" rx="2.5" fill="url(#paint7_linear_12111_190209)"/>
<rect x="73.494" y="85.1133" width="5" height="13" rx="2.5" transform="rotate(25 73.494 85.1133)" fill="url(#paint8_linear_12111_190209)"/>
<path d="M91.7978 27.9292L96.0389 27.8159L104.748 36.0715L104.861 40.3127L78.0302 68.6164L73.789 68.7297L65.0802 60.4741L64.9669 56.2329L91.7978 27.9292Z" fill="#007485"/>
<path d="M91.7978 27.93L90.4218 29.3815L89.0459 30.8329L102.109 43.2164L104.861 40.3135L104.786 37.4861L103.41 38.9375L91.7978 27.93Z" fill="#1B8393"/>
<path d="M75.1272 65.8646L64.9669 56.233L67.7188 53.3301L79.3305 64.3376L77.9546 65.7891L75.1272 65.8646Z" fill="#1B8393"/>
<path d="M68.3312 49.7762L85.5305 31.6328L101.497 46.7682L84.2974 64.9116L68.3312 49.7762Z" fill="#00EBFE"/>
<path d="M70.3951 47.5991L72.459 45.4219L88.4253 60.5573L86.3614 62.7345L70.3951 47.5991Z" fill="#00EBFE"/>
<path d="M68.3312 49.7768L70.3951 47.5996L86.3614 62.735L84.2974 64.9122L68.3312 49.7768Z" fill="#007485"/>
<path d="M80.7147 36.7135L83.4666 33.8105L99.4328 48.9459L98.0568 50.3974L96.6809 51.8489L80.7147 36.7135Z" fill="#007485"/>
<path d="M84.8652 31.0029L84.767 29.5319L86.8309 27.3546L88.3051 27.3742L105.602 43.7709L105.7 45.2419L103.636 47.4191L102.162 47.3996L84.8652 31.0029Z" fill="#12BCC8"/>
<path d="M84.8652 31.0026L84.4918 29.8218L85.7302 28.5155L86.9292 28.8254L104.226 45.222L104.599 46.4028L103.361 47.7091L102.162 47.3993L84.8652 31.0026Z" fill="#20A6AF"/>
<path d="M64.2261 52.7744L64.1278 51.3033L66.1917 49.1261L67.6659 49.1457L84.9627 65.5424L85.0609 67.0134L82.997 69.1906L81.5228 69.171L64.2261 52.7744Z" fill="#12BCC8"/>
<path d="M81.3649 34.5747L79.9512 34.6125L71.0076 44.047L71.0453 45.4608L88.463 61.9721L89.8767 61.9343L98.8204 52.4997L98.7826 51.086L81.3649 34.5747Z" fill="#007485"/>
<path d="M81.2812 34.4953L80.0888 34.4673L72.9339 42.015L73.0255 43.2042L88.4335 57.8103L89.6258 57.8383L96.7807 50.2907L96.6891 49.1015L81.2812 34.4953Z" fill="#1B8393"/>
<path d="M64.2261 52.7741L63.8527 51.5933L65.091 50.287L66.29 50.5969L83.5867 66.9935L83.9602 68.1743L82.7218 69.4806L81.5228 69.1707L64.2261 52.7741Z" fill="#20A6AF"/>
<path d="M94.6563 63.723L96.1455 63.5926L101.451 57.905L101.477 56.4103L98.5522 53.682L97.0631 53.8124L91.7579 59.5L91.7313 60.9946L94.6563 63.723Z" fill="#1B8393"/>
<path d="M91.6821 59.5812L92.3642 58.85L93.0463 58.1187L95.9713 60.8471L100.746 55.7283L101.477 56.4103L101.526 57.8237L96.0697 63.6738L94.6563 63.723L91.7313 60.9946L91.6821 59.5812Z" fill="#007485"/>
<path d="M101.871 67.718L96.7518 62.9434L100.844 58.5558L105.963 63.3304L101.871 67.718Z" fill="#1B8393"/>
<path d="M101.871 67.718L96.7518 62.9434L98.7981 60.7496L103.917 65.5242L101.871 67.718Z" fill="#007485"/>
<path d="M104.064 69.7637L108.157 65.3761L113.958 69.4195L126.789 80.5865L130.563 83.8709L134.337 87.1553L134.482 89.9315L130.39 94.3191L127.61 94.367L124.071 90.8305L120.533 87.2939L108.501 75.2696L104.064 69.7637Z" fill="#1B8393"/>
<path d="M99.7751 68.4985L99.726 67.0851L102.454 64.1601L105.183 61.235L106.596 61.1859L108.79 63.2322L108.839 64.6455L106.111 67.5706L103.382 70.4956L101.969 70.5448L99.7751 68.4985Z" fill="#12BCC8"/>
<path fill-rule="evenodd" clip-rule="evenodd" d="M99.726 67.0851L99.7751 68.4985L101.969 70.5448L103.382 70.4956L106.111 67.5706L102.454 64.1601L99.726 67.0851Z" fill="#20A6AF"/>
<path d="M128.878 91.5419L106.111 67.5702L104.064 69.764L108.501 75.27L127.563 94.4178L130.39 94.3195L134.482 89.9319L134.433 88.5185L131.705 91.4436L128.878 91.5419Z" fill="#007485"/>
<path fill-rule="evenodd" clip-rule="evenodd" d="M126.789 80.5872L120.507 87.3221L121.918 88.7418L128.299 81.901L126.789 80.5872ZM129.431 82.8863L122.975 89.8081L124.03 90.8753L130.563 83.8716L129.431 82.8863Z" fill="#12BCC8"/>
<path fill-rule="evenodd" clip-rule="evenodd" d="M122.666 85.0076L120.507 87.3221L121.918 88.7418L124.051 86.4555L122.666 85.0076ZM125.083 87.5477L126.115 88.64L124.03 90.8753L122.975 89.8081L125.083 87.5477Z" fill="#20A6AF"/>
<path d="M33 114V117H84V114L82 112H79V106L76 102H40L37.5 106V112H35L33 114Z" fill="#1B8393"/>
<path d="M40 105L41 102H40L37.5 106V112H79V109H40V105Z" fill="#007485"/>
<path d="M79 106H37.5V108H79V106Z" fill="#00EBFE"/>
<path d="M79 110H37.5V111H79V110Z" fill="#00EBFE"/>
<path d="M36 115V112H35L33 114V117H84V115H36Z" fill="#007485"/>
<defs>
<linearGradient id="paint0_linear_12111_190209" x1="-20.2253" y1="295.375" x2="120.535" y2="255.108" gradientUnits="userSpaceOnUse">
<stop stop-color="#52DAF0"/>
<stop offset="1" stop-color="#ABF3FA"/>
</linearGradient>
<linearGradient id="paint1_linear_12111_190209" x1="44.136" y1="70.5091" x2="79.607" y2="78.0958" gradientUnits="userSpaceOnUse">
<stop stop-color="#0085AF"/>
<stop offset="1" stop-color="#4FD5FF"/>
</linearGradient>
<linearGradient id="paint2_linear_12111_190209" x1="60.8081" y1="295.375" x2="201.568" y2="255.108" gradientUnits="userSpaceOnUse">
<stop stop-color="#52DAF0"/>
<stop offset="1" stop-color="#ABF3FA"/>
</linearGradient>
<linearGradient id="paint3_linear_12111_190209" x1="125.182" y1="70.8881" x2="160.653" y2="78.4747" gradientUnits="userSpaceOnUse">
<stop stop-color="#0085AF"/>
<stop offset="1" stop-color="#4FD5FF"/>
</linearGradient>
<linearGradient id="paint4_linear_12111_190209" x1="20.2914" y1="223.876" x2="161.052" y2="183.61" gradientUnits="userSpaceOnUse">
<stop stop-color="#52DAF0"/>
<stop offset="1" stop-color="#ABF3FA"/>
</linearGradient>
<linearGradient id="paint5_linear_12111_190209" x1="84.6654" y1="-0.611946" x2="120.136" y2="6.97468" gradientUnits="userSpaceOnUse">
<stop stop-color="#0085AF"/>
<stop offset="1" stop-color="#4FD5FF"/>
</linearGradient>
<linearGradient id="paint6_linear_12111_190209" x1="45.5" y1="87.1133" x2="45.5" y2="100.113" gradientUnits="userSpaceOnUse">
<stop offset="0.286458" stop-color="white"/>
<stop offset="1" stop-color="#B0EFF7" stop-opacity="0"/>
</linearGradient>
<linearGradient id="paint7_linear_12111_190209" x1="60.5" y1="82.1133" x2="60.5" y2="95.1133" gradientUnits="userSpaceOnUse">
<stop offset="0.286458" stop-color="white"/>
<stop offset="1" stop-color="#B0EFF7" stop-opacity="0"/>
</linearGradient>
<linearGradient id="paint8_linear_12111_190209" x1="75.994" y1="85.1133" x2="75.994" y2="98.1133" gradientUnits="userSpaceOnUse">
<stop offset="0.286458" stop-color="white"/>
<stop offset="1" stop-color="#B0EFF7" stop-opacity="0"/>
</linearGradient>
</defs>
</svg>
