<svg width="184" height="34" viewBox="0 0 184 34" fill="none" xmlns="http://www.w3.org/2000/svg">
  <path d="M24.7726 9.14753L14.0982 2.80999C13.3933 2.39667 12.5205 2.39667 11.8156 2.80999L1.14128 9.14753C0.436373 9.56085 0 10.3186 0 11.1452V23.8203C0 24.647 0.436373 25.4392 1.14128 25.8525L11.8156 32.19C12.1513 32.3967 12.5541 32.5 12.9569 32.5C13.3597 32.5 13.729 32.3967 14.0982 32.19L24.7726 25.8525C25.4775 25.4392 25.9138 24.647 25.9138 23.8203V11.1452C25.9138 10.3186 25.4775 9.56085 24.7726 9.14753ZM24.504 23.8203C24.504 24.1303 24.3362 24.4403 24.0676 24.5781L13.3933 30.9156C13.1248 31.0878 12.7891 31.0878 12.5205 30.9156L1.84619 24.5781C1.57766 24.4059 1.40982 24.1303 1.40982 23.8203V11.1452C1.40982 10.8352 1.57766 10.5253 1.84619 10.3875L12.5205 4.08439C12.6548 4.0155 12.7891 3.98106 12.9569 3.98106C13.0912 3.98106 13.259 4.0155 13.3933 4.08439L24.0676 10.4219C24.3362 10.5941 24.504 10.8697 24.504 11.1797V23.8203Z" fill="#152F4D" fillOpacity="0.8" />
  <path d="M6.27704 11.0416L10.003 13.3493C10.4394 13.6248 11.01 13.2804 11.01 12.7637V8.25169C11.01 7.73504 10.4729 7.42505 10.0366 7.66615L6.31061 9.87052C5.87423 10.1461 5.87423 10.766 6.27704 11.0416Z" fill="#152F4D" fillOpacity="0.8" />
  <path d="M10.0029 21.5818L6.27699 23.8895C5.84061 24.165 5.84061 24.785 6.27699 25.0605L10.0029 27.2649C10.4393 27.5404 10.9764 27.196 10.9764 26.6794V22.1673C11.01 21.6162 10.4393 21.3062 10.0029 21.5818Z" fill="#152F4D" fillOpacity="0.8" />
  <path d="M8.02252 16.8626L4.22943 14.6238C3.79306 14.3483 3.25598 14.6927 3.25598 15.2094V19.6181C3.25598 20.1347 3.79306 20.4447 4.22943 20.2036L8.02252 18.0337C8.45889 17.7926 8.45889 17.1382 8.02252 16.8626Z" fill="#152F4D" fillOpacity="0.8" />
  <path d="M15.9108 13.3499L19.6367 11.0422C20.0731 10.7667 20.0731 10.1467 19.6367 9.87117L15.9108 7.66681C15.4744 7.39126 14.9373 7.73569 14.9373 8.25234V12.7644C14.9038 13.281 15.4744 13.591 15.9108 13.3499Z" fill="#152F4D" fillOpacity="0.8" />
  <path d="M19.6368 23.8895L15.9108 21.5818C15.4745 21.3063 14.9038 21.6507 14.9038 22.1674V26.6794C14.9038 27.1961 15.4409 27.5061 15.8773 27.265L19.6032 25.0606C20.0396 24.7851 20.0396 24.1306 19.6368 23.8895Z" fill="#152F4D" fillOpacity="0.8" />
  <path d="M21.718 14.6238L17.9249 16.8626C17.4886 17.1382 17.4886 17.7926 17.9249 18.0337L21.718 20.2036C22.1544 20.4447 22.6915 20.1347 22.6915 19.6181V15.2094C22.6915 14.6927 22.1544 14.3483 21.718 14.6238Z" fill="#152F4D" fillOpacity="0.8" />
  <path d="M20.0396 21.0996L13.8297 17.4486L20.0396 13.7632C20.241 13.6254 20.3081 13.3499 20.2074 13.1432C20.0731 12.9366 19.8046 12.8677 19.6032 12.971L13.3933 16.6564V9.42335C13.3933 9.18225 13.1919 8.97559 12.9569 8.97559C12.7219 8.97559 12.5205 9.18225 12.5205 9.42335V16.6564L6.41132 13.0399C6.20991 12.9021 5.94138 13.0054 5.80711 13.2121C5.67284 13.4188 5.77354 13.6943 5.97494 13.8321L12.0842 17.4486L5.97494 21.0651C5.77354 21.2029 5.70641 21.4785 5.80711 21.6851C5.87424 21.8229 6.04208 21.9262 6.17635 21.9262C6.24348 21.9262 6.34418 21.8918 6.41132 21.8573L12.5205 18.2408V25.6116C12.5205 25.8527 12.7219 26.0594 12.9569 26.0594C13.1919 26.0594 13.3933 25.8527 13.3933 25.6116V18.2408L19.6032 21.9262C19.6703 21.9607 19.7375 21.9951 19.8382 21.9951C20.006 21.9951 20.1403 21.9262 20.2074 21.754C20.3417 21.5129 20.2745 21.2374 20.0396 21.0996Z" fill="#152F4D" fillOpacity="0.8" />
  <path d="M43.8764 11.6885L40.1509 15.5112L36.4255 11.6885H34.1515L39.1833 17.7452V25.6388H41.1186V17.7452L46.1504 11.6885H43.8764Z" fill="#152F4D" fillOpacity="0.8" />
  <path d="M51.9563 11.6885C48.2308 11.6885 45.1827 14.8161 45.1827 18.6388C45.1827 22.4615 48.2308 25.5892 51.9563 25.5892C55.7302 25.5892 58.7783 22.4615 58.7783 18.6388C58.7299 14.8161 55.6818 11.6885 51.9563 11.6885ZM51.9563 23.653C49.2469 23.653 47.118 21.4686 47.118 18.6885C47.118 15.9083 49.2469 13.7239 51.9563 13.7239C54.6657 13.7239 56.843 15.958 56.843 18.6885C56.7946 21.419 54.6174 23.653 51.9563 23.653Z" fill="#152F4D" fillOpacity="0.8" />
  <path d="M70.4385 19.9793C70.4385 22.0147 68.7935 23.653 66.8582 23.653C64.8745 23.653 63.2778 22.0147 63.2778 19.9793V11.6885H61.3425V19.9296C61.3425 23.0573 63.8101 25.5892 66.8582 25.5892C69.9063 25.5892 72.4222 23.0573 72.4222 19.9296V11.6885H70.4869V19.9793H70.4385Z" fill="#152F4D" fillOpacity="0.8" />
  <path d="M119.499 19.9793C119.499 22.0147 117.854 23.653 115.918 23.653C113.935 23.653 112.338 22.0147 112.338 19.9793V11.6885H110.403V19.9296C110.403 23.0573 112.87 25.5892 115.918 25.5892C118.966 25.5892 121.482 23.0573 121.482 19.9296V11.6885H119.547V19.9793H119.499Z" fill="#152F4D" fillOpacity="0.8" />
  <path d="M152.012 11.6885H150.076V25.6388H152.012V11.6885Z" fill="#152F4D" fillOpacity="0.8" />
  <path d="M106.58 11.6883L101.355 11.6387V13.6245H104.839V20.277C104.839 23.4543 101.887 23.6032 101.307 23.6032C100.242 23.6032 99.565 23.355 98.6457 22.6103L98.0651 22.1635L96.662 23.6032L97.4361 24.199C98.6457 25.0926 99.4682 25.6387 101.355 25.6387C102.952 25.6387 104.306 25.1422 105.274 24.2486C106.29 23.3053 106.822 21.9649 106.822 20.3763V11.6883H106.58Z" fill="#152F4D" fillOpacity="0.8" />
  <path d="M85.2436 15.7099C85.2436 13.5255 83.5018 11.7383 81.3729 11.7383H77.3572H75.4219V13.7241V25.639H77.3572V20.6248V18.639V13.7241H81.3729C82.4374 13.7241 83.3083 14.6177 83.3083 15.7099C83.3083 16.8021 82.4374 17.6957 81.3729 17.6957H78.3732L79.3893 19.6815L82.4374 25.639H85.1468L81.7116 19.6319C83.6953 19.483 85.2436 17.7454 85.2436 15.7099Z" fill="#152F4D" fillOpacity="0.8" />
  <path d="M133.046 17.4964C132.175 16.9503 131.256 16.7517 130.288 16.5531C130.046 16.5035 129.852 16.4538 129.611 16.4042C128.594 16.156 127.966 15.8084 127.724 15.3616C127.53 14.9645 127.724 14.4184 128.159 14.1205C128.643 13.773 129.369 13.7233 129.998 13.9716C130.627 14.2198 131.159 14.7162 131.449 15.3616L133.481 14.5673C132.997 13.3758 132.03 12.4822 130.82 12.0354C129.514 11.5389 127.917 11.6879 126.853 12.4326C125.643 13.2765 125.111 14.9148 125.74 16.156C126.224 17.2482 127.337 17.9928 129.078 18.39C129.32 18.4397 129.562 18.4893 129.852 18.5389C130.627 18.6879 131.304 18.8368 131.836 19.1843C132.707 19.7304 133.094 20.8226 132.707 21.7659C132.32 22.7092 131.256 23.4042 130.094 23.5035C128.933 23.5531 127.578 23.007 127.046 22.1631C126.659 21.617 126.321 20.8723 126.659 19.7801L124.579 19.1843C124.143 20.5744 124.337 21.9148 125.208 23.2056C126.079 24.546 128.062 25.5389 129.949 25.5389C130.046 25.5389 130.143 25.5389 130.288 25.5389C132.32 25.4397 134.158 24.1489 134.836 22.4609C135.465 20.6737 134.739 18.5389 133.046 17.4964Z" fill="#152F4D" fillOpacity="0.8" />
  <path d="M165.027 22.1638C164.107 23.1071 162.85 23.6532 161.592 23.6532C158.931 23.6532 156.753 21.4191 156.753 18.6886C156.753 15.9581 158.931 13.7241 161.592 13.7241C162.124 13.7241 162.704 13.8234 163.188 14.022L164.107 12.2347C163.333 11.9369 162.462 11.7383 161.592 11.7383C157.866 11.7383 154.818 14.8659 154.818 18.6886C154.818 22.5113 157.866 25.639 161.592 25.639C163.43 25.639 165.124 24.8943 166.43 23.6035L167.01 23.0078L165.656 21.5184L165.027 22.1638Z" fill="#152F4D" fillOpacity="0.8" />
  <path d="M178.09 13.6743V11.6885H171.123L168.994 13.6743V23.6034L171.123 25.5892H178.09V23.6034H170.929V19.4828H174.994V17.497H170.929V13.6743H178.09Z" fill="#152F4D" fillOpacity="0.8" />
  <path d="M136.191 13.6743H140.739V25.6388H142.674V13.6743H147.27V11.6885H136.191V13.6743Z" fill="#152F4D" fillOpacity="0.8" />
  <path d="M90.1302 22.3627L93.7589 18.6393L90.1302 14.8662V22.3627Z" fill="#092A51" fillOpacity="0.6" />
</svg>