<svg width="128" height="128" viewBox="0 0 128 128" fill="none" xmlns="http://www.w3.org/2000/svg">
  <path
    d="M112.377 30.255L69.1247 4.27095C66.2683 2.57635 62.7321 2.57635 59.8758 4.27095L16.6243 30.255C13.7681 31.9494 12 35.0562 12 38.4456V90.4134C12 93.8024 13.7681 97.0506 16.6243 98.7447L59.8758 124.729C61.236 125.577 62.8682 126 64.5002 126C66.1324 126 67.6285 125.577 69.1247 124.729L112.377 98.7447C115.232 97.0506 117 93.8024 117 90.4134V38.4456C117 35.0562 115.232 31.9494 112.377 30.255ZM111.288 90.4134C111.288 91.6841 110.608 92.9549 109.52 93.5203L66.2683 119.504C65.1803 120.21 63.8202 120.21 62.7321 119.504L19.4805 93.5203C18.3926 92.8138 17.7124 91.6841 17.7124 90.4134V38.4456C17.7124 37.1745 18.3926 35.9036 19.4805 35.3388L62.7321 9.49604C63.2762 9.21357 63.8202 9.07239 64.5002 9.07239C65.0443 9.07239 65.7244 9.21357 66.2683 9.49604L109.52 35.4799C110.608 36.1859 111.288 37.3157 111.288 38.5867V90.4134Z"
    fill="#5E42CC" />
  <!-- Element 1 -->
  <path
    d="M76.8777 47.6597L91.6982 38.2144C93.4339 37.0866 93.4339 34.5491 91.6982 33.4213L76.8777 24.3989C75.1419 23.2712 73.0056 24.6809 73.0056 26.7954V45.2631C72.8722 47.3777 75.1419 48.6465 76.8777 47.6597Z"
    fill="#5E42CC">
    <animate attributeName="opacity" values="0;1;1;1;1;1;1;1" dur="2s" repeatCount="indefinite" />
  </path>
  <!-- Element 2 -->
  <path
    d="M99.9869 52.4061L84.3493 61.7338C82.5502 62.8818 82.5502 65.6083 84.3493 66.613L99.9869 75.6536C101.786 76.658 104 75.3665 104 73.214V54.8457C104 52.6932 101.786 51.2581 99.9869 52.4061Z"
    fill="#5E42CC">
    <animate attributeName="opacity" values="0;0;1;1;1;1;1;1" dur="2s" repeatCount="indefinite" />
  </path>
  <!-- Element 3 -->
  <path
    d="M91.8152 89.8441L77.0033 80.3989C75.2685 79.2712 73 80.6808 73 82.7954V101.263C73 103.378 75.135 104.647 76.8698 103.659L91.6818 94.6369C93.4165 93.5092 93.4165 90.831 91.8152 89.8441Z"
    fill="#5E42CC">
    <animate attributeName="opacity" values="0;0;0;1;1;1;1;1" dur="2s" repeatCount="indefinite" />
  </path>
  <!-- Element 4 -->
  <path
    d="M52.1223 80.4173L37.3018 89.8319C35.5661 90.9561 35.5661 93.4852 37.3018 94.6092L52.1223 103.602C53.8581 104.727 55.9944 103.322 55.9944 101.214V82.8061C56.1279 80.5578 53.8581 79.2931 52.1223 80.4173Z"
    fill="#5E42CC">
    <animate attributeName="opacity" values="0;0;0;0;1;1;1;1" dur="2s" repeatCount="indefinite" />
  </path>
  <!-- Element 5 -->
  <path
    d="M44.6508 61.7338L29.0132 52.4061C27.2142 51.2581 25 52.6932 25 54.8457V73.214C25 75.3665 27.2142 76.658 29.0132 75.6536L44.6508 66.613C46.4497 65.6083 46.4497 62.8818 44.6508 61.7338Z"
    fill="#5E42CC">
    <animate attributeName="opacity" values="0;0;0;0;0;1;1;1" dur="2s" repeatCount="indefinite" />
  </path>
  <!-- Element 6 -->
  <path
    d="M37.1849 38.1557L51.9967 47.6011C53.7315 48.7289 56 47.3191 56 45.2044V26.7368C56 24.6222 53.8649 23.3535 52.1302 24.3403L37.3182 33.3626C35.5835 34.4905 35.5835 37.028 37.1849 38.1557Z"
    fill="#5E42CC">
    <animate attributeName="opacity" values="0;0;0;0;0;0;1;1" dur="2s" repeatCount="indefinite" />
  </path>
  <!-- Element 7 -->
  <path
    d="M93.0568 78.6774L68.2682 63.7177L93.0568 48.617C93.8608 48.0525 94.1288 46.9234 93.7268 46.0766C93.1909 45.2298 92.1188 44.9475 91.315 45.3709L66.5262 60.4718V30.8347C66.5262 29.8468 65.7224 29 64.7844 29C63.8464 29 63.0426 29.8468 63.0426 30.8347V60.4718L38.656 45.6532C37.8519 45.0887 36.78 45.5121 36.244 46.3588C35.7081 47.2056 36.1101 48.3347 36.914 48.8991L61.3007 63.7177L36.914 78.5363C36.1101 79.1006 35.842 80.2297 36.244 81.0765C36.512 81.641 37.182 82.0644 37.718 82.0644C37.9859 82.0644 38.388 81.9233 38.656 81.7822L63.0426 66.9636V97.1649C63.0426 98.153 63.8464 99 64.7844 99C65.7224 99 66.5262 98.153 66.5262 97.1649V66.9636L91.315 82.0644C91.583 82.2055 91.8509 82.3467 92.2529 82.3467C92.9228 82.3467 93.4589 82.0644 93.7268 81.3588C94.2628 80.3708 93.9948 79.2418 93.0568 78.6774Z"
    fill="#5E42CC">
    <animate attributeName="opacity" values="0;1;1;1;1" dur="2s" repeatCount="indefinite" />
  </path>
</svg>