<svg width="24" height="24" viewBox="0 0 24 24" fill="none" xmlns="http://www.w3.org/2000/svg">
<mask id="path-1-outside-1_10842_113339" maskUnits="userSpaceOnUse" x="0.0644531" y="0.05896" width="24" height="24" fill="black">
<rect fill="white" x="0.0644531" y="0.05896" width="24" height="24"/>
<path d="M22.2773 2.17402C22.1631 2.03754 21.9599 2.01954 21.8234 2.13376C21.687 2.24799 21.669 2.45119 21.7832 2.58763C22.1525 3.02878 22.3558 3.58923 22.3558 4.16579V6.49678C22.3558 7.85456 21.251 8.95922 19.893 8.95922H16.2526C16.1597 8.95922 16.0713 8.9993 16.0102 9.06919L14.2673 11.0604C14.0898 11.2632 13.85 11.2691 13.6846 11.2069C13.5192 11.1448 13.3425 10.9824 13.3425 10.7128V9.28141C13.3425 9.10348 13.1983 8.95922 13.0203 8.95922H12.6483C11.2905 8.95922 10.1858 7.85456 10.1858 6.49678V4.16579C10.1858 2.80801 11.2905 1.70335 12.6483 1.70335H19.893C20.233 1.70335 20.5624 1.77136 20.8721 1.90539C21.0354 1.9761 21.225 1.90097 21.2957 1.73772C21.3664 1.57443 21.2913 1.38472 21.1281 1.31405C20.7371 1.14479 20.3215 1.05896 19.893 1.05896H12.6483C10.9352 1.05896 9.54149 2.4527 9.54149 4.16579V6.49678C9.54149 7.12888 9.73171 7.71717 10.0572 8.20837H6.29697V6.47298C7.06732 6.32228 7.65054 5.64244 7.65054 4.82862C7.65054 3.9046 6.89879 3.15285 5.97477 3.15285C5.05075 3.15285 4.29901 3.90456 4.29901 4.82857C4.29901 5.6424 4.88222 6.32228 5.65257 6.47294V8.2192C3.09468 8.38571 1.06445 10.5192 1.06445 13.1182V16.8697C1.06445 18.7743 2.15455 20.4292 3.74354 21.2431C3.13446 21.5538 2.59476 21.9891 2.15764 22.5285C2.04561 22.6667 2.06683 22.8696 2.20507 22.9817C2.26479 23.0301 2.33653 23.0536 2.40775 23.0536C2.50162 23.0536 2.59463 23.0128 2.65825 22.9342C3.16668 22.3069 3.83397 21.8411 4.59238 21.5815C5.03108 21.7104 5.49491 21.7799 5.97477 21.7799H13.7527C14.2326 21.7799 14.6964 21.7104 15.1351 21.5815C15.8935 21.8411 16.5609 22.3069 17.0692 22.9342C17.1329 23.0128 17.2259 23.0536 17.3197 23.0536C17.391 23.0536 17.4627 23.03 17.5224 22.9817C17.6607 22.8696 17.6819 22.6667 17.5699 22.5285C17.1327 21.9891 16.593 21.5538 15.984 21.2431C17.573 20.4292 18.663 18.7743 18.663 16.8697V13.1182C18.663 11.7777 18.1218 10.5187 17.1819 9.60361H19.8931C21.6064 9.60361 23.0003 8.20988 23.0003 6.49678V4.16579C23.0002 3.43827 22.7435 2.7309 22.2773 2.17402V2.17402ZM4.9434 4.82857C4.9434 4.25987 5.40607 3.7972 5.97477 3.7972C6.54347 3.7972 7.00614 4.25987 7.00614 4.82857C7.00614 5.39727 6.54347 5.85995 5.97477 5.85995C5.40607 5.85995 4.9434 5.39727 4.9434 4.82857ZM18.0186 13.1182V16.8697C18.0186 19.2219 16.1049 21.1356 13.7527 21.1356H5.97477C3.62252 21.1356 1.70885 19.2219 1.70885 16.8697V13.1182C1.70885 10.7662 3.62252 8.85272 5.97477 8.85272H10.6264C11.1703 9.32012 11.8766 9.60361 12.6483 9.60361H12.6982V10.0607H6.82687C5.06115 10.0607 3.62467 11.4972 3.62467 13.2629V14.8013C3.62467 15.0863 3.66213 15.3688 3.73602 15.6409C3.77499 15.7844 3.90494 15.8788 4.04675 15.8788C4.07467 15.8788 4.10311 15.8751 4.13138 15.8675C4.30313 15.8208 4.40451 15.6438 4.3579 15.4721C4.29892 15.255 4.26906 15.0293 4.26906 14.8013V13.2629C4.26906 11.8525 5.41651 10.7051 6.82687 10.7051H12.6982V10.7128C12.6982 11.206 12.9964 11.6368 13.458 11.8102C13.5948 11.8616 13.7356 11.8865 13.8746 11.8865C14.2012 11.8865 14.5173 11.7485 14.7453 11.4923C15.2014 11.9663 15.4583 12.5961 15.4583 13.2629V14.8013C15.4583 16.2117 14.3106 17.3591 12.9 17.3591H6.82683C6.07646 17.3591 5.36646 17.0313 4.87887 16.4597C4.7634 16.3243 4.56007 16.3081 4.42466 16.4236C4.2893 16.5391 4.27314 16.7425 4.38862 16.8778C4.99882 17.5932 5.88752 18.0035 6.82683 18.0035H12.9C14.6659 18.0035 16.1027 16.567 16.1027 14.8013V13.2629C16.1027 12.4092 15.7667 11.6035 15.1713 11.0059L16.3105 9.70444C17.3849 10.5089 18.0186 11.766 18.0186 13.1182V13.1182Z"/>
</mask>
<path d="M22.2773 2.17402C22.1631 2.03754 21.9599 2.01954 21.8234 2.13376C21.687 2.24799 21.669 2.45119 21.7832 2.58763C22.1525 3.02878 22.3558 3.58923 22.3558 4.16579V6.49678C22.3558 7.85456 21.251 8.95922 19.893 8.95922H16.2526C16.1597 8.95922 16.0713 8.9993 16.0102 9.06919L14.2673 11.0604C14.0898 11.2632 13.85 11.2691 13.6846 11.2069C13.5192 11.1448 13.3425 10.9824 13.3425 10.7128V9.28141C13.3425 9.10348 13.1983 8.95922 13.0203 8.95922H12.6483C11.2905 8.95922 10.1858 7.85456 10.1858 6.49678V4.16579C10.1858 2.80801 11.2905 1.70335 12.6483 1.70335H19.893C20.233 1.70335 20.5624 1.77136 20.8721 1.90539C21.0354 1.9761 21.225 1.90097 21.2957 1.73772C21.3664 1.57443 21.2913 1.38472 21.1281 1.31405C20.7371 1.14479 20.3215 1.05896 19.893 1.05896H12.6483C10.9352 1.05896 9.54149 2.4527 9.54149 4.16579V6.49678C9.54149 7.12888 9.73171 7.71717 10.0572 8.20837H6.29697V6.47298C7.06732 6.32228 7.65054 5.64244 7.65054 4.82862C7.65054 3.9046 6.89879 3.15285 5.97477 3.15285C5.05075 3.15285 4.29901 3.90456 4.29901 4.82857C4.29901 5.6424 4.88222 6.32228 5.65257 6.47294V8.2192C3.09468 8.38571 1.06445 10.5192 1.06445 13.1182V16.8697C1.06445 18.7743 2.15455 20.4292 3.74354 21.2431C3.13446 21.5538 2.59476 21.9891 2.15764 22.5285C2.04561 22.6667 2.06683 22.8696 2.20507 22.9817C2.26479 23.0301 2.33653 23.0536 2.40775 23.0536C2.50162 23.0536 2.59463 23.0128 2.65825 22.9342C3.16668 22.3069 3.83397 21.8411 4.59238 21.5815C5.03108 21.7104 5.49491 21.7799 5.97477 21.7799H13.7527C14.2326 21.7799 14.6964 21.7104 15.1351 21.5815C15.8935 21.8411 16.5609 22.3069 17.0692 22.9342C17.1329 23.0128 17.2259 23.0536 17.3197 23.0536C17.391 23.0536 17.4627 23.03 17.5224 22.9817C17.6607 22.8696 17.6819 22.6667 17.5699 22.5285C17.1327 21.9891 16.593 21.5538 15.984 21.2431C17.573 20.4292 18.663 18.7743 18.663 16.8697V13.1182C18.663 11.7777 18.1218 10.5187 17.1819 9.60361H19.8931C21.6064 9.60361 23.0003 8.20988 23.0003 6.49678V4.16579C23.0002 3.43827 22.7435 2.7309 22.2773 2.17402V2.17402ZM4.9434 4.82857C4.9434 4.25987 5.40607 3.7972 5.97477 3.7972C6.54347 3.7972 7.00614 4.25987 7.00614 4.82857C7.00614 5.39727 6.54347 5.85995 5.97477 5.85995C5.40607 5.85995 4.9434 5.39727 4.9434 4.82857ZM18.0186 13.1182V16.8697C18.0186 19.2219 16.1049 21.1356 13.7527 21.1356H5.97477C3.62252 21.1356 1.70885 19.2219 1.70885 16.8697V13.1182C1.70885 10.7662 3.62252 8.85272 5.97477 8.85272H10.6264C11.1703 9.32012 11.8766 9.60361 12.6483 9.60361H12.6982V10.0607H6.82687C5.06115 10.0607 3.62467 11.4972 3.62467 13.2629V14.8013C3.62467 15.0863 3.66213 15.3688 3.73602 15.6409C3.77499 15.7844 3.90494 15.8788 4.04675 15.8788C4.07467 15.8788 4.10311 15.8751 4.13138 15.8675C4.30313 15.8208 4.40451 15.6438 4.3579 15.4721C4.29892 15.255 4.26906 15.0293 4.26906 14.8013V13.2629C4.26906 11.8525 5.41651 10.7051 6.82687 10.7051H12.6982V10.7128C12.6982 11.206 12.9964 11.6368 13.458 11.8102C13.5948 11.8616 13.7356 11.8865 13.8746 11.8865C14.2012 11.8865 14.5173 11.7485 14.7453 11.4923C15.2014 11.9663 15.4583 12.5961 15.4583 13.2629V14.8013C15.4583 16.2117 14.3106 17.3591 12.9 17.3591H6.82683C6.07646 17.3591 5.36646 17.0313 4.87887 16.4597C4.7634 16.3243 4.56007 16.3081 4.42466 16.4236C4.2893 16.5391 4.27314 16.7425 4.38862 16.8778C4.99882 17.5932 5.88752 18.0035 6.82683 18.0035H12.9C14.6659 18.0035 16.1027 16.567 16.1027 14.8013V13.2629C16.1027 12.4092 15.7667 11.6035 15.1713 11.0059L16.3105 9.70444C17.3849 10.5089 18.0186 11.766 18.0186 13.1182V13.1182Z" fill="#5E42CC"/>
<path d="M22.2773 2.17402C22.1631 2.03754 21.9599 2.01954 21.8234 2.13376C21.687 2.24799 21.669 2.45119 21.7832 2.58763C22.1525 3.02878 22.3558 3.58923 22.3558 4.16579V6.49678C22.3558 7.85456 21.251 8.95922 19.893 8.95922H16.2526C16.1597 8.95922 16.0713 8.9993 16.0102 9.06919L14.2673 11.0604C14.0898 11.2632 13.85 11.2691 13.6846 11.2069C13.5192 11.1448 13.3425 10.9824 13.3425 10.7128V9.28141C13.3425 9.10348 13.1983 8.95922 13.0203 8.95922H12.6483C11.2905 8.95922 10.1858 7.85456 10.1858 6.49678V4.16579C10.1858 2.80801 11.2905 1.70335 12.6483 1.70335H19.893C20.233 1.70335 20.5624 1.77136 20.8721 1.90539C21.0354 1.9761 21.225 1.90097 21.2957 1.73772C21.3664 1.57443 21.2913 1.38472 21.1281 1.31405C20.7371 1.14479 20.3215 1.05896 19.893 1.05896H12.6483C10.9352 1.05896 9.54149 2.4527 9.54149 4.16579V6.49678C9.54149 7.12888 9.73171 7.71717 10.0572 8.20837H6.29697V6.47298C7.06732 6.32228 7.65054 5.64244 7.65054 4.82862C7.65054 3.9046 6.89879 3.15285 5.97477 3.15285C5.05075 3.15285 4.29901 3.90456 4.29901 4.82857C4.29901 5.6424 4.88222 6.32228 5.65257 6.47294V8.2192C3.09468 8.38571 1.06445 10.5192 1.06445 13.1182V16.8697C1.06445 18.7743 2.15455 20.4292 3.74354 21.2431C3.13446 21.5538 2.59476 21.9891 2.15764 22.5285C2.04561 22.6667 2.06683 22.8696 2.20507 22.9817C2.26479 23.0301 2.33653 23.0536 2.40775 23.0536C2.50162 23.0536 2.59463 23.0128 2.65825 22.9342C3.16668 22.3069 3.83397 21.8411 4.59238 21.5815C5.03108 21.7104 5.49491 21.7799 5.97477 21.7799H13.7527C14.2326 21.7799 14.6964 21.7104 15.1351 21.5815C15.8935 21.8411 16.5609 22.3069 17.0692 22.9342C17.1329 23.0128 17.2259 23.0536 17.3197 23.0536C17.391 23.0536 17.4627 23.03 17.5224 22.9817C17.6607 22.8696 17.6819 22.6667 17.5699 22.5285C17.1327 21.9891 16.593 21.5538 15.984 21.2431C17.573 20.4292 18.663 18.7743 18.663 16.8697V13.1182C18.663 11.7777 18.1218 10.5187 17.1819 9.60361H19.8931C21.6064 9.60361 23.0003 8.20988 23.0003 6.49678V4.16579C23.0002 3.43827 22.7435 2.7309 22.2773 2.17402V2.17402ZM4.9434 4.82857C4.9434 4.25987 5.40607 3.7972 5.97477 3.7972C6.54347 3.7972 7.00614 4.25987 7.00614 4.82857C7.00614 5.39727 6.54347 5.85995 5.97477 5.85995C5.40607 5.85995 4.9434 5.39727 4.9434 4.82857ZM18.0186 13.1182V16.8697C18.0186 19.2219 16.1049 21.1356 13.7527 21.1356H5.97477C3.62252 21.1356 1.70885 19.2219 1.70885 16.8697V13.1182C1.70885 10.7662 3.62252 8.85272 5.97477 8.85272H10.6264C11.1703 9.32012 11.8766 9.60361 12.6483 9.60361H12.6982V10.0607H6.82687C5.06115 10.0607 3.62467 11.4972 3.62467 13.2629V14.8013C3.62467 15.0863 3.66213 15.3688 3.73602 15.6409C3.77499 15.7844 3.90494 15.8788 4.04675 15.8788C4.07467 15.8788 4.10311 15.8751 4.13138 15.8675C4.30313 15.8208 4.40451 15.6438 4.3579 15.4721C4.29892 15.255 4.26906 15.0293 4.26906 14.8013V13.2629C4.26906 11.8525 5.41651 10.7051 6.82687 10.7051H12.6982V10.7128C12.6982 11.206 12.9964 11.6368 13.458 11.8102C13.5948 11.8616 13.7356 11.8865 13.8746 11.8865C14.2012 11.8865 14.5173 11.7485 14.7453 11.4923C15.2014 11.9663 15.4583 12.5961 15.4583 13.2629V14.8013C15.4583 16.2117 14.3106 17.3591 12.9 17.3591H6.82683C6.07646 17.3591 5.36646 17.0313 4.87887 16.4597C4.7634 16.3243 4.56007 16.3081 4.42466 16.4236C4.2893 16.5391 4.27314 16.7425 4.38862 16.8778C4.99882 17.5932 5.88752 18.0035 6.82683 18.0035H12.9C14.6659 18.0035 16.1027 16.567 16.1027 14.8013V13.2629C16.1027 12.4092 15.7667 11.6035 15.1713 11.0059L16.3105 9.70444C17.3849 10.5089 18.0186 11.766 18.0186 13.1182V13.1182Z" stroke="#5E42CC" stroke-width="0.4" mask="url(#path-1-outside-1_10842_113339)"/>
<path d="M7.11229 15.3664C7.99987 15.3664 8.7219 14.6444 8.7219 13.7569C8.7219 12.8693 7.99987 12.1473 7.11229 12.1473C6.22471 12.1473 5.50273 12.8693 5.50273 13.7569C5.50273 14.6444 6.22476 15.3664 7.11229 15.3664ZM7.11229 12.8917C7.58933 12.8917 7.97751 13.2798 7.97751 13.7569C7.97751 14.2339 7.58933 14.622 7.11229 14.622C6.63531 14.622 6.24713 14.2339 6.24713 13.7569C6.24713 13.2798 6.63531 12.8917 7.11229 12.8917Z" fill="#5E42CC" stroke="#5E42CC" stroke-width="0.1"/>
<path d="M13.4795 13.7569C13.4795 13.2798 13.0913 12.8917 12.6143 12.8917C12.1373 12.8917 11.7491 13.2798 11.7491 13.7569H13.4795ZM13.4795 13.7569C13.4795 14.2339 13.0913 14.622 12.6143 14.622M13.4795 13.7569L12.6143 14.622M12.6143 14.622C12.1373 14.622 11.7491 14.2339 11.7491 13.7569L12.6143 14.622ZM11.0047 13.7569V13.7569C11.0047 14.6444 11.7268 15.3664 12.6143 15.3664C13.5019 15.3664 14.2238 14.6444 14.2238 13.7569C14.2238 12.8693 13.5019 12.1473 12.6143 12.1473C11.7267 12.1473 11.0047 12.8693 11.0047 13.7569Z" fill="#5E42CC" stroke="#5E42CC" stroke-width="0.1"/>
<path d="M11.0593 15.6802H8.6679C8.4623 15.6802 8.2957 15.8469 8.2957 16.0524C8.2957 16.258 8.4623 16.4246 8.6679 16.4246H11.0593C11.2649 16.4246 11.4315 16.258 11.4315 16.0524C11.4315 15.8469 11.2649 15.6802 11.0593 15.6802Z" fill="#5E42CC" stroke="#5E42CC" stroke-width="0.1"/>
<path d="M20.5844 4.52373C20.5844 4.31819 20.4178 4.15154 20.2122 4.15154H12.2851C12.0795 4.15154 11.9129 4.31819 11.9129 4.52373C11.9129 4.72928 12.0795 4.89593 12.2851 4.89593H20.2122C20.4178 4.89593 20.5844 4.72929 20.5844 4.52373Z" fill="#5E42CC" stroke="#5E42CC" stroke-width="0.1"/>
<path d="M12.2851 5.85796C12.0795 5.85796 11.9129 6.02461 11.9129 6.23015C11.9129 6.4357 12.0795 6.60235 12.2851 6.60235H17.6881C17.8937 6.60235 18.0603 6.4357 18.0603 6.23015C18.0603 6.02461 17.8937 5.85796 17.6881 5.85796H12.2851Z" fill="#5E42CC" stroke="#5E42CC" stroke-width="0.1"/>
</svg>
