<svg width="22" height="22" viewBox="0 0 22 22" fill="none" xmlns="http://www.w3.org/2000/svg">
<path d="M14.7407 18.2801C15.406 18.2801 15.8767 18.1286 16.1527 17.8257C16.4334 17.5228 16.5737 17.1733 16.5737 16.7773C16.5737 16.3066 16.4379 15.9035 16.1663 15.568C15.8993 15.2325 15.501 14.9762 14.9715 14.7992C14.4465 14.6221 13.7925 14.5336 13.0095 14.5336C12.8104 14.5336 12.6406 14.5382 12.5003 14.5475C12.3646 14.5522 12.2469 14.5615 12.1473 14.5755C12.0477 14.5848 11.9572 14.5941 11.8758 14.6034L11.4141 13.4292C11.0973 12.6323 10.7194 11.9986 10.2804 11.528C9.84589 11.0527 9.37293 10.7125 8.86151 10.5075C8.3546 10.2978 7.83186 10.1929 7.29328 10.1929C7.16655 10.1929 7.03078 10.1976 6.88595 10.2069C6.74112 10.2116 6.60081 10.2302 6.46504 10.2628C6.3021 10.3001 6.18443 10.3607 6.11202 10.4445C6.0396 10.5284 6.00339 10.6263 6.00339 10.7381C6.00339 10.8733 6.04865 10.9828 6.13917 11.0666C6.22969 11.1505 6.3451 11.1925 6.4854 11.1925C6.62118 11.1878 6.74564 11.1785 6.85879 11.1645C6.97194 11.1505 7.10545 11.1435 7.25933 11.1435C7.73908 11.1435 8.17583 11.2414 8.56959 11.4371C8.96787 11.6281 9.33446 11.9427 9.66938 12.3807C10.0088 12.8141 10.3302 13.3872 10.6334 14.1002L11.2648 15.624C11.5182 15.5727 11.7762 15.5284 12.0387 15.4911C12.3057 15.4539 12.6316 15.4352 13.0163 15.4352C13.4508 15.4352 13.8581 15.4795 14.2383 15.568C14.623 15.6519 14.9353 15.7847 15.1752 15.9664C15.415 16.1482 15.535 16.3858 15.535 16.6794C15.535 16.8425 15.4648 16.9776 15.3245 17.0848C15.1887 17.192 14.9941 17.2456 14.7407 17.2456C14.4239 17.2456 14.1365 17.2176 13.8785 17.1617C13.625 17.1058 13.358 17.0778 13.0774 17.0778C12.8149 17.0778 12.5773 17.0895 12.3646 17.1128C12.1564 17.1361 11.9708 17.157 11.8079 17.1757C11.6495 17.1943 11.5137 17.2036 11.4005 17.2036C11.2557 17.2036 11.1064 17.185 10.9525 17.1477C10.8031 17.1151 10.6515 17.0336 10.4976 16.9031L7.61914 14.3378C6.58724 14.3844 5.70242 14.2679 4.9647 13.9884C4.22697 13.7041 3.64087 13.2428 3.20638 12.6044C2.88504 12.6417 2.61801 12.5997 2.4053 12.4786C2.1971 12.3527 2.09301 12.1594 2.09301 11.8984C2.09301 11.6514 2.19484 11.4534 2.39851 11.3043C2.60217 11.1505 2.87599 11.0829 3.21996 11.1016C3.55035 9.9972 4.05952 9.18173 4.74745 8.65517C5.43539 8.12395 6.2659 7.85834 7.23897 7.85834C7.76397 7.85834 8.28445 7.95154 8.80041 8.13793C9.31636 8.31966 9.821 8.55266 10.3143 8.83691C10.8076 9.1165 11.2829 9.40541 11.74 9.70363C12.1971 9.9972 12.6293 10.2628 13.0367 10.5005C13.263 10.6309 13.4915 10.7241 13.7223 10.7801C13.9532 10.836 14.15 10.8639 14.313 10.8639C14.6886 10.8639 15.0213 10.7428 15.3109 10.5005C15.6051 10.2582 15.8654 9.89935 16.0916 9.42404L11.8486 6.67008C11.6993 6.58155 11.5454 6.4767 11.387 6.35555C11.2286 6.23439 11.0928 6.12022 10.9796 6.01305C10.8665 5.90121 10.8099 5.815 10.8099 5.75443C10.8099 5.62395 10.8891 5.50979 11.0475 5.41193C11.2059 5.31407 11.3983 5.23719 11.6246 5.18127C11.8509 5.12535 12.0704 5.09739 12.2831 5.09739C12.7809 5.09739 13.2426 5.23719 13.668 5.51678C14.0935 5.79637 14.4963 6.17381 14.8764 6.64911L16.8859 9.10252C17.3385 9.08854 17.7572 9.15843 18.1419 9.31221C18.5266 9.46598 18.8615 9.68733 19.1466 9.97623C19.4318 10.2651 19.6535 10.6053 19.8119 10.9967C19.9704 11.3835 20.0496 11.8052 20.0496 12.2619C20.0496 12.8304 19.907 13.2195 19.6219 13.4292C19.3367 13.6389 18.8615 13.7437 18.1962 13.7437C17.7753 13.7437 17.3408 13.6668 16.8927 13.513C16.4492 13.3546 16.0215 13.1449 15.6096 12.884C15.2023 12.9911 14.7905 13.1309 14.3741 13.3034C13.9622 13.4758 13.5639 13.6761 13.1792 13.9045C12.799 14.1281 12.4438 14.3728 12.1134 14.6384L12.9145 15.0718C13.3897 14.7875 13.8536 14.5405 14.3062 14.3308C14.7633 14.1212 15.1435 13.9581 15.4467 13.8416C15.7047 14.014 15.9921 14.1631 16.3089 14.2889C16.6257 14.4147 16.9448 14.5103 17.2661 14.5755C17.5875 14.6407 17.8862 14.6733 18.1623 14.6733C18.7506 14.664 19.2575 14.5871 19.683 14.4427C20.1084 14.2936 20.4343 14.0443 20.6606 13.6948C20.8869 13.3406 21 12.8607 21 12.2549C21 11.6864 20.9027 11.1622 20.7081 10.6822C20.518 10.1976 20.2555 9.77586 19.9206 9.41705C19.5902 9.05825 19.2032 8.77866 18.7597 8.57829C18.3207 8.37325 17.8522 8.26608 17.3544 8.25676L15.9762 6.29963C15.4467 5.56337 14.8832 4.9972 14.2858 4.60112C13.6884 4.20037 13.0163 4 12.2695 4C11.9799 4 11.6789 4.03961 11.3666 4.11883C11.0543 4.19338 10.7624 4.30289 10.4908 4.44734C10.2193 4.5918 9.99977 4.76188 9.83231 4.9576C9.66486 5.15331 9.58113 5.37232 9.58113 5.61463C9.58113 5.86626 9.65807 6.09692 9.81195 6.30662C9.96583 6.51631 10.1672 6.71435 10.4162 6.90075C10.6696 7.08714 10.9344 7.27353 11.2105 7.45993C11.4413 7.60904 11.697 7.77213 11.9776 7.94921C12.2582 8.12162 12.5501 8.30103 12.8534 8.48742C13.1611 8.67381 13.4689 8.8602 13.7766 9.0466C14.0844 9.23299 14.3809 9.41472 14.666 9.5918C14.589 9.65704 14.5189 9.70596 14.4555 9.73858C14.3922 9.7712 14.322 9.78751 14.2451 9.78751C14.141 9.78751 14.0165 9.75955 13.8717 9.70363C13.7269 9.64772 13.5685 9.5685 13.3965 9.46598C12.7583 9.0932 12.1722 8.74371 11.6382 8.41752C11.1041 8.09133 10.5995 7.80242 10.1242 7.55079C9.64902 7.29916 9.17832 7.10112 8.71215 6.95666C8.24598 6.81221 7.76171 6.73998 7.25933 6.73998C6.07355 6.73998 5.062 7.05219 4.22471 7.67661C3.39194 8.29637 2.77189 9.21202 2.36456 10.4236C1.95723 10.5075 1.62684 10.6822 1.37339 10.9478C1.12446 11.2134 1 11.5559 1 11.9753C1 12.3248 1.0792 12.616 1.23761 12.849C1.39602 13.082 1.60195 13.2614 1.8554 13.3872C2.10885 13.513 2.37814 13.5829 2.66327 13.5969C2.87146 13.9464 3.19054 14.2656 3.6205 14.5545C4.05046 14.8434 4.56642 15.0648 5.16836 15.2185C5.77031 15.3723 6.43109 15.4166 7.15071 15.3514L9.92057 17.7628C10.1107 17.9352 10.3189 18.0634 10.5451 18.1473C10.776 18.2311 11.0543 18.2731 11.3802 18.2731C11.6517 18.2731 11.9142 18.2428 12.1677 18.1822C12.4211 18.1263 12.7334 18.0983 13.1045 18.0983C13.453 18.0983 13.7404 18.1286 13.9667 18.1892C14.1976 18.2498 14.4555 18.2801 14.7407 18.2801ZM6.79769 19C7.25481 19 7.69608 18.9534 8.12152 18.8602C8.54696 18.7717 8.9475 18.6179 9.32315 18.3989C9.70333 18.1845 10.0496 17.8956 10.3618 17.5322L9.54039 16.938C9.35483 17.1803 9.12401 17.383 8.84793 17.5461C8.57185 17.7139 8.2573 17.8397 7.90428 17.9236C7.55578 18.0075 7.18013 18.0494 6.77733 18.0494C6.33379 18.0494 5.97624 17.9725 5.70468 17.8187C5.43766 17.665 5.30414 17.4576 5.30414 17.1966C5.30414 17.0708 5.34714 16.9637 5.43313 16.8751C5.52365 16.7866 5.65943 16.7423 5.84046 16.7423C6.02602 16.7423 6.21838 16.761 6.41752 16.7982C6.62118 16.8355 6.83842 16.8541 7.06925 16.8541C7.4449 16.8541 7.76624 16.8169 8.03327 16.7423C8.30482 16.6724 8.56506 16.5116 8.81398 16.26L8.09437 15.582C7.92691 15.7404 7.77303 15.843 7.63272 15.8896C7.49694 15.9362 7.34985 15.9595 7.19145 15.9595C6.96515 15.9595 6.74564 15.9362 6.53293 15.8896C6.32021 15.843 6.09165 15.8197 5.84725 15.8197C5.39013 15.8197 5.01675 15.9455 4.72709 16.1971C4.44196 16.4487 4.29939 16.7819 4.29939 17.1966C4.29939 17.7698 4.52795 18.2125 4.98506 18.5247C5.44218 18.8416 6.04639 19 6.79769 19ZM17.7549 11.8425C17.9179 11.8425 18.0559 11.7842 18.169 11.6678C18.2822 11.5466 18.3388 11.4045 18.3388 11.2414C18.3388 11.0783 18.2822 10.9362 18.169 10.815C18.0559 10.6938 17.9179 10.6333 17.7549 10.6333C17.5965 10.6333 17.4585 10.6938 17.3408 10.815C17.2277 10.9362 17.1711 11.0783 17.1711 11.2414C17.1711 11.4045 17.2277 11.5466 17.3408 11.6678C17.4585 11.7842 17.5965 11.8425 17.7549 11.8425Z" fill="#5E42CC"/>
</svg>
