<svg width="22" height="22" viewBox="0 0 22 22" fill="none" xmlns="http://www.w3.org/2000/svg">
<path d="M5.58006 17.4406V17.3406H5.48006H4.68606C3.83746 17.3406 3.19459 17.1132 2.76382 16.6894C2.33331 16.2659 2.1 15.6319 2.1 14.7884V7.60863C2.1 6.76216 2.34526 6.12577 2.78241 5.70062C3.22002 5.27503 3.86349 5.04791 4.68606 5.04791H5.34491H5.44491V4.94791V4.50868C5.44491 3.67223 5.66416 3.07509 6.06398 2.68618C6.46431 2.29678 7.0622 2.1 7.85359 2.1H14.6954C15.5129 2.1 16.1123 2.29714 16.5079 2.68583C16.9032 3.0742 17.1126 3.67097 17.1126 4.50868V4.94791V5.04791H17.2126H17.8714C18.7157 5.04791 19.3564 5.27531 19.7861 5.70005C20.2157 6.1246 20.449 6.76076 20.449 7.60863V14.7884C20.449 15.6319 20.2157 16.2659 19.7862 16.6895C19.3564 17.1132 18.7157 17.3406 17.8714 17.3406H17.069H16.969V17.4406V18.0826C16.969 18.7318 16.8159 19.1801 16.5247 19.4674C16.2332 19.755 15.7845 19.9 15.1516 19.9H7.40591C6.77297 19.9 6.32202 19.755 6.02835 19.4672C5.73508 19.1797 5.58006 18.7314 5.58006 18.0826V17.4406ZM15.4472 5.04791H15.5472V4.94791V4.36509C15.5472 4.09544 15.4774 3.87376 15.3236 3.72C15.1699 3.56624 14.9482 3.49643 14.6786 3.49643H7.87893C7.60929 3.49643 7.38592 3.56622 7.2302 3.71943C7.07419 3.87291 7.00183 4.09461 7.00183 4.36509V4.94791V5.04791H7.10183H15.4472ZM5.48006 15.8428H5.58006V15.7428V12.0854C5.58006 11.442 5.74083 10.9932 6.03762 10.7042C6.33492 10.4147 6.78648 10.268 7.40591 10.268H15.1516C15.7842 10.268 16.2329 10.4149 16.5246 10.7036C16.816 10.9922 16.969 11.4406 16.969 12.0854V15.7428V15.8428H17.069H17.8545C18.167 15.8428 18.4222 15.7601 18.5989 15.5834C18.7756 15.4067 18.8583 15.1515 18.8583 14.839V7.55795C18.8583 7.24551 18.7756 6.98856 18.5994 6.80988C18.4229 6.63098 18.1677 6.54571 17.8545 6.54571H4.70296C4.38982 6.54571 4.13284 6.63095 3.95439 6.80939C3.77595 6.98784 3.69071 7.24482 3.69071 7.55795V14.839C3.69071 15.1522 3.77598 15.4074 3.95488 15.5839C4.13356 15.7601 4.39051 15.8428 4.70296 15.8428H5.48006ZM15.9962 9.39225L15.9948 9.39227C15.4512 9.39992 15.0066 8.96378 15.0066 8.41107C15.0066 7.88398 15.4597 7.42989 15.9962 7.42989C16.5328 7.42989 16.9859 7.88398 16.9859 8.41107C16.9859 8.96199 16.5343 9.39226 15.9962 9.39225ZM7.05251 17.8883C7.05251 18.0727 7.09868 18.2275 7.2079 18.3354C7.31688 18.443 7.47139 18.4867 7.65087 18.4867H14.9066C15.0861 18.4867 15.2392 18.4429 15.3463 18.3344C15.4531 18.2262 15.4965 18.0714 15.4965 17.8883V12.2797C15.4965 12.1002 15.4528 11.9475 15.3458 11.8405C15.2388 11.7335 15.0861 11.6898 14.9066 11.6898H7.65087C7.47138 11.6898 7.31722 11.7335 7.20836 11.8396C7.09902 11.9461 7.05251 12.0989 7.05251 12.2797V17.8883ZM13.7579 14.2914H8.81652C8.51788 14.2914 8.29991 14.0667 8.29991 13.7748C8.29991 13.5033 8.5142 13.2835 8.81652 13.2835H13.7579C14.0508 13.2835 14.266 13.5024 14.266 13.7748C14.266 14.0677 14.0471 14.2914 13.7579 14.2914ZM13.7579 16.9099H8.81652C8.5142 16.9099 8.29991 16.69 8.29991 16.4186C8.29991 16.1266 8.51788 15.902 8.81652 15.902H13.7579C14.0471 15.902 14.266 16.1257 14.266 16.4186C14.266 16.6909 14.0508 16.9099 13.7579 16.9099Z" fill="#5E42CC" stroke="#5E42CC" stroke-width="0.2"/>
</svg>
