<svg width="22" height="22" viewBox="0 0 22 22" fill="none" xmlns="http://www.w3.org/2000/svg">
<path d="M16.8877 9.89673C18.2827 9.70073 19.3567 8.50473 19.3597 7.05573C19.3597 5.62773 18.3187 4.44373 16.9537 4.21973" stroke="#5E42CC" stroke-width="1.5" stroke-linecap="round" stroke-linejoin="round"/>
<path d="M18.7285 13.2502C20.0795 13.4522 21.0225 13.9252 21.0225 14.9002C21.0225 15.5712 20.5785 16.0072 19.8605 16.2812" stroke="#5E42CC" stroke-width="1.5" stroke-linecap="round" stroke-linejoin="round"/>
<path fill-rule="evenodd" clip-rule="evenodd" d="M10.8867 13.6638C7.67273 13.6638 4.92773 14.1508 4.92773 16.0958C4.92773 18.0398 7.65573 18.5408 10.8867 18.5408C14.1007 18.5408 16.8447 18.0588 16.8447 16.1128C16.8447 14.1668 14.1177 13.6638 10.8867 13.6638Z" stroke="#5E42CC" stroke-width="1.5" stroke-linecap="round" stroke-linejoin="round"/>
<path fill-rule="evenodd" clip-rule="evenodd" d="M10.8869 10.8879C12.9959 10.8879 14.7059 9.17888 14.7059 7.06888C14.7059 4.95988 12.9959 3.24988 10.8869 3.24988C8.7779 3.24988 7.0679 4.95988 7.0679 7.06888C7.0599 9.17088 8.7569 10.8809 10.8589 10.8879H10.8869Z" stroke="#5E42CC" stroke-width="1.5" stroke-linecap="round" stroke-linejoin="round"/>
<path d="M4.88509 9.89673C3.48909 9.70073 2.41609 8.50473 2.41309 7.05573C2.41309 5.62773 3.45409 4.44373 4.81909 4.21973" stroke="#5E42CC" stroke-width="1.5" stroke-linecap="round" stroke-linejoin="round"/>
<path d="M3.044 13.2502C1.693 13.4522 0.75 13.9252 0.75 14.9002C0.75 15.5712 1.194 16.0072 1.912 16.2812" stroke="#5E42CC" stroke-width="1.5" stroke-linecap="round" stroke-linejoin="round"/>
</svg>
