<svg width="22" height="22" viewBox="0 0 22 22" fill="none" xmlns="http://www.w3.org/2000/svg">
<path d="M1.75 2.24988L3.83 2.60988L4.793 14.0829C4.87 15.0199 5.653 15.7389 6.593 15.7359H17.502C18.399 15.7379 19.16 15.0779 19.287 14.1899L20.236 7.63188C20.342 6.89888 19.833 6.21888 19.101 6.11288C19.037 6.10388 4.164 6.09888 4.164 6.09888" stroke="#5E42CC" stroke-width="1.5" stroke-linecap="round" stroke-linejoin="round"/>
<path d="M13.125 9.7948H15.898" stroke="#5E42CC" stroke-width="1.5" stroke-linecap="round" stroke-linejoin="round"/>
<path fill-rule="evenodd" clip-rule="evenodd" d="M6.15435 19.2025C6.45535 19.2025 6.69835 19.4465 6.69835 19.7465C6.69835 20.0475 6.45535 20.2915 6.15435 20.2915C5.85335 20.2915 5.61035 20.0475 5.61035 19.7465C5.61035 19.4465 5.85335 19.2025 6.15435 19.2025Z" fill="#5E42CC" stroke="#5E42CC" stroke-width="1.5" stroke-linecap="round" stroke-linejoin="round"/>
<path fill-rule="evenodd" clip-rule="evenodd" d="M17.4346 19.2025C17.7356 19.2025 17.9796 19.4465 17.9796 19.7465C17.9796 20.0475 17.7356 20.2915 17.4346 20.2915C17.1336 20.2915 16.8906 20.0475 16.8906 19.7465C16.8906 19.4465 17.1336 19.2025 17.4346 19.2025Z" fill="#5E42CC" stroke="#5E42CC" stroke-width="1.5" stroke-linecap="round" stroke-linejoin="round"/>
</svg>
