<svg width="24" height="24" viewBox="0 0 24 24" fill="none" xmlns="http://www.w3.org/2000/svg">
<path d="M16.0396 6.55601H16.0395L7.95949 6.55601L7.95938 6.55601C7.17927 6.55686 6.54733 7.18901 6.54648 7.9689V7.96901L6.54648 16.049L6.54648 16.0491C6.54733 16.829 7.17927 17.4612 7.95938 17.462H7.95949H16.0395H16.0396C16.8195 17.4612 17.4517 16.829 17.4525 16.0491V16.049V7.96901V7.9689C17.4517 7.189 16.8195 6.55686 16.0396 6.55601ZM16.6465 16.0489C16.646 16.384 16.3744 16.6557 16.0394 16.656H7.95959C7.62437 16.6557 7.35283 16.384 7.35249 16.0489V7.96911C7.35283 7.63387 7.62435 7.36235 7.95959 7.36201H16.0394C16.0394 7.36201 16.0395 7.36201 16.0395 7.36201C16.3745 7.36238 16.6462 7.63391 16.6465 7.96911V16.0489Z" fill="#5E42CC" stroke="#5E42CC" stroke-width="0.2"/>
<path d="M17.0509 18.1709C17.6646 18.1701 18.1621 17.6728 18.1629 17.0589C18.1629 17.0589 18.1629 17.0588 18.1629 17.0588M17.0509 18.1709L18.2629 17.0589L18.1629 17.0588M17.0509 18.1709C17.0508 18.1709 17.0508 18.1709 17.0507 18.1709L17.0509 18.1709ZM18.1629 17.0588V6.95899M18.1629 17.0588V6.95899M18.1629 6.95899L18.1629 6.95888L18.1629 6.95899ZM5.73881 6.95888V17.0589L5.83881 17.0588C5.83881 17.0588 5.83881 17.0589 5.83881 17.0589C5.83959 17.6728 6.33691 18.1701 6.95082 18.1709L5.83881 6.95896L5.73881 6.95888ZM5.73881 6.95888C5.73941 6.28975 6.28169 5.74766 6.95082 5.74687M5.73881 6.95888H5.83881L6.95082 5.74687M6.95082 5.74687H17.0509H6.95082ZM17.051 5.04087H17.0509L6.95082 5.04087L6.9507 5.04087C5.89189 5.04212 5.03385 5.89992 5.03281 6.95878V6.95888L5.03281 17.0589L5.03281 17.059C5.03385 18.1177 5.89188 18.9757 6.9507 18.9769H6.95082H17.0509H17.051C18.1096 18.9757 18.9676 18.1177 18.9689 17.059V17.0589V6.95888V6.95876C18.9676 5.89992 18.1096 5.04212 17.051 5.04087Z" fill="#5E42CC" stroke="#5E42CC" stroke-width="0.2"/>
<path d="M13.0921 19.7689C12.8693 19.7689 12.6891 19.9494 12.6891 20.1719V22.6969C12.6891 22.9196 12.8694 23.0999 13.0921 23.0999C13.3145 23.0999 13.4951 22.9197 13.4951 22.6969V20.1719C13.4951 19.9494 13.3146 19.7689 13.0921 19.7689Z" fill="#5E42CC" stroke="#5E42CC" stroke-width="0.2"/>
<path d="M10.9085 19.7689C10.6857 19.7689 10.5055 19.9494 10.5055 20.1719V22.6969C10.5055 22.9196 10.6858 23.0999 10.9085 23.0999C11.1309 23.0999 11.3115 22.9197 11.3115 22.6969V20.1719C11.3115 19.9494 11.131 19.7689 10.9085 19.7689Z" fill="#5E42CC" stroke="#5E42CC" stroke-width="0.2"/>
<path d="M8.72488 19.7689C8.50237 19.7689 8.32187 19.9494 8.32187 20.1719V22.6969C8.32187 22.9197 8.50241 23.0999 8.72488 23.0999C8.94734 23.0999 9.12788 22.9197 9.12788 22.6969V20.1719C9.12788 19.9494 8.94739 19.7689 8.72488 19.7689Z" fill="#5E42CC" stroke="#5E42CC" stroke-width="0.2"/>
<path d="M15.2757 19.7689C15.0529 19.7689 14.8727 19.9494 14.8727 20.1719V22.6969C14.8727 22.9196 15.0529 23.0999 15.2757 23.0999C15.4981 23.0999 15.6787 22.9197 15.6787 22.6969V20.1719C15.6787 19.9494 15.4982 19.7689 15.2757 19.7689Z" fill="#5E42CC" stroke="#5E42CC" stroke-width="0.2"/>
<path d="M11.3115 3.82801V1.303C11.3115 1.08049 11.131 0.9 10.9085 0.9C10.6857 0.9 10.5055 1.08053 10.5055 1.303V3.82801C10.5055 4.05048 10.6857 4.23101 10.9085 4.23101C11.131 4.23101 11.3115 4.05052 11.3115 3.82801Z" fill="#5E42CC" stroke="#5E42CC" stroke-width="0.2"/>
<path d="M13.4951 3.82801V1.303C13.4951 1.08049 13.3146 0.9 13.0921 0.9C12.8693 0.9 12.6891 1.08054 12.6891 1.303V3.82801C12.6891 4.05048 12.8693 4.23101 13.0921 4.23101C13.3146 4.23101 13.4951 4.05052 13.4951 3.82801Z" fill="#5E42CC" stroke="#5E42CC" stroke-width="0.2"/>
<path d="M15.6787 3.82801V1.303C15.6787 1.08049 15.4982 0.9 15.2757 0.9C15.0529 0.9 14.8727 1.08053 14.8727 1.303V3.82801C14.8727 4.05048 15.0529 4.23101 15.2757 4.23101C15.4982 4.23101 15.6787 4.05052 15.6787 3.82801Z" fill="#5E42CC" stroke="#5E42CC" stroke-width="0.2"/>
<path d="M9.12788 3.82801V1.303C9.12788 1.08049 8.94739 0.9 8.72488 0.9C8.50237 0.9 8.32187 1.08049 8.32187 1.303V3.82801C8.32187 4.05052 8.50237 4.23101 8.72488 4.23101C8.94739 4.23101 9.12788 4.05052 9.12788 3.82801Z" fill="#5E42CC" stroke="#5E42CC" stroke-width="0.2"/>
<path d="M22.6972 10.5053H20.1721C19.9497 10.5053 19.7691 10.6856 19.7691 10.9083C19.7691 11.1309 19.9496 11.3113 20.1721 11.3113H22.6972C22.9199 11.3113 23.1002 11.1308 23.1002 10.9083C23.1002 10.6856 22.9199 10.5053 22.6972 10.5053Z" fill="#5E42CC" stroke="#5E42CC" stroke-width="0.2"/>
<path d="M22.6972 12.6887H20.1721C19.9497 12.6887 19.7691 12.8689 19.7691 13.0917C19.7691 13.3142 19.9496 13.4947 20.1721 13.4947H22.6972C22.9199 13.4947 23.1002 13.3142 23.1002 13.0917C23.1002 12.869 22.9199 12.6887 22.6972 12.6887Z" fill="#5E42CC" stroke="#5E42CC" stroke-width="0.2"/>
<path d="M22.6972 14.872H20.1721C19.9497 14.872 19.7691 15.0523 19.7691 15.275C19.7691 15.4976 19.9496 15.678 20.1721 15.678H22.6972C22.9199 15.678 23.1002 15.4975 23.1002 15.275C23.1002 15.0523 22.9199 14.872 22.6972 14.872Z" fill="#5E42CC" stroke="#5E42CC" stroke-width="0.2"/>
<path d="M22.6972 8.32224H20.1721C19.9496 8.32224 19.7691 8.50273 19.7691 8.72524C19.7691 8.94775 19.9496 9.12824 20.1721 9.12824H22.6972C22.9199 9.12824 23.1002 8.94771 23.1002 8.72524C23.1002 8.50277 22.9199 8.32224 22.6972 8.32224Z" fill="#5E42CC" stroke="#5E42CC" stroke-width="0.2"/>
<path d="M3.82801 12.6887H1.303C1.08054 12.6887 0.9 12.8689 0.9 13.0917C0.9 13.3142 1.08049 13.4947 1.303 13.4947H3.82801C4.05052 13.4947 4.23101 13.3142 4.23101 13.0917C4.23101 12.8689 4.05048 12.6887 3.82801 12.6887Z" fill="#5E42CC" stroke="#5E42CC" stroke-width="0.2"/>
<path d="M3.82801 10.5053H1.303C1.08053 10.5053 0.9 10.6856 0.9 10.9083C0.9 11.1309 1.08049 11.3113 1.303 11.3113H3.82801C4.05052 11.3113 4.23101 11.1309 4.23101 10.9083C4.23101 10.6856 4.05048 10.5053 3.82801 10.5053Z" fill="#5E42CC" stroke="#5E42CC" stroke-width="0.2"/>
<path d="M3.82801 8.32224H1.303C1.08049 8.32224 0.9 8.50273 0.9 8.72524C0.9 8.94775 1.08049 9.12824 1.303 9.12824H3.82801C4.05052 9.12824 4.23101 8.94775 4.23101 8.72524C4.23101 8.50273 4.05052 8.32224 3.82801 8.32224Z" fill="#5E42CC" stroke="#5E42CC" stroke-width="0.2"/>
<path d="M3.82801 14.872H1.303C1.08053 14.872 0.9 15.0523 0.9 15.275C0.9 15.4976 1.08049 15.678 1.303 15.678H3.82801C4.05052 15.678 4.23101 15.4976 4.23101 15.275C4.23101 15.0523 4.05048 14.872 3.82801 14.872Z" fill="#5E42CC" stroke="#5E42CC" stroke-width="0.2"/>
<path d="M11.8123 9.82242L11.8123 9.82241L9.85565 13.5013H9.75565C9.75565 13.502 9.75565 13.5028 9.75566 13.5036C9.75676 13.6259 9.84313 13.7128 9.92701 13.7633C10.0141 13.8157 10.1237 13.8457 10.2224 13.8457C10.2822 13.8457 10.3451 13.8359 10.4004 13.8055C10.4586 13.7736 10.5018 13.7222 10.5234 13.6532L10.5234 13.6532L10.524 13.6511L10.7308 12.9347H11.9525L12.1593 13.6511L12.1593 13.6511L12.16 13.6532C12.1815 13.722 12.2245 13.7732 12.2815 13.8051C12.336 13.8356 12.3976 13.8457 12.4554 13.8457C12.5575 13.8457 12.6684 13.8141 12.7559 13.7611C12.8397 13.7103 12.9277 13.6228 12.9277 13.5013H12.9278L12.9275 13.4955C12.926 13.4693 12.9205 13.4432 12.9109 13.4182L11.8123 9.82242ZM11.7611 12.2624H10.9167L11.3389 10.8143L11.7611 12.2624Z" fill="#5E42CC" stroke="#5E42CC" stroke-width="0.2"/>
<path d="M13.5611 9.58506C13.4784 9.58506 13.3866 9.60058 13.3116 9.64179C13.2332 9.68484 13.1666 9.76128 13.1666 9.87384V13.5513C13.1666 13.6612 13.2332 13.7381 13.3091 13.7827C13.3834 13.8263 13.4755 13.8458 13.5611 13.8458C13.649 13.8458 13.7415 13.8265 13.8157 13.7824C13.892 13.737 13.9555 13.6596 13.9555 13.5513V9.87404C13.9555 9.76307 13.8921 9.68609 13.8132 9.64211C13.7383 9.60041 13.6461 9.58506 13.5611 9.58506Z" fill="#5E42CC" stroke="#5E42CC" stroke-width="0.2"/>
</svg>
