<svg width="22" height="22" viewBox="0 0 22 22" fill="none" xmlns="http://www.w3.org/2000/svg">
<path d="M10.4925 1.78894H6.75349C3.67849 1.78894 1.75049 3.96594 1.75049 7.04794V15.3619C1.75049 18.4439 3.66949 20.6209 6.75349 20.6209H15.5775C18.6625 20.6209 20.5815 18.4439 20.5815 15.3619V11.3339" stroke="#5E42CC" stroke-width="1.5" stroke-linecap="round" stroke-linejoin="round"/>
<path fill-rule="evenodd" clip-rule="evenodd" d="M7.82812 9.92087L15.3011 2.44787C16.2321 1.51787 17.7411 1.51787 18.6721 2.44787L19.8891 3.66487C20.8201 4.59587 20.8201 6.10587 19.8891 7.03587L12.3801 14.5449C11.9731 14.9519 11.4211 15.1809 10.8451 15.1809H7.09912L7.19312 11.4009C7.20712 10.8449 7.43412 10.3149 7.82812 9.92087Z" stroke="#5E42CC" stroke-width="1.5" stroke-linecap="round" stroke-linejoin="round"/>
<path d="M14.1655 3.60242L18.7315 8.16842" stroke="#5E42CC" stroke-width="1.5" stroke-linecap="round" stroke-linejoin="round"/>
</svg>
