<svg width="22" height="22" viewBox="0 0 22 22" fill="none" xmlns="http://www.w3.org/2000/svg">
<rect x="2.5" y="2.5" width="5" height="5" stroke="#5E42CC"/>
<rect x="2.5" y="14.5" width="5" height="5" stroke="#5E42CC"/>
<rect x="14.5" y="2.5" width="5" height="5" stroke="#5E42CC"/>
<rect x="4.5" y="4.5" width="1" height="1" stroke="#5E42CC"/>
<rect x="4.5" y="16.5" width="1" height="1" stroke="#5E42CC"/>
<rect x="16.5" y="4.5" width="1" height="1" stroke="#5E42CC"/>
<rect x="10" y="3" width="1" height="6" fill="#5E42CC"/>
<rect x="2" y="9" width="1" height="1" fill="#5E42CC"/>
<rect x="3" y="12" width="3" height="1" fill="#5E42CC"/>
<rect x="3" y="10" width="1" height="1" fill="#5E42CC"/>
<rect x="2" y="11" width="1" height="1" fill="#5E42CC"/>
<rect x="14" y="10" width="2" height="1" fill="#5E42CC"/>
<rect x="9" y="13" width="1" height="1" fill="#5E42CC"/>
<rect x="12" y="15" width="1" height="1" fill="#5E42CC"/>
<rect x="16" y="19" width="1" height="1" fill="#5E42CC"/>
<rect x="18" y="15" width="1" height="1" fill="#5E42CC"/>
<rect x="9" y="11" width="2" height="1" fill="#5E42CC"/>
<rect x="17" y="9" width="1" height="2" fill="#5E42CC"/>
<rect x="11" y="15" width="1" height="1" fill="#5E42CC"/>
<rect x="9" y="15" width="1" height="1" fill="#5E42CC"/>
<rect x="17" y="15" width="1" height="1" fill="#5E42CC"/>
<rect x="19" y="9" width="1" height="1" fill="#5E42CC"/>
<rect x="12" y="10" width="1" height="2" fill="#5E42CC"/>
<rect x="14" y="12" width="1" height="1" fill="#5E42CC"/>
<rect x="9" y="18" width="1" height="1" fill="#5E42CC"/>
<rect x="13" y="19" width="2" height="1" fill="#5E42CC"/>
<rect x="12" y="17" width="1" height="3" fill="#5E42CC"/>
<rect x="18" y="17" width="1" height="3" fill="#5E42CC"/>
<rect x="9" y="10" width="1" height="1" fill="#5E42CC"/>
<rect x="17" y="12" width="3" height="1" fill="#5E42CC"/>
<rect x="11" y="17" width="1" height="1" fill="#5E42CC"/>
<rect x="17" y="17" width="1" height="1" fill="#5E42CC"/>
<rect x="15" y="14" width="1" height="4" fill="#5E42CC"/>
<rect x="12" y="13" width="1" height="1" fill="#5E42CC"/>
<rect x="18" y="13" width="1" height="1" fill="#5E42CC"/>
<rect x="7" y="10" width="1" height="1" fill="#5E42CC"/>
<rect x="6" y="9" width="3" height="1" fill="#5E42CC"/>
<rect x="5" y="10" width="1" height="2" fill="#5E42CC"/>
<rect x="9" y="2" width="1" height="1" fill="#5E42CC"/>
<rect x="12" y="5" width="1" height="2" fill="#5E42CC"/>
</svg>
