<svg width="22" height="22" viewBox="0 0 22 22" fill="none" xmlns="http://www.w3.org/2000/svg">
<path fill-rule="evenodd" clip-rule="evenodd" d="M15.5139 20.4999H7.16604C4.09968 20.4999 1.74727 19.3924 2.41547 14.9347L3.1935 8.89351C3.6054 6.66925 5.02416 5.81799 6.26901 5.81799H16.4475C17.7107 5.81799 19.047 6.73332 19.523 8.89351L20.3011 14.9347C20.8686 18.8889 18.5802 20.4999 15.5139 20.4999Z" stroke="#5E42CC" stroke-width="1.5" stroke-linecap="round" stroke-linejoin="round"/>
<path d="M15.6512 5.59836C15.6512 3.21229 13.7169 1.27799 11.3309 1.27799V1.27799C10.1819 1.27312 9.07825 1.72615 8.26406 2.53691C7.44987 3.34766 6.99218 4.44935 6.99219 5.59836H6.99219" stroke="#5E42CC" stroke-width="1.5" stroke-linecap="round" stroke-linejoin="round"/>
<path d="M14.2965 10.1018H14.2507" stroke="#5E42CC" stroke-width="1.5" stroke-linecap="round" stroke-linejoin="round"/>
<path d="M8.4659 10.1018H8.42013" stroke="#5E42CC" stroke-width="1.5" stroke-linecap="round" stroke-linejoin="round"/>
</svg>
