<svg width="22" height="22" viewBox="0 0 22 22" fill="none" xmlns="http://www.w3.org/2000/svg">
<circle cx="10" cy="12" r="8.25" stroke="#5E42CC" stroke-width="1.5"/>
<path d="M7.9498 10.95C7.9498 11.4747 7.52448 11.9 6.9998 11.9C6.47513 11.9 6.0498 11.4747 6.0498 10.95C6.0498 10.4253 6.47513 10 6.9998 10C7.52448 10 7.9498 10.4253 7.9498 10.95Z" fill="#5E42CC"/>
<path d="M14.0504 10.95C14.0504 11.4747 13.6251 11.9 13.1004 11.9C12.5757 11.9 12.1504 11.4747 12.1504 10.95C12.1504 10.4253 12.5757 10 13.1004 10C13.6251 10 14.0504 10.4253 14.0504 10.95Z" fill="#5E42CC"/>
<path d="M21 1L18.8683 4.83708C18.7121 5.11827 18.3047 5.10942 18.1609 4.82171L17 2.5" stroke="#5E42CC" stroke-width="1.5" stroke-linecap="round"/>
<path d="M7 15C7 15 8 16.5 10 16.5C12 16.5 13 15 13 15" stroke="#5E42CC" stroke-width="1.5" stroke-linecap="round"/>
</svg>
