<svg width="22" height="22" viewBox="0 0 22 22" fill="none" xmlns="http://www.w3.org/2000/svg">
<path d="M12.6395 21C12.7472 21 12.8407 20.96 12.9201 20.88C12.9994 20.7999 13.0476 20.6953 13.0646 20.566C13.1893 19.618 13.3197 18.8147 13.4558 18.156C13.5975 17.5035 13.7846 16.968 14.017 16.5494C14.2494 16.1247 14.5556 15.7861 14.9354 15.5337C15.3209 15.2813 15.8084 15.0843 16.398 14.9428C16.9932 14.795 17.7217 14.6688 18.5833 14.5642C18.7081 14.5519 18.8073 14.5026 18.881 14.4164C18.9603 14.3241 19 14.2133 19 14.084C19 13.9548 18.9603 13.847 18.881 13.7608C18.8073 13.6747 18.7081 13.6223 18.5833 13.6039C17.7217 13.4992 16.9932 13.3761 16.398 13.2345C15.8084 13.0868 15.3237 12.8867 14.9439 12.6343C14.5641 12.382 14.2579 12.0465 14.0255 11.6279C13.7931 11.2031 13.606 10.6645 13.4643 10.012C13.3226 9.3595 13.1893 8.55617 13.0646 7.60203C13.0476 7.47892 12.9994 7.37735 12.9201 7.29732C12.8407 7.21114 12.7472 7.16805 12.6395 7.16805C12.5204 7.16805 12.4212 7.21114 12.3418 7.29732C12.2625 7.37735 12.2143 7.47892 12.1973 7.60203C12.0839 8.55617 11.9563 9.3595 11.8146 10.012C11.6729 10.6645 11.483 11.2031 11.2449 11.6279C11.0125 12.0465 10.7035 12.385 10.318 12.6436C9.93821 12.896 9.45351 13.093 8.86395 13.2345C8.27438 13.3761 7.54592 13.4992 6.67857 13.6039C6.55385 13.6162 6.45181 13.6685 6.37245 13.7608C6.29875 13.847 6.2619 13.9548 6.2619 14.084C6.2619 14.2133 6.29875 14.3241 6.37245 14.4164C6.45181 14.5026 6.55385 14.5519 6.67857 14.5642C7.54025 14.6873 8.26587 14.8258 8.85544 14.9797C9.44501 15.1336 9.92971 15.3367 10.3095 15.5891C10.6893 15.8353 10.9955 16.1647 11.2279 16.5771C11.4603 16.9895 11.6474 17.5189 11.7891 18.1653C11.9365 18.8178 12.0726 19.618 12.1973 20.566C12.2143 20.6953 12.2625 20.7999 12.3418 20.88C12.4212 20.96 12.5204 21 12.6395 21ZM7.12075 11.3324C7.19444 11.3324 7.25964 11.3047 7.31633 11.2493C7.37302 11.1939 7.4042 11.1262 7.40986 11.0462C7.48356 10.4614 7.55442 10.0089 7.62245 9.68883C7.69615 9.36257 7.81236 9.11942 7.97109 8.95937C8.12982 8.79317 8.36508 8.6639 8.67687 8.57156C8.99433 8.47922 9.43084 8.37458 9.98639 8.25762C10.1565 8.22684 10.2415 8.12219 10.2415 7.94368C10.2415 7.85749 10.216 7.7867 10.165 7.7313C10.1139 7.6759 10.0544 7.64204 9.98639 7.62973C9.43084 7.54971 8.99433 7.46968 8.67687 7.38966C8.35941 7.30348 8.12132 7.17729 7.96259 7.01108C7.80952 6.83872 7.69615 6.58633 7.62245 6.25392C7.55442 5.91536 7.48356 5.4506 7.40986 4.85965C7.38719 4.66267 7.29082 4.56417 7.12075 4.56417C6.95068 4.56417 6.85431 4.66574 6.83163 4.86888C6.76927 5.44752 6.70125 5.89997 6.62755 6.22622C6.55385 6.54632 6.43481 6.78947 6.27041 6.95568C6.11168 7.11573 5.87358 7.24192 5.55612 7.33426C5.24433 7.42044 4.81349 7.51893 4.26361 7.62973C4.08787 7.66667 4 7.77131 4 7.94368C4 8.12219 4.09921 8.22684 4.29762 8.25762C4.84184 8.35611 5.26984 8.44845 5.58163 8.53463C5.89342 8.62081 6.12585 8.75008 6.27891 8.92244C6.43764 9.08864 6.55385 9.33487 6.62755 9.66113C6.70125 9.98738 6.76927 10.4429 6.83163 11.0277C6.85431 11.2308 6.95068 11.3324 7.12075 11.3324ZM11.0153 5.26593C11.1117 5.26593 11.1712 5.20745 11.1939 5.09049C11.2506 4.73346 11.3044 4.45337 11.3554 4.25023C11.4065 4.04094 11.4802 3.88396 11.5765 3.77932C11.6729 3.66851 11.8175 3.58541 12.0102 3.53001C12.2029 3.46845 12.4722 3.40074 12.818 3.32687C12.9314 3.30225 12.9881 3.23761 12.9881 3.13296C12.9881 3.02832 12.9314 2.96368 12.818 2.93906C12.4722 2.86519 12.2029 2.79748 12.0102 2.73592C11.8231 2.67436 11.6814 2.59126 11.585 2.48661C11.4943 2.37581 11.4235 2.21884 11.3724 2.0157C11.3214 1.81256 11.2619 1.52939 11.1939 1.1662C11.1712 1.0554 11.1117 1 11.0153 1C10.9189 1 10.8594 1.0554 10.8367 1.1662C10.7687 1.52939 10.7092 1.81256 10.6582 2.0157C10.6128 2.21268 10.542 2.36657 10.4456 2.47738C10.3549 2.58203 10.2132 2.66821 10.0204 2.73592C9.83333 2.79748 9.56406 2.86519 9.21259 2.93906C9.10488 2.96368 9.05102 3.02832 9.05102 3.13296C9.05102 3.23761 9.10488 3.30225 9.21259 3.32687C9.56406 3.40074 9.83617 3.46845 10.0289 3.53001C10.2217 3.59157 10.3634 3.67775 10.4541 3.78855C10.5505 3.8932 10.6213 4.04709 10.6667 4.25023C10.7177 4.44721 10.7744 4.7273 10.8367 5.09049C10.8594 5.20745 10.9189 5.26593 11.0153 5.26593Z" fill="#5E42CC"/>
</svg>
