<svg width="22" height="22" viewBox="0 0 22 22" fill="none" xmlns="http://www.w3.org/2000/svg">
<path d="M0.207409 9.63237C0.0636056 9.78768 -0.0054203 9.95449 0.000331855 10.1328C0.00608401 10.3054 0.0693577 10.4521 0.190153 10.5728C0.310948 10.6879 0.477761 10.7454 0.690591 10.7454H2.07111V14.214C2.07111 14.4095 2.14013 14.5735 2.27819 14.7058C2.41624 14.8381 2.58305 14.9042 2.77862 14.9042C2.9742 14.9042 3.13813 14.8381 3.27043 14.7058C3.40273 14.5735 3.46888 14.4095 3.46888 14.214V10.7454H4.84077C5.06511 10.7454 5.23767 10.685 5.35847 10.5642C5.47926 10.4434 5.53966 10.2967 5.53966 10.1242C5.53966 9.95161 5.47063 9.78768 5.33258 9.63237L3.24455 7.26823C3.1065 7.10717 2.94831 7.02664 2.76999 7.02664C2.59168 7.02664 2.43062 7.10717 2.28681 7.26823L0.207409 9.63237ZM7.27393 17.1389C7.27393 18.0075 7.49252 18.6604 7.92968 19.0975C8.36684 19.5347 9.01396 19.7533 9.87103 19.7533H18.551C19.4139 19.7533 20.061 19.5347 20.4924 19.0975C20.9296 18.6604 21.1481 18.0075 21.1481 17.1389V4.79193C21.1481 3.92335 20.9296 3.27048 20.4924 2.83332C20.061 2.3904 19.4139 2.16895 18.551 2.16895H9.87103C9.01396 2.16895 8.36684 2.3904 7.92968 2.83332C7.49252 3.27048 7.27393 3.92335 7.27393 4.79193V17.1389ZM8.74936 17.0699V4.86095C8.74936 4.46406 8.8529 4.16207 9.05998 3.95499C9.26706 3.74791 9.57192 3.64437 9.97457 3.64437H18.4475C18.8617 3.64437 19.1694 3.74791 19.3707 3.95499C19.5778 4.16207 19.6813 4.46406 19.6813 4.86095V17.0699C19.6813 17.4668 19.5778 17.7688 19.3707 17.9759C19.1694 18.1887 18.8617 18.2951 18.4475 18.2951H9.97457C9.57192 18.2951 9.26706 18.1887 9.05998 17.9759C8.8529 17.7688 8.74936 17.4668 8.74936 17.0699ZM10.5527 15.0768H17.878C18.0506 15.0768 18.1771 15.025 18.2577 14.9215C18.344 14.8179 18.3871 14.6885 18.3871 14.5332C18.3871 14.3089 18.3037 14.0213 18.1369 13.6704C17.9701 13.3195 17.7141 12.9657 17.369 12.6091C17.0238 12.2525 16.5896 11.9534 16.0661 11.7118C15.5427 11.4702 14.9272 11.3494 14.2197 11.3494C13.5006 11.3494 12.8794 11.4702 12.356 11.7118C11.8383 11.9534 11.4069 12.2525 11.0617 12.6091C10.7166 12.9657 10.4606 13.3195 10.2938 13.6704C10.127 14.0213 10.0436 14.3089 10.0436 14.5332C10.0436 14.6885 10.0839 14.8179 10.1644 14.9215C10.2507 15.025 10.3801 15.0768 10.5527 15.0768ZM14.2197 10.6936C14.5993 10.6994 14.9473 10.6045 15.2637 10.4089C15.58 10.2076 15.8303 9.93436 16.0143 9.58923C16.2042 9.2441 16.2991 8.85583 16.2991 8.42442C16.2991 8.01601 16.2042 7.645 16.0143 7.31137C15.8303 6.972 15.58 6.70164 15.2637 6.50032C14.9473 6.29899 14.5993 6.19833 14.2197 6.19833C13.8343 6.19833 13.4834 6.29899 13.167 6.50032C12.8506 6.70164 12.5976 6.972 12.4077 7.31137C12.2237 7.645 12.1316 8.01601 12.1316 8.42442C12.1316 9.06866 12.333 9.60648 12.7356 10.0379C13.144 10.4693 13.6387 10.6879 14.2197 10.6936Z" fill="#5E42CC"/>
</svg>
