<svg width="22" height="22" viewBox="0 0 22 22" fill="none" xmlns="http://www.w3.org/2000/svg">
<path d="M7.97627 17.1034H15.0237C15.2 17.1034 15.339 17.0537 15.4407 16.9544C15.5492 16.8485 15.6034 16.7061 15.6034 16.5273V15.0573C15.6034 14.6005 15.7186 14.1701 15.9492 13.7661C16.1797 13.3556 16.461 12.9351 16.7932 12.5047C17.1322 12.0743 17.4678 11.6075 17.8 11.1043C18.139 10.6011 18.4237 10.0349 18.6542 9.40587C18.8847 8.77682 19 8.05508 19 7.24063C19 6.1547 18.8203 5.1681 18.461 4.28081C18.1085 3.39353 17.6 2.63205 16.9356 1.99639C16.2712 1.3541 15.478 0.860798 14.5559 0.516479C13.6407 0.17216 12.6203 0 11.4949 0C10.3763 0 9.35593 0.17216 8.4339 0.516479C7.51864 0.860798 6.72881 1.3541 6.06441 1.99639C5.4 2.63205 4.88814 3.39353 4.52881 4.28081C4.17627 5.1681 4 6.1547 4 7.24063C4 8.05508 4.11525 8.77682 4.34576 9.40587C4.57627 10.0349 4.85763 10.6011 5.18983 11.1043C5.52881 11.6075 5.86441 12.0743 6.19661 12.5047C6.53559 12.9351 6.82034 13.3556 7.05085 13.7661C7.28136 14.1701 7.39661 14.6005 7.39661 15.0573V16.5273C7.39661 16.7061 7.44746 16.8485 7.54915 16.9544C7.65763 17.0537 7.8 17.1034 7.97627 17.1034ZM8.95254 16.4777C8.95254 16.3121 8.95254 16.1532 8.95254 16.0009C8.95254 15.842 8.95254 15.6864 8.95254 15.5341C8.95254 15.3752 8.95254 15.2163 8.95254 15.0573C8.95254 14.4945 8.83729 13.978 8.60678 13.5079C8.37627 13.0312 8.09492 12.5676 7.76271 12.1174C7.43051 11.6671 7.09492 11.2036 6.75593 10.7269C6.42373 10.2435 6.14237 9.72039 5.91186 9.15756C5.68136 8.58811 5.5661 7.94913 5.5661 7.24063C5.5661 6.09511 5.81356 5.09526 6.30847 4.24108C6.80339 3.38691 7.49492 2.72476 8.38305 2.25463C9.27119 1.77788 10.3085 1.5395 11.4949 1.5395C12.6881 1.5395 13.7254 1.77788 14.6068 2.25463C15.4949 2.72476 16.1864 3.38691 16.6814 4.24108C17.1763 5.09526 17.4237 6.09511 17.4237 7.24063C17.4237 7.94913 17.3085 8.58811 17.078 9.15756C16.8542 9.72039 16.5729 10.2435 16.2339 10.7269C15.9017 11.2036 15.5695 11.6671 15.2373 12.1174C14.9051 12.5676 14.6237 13.0312 14.3932 13.5079C14.1627 13.978 14.0475 14.4945 14.0475 15.0573C14.0475 15.2957 14.0475 15.5341 14.0475 15.7725C14.0475 16.0042 14.0475 16.2393 14.0475 16.4777L14.9322 15.5738H8.05763L8.95254 16.4777ZM11.5153 22C12.1932 22 12.7559 21.8543 13.2034 21.563C13.6508 21.2783 13.8983 20.9041 13.9458 20.4406H9.08475C9.12542 20.9041 9.3661 21.2783 9.80678 21.563C10.2542 21.8543 10.8237 22 11.5153 22ZM8.32203 19.6758H14.7186C14.9695 19.6758 15.1831 19.5865 15.3593 19.4077C15.5356 19.2355 15.6237 19.0236 15.6237 18.772C15.6237 18.5204 15.5356 18.3085 15.3593 18.1363C15.1831 17.9576 14.9695 17.8682 14.7186 17.8682H8.32203C8.06441 17.8682 7.84407 17.9576 7.66102 18.1363C7.48475 18.3085 7.39661 18.5204 7.39661 18.772C7.39661 19.0236 7.48475 19.2355 7.66102 19.4077C7.84407 19.5865 8.06441 19.6758 8.32203 19.6758Z" fill="#5E42CC"/>
</svg>
