<svg width="22" height="22" viewBox="0 0 22 22" fill="none" xmlns="http://www.w3.org/2000/svg">
<path d="M10.5664 14.1494L11.7461 12.9619C10.9023 12.876 10.2852 12.5947 9.83984 12.1572C8.60547 10.915 8.60547 9.17285 9.83203 7.94629L12.3086 5.47754C13.543 4.25098 15.2773 4.24317 16.5117 5.47754C17.7539 6.71973 17.7461 8.4541 16.5195 9.68848L15.332 10.876C15.5742 11.4385 15.6602 12.1416 15.5195 12.7588L17.6133 10.665C19.4492 8.83692 19.457 6.23535 17.6055 4.38379C15.7539 2.53223 13.1523 2.54785 11.3242 4.37598L8.73828 6.96973C6.91016 8.79785 6.90234 11.3994 8.74609 13.251C9.16797 13.665 9.74609 13.9932 10.5664 14.1494ZM11.4258 7.86035L10.2383 9.04785C11.082 9.13379 11.707 9.41504 12.1445 9.85254C13.3867 11.0869 13.3867 12.8291 12.1602 14.0557L9.68359 16.5244C8.44922 17.7588 6.71484 17.7588 5.48047 16.5244C4.23828 15.2822 4.24609 13.5479 5.47266 12.3213L6.66016 11.1338C6.41797 10.5635 6.33203 9.86035 6.47266 9.25098L4.37891 11.3369C2.54297 13.165 2.53516 15.7744 4.38672 17.6182C6.23828 19.4697 8.83203 19.4619 10.668 17.626L13.2539 15.04C15.082 13.2041 15.0898 10.6104 13.2461 8.75879C12.8242 8.33692 12.2461 8.0166 11.4258 7.86035Z" fill="#5E42CC"/>
</svg>
