<svg width="22" height="22" viewBox="0 0 22 22" fill="none" xmlns="http://www.w3.org/2000/svg">
<path fill-rule="evenodd" clip-rule="evenodd" d="M15.2966 14.5383C15.3775 16.3704 13.8989 17.9196 11.9944 17.9975C11.8541 18.0034 5.01507 17.9896 5.01507 17.9896C3.11972 18.1335 1.46091 16.7715 1.31141 14.9463C1.30014 14.8103 1.30322 7.47219 1.30322 7.47219C1.21925 5.63815 2.6958 4.08499 4.60139 4.00418C4.74372 3.99728 11.5735 4.01009 11.5735 4.01009C13.4781 3.86818 15.142 5.24001 15.2895 7.07405C15.2997 7.2061 15.2966 14.5383 15.2966 14.5383Z" stroke="#5E42CC" stroke-width="1.5" stroke-linecap="round" stroke-linejoin="round"/>
<path d="M15.2998 8.97984L18.5928 6.28484C19.4088 5.61684 20.6328 6.19884 20.6318 7.25184L20.6198 14.6008C20.6188 15.6538 19.3938 16.2308 18.5798 15.5628L15.2998 12.8678" stroke="#5E42CC" stroke-width="1.5" stroke-linecap="round" stroke-linejoin="round"/>
</svg>
