<svg width="22" height="22" viewBox="0 0 22 22" fill="none" xmlns="http://www.w3.org/2000/svg">
<path d="M7.27311 14H14.7269C14.8025 14 14.8669 13.9542 14.9202 13.8625C14.9734 13.7708 15 13.6574 15 13.5222C15 13.3968 14.9734 13.2882 14.9202 13.1965C14.8669 13.1 14.8025 13.0517 14.7269 13.0517H7.27311C7.19748 13.0517 7.13305 13.1 7.07983 13.1965C7.02661 13.2882 7 13.3968 7 13.5222C7 13.6574 7.02661 13.7708 7.07983 13.8625C7.13305 13.9542 7.19748 14 7.27311 14ZM7.27311 10.9669H14.7269C14.8025 10.9669 14.8669 10.9235 14.9202 10.8366C14.9734 10.7449 15 10.6339 15 10.5036C15 10.3685 14.9734 10.2551 14.9202 10.1634C14.8669 10.0717 14.8025 10.0259 14.7269 10.0259H7.27311C7.19748 10.0259 7.13305 10.0717 7.07983 10.1634C7.02661 10.2551 7 10.3685 7 10.5036C7 10.6339 7.02661 10.7449 7.07983 10.8366C7.13305 10.9235 7.19748 10.9669 7.27311 10.9669ZM7.27311 7.94105H14.7269C14.8025 7.94105 14.8669 7.89521 14.9202 7.80352C14.9734 7.71182 15 7.60083 15 7.47053C15 7.34505 14.9734 7.23647 14.9202 7.14478C14.8669 7.04826 14.8025 7 14.7269 7H7.27311C7.19748 7 7.13305 7.04826 7.07983 7.14478C7.02661 7.23647 7 7.34505 7 7.47053C7 7.60083 7.02661 7.71182 7.07983 7.80352C7.13305 7.89521 7.19748 7.94105 7.27311 7.94105Z" fill="#5E42CC"/>
</svg>
