<svg width="22" height="22" viewBox="0 0 22 22" fill="none" xmlns="http://www.w3.org/2000/svg">
<g clip-path="url(#clip0_10842_113408)">
<path d="M20.5001 8L20.167 8.10743L20.1671 8.1078L20.5001 8ZM19.0779 20.6981L19.1196 21.0456L19.1211 21.0454L19.0779 20.6981ZM11.173 19.7966C10.5249 19.7966 9.77144 19.8841 8.99267 19.963C8.20417 20.0428 7.37292 20.1162 6.53081 20.0984C4.85245 20.0628 3.1613 19.666 1.74761 18.2525L1.25267 18.7475C2.83938 20.334 4.73356 20.7605 6.51599 20.7982C7.40428 20.817 8.27228 20.7395 9.06322 20.6594C9.8639 20.5783 10.5701 20.4966 11.173 20.4966V19.7966ZM1.74761 18.2525C1.09094 17.5959 0.67063 16.2993 0.576879 14.6365C0.484222 12.9932 0.715378 11.066 1.28301 9.22829C2.42728 5.52365 4.87122 2.35 8.60444 2.35V1.65C4.3949 1.65 1.78648 5.22635 0.614187 9.02171C0.0235347 10.934 -0.219643 12.9443 -0.122011 14.676C-0.0254749 16.3882 0.409123 17.9041 1.25267 18.7475L1.74761 18.2525ZM8.60444 2.35C12.5647 2.35 15.1169 2.77145 16.8441 3.68909C18.5439 4.59221 19.4874 6.00026 20.167 8.10743L20.8332 7.89257C20.1195 5.67975 19.0865 4.0878 17.1725 3.07092C15.2859 2.06855 12.5869 1.65 8.60444 1.65V2.35ZM20.1671 8.1078C20.8534 10.2277 21.2073 13.2686 21.0357 15.8175C20.9498 17.093 20.7339 18.2181 20.3799 19.0345C20.0223 19.8591 19.5648 20.2849 19.0347 20.3507L19.1211 21.0454C20.0175 20.934 20.6264 20.2255 21.0221 19.313C21.4213 18.3924 21.6457 17.1776 21.7341 15.8645C21.911 13.2363 21.5495 10.1054 20.8331 7.8922L20.1671 8.1078ZM19.0362 20.3506C17.6625 20.5155 16.5488 20.3836 15.3478 20.2042C14.1469 20.0248 12.8536 19.7966 11.173 19.7966V20.4966C12.7909 20.4966 14.0283 20.7148 15.2444 20.8965C16.4603 21.0782 17.6498 21.222 19.1196 21.0456L19.0362 20.3506Z" fill="#5E42CC"/>
<path d="M5.63703 13C4.57522 13.4441 4.16229 14.8062 4.35401 15.7685C4.53098 14.1844 6.27117 13.3109 7.12652 13.8143" stroke="#5E42CC" stroke-width="0.7" stroke-miterlimit="10" stroke-linecap="round" stroke-linejoin="round"/>
<path d="M4.70801 14.7764L5.62235 16.3605C6.31547 16.094 8.39485 15.3538 10.2383 17.2192" stroke="#5E42CC" stroke-width="0.7" stroke-miterlimit="10" stroke-linecap="round" stroke-linejoin="round"/>
<path d="M7.37695 15.9902C8.30604 15.9902 9.16139 16.9229 9.36785 17.752" stroke="#5E42CC" stroke-width="0.7" stroke-miterlimit="10" stroke-linecap="round" stroke-linejoin="round"/>
<path d="M4.5899 18.3886C4.78161 17.4115 5.63696 16.3604 5.63696 16.3604C5.63696 16.3604 4.45717 16.5232 4 17.7668" stroke="#5E42CC" stroke-width="0.7" stroke-miterlimit="10" stroke-linecap="round" stroke-linejoin="round"/>
<path d="M7.59863 16.0207C8.48348 16.0059 9.14711 15.6357 9.14711 15.6357" stroke="#5E42CC" stroke-width="0.7" stroke-miterlimit="10" stroke-linecap="round" stroke-linejoin="round"/>
<path d="M6.18535 6C5.03505 6.04441 4.1797 7.18439 4.03223 8.1467C4.7401 6.72544 6.68676 6.51817 7.30615 7.28802" stroke="#5E42CC" stroke-width="0.7" stroke-miterlimit="10" stroke-linecap="round" stroke-linejoin="round"/>
<path d="M4.71094 7.33203L5.02063 9.13822C5.758 9.13822 7.97011 9.16783 9.06142 11.5514" stroke="#5E42CC" stroke-width="0.7" stroke-miterlimit="10" stroke-linecap="round" stroke-linejoin="round"/>
<path d="M6.79004 9.40527C7.66013 9.73098 8.13205 10.9006 8.04357 11.7592" stroke="#5E42CC" stroke-width="0.7" stroke-miterlimit="10" stroke-linecap="round" stroke-linejoin="round"/>
<path d="M3.33919 10.6638C3.85535 9.8199 5.0204 9.13887 5.0204 9.13887C5.0204 9.13887 3.85535 8.88719 3 9.87912" stroke="#5E42CC" stroke-width="0.7" stroke-miterlimit="10" stroke-linecap="round" stroke-linejoin="round"/>
<path d="M6.98145 9.50879C7.82205 9.80489 8.57416 9.68645 8.57416 9.68645" stroke="#5E42CC" stroke-width="0.7" stroke-miterlimit="10" stroke-linecap="round" stroke-linejoin="round"/>
<path d="M9.12305 5.07101C10.5897 6.54341 12.327 5.67141 12.327 5.67141C13.3095 5.9716 14.3917 5.6857 14.2208 4.02747" stroke="#5E42CC" stroke-width="0.7" stroke-miterlimit="10" stroke-linecap="round" stroke-linejoin="round"/>
<path d="M11.1445 3.12695C12.4688 3.39856 14.5478 3.856 16.0003 4.82807" stroke="#5E42CC" stroke-width="0.7" stroke-miterlimit="10" stroke-linecap="round" stroke-linejoin="round"/>
<path d="M12.3271 5.672C13.1103 6.72984 12.8967 9.24578 15.4884 9.60316" stroke="#5E42CC" stroke-width="0.7" stroke-miterlimit="10" stroke-linecap="round" stroke-linejoin="round"/>
<path d="M13.0104 7.32959C12.5832 8.40173 12.4978 9.31661 13.0104 10.2601" stroke="#5E42CC" stroke-width="0.7" stroke-miterlimit="10" stroke-linecap="round" stroke-linejoin="round"/>
<path d="M12.327 4.49957C12.327 4.82835 12.0564 5.09996 11.7289 5.09996C11.4014 5.09996 11.1309 4.82835 11.1309 4.49957C11.1309 4.17078 11.4014 3.89917 11.7289 3.89917C12.0707 3.89917 12.327 4.17078 12.327 4.49957Z" stroke="#5E42CC" stroke-width="0.7" stroke-miterlimit="10" stroke-linecap="round" stroke-linejoin="round"/>
<path d="M12 14.0135C13.519 15.5384 15.3182 14.6353 15.3182 14.6353C16.3357 14.9462 17.4565 14.6501 17.2796 12.9327" stroke="#5E42CC" stroke-width="0.7" stroke-miterlimit="10" stroke-linecap="round" stroke-linejoin="round"/>
<path d="M14.0938 12C15.4653 12.2813 17.6184 12.755 19.1226 13.7618" stroke="#5E42CC" stroke-width="0.7" stroke-miterlimit="10" stroke-linecap="round" stroke-linejoin="round"/>
<path d="M15.333 14.6357C16.1441 15.7313 15.9229 18.337 18.6069 18.7071" stroke="#5E42CC" stroke-width="0.7" stroke-miterlimit="10" stroke-linecap="round" stroke-linejoin="round"/>
<path d="M16.0259 16.3672C15.5835 17.4776 15.495 18.4251 16.0259 19.4022" stroke="#5E42CC" stroke-width="0.7" stroke-miterlimit="10" stroke-linecap="round" stroke-linejoin="round"/>
<path d="M15.3325 13.4216C15.3325 13.7621 15.0523 14.0434 14.7131 14.0434C14.374 14.0434 14.0938 13.7621 14.0938 13.4216C14.0938 13.0811 14.374 12.7998 14.7131 12.7998C15.0523 12.7998 15.3325 13.0811 15.3325 13.4216Z" stroke="#5E42CC" stroke-width="0.7" stroke-miterlimit="10" stroke-linecap="round" stroke-linejoin="round"/>
</g>
<defs>
<clipPath id="clip0_10842_113408">
<rect width="22" height="22" fill="white"/>
</clipPath>
</defs>
</svg>
