<svg width="22" height="22" viewBox="0 0 22 22" fill="none" xmlns="http://www.w3.org/2000/svg">
<path d="M3.56459 6.54452C4.32081 7.36593 5.17156 8.06674 6.11683 8.64694C7.06862 9.22062 8.08235 9.66066 9.158 9.96706C10.2337 10.2669 11.3419 10.4136 12.4828 10.4071C13.8322 10.4071 15.136 10.1855 16.3942 9.74215C17.6589 9.29885 18.8161 8.65998 19.8657 7.82553L19.3083 6.72054C18.35 7.52239 17.2874 8.13845 16.1204 8.56871C14.96 8.99897 13.7475 9.21736 12.4828 9.22388C10.8465 9.2304 9.29816 8.8914 7.83788 8.2069C6.37759 7.52239 5.13244 6.55756 4.10242 5.3124L3.56459 6.54452ZM2.55739 11.8152C3.76342 12.8518 5.07703 13.6732 6.4982 14.2795C7.92589 14.8857 9.39921 15.2769 10.9182 15.4529C12.4436 15.6224 13.9626 15.5703 15.475 15.2964C16.994 15.0226 18.451 14.5207 19.8461 13.7905L19.807 12.4313C18.4641 13.2201 17.0461 13.7677 15.5533 14.0741C14.0604 14.374 12.561 14.4392 11.0551 14.2697C9.54915 14.0937 8.09538 13.6895 6.69377 13.0571C5.29868 12.4183 4.01767 11.5577 2.85075 10.4756L2.55739 11.8152ZM7.15337 18.1714L8.57128 18.5039C8.24532 17.7411 7.9976 16.9588 7.8281 16.157C7.66512 15.3551 7.57711 14.537 7.56408 13.7025C7.47933 12.177 7.63579 10.6972 8.03345 9.263C8.43764 7.82227 9.04392 6.47933 9.85229 5.23417C10.6672 3.9825 11.6613 2.87751 12.8348 1.9192L11.5831 1.42048C10.4162 2.45051 9.43181 3.62069 8.62995 4.93103C7.8281 6.24138 7.2316 7.64299 6.84045 9.13587C6.45582 10.6288 6.29611 12.1607 6.3613 13.7319C6.37434 14.4816 6.44605 15.228 6.57643 15.9712C6.71333 16.7144 6.90564 17.4478 7.15337 18.1714ZM13.2846 19.0906L14.3896 18.6016C13.5226 17.3826 12.8576 16.0624 12.3948 14.6413C11.9319 13.2201 11.7005 11.7533 11.7005 10.2409C11.7005 8.81318 11.9058 7.42786 12.3165 6.08492C12.7337 4.73546 13.3302 3.48053 14.106 2.32012L12.9521 1.90942C12.1568 3.14805 11.5505 4.47795 11.1333 5.89912C10.7226 7.31378 10.5172 8.76102 10.5172 10.2409C10.5172 11.8446 10.7519 13.3961 11.2213 14.8955C11.6972 16.3949 12.385 17.7933 13.2846 19.0906ZM18.702 15.668L19.4941 14.7586C18.4575 14.1654 17.5612 13.4255 16.8049 12.5389C16.0552 11.6523 15.4718 10.6613 15.0546 9.56613C14.6373 8.4644 14.4222 7.30726 14.4092 6.0947C14.3961 5.45582 14.445 4.82021 14.5558 4.18785C14.6732 3.54898 14.8492 2.92966 15.0839 2.3299L13.9398 2.00721C13.6855 2.65912 13.4997 3.32733 13.3824 4.01184C13.2651 4.69635 13.2096 5.39389 13.2162 6.10448C13.2227 7.42134 13.4508 8.68279 13.9007 9.88883C14.3505 11.0949 14.9828 12.1933 15.7977 13.1843C16.6191 14.1752 17.5872 15.0031 18.702 15.668ZM7.5054 10.3093C7.91611 10.3093 8.26814 10.1626 8.5615 9.86927C8.85486 9.57591 9.00154 9.22062 9.00154 8.8034C9.00154 8.39921 8.85486 8.0537 8.5615 7.76686C8.26814 7.47349 7.91611 7.32681 7.5054 7.32681C7.10122 7.32681 6.75244 7.47349 6.45908 7.76686C6.16572 8.0537 6.01904 8.39921 6.01904 8.8034C6.01904 9.22062 6.16572 9.57591 6.45908 9.86927C6.75244 10.1626 7.10122 10.3093 7.5054 10.3093ZM14.6047 11.0721C15.0089 11.0721 15.3544 10.9286 15.6413 10.6418C15.9281 10.3549 16.0715 10.0062 16.0715 9.59547C16.0715 9.1978 15.9281 8.85555 15.6413 8.56871C15.3544 8.27535 15.0089 8.12867 14.6047 8.12867C14.194 8.12867 13.8453 8.27535 13.5584 8.56871C13.2781 8.85555 13.1379 9.1978 13.1379 9.59547C13.1379 10.0062 13.2781 10.3549 13.5584 10.6418C13.8453 10.9286 14.194 11.0721 14.6047 11.0721ZM11.8471 16.3819C12.2578 16.3819 12.6066 16.2352 12.8935 15.9418C13.1803 15.6485 13.3237 15.2997 13.3237 14.8955C13.3237 14.4848 13.1803 14.136 12.8935 13.8492C12.6066 13.5558 12.2578 13.4092 11.8471 13.4092C11.4299 13.4092 11.0746 13.5558 10.7813 13.8492C10.4944 14.136 10.351 14.4848 10.351 14.8955C10.351 15.2997 10.4944 15.6485 10.7813 15.9418C11.0746 16.2352 11.4299 16.3819 11.8471 16.3819ZM11.5049 20C12.8022 20 14.0245 19.749 15.1719 19.247C16.3193 18.7516 17.3297 18.0671 18.2033 17.1935C19.0769 16.32 19.7614 15.3127 20.2568 14.1719C20.7523 13.0245 21 11.7989 21 10.4951C21 9.1978 20.749 7.97547 20.247 6.8281C19.7516 5.68073 19.0671 4.67027 18.1935 3.79671C17.32 2.92314 16.3095 2.23863 15.1621 1.74318C14.0148 1.24773 12.7924 1 11.4951 1C10.1978 1 8.97547 1.24773 7.8281 1.74318C6.68725 2.23863 5.67679 2.92314 4.79671 3.79671C3.92314 4.67027 3.23863 5.68073 2.74318 6.8281C2.24773 7.97547 2 9.1978 2 10.4951C2 11.7989 2.24773 13.0245 2.74318 14.1719C3.24515 15.3127 3.93292 16.32 4.80648 17.1935C5.68005 18.0671 6.68725 18.7516 7.8281 19.247C8.97547 19.749 10.2011 20 11.5049 20ZM11.5049 18.6114C10.3966 18.6114 9.35032 18.3996 8.36593 17.9758C7.38806 17.5521 6.52427 16.9686 5.77458 16.2254C5.02488 15.4757 4.43815 14.6119 4.01441 13.6341C3.59067 12.6497 3.3788 11.6034 3.3788 10.4951C3.3788 9.38686 3.59067 8.3438 4.01441 7.36593C4.43815 6.38154 5.02488 5.51776 5.77458 4.77458C6.52427 4.02488 7.38806 3.43815 8.36593 3.01441C9.3438 2.59067 10.3869 2.3788 11.4951 2.3788C12.6099 2.3788 13.6562 2.59067 14.6341 3.01441C15.6119 3.43815 16.4757 4.02488 17.2254 4.77458C17.9751 5.51776 18.5618 6.38154 18.9856 7.36593C19.4093 8.3438 19.6212 9.38686 19.6212 10.4951C19.6212 11.6034 19.4093 12.6497 18.9856 13.6341C18.5618 14.6119 17.9751 15.4757 17.2254 16.2254C16.4757 16.9686 15.6119 17.5521 14.6341 17.9758C13.6562 18.3996 12.6131 18.6114 11.5049 18.6114Z" fill="#5E42CC"/>
</svg>
