<svg width="24" height="22" viewBox="0 0 24 22" fill="none" xmlns="http://www.w3.org/2000/svg">
<circle cx="10" cy="11" r="8.25" stroke="#5E42CC" stroke-width="1.5"/>
<path d="M7.9498 9.95C7.9498 10.4747 7.52448 10.9 6.9998 10.9C6.47513 10.9 6.0498 10.4747 6.0498 9.95C6.0498 9.42533 6.47513 9 6.9998 9C7.52448 9 7.9498 9.42533 7.9498 9.95Z" fill="#5E42CC"/>
<path d="M14.0504 9.95C14.0504 10.4747 13.6251 10.9 13.1004 10.9C12.5757 10.9 12.1504 10.4747 12.1504 9.95C12.1504 9.42533 12.5757 9 13.1004 9C13.6251 9 14.0504 9.42533 14.0504 9.95Z" fill="#5E42CC"/>
<path d="M21 2V6M19 4H23" stroke="#5E42CC" stroke-width="1.5" stroke-linecap="round"/>
<path d="M7 14C7 14 8 15.5 10 15.5C12 15.5 13 14 13 14" stroke="#5E42CC" stroke-width="1.5" stroke-linecap="round"/>
</svg>
