<svg width="22" height="22" viewBox="0 0 22 22" fill="none" xmlns="http://www.w3.org/2000/svg">
<path d="M10.462 20.6364C10.7796 20.6364 11.0275 20.5505 11.2057 20.3787C11.3916 20.2069 11.4846 19.9636 11.4846 19.6487V11.8758L10.6131 11.9939C10.9229 12.7955 11.4032 13.5363 12.0539 14.2163C12.7047 14.8962 13.491 15.5082 14.4128 16.0521C15.3347 16.5889 16.365 17.0362 17.5038 17.3941C17.8446 17.5158 18.1429 17.5158 18.3985 17.3941C18.6542 17.2653 18.8285 17.0935 18.9214 16.8788C19.0222 16.6712 19.026 16.4458 18.9331 16.2024C18.8479 15.9591 18.6348 15.7694 18.294 15.6334C17.2946 15.2469 16.3766 14.8103 15.54 14.3236C14.7111 13.8369 13.9906 13.2894 13.3786 12.681C12.7744 12.0655 12.3057 11.382 11.9726 10.6305C11.6472 9.87178 11.4846 9.03437 11.4846 8.11824V4.47875H9.41618V19.6487C9.41618 19.9636 9.50527 20.2069 9.68344 20.3787C9.86936 20.5505 10.1289 20.6364 10.462 20.6364ZM7.82422 5.82074H13.0881C13.4987 5.82074 13.7544 5.7098 13.8551 5.48793C13.9558 5.25889 13.8899 4.99407 13.6575 4.69347L11.1127 1.36532C10.9268 1.12197 10.706 1.0003 10.4504 1.0003C10.2025 0.993141 9.98169 1.11482 9.78802 1.36532L7.24321 4.68273C7.01081 4.9905 6.94496 5.25889 7.04567 5.48793C7.14638 5.7098 7.40589 5.82074 7.82422 5.82074Z" fill="#5E42CC"/>
</svg>
