<svg width="22" height="22" viewBox="0 0 22 22" fill="none" xmlns="http://www.w3.org/2000/svg">
<path fill-rule="evenodd" clip-rule="evenodd" d="M15.3025 1.74976H6.65051C3.63851 1.74976 1.74951 3.88376 1.74951 6.90376V15.0498C1.74951 18.0698 3.63051 20.2038 6.65051 20.2038H15.2975C18.3225 20.2038 20.2025 18.0698 20.2025 15.0498V6.90376C20.2065 3.88376 18.3255 1.74976 15.3025 1.74976Z" stroke="#5E42CC" stroke-width="1.5" stroke-linecap="round" stroke-linejoin="round"/>
<path fill-rule="evenodd" clip-rule="evenodd" d="M9.70274 7.78496C9.70274 8.80496 8.87674 9.63096 7.85674 9.63096C6.83774 9.63096 6.01074 8.80496 6.01074 7.78496C6.01074 6.76496 6.83774 5.93896 7.85674 5.93896C8.87574 5.93996 9.70174 6.76596 9.70274 7.78496Z" stroke="#5E42CC" stroke-width="1.5" stroke-linecap="round" stroke-linejoin="round"/>
<path d="M20.207 13.9509C19.284 13.0009 17.509 11.0819 15.579 11.0819C13.648 11.0819 12.535 15.3149 10.678 15.3149C8.821 15.3149 7.134 13.4009 5.646 14.6279C4.158 15.8539 2.75 18.3609 2.75 18.3609" stroke="#5E42CC" stroke-width="1.5" stroke-linecap="round" stroke-linejoin="round"/>
</svg>
