<svg width="22" height="22" viewBox="0 0 22 22" fill="none" xmlns="http://www.w3.org/2000/svg">
<path fill-rule="evenodd" clip-rule="evenodd" d="M16.857 19.4171C18.73 19.4171 20.249 17.8991 20.25 16.0261V16.0241V13.3241C19.013 13.3241 18.011 12.3221 18.01 11.0851C18.01 9.84912 19.012 8.84612 20.249 8.84612H20.25V6.14612C20.252 4.27212 18.735 2.75212 16.862 2.75012H16.856H5.144C3.27 2.75012 1.751 4.26812 1.75 6.14212V6.14312V8.93312C2.944 8.89112 3.945 9.82512 3.987 11.0191C3.988 11.0411 3.989 11.0631 3.989 11.0851C3.99 12.3201 2.991 13.3221 1.756 13.3241H1.75V16.0241C1.749 17.8971 3.268 19.4171 5.141 19.4171H5.142H16.857Z" stroke="#5E42CC" stroke-width="1.5" stroke-linecap="round" stroke-linejoin="round"/>
<path fill-rule="evenodd" clip-rule="evenodd" d="M11.3711 8.06315L11.9871 9.31015C12.0471 9.43215 12.1631 9.51715 12.2981 9.53715L13.6751 9.73815C14.0161 9.78815 14.1511 10.2062 13.9051 10.4452L12.9091 11.4152C12.8111 11.5102 12.7671 11.6472 12.7891 11.7822L13.0241 13.1522C13.0821 13.4912 12.7271 13.7492 12.4231 13.5892L11.1921 12.9422C11.0711 12.8782 10.9271 12.8782 10.8061 12.9422L9.57609 13.5892C9.27109 13.7492 8.91609 13.4912 8.97409 13.1522L9.20909 11.7822C9.23209 11.6472 9.18709 11.5102 9.08909 11.4152L8.09409 10.4452C7.84809 10.2062 7.98309 9.78815 8.32309 9.73815L9.70009 9.53715C9.83509 9.51715 9.95209 9.43215 10.0121 9.31015L10.6271 8.06315C10.7791 7.75515 11.2191 7.75515 11.3711 8.06315Z" stroke="#5E42CC" stroke-width="1.5" stroke-linecap="round" stroke-linejoin="round"/>
</svg>
