<svg width="22" height="22" viewBox="0 0 22 22" fill="none" xmlns="http://www.w3.org/2000/svg">
<path d="M17.3836 19.0822C17.0053 19.0822 16.6987 18.7755 16.6987 18.3973V17.0866C16.6987 14.7361 14.8825 13.3304 13.137 11.9589C12.8959 11.7699 12.589 11.4109 12.589 10.863C12.589 10.3151 12.8655 9.78082 13.137 9.5523C14.8353 8.12328 16.6987 6.77504 16.6987 4.42465V3.60274C16.6987 3.22446 17.0053 2.91781 17.3836 2.91781V2.91781C17.7619 2.91781 18.0685 2.61116 18.0685 2.23289V1.95891C18.0685 1.42932 17.6392 1 17.1096 1H3.95891C3.42932 1 3 1.42932 3 1.95891V2.23289C3 2.61116 3.30665 2.91781 3.68492 2.91781V2.91781C4.06319 2.91781 4.36984 3.22446 4.36984 3.60273V4.42469C4.36984 6.77512 6.23312 8.12332 7.93152 9.55234C8.20305 9.78086 8.47949 10.3151 8.47949 10.863C8.47949 11.411 8.17262 11.7699 7.93152 11.9589C6.18605 13.3305 4.36984 14.7362 4.36984 17.0866V18.3973C4.36984 18.7756 4.06319 19.0822 3.68492 19.0822V19.0822C3.30665 19.0822 3 19.3889 3 19.7671V20.0411C3 20.5707 3.42931 21 3.95889 21H17.1096C17.6392 21 18.0685 20.5707 18.0685 20.0411V19.7671C18.0685 19.3888 17.7618 19.0822 17.3836 19.0822V19.0822ZM7.0748 6.20548C7.0748 6.20547 7.0748 6.20547 7.0748 6.20546C6.56984 5.63394 6.28769 5.08382 6.28769 4.42465V3.91781C6.28769 3.36553 6.73541 2.91781 7.28769 2.91781H13.7808C14.3331 2.91781 14.7808 3.36553 14.7808 3.91781V4.42469C14.7808 4.94824 14.6028 5.40306 14.2765 5.85441C14.1085 6.08676 13.8295 6.20551 13.5428 6.20551H7.07483C7.07482 6.20551 7.0748 6.2055 7.0748 6.20548V6.20548ZM14.7808 18.5477C14.7808 18.5477 14.7808 18.5477 14.7808 18.5477L11.5554 17.2888C10.9937 17.0696 10.0751 17.0696 9.51344 17.2888L7.6488 18.0166C6.99428 18.272 6.28769 17.7893 6.28769 17.0867V17.0867C6.28769 15.7568 7.34469 14.8587 9.06961 13.5037L9.11535 13.4678C9.71637 12.9965 10.1235 12.3554 10.2978 11.6439C10.3234 11.5395 10.4267 11.4729 10.5342 11.4729V11.4729C10.6417 11.4729 10.7451 11.5396 10.7707 11.644C10.9446 12.3552 11.3521 12.9963 11.9523 13.467L11.9989 13.5037C13.7238 14.8587 14.7808 15.7565 14.7808 17.0866V18.5477C14.7808 18.5477 14.7808 18.5477 14.7808 18.5477V18.5477Z" fill="#5E42CC"/>
</svg>
