<svg width="22" height="22" viewBox="0 0 22 22" fill="none" xmlns="http://www.w3.org/2000/svg">
<path d="M4.73438 18.4937H14.1094C15.2604 18.4937 15.8359 18.1135 15.8359 17.3531C15.8359 16.8687 15.6875 16.3557 15.3906 15.814C15.099 15.2671 14.6745 14.7541 14.1172 14.2749C13.5651 13.7958 12.8906 13.4051 12.0938 13.1031C11.3021 12.7958 10.4115 12.6421 9.42188 12.6421C8.42188 12.6421 7.52604 12.7958 6.73438 13.1031C5.94792 13.4051 5.27604 13.7958 4.71875 14.2749C4.16146 14.7541 3.73438 15.2671 3.4375 15.814C3.14583 16.3557 3 16.8687 3 17.3531C3 18.1135 3.57812 18.4937 4.73438 18.4937ZM4.42188 17.4781C4.29688 17.4781 4.20833 17.4598 4.15625 17.4234C4.10938 17.3869 4.08594 17.3218 4.08594 17.2281C4.08594 16.9103 4.20052 16.5484 4.42969 16.1421C4.66406 15.7307 5.00781 15.3374 5.46094 14.9624C5.91927 14.5874 6.47917 14.2775 7.14062 14.0327C7.80208 13.7827 8.5625 13.6577 9.42188 13.6577C10.276 13.6577 11.0339 13.7827 11.6953 14.0327C12.362 14.2775 12.9219 14.5874 13.375 14.9624C13.8281 15.3374 14.1719 15.7307 14.4062 16.1421C14.6406 16.5484 14.7578 16.9103 14.7578 17.2281C14.7578 17.3218 14.7318 17.3869 14.6797 17.4234C14.6276 17.4598 14.5391 17.4781 14.4141 17.4781H4.42188ZM9.42188 11.5952C10.0052 11.5952 10.5339 11.4416 11.0078 11.1343C11.487 10.8218 11.8672 10.4051 12.1484 9.8843C12.4349 9.36347 12.5781 8.78795 12.5781 8.15774C12.5781 7.53274 12.4375 6.96763 12.1562 6.46243C11.875 5.95722 11.4948 5.55618 11.0156 5.2593C10.5417 4.95722 10.0104 4.80618 9.42188 4.80618C8.84375 4.80618 8.3151 4.95722 7.83594 5.2593C7.35677 5.56138 6.97656 5.96763 6.69531 6.47805C6.41406 6.98847 6.27344 7.55357 6.27344 8.17336C6.27344 8.80357 6.41406 9.37909 6.69531 9.89993C6.98177 10.4156 7.36198 10.827 7.83594 11.1343C8.3151 11.4416 8.84375 11.5952 9.42188 11.5952ZM9.42188 10.5874C9.04688 10.5874 8.70312 10.4807 8.39062 10.2671C8.07812 10.0536 7.82552 9.76451 7.63281 9.39993C7.44531 9.03013 7.35156 8.62128 7.35156 8.17336C7.34635 7.73065 7.4375 7.33222 7.625 6.97805C7.8125 6.62388 8.0625 6.34263 8.375 6.1343C8.69271 5.92597 9.04167 5.8218 9.42188 5.8218C9.80729 5.8218 10.1562 5.92597 10.4688 6.1343C10.7812 6.33743 11.0312 6.61607 11.2188 6.97024C11.4062 7.3244 11.5 7.72024 11.5 8.15774C11.5 8.61086 11.4062 9.02232 11.2188 9.39211C11.0312 9.7567 10.7786 10.0484 10.4609 10.2671C10.1484 10.4807 9.80208 10.5874 9.42188 10.5874ZM14.9453 11.2906C15.0599 11.3687 15.1875 11.3947 15.3281 11.3687C15.4688 11.3426 15.5833 11.2645 15.6719 11.1343C15.9531 10.7645 16.1745 10.3192 16.3359 9.79836C16.4974 9.27753 16.5781 8.73065 16.5781 8.15774C16.5781 7.58482 16.4974 7.04055 16.3359 6.52493C16.1745 6.00409 15.9531 5.55618 15.6719 5.18118C15.5833 5.05097 15.4688 4.97545 15.3281 4.95461C15.1875 4.92857 15.0599 4.95461 14.9453 5.03274C14.8099 5.12128 14.7318 5.24107 14.7109 5.39211C14.6953 5.54315 14.7396 5.68899 14.8438 5.82961C15.0677 6.14211 15.2396 6.49888 15.3594 6.89993C15.4844 7.29576 15.5469 7.71503 15.5469 8.15774C15.5469 8.60045 15.4844 9.02232 15.3594 9.42336C15.2396 9.8192 15.0677 10.176 14.8438 10.4937C14.7396 10.6343 14.6953 10.7775 14.7109 10.9234C14.7318 11.0692 14.8099 11.1916 14.9453 11.2906ZM17.625 13.2202C17.75 13.3036 17.8802 13.3322 18.0156 13.3062C18.1562 13.2749 18.2708 13.1968 18.3594 13.0718C18.8333 12.426 19.2031 11.6734 19.4688 10.814C19.7344 9.95461 19.8672 9.0692 19.8672 8.15774C19.8672 7.24107 19.7344 6.35305 19.4688 5.49368C19.2083 4.62909 18.8385 3.87909 18.3594 3.24368C18.2708 3.11347 18.1562 3.03534 18.0156 3.0093C17.8802 2.98326 17.75 3.0119 17.625 3.09524C17.5 3.17857 17.4297 3.29315 17.4141 3.43899C17.3984 3.57961 17.4375 3.71763 17.5312 3.85305C17.9479 4.43638 18.2682 5.10045 18.4922 5.84524C18.7214 6.58482 18.8359 7.35565 18.8359 8.15774C18.8359 8.95461 18.7188 9.72545 18.4844 10.4702C18.2552 11.215 17.9375 11.8791 17.5312 12.4624C17.4375 12.5978 17.3984 12.7359 17.4141 12.8765C17.4297 13.0171 17.5 13.1317 17.625 13.2202Z" fill="#5E42CC"/>
</svg>
