<svg width="22" height="22" viewBox="0 0 22 22" fill="none" xmlns="http://www.w3.org/2000/svg">
<path d="M2 13.5781C2 16.2266 3.6875 18.3906 5.89062 18.3906H8.32031C9.32812 18.8906 10.5078 19.1875 11.8047 19.1875H12.8438C13.8203 19.1875 14.6484 19.125 15.1797 18.9922C16.2891 18.7188 16.9922 17.9219 16.9922 16.9375C16.9922 16.7656 16.9609 16.6094 16.9141 16.4609C17.4219 16.0547 17.7109 15.4688 17.7109 14.8281C17.7109 14.5312 17.6562 14.25 17.5547 14.0078C17.8984 13.6406 18.0938 13.1172 18.0938 12.5703C18.0938 12.2109 18.0078 11.8516 17.8594 11.5781C18.0703 11.25 18.1875 10.8281 18.1875 10.3594C18.1875 9.15625 17.2734 8.23438 16.0781 8.23438H13.3438C13.1953 8.23438 13.0938 8.16406 13.1016 8.02344C13.1562 7.27344 14.3359 5.46094 14.3359 3.96094C14.3359 2.82812 13.5312 2 12.4375 2C11.6406 2 11.0938 2.42188 10.5781 3.40625C9.64844 5.1875 8.51562 6.75 6.90625 8.74219H5.60938C3.54688 8.74219 2 10.8906 2 13.5781ZM6.70312 13.5156C6.70312 11.9609 7.05469 10.9609 8.05469 9.61719C9.17188 8.125 10.7266 6.3125 11.8516 4.07812C12.0703 3.64062 12.2266 3.53125 12.4453 3.53125C12.7188 3.53125 12.8906 3.72656 12.8906 4.0625C12.8906 5.125 11.6406 6.96094 11.6406 8.17969C11.6406 9.08594 12.3672 9.67188 13.3672 9.67188H16.0312C16.4375 9.67188 16.7422 9.98438 16.7422 10.3906C16.7422 10.6797 16.6484 10.875 16.4062 11.1172C16.1953 11.3281 16.1641 11.6484 16.3516 11.8594C16.5547 12.1484 16.6406 12.3359 16.6406 12.5703C16.6406 12.8594 16.5078 13.1094 16.2188 13.3203C15.9531 13.5156 15.8516 13.8438 16.0156 14.1562C16.1641 14.4453 16.2344 14.5938 16.2344 14.8125C16.2344 15.1562 16.0234 15.4141 15.5781 15.6484C15.3125 15.7969 15.2422 16.0938 15.3516 16.3438C15.5 16.7031 15.5234 16.7734 15.5156 16.9297C15.5156 17.2266 15.2969 17.4766 14.8125 17.5938C14.3828 17.7031 13.6875 17.75 12.7422 17.7422L11.8203 17.7344C8.76562 17.7031 6.70312 16 6.70312 13.5156ZM3.41406 13.5781C3.41406 11.7188 4.35938 10.2344 5.46094 10.1719C5.64062 10.1719 5.82031 10.1641 6.00781 10.1641C5.48438 11.1875 5.25781 12.25 5.25781 13.5234C5.25781 14.875 5.72656 16.0703 6.57031 17.0078C6.32031 17.0078 6.04688 17.0078 5.78906 17.0078C4.5 16.9375 3.41406 15.4375 3.41406 13.5781Z" fill="#5E42CC"/>
</svg>
