<svg width="22" height="22" viewBox="0 0 22 22" fill="none" xmlns="http://www.w3.org/2000/svg">
<path fill-rule="evenodd" clip-rule="evenodd" d="M20.21 6.89924V15.0502C20.21 18.0702 18.32 20.2002 15.3 20.2002H6.65C3.63 20.2002 1.75 18.0702 1.75 15.0502V6.89924C1.75 3.87924 3.64 1.75024 6.65 1.75024H15.3C18.32 1.75024 20.21 3.87924 20.21 6.89924Z" stroke="#5E42CC" stroke-width="1.5" stroke-linecap="round" stroke-linejoin="round"/>
<path d="M4.28125 15.4309L5.80925 13.8179C6.34025 13.2549 7.22525 13.2279 7.78925 13.7579C7.80625 13.7749 8.72625 14.7099 8.72625 14.7099C9.28125 15.2749 10.1883 15.2839 10.7533 14.7299C10.7903 14.6939 13.0872 11.9079 13.0872 11.9079C13.6792 11.1889 14.7422 11.0859 15.4622 11.6789C15.5102 11.7189 17.6803 13.9459 17.6803 13.9459" stroke="#5E42CC" stroke-width="1.5" stroke-linecap="round" stroke-linejoin="round"/>
<path fill-rule="evenodd" clip-rule="evenodd" d="M9.31269 8.13315C9.31269 9.10215 8.52769 9.88715 7.55869 9.88715C6.58969 9.88715 5.80469 9.10215 5.80469 8.13315C5.80469 7.16415 6.58969 6.37915 7.55869 6.37915C8.52769 6.38015 9.31269 7.16415 9.31269 8.13315Z" stroke="#5E42CC" stroke-width="1.5" stroke-linecap="round" stroke-linejoin="round"/>
</svg>
