<svg width="22" height="22" viewBox="0 0 22 22" fill="none" xmlns="http://www.w3.org/2000/svg">
<path d="M18.3248 8.46826C18.3248 8.46826 17.7818 15.2033 17.4668 18.0403C17.3168 19.3953 16.4798 20.1893 15.1088 20.2143C12.4998 20.2613 9.88779 20.2643 7.27979 20.2093C5.96079 20.1823 5.13779 19.3783 4.99079 18.0473C4.67379 15.1853 4.13379 8.46826 4.13379 8.46826" stroke="#5E42CC" stroke-width="1.5" stroke-linecap="round" stroke-linejoin="round"/>
<path d="M19.708 5.23975H2.75" stroke="#5E42CC" stroke-width="1.5" stroke-linecap="round" stroke-linejoin="round"/>
<path d="M16.4406 5.23973C15.6556 5.23973 14.9796 4.68473 14.8256 3.91573L14.5826 2.69973C14.4326 2.13873 13.9246 1.75073 13.3456 1.75073H9.11258C8.53358 1.75073 8.02558 2.13873 7.87558 2.69973L7.63258 3.91573C7.47858 4.68473 6.80258 5.23973 6.01758 5.23973" stroke="#5E42CC" stroke-width="1.5" stroke-linecap="round" stroke-linejoin="round"/>
</svg>
