<svg width="22" height="22" viewBox="0 0 22 22" fill="none" xmlns="http://www.w3.org/2000/svg">
<path d="M14.0296 8.50223L13.85 8.46613V8.64929V9.49929V9.62229L13.9706 9.64639L20.3109 10.913C20.43 10.9394 20.5167 11.0506 20.5167 11.1745V19.6745C20.5167 19.823 20.3941 19.9412 20.25 19.9412H14.0007H13.8507V20.0912V20.5078C13.8507 20.6583 13.7345 20.7745 13.584 20.7745V20.9245V21.0745H20.25C21.0245 21.0745 21.65 20.449 21.65 19.6745V11.1745C21.65 10.5119 21.2004 9.95072 20.5393 9.81106L20.5393 9.81105L20.5379 9.81076L14.0296 8.50223Z" fill="#5E42CC" stroke="#5E42CC" stroke-width="0.3"/>
<path d="M17.816 12.9179C17.816 12.6017 17.5655 12.3512 17.2493 12.3512H15.5827C15.2665 12.3512 15.016 12.6017 15.016 12.9179C15.016 13.2341 15.2665 13.4845 15.5827 13.4845H17.2493C17.5655 13.4845 17.816 13.2341 17.816 12.9179Z" fill="#5E42CC" stroke="#5E42CC" stroke-width="0.3"/>
<path d="M17.816 15.4179C17.816 15.1017 17.5655 14.8512 17.2493 14.8512H15.5827C15.2665 14.8512 15.016 15.1017 15.016 15.4179C15.016 15.7341 15.2665 15.9845 15.5827 15.9845H17.2493C17.5655 15.9845 17.816 15.7341 17.816 15.4179Z" fill="#5E42CC" stroke="#5E42CC" stroke-width="0.3"/>
<path d="M17.816 17.9179C17.816 17.6017 17.5655 17.3512 17.2493 17.3512H15.5827C15.2665 17.3512 15.016 17.6017 15.016 17.9179C15.016 18.2341 15.2665 18.4845 15.5827 18.4845H17.2493C17.5655 18.4845 17.816 18.2341 17.816 17.9179Z" fill="#5E42CC" stroke="#5E42CC" stroke-width="0.3"/>
<path d="M10.316 5.41789C10.316 5.10171 10.0655 4.85122 9.74935 4.85122H8.08268C7.76651 4.85122 7.51602 5.10171 7.51602 5.41789C7.51602 5.73407 7.76651 5.98456 8.08268 5.98456H9.74935C10.0655 5.98456 10.316 5.73407 10.316 5.41789Z" fill="#5E42CC" stroke="#5E42CC" stroke-width="0.3"/>
<path d="M9.74935 8.48456C10.0655 8.48456 10.316 8.23407 10.316 7.91789C10.316 7.60171 10.0655 7.35122 9.74935 7.35122H8.08268C7.76651 7.35122 7.51602 7.60171 7.51602 7.91789C7.51602 8.23407 7.76651 8.48456 8.08268 8.48456H9.74935Z" fill="#5E42CC" stroke="#5E42CC" stroke-width="0.3"/>
<path d="M10.316 10.4179C10.316 10.1017 10.0655 9.85122 9.74935 9.85122H8.08268C7.76651 9.85122 7.51602 10.1017 7.51602 10.4179C7.51602 10.7341 7.76651 10.9845 8.08268 10.9845H9.74935C10.0655 10.9845 10.316 10.7341 10.316 10.4179Z" fill="#5E42CC" stroke="#5E42CC" stroke-width="0.3"/>
<path d="M10.316 12.9179C10.316 12.6017 10.0655 12.3512 9.74935 12.3512H8.08268C7.76651 12.3512 7.51602 12.6017 7.51602 12.9179C7.51602 13.2341 7.76651 13.4845 8.08268 13.4845H9.74935C10.0655 13.4845 10.316 13.2341 10.316 12.9179Z" fill="#5E42CC" stroke="#5E42CC" stroke-width="0.3"/>
<path d="M5.58333 13.4845C5.89951 13.4845 6.15 13.2341 6.15 12.9179C6.15 12.6017 5.89951 12.3512 5.58333 12.3512H3.91667C3.60049 12.3512 3.35 12.6017 3.35 12.9179C3.35 13.2341 3.60049 13.4845 3.91667 13.4845H5.58333Z" fill="#5E42CC" stroke="#5E42CC" stroke-width="0.3"/>
<path d="M6.15 5.41789C6.15 5.10171 5.89951 4.85122 5.58333 4.85122H3.91667C3.60049 4.85122 3.35 5.10171 3.35 5.41789C3.35 5.73407 3.60049 5.98456 3.91667 5.98456H5.58333C5.89951 5.98456 6.15 5.73407 6.15 5.41789Z" fill="#5E42CC" stroke="#5E42CC" stroke-width="0.3"/>
<path d="M6.15 7.91789C6.15 7.60171 5.89951 7.35122 5.58333 7.35122H3.91667C3.60049 7.35122 3.35 7.60171 3.35 7.91789C3.35 8.23407 3.60049 8.48456 3.91667 8.48456H5.58333C5.89951 8.48456 6.15 8.23407 6.15 7.91789Z" fill="#5E42CC" stroke="#5E42CC" stroke-width="0.3"/>
<path d="M6.15 10.4179C6.15 10.1017 5.89951 9.85122 5.58333 9.85122H3.91667C3.60049 9.85122 3.35 10.1017 3.35 10.4179C3.35 10.7341 3.60049 10.9845 3.91667 10.9845H5.58333C5.89951 10.9845 6.15 10.7341 6.15 10.4179Z" fill="#5E42CC" stroke="#5E42CC" stroke-width="0.3"/>
<path d="M5.16732 19.6493H5.31732V19.4993V16.2512C5.31732 16.1007 5.43349 15.9846 5.58398 15.9846H8.08398C8.2281 15.9846 8.35065 16.1027 8.35065 16.2512V19.4993V19.6493H8.50065H9.33398H9.48398V19.4993V16.2512C9.48398 15.4767 8.85849 14.8512 8.08398 14.8512H5.58398C4.80948 14.8512 4.18398 15.4767 4.18398 16.2512V19.4993V19.6493H4.33398H5.16732Z" fill="#5E42CC" stroke="#5E42CC" stroke-width="0.3"/>
<path d="M11.6833 3.62633V8.75133V19.8513H4.33333H2.25C2.10589 19.8513 1.98333 19.7332 1.98333 19.5847V2.23466C1.98333 2.15458 2.01325 2.08832 2.07936 2.03323L2.07941 2.03329L2.08299 2.03011C2.12941 1.98885 2.1852 1.968 2.25 1.968C2.26353 1.968 2.26979 1.96808 2.27504 1.96852C2.27682 1.96867 2.27788 1.96882 2.27838 1.9689L2.28982 1.97272L2.3026 1.97465L11.4597 3.35779C11.5865 3.37944 11.6833 3.49136 11.6833 3.62633ZM11.641 2.24498L11.641 2.24497L11.6392 2.2447L2.4819 0.853195C2.48172 0.853166 2.48155 0.853138 2.48137 0.85311C2.07281 0.788265 1.66241 0.899728 1.34531 1.1697C1.02656 1.43271 0.85 1.82551 0.85 2.23466V19.5847C0.85 20.3592 1.47549 20.9847 2.25 20.9847H4.75H11.6667C12.3018 20.9847 12.8167 20.4698 12.8167 19.8347V8.40966V3.62633C12.8167 2.9357 12.3213 2.35682 11.641 2.24498Z" fill="#5E42CC" stroke="#5E42CC" stroke-width="0.3"/>
</svg>
