<svg width="22" height="22" viewBox="0 0 22 22" fill="none" xmlns="http://www.w3.org/2000/svg">
<path d="M10.0746 20C11.5859 20 12.867 19.5852 13.9178 18.7557C14.9745 17.9262 15.7892 16.688 16.3618 15.0411L17.8406 10.7725C17.9469 10.4697 18 10.1821 18 9.90966C18 9.43133 17.8465 9.04079 17.5395 8.73805C17.2326 8.43531 16.8547 8.28394 16.4061 8.28394C16.1109 8.28394 15.8364 8.37173 15.5825 8.54732C15.3346 8.72291 15.1398 8.97721 14.9981 9.31023L14.5022 10.5636C14.4904 10.5999 14.4668 10.6181 14.4314 10.6181C14.39 10.6181 14.3694 10.5938 14.3694 10.5454V3.79732C14.3694 3.27055 14.2188 2.85277 13.9178 2.54398C13.6226 2.23518 13.2271 2.08078 12.7312 2.08078C12.5659 2.08078 12.4094 2.11106 12.2619 2.17161C12.1202 2.2261 11.9903 2.30481 11.8722 2.40774C11.8073 1.9718 11.6361 1.6297 11.3586 1.38145C11.0871 1.12715 10.7388 1 10.3137 1C9.90639 1 9.56104 1.12715 9.27767 1.38145C9.00021 1.63576 8.82606 1.97482 8.75522 2.39866C8.54269 2.18674 8.27704 2.08078 7.95825 2.08078C7.50369 2.08078 7.13472 2.23215 6.85136 2.53489C6.5739 2.83764 6.43517 3.23423 6.43517 3.72467V4.60564C6.323 4.49665 6.19017 4.41189 6.03669 4.35134C5.8832 4.29079 5.7238 4.26052 5.55851 4.26052C5.09804 4.26052 4.72317 4.41794 4.4339 4.73279C4.14463 5.04764 4 5.45634 4 5.95889V13.4063C4 14.7747 4.25385 15.9524 4.76154 16.9393C5.26924 17.9202 5.97765 18.674 6.88678 19.2008C7.79591 19.7336 8.85853 20 10.0746 20ZM10.0304 18.674C9.03858 18.674 8.18258 18.4621 7.46237 18.0382C6.74215 17.6205 6.19017 17.0089 5.80645 16.2036C5.42273 15.3983 5.23087 14.4205 5.23087 13.2701V6.10421C5.23087 5.92862 5.27809 5.78936 5.37255 5.68642C5.47291 5.57744 5.60573 5.52294 5.77103 5.52294C5.93633 5.52294 6.07211 5.57744 6.17837 5.68642C6.28463 5.78936 6.33776 5.92862 6.33776 6.10421V10.5091C6.33776 10.6847 6.39384 10.827 6.50601 10.9359C6.62408 11.0389 6.7569 11.0903 6.90449 11.0903C7.06388 11.0903 7.20261 11.0389 7.32068 10.9359C7.43875 10.827 7.49779 10.6847 7.49779 10.5091V3.90631C7.49779 3.73677 7.54501 3.59751 7.63947 3.48853C7.73983 3.37954 7.87265 3.32505 8.03795 3.32505C8.19734 3.32505 8.33017 3.37954 8.43643 3.48853C8.54269 3.59751 8.59583 3.73677 8.59583 3.90631V10.0641C8.59583 10.2336 8.65486 10.3759 8.77293 10.4909C8.891 10.5999 9.02382 10.6544 9.17141 10.6544C9.3249 10.6544 9.46068 10.5999 9.57875 10.4909C9.69682 10.3759 9.75585 10.2336 9.75585 10.0641V2.82553C9.75585 2.65599 9.80603 2.51673 9.90639 2.40774C10.0127 2.2927 10.1484 2.23518 10.3137 2.23518C10.4731 2.23518 10.603 2.2927 10.7034 2.40774C10.8096 2.51673 10.8627 2.65599 10.8627 2.82553V10.0096C10.8627 10.1791 10.9188 10.3214 11.031 10.4364C11.1432 10.5454 11.276 10.5999 11.4295 10.5999C11.5948 10.5999 11.7335 10.5454 11.8457 10.4364C11.9637 10.3214 12.0228 10.1791 12.0228 10.0096V3.90631C12.0228 3.73677 12.0729 3.59751 12.1733 3.48853C12.2737 3.37954 12.4094 3.32505 12.5806 3.32505C12.74 3.32505 12.8699 3.37954 12.9703 3.48853C13.0706 3.59751 13.1208 3.73677 13.1208 3.90631V12.4163C13.1208 12.6464 13.1828 12.825 13.3068 12.9522C13.4366 13.0793 13.596 13.1429 13.7849 13.1429C13.9384 13.1429 14.0831 13.1005 14.2188 13.0158C14.3546 12.931 14.4697 12.7766 14.5642 12.5526L15.7774 9.79159C15.8541 9.616 15.9574 9.49793 16.0873 9.43738C16.2231 9.37078 16.3588 9.36775 16.4946 9.4283C16.654 9.48279 16.7544 9.5827 16.7957 9.72801C16.8429 9.87333 16.8311 10.0429 16.7603 10.2366L15.2106 14.6324C14.7029 16.0977 14.0093 17.1361 13.1297 17.7476C12.256 18.3652 11.2229 18.674 10.0304 18.674Z" fill="#5E42CC"/>
</svg>
