<svg width="22" height="22" viewBox="0 0 22 22" fill="none" xmlns="http://www.w3.org/2000/svg">
<path fill-rule="evenodd" clip-rule="evenodd" d="M19.8064 6.62361L19.184 5.54352C18.6574 4.6296 17.4905 4.31432 16.5753 4.83872V4.83872C16.1397 5.09534 15.6198 5.16815 15.1305 5.04109C14.6411 4.91402 14.2224 4.59752 13.9666 4.16137C13.8021 3.88415 13.7137 3.56839 13.7103 3.24604V3.24604C13.7251 2.72922 13.5302 2.2284 13.1698 1.85767C12.8094 1.48694 12.3143 1.27786 11.7973 1.27808H10.5433C10.0367 1.27807 9.55107 1.47991 9.19376 1.83895C8.83644 2.19798 8.63693 2.68459 8.63937 3.19112V3.19112C8.62435 4.23693 7.77224 5.07681 6.72632 5.0767C6.40397 5.07336 6.08821 4.98494 5.81099 4.82041V4.82041C4.89582 4.29601 3.72887 4.61129 3.20229 5.52522L2.5341 6.62361C2.00817 7.53639 2.31916 8.70261 3.22975 9.23231V9.23231C3.82166 9.57404 4.18629 10.2056 4.18629 10.8891C4.18629 11.5725 3.82166 12.2041 3.22975 12.5458V12.5458C2.32031 13.0719 2.00898 14.2353 2.5341 15.1454V15.1454L3.16568 16.2346C3.4124 16.6798 3.82636 17.0083 4.31595 17.1474C4.80554 17.2866 5.3304 17.2249 5.77438 16.976V16.976C6.21084 16.7213 6.73094 16.6516 7.2191 16.7822C7.70725 16.9128 8.12299 17.233 8.37392 17.6717C8.53845 17.9489 8.62686 18.2646 8.63021 18.587V18.587C8.63021 19.6435 9.48671 20.5 10.5433 20.5H11.7973C12.8502 20.5001 13.7053 19.6491 13.7103 18.5962V18.5962C13.7079 18.088 13.9086 17.6 14.2679 17.2407C14.6272 16.8814 15.1152 16.6807 15.6233 16.6831C15.9449 16.6917 16.2594 16.7798 16.5387 16.9394V16.9394C17.4515 17.4653 18.6177 17.1544 19.1474 16.2438V16.2438L19.8064 15.1454C20.0615 14.7075 20.1315 14.186 20.001 13.6964C19.8704 13.2067 19.55 12.7894 19.1108 12.5367V12.5367C18.6715 12.284 18.3511 11.8666 18.2206 11.3769C18.09 10.8873 18.16 10.3658 18.4151 9.92796C18.581 9.63834 18.8211 9.3982 19.1108 9.23231V9.23231C20.0159 8.70289 20.3262 7.54349 19.8064 6.63277V6.63277V6.62361Z" stroke="#5E42CC" stroke-width="1.5" stroke-linecap="round" stroke-linejoin="round"/>
<circle cx="11.1747" cy="10.8891" r="2.63616" stroke="#5E42CC" stroke-width="1.5" stroke-linecap="round" stroke-linejoin="round"/>
</svg>
