<svg width="22" height="22" viewBox="0 0 22 22" fill="none" xmlns="http://www.w3.org/2000/svg">
<path d="M11.0051 21C12.3707 21 13.6574 20.7358 14.8652 20.2074C16.0729 19.6859 17.1366 18.9653 18.0561 18.0458C18.9756 17.1263 19.6962 16.066 20.2177 14.8652C20.7392 13.6574 21 12.3673 21 10.9949C21 9.62927 20.7358 8.3426 20.2074 7.13484C19.6859 5.92709 18.9653 4.86344 18.0458 3.9439C17.1263 3.02436 16.0626 2.30383 14.8549 1.7823C13.6471 1.26077 12.3604 1 10.9949 1C9.62927 1 8.3426 1.26077 7.13484 1.7823C5.93395 2.30383 4.8703 3.02436 3.9439 3.9439C3.02436 4.86344 2.30383 5.92709 1.7823 7.13484C1.26077 8.3426 1 9.62927 1 10.9949C1 12.3673 1.26077 13.6574 1.7823 14.8652C2.31069 16.066 3.03465 17.1263 3.95419 18.0458C4.87373 18.9653 5.93395 19.6859 7.13484 20.2074C8.3426 20.7358 9.6327 21 11.0051 21ZM11.0051 19.1678C9.87288 19.1678 8.81266 18.9551 7.8245 18.5296C6.83634 18.111 5.96826 17.5277 5.22028 16.7797C4.47229 16.0317 3.889 15.1637 3.47041 14.1755C3.05181 13.1873 2.84251 12.1271 2.84251 10.9949C2.84251 9.86258 3.05181 8.80237 3.47041 7.81421C3.889 6.82604 4.47229 5.95797 5.22028 5.20998C5.96826 4.462 6.8329 3.87871 7.81421 3.46011C8.80237 3.04152 9.86258 2.83222 10.9949 2.83222C12.1271 2.83222 13.1873 3.04152 14.1755 3.46011C15.1637 3.87871 16.0317 4.462 16.7797 5.20998C17.5277 5.95797 18.111 6.82604 18.5296 7.81421C18.9551 8.80237 19.1678 9.86258 19.1678 10.9949C19.1746 12.1271 18.9653 13.1873 18.5399 14.1755C18.1213 15.1637 17.538 16.0317 16.79 16.7797C16.0489 17.5277 15.1808 18.111 14.1858 18.5296C13.1976 18.9551 12.1374 19.1678 11.0051 19.1678ZM11.0051 15.8224C11.6776 15.8224 12.2678 15.7024 12.7756 15.4622C13.2903 15.2151 13.6883 14.9338 13.9696 14.6181C14.2578 14.3025 14.402 14.0383 14.402 13.8255C14.402 13.7089 14.3539 13.6265 14.2578 13.5785C14.1686 13.5305 14.0726 13.5339 13.9696 13.5888C13.6128 13.7741 13.2045 13.9559 12.7447 14.1343C12.2918 14.3127 11.712 14.402 11.0051 14.402C10.2915 14.402 9.70475 14.3127 9.24498 14.1343C8.79207 13.9559 8.39063 13.7741 8.04066 13.5888C7.93086 13.5339 7.82793 13.5305 7.73186 13.5785C7.63579 13.6265 7.58775 13.7089 7.58775 13.8255C7.58775 14.0383 7.72843 14.3025 8.00978 14.6181C8.29799 14.9338 8.696 15.2151 9.20381 15.4622C9.71848 15.7024 10.3189 15.8224 11.0051 15.8224ZM8.11271 10.1199C8.42151 10.1199 8.69257 9.9964 8.92589 9.74936C9.1592 9.50232 9.27586 9.18322 9.27586 8.79207C9.27586 8.40093 9.1592 8.08183 8.92589 7.83479C8.69943 7.58775 8.42838 7.46423 8.11271 7.46423C7.81077 7.46423 7.54658 7.58775 7.32012 7.83479C7.09367 8.08183 6.98044 8.40093 6.98044 8.79207C6.98044 9.18322 7.09367 9.50232 7.32012 9.74936C7.55344 9.9964 7.81764 10.1199 8.11271 10.1199ZM13.877 10.1199C14.1858 10.1199 14.4534 9.9964 14.6799 9.74936C14.9132 9.50232 15.0299 9.18322 15.0299 8.79207C15.0299 8.40093 14.9166 8.08183 14.6902 7.83479C14.4637 7.58775 14.1927 7.46423 13.877 7.46423C13.5682 7.46423 13.3006 7.58775 13.0741 7.83479C12.8477 8.08183 12.7344 8.40093 12.7344 8.79207C12.7344 9.18322 12.8477 9.50232 13.0741 9.74936C13.3074 9.9964 13.5751 10.1199 13.877 10.1199Z" fill="#5E42CC"/>
</svg>
