<svg width="22" height="22" viewBox="0 0 22 22" fill="none" xmlns="http://www.w3.org/2000/svg">
<path d="M11.4554 19C10.6227 19 9.9894 18.36 9.9894 17.5271V15.011H9.87663C7.29157 15.011 5.87759 16.0805 4.92337 17.834C4.49831 18.6055 4.03855 18.8685 3.42265 18.8685C2.52048 18.8685 2 17.9742 2 16.1682C2 10.4082 4.7412 7.05041 9.87663 7.05041H9.9894V4.49918C9.9894 3.65753 10.6227 3 11.4641 3C11.9846 3 12.3749 3.20164 12.9475 3.72767L19.5055 9.84712C19.8439 10.1715 20 10.6011 20 11.0044C20 11.3814 19.8352 11.8373 19.4969 12.1616L12.9475 18.2986C12.427 18.7896 12.0019 19 11.4554 19Z" stroke="#5E42CC" stroke-width="1.5" stroke-linecap="round" stroke-linejoin="round"/>
</svg>
