<svg width="22" height="22" viewBox="0 0 22 22" fill="none" xmlns="http://www.w3.org/2000/svg">
<path d="M5 11C5 12.1046 4.10457 13 3 13C1.89543 13 1 12.1046 1 11C1 9.89543 1.89543 9 3 9C4.10457 9 5 9.89543 5 11Z" fill="#5E42CC"/>
<path d="M13 11C13 12.1046 12.1046 13 11 13C9.89543 13 9 12.1046 9 11C9 9.89543 9.89543 9 11 9C12.1046 9 13 9.89543 13 11Z" fill="#5E42CC"/>
<path d="M21 11C21 12.1046 20.1046 13 19 13C17.8954 13 17 12.1046 17 11C17 9.89543 17.8954 9 19 9C20.1046 9 21 9.89543 21 11Z" fill="#5E42CC"/>
</svg>
