<svg width="22" height="22" viewBox="0 0 22 22" fill="none" xmlns="http://www.w3.org/2000/svg">
<path d="M11.5011 21C11.8077 21 12.049 20.9006 12.2249 20.7019C12.4009 20.5092 12.4863 20.2352 12.4813 19.8799L12.3456 10.2322C12.3405 10.0696 12.3657 9.93406 12.421 9.82566C12.4763 9.71725 12.5617 9.63294 12.6773 9.57272C12.994 9.4041 13.2529 9.2174 13.4539 9.01265C13.655 8.80789 13.7982 8.54893 13.8837 8.23577C13.9741 7.91659 14.0118 7.50105 13.9968 6.98916L13.8007 1.74977C13.7756 1.34026 13.6047 1.1355 13.288 1.1355C13.1423 1.1355 13.0267 1.1897 12.9412 1.2981C12.8608 1.4065 12.8206 1.56308 12.8206 1.76784L12.8734 6.85366C12.8734 7.01024 12.8357 7.13369 12.7603 7.22403C12.6899 7.30834 12.5944 7.3505 12.4737 7.3505C12.3531 7.3505 12.2551 7.30834 12.1797 7.22403C12.1043 7.13972 12.0641 7.02228 12.0591 6.87173L11.9912 1.60524C11.9862 1.41253 11.9409 1.26498 11.8555 1.1626C11.77 1.0542 11.6519 1 11.5011 1C11.3503 1 11.2322 1.0542 11.1468 1.1626C11.0613 1.26498 11.0161 1.41253 11.011 1.60524L10.9356 6.87173C10.9356 7.02228 10.8979 7.13972 10.8226 7.22403C10.7472 7.30834 10.6491 7.3505 10.5285 7.3505C10.2621 7.3505 10.1289 7.18488 10.1289 6.85366L10.1817 1.76784C10.1817 1.56308 10.139 1.4065 10.0535 1.2981C9.97308 1.1897 9.85998 1.1355 9.71422 1.1355C9.56342 1.1355 9.44279 1.1897 9.35231 1.2981C9.26183 1.40048 9.21157 1.55104 9.20152 1.74977L9.00548 6.98916C8.98538 7.50105 9.02056 7.91659 9.11104 8.23577C9.20152 8.54893 9.34477 8.80789 9.5408 9.01265C9.74186 9.2174 10.0032 9.4041 10.3249 9.57272C10.4405 9.63294 10.5235 9.71725 10.5737 9.82566C10.629 9.93406 10.6567 10.0696 10.6567 10.2322L10.521 19.8799C10.5159 20.2352 10.6014 20.5092 10.7773 20.7019C10.9532 20.9006 11.1945 21 11.5011 21Z" fill="#5E42CC"/>
</svg>
