<svg width="22" height="22" viewBox="0 0 22 22" fill="none" xmlns="http://www.w3.org/2000/svg">
<path fill-rule="evenodd" clip-rule="evenodd" d="M15.334 1.75012H6.665C3.644 1.75012 1.75 3.88912 1.75 6.91612V15.0841C1.75 18.1111 3.635 20.2501 6.665 20.2501H15.333C18.364 20.2501 20.25 18.1111 20.25 15.0841V6.91612C20.25 3.88912 18.364 1.75012 15.334 1.75012Z" stroke="#5E42CC" stroke-width="1.5" stroke-linecap="round" stroke-linejoin="round"/>
<path fill-rule="evenodd" clip-rule="evenodd" d="M9.68886 11.0001C9.68886 12.0231 8.85986 12.8521 7.83686 12.8521C6.81386 12.8521 5.98486 12.0231 5.98486 11.0001C5.98486 9.97707 6.81386 9.14807 7.83686 9.14807H7.83986C8.86086 9.14907 9.68886 9.97807 9.68886 11.0001Z" stroke="#5E42CC" stroke-width="1.5" stroke-linecap="round" stroke-linejoin="round"/>
<path d="M9.69189 11.0001H16.0099V12.8521" stroke="#5E42CC" stroke-width="1.5" stroke-linecap="round" stroke-linejoin="round"/>
<path d="M13.1816 12.8522V11.0002" stroke="#5E42CC" stroke-width="1.5" stroke-linecap="round" stroke-linejoin="round"/>
</svg>
