<svg width="22" height="22" viewBox="0 0 22 22" fill="none" xmlns="http://www.w3.org/2000/svg">
<path d="M12.8496 3.25024V5.67024" stroke="#5E42CC" stroke-width="1.5" stroke-linecap="round" stroke-linejoin="round"/>
<path d="M12.8496 16.76V18.784" stroke="#5E42CC" stroke-width="1.5" stroke-linecap="round" stroke-linejoin="round"/>
<path d="M12.8496 13.3245V8.50354" stroke="#5E42CC" stroke-width="1.5" stroke-linecap="round" stroke-linejoin="round"/>
<path fill-rule="evenodd" clip-rule="evenodd" d="M17.7021 19C19.5242 19 21 17.5426 21 15.7431V13.1506C19.7943 13.1506 18.8233 12.1917 18.8233 11.001C18.8233 9.81035 19.7943 8.85039 21 8.85039L20.999 6.25686C20.999 4.45745 19.5221 3 17.7011 3H4.29892C2.47789 3 1.00104 4.45745 1.00104 6.25686L1 8.93485C2.20567 8.93485 3.17668 9.81035 3.17668 11.001C3.17668 12.1917 2.20567 13.1506 1 13.1506V15.7431C1 17.5426 2.4758 19 4.29787 19H17.7021Z" stroke="#5E42CC" stroke-width="1.5" stroke-linecap="round" stroke-linejoin="round"/>
</svg>
