<svg width="22" height="22" viewBox="0 0 22 22" fill="none" xmlns="http://www.w3.org/2000/svg">
<path d="M10.9953 18.8377C11.1071 18.8377 11.2158 18.8317 11.3214 18.8197C11.4332 18.8137 11.5481 18.8077 11.666 18.8017L12.1598 19.709C12.2094 19.8168 12.284 19.8946 12.3833 19.9425C12.4889 19.9904 12.6069 20.0084 12.7373 19.9964C12.8553 19.9725 12.9516 19.9186 13.0261 19.8347C13.1068 19.7569 13.1565 19.6581 13.1751 19.5383L13.3242 18.5233C13.5353 18.4694 13.7434 18.4035 13.9483 18.3257C14.1594 18.2538 14.3675 18.173 14.5724 18.0831L15.3549 18.7658C15.4419 18.8496 15.5412 18.8975 15.653 18.9095C15.771 18.9215 15.8859 18.9005 15.9977 18.8466C16.215 18.7209 16.2989 18.5293 16.2492 18.2718L16.0256 17.2657C16.2057 17.146 16.3796 17.0172 16.5473 16.8795C16.7212 16.7477 16.8888 16.604 17.0503 16.4483L18.0284 16.8435C18.2644 16.9394 18.4724 16.8855 18.6525 16.6819C18.7333 16.598 18.7767 16.5022 18.783 16.3944C18.7954 16.2806 18.7674 16.1728 18.6991 16.071L18.1309 15.1997C18.2551 15.0261 18.37 14.8464 18.4755 14.6608C18.5873 14.4751 18.6929 14.2835 18.7923 14.0859L19.8542 14.1398C19.9784 14.1458 20.0871 14.1188 20.1803 14.059C20.2796 13.9991 20.351 13.9122 20.3945 13.7985C20.4318 13.6847 20.4318 13.5769 20.3945 13.4751C20.3635 13.3673 20.2982 13.2775 20.1989 13.2056L19.3698 12.5679C19.4257 12.3643 19.4723 12.1577 19.5095 11.9481C19.553 11.7325 19.5841 11.5139 19.6027 11.2923L20.6088 10.9959C20.8696 10.9061 21 10.7384 21 10.4929C21 10.2474 20.8696 10.0797 20.6088 9.98987L19.6027 9.68447C19.5841 9.46889 19.553 9.2563 19.5095 9.04671C19.4723 8.83712 19.4257 8.63052 19.3698 8.42691L20.1989 7.78916C20.2982 7.71729 20.3635 7.63046 20.3945 7.52866C20.4318 7.42087 20.4318 7.31009 20.3945 7.19631C20.351 7.08852 20.2796 7.00468 20.1803 6.9448C20.0871 6.87893 19.9784 6.84898 19.8542 6.85497L18.7923 6.8909C18.6929 6.69329 18.5873 6.50465 18.4755 6.325C18.37 6.13936 18.2551 5.95672 18.1309 5.77707L18.6991 4.91475C18.7674 4.81295 18.7954 4.71114 18.783 4.60934C18.7767 4.50155 18.7333 4.40574 18.6525 4.3219C18.4724 4.11231 18.2613 4.05841 18.0191 4.16022L17.0503 4.53748C16.8888 4.38777 16.7212 4.24405 16.5473 4.10632C16.3796 3.96859 16.2057 3.83984 16.0256 3.72007L16.2492 2.72301C16.2989 2.45952 16.215 2.27089 15.9977 2.15711C15.8859 2.09124 15.771 2.06729 15.653 2.08525C15.5412 2.09723 15.4419 2.14514 15.3549 2.22897L14.5724 2.90266C14.3675 2.81284 14.1594 2.73199 13.9483 2.66013C13.7434 2.58827 13.5353 2.5224 13.3242 2.46252L13.1751 1.45648C13.1565 1.33671 13.1068 1.2379 13.0261 1.16005C12.9516 1.07622 12.8522 1.02531 12.728 1.00735C12.6038 0.989384 12.492 1.00436 12.3926 1.05226C12.2933 1.10017 12.2157 1.17203 12.1598 1.26784L11.666 2.19304C11.5481 2.18107 11.4332 2.17508 11.3214 2.17508C11.2158 2.16909 11.1071 2.16609 10.9953 2.16609C10.8836 2.16609 10.7749 2.16909 10.6693 2.17508C10.5637 2.17508 10.4488 2.18107 10.3246 2.19304L9.83093 1.26784C9.77504 1.17203 9.69741 1.10017 9.59804 1.05226C9.49868 1.00436 9.3869 0.989384 9.26269 1.00735C9.13849 1.02531 9.03602 1.07622 8.95529 1.16005C8.88076 1.2379 8.83419 1.33671 8.81556 1.45648L8.67583 2.46252C8.45847 2.5224 8.24422 2.58827 8.03307 2.66013C7.82813 2.73199 7.6232 2.81284 7.41826 2.90266L6.64509 2.22897C6.55193 2.14514 6.44636 2.09723 6.32837 2.08525C6.21658 2.06729 6.1048 2.09124 5.99301 2.15711C5.77566 2.27089 5.69182 2.45952 5.7415 2.72301L5.96507 3.72007C5.79118 3.83984 5.6173 3.96859 5.44341 4.10632C5.26952 4.24405 5.10185 4.38777 4.94038 4.53748L3.97159 4.16022C3.72939 4.05841 3.51824 4.11231 3.33815 4.3219C3.25741 4.40574 3.21084 4.50155 3.19842 4.60934C3.19221 4.71114 3.22326 4.81295 3.29157 4.91475L3.8598 5.77707C3.7356 5.95672 3.61761 6.13936 3.50582 6.325C3.40025 6.50465 3.29778 6.69329 3.19842 6.8909L2.13647 6.85497C2.01227 6.84898 1.90048 6.87893 1.80112 6.9448C1.70796 7.00468 1.64276 7.08852 1.6055 7.19631C1.56202 7.31009 1.55581 7.42087 1.58687 7.52866C1.62413 7.63046 1.69244 7.71729 1.7918 7.78916L2.62087 8.42691C2.56497 8.63052 2.51529 8.83712 2.47182 9.04671C2.43456 9.2563 2.40972 9.46889 2.3973 9.68447L1.38193 9.98987C1.12731 10.0737 1 10.2414 1 10.4929C1 10.7444 1.12731 10.9121 1.38193 10.9959L2.3973 11.3013C2.40972 11.5169 2.43456 11.7325 2.47182 11.9481C2.51529 12.1577 2.56497 12.3643 2.62087 12.5679L1.7918 13.2056C1.69244 13.2775 1.62723 13.3643 1.59618 13.4661C1.56513 13.5679 1.56823 13.6757 1.6055 13.7895C1.64276 13.9092 1.70796 13.9991 1.80112 14.059C1.90048 14.1188 2.01227 14.1458 2.13647 14.1398L3.19842 14.0859C3.29778 14.2835 3.40025 14.4751 3.50582 14.6608C3.61761 14.8464 3.7325 15.0261 3.85049 15.1997L3.29157 16.071C3.22326 16.1728 3.19221 16.2806 3.19842 16.3944C3.21084 16.5022 3.25741 16.598 3.33815 16.6819C3.51824 16.8855 3.72939 16.9394 3.97159 16.8435L4.94038 16.4483C5.10185 16.604 5.26952 16.7477 5.44341 16.8795C5.6173 17.0172 5.79118 17.146 5.96507 17.2657L5.7415 18.2718C5.72287 18.3915 5.73218 18.4993 5.76945 18.5951C5.81292 18.6969 5.88744 18.7808 5.99301 18.8466C6.11101 18.9005 6.2259 18.9215 6.33768 18.9095C6.44946 18.8975 6.55193 18.8496 6.64509 18.7658L7.41826 18.0831C7.6232 18.173 7.82813 18.2538 8.03307 18.3257C8.24422 18.4035 8.45847 18.4694 8.67583 18.5233L8.81556 19.5383C8.83419 19.6581 8.88076 19.7569 8.95529 19.8347C9.03602 19.9186 9.13849 19.9725 9.26269 19.9964C9.3869 20.0084 9.49868 19.9904 9.59804 19.9425C9.69741 19.8946 9.77504 19.8168 9.83093 19.709L10.3246 18.8017C10.4426 18.8077 10.5544 18.8137 10.66 18.8197C10.7718 18.8317 10.8836 18.8377 10.9953 18.8377ZM10.9953 17.4094C10.0017 17.4094 9.07639 17.2298 8.21938 16.8705C7.36237 16.5172 6.61093 16.0261 5.96507 15.3974C5.31921 14.7626 4.81618 14.029 4.45599 13.1966C4.09579 12.3583 3.9157 11.46 3.9157 10.5019C3.9157 9.53775 4.09579 8.6395 4.45599 7.80712C4.81618 6.96875 5.31921 6.23518 5.96507 5.6064C6.61093 4.97164 7.36237 4.4776 8.21938 4.12429C9.07639 3.76498 10.0017 3.58533 10.9953 3.58533C11.9952 3.58533 12.9236 3.76498 13.7806 4.12429C14.6438 4.4776 15.3984 4.97164 16.0442 5.6064C16.6901 6.23518 17.19 6.96875 17.544 7.80712C17.9042 8.6395 18.0843 9.53775 18.0843 10.5019C18.0843 11.46 17.9042 12.3583 17.544 13.1966C17.19 14.029 16.6901 14.7626 16.0442 15.3974C15.3984 16.0261 14.6438 16.5172 13.7806 16.8705C12.9236 17.2298 11.9952 17.4094 10.9953 17.4094ZM10.9767 12.8284C11.4922 12.8284 11.9517 12.6816 12.3554 12.3882C12.759 12.0948 13.0633 11.6696 13.2683 11.1127H18.9599L18.9506 9.89107H13.2776C13.0664 9.35211 12.7559 8.93892 12.3461 8.65148C11.9424 8.35805 11.4859 8.21133 10.9767 8.21133C10.9022 8.21133 10.8184 8.21732 10.7252 8.2293C10.6383 8.24128 10.5234 8.26223 10.3805 8.29218L7.53004 3.58533L6.39357 4.17818L9.29064 8.95688C9.06086 9.20241 8.88697 9.45691 8.76898 9.7204C8.6572 9.9779 8.6013 10.2474 8.6013 10.5288C8.6013 10.7983 8.6572 11.0618 8.76898 11.3193C8.88076 11.5708 9.05465 11.8223 9.29064 12.0738L6.30042 16.7896L7.42757 17.4184L10.3805 12.7475C10.5109 12.7834 10.6227 12.8074 10.7159 12.8194C10.8152 12.8254 10.9022 12.8284 10.9767 12.8284ZM9.92408 10.5198C9.92408 10.2324 10.0328 9.99287 10.2501 9.80124C10.4675 9.60363 10.7159 9.50482 10.9953 9.50482C11.2934 9.50482 11.5481 9.60363 11.7592 9.80124C11.9703 9.99287 12.0759 10.2324 12.0759 10.5198C12.0759 10.8013 11.9703 11.0438 11.7592 11.2474C11.5481 11.451 11.2934 11.5528 10.9953 11.5528C10.7159 11.5528 10.4675 11.451 10.2501 11.2474C10.0328 11.0438 9.92408 10.8013 9.92408 10.5198Z" fill="#5E42CC"/>
</svg>
