<svg width="22" height="22" viewBox="0 0 22 22" fill="none" xmlns="http://www.w3.org/2000/svg">
<path fill-rule="evenodd" clip-rule="evenodd" d="M13.5331 8.46704L6.71375 15.2869C6.53651 15.1842 6.36859 15.1189 6.21933 15.1096C4.92263 15.0163 4.41888 15.1656 3.7099 14.5592C2.94494 13.9061 3.00091 12.1615 3.00091 10.8834C3.00091 9.60523 2.94494 7.86063 3.7099 7.20757C4.41888 6.60115 4.92263 6.75975 6.21933 6.65713C7.51603 6.55451 10.2587 2.59882 12.3763 3.84897C13.2345 4.54868 13.4678 5.8548 13.5331 8.46704Z" stroke="#5E42CC" stroke-width="1.5" stroke-linecap="round" stroke-linejoin="round"/>
<path d="M13.5329 12.9172C13.4956 15.7907 13.2717 17.1901 12.3762 17.9178C11.3966 18.4962 10.2865 17.9645 9.2417 17.2088" stroke="#5E42CC" stroke-width="1.5" stroke-linecap="round" stroke-linejoin="round"/>
<path d="M3.00146 19L6.71431 15.2869L13.5336 8.46706L19.0003 3" stroke="#5E42CC" stroke-width="1.5" stroke-linecap="round" stroke-linejoin="round"/>
</svg>
