<svg width="22" height="22" viewBox="0 0 22 22" fill="none" xmlns="http://www.w3.org/2000/svg">
<path d="M9.33001 15.5929H3.0293" stroke="#5E42CC" stroke-width="1.5" stroke-linecap="round" stroke-linejoin="round"/>
<path d="M12.1406 5.90042H18.4413" stroke="#5E42CC" stroke-width="1.5" stroke-linecap="round" stroke-linejoin="round"/>
<path fill-rule="evenodd" clip-rule="evenodd" d="M7.72629 5.84625C7.72629 4.5506 6.66813 3.5 5.36314 3.5C4.05816 3.5 3 4.5506 3 5.84625C3 7.14191 4.05816 8.19251 5.36314 8.19251C6.66813 8.19251 7.72629 7.14191 7.72629 5.84625Z" stroke="#5E42CC" stroke-width="1.5" stroke-linecap="round" stroke-linejoin="round"/>
<path fill-rule="evenodd" clip-rule="evenodd" d="M19.0002 15.5538C19.0002 14.2581 17.9429 13.2075 16.6379 13.2075C15.3321 13.2075 14.2739 14.2581 14.2739 15.5538C14.2739 16.8494 15.3321 17.9 16.6379 17.9C17.9429 17.9 19.0002 16.8494 19.0002 15.5538Z" stroke="#5E42CC" stroke-width="1.5" stroke-linecap="round" stroke-linejoin="round"/>
</svg>
