<svg width="22" height="22" viewBox="0 0 22 22" fill="none" xmlns="http://www.w3.org/2000/svg">
<path fill-rule="evenodd" clip-rule="evenodd" d="M14.04 3.05126C15.05 3.45326 15.359 4.85326 15.772 5.30326C16.185 5.75326 16.776 5.90626 17.103 5.90626C18.841 5.90626 20.25 7.31526 20.25 9.05226V14.8473C20.25 17.1773 18.36 19.0673 16.03 19.0673H5.97C3.639 19.0673 1.75 17.1773 1.75 14.8473V9.05226C1.75 7.31526 3.159 5.90626 4.897 5.90626C5.223 5.90626 5.814 5.75326 6.228 5.30326C6.641 4.85326 6.949 3.45326 7.959 3.05126C8.97 2.64926 13.03 2.64926 14.04 3.05126Z" stroke="#5E42CC" stroke-width="1.5" stroke-linecap="round" stroke-linejoin="round"/>
<path d="M16.4955 8.5H16.5045" stroke="#5E42CC" stroke-width="2" stroke-linecap="round" stroke-linejoin="round"/>
<path fill-rule="evenodd" clip-rule="evenodd" d="M14.1788 12.128C14.1788 10.372 12.7558 8.94897 10.9998 8.94897C9.2438 8.94897 7.8208 10.372 7.8208 12.128C7.8208 13.884 9.2438 15.307 10.9998 15.307C12.7558 15.307 14.1788 13.884 14.1788 12.128Z" stroke="#5E42CC" stroke-width="1.5" stroke-linecap="round" stroke-linejoin="round"/>
</svg>
