<svg width="22" height="22" viewBox="0 0 22 22" fill="none" xmlns="http://www.w3.org/2000/svg">
<mask id="path-1-outside-1_10842_112596" maskUnits="userSpaceOnUse" x="5.01562" y="2" width="12" height="14" fill="black">
<rect fill="white" x="5.01562" y="2" width="12" height="14"/>
<path d="M15.183 9.49085L14.3537 8.96305V8.2417C14.3537 8.10986 14.2468 8.00297 14.115 8.00297C13.9831 8.00297 13.8763 8.10986 13.8763 8.2417V8.66337C13.4164 8.41822 12.8445 8.53249 12.5152 8.94704C12.4647 9.01057 12.4226 9.07853 12.3885 9.14938V6.70566C12.3885 6.29551 12.7222 5.96181 13.1324 5.96181C13.5426 5.96181 13.8763 6.29551 13.8763 6.70566V7.21939C13.8763 7.35123 13.9831 7.45811 14.115 7.45811C14.2468 7.45811 14.3537 7.35123 14.3537 7.21939V6.70566C14.3537 6.03224 13.8058 5.48436 13.1324 5.48436C12.7018 5.48436 12.3228 5.7086 12.1052 6.04625C11.881 5.77748 11.5438 5.60608 11.1672 5.60608C10.6759 5.60608 10.2517 5.89786 10.0581 6.31709C9.83753 6.10004 9.53525 5.96582 9.20208 5.96582C8.9223 5.96582 8.66439 6.06061 8.45823 6.21947V4.2213C8.45823 3.54788 7.91034 3 7.23693 3C6.56351 3 6.01562 3.54788 6.01562 4.2213V12.1486C6.01562 12.2804 6.12251 12.3873 6.25435 12.3873C6.38619 12.3873 6.49307 12.2804 6.49307 12.1486V4.2213C6.49307 3.81115 6.82674 3.47744 7.23693 3.47744C7.64711 3.47744 7.98078 3.81115 7.98078 4.2213V9.45921C7.98078 10.1326 8.52867 10.6805 9.20208 10.6805C9.6723 10.6805 10.081 10.4132 10.285 10.0228C10.5075 10.2555 10.8206 10.4009 11.1672 10.4009C11.6638 10.4009 12.0918 10.1027 12.2825 9.67622C12.2948 9.92793 12.393 10.1755 12.5754 10.3689L13.298 11.1354L12.9827 11.253C12.2008 11.5446 11.5739 12.1207 11.2175 12.8753C11.1612 12.9946 11.2122 13.1369 11.3315 13.1931C11.4507 13.2495 11.593 13.1985 11.6492 13.0792C11.9521 12.4379 12.4849 11.9482 13.1495 11.7003L13.6475 11.5147C13.757 11.4738 13.8383 11.3814 13.8649 11.2675C13.8914 11.1536 13.8594 11.0348 13.7791 10.9497L12.9228 10.0414C12.7164 9.82245 12.7018 9.47964 12.889 9.24401C13.0836 8.99895 13.4295 8.94083 13.6936 9.10889L14.9266 9.89359C15.3091 10.1371 15.5307 10.5695 15.5049 11.0222L15.404 12.7896C15.3697 13.3901 15.0888 13.9598 14.6333 14.3527L14.531 14.441C14.4311 14.5271 14.42 14.6778 14.5061 14.7776C14.5533 14.8324 14.62 14.8605 14.687 14.8605C14.7422 14.8605 14.7978 14.8414 14.8428 14.8025L14.9452 14.7142C15.4981 14.2374 15.8391 13.5458 15.8807 12.8168L15.9815 11.0494C16.0173 10.4243 15.7113 9.82706 15.183 9.49085V9.49085ZM9.94594 9.45921C9.94594 9.86936 9.61227 10.2031 9.20208 10.2031C8.7919 10.2031 8.45823 9.86936 8.45823 9.45921V7.18712C8.45823 6.77696 8.79193 6.44326 9.20208 6.44326C9.61224 6.44326 9.94594 6.77696 9.94594 7.18712V9.45921ZM11.9111 9.17955C11.9111 9.58971 11.5774 9.92341 11.1672 9.92341C10.7571 9.92341 10.4234 9.58971 10.4234 9.17955V6.82738C10.4234 6.41722 10.7571 6.08352 11.1672 6.08352C11.5774 6.08352 11.9111 6.41719 11.9111 6.82738V9.17955Z"/>
</mask>
<path d="M15.183 9.49085L14.3537 8.96305V8.2417C14.3537 8.10986 14.2468 8.00297 14.115 8.00297C13.9831 8.00297 13.8763 8.10986 13.8763 8.2417V8.66337C13.4164 8.41822 12.8445 8.53249 12.5152 8.94704C12.4647 9.01057 12.4226 9.07853 12.3885 9.14938V6.70566C12.3885 6.29551 12.7222 5.96181 13.1324 5.96181C13.5426 5.96181 13.8763 6.29551 13.8763 6.70566V7.21939C13.8763 7.35123 13.9831 7.45811 14.115 7.45811C14.2468 7.45811 14.3537 7.35123 14.3537 7.21939V6.70566C14.3537 6.03224 13.8058 5.48436 13.1324 5.48436C12.7018 5.48436 12.3228 5.7086 12.1052 6.04625C11.881 5.77748 11.5438 5.60608 11.1672 5.60608C10.6759 5.60608 10.2517 5.89786 10.0581 6.31709C9.83753 6.10004 9.53525 5.96582 9.20208 5.96582C8.9223 5.96582 8.66439 6.06061 8.45823 6.21947V4.2213C8.45823 3.54788 7.91034 3 7.23693 3C6.56351 3 6.01562 3.54788 6.01562 4.2213V12.1486C6.01562 12.2804 6.12251 12.3873 6.25435 12.3873C6.38619 12.3873 6.49307 12.2804 6.49307 12.1486V4.2213C6.49307 3.81115 6.82674 3.47744 7.23693 3.47744C7.64711 3.47744 7.98078 3.81115 7.98078 4.2213V9.45921C7.98078 10.1326 8.52867 10.6805 9.20208 10.6805C9.6723 10.6805 10.081 10.4132 10.285 10.0228C10.5075 10.2555 10.8206 10.4009 11.1672 10.4009C11.6638 10.4009 12.0918 10.1027 12.2825 9.67622C12.2948 9.92793 12.393 10.1755 12.5754 10.3689L13.298 11.1354L12.9827 11.253C12.2008 11.5446 11.5739 12.1207 11.2175 12.8753C11.1612 12.9946 11.2122 13.1369 11.3315 13.1931C11.4507 13.2495 11.593 13.1985 11.6492 13.0792C11.9521 12.4379 12.4849 11.9482 13.1495 11.7003L13.6475 11.5147C13.757 11.4738 13.8383 11.3814 13.8649 11.2675C13.8914 11.1536 13.8594 11.0348 13.7791 10.9497L12.9228 10.0414C12.7164 9.82245 12.7018 9.47964 12.889 9.24401C13.0836 8.99895 13.4295 8.94083 13.6936 9.10889L14.9266 9.89359C15.3091 10.1371 15.5307 10.5695 15.5049 11.0222L15.404 12.7896C15.3697 13.3901 15.0888 13.9598 14.6333 14.3527L14.531 14.441C14.4311 14.5271 14.42 14.6778 14.5061 14.7776C14.5533 14.8324 14.62 14.8605 14.687 14.8605C14.7422 14.8605 14.7978 14.8414 14.8428 14.8025L14.9452 14.7142C15.4981 14.2374 15.8391 13.5458 15.8807 12.8168L15.9815 11.0494C16.0173 10.4243 15.7113 9.82706 15.183 9.49085V9.49085ZM9.94594 9.45921C9.94594 9.86936 9.61227 10.2031 9.20208 10.2031C8.7919 10.2031 8.45823 9.86936 8.45823 9.45921V7.18712C8.45823 6.77696 8.79193 6.44326 9.20208 6.44326C9.61224 6.44326 9.94594 6.77696 9.94594 7.18712V9.45921ZM11.9111 9.17955C11.9111 9.58971 11.5774 9.92341 11.1672 9.92341C10.7571 9.92341 10.4234 9.58971 10.4234 9.17955V6.82738C10.4234 6.41722 10.7571 6.08352 11.1672 6.08352C11.5774 6.08352 11.9111 6.41719 11.9111 6.82738V9.17955Z" fill="#5E42CC"/>
<path d="M14.3537 8.96305H13.8537V9.2375L14.0852 9.38486L14.3537 8.96305ZM13.8763 8.66337L13.6411 9.1046L14.3763 9.49652V8.66337H13.8763ZM12.5152 8.94704L12.9067 9.25809L12.9067 9.25802L12.5152 8.94704ZM12.3885 9.14938H11.8885L12.8391 9.36616L12.3885 9.14938ZM12.1052 6.04625L11.7213 6.36654L12.1571 6.88897L12.5256 6.31704L12.1052 6.04625ZM10.0581 6.31709L9.70736 6.67346L10.2139 7.17199L10.512 6.52676L10.0581 6.31709ZM8.45823 6.21947H7.95823V7.23598L8.76342 6.61552L8.45823 6.21947ZM10.285 10.0228L10.6464 9.6772L10.1646 9.17347L9.84186 9.79125L10.285 10.0228ZM12.2825 9.67622L12.7819 9.65185L11.8261 9.47215L12.2825 9.67622ZM12.5754 10.3689L12.9392 10.0259L12.9392 10.0259L12.5754 10.3689ZM13.298 11.1354L13.4727 11.6039L14.1787 11.3406L13.6618 10.7924L13.298 11.1354ZM12.9827 11.253L13.1574 11.7215L13.1575 11.7215L12.9827 11.253ZM11.2175 12.8753L10.7654 12.6618L10.7654 12.6618L11.2175 12.8753ZM11.3315 13.1931L11.5452 12.7411L11.5449 12.741L11.3315 13.1931ZM11.6492 13.0792L11.1971 12.8657L11.197 12.8659L11.6492 13.0792ZM13.1495 11.7003L12.9748 11.2318L12.9748 11.2318L13.1495 11.7003ZM13.6475 11.5147L13.8222 11.9832L13.8222 11.9831L13.6475 11.5147ZM13.7791 10.9497L14.143 10.6068L14.143 10.6067L13.7791 10.9497ZM12.9228 10.0414L13.2866 9.69838L13.2866 9.69836L12.9228 10.0414ZM12.889 9.24401L12.4975 8.933L12.4974 8.93306L12.889 9.24401ZM13.6936 9.10889L13.9621 8.68708L13.9621 8.68706L13.6936 9.10889ZM14.9266 9.89359L14.6581 10.3154L14.6581 10.3154L14.9266 9.89359ZM15.5049 11.0222L15.0057 10.9937L15.0057 10.9937L15.5049 11.0222ZM15.404 12.7896L15.9032 12.8181L15.9032 12.8181L15.404 12.7896ZM14.6333 14.3527L14.3068 13.9741L14.3068 13.9741L14.6333 14.3527ZM14.531 14.441L14.2044 14.0623L14.2044 14.0623L14.531 14.441ZM14.5061 14.7776L14.8848 14.4511L14.8848 14.4511L14.5061 14.7776ZM14.8428 14.8025L14.5163 14.4239L14.5162 14.424L14.8428 14.8025ZM14.9452 14.7142L14.6186 14.3356L14.6186 14.3356L14.9452 14.7142ZM15.8807 12.8168L15.3815 12.7883L15.3815 12.7883L15.8807 12.8168ZM15.9815 11.0494L15.4823 11.0209L15.4823 11.021L15.9815 11.0494ZM15.4515 9.06903L14.6222 8.54123L14.0852 9.38486L14.9145 9.91266L15.4515 9.06903ZM14.8537 8.96305V8.2417H13.8537V8.96305H14.8537ZM14.8537 8.2417C14.8537 7.83371 14.523 7.50297 14.115 7.50297V8.50297C13.9707 8.50297 13.8537 8.386 13.8537 8.2417H14.8537ZM14.115 7.50297C13.707 7.50297 13.3763 7.83371 13.3763 8.2417H14.3763C14.3763 8.386 14.2593 8.50297 14.115 8.50297V7.50297ZM13.3763 8.2417V8.66337H14.3763V8.2417H13.3763ZM14.1115 8.22215C13.4401 7.86423 12.6041 8.03127 12.1237 8.63605L12.9067 9.25802C13.0849 9.03371 13.3927 8.97221 13.6411 9.1046L14.1115 8.22215ZM12.1237 8.63598C12.0493 8.72963 11.9876 8.82937 11.938 8.9326L12.8391 9.36616C12.8576 9.32768 12.8801 9.29151 12.9067 9.25809L12.1237 8.63598ZM12.8885 9.14938V6.70566H11.8885V9.14938H12.8885ZM12.8885 6.70566C12.8885 6.57165 12.9984 6.46181 13.1324 6.46181V5.46181C12.4461 5.46181 11.8885 6.01936 11.8885 6.70566H12.8885ZM13.1324 6.46181C13.2664 6.46181 13.3763 6.57165 13.3763 6.70566H14.3763C14.3763 6.01936 13.8187 5.46181 13.1324 5.46181V6.46181ZM13.3763 6.70566V7.21939H14.3763V6.70566H13.3763ZM13.3763 7.21939C13.3763 7.62737 13.707 7.95811 14.115 7.95811V6.95811C14.2593 6.95811 14.3763 7.07509 14.3763 7.21939H13.3763ZM14.115 7.95811C14.523 7.95811 14.8537 7.62737 14.8537 7.21939H13.8537C13.8537 7.07509 13.9707 6.95811 14.115 6.95811V7.95811ZM14.8537 7.21939V6.70566H13.8537V7.21939H14.8537ZM14.8537 6.70566C14.8537 5.7561 14.082 4.98436 13.1324 4.98436V5.98436C13.5297 5.98436 13.8537 6.30839 13.8537 6.70566H14.8537ZM13.1324 4.98436C12.5239 4.98436 11.9901 5.30172 11.6849 5.77546L12.5256 6.31704C12.6554 6.11549 12.8796 5.98436 13.1324 5.98436V4.98436ZM12.4892 5.72596C12.1745 5.34869 11.699 5.10608 11.1672 5.10608V6.10608C11.3887 6.10608 11.5876 6.20627 11.7213 6.36654L12.4892 5.72596ZM11.1672 5.10608C10.473 5.10608 9.87619 5.51853 9.60416 6.10741L10.512 6.52676C10.6273 6.27719 10.8788 6.10608 11.1672 6.10608V5.10608ZM10.4088 5.96072C10.099 5.65582 9.67232 5.46582 9.20208 5.46582V6.46582C9.39817 6.46582 9.57609 6.54427 9.70736 6.67346L10.4088 5.96072ZM9.20208 5.46582C8.80738 5.46582 8.44302 5.59996 8.15304 5.82341L8.76342 6.61552C8.88575 6.52125 9.03723 6.46582 9.20208 6.46582V5.46582ZM8.95823 6.21947V4.2213H7.95823V6.21947H8.95823ZM8.95823 4.2213C8.95823 3.27174 8.18649 2.5 7.23693 2.5V3.5C7.6342 3.5 7.95823 3.82402 7.95823 4.2213H8.95823ZM7.23693 2.5C6.28737 2.5 5.51562 3.27174 5.51562 4.2213H6.51562C6.51562 3.82403 6.83965 3.5 7.23693 3.5V2.5ZM5.51562 4.2213V12.1486H6.51562V4.2213H5.51562ZM5.51562 12.1486C5.51562 12.5565 5.84637 12.8873 6.25435 12.8873V11.8873C6.39865 11.8873 6.51562 12.0042 6.51562 12.1486H5.51562ZM6.25435 12.8873C6.66233 12.8873 6.99307 12.5565 6.99307 12.1486H5.99307C5.99307 12.0042 6.11004 11.8873 6.25435 11.8873V12.8873ZM6.99307 12.1486V4.2213H5.99307V12.1486H6.99307ZM6.99307 4.2213C6.99307 4.08727 7.10289 3.97744 7.23693 3.97744V2.97744C6.55058 2.97744 5.99307 3.53502 5.99307 4.2213H6.99307ZM7.23693 3.97744C7.37096 3.97744 7.48078 4.08727 7.48078 4.2213H8.48078C8.48078 3.53502 7.92327 2.97744 7.23693 2.97744V3.97744ZM7.48078 4.2213V9.45921H8.48078V4.2213H7.48078ZM7.48078 9.45921C7.48078 10.4088 8.25252 11.1805 9.20208 11.1805V10.1805C8.80481 10.1805 8.48078 9.85648 8.48078 9.45921H7.48078ZM9.20208 11.1805C9.86653 11.1805 10.4418 10.8025 10.7282 10.2543L9.84186 9.79125C9.72029 10.0239 9.47808 10.1805 9.20208 10.1805V11.1805ZM9.92367 10.3684C10.236 10.6949 10.6777 10.9009 11.1672 10.9009V9.90085C10.9635 9.90085 10.7791 9.81598 10.6464 9.6772L9.92367 10.3684ZM11.1672 10.9009C11.8689 10.9009 12.4711 10.4795 12.739 9.8803L11.8261 9.47215C11.7126 9.726 11.4587 9.90085 11.1672 9.90085V10.9009ZM11.7831 9.7006C11.8009 10.0654 11.9436 10.4277 12.2116 10.7119L12.9392 10.0259C12.8425 9.9234 12.7887 9.79049 12.7819 9.65185L11.7831 9.7006ZM12.2116 10.7119L12.9342 11.4784L13.6618 10.7924L12.9392 10.0259L12.2116 10.7119ZM13.1233 10.6669L12.808 10.7845L13.1575 11.7215L13.4727 11.6039L13.1233 10.6669ZM12.8081 10.7845C11.9039 11.1216 11.1775 11.7893 10.7654 12.6618L11.6697 13.0889C11.9703 12.4522 12.4977 11.9675 13.1574 11.7215L12.8081 10.7845ZM10.7654 12.6618C10.5912 13.0307 10.7489 13.4711 11.118 13.6453L11.5449 12.741C11.6755 12.8026 11.7312 12.9585 11.6697 13.0889L10.7654 12.6618ZM11.1177 13.6451C11.4868 13.8197 11.9274 13.6616 12.1015 13.2925L11.197 12.8659C11.2586 12.7353 11.4145 12.6793 11.5452 12.7411L11.1177 13.6451ZM12.1014 13.2927C12.3486 12.7693 12.7818 12.3711 13.3242 12.1688L12.9748 11.2318C12.188 11.5252 11.5557 12.1064 11.1971 12.8657L12.1014 13.2927ZM13.3242 12.1688L13.8222 11.9832L13.4728 11.0462L12.9748 11.2318L13.3242 12.1688ZM13.8222 11.9831C14.0887 11.8837 14.2872 11.6581 14.3518 11.381L13.3779 11.154C13.3894 11.1047 13.4254 11.0639 13.4727 11.0462L13.8222 11.9831ZM14.3518 11.381C14.4164 11.1039 14.3381 10.8138 14.143 10.6068L13.4153 11.2926C13.3806 11.2559 13.3664 11.2034 13.3779 11.154L14.3518 11.381ZM14.143 10.6067L13.2866 9.69838L12.559 10.3844L13.4153 11.2927L14.143 10.6067ZM13.2866 9.69836C13.2507 9.66029 13.2479 9.59604 13.2805 9.55495L12.4974 8.93306C12.1558 9.36325 12.1821 9.98461 12.559 10.3844L13.2866 9.69836ZM13.2805 9.55502C13.316 9.51034 13.377 9.50008 13.4252 9.53072L13.9621 8.68706C13.482 8.38158 12.8513 8.48756 12.4975 8.933L13.2805 9.55502ZM13.4252 9.53071L14.6581 10.3154L15.195 9.47177L13.9621 8.68708L13.4252 9.53071ZM14.6581 10.3154C14.8879 10.4616 15.0212 10.7218 15.0057 10.9937L16.004 11.0507C16.0402 10.4172 15.7304 9.81248 15.195 9.47176L14.6581 10.3154ZM15.0057 10.9937L14.9048 12.7611L15.9032 12.8181L16.004 11.0507L15.0057 10.9937ZM14.9048 12.7611C14.8782 13.2263 14.6596 13.6697 14.3068 13.9741L14.9599 14.7313C15.518 14.25 15.8612 13.5539 15.9032 12.8181L14.9048 12.7611ZM14.3068 13.9741L14.2044 14.0623L14.8576 14.8196L14.9599 14.7313L14.3068 13.9741ZM14.2044 14.0623C13.8954 14.3289 13.8611 14.7953 14.1275 15.1042L14.8848 14.4511C14.979 14.5603 14.9668 14.7253 14.8576 14.8196L14.2044 14.0623ZM14.1275 15.1041C14.2737 15.2737 14.4808 15.3605 14.687 15.3605V14.3605C14.7592 14.3605 14.833 14.3911 14.8848 14.4511L14.1275 15.1041ZM14.687 15.3605C14.8576 15.3605 15.0302 15.3013 15.1695 15.181L14.5162 14.424C14.5653 14.3815 14.6269 14.3605 14.687 14.3605V15.3605ZM15.1694 15.1811L15.2717 15.0929L14.6186 14.3356L14.5163 14.4239L15.1694 15.1811ZM15.2717 15.0929C15.9272 14.5275 16.3305 13.7096 16.3799 12.8453L15.3815 12.7883C15.3476 13.382 15.0689 13.9472 14.6186 14.3356L15.2717 15.0929ZM16.3799 12.8453L16.4807 11.0779L15.4823 11.021L15.3815 12.7883L16.3799 12.8453ZM16.4807 11.078C16.5268 10.272 16.1325 9.50247 15.4514 9.06902L14.9145 9.91267C15.2901 10.1517 15.5078 10.5766 15.4823 11.0209L16.4807 11.078ZM9.44594 9.45921C9.44594 9.59324 9.33612 9.70307 9.20208 9.70307V10.7031C9.88843 10.7031 10.4459 10.1455 10.4459 9.45921H9.44594ZM9.20208 9.70307C9.06805 9.70307 8.95823 9.59324 8.95823 9.45921H7.95823C7.95823 10.1455 8.51574 10.7031 9.20208 10.7031V9.70307ZM8.95823 9.45921V7.18712H7.95823V9.45921H8.95823ZM8.95823 7.18712C8.95823 7.0531 9.06807 6.94326 9.20208 6.94326V5.94326C8.51579 5.94326 7.95823 6.50082 7.95823 7.18712H8.95823ZM9.20208 6.94326C9.3361 6.94326 9.44594 7.0531 9.44594 7.18712H10.4459C10.4459 6.50082 9.88838 5.94326 9.20208 5.94326V6.94326ZM9.44594 7.18712V9.45921H10.4459V7.18712H9.44594ZM11.4111 9.17955C11.4111 9.31358 11.3013 9.42341 11.1672 9.42341V10.4234C11.8536 10.4234 12.4111 9.86584 12.4111 9.17955H11.4111ZM11.1672 9.42341C11.0332 9.42341 10.9234 9.31358 10.9234 9.17955H9.92339C9.92339 9.86584 10.4809 10.4234 11.1672 10.4234V9.42341ZM10.9234 9.17955V6.82738H9.92339V9.17955H10.9234ZM10.9234 6.82738C10.9234 6.69337 11.0332 6.58352 11.1672 6.58352V5.58352C10.4809 5.58352 9.92339 6.14108 9.92339 6.82738H10.9234ZM11.1672 6.58352C11.3013 6.58352 11.4111 6.69335 11.4111 6.82738H12.4111C12.4111 6.14104 11.8535 5.58352 11.1672 5.58352V6.58352ZM11.4111 6.82738V9.17955H12.4111V6.82738H11.4111Z" fill="#5E42CC" mask="url(#path-1-outside-1_10842_112596)"/>
<path d="M13.6659 16.8279V19.7616C13.6659 20.0315 13.4471 20.2503 13.1772 20.2503C12.9073 20.2503 12.6885 20.0315 12.6885 19.7616V16.643C12.6885 16.476 12.761 16.3175 12.8875 16.2085L13.6659 16.8279ZM13.6659 16.8279L14.2335 16.3384C14.2335 16.3384 14.2335 16.3384 14.2335 16.3384C14.438 16.162 14.4606 15.8535 14.2844 15.6491L14.2844 15.6491C14.1082 15.4448 13.7996 15.4217 13.5951 15.5982C13.5951 15.5982 13.5951 15.5982 13.595 15.5982L12.8875 16.2084L13.6659 16.8279Z" fill="#5E42CC" stroke="#5E42CC" stroke-width="0.5"/>
<path d="M7.11286 16.078L7.11286 16.078L7.30079 16.48L7.30082 16.4801L7.07434 16.586C7.11196 16.6664 7.13185 16.7559 7.13185 16.8447V19.761C7.13185 19.8929 7.02497 19.9998 6.89313 19.9998C6.7613 19.9998 6.65441 19.8929 6.65441 19.761V16.8447C6.65441 16.8253 6.65005 16.8058 6.64184 16.7882L7.11286 16.078ZM7.11286 16.078C6.87105 15.5608 6.74307 14.9848 6.74307 14.4138V13.8505C6.74307 13.5806 6.52426 13.3618 6.25435 13.3618C5.98444 13.3618 5.76562 13.5806 5.76562 13.8505V14.4138C5.76562 15.1274 5.9252 15.8455 6.22738 16.4919L6.22738 16.492L6.40441 16.8706L7.11286 16.078Z" fill="#5E42CC" stroke="#5E42CC" stroke-width="0.5"/>
</svg>
