<svg width="22" height="22" viewBox="0 0 22 22" fill="none" xmlns="http://www.w3.org/2000/svg">
<path d="M7.68767 17C7.86097 17 8.00276 16.9606 8.11304 16.8818C8.22857 16.808 8.30996 16.6922 8.35723 16.5347C8.6198 15.7812 8.94013 15.178 9.31824 14.725C9.69634 14.272 10.1427 13.9445 10.6573 13.7426C11.172 13.5407 11.7733 13.4398 12.4612 13.4398H12.7133V16.0324C12.7133 16.2884 12.8025 16.4977 12.9811 16.6602C13.1596 16.8277 13.3828 16.9114 13.6507 16.9114C13.8397 16.9114 14.0182 16.872 14.1863 16.7932C14.3543 16.7193 14.5303 16.6011 14.7141 16.4386L20.614 11.2386C20.7558 11.1106 20.8556 10.9777 20.9134 10.8398C20.9711 10.7019 21 10.5739 21 10.4557C21 10.3326 20.9711 10.2045 20.9134 10.0716C20.8556 9.93371 20.7558 9.80076 20.614 9.67273L14.7141 4.50966C14.5145 4.32746 14.336 4.19697 14.1784 4.11818C14.0261 4.03939 13.8555 4 13.6664 4C13.3881 4 13.1596 4.0911 12.9811 4.2733C12.8025 4.45057 12.7133 4.66477 12.7133 4.91591V7.48636H12.5085C11.7418 7.48636 11.0249 7.6267 10.358 7.90739C9.69109 8.18314 9.12393 8.60417 8.65656 9.17045C8.19443 9.73674 7.88197 10.4483 7.71918 11.3051H7.64041C7.46186 10.3646 7.13102 9.61364 6.64789 9.05227C6.17001 8.49091 5.60549 8.08958 4.95431 7.8483C4.30839 7.60701 3.64934 7.48636 2.97716 7.48636C2.94565 7.48636 2.89313 7.48636 2.81961 7.48636C2.75135 7.48636 2.64894 7.48636 2.51241 7.48636C1.98201 7.48636 1.59604 7.59962 1.35447 7.82614C1.11816 8.04773 1 8.42443 1 8.95625V12.2506C1 12.6691 1.11553 12.9769 1.34659 13.1739C1.57766 13.3708 1.94525 13.4693 2.44939 13.4693C2.58067 13.4693 2.70671 13.4693 2.82749 13.4693C2.94827 13.4693 3.07431 13.4693 3.20559 13.4693C3.86727 13.4693 4.45018 13.5998 4.95431 13.8608C5.4637 14.1169 5.89169 14.4763 6.23828 14.9392C6.58488 15.3972 6.85007 15.9265 7.03387 16.5273C7.07588 16.6848 7.15203 16.803 7.26231 16.8818C7.37259 16.9606 7.51438 17 7.68767 17ZM7.25443 14.8875C6.97611 14.2326 6.62951 13.718 6.21465 13.3437C5.80504 12.9646 5.33504 12.6937 4.80465 12.5312C4.27426 12.3638 3.68872 12.2777 3.04805 12.2727C2.97978 12.2727 2.90889 12.2727 2.83537 12.2727C2.7671 12.2727 2.69883 12.2727 2.63056 12.2727C2.43101 12.2727 2.33123 12.1669 2.33123 11.9551V8.99318C2.33123 8.78144 2.43364 8.67557 2.63844 8.67557C2.71721 8.67557 2.78548 8.67557 2.84325 8.67557C2.90101 8.67557 2.96665 8.67557 3.04017 8.67557C3.61783 8.68049 4.1561 8.78883 4.65498 9.00057C5.15912 9.21231 5.60549 9.55701 5.99409 10.0347C6.3827 10.5074 6.69253 11.1426 6.92359 11.9403C7.15991 12.7331 7.29382 13.7155 7.32533 14.8875H7.25443ZM14.0996 15.2642C14.0314 15.2642 13.9972 15.2273 13.9972 15.1534V12.5091C13.9972 12.3515 13.9132 12.2727 13.7452 12.2727H12.5163C11.7759 12.2727 11.1247 12.3663 10.5628 12.5534C10.0009 12.7356 9.52042 13.0212 9.12131 13.4102C8.7222 13.7943 8.39399 14.2867 8.13667 14.8875H8.0579C8.09991 13.4841 8.30209 12.322 8.66443 11.4011C9.03203 10.4754 9.54405 9.78352 10.2005 9.32557C10.8622 8.86761 11.663 8.63864 12.603 8.63864H13.7452C13.9132 8.63864 13.9972 8.56231 13.9972 8.40966V5.70625C13.9972 5.63239 14.0314 5.59545 14.0996 5.59545C14.1259 5.59545 14.1495 5.60284 14.1705 5.61761C14.1915 5.62746 14.2126 5.63977 14.2336 5.65455L19.4246 10.3227C19.4771 10.372 19.5033 10.4163 19.5033 10.4557C19.5033 10.4754 19.4981 10.4951 19.4876 10.5148C19.4771 10.5345 19.4561 10.5591 19.4246 10.5886L14.2257 15.2051C14.1837 15.2445 14.1417 15.2642 14.0996 15.2642Z" fill="#5E42CC"/>
</svg>
