<svg width="22" height="22" viewBox="0 0 22 22" fill="none" xmlns="http://www.w3.org/2000/svg">
<path d="M1.9638 21.1999H9.03523C9.62764 21.1999 10.1995 20.8177 10.1995 20.2499V19.7499C10.1995 19.1821 9.62764 18.7999 9.03523 18.7999H1.9638C1.37139 18.7999 0.799512 19.1821 0.799512 19.7499V20.2499C0.799512 20.8177 1.37139 21.1999 1.9638 21.1999ZM1.84237 19.7506C1.84312 19.7482 1.8465 19.7412 1.85944 19.7311C1.87988 19.7152 1.91617 19.6999 1.9638 19.6999H9.03523C9.08285 19.6999 9.11914 19.7152 9.13958 19.7311C9.15253 19.7412 9.15591 19.7482 9.15665 19.7506V20.2491C9.15591 20.2515 9.15253 20.2586 9.13958 20.2687C9.11914 20.2846 9.08285 20.2999 9.03523 20.2999H1.9638C1.91617 20.2999 1.87988 20.2846 1.85944 20.2687C1.8465 20.2586 1.84312 20.2515 1.84237 20.2491V19.7506ZM1.84219 19.7515C1.84216 19.7515 1.84218 19.7512 1.84234 19.7507L1.84219 19.7515ZM1.84219 20.2482C1.84222 20.2482 1.84229 20.2485 1.84234 20.249L1.84219 20.2482ZM9.15683 20.2482C9.15686 20.2482 9.15684 20.2485 9.15669 20.249L9.15683 20.2482ZM9.15683 19.7515C9.15681 19.7515 9.15673 19.7513 9.15669 19.7507L9.15683 19.7515Z" fill="#5E42CC" stroke="#5E42CC" stroke-width="0.4"/>
<path d="M5.94874 8.20415L5.9489 8.20391C6.30548 7.66715 6.85482 7.03445 7.49527 6.4208C8.13661 5.80551 8.79754 5.2778 9.35709 4.93654L5.94874 8.20415ZM5.94874 8.20415L5.93407 8.22631L5.93398 8.22643M5.94874 8.20415L5.93398 8.22643M8.36489 7.27112C9.03236 6.63202 9.59685 6.20836 9.99753 5.95211C10.2622 5.78282 10.3793 5.43358 10.2285 5.13835C10.082 4.85159 9.72132 4.71756 9.42481 4.89547C9.39951 4.91065 9.37672 4.92456 9.35717 4.93649L8.36489 7.27112ZM8.36489 7.27112C7.70203 7.90623 7.26244 8.44281 7.00098 8.8319C6.82806 9.08922 6.48406 9.21319 6.18346 9.07077C5.87276 8.92358 5.73023 8.53462 5.93398 8.22643M8.36489 7.27112L5.93398 8.22643M14.0077 9.41483L14.0075 9.41508L14.0077 9.41483ZM14.0077 9.41483L14.0078 9.41467C14.0277 9.38466 14.0529 9.3467 14.0808 9.30298C14.2934 8.97042 14.1044 8.56951 13.767 8.45081C13.4697 8.34621 13.1565 8.4817 12.9968 8.72681C12.7413 9.11924 12.2921 9.6769 11.5966 10.3438C10.9204 10.9912 10.35 11.4176 9.94829 11.673C9.67431 11.8471 9.55805 12.2147 9.7292 12.5132C9.88306 12.7816 10.2305 12.9015 10.5158 12.7306C10.547 12.7119 10.5747 12.6949 10.5979 12.6806C11.1565 12.3402 11.8165 11.8142 12.4569 11.2006M14.0077 9.41483L12.4569 11.2006M12.4569 11.2006C13.0989 10.5863 13.6499 9.95285 14.0074 9.41529L12.4569 11.2006ZM13.841 9.30435L13.8411 9.3044L13.841 9.30435Z" fill="#5E42CC" stroke="#5E42CC" stroke-width="0.4"/>
<path d="M7.85676 16.2488L7.857 16.2485L8.51921 15.5862C9.14632 14.959 9.14632 13.939 8.51921 13.3118L5.20816 10.0003C4.58104 9.37306 3.56107 9.37306 2.93395 10.0003L2.27199 10.6623C2.27195 10.6624 2.27191 10.6624 2.27186 10.6624C1.96718 10.9662 1.8 11.3709 1.8 11.8003C1.8 12.2295 1.96712 12.6343 2.27095 12.9372C2.27098 12.9372 2.27102 12.9372 2.27105 12.9373L5.58185 16.2485C5.89543 16.5622 6.30829 16.7194 6.71943 16.7194C7.13077 16.7194 7.54248 16.562 7.85676 16.2488ZM3.22153 11.6124L3.88239 10.9515C3.93591 10.8986 4.00387 10.8728 4.07059 10.8728C4.1373 10.8728 4.20526 10.8986 4.25879 10.9515C4.25889 10.9516 4.259 10.9517 4.25911 10.9518L7.56943 14.2626C7.67245 14.3656 7.67245 14.5343 7.56943 14.6373L6.90759 15.2993C6.90753 15.2993 6.90747 15.2994 6.90742 15.2994C6.8041 15.402 6.63611 15.4025 6.53238 15.2994C6.53233 15.2994 6.53227 15.2993 6.53222 15.2993L3.22153 11.9881C3.17018 11.9368 3.14332 11.8715 3.14332 11.8003C3.14332 11.729 3.17018 11.6638 3.22153 11.6124Z" fill="#5E42CC" stroke="#5E42CC" stroke-width="0.4"/>
<path d="M16.5867 7.51891L16.587 7.51867L17.2492 6.85636C17.8763 6.22917 17.8763 5.20911 17.2492 4.58192L13.9381 1.2704C13.311 0.643198 12.2911 0.643198 11.6639 1.2704L11.002 1.93246C11.0019 1.9325 11.0019 1.93254 11.0018 1.93259C10.6972 2.2363 10.53 2.64108 10.53 3.0704C10.53 3.49963 10.6971 3.90445 11.0009 4.2073C11.001 4.20734 11.001 4.20737 11.001 4.20741L14.3118 7.51867C14.6254 7.83229 15.0383 7.98954 15.4494 7.98954C15.8608 7.98954 16.2725 7.83216 16.5867 7.51891ZM11.9515 2.88255L12.6124 2.2216C12.6659 2.16879 12.7339 2.14298 12.8006 2.14298C12.8673 2.14298 12.9352 2.16879 12.9888 2.2216C12.9889 2.22171 12.989 2.22182 12.9891 2.22192L16.2994 5.5327C16.4024 5.63574 16.4024 5.80442 16.2994 5.90746L15.6376 6.5694C15.6375 6.56945 15.6375 6.56951 15.6374 6.56956C15.5341 6.67218 15.3661 6.67259 15.2624 6.56957C15.2623 6.56951 15.2623 6.56946 15.2622 6.5694L11.9515 3.25825C11.9002 3.2069 11.8733 3.14165 11.8733 3.0704C11.8733 2.99916 11.9002 2.93391 11.9515 2.88255Z" fill="#5E42CC" stroke="#5E42CC" stroke-width="0.4"/>
<path d="M13.6505 12.602C13.3991 12.8145 13.368 13.1911 13.5814 13.4418C15.5738 15.7905 17.6547 18.1957 18.2089 18.7498C18.7713 19.312 19.3339 19.6284 19.8894 19.6284C20.3198 19.6284 20.712 19.4379 21.0617 19.0891L21.0619 19.0889L21.0655 19.0853C21.2075 18.9434 21.5379 18.6131 21.5918 18.0752C21.5918 18.0753 21.5918 18.0753 21.5918 18.0753L13.6505 12.602ZM13.6505 12.602C13.901 12.3889 14.2778 12.4188 14.4913 12.6713C16.5754 15.1279 18.5871 17.4419 19.0521 17.9067L19.0522 17.9069C19.4879 18.3432 19.7485 18.4312 19.8905 18.4305C20.0241 18.43 20.1097 18.3533 20.2174 18.2464C20.3199 18.1439 20.3934 18.0619 20.4036 17.9574L20.4037 17.957C20.4115 17.8786 20.3874 17.7638 20.2999 17.6084C20.2135 17.455 20.0741 17.2776 19.8779 17.081L13.6505 12.602ZM20.7228 16.2382C20.7228 16.2382 20.7228 16.2382 20.7227 16.2381C20.1731 15.6879 17.7713 13.6114 15.4127 11.6109L15.4126 11.6108C15.163 11.3993 14.7871 11.4259 14.5721 11.6799C14.3584 11.9309 14.3901 12.3067 14.6411 12.5196L20.7228 16.2382ZM14.6412 12.5197C17.1079 14.6129 19.4168 16.6193 19.8778 17.081L14.6412 12.5197Z" fill="#5E42CC" stroke="#5E42CC" stroke-width="0.4"/>
</svg>
