<svg width="22" height="22" viewBox="0 0 22 22" fill="none" xmlns="http://www.w3.org/2000/svg">
<path d="M8.76045 13.3668C8.18545 12.7928 7.83545 12.0128 7.83545 11.1378C7.83545 9.3848 9.24745 7.9718 10.9994 7.9718C11.8664 7.9718 12.6644 8.3228 13.2294 8.8968" stroke="#5E42CC" stroke-width="1.5" stroke-linecap="round" stroke-linejoin="round"/>
<path d="M14.1049 11.699C13.8729 12.989 12.8569 14.007 11.5679 14.241" stroke="#5E42CC" stroke-width="1.5" stroke-linecap="round" stroke-linejoin="round"/>
<path d="M5.65451 16.4724C4.06751 15.2264 2.72351 13.4064 1.74951 11.1374C2.73351 8.85835 4.08651 7.02835 5.68351 5.77235C7.27051 4.51635 9.10151 3.83435 10.9995 3.83435C12.9085 3.83435 14.7385 4.52635 16.3355 5.79135" stroke="#5E42CC" stroke-width="1.5" stroke-linecap="round" stroke-linejoin="round"/>
<path d="M18.4473 7.99084C19.1353 8.90484 19.7403 9.95984 20.2493 11.1368C18.2823 15.6938 14.8063 18.4388 10.9993 18.4388C10.1363 18.4388 9.28529 18.2988 8.46729 18.0258" stroke="#5E42CC" stroke-width="1.5" stroke-linecap="round" stroke-linejoin="round"/>
<path d="M18.8868 3.24963L3.11279 19.0236" stroke="#5E42CC" stroke-width="1.5" stroke-linecap="round" stroke-linejoin="round"/>
</svg>
