<svg width="22" height="22" viewBox="0 0 22 22" fill="none" xmlns="http://www.w3.org/2000/svg">
<path d="M3.25 20C3.25 20.4142 3.58579 20.75 4 20.75C4.41421 20.75 4.75 20.4142 4.75 20H3.25ZM13.5833 15.125C13.5833 15.5392 13.9191 15.875 14.3333 15.875C14.7475 15.875 15.0833 15.5392 15.0833 15.125H13.5833ZM4.75 20V8H3.25V20H4.75ZM10 2.75H12V1.25H10V2.75ZM17.25 8V16H18.75V8H17.25ZM14 19.25H11.6667V20.75H14V19.25ZM8.41667 16V9.08333H6.91667V16H8.41667ZM13.5833 9.08333V15.125H15.0833V9.08333H13.5833ZM11 6.5C12.4267 6.5 13.5833 7.6566 13.5833 9.08333H15.0833C15.0833 6.82817 13.2552 5 11 5V6.5ZM8.41667 9.08333C8.41667 7.6566 9.57326 6.5 11 6.5V5C8.74484 5 6.91667 6.82817 6.91667 9.08333H8.41667ZM11.6667 19.25C9.87174 19.25 8.41667 17.7949 8.41667 16H6.91667C6.91667 18.6234 9.04331 20.75 11.6667 20.75V19.25ZM17.25 16C17.25 17.7949 15.7949 19.25 14 19.25V20.75C16.6234 20.75 18.75 18.6234 18.75 16H17.25ZM12 2.75C14.8995 2.75 17.25 5.10051 17.25 8H18.75C18.75 4.27208 15.7279 1.25 12 1.25V2.75ZM4.75 8C4.75 5.1005 7.10051 2.75 10 2.75V1.25C6.27208 1.25 3.25 4.27208 3.25 8H4.75Z" fill="#5E42CC"/>
</svg>
