<svg width="22" height="22" viewBox="0 0 22 22" fill="none" xmlns="http://www.w3.org/2000/svg">
<path d="M21 8.37173C21 7.32239 20.1463 6.46866 19.0969 6.46866C18.0476 6.46866 17.194 7.32239 17.194 8.37173C17.194 8.87619 17.3916 9.33517 17.7133 9.67606C17.1412 10.316 16.3105 10.7199 15.3867 10.7199C13.8914 10.7199 12.6389 9.66278 12.3359 8.25684C12.6858 7.91153 12.9031 7.43225 12.9031 6.90308C12.9031 5.85373 12.0493 5 11 5C9.95065 5 9.09692 5.85373 9.09692 6.90308C9.09692 7.43225 9.31436 7.91153 9.66409 8.25684C9.36105 9.66278 8.10861 10.7199 6.61325 10.7199C5.68948 10.7199 4.8588 10.316 4.28674 9.67606C4.6084 9.33517 4.80615 8.87619 4.80615 8.37173C4.80615 7.32239 3.95242 6.46866 2.90308 6.46866C1.85373 6.46866 1 7.32239 1 8.37173C1 9.28116 1.64133 10.0432 2.49536 10.2303C2.69785 11.9014 3.12677 14.0102 4.03406 15.4446V17.2017C4.03406 17.527 4.29773 17.7908 4.62305 17.7908H17.377C17.7023 17.7908 17.9659 17.527 17.9659 17.2017V15.4446C18.8732 14.0102 19.3022 11.9016 19.5046 10.2303C20.3587 10.043 21 9.28116 21 8.37173V8.37173ZM18.372 8.37173C18.372 7.97195 18.6971 7.64664 19.0969 7.64664C19.4967 7.64664 19.822 7.97195 19.822 8.37173C19.822 8.77151 19.4967 9.09668 19.0969 9.09668C18.6971 9.09668 18.372 8.77151 18.372 8.37173ZM10.2749 6.90308C10.2749 6.5033 10.6002 6.17798 11 6.17798C11.3998 6.17798 11.7249 6.5033 11.7249 6.90308C11.7249 7.30286 11.3998 7.62802 11 7.62802C10.6002 7.62802 10.2749 7.30286 10.2749 6.90308V6.90308ZM2.17798 8.37173C2.17798 7.97195 2.5033 7.64664 2.90308 7.64664C3.30286 7.64664 3.62802 7.97195 3.62802 8.37173C3.62802 8.77151 3.30286 9.09668 2.90308 9.09668C2.5033 9.09668 2.17798 8.77151 2.17798 8.37173ZM5.21204 16.6127V15.8585H16.788V16.6127H5.21204ZM17.0533 14.6803H4.94684C4.32687 13.6287 3.97089 12.1513 3.76672 10.818C4.52554 11.4897 5.52255 11.8979 6.61325 11.8979C8.57126 11.8979 10.2274 10.5821 10.7449 8.78845C10.8283 8.79974 10.9135 8.806 11 8.806C11.0865 8.806 11.1717 8.79974 11.2551 8.78845C11.7726 10.5821 13.4287 11.8979 15.3867 11.8979C16.4778 11.8979 17.4754 11.4894 18.2342 10.8171C18.0302 12.1503 17.6742 13.6275 17.0533 14.6803Z" fill="#5E42CC"/>
</svg>
