<svg width="22" height="22" viewBox="0 0 22 22" fill="none" xmlns="http://www.w3.org/2000/svg">
<mask id="path-1-outside-1_10842_113294" maskUnits="userSpaceOnUse" x="1" y="1" width="20" height="20" fill="black">
<rect fill="white" x="1" y="1" width="20" height="20"/>
<path d="M19.97 12.9759L19.9727 12.975L17.0174 6.52683L17.7341 6.17014L17.4659 5.63314L16.7672 5.98114L16.6727 5.77504C16.6036 5.62444 16.4256 5.55833 16.275 5.62737C16.2097 5.65733 16.1573 5.70972 16.1273 5.77504L16.043 5.95924C15.5345 5.72307 14.9807 5.60052 14.42 5.60014H11.9V5.00015H12.5V4.40015H11.9843L12.2 3.53706C12.3656 2.87433 11.9626 2.20282 11.2999 2.03719C10.6372 1.87159 9.96564 2.27456 9.8 2.93729C9.7508 3.13417 9.7508 3.34015 9.8 3.53702L10.0157 4.40012H9.5V5.00011H10.1V5.6001H7.5815C7.02028 5.60055 6.46588 5.7234 5.957 5.9601L5.8727 5.7759C5.80367 5.6253 5.62558 5.55919 5.47498 5.62823C5.40965 5.65819 5.35727 5.71058 5.3273 5.7759L5.2328 5.982L4.5341 5.6325L4.2659 6.1701L4.9826 6.52829L2.0273 12.975C2.00908 13.0142 1.99978 13.0569 2 13.1001C2.00132 14.2593 2.94077 15.1987 4.1 15.2H7.1C8.25924 15.1987 9.19869 14.2593 9.2 13.1001C9.19925 13.057 9.18901 13.0146 9.17 12.9759L6.2066 6.50343C6.63737 6.30348 7.1066 6.19999 7.5815 6.20014H10.1V17.1758L9.0758 18.2H8C7.172 18.201 6.50098 18.872 6.5 19.7C6.5 19.8657 6.63433 20 6.8 20H15.2C15.3657 20 15.5 19.8657 15.5 19.7C15.499 18.872 14.828 18.201 14 18.2H12.9242L11.9 17.1758V6.20014H14.42C14.8949 6.19999 15.3641 6.30348 15.7949 6.50343L12.8273 12.975C12.8091 13.0142 12.7998 13.0569 12.8 13.1001C12.8013 14.2593 13.7408 15.1987 14.9 15.2H17.9C19.0592 15.1987 19.9987 14.2593 20 13.1001C19.9993 13.057 19.989 13.0146 19.97 12.9759ZM7.1 14.6001H4.1C3.38743 14.5993 2.77344 14.098 2.63 13.4001H8.57C8.4266 14.098 7.81258 14.5993 7.1 14.6001ZM8.4326 12.8001H2.7674L5.5232 6.78783C5.57353 6.80133 5.62648 6.80133 5.6768 6.78783L8.4326 12.8001ZM10.4981 2.84497C10.7317 2.56777 11.1458 2.53248 11.423 2.76611C11.4515 2.79011 11.4779 2.81651 11.5019 2.84497C11.6233 2.99932 11.6661 3.20121 11.618 3.39156L11.3657 4.40015H10.6343L10.382 3.39156C10.3339 3.20121 10.3768 2.99932 10.4981 2.84497ZM10.7 5.60014V5.00015H11.3V5.60014H10.7ZM11.3 6.20014V17H10.7V6.20014H11.3V6.20014ZM14 18.8C14.3813 18.8005 14.7211 19.0407 14.8487 19.4H7.1513C7.27892 19.0407 7.6187 18.8005 8 18.8H14ZM12.0758 18.2H9.9242L10.5242 17.6H11.4758L12.0758 18.2ZM16.3226 6.78873C16.3721 6.80617 16.4265 6.80392 16.4744 6.78243L19.2326 12.8001H13.5674L16.3226 6.78873ZM17.9 14.6001H14.9C14.1874 14.5993 13.5734 14.098 13.43 13.4001H19.37C19.2266 14.098 18.6126 14.5993 17.9 14.6001Z"/>
</mask>
<path d="M19.97 12.9759L19.9727 12.975L17.0174 6.52683L17.7341 6.17014L17.4659 5.63314L16.7672 5.98114L16.6727 5.77504C16.6036 5.62444 16.4256 5.55833 16.275 5.62737C16.2097 5.65733 16.1573 5.70972 16.1273 5.77504L16.043 5.95924C15.5345 5.72307 14.9807 5.60052 14.42 5.60014H11.9V5.00015H12.5V4.40015H11.9843L12.2 3.53706C12.3656 2.87433 11.9626 2.20282 11.2999 2.03719C10.6372 1.87159 9.96564 2.27456 9.8 2.93729C9.7508 3.13417 9.7508 3.34015 9.8 3.53702L10.0157 4.40012H9.5V5.00011H10.1V5.6001H7.5815C7.02028 5.60055 6.46588 5.7234 5.957 5.9601L5.8727 5.7759C5.80367 5.6253 5.62558 5.55919 5.47498 5.62823C5.40965 5.65819 5.35727 5.71058 5.3273 5.7759L5.2328 5.982L4.5341 5.6325L4.2659 6.1701L4.9826 6.52829L2.0273 12.975C2.00908 13.0142 1.99978 13.0569 2 13.1001C2.00132 14.2593 2.94077 15.1987 4.1 15.2H7.1C8.25924 15.1987 9.19869 14.2593 9.2 13.1001C9.19925 13.057 9.18901 13.0146 9.17 12.9759L6.2066 6.50343C6.63737 6.30348 7.1066 6.19999 7.5815 6.20014H10.1V17.1758L9.0758 18.2H8C7.172 18.201 6.50098 18.872 6.5 19.7C6.5 19.8657 6.63433 20 6.8 20H15.2C15.3657 20 15.5 19.8657 15.5 19.7C15.499 18.872 14.828 18.201 14 18.2H12.9242L11.9 17.1758V6.20014H14.42C14.8949 6.19999 15.3641 6.30348 15.7949 6.50343L12.8273 12.975C12.8091 13.0142 12.7998 13.0569 12.8 13.1001C12.8013 14.2593 13.7408 15.1987 14.9 15.2H17.9C19.0592 15.1987 19.9987 14.2593 20 13.1001C19.9993 13.057 19.989 13.0146 19.97 12.9759ZM7.1 14.6001H4.1C3.38743 14.5993 2.77344 14.098 2.63 13.4001H8.57C8.4266 14.098 7.81258 14.5993 7.1 14.6001ZM8.4326 12.8001H2.7674L5.5232 6.78783C5.57353 6.80133 5.62648 6.80133 5.6768 6.78783L8.4326 12.8001ZM10.4981 2.84497C10.7317 2.56777 11.1458 2.53248 11.423 2.76611C11.4515 2.79011 11.4779 2.81651 11.5019 2.84497C11.6233 2.99932 11.6661 3.20121 11.618 3.39156L11.3657 4.40015H10.6343L10.382 3.39156C10.3339 3.20121 10.3768 2.99932 10.4981 2.84497ZM10.7 5.60014V5.00015H11.3V5.60014H10.7ZM11.3 6.20014V17H10.7V6.20014H11.3V6.20014ZM14 18.8C14.3813 18.8005 14.7211 19.0407 14.8487 19.4H7.1513C7.27892 19.0407 7.6187 18.8005 8 18.8H14ZM12.0758 18.2H9.9242L10.5242 17.6H11.4758L12.0758 18.2ZM16.3226 6.78873C16.3721 6.80617 16.4265 6.80392 16.4744 6.78243L19.2326 12.8001H13.5674L16.3226 6.78873ZM17.9 14.6001H14.9C14.1874 14.5993 13.5734 14.098 13.43 13.4001H19.37C19.2266 14.098 18.6126 14.5993 17.9 14.6001Z" fill="#5E42CC"/>
<path d="M19.97 12.9759L19.9727 12.975L17.0174 6.52683L17.7341 6.17014L17.4659 5.63314L16.7672 5.98114L16.6727 5.77504C16.6036 5.62444 16.4256 5.55833 16.275 5.62737C16.2097 5.65733 16.1573 5.70972 16.1273 5.77504L16.043 5.95924C15.5345 5.72307 14.9807 5.60052 14.42 5.60014H11.9V5.00015H12.5V4.40015H11.9843L12.2 3.53706C12.3656 2.87433 11.9626 2.20282 11.2999 2.03719C10.6372 1.87159 9.96564 2.27456 9.8 2.93729C9.7508 3.13417 9.7508 3.34015 9.8 3.53702L10.0157 4.40012H9.5V5.00011H10.1V5.6001H7.5815C7.02028 5.60055 6.46588 5.7234 5.957 5.9601L5.8727 5.7759C5.80367 5.6253 5.62558 5.55919 5.47498 5.62823C5.40965 5.65819 5.35727 5.71058 5.3273 5.7759L5.2328 5.982L4.5341 5.6325L4.2659 6.1701L4.9826 6.52829L2.0273 12.975C2.00908 13.0142 1.99978 13.0569 2 13.1001C2.00132 14.2593 2.94077 15.1987 4.1 15.2H7.1C8.25924 15.1987 9.19869 14.2593 9.2 13.1001C9.19925 13.057 9.18901 13.0146 9.17 12.9759L6.2066 6.50343C6.63737 6.30348 7.1066 6.19999 7.5815 6.20014H10.1V17.1758L9.0758 18.2H8C7.172 18.201 6.50098 18.872 6.5 19.7C6.5 19.8657 6.63433 20 6.8 20H15.2C15.3657 20 15.5 19.8657 15.5 19.7C15.499 18.872 14.828 18.201 14 18.2H12.9242L11.9 17.1758V6.20014H14.42C14.8949 6.19999 15.3641 6.30348 15.7949 6.50343L12.8273 12.975C12.8091 13.0142 12.7998 13.0569 12.8 13.1001C12.8013 14.2593 13.7408 15.1987 14.9 15.2H17.9C19.0592 15.1987 19.9987 14.2593 20 13.1001C19.9993 13.057 19.989 13.0146 19.97 12.9759ZM7.1 14.6001H4.1C3.38743 14.5993 2.77344 14.098 2.63 13.4001H8.57C8.4266 14.098 7.81258 14.5993 7.1 14.6001ZM8.4326 12.8001H2.7674L5.5232 6.78783C5.57353 6.80133 5.62648 6.80133 5.6768 6.78783L8.4326 12.8001ZM10.4981 2.84497C10.7317 2.56777 11.1458 2.53248 11.423 2.76611C11.4515 2.79011 11.4779 2.81651 11.5019 2.84497C11.6233 2.99932 11.6661 3.20121 11.618 3.39156L11.3657 4.40015H10.6343L10.382 3.39156C10.3339 3.20121 10.3768 2.99932 10.4981 2.84497ZM10.7 5.60014V5.00015H11.3V5.60014H10.7ZM11.3 6.20014V17H10.7V6.20014H11.3V6.20014ZM14 18.8C14.3813 18.8005 14.7211 19.0407 14.8487 19.4H7.1513C7.27892 19.0407 7.6187 18.8005 8 18.8H14ZM12.0758 18.2H9.9242L10.5242 17.6H11.4758L12.0758 18.2ZM16.3226 6.78873C16.3721 6.80617 16.4265 6.80392 16.4744 6.78243L19.2326 12.8001H13.5674L16.3226 6.78873ZM17.9 14.6001H14.9C14.1874 14.5993 13.5734 14.098 13.43 13.4001H19.37C19.2266 14.098 18.6126 14.5993 17.9 14.6001Z" stroke="#5E42CC" stroke-width="0.4" mask="url(#path-1-outside-1_10842_113294)"/>
</svg>
