<svg width="22" height="22" viewBox="0 0 22 22" fill="none" xmlns="http://www.w3.org/2000/svg">
<path fill-rule="evenodd" clip-rule="evenodd" d="M12.1043 3.17701L13.9317 6.82776C14.1108 7.18616 14.4565 7.43467 14.8573 7.49218L18.9453 8.08062C19.9554 8.22644 20.3573 9.45055 19.6263 10.1519L16.6702 12.9924C16.3797 13.2718 16.2474 13.6733 16.3162 14.0676L17.0138 18.0778C17.1856 19.0698 16.1298 19.8267 15.227 19.3574L11.5732 17.4627C11.215 17.2768 10.786 17.2768 10.4268 17.4627L6.773 19.3574C5.87023 19.8267 4.81439 19.0698 4.98724 18.0778L5.68385 14.0676C5.75257 13.6733 5.62033 13.2718 5.32982 12.9924L2.37368 10.1519C1.64272 9.45055 2.04464 8.22644 3.05466 8.08062L7.14265 7.49218C7.54354 7.43467 7.89028 7.18616 8.06937 6.82776L9.89574 3.17701C10.3477 2.27433 11.6523 2.27433 12.1043 3.17701Z" stroke="#5E42CC" stroke-width="1.5" stroke-linecap="round" stroke-linejoin="round"/>
</svg>
