<svg width="22" height="22" viewBox="0 0 22 22" fill="none" xmlns="http://www.w3.org/2000/svg">
<path fill-rule="evenodd" clip-rule="evenodd" d="M8.59151 14.2068C12.2805 14.2068 15.4335 14.7658 15.4335 16.9988C15.4335 19.2318 12.3015 19.8068 8.59151 19.8068C4.90151 19.8068 1.74951 19.2528 1.74951 17.0188C1.74951 14.7848 4.88051 14.2068 8.59151 14.2068Z" stroke="#5E42CC" stroke-width="1.5" stroke-linecap="round" stroke-linejoin="round"/>
<path fill-rule="evenodd" clip-rule="evenodd" d="M8.59157 11.0198C6.16957 11.0198 4.20557 9.05676 4.20557 6.63476C4.20557 4.21276 6.16957 2.24976 8.59157 2.24976C11.0126 2.24976 12.9766 4.21276 12.9766 6.63476C12.9856 9.04776 11.0356 11.0108 8.62257 11.0198H8.59157Z" stroke="#5E42CC" stroke-width="1.5" stroke-linecap="round" stroke-linejoin="round"/>
<path d="M15.4829 9.88153C17.0839 9.65653 18.3169 8.28253 18.3199 6.61953C18.3199 4.98053 17.1249 3.62053 15.5579 3.36353" stroke="#5E42CC" stroke-width="1.5" stroke-linecap="round" stroke-linejoin="round"/>
<path d="M17.5952 13.7322C19.1462 13.9632 20.2292 14.5072 20.2292 15.6272C20.2292 16.3982 19.7192 16.8982 18.8952 17.2112" stroke="#5E42CC" stroke-width="1.5" stroke-linecap="round" stroke-linejoin="round"/>
</svg>
