<svg width="20" height="20" viewBox="0 0 20 20" fill="none" xmlns="http://www.w3.org/2000/svg">
<path d="M11.1406 5.41336H17.4413" stroke="#5E42CC" stroke-width="1.5" stroke-linecap="round" stroke-linejoin="round"/>
<path d="M11 7.5127H16" stroke="#5E42CC" stroke-width="1.5" stroke-linecap="round" stroke-linejoin="round"/>
<path d="M11.1406 13.4134H17.4413" stroke="#5E42CC" stroke-width="1.5" stroke-linecap="round" stroke-linejoin="round"/>
<path d="M11 15.5127H16" stroke="#5E42CC" stroke-width="1.5" stroke-linecap="round" stroke-linejoin="round"/>
<path fill-rule="evenodd" clip-rule="evenodd" d="M6.72629 6.34625C6.72629 5.0506 5.66813 4 4.36314 4C3.05816 4 2 5.0506 2 6.34625C2 7.64191 3.05816 8.69251 4.36314 8.69251C5.66813 8.69251 6.72629 7.64191 6.72629 6.34625Z" stroke="#5E42CC" stroke-width="1.5" stroke-linecap="round" stroke-linejoin="round"/>
<path fill-rule="evenodd" clip-rule="evenodd" d="M6.72629 14.3463C6.72629 13.0506 5.66813 12 4.36314 12C3.05816 12 2 13.0506 2 14.3463C2 15.6419 3.05816 16.6925 4.36314 16.6925C5.66813 16.6925 6.72629 15.6419 6.72629 14.3463Z" stroke="#5E42CC" stroke-width="1.5" stroke-linecap="round" stroke-linejoin="round"/>
</svg>
