<svg width="22" height="22" viewBox="0 0 22 22" fill="none" xmlns="http://www.w3.org/2000/svg">
<path d="M14.8141 7.45188L14.814 7.45186C14.6542 7.36039 14.5794 7.17025 14.6339 6.9944L15.223 5.09491L14.6495 4.99673L14.6663 4.89816L14.6494 4.99673C14.5192 4.97441 14.4089 4.88818 14.3559 4.76719M14.8141 7.45188L16.9687 1.01941C16.8396 0.96992 16.6933 1.01758 16.618 1.13375L16.5341 1.07938L16.5341 1.07939L14.386 4.39578L14.4699 4.45014L14.386 4.39579C14.3142 4.50668 14.3029 4.64624 14.3559 4.76719M14.8141 7.45188C14.8751 7.48678 14.9424 7.50379 15.0091 7.50379C15.1167 7.50379 15.2231 7.45954 15.2997 7.37549L15.2997 7.37548L18.0525 4.35474L18.0525 4.35473C18.1385 4.26031 18.1733 4.12991 18.1457 4.00515C18.1181 3.88039 18.0315 3.77686 17.9137 3.72756L14.8141 7.45188ZM14.3559 4.76719L14.4475 4.72707L14.3559 4.76721C14.3559 4.7672 14.3559 4.7672 14.3559 4.76719ZM17.2521 1.35432C17.2811 1.171 17.1779 0.992383 17.0045 0.926031L17.8751 3.8198L17.9137 3.72755L16.9415 3.32068M17.2521 1.35432L17.1539 1.33879L17.2521 1.35431L17.2521 1.35432ZM17.2521 1.35432L16.9415 3.32068M16.9415 3.32068L16.8691 3.29037L16.8305 3.38262L16.9292 3.39822L16.9415 3.32068ZM15.3697 4.32262L16.1867 3.06127L16.117 3.50272L16.117 3.50272C16.0887 3.6816 16.1863 3.8566 16.3534 3.92654L16.3534 3.92654L17.096 4.23733L15.9073 5.54184L16.1064 4.89967C16.1064 4.89965 16.1064 4.89964 16.1064 4.89962C16.14 4.79147 16.1252 4.67417 16.0661 4.57772C16.0661 4.57772 16.0661 4.57771 16.0661 4.57771L15.9808 4.63L15.3697 4.32262Z" fill="#5E42CC" stroke="#5E42CC" stroke-width="0.2"/>
<path d="M7.42175 6.69985L7.42173 6.69986L4.66791 9.72064C4.66791 9.72064 4.66791 9.72064 4.6679 9.72065C4.59128 9.80471 4.48495 9.8489 4.37736 9.8489C4.3106 9.8489 4.24325 9.8319 4.1822 9.79693L7.42175 6.69985ZM7.42175 6.69985C7.50782 6.6054 7.54262 6.47499 7.515 6.35022C7.48738 6.22545 7.40078 6.12188 7.2829 6.07258L7.28289 6.07258M7.42175 6.69985L7.28289 6.07258M7.28289 6.07258L6.30968 5.66565L6.62032 3.69939C6.62032 3.69939 6.62032 3.69939 6.62032 3.69939C6.64929 3.51605 6.54601 3.33744 6.37265 3.27106L6.3726 3.27104M7.28289 6.07258L6.3726 3.27104M6.3726 3.27104C6.19937 3.20483 6.00328 3.26862 5.90228 3.42443L5.90225 3.42447M6.3726 3.27104L5.90225 3.42447M5.90225 3.42447L3.75413 6.742M5.90225 3.42447L3.75413 6.742M3.75413 6.742C3.75413 6.74201 3.75413 6.74201 3.75413 6.74201M3.75413 6.742L3.75413 6.74201M3.75413 6.74201C3.68229 6.85294 3.67103 6.99258 3.72421 7.11362L3.75413 6.74201ZM4.01813 7.343L4.59111 7.44048L4.01813 7.343ZM5.16528 6.74098L4.73821 6.66832L5.55481 5.40713L5.48519 5.84787L5.48519 5.84788C5.45695 6.02679 5.55461 6.20185 5.72175 6.27174L5.72175 6.27175L6.46512 6.58258L5.27526 7.8878L5.4747 7.24481C5.4747 7.2448 5.47471 7.24479 5.47471 7.24478C5.5083 7.1366 5.4935 7.01919 5.43426 6.92271C5.375 6.82619 5.27696 6.75996 5.16531 6.74098C5.1653 6.74098 5.16529 6.74098 5.16528 6.74098Z" fill="#5E42CC" stroke="#5E42CC" stroke-width="0.2"/>
<mask id="path-3-outside-1_10842_113313" maskUnits="userSpaceOnUse" x="0" y="7.09106" width="22" height="15" fill="black">
<rect fill="white" y="7.09106" width="22" height="15"/>
<path d="M20.9514 8.22247C20.8762 8.10884 20.7326 8.06196 20.605 8.10946L16.9951 9.4511L15.9739 8.70954C15.8971 8.65376 15.7981 8.63868 15.7081 8.66899L14.007 9.24266C13.9688 8.65684 13.4804 8.19188 12.8852 8.19188C12.5556 8.19188 12.2587 8.33411 12.0526 8.56036C11.8468 8.33411 11.5502 8.19188 11.2209 8.19188C10.7968 8.19188 10.4269 8.42794 10.2354 8.77548C10.0466 8.63243 9.81138 8.54731 9.55665 8.54731C9.01908 8.54731 8.56865 8.92657 8.45826 9.43149C8.30615 9.34856 8.13181 9.30138 7.94665 9.30138C7.35654 9.30138 6.87642 9.78153 6.87642 10.3717V11.2527L5.97083 11.5563L4.56747 11.0788C4.44154 11.0359 4.3024 11.0833 4.22888 11.1943L1.04876 15.9934C0.977083 16.1015 0.985091 16.244 1.06841 16.3434C1.1254 16.4113 1.20829 16.4482 1.29306 16.4482C1.33228 16.4482 1.37193 16.4403 1.40954 16.424L3.30411 15.6024C3.45255 15.538 3.52072 15.3654 3.4563 15.217C3.39193 15.0686 3.21939 15.0004 3.07095 15.0648L2.08306 15.4932L4.59251 11.7062L5.87576 12.1428C5.93654 12.1635 6.0024 12.1636 6.06326 12.1432L6.87638 11.8707V12.1445C6.87638 12.7347 7.3565 13.2148 7.94661 13.2148C8.26103 13.2148 8.54423 13.0788 8.7404 12.8626C8.94552 13.0792 9.23544 13.2148 9.55661 13.2148C9.92911 13.2148 10.2597 13.033 10.4648 12.7537C10.5227 12.8088 10.5862 12.8577 10.6552 12.8985C10.8058 12.9874 10.9686 13.032 11.1319 13.032C11.1954 13.032 11.2589 13.0249 11.3218 13.0114C11.3858 13.094 11.4619 13.1686 11.5499 13.2324L7.37595 15.396L6.22587 13.9343C6.14361 13.8298 6.00126 13.7938 5.87911 13.8467L4.32337 14.5211C4.1749 14.5854 4.10673 14.7579 4.17107 14.9064C4.2354 15.0548 4.40798 15.1229 4.55638 15.0586L5.90497 14.4741L7.06533 15.9488C7.12247 16.0214 7.20822 16.0606 7.29572 16.0606C7.34138 16.0606 7.38759 16.0499 7.43036 16.0277L7.81845 15.8265C7.9538 16.0295 8.12126 16.2126 8.32025 16.3732V20.6398C8.32025 20.8016 8.45138 20.9327 8.61322 20.9327H13.1221C13.2839 20.9327 13.4151 20.8016 13.4151 20.6398V19.2015C13.4151 19.0397 13.2839 18.9085 13.1221 18.9085C12.9602 18.9085 12.8291 19.0397 12.8291 19.2015V20.3469H8.90626V16.5213H10.0882C10.25 16.5213 10.3811 16.3901 10.3811 16.2283C10.3811 16.0665 10.25 15.9353 10.0882 15.9353H8.71193C8.56751 15.822 8.44423 15.6947 8.34286 15.5548L12.3808 13.4617H13.4023C13.5642 13.4617 13.6953 13.3306 13.6953 13.1688C13.6953 13.007 13.5642 12.8758 13.4023 12.8758H12.3094C12.1006 12.8758 11.9297 12.8108 11.8151 12.6878C11.7137 12.5791 11.6579 12.4301 11.6579 12.2683C11.6579 11.9617 11.8617 11.6524 12.3172 11.6524H13.8479H13.8523C14.246 11.6524 14.5294 11.7265 14.6507 11.8611C14.6762 11.8895 14.7539 11.9757 14.7299 12.2009L14.5106 14.2562C14.4402 14.9188 14.0282 15.4268 13.1334 15.9546C13.0902 15.9799 13.0402 16.0077 12.9849 16.037C12.9846 16.0372 12.9845 16.0373 12.9842 16.0374C12.9817 16.0388 12.9792 16.0403 12.9767 16.0418C12.975 16.0428 12.9732 16.0438 12.9717 16.0448C12.8865 16.096 12.8292 16.1891 12.8292 16.2958V17.8483C12.8292 18.01 12.9604 18.1412 13.1222 18.1412C13.284 18.1412 13.4152 18.01 13.4152 17.8483V16.4684C13.4202 16.4655 13.4256 16.4624 13.4305 16.4595C14.1435 16.039 14.9767 15.4156 15.0933 14.3182L15.3125 12.2629C15.3147 12.2426 15.3164 12.2225 15.3177 12.2025L15.806 11.82L16.7991 12.5618C16.8515 12.6009 16.913 12.6201 16.9743 12.6201C17.0524 12.6201 17.1299 12.589 17.1871 12.5285L20.9198 8.58536C21.0135 8.48653 21.0266 8.3361 20.9514 8.22247V8.22247ZM8.43212 12.1445C8.43212 12.4116 8.21435 12.6289 7.94665 12.6289C7.67958 12.6289 7.46236 12.4116 7.46236 12.1445V10.3717C7.46236 10.1046 7.67962 9.88731 7.94665 9.88731C8.21435 9.88731 8.43212 10.1046 8.43212 10.3717V12.1445ZM10.0964 12.0902C10.0964 12.3873 9.85427 12.6289 9.55665 12.6289C9.25966 12.6289 9.01806 12.3872 9.01806 12.0902V9.67184C9.01806 9.37485 9.2597 9.13321 9.55665 9.13321C9.85427 9.13321 10.0964 9.37485 10.0964 9.67184V12.0902ZM11.7595 11.1795C11.5945 11.2537 11.4733 11.3533 11.3888 11.444C11.1845 11.6634 11.0719 11.9562 11.0719 12.2683C11.0719 12.3263 11.0761 12.3843 11.0842 12.4418C11.0329 12.434 10.9886 12.4149 10.9534 12.3941C10.7888 12.2968 10.6824 12.0876 10.6824 11.8611V9.31645C10.6824 9.01942 10.924 8.77782 11.221 8.77782C11.5179 8.77782 11.7596 9.01946 11.7596 9.31645V11.1795H11.7595ZM13.4238 11.0665H12.3455V9.31641C12.3455 9.01938 12.5876 8.77778 12.8852 8.77778C13.1822 8.77778 13.4238 9.01942 13.4238 9.31641V11.0665ZM16.9408 11.9365L15.9771 11.2166C15.8711 11.1375 15.7252 11.1391 15.6211 11.2207L15.1681 11.5755C15.1436 11.5384 15.1164 11.5028 15.0861 11.469C14.8646 11.2231 14.5111 11.0923 14.0097 11.0702V9.86009L15.752 9.27251L16.7779 10.0174C16.8572 10.075 16.9601 10.0891 17.0522 10.055L19.6283 9.09751L16.9408 11.9365Z"/>
</mask>
<path d="M20.9514 8.22247C20.8762 8.10884 20.7326 8.06196 20.605 8.10946L16.9951 9.4511L15.9739 8.70954C15.8971 8.65376 15.7981 8.63868 15.7081 8.66899L14.007 9.24266C13.9688 8.65684 13.4804 8.19188 12.8852 8.19188C12.5556 8.19188 12.2587 8.33411 12.0526 8.56036C11.8468 8.33411 11.5502 8.19188 11.2209 8.19188C10.7968 8.19188 10.4269 8.42794 10.2354 8.77548C10.0466 8.63243 9.81138 8.54731 9.55665 8.54731C9.01908 8.54731 8.56865 8.92657 8.45826 9.43149C8.30615 9.34856 8.13181 9.30138 7.94665 9.30138C7.35654 9.30138 6.87642 9.78153 6.87642 10.3717V11.2527L5.97083 11.5563L4.56747 11.0788C4.44154 11.0359 4.3024 11.0833 4.22888 11.1943L1.04876 15.9934C0.977083 16.1015 0.985091 16.244 1.06841 16.3434C1.1254 16.4113 1.20829 16.4482 1.29306 16.4482C1.33228 16.4482 1.37193 16.4403 1.40954 16.424L3.30411 15.6024C3.45255 15.538 3.52072 15.3654 3.4563 15.217C3.39193 15.0686 3.21939 15.0004 3.07095 15.0648L2.08306 15.4932L4.59251 11.7062L5.87576 12.1428C5.93654 12.1635 6.0024 12.1636 6.06326 12.1432L6.87638 11.8707V12.1445C6.87638 12.7347 7.3565 13.2148 7.94661 13.2148C8.26103 13.2148 8.54423 13.0788 8.7404 12.8626C8.94552 13.0792 9.23544 13.2148 9.55661 13.2148C9.92911 13.2148 10.2597 13.033 10.4648 12.7537C10.5227 12.8088 10.5862 12.8577 10.6552 12.8985C10.8058 12.9874 10.9686 13.032 11.1319 13.032C11.1954 13.032 11.2589 13.0249 11.3218 13.0114C11.3858 13.094 11.4619 13.1686 11.5499 13.2324L7.37595 15.396L6.22587 13.9343C6.14361 13.8298 6.00126 13.7938 5.87911 13.8467L4.32337 14.5211C4.1749 14.5854 4.10673 14.7579 4.17107 14.9064C4.2354 15.0548 4.40798 15.1229 4.55638 15.0586L5.90497 14.4741L7.06533 15.9488C7.12247 16.0214 7.20822 16.0606 7.29572 16.0606C7.34138 16.0606 7.38759 16.0499 7.43036 16.0277L7.81845 15.8265C7.9538 16.0295 8.12126 16.2126 8.32025 16.3732V20.6398C8.32025 20.8016 8.45138 20.9327 8.61322 20.9327H13.1221C13.2839 20.9327 13.4151 20.8016 13.4151 20.6398V19.2015C13.4151 19.0397 13.2839 18.9085 13.1221 18.9085C12.9602 18.9085 12.8291 19.0397 12.8291 19.2015V20.3469H8.90626V16.5213H10.0882C10.25 16.5213 10.3811 16.3901 10.3811 16.2283C10.3811 16.0665 10.25 15.9353 10.0882 15.9353H8.71193C8.56751 15.822 8.44423 15.6947 8.34286 15.5548L12.3808 13.4617H13.4023C13.5642 13.4617 13.6953 13.3306 13.6953 13.1688C13.6953 13.007 13.5642 12.8758 13.4023 12.8758H12.3094C12.1006 12.8758 11.9297 12.8108 11.8151 12.6878C11.7137 12.5791 11.6579 12.4301 11.6579 12.2683C11.6579 11.9617 11.8617 11.6524 12.3172 11.6524H13.8479H13.8523C14.246 11.6524 14.5294 11.7265 14.6507 11.8611C14.6762 11.8895 14.7539 11.9757 14.7299 12.2009L14.5106 14.2562C14.4402 14.9188 14.0282 15.4268 13.1334 15.9546C13.0902 15.9799 13.0402 16.0077 12.9849 16.037C12.9846 16.0372 12.9845 16.0373 12.9842 16.0374C12.9817 16.0388 12.9792 16.0403 12.9767 16.0418C12.975 16.0428 12.9732 16.0438 12.9717 16.0448C12.8865 16.096 12.8292 16.1891 12.8292 16.2958V17.8483C12.8292 18.01 12.9604 18.1412 13.1222 18.1412C13.284 18.1412 13.4152 18.01 13.4152 17.8483V16.4684C13.4202 16.4655 13.4256 16.4624 13.4305 16.4595C14.1435 16.039 14.9767 15.4156 15.0933 14.3182L15.3125 12.2629C15.3147 12.2426 15.3164 12.2225 15.3177 12.2025L15.806 11.82L16.7991 12.5618C16.8515 12.6009 16.913 12.6201 16.9743 12.6201C17.0524 12.6201 17.1299 12.589 17.1871 12.5285L20.9198 8.58536C21.0135 8.48653 21.0266 8.3361 20.9514 8.22247V8.22247ZM8.43212 12.1445C8.43212 12.4116 8.21435 12.6289 7.94665 12.6289C7.67958 12.6289 7.46236 12.4116 7.46236 12.1445V10.3717C7.46236 10.1046 7.67962 9.88731 7.94665 9.88731C8.21435 9.88731 8.43212 10.1046 8.43212 10.3717V12.1445ZM10.0964 12.0902C10.0964 12.3873 9.85427 12.6289 9.55665 12.6289C9.25966 12.6289 9.01806 12.3872 9.01806 12.0902V9.67184C9.01806 9.37485 9.2597 9.13321 9.55665 9.13321C9.85427 9.13321 10.0964 9.37485 10.0964 9.67184V12.0902ZM11.7595 11.1795C11.5945 11.2537 11.4733 11.3533 11.3888 11.444C11.1845 11.6634 11.0719 11.9562 11.0719 12.2683C11.0719 12.3263 11.0761 12.3843 11.0842 12.4418C11.0329 12.434 10.9886 12.4149 10.9534 12.3941C10.7888 12.2968 10.6824 12.0876 10.6824 11.8611V9.31645C10.6824 9.01942 10.924 8.77782 11.221 8.77782C11.5179 8.77782 11.7596 9.01946 11.7596 9.31645V11.1795H11.7595ZM13.4238 11.0665H12.3455V9.31641C12.3455 9.01938 12.5876 8.77778 12.8852 8.77778C13.1822 8.77778 13.4238 9.01942 13.4238 9.31641V11.0665ZM16.9408 11.9365L15.9771 11.2166C15.8711 11.1375 15.7252 11.1391 15.6211 11.2207L15.1681 11.5755C15.1436 11.5384 15.1164 11.5028 15.0861 11.469C14.8646 11.2231 14.5111 11.0923 14.0097 11.0702V9.86009L15.752 9.27251L16.7779 10.0174C16.8572 10.075 16.9601 10.0891 17.0522 10.055L19.6283 9.09751L16.9408 11.9365Z" fill="#5E42CC"/>
<path d="M20.9514 8.22247C20.8762 8.10884 20.7326 8.06196 20.605 8.10946L16.9951 9.4511L15.9739 8.70954C15.8971 8.65376 15.7981 8.63868 15.7081 8.66899L14.007 9.24266C13.9688 8.65684 13.4804 8.19188 12.8852 8.19188C12.5556 8.19188 12.2587 8.33411 12.0526 8.56036C11.8468 8.33411 11.5502 8.19188 11.2209 8.19188C10.7968 8.19188 10.4269 8.42794 10.2354 8.77548C10.0466 8.63243 9.81138 8.54731 9.55665 8.54731C9.01908 8.54731 8.56865 8.92657 8.45826 9.43149C8.30615 9.34856 8.13181 9.30138 7.94665 9.30138C7.35654 9.30138 6.87642 9.78153 6.87642 10.3717V11.2527L5.97083 11.5563L4.56747 11.0788C4.44154 11.0359 4.3024 11.0833 4.22888 11.1943L1.04876 15.9934C0.977083 16.1015 0.985091 16.244 1.06841 16.3434C1.1254 16.4113 1.20829 16.4482 1.29306 16.4482C1.33228 16.4482 1.37193 16.4403 1.40954 16.424L3.30411 15.6024C3.45255 15.538 3.52072 15.3654 3.4563 15.217C3.39193 15.0686 3.21939 15.0004 3.07095 15.0648L2.08306 15.4932L4.59251 11.7062L5.87576 12.1428C5.93654 12.1635 6.0024 12.1636 6.06326 12.1432L6.87638 11.8707V12.1445C6.87638 12.7347 7.3565 13.2148 7.94661 13.2148C8.26103 13.2148 8.54423 13.0788 8.7404 12.8626C8.94552 13.0792 9.23544 13.2148 9.55661 13.2148C9.92911 13.2148 10.2597 13.033 10.4648 12.7537C10.5227 12.8088 10.5862 12.8577 10.6552 12.8985C10.8058 12.9874 10.9686 13.032 11.1319 13.032C11.1954 13.032 11.2589 13.0249 11.3218 13.0114C11.3858 13.094 11.4619 13.1686 11.5499 13.2324L7.37595 15.396L6.22587 13.9343C6.14361 13.8298 6.00126 13.7938 5.87911 13.8467L4.32337 14.5211C4.1749 14.5854 4.10673 14.7579 4.17107 14.9064C4.2354 15.0548 4.40798 15.1229 4.55638 15.0586L5.90497 14.4741L7.06533 15.9488C7.12247 16.0214 7.20822 16.0606 7.29572 16.0606C7.34138 16.0606 7.38759 16.0499 7.43036 16.0277L7.81845 15.8265C7.9538 16.0295 8.12126 16.2126 8.32025 16.3732V20.6398C8.32025 20.8016 8.45138 20.9327 8.61322 20.9327H13.1221C13.2839 20.9327 13.4151 20.8016 13.4151 20.6398V19.2015C13.4151 19.0397 13.2839 18.9085 13.1221 18.9085C12.9602 18.9085 12.8291 19.0397 12.8291 19.2015V20.3469H8.90626V16.5213H10.0882C10.25 16.5213 10.3811 16.3901 10.3811 16.2283C10.3811 16.0665 10.25 15.9353 10.0882 15.9353H8.71193C8.56751 15.822 8.44423 15.6947 8.34286 15.5548L12.3808 13.4617H13.4023C13.5642 13.4617 13.6953 13.3306 13.6953 13.1688C13.6953 13.007 13.5642 12.8758 13.4023 12.8758H12.3094C12.1006 12.8758 11.9297 12.8108 11.8151 12.6878C11.7137 12.5791 11.6579 12.4301 11.6579 12.2683C11.6579 11.9617 11.8617 11.6524 12.3172 11.6524H13.8479H13.8523C14.246 11.6524 14.5294 11.7265 14.6507 11.8611C14.6762 11.8895 14.7539 11.9757 14.7299 12.2009L14.5106 14.2562C14.4402 14.9188 14.0282 15.4268 13.1334 15.9546C13.0902 15.9799 13.0402 16.0077 12.9849 16.037C12.9846 16.0372 12.9845 16.0373 12.9842 16.0374C12.9817 16.0388 12.9792 16.0403 12.9767 16.0418C12.975 16.0428 12.9732 16.0438 12.9717 16.0448C12.8865 16.096 12.8292 16.1891 12.8292 16.2958V17.8483C12.8292 18.01 12.9604 18.1412 13.1222 18.1412C13.284 18.1412 13.4152 18.01 13.4152 17.8483V16.4684C13.4202 16.4655 13.4256 16.4624 13.4305 16.4595C14.1435 16.039 14.9767 15.4156 15.0933 14.3182L15.3125 12.2629C15.3147 12.2426 15.3164 12.2225 15.3177 12.2025L15.806 11.82L16.7991 12.5618C16.8515 12.6009 16.913 12.6201 16.9743 12.6201C17.0524 12.6201 17.1299 12.589 17.1871 12.5285L20.9198 8.58536C21.0135 8.48653 21.0266 8.3361 20.9514 8.22247V8.22247ZM8.43212 12.1445C8.43212 12.4116 8.21435 12.6289 7.94665 12.6289C7.67958 12.6289 7.46236 12.4116 7.46236 12.1445V10.3717C7.46236 10.1046 7.67962 9.88731 7.94665 9.88731C8.21435 9.88731 8.43212 10.1046 8.43212 10.3717V12.1445ZM10.0964 12.0902C10.0964 12.3873 9.85427 12.6289 9.55665 12.6289C9.25966 12.6289 9.01806 12.3872 9.01806 12.0902V9.67184C9.01806 9.37485 9.2597 9.13321 9.55665 9.13321C9.85427 9.13321 10.0964 9.37485 10.0964 9.67184V12.0902ZM11.7595 11.1795C11.5945 11.2537 11.4733 11.3533 11.3888 11.444C11.1845 11.6634 11.0719 11.9562 11.0719 12.2683C11.0719 12.3263 11.0761 12.3843 11.0842 12.4418C11.0329 12.434 10.9886 12.4149 10.9534 12.3941C10.7888 12.2968 10.6824 12.0876 10.6824 11.8611V9.31645C10.6824 9.01942 10.924 8.77782 11.221 8.77782C11.5179 8.77782 11.7596 9.01946 11.7596 9.31645V11.1795H11.7595ZM13.4238 11.0665H12.3455V9.31641C12.3455 9.01938 12.5876 8.77778 12.8852 8.77778C13.1822 8.77778 13.4238 9.01942 13.4238 9.31641V11.0665ZM16.9408 11.9365L15.9771 11.2166C15.8711 11.1375 15.7252 11.1391 15.6211 11.2207L15.1681 11.5755C15.1436 11.5384 15.1164 11.5028 15.0861 11.469C14.8646 11.2231 14.5111 11.0923 14.0097 11.0702V9.86009L15.752 9.27251L16.7779 10.0174C16.8572 10.075 16.9601 10.0891 17.0522 10.055L19.6283 9.09751L16.9408 11.9365Z" stroke="#5E42CC" stroke-width="0.4" mask="url(#path-3-outside-1_10842_113313)"/>
</svg>
