<svg width="22" height="22" viewBox="0 0 22 22" fill="none" xmlns="http://www.w3.org/2000/svg">
<path fill-rule="evenodd" clip-rule="evenodd" d="M1.50185 11.0001C1.49906 12.2298 1.44419 13.907 2.20494 14.5339C2.91453 15.1187 3.41395 14.968 4.70945 15.0631C6.00587 15.1591 8.74195 18.97 10.8512 17.7646C11.9393 16.9089 12.0202 15.1151 12.0202 11.0001C12.0202 6.88515 11.9393 5.09135 10.8512 4.23571C8.74195 3.02938 6.00587 6.84121 4.70945 6.93717C3.41395 7.03225 2.91453 6.88157 2.20494 7.46635C1.44419 8.09328 1.49906 9.77049 1.50185 11.0001Z" stroke="#5E42CC" stroke-width="1.5" stroke-linecap="round" stroke-linejoin="round"/>
<path d="M18.5845 4.90393C21.1345 8.57495 21.1429 13.4173 18.5845 17.0955" stroke="#5E42CC" stroke-width="1.5" stroke-linecap="round" stroke-linejoin="round"/>
<path d="M16.0811 7.31445C17.3924 9.60514 17.3924 12.4026 16.0811 14.6861" stroke="#5E42CC" stroke-width="1.5" stroke-linecap="round" stroke-linejoin="round"/>
</svg>
