<svg width="22" height="22" viewBox="0 0 22 22" fill="none" xmlns="http://www.w3.org/2000/svg">
<path d="M11.0051 21C12.3707 21 13.6574 20.7358 14.8652 20.2074C16.0729 19.6859 17.1366 18.9653 18.0561 18.0458C18.9756 17.1263 19.6962 16.066 20.2177 14.8652C20.7392 13.6574 21 12.3673 21 10.9949C21 9.62927 20.7358 8.3426 20.2074 7.13484C19.6859 5.92709 18.9653 4.86344 18.0458 3.9439C17.1263 3.02436 16.0626 2.30383 14.8549 1.7823C13.6471 1.26077 12.3604 1 10.9949 1C9.62927 1 8.3426 1.26077 7.13484 1.7823C5.93395 2.30383 4.8703 3.02436 3.9439 3.9439C3.02436 4.86344 2.30383 5.92709 1.7823 7.13484C1.26077 8.3426 1 9.62927 1 10.9949C1 12.3673 1.26077 13.6574 1.7823 14.8652C2.31069 16.066 3.03465 17.1263 3.95419 18.0458C4.87373 18.9653 5.93395 19.6859 7.13484 20.2074C8.3426 20.7358 9.6327 21 11.0051 21ZM11.0051 19.1678C9.87288 19.1678 8.81266 18.9551 7.8245 18.5296C6.83634 18.111 5.96826 17.5277 5.22028 16.7797C4.47229 16.0317 3.889 15.1637 3.47041 14.1755C3.05181 13.1873 2.84251 12.1271 2.84251 10.9949C2.84251 9.86258 3.05181 8.80237 3.47041 7.81421C3.889 6.82604 4.47229 5.95797 5.22028 5.20998C5.96826 4.462 6.8329 3.87871 7.81421 3.46011C8.80237 3.04152 9.86258 2.83222 10.9949 2.83222C12.1271 2.83222 13.1873 3.04152 14.1755 3.46011C15.1637 3.87871 16.0317 4.462 16.7797 5.20998C17.5277 5.95797 18.111 6.82604 18.5296 7.81421C18.9551 8.80237 19.1678 9.86258 19.1678 10.9949C19.1746 12.1271 18.9653 13.1873 18.5399 14.1755C18.1213 15.1637 17.538 16.0317 16.79 16.7797C16.0489 17.5277 15.1808 18.111 14.1858 18.5296C13.1976 18.9551 12.1374 19.1678 11.0051 19.1678ZM7.58775 9.13176C7.58775 9.33076 7.65637 9.50232 7.79362 9.64642C7.93773 9.78367 8.10928 9.85229 8.30829 9.85229H10.3052V11.8286C10.3052 12.0276 10.3738 12.1992 10.5111 12.3433C10.6483 12.4805 10.8164 12.5492 11.0154 12.5492C11.2144 12.5492 11.3826 12.4805 11.5198 12.3433C11.6639 12.1992 11.736 12.0276 11.736 11.8286V9.85229H13.7123C13.9113 9.85229 14.0794 9.78367 14.2167 9.64642C14.3539 9.50232 14.4225 9.33076 14.4225 9.13176C14.4225 8.93275 14.3539 8.76463 14.2167 8.62738C14.0794 8.48327 13.9113 8.41122 13.7123 8.41122H11.736V6.43489C11.736 6.23589 11.6639 6.06776 11.5198 5.93052C11.3826 5.78641 11.2144 5.71436 11.0154 5.71436C10.8164 5.71436 10.6483 5.78641 10.5111 5.93052C10.3738 6.06776 10.3052 6.23589 10.3052 6.43489V8.41122H8.30829C8.10928 8.41122 7.93773 8.48327 7.79362 8.62738C7.65637 8.76463 7.58775 8.93275 7.58775 9.13176ZM7.58775 14.9166C7.58775 15.1019 7.6598 15.27 7.80391 15.421C7.94802 15.5651 8.12301 15.6372 8.32887 15.6372H13.6917C13.8976 15.6372 14.0691 15.5651 14.2064 15.421C14.3505 15.27 14.4225 15.1019 14.4225 14.9166C14.4225 14.7245 14.3505 14.5564 14.2064 14.4122C14.0691 14.2681 13.8976 14.1961 13.6917 14.1961H8.32887C8.12301 14.1961 7.94802 14.2681 7.80391 14.4122C7.6598 14.5564 7.58775 14.7245 7.58775 14.9166Z" fill="#5E42CC"/>
</svg>
