<svg width="22" height="22" viewBox="0 0 22 22" fill="none" xmlns="http://www.w3.org/2000/svg">
<path d="M11.5697 17.9249C11.9156 17.9249 12.2429 17.8106 12.5517 17.5821C12.8667 17.3536 13.157 17.0633 13.4225 16.7113C13.6881 16.3592 13.9352 15.9856 14.1637 15.5903C14.3984 15.1951 14.6083 14.8276 14.7936 14.4879C15.0098 14.0988 15.229 13.7221 15.4514 13.3577C15.6737 12.9871 15.859 12.6413 16.0072 12.3201C16.1554 11.9928 16.2295 11.6871 16.2295 11.403C16.2295 10.9768 16.1122 10.6063 15.8775 10.2913C15.6428 9.97633 15.2753 9.67679 14.7751 9.39269C14.6948 9.34328 14.6207 9.33711 14.5528 9.37416C14.491 9.41122 14.457 9.4668 14.4508 9.54092C14.4447 9.60885 14.4879 9.68296 14.5805 9.76325C14.8708 10.0041 15.124 10.1894 15.3402 10.3191C15.5625 10.4426 15.788 10.5044 16.0165 10.5044C16.4056 10.5044 16.8749 10.3376 17.4246 10.0041C17.9804 9.66444 18.5579 9.21359 19.157 8.65157L18.2398 8.31806C18.0731 8.44159 17.8322 8.59907 17.5172 8.79053C17.2023 8.97581 16.8996 9.14256 16.6094 9.29079C16.3191 9.43284 16.1215 9.50386 16.0165 9.50386C15.9362 9.50386 15.8405 9.46372 15.7293 9.38343C15.6243 9.30314 15.4606 9.18271 15.2383 9.02213C14.9789 8.8245 14.7319 8.74112 14.4972 8.772C14.2687 8.80288 14.0896 8.9017 13.9599 9.06845C13.8302 9.2352 13.7808 9.42666 13.8116 9.64282C13.8425 9.85898 13.9876 10.0535 14.247 10.2265C14.63 10.4797 14.8893 10.6835 15.0252 10.8379C15.1611 10.9861 15.229 11.1745 15.229 11.403C15.229 11.5389 15.1765 11.718 15.0715 11.9403C14.9727 12.1565 14.7751 12.5178 14.4786 13.0242C14.3922 13.1724 14.2995 13.3299 14.2007 13.4967C14.1019 13.6634 14.0062 13.8363 13.9135 14.0154C13.4565 14.843 13.0921 15.4668 12.8204 15.8868C12.5548 16.3006 12.3356 16.5785 12.1626 16.7205C11.9959 16.8564 11.826 16.9243 11.6531 16.9243C11.3752 16.9243 11.193 16.8132 11.1065 16.5908C11.0201 16.3623 10.9799 16.0443 10.9861 15.6366C10.9985 15.229 11.0046 14.7473 11.0046 14.1915C11.0046 13.6356 10.8873 13.1539 10.6526 12.7463C10.4241 12.3325 10.0412 12.1256 9.50386 12.1256C9.38034 12.1256 9.2352 12.1379 9.06845 12.1626C8.90787 12.1812 8.75656 12.2028 8.61451 12.2275C8.45394 12.2522 8.29954 12.2769 8.15131 12.3016C8.00309 12.3201 7.86104 12.3294 7.72517 12.3294C7.58312 12.3294 7.41637 12.2553 7.22491 12.1071C7.03963 11.9527 6.85435 11.7674 6.66907 11.5512C6.48996 11.335 6.33865 11.1251 6.21513 10.9213C6.09779 10.7174 6.03911 10.563 6.03911 10.4581C6.03911 10.2851 6.10088 10.0721 6.2244 9.81884C6.35409 9.55944 6.53628 9.30005 6.77097 9.04066C7.00566 8.77509 7.28049 8.55584 7.59547 8.38291C7.91662 8.20381 8.26557 8.11426 8.64231 8.11426C8.98816 8.11426 9.30932 8.13896 9.60576 8.18837C9.90221 8.23778 10.1925 8.28718 10.4766 8.33659C10.7051 8.37983 10.9367 8.41997 11.1714 8.45703C11.4061 8.49408 11.6408 8.51261 11.8755 8.51261C12.1595 8.51261 12.4375 8.4632 12.7092 8.36439C12.981 8.26557 13.2064 8.1297 13.3855 7.95677C13.5646 7.78384 13.6541 7.58621 13.6541 7.36387C13.6541 7.12301 13.5214 6.89758 13.2558 6.6876C12.9902 6.47761 12.6505 6.29542 12.2367 6.14102C11.823 5.98662 11.3937 5.86619 10.949 5.77972C10.5106 5.69326 10.1153 5.65003 9.76325 5.65003C9.5718 5.65003 9.33093 5.69943 9.04066 5.79825C8.75039 5.89707 8.35203 6.06073 7.8456 6.28924C7.75296 6.33865 7.67267 6.34174 7.60474 6.29851C7.5368 6.2491 7.50283 6.18734 7.50283 6.11323C7.50283 6.03294 7.54606 5.96191 7.63253 5.90015C7.68811 5.8631 7.74678 5.82604 7.80854 5.78899C7.8703 5.75193 7.93824 5.71487 8.01235 5.67782C8.27792 5.50489 8.52805 5.35358 8.76274 5.22388C9.0036 5.08801 9.1858 5.02007 9.30932 5.02007C9.3896 5.02007 9.46372 5.02316 9.53165 5.02934C9.60576 5.03551 9.6984 5.05095 9.80957 5.07566C10.0319 5.11271 10.1925 5.13124 10.2913 5.13124C10.5445 5.13124 10.7452 5.06022 10.8935 4.91817C11.0479 4.77612 11.1251 4.5754 11.1251 4.31601C11.1251 4.15543 11.1559 4.035 11.2177 3.95471C11.2795 3.86825 11.3968 3.78178 11.5697 3.69532L12.2831 3.35255L11.2826 2.72259L10.6155 3.1858C10.4056 3.32784 10.2697 3.49151 10.2079 3.67679C10.1523 3.86207 10.1245 4.10293 10.1245 4.39938L10.3562 4.14925C10.1894 4.1122 10.0165 4.08132 9.83737 4.05661C9.65826 4.03191 9.49768 4.01956 9.35564 4.01956C9.04066 4.01956 8.72259 4.10911 8.40144 4.28821C8.08029 4.46732 7.65106 4.72054 7.11374 5.04786C6.78641 5.2455 6.58569 5.50489 6.51158 5.82604C6.44364 6.14102 6.4807 6.43747 6.62275 6.71539C6.7648 6.99331 6.9964 7.18477 7.31755 7.28976C7.6387 7.39475 8.0247 7.33608 8.47555 7.11374C8.80906 6.94699 9.0808 6.82964 9.29079 6.76171C9.50077 6.6876 9.65826 6.65054 9.76325 6.65054C9.9053 6.65054 10.1338 6.68142 10.4488 6.74318C10.7638 6.79876 11.088 6.86979 11.4215 6.95625C11.7612 7.03654 12.0515 7.11683 12.2923 7.19712C12.5332 7.27741 12.6536 7.33299 12.6536 7.36387C12.6536 7.41328 12.5857 7.4596 12.4498 7.50283C12.3201 7.54606 12.1534 7.56768 11.9496 7.56768C11.7334 7.56768 11.4586 7.53062 11.1251 7.45651C10.7977 7.37622 10.421 7.29902 9.99485 7.22491C9.57488 7.1508 9.12404 7.11374 8.64231 7.11374C8.09264 7.11374 7.59547 7.24653 7.1508 7.51209C6.70612 7.77149 6.3263 8.09264 6.01132 8.47555C5.69635 8.85229 5.45548 9.22594 5.28873 9.5965C5.12198 9.96089 5.0386 10.2481 5.0386 10.4581C5.0386 10.7051 5.12506 10.9923 5.29799 11.3196C5.47092 11.6469 5.69326 11.9619 5.965 12.2645C6.24292 12.5672 6.53628 12.8204 6.84509 13.0242C7.15389 13.228 7.44725 13.3299 7.72517 13.3299C8.00926 13.3299 8.29954 13.3083 8.59599 13.2651C8.89243 13.2218 9.158 13.1848 9.39269 13.1539C9.6212 13.1168 9.76943 13.1786 9.83737 13.3392C9.88677 13.4627 9.92692 13.5955 9.9578 13.7375C9.99485 13.8734 10.0134 14.0494 10.0134 14.2656C10.0134 14.4261 10.0041 14.6547 9.98559 14.9511C9.97324 15.2476 9.97633 15.5656 9.99485 15.9053C10.0134 16.245 10.0721 16.5692 10.1709 16.878C10.2759 17.1868 10.4364 17.437 10.6526 17.6284C10.8749 17.826 11.1806 17.9249 11.5697 17.9249ZM14.9604 6.47452C15.0777 6.47452 15.1796 6.43129 15.2661 6.34483C15.3587 6.25836 15.405 6.13176 15.405 5.965C15.405 5.85383 15.3464 5.7334 15.229 5.60371C15.1117 5.46783 14.9635 5.35358 14.7844 5.26094C14.6052 5.1683 14.4323 5.12198 14.2656 5.12198C14.0988 5.12198 13.929 5.15286 13.756 5.21462C13.5893 5.27638 13.5059 5.39681 13.5059 5.57591C13.5059 5.69326 13.5893 5.82295 13.756 5.965C13.929 6.10705 14.1297 6.22748 14.3582 6.3263C14.5867 6.42512 14.7874 6.47452 14.9604 6.47452ZM11.0046 20C12.2337 20 13.3917 19.7622 14.4786 19.2867C15.5656 18.8173 16.5229 18.1688 17.3505 17.3412C18.1781 16.5136 18.8266 15.5594 19.2959 14.4786C19.7653 13.3917 20 12.2306 20 10.9954C20 9.76634 19.7622 8.60834 19.2867 7.52136C18.8173 6.43438 18.1688 5.4771 17.3412 4.64951C16.5136 3.82192 15.5564 3.17344 14.4694 2.70407C13.3824 2.23469 12.2244 2 10.9954 2C9.76634 2 8.60834 2.23469 7.52136 2.70407C6.44056 3.17344 5.48327 3.82192 4.64951 4.64951C3.82192 5.4771 3.17344 6.43438 2.70407 7.52136C2.23469 8.60834 2 9.76634 2 10.9954C2 12.2306 2.23469 13.3917 2.70407 14.4786C3.17962 15.5594 3.83119 16.5136 4.65878 17.3412C5.48636 18.1688 6.44056 18.8173 7.52136 19.2867C8.60834 19.7622 9.76943 20 11.0046 20ZM11.0046 18.6845C9.95471 18.6845 8.96346 18.4838 8.03088 18.0823C7.10448 17.6809 6.28616 17.1282 5.57591 16.4241C4.86567 15.7138 4.30983 14.8955 3.90839 13.9691C3.50695 13.0365 3.30623 12.0453 3.30623 10.9954C3.30623 9.94545 3.50695 8.95728 3.90839 8.03088C4.30983 7.0983 4.86567 6.27998 5.57591 5.57591C6.28616 4.86567 7.10448 4.30983 8.03088 3.90839C8.95728 3.50695 9.94545 3.30623 10.9954 3.30623C12.0515 3.30623 13.0427 3.50695 13.9691 3.90839C14.8955 4.30983 15.7138 4.86567 16.4241 5.57591C17.1343 6.27998 17.6902 7.0983 18.0916 8.03088C18.4931 8.95728 18.6938 9.94545 18.6938 10.9954C18.6938 12.0453 18.4931 13.0365 18.0916 13.9691C17.6902 14.8955 17.1343 15.7138 16.4241 16.4241C15.7138 17.1282 14.8955 17.6809 13.9691 18.0823C13.0427 18.4838 12.0546 18.6845 11.0046 18.6845Z" fill="#5E42CC"/>
</svg>
