<svg width="22" height="22" viewBox="0 0 22 22" fill="none" xmlns="http://www.w3.org/2000/svg">
<path fill-rule="evenodd" clip-rule="evenodd" d="M16.2777 12.8891C16.9524 12.8891 17.5188 13.446 17.4156 14.1123C16.8103 18.0323 13.4545 20.9428 9.40717 20.9428C4.92928 20.9428 1.2998 17.3134 1.2998 12.8365C1.2998 9.14809 4.10191 5.7123 7.25665 4.93546C7.93454 4.76809 8.62928 5.24493 8.62928 5.94283C8.62928 10.6712 8.78823 11.8944 9.68612 12.5597C10.584 13.2249 11.6398 12.8891 16.2777 12.8891Z" stroke="#5E42CC" stroke-width="1.5" stroke-linecap="round" stroke-linejoin="round"/>
<path fill-rule="evenodd" clip-rule="evenodd" d="M20.6921 8.95157C20.7458 5.91368 17.0142 1.01684 12.4669 1.10105C12.1132 1.10736 11.83 1.4021 11.8142 1.75473C11.6995 4.25263 11.8542 7.48947 11.9406 8.95684C11.9669 9.41368 12.3258 9.77263 12.7816 9.79894C14.29 9.88526 17.6448 10.0032 20.1069 9.63052C20.4416 9.57999 20.6869 9.28947 20.6921 8.95157Z" stroke="#5E42CC" stroke-width="1.5" stroke-linecap="round" stroke-linejoin="round"/>
</svg>
