<svg width="22" height="22" viewBox="0 0 22 22" fill="none" xmlns="http://www.w3.org/2000/svg">
<path d="M4.2118 16.009H9.29022V14.4933H4.26273C3.9329 14.4933 3.68068 14.3857 3.50606 14.1704C3.33145 13.9552 3.24414 13.6353 3.24414 13.2108V4.80718C3.24414 4.38266 3.33145 4.06278 3.50606 3.84753C3.68068 3.63229 3.9329 3.52466 4.26273 3.52466H14.2231C14.553 3.52466 14.8076 3.63229 14.9871 3.84753C15.1665 4.06278 15.2563 4.38266 15.2563 4.80718V9.67713H16.4859V4.69955C16.4859 3.80867 16.2991 3.13602 15.9256 2.68161C15.557 2.2272 15.0065 2 14.2741 2H4.2118C3.47939 2 2.92643 2.2272 2.55295 2.68161C2.18432 3.13004 2 3.80269 2 4.69955V13.3184C2 14.2093 2.18432 14.8819 2.55295 15.3363C2.92643 15.7848 3.47939 16.009 4.2118 16.009ZM10.9345 20H17.7882C18.5206 20 19.0711 19.7728 19.4398 19.3184C19.8133 18.864 20 18.1913 20 17.3004V11.7309C20 10.8401 19.8133 10.1674 19.4398 9.713C19.0711 9.2586 18.5206 9.03139 17.7882 9.03139H10.9345C10.2021 9.03139 9.64915 9.2586 9.27567 9.713C8.90703 10.1614 8.72272 10.8341 8.72272 11.7309V17.3004C8.72272 18.1913 8.90703 18.864 9.27567 19.3184C9.64915 19.7728 10.2021 20 10.9345 20ZM10.9854 18.4753C10.6605 18.4753 10.4082 18.3647 10.2288 18.1435C10.0493 17.9283 9.95958 17.6114 9.95958 17.1928V11.8386C9.95958 11.4081 10.0493 11.0882 10.2288 10.8789C10.4082 10.6637 10.6605 10.5561 10.9854 10.5561H17.73C18.0598 10.5561 18.3145 10.6637 18.4939 10.8789C18.6734 11.0882 18.7631 11.4081 18.7631 11.8386V17.1928C18.7631 17.6114 18.6734 17.9283 18.4939 18.1435C18.3145 18.3647 18.0598 18.4753 17.73 18.4753H10.9854Z" fill="#5E42CC"/>
</svg>
