<svg width="22" height="22" viewBox="0 0 22 22" fill="none" xmlns="http://www.w3.org/2000/svg">
<path d="M15.7896 11.9645C14.4439 10.3398 12.7431 9.44507 11.0002 9.44507C9.2573 9.44507 7.55641 10.3398 6.21086 11.9645C5.00133 13.4249 4.2793 15.2653 4.2793 16.8878C4.2793 17.6759 4.52023 18.2762 4.99539 18.6721C5.46438 19.0629 6.08355 19.1951 6.77434 19.195C7.50937 19.195 8.32555 19.0453 9.12746 18.8982C9.8282 18.7697 10.4901 18.6483 11.0002 18.6483C11.4405 18.6483 12.0614 18.7635 12.7185 18.8855C14.2543 19.1707 15.9951 19.4938 17.0007 18.6577C17.4787 18.2602 17.7211 17.6647 17.7211 16.8878C17.7212 15.2653 16.9991 13.4249 15.7896 11.9645ZM16.2515 17.7566C15.6686 18.2413 14.1514 17.9596 12.9323 17.7334C12.2206 17.6012 11.5483 17.4764 11.0002 17.4764C10.3834 17.4764 9.67063 17.6072 8.91594 17.7456C7.74676 17.9601 6.29168 18.227 5.74543 17.7718C5.67262 17.7112 5.45105 17.5266 5.45105 16.8877C5.45105 15.55 6.08801 13.9499 7.11328 12.712C8.23223 11.361 9.61262 10.6169 11.0001 10.6169C12.3876 10.6169 13.768 11.361 14.887 12.712C15.9123 13.9499 16.5492 15.55 16.5492 16.8877C16.5493 17.509 16.3252 17.6954 16.2515 17.7566Z" fill="#5E42CC"/>
<path d="M15.9273 3.14215C15.435 2.41625 14.73 2 13.993 2C13.2561 2 12.5511 2.41633 12.0588 3.14215C11.6065 3.80898 11.3574 4.68469 11.3574 5.60797C11.3574 6.53125 11.6065 7.40695 12.0588 8.07379C12.5511 8.79965 13.2561 9.21598 13.993 9.21598C14.73 9.21598 15.435 8.79965 15.9273 8.07379C16.3796 7.40695 16.6287 6.53125 16.6287 5.60797C16.6287 4.68469 16.3796 3.80895 15.9273 3.14215ZM14.9575 7.41602C14.7984 7.65059 14.4615 8.04414 13.993 8.04414C13.5246 8.04414 13.1877 7.65063 13.0286 7.41602C12.7113 6.94813 12.5293 6.2891 12.5293 5.60797C12.5293 4.9268 12.7113 4.26781 13.0286 3.79992C13.1877 3.56535 13.5246 3.1718 13.993 3.1718C14.4615 3.1718 14.7984 3.56531 14.9575 3.79992C15.2748 4.26781 15.4568 4.92684 15.4568 5.60797C15.4568 6.2891 15.2748 6.94813 14.9575 7.41602Z" fill="#5E42CC"/>
<path d="M9.94195 3.14268C9.44961 2.41678 8.74465 2.00049 8.0077 2.00049C7.27074 2.00049 6.56574 2.41682 6.07344 3.14268C5.62117 3.80951 5.37207 4.68522 5.37207 5.6085C5.37207 6.53178 5.62113 7.40748 6.07344 8.07432C6.56578 8.80022 7.27074 9.21654 8.0077 9.21654C8.74465 9.21654 9.44961 8.80022 9.94195 8.07432C10.3942 7.40748 10.6433 6.53182 10.6433 5.6085C10.6433 4.68522 10.3942 3.80947 9.94195 3.14268ZM8.97207 7.41658C8.81297 7.65115 8.47609 8.04471 8.00766 8.04471C7.53918 8.04471 7.2023 7.65115 7.0432 7.41658C6.72586 6.94869 6.54387 6.28967 6.54387 5.60854C6.54387 4.92736 6.7259 4.26838 7.0432 3.80049C7.2023 3.56592 7.53918 3.17236 8.00766 3.17236C8.47613 3.17236 8.81297 3.56588 8.97207 3.80049C9.28941 4.26838 9.47141 4.9274 9.47141 5.60854C9.47141 6.28967 9.28941 6.94869 8.97207 7.41658Z" fill="#5E42CC"/>
<path d="M20.8835 8.80599C20.6851 8.13083 20.2596 7.64024 19.6857 7.42466C19.2238 7.25118 18.7025 7.2806 18.2176 7.50751C17.5495 7.82017 17.0033 8.46579 16.7193 9.2788C16.4873 9.94318 16.4583 10.6454 16.6379 11.2562C16.8364 11.9314 17.2618 12.422 17.8358 12.6376C18.0344 12.7122 18.244 12.7492 18.457 12.7492C18.7393 12.7492 19.0275 12.684 19.3039 12.5547C19.9721 12.2421 20.5182 11.5964 20.8022 10.7835V10.7834C21.0342 10.1191 21.0632 9.41681 20.8835 8.80599ZM19.6959 10.397C19.5179 10.9064 19.1857 11.3162 18.8072 11.4933C18.668 11.5584 18.458 11.6195 18.2478 11.5405C17.7405 11.3499 17.5431 10.4736 17.8256 9.66525C18.0035 9.15584 18.3357 8.74599 18.7143 8.56884C18.8065 8.52568 18.9299 8.48431 19.0638 8.48431C19.1319 8.48431 19.2028 8.49501 19.2736 8.52161C19.7809 8.71224 19.9783 9.58857 19.6959 10.397Z" fill="#5E42CC"/>
<path d="M5.28071 9.27874C4.99669 8.46573 4.45056 7.82015 3.78243 7.50749C3.29755 7.28058 2.77614 7.2512 2.31431 7.42464C1.74032 7.64027 1.31489 8.13085 1.11642 8.80597C0.936846 9.41678 0.965791 10.119 1.19786 10.7834V10.7834C1.48192 11.5964 2.02802 12.242 2.69614 12.5547C2.97255 12.684 3.26079 12.7492 3.5431 12.7492C3.75606 12.7492 3.96567 12.7121 4.16427 12.6375C4.73833 12.4219 5.16372 11.9313 5.3622 11.2562C5.54169 10.6454 5.51274 9.94315 5.28071 9.27874ZM3.75216 11.5405C3.54196 11.6195 3.33196 11.5584 3.19282 11.4933C2.81435 11.3162 2.48208 10.9064 2.30415 10.397V10.397C2.02177 9.58862 2.21907 8.71233 2.72642 8.52171C2.93657 8.44276 3.14661 8.50382 3.28579 8.5689C3.66431 8.74604 3.99653 9.15589 4.17446 9.66526C4.45685 10.4737 4.2595 11.3499 3.75216 11.5405Z" fill="#5E42CC"/>
</svg>
