<svg width="22" height="22" viewBox="0 0 22 22" fill="none" xmlns="http://www.w3.org/2000/svg">
<path d="M6.625 6.16406H7.95312V4.4375C7.95312 4.08333 8.04427 3.8125 8.22656 3.625C8.41406 3.43229 8.69531 3.33594 9.07031 3.33594H12.2344V6.98438C12.2344 7.42708 12.3464 7.76042 12.5703 7.98438C12.7995 8.20312 13.1328 8.3125 13.5703 8.3125H16.9219V14.5234C16.9219 14.8828 16.8281 15.1589 16.6406 15.3516C16.4583 15.5391 16.1797 15.6328 15.8047 15.6328H14.3828V16.9609H15.8984C16.6797 16.9609 17.2656 16.763 17.6562 16.3672C18.0521 15.9661 18.25 15.3724 18.25 14.5859V8.66406C18.25 8.19531 18.1953 7.79688 18.0859 7.46875C17.9766 7.14062 17.7786 6.83073 17.4922 6.53906L13.7891 2.76562C13.513 2.48958 13.2109 2.29427 12.8828 2.17969C12.5599 2.0599 12.1927 2 11.7812 2H8.96875C8.19792 2 7.61458 2.20052 7.21875 2.60156C6.82292 3.0026 6.625 3.59375 6.625 4.375V6.16406ZM13.3828 6.80469V3.92188L16.5781 7.17188H13.75C13.5052 7.17188 13.3828 7.04948 13.3828 6.80469ZM3 18.3281C3 19.1146 3.19792 19.7057 3.59375 20.1016C3.98958 20.5026 4.57552 20.7031 5.35156 20.7031H12.2812C13.0573 20.7031 13.6432 20.5026 14.0391 20.1016C14.4349 19.7057 14.6328 19.1146 14.6328 18.3281V12.6094C14.6328 12.1198 14.5859 11.737 14.4922 11.4609C14.4036 11.1797 14.2083 10.8854 13.9062 10.5781L9.875 6.46875C9.58333 6.17188 9.29427 5.97656 9.00781 5.88281C8.72656 5.78906 8.36979 5.74219 7.9375 5.74219H5.35156C4.57552 5.74219 3.98958 5.94271 3.59375 6.34375C3.19792 6.74479 3 7.33594 3 8.11719V18.3281ZM4.33594 18.2656V8.17188C4.33594 7.82292 4.42708 7.55469 4.60938 7.36719C4.79688 7.17448 5.07552 7.07812 5.44531 7.07812H7.78125V11.2266C7.78125 11.7318 7.90625 12.1068 8.15625 12.3516C8.40625 12.5964 8.77865 12.7188 9.27344 12.7188H13.3047V18.2656C13.3047 18.625 13.2109 18.8984 13.0234 19.0859C12.8359 19.2786 12.5573 19.375 12.1875 19.375H5.4375C5.06771 19.375 4.79167 19.2786 4.60938 19.0859C4.42708 18.8984 4.33594 18.625 4.33594 18.2656ZM9.41406 11.5234C9.26302 11.5234 9.15365 11.4896 9.08594 11.4219C9.01823 11.3542 8.98438 11.2448 8.98438 11.0938V7.35156L13.0859 11.5234H9.41406Z" fill="#5E42CC"/>
</svg>
