<svg width="22" height="22" viewBox="0 0 22 22" fill="none" xmlns="http://www.w3.org/2000/svg">
<path d="M11.0181 2.67765C11.2661 2.67765 11.4718 2.59859 11.6351 2.44049C11.8044 2.27653 11.8891 2.07451 11.8891 1.83443C11.8891 1.6002 11.8044 1.40404 11.6351 1.24594C11.4657 1.08198 11.2601 1 11.0181 1C10.7823 1 10.5766 1.08198 10.4012 1.24594C10.2319 1.4099 10.1472 1.60606 10.1472 1.83443C10.1472 2.07451 10.2319 2.27653 10.4012 2.44049C10.5706 2.59859 10.7762 2.67765 11.0181 2.67765ZM6.94456 4.95257C7.19254 4.95257 7.39819 4.87352 7.56149 4.71541C7.7248 4.55146 7.80645 4.34944 7.80645 4.10935C7.80645 3.87513 7.72177 3.67604 7.55242 3.51208C7.38911 3.34812 7.18649 3.26614 6.94456 3.26614C6.70262 3.26614 6.49698 3.35105 6.32762 3.52086C6.15827 3.68482 6.07359 3.88098 6.07359 4.10935C6.07359 4.34358 6.15827 4.54267 6.32762 4.70663C6.49698 4.87059 6.70262 4.95257 6.94456 4.95257ZM15.0917 4.95257C15.3397 4.95257 15.5454 4.87352 15.7087 4.71541C15.878 4.55146 15.9627 4.34944 15.9627 4.10935C15.9627 3.87513 15.878 3.67604 15.7087 3.51208C15.5393 3.34812 15.3337 3.26614 15.0917 3.26614C14.8558 3.26614 14.6532 3.35105 14.4839 3.52086C14.3145 3.68482 14.2298 3.88098 14.2298 4.10935C14.2298 4.34358 14.3115 4.54267 14.4748 4.70663C14.6442 4.87059 14.8498 4.95257 15.0917 4.95257ZM2.87097 7.25384C3.1129 7.25384 3.31855 7.17479 3.4879 7.01669C3.65726 6.85859 3.74194 6.65657 3.74194 6.41063C3.74194 6.18226 3.65423 5.98609 3.47883 5.82213C3.30948 5.65818 3.10685 5.5762 2.87097 5.5762C2.63508 5.5762 2.42944 5.65818 2.25403 5.82213C2.08468 5.98609 2 6.18226 2 6.41063C2 6.65071 2.08468 6.85273 2.25403 7.01669C2.42339 7.17479 2.62903 7.25384 2.87097 7.25384ZM11.0181 7.56126C11.3508 7.56126 11.629 7.45001 11.8528 7.22749C12.0827 7.00498 12.1976 6.73269 12.1976 6.41063C12.1976 6.10028 12.0827 5.83385 11.8528 5.61133C11.623 5.38296 11.3448 5.26877 11.0181 5.26877C10.6976 5.26877 10.4194 5.38296 10.1835 5.61133C9.95363 5.83385 9.83871 6.10028 9.83871 6.41063C9.83871 6.72683 9.95363 6.99912 10.1835 7.22749C10.4133 7.45001 10.6915 7.56126 11.0181 7.56126ZM19.1381 7.25384C19.38 7.25384 19.5827 7.17479 19.746 7.01669C19.9153 6.85859 20 6.65657 20 6.41063C20 6.1764 19.9153 5.98024 19.746 5.82213C19.5827 5.65818 19.38 5.5762 19.1381 5.5762C18.8962 5.5762 18.6905 5.6611 18.5212 5.83092C18.3518 5.99488 18.2671 6.18811 18.2671 6.41063C18.2671 6.65071 18.3488 6.85273 18.5121 7.01669C18.6815 7.17479 18.8901 7.25384 19.1381 7.25384ZM6.94456 9.84497C7.27722 9.84497 7.55544 9.73664 7.77923 9.51998C8.00907 9.29747 8.12399 9.02518 8.12399 8.70312C8.12399 8.38691 8.00605 8.11755 7.77016 7.89504C7.54032 7.67252 7.26512 7.56126 6.94456 7.56126C6.63004 7.56126 6.35484 7.67545 6.11895 7.90382C5.88306 8.12634 5.76512 8.39277 5.76512 8.70312C5.76512 9.01932 5.88004 9.28868 6.10988 9.5112C6.33972 9.73371 6.61794 9.84497 6.94456 9.84497ZM15.0917 9.84497C15.4183 9.84497 15.6966 9.73664 15.9264 9.51998C16.1562 9.29747 16.2712 9.02518 16.2712 8.70312C16.2712 8.38691 16.1532 8.11755 15.9173 7.89504C15.6875 7.67252 15.4123 7.56126 15.0917 7.56126C14.7712 7.56126 14.4929 7.67545 14.2571 7.90382C14.0272 8.12634 13.9123 8.39277 13.9123 8.70312C13.9123 9.01932 14.0272 9.28868 14.2571 9.5112C14.4869 9.73371 14.7651 9.84497 15.0917 9.84497ZM2.87097 11.8388C3.1129 11.8388 3.31855 11.7598 3.4879 11.6017C3.65726 11.4377 3.74194 11.2357 3.74194 10.9956C3.74194 10.7614 3.65423 10.5652 3.47883 10.4071C3.30948 10.2432 3.10685 10.1612 2.87097 10.1612C2.63508 10.1612 2.42944 10.2432 2.25403 10.4071C2.08468 10.5711 2 10.7672 2 10.9956C2 11.2357 2.08468 11.4377 2.25403 11.6017C2.42339 11.7598 2.62903 11.8388 2.87097 11.8388ZM11.0181 12.3395C11.4052 12.3395 11.7319 12.2107 11.998 11.953C12.2641 11.6895 12.3972 11.3704 12.3972 10.9956C12.3972 10.6326 12.2611 10.3193 11.9889 10.0558C11.7228 9.79227 11.3992 9.66052 11.0181 9.66052C10.7641 9.66052 10.5312 9.722 10.3196 9.84497C10.1139 9.96208 9.94758 10.1231 9.82056 10.3281C9.6996 10.533 9.63911 10.7555 9.63911 10.9956C9.63911 11.3645 9.77218 11.6807 10.0383 11.9442C10.3105 12.2077 10.6371 12.3395 11.0181 12.3395ZM19.1381 11.8388C19.38 11.8388 19.5827 11.7598 19.746 11.6017C19.9153 11.4436 20 11.2415 20 10.9956C20 10.7614 19.9153 10.5652 19.746 10.4071C19.5827 10.2432 19.38 10.1612 19.1381 10.1612C18.8962 10.1612 18.6905 10.2432 18.5212 10.4071C18.3518 10.5711 18.2671 10.7672 18.2671 10.9956C18.2671 11.2357 18.3488 11.4377 18.5121 11.6017C18.6815 11.7598 18.8901 11.8388 19.1381 11.8388ZM6.94456 14.4387C7.27117 14.4387 7.54939 14.3275 7.77923 14.105C8.00907 13.8824 8.12399 13.6131 8.12399 13.2969C8.12399 12.9807 8.00605 12.7113 7.77016 12.4888C7.54032 12.2663 7.26512 12.155 6.94456 12.155C6.62399 12.155 6.34577 12.2692 6.10988 12.4976C5.88004 12.7201 5.76512 12.9865 5.76512 13.2969C5.76512 13.6131 5.88004 13.8824 6.10988 14.105C6.34577 14.3275 6.62399 14.4387 6.94456 14.4387ZM15.0917 14.4387C15.4183 14.4387 15.6966 14.3275 15.9264 14.105C16.1562 13.8824 16.2712 13.6131 16.2712 13.2969C16.2712 12.9807 16.1532 12.7113 15.9173 12.4888C15.6875 12.2663 15.4123 12.155 15.0917 12.155C14.7712 12.155 14.4929 12.2692 14.2571 12.4976C14.0272 12.7201 13.9123 12.9865 13.9123 13.2969C13.9123 13.6131 14.0272 13.8824 14.2571 14.105C14.4869 14.3275 14.7651 14.4387 15.0917 14.4387ZM2.87097 16.415C3.1129 16.415 3.31855 16.336 3.4879 16.1779C3.65726 16.0198 3.74194 15.8207 3.74194 15.5806C3.74194 15.3464 3.65423 15.1473 3.47883 14.9833C3.30948 14.8194 3.10685 14.7374 2.87097 14.7374C2.63508 14.7374 2.42944 14.8223 2.25403 14.9921C2.08468 15.1561 2 15.3522 2 15.5806C2 15.8148 2.08468 16.0139 2.25403 16.1779C2.42339 16.336 2.62903 16.415 2.87097 16.415ZM11.0181 16.7224C11.3508 16.7224 11.629 16.6112 11.8528 16.3887C12.0827 16.1662 12.1976 15.8968 12.1976 15.5806C12.1976 15.2644 12.0827 14.995 11.8528 14.7725C11.623 14.55 11.3448 14.4387 11.0181 14.4387C10.6976 14.4387 10.4194 14.5529 10.1835 14.7813C9.95363 15.0038 9.83871 15.2702 9.83871 15.5806C9.83871 15.8968 9.95363 16.1662 10.1835 16.3887C10.4133 16.6112 10.6915 16.7224 11.0181 16.7224ZM19.1381 16.415C19.3861 16.415 19.5917 16.336 19.755 16.1779C19.9183 16.0198 20 15.8207 20 15.5806C20 15.3464 19.9153 15.1473 19.746 14.9833C19.5766 14.8194 19.374 14.7374 19.1381 14.7374C18.8962 14.7374 18.6905 14.8223 18.5212 14.9921C18.3518 15.1561 18.2671 15.3522 18.2671 15.5806C18.2671 15.8148 18.3488 16.0139 18.5121 16.1779C18.6815 16.336 18.8901 16.415 19.1381 16.415ZM6.94456 18.7339C7.19254 18.7339 7.39819 18.6519 7.56149 18.4879C7.7248 18.324 7.80645 18.1249 7.80645 17.8906C7.80645 17.6564 7.72177 17.4544 7.55242 17.2846C7.38911 17.1206 7.18649 17.0386 6.94456 17.0386C6.70262 17.0386 6.49698 17.1236 6.32762 17.2934C6.15827 17.4632 6.07359 17.6623 6.07359 17.8906C6.07359 18.119 6.15827 18.3152 6.32762 18.4791C6.49698 18.649 6.70262 18.7339 6.94456 18.7339ZM15.0917 18.7339C15.3397 18.7339 15.5454 18.6519 15.7087 18.4879C15.878 18.324 15.9627 18.1249 15.9627 17.8906C15.9627 17.6564 15.878 17.4544 15.7087 17.2846C15.5393 17.1206 15.3337 17.0386 15.0917 17.0386C14.8558 17.0386 14.6532 17.1236 14.4839 17.2934C14.3145 17.4632 14.2298 17.6623 14.2298 17.8906C14.2298 18.119 14.3115 18.3152 14.4748 18.4791C14.6442 18.649 14.8498 18.7339 15.0917 18.7339ZM11.0181 21C11.2661 21 11.4718 20.9209 11.6351 20.7628C11.8044 20.6047 11.8891 20.4027 11.8891 20.1568C11.8891 19.9226 11.8044 19.7235 11.6351 19.5595C11.4657 19.4014 11.2601 19.3224 11.0181 19.3224C10.7823 19.3224 10.5766 19.4043 10.4012 19.5683C10.2319 19.7322 10.1472 19.9284 10.1472 20.1568C10.1472 20.3969 10.2319 20.596 10.4012 20.7541C10.5706 20.918 10.7762 21 11.0181 21Z" fill="#5E42CC"/>
</svg>
