<svg width="22" height="22" viewBox="0 0 22 22" fill="none" xmlns="http://www.w3.org/2000/svg">
<path d="M2.64713 12.3937L6.5108 15.0549L4.09821 18.4373C3.40507 19.4091 3.18943 20.8334 3.40408 20.9812C3.61106 21.1238 4.89994 20.4387 5.59308 19.467L8.00567 16.0845L11.8693 18.7457C12.5669 19.2262 13.3385 19.1061 13.8114 18.4432C14.9129 16.8989 14.7434 14.524 13.3872 12.4665L15.5621 8.92043C16.9403 8.9597 18.264 8.88287 18.9705 8.66173C19.3602 8.54816 19.6403 8.34786 19.8068 8.11433C20.1507 7.63221 20.033 7.01188 19.4734 6.62643L11.6464 1.23538C11.0868 0.849931 10.4532 0.952797 10.1093 1.43492C9.94276 1.66845 9.84669 1.99548 9.87098 2.39417C9.90044 3.12221 10.2785 4.37123 10.7862 5.63088L8.13598 8.84961C5.70515 8.29874 3.37557 8.95224 2.27406 10.4966C1.80121 11.1595 1.94953 11.9132 2.64713 12.3937ZM11.1147 10.1711C10.6777 9.87008 10.2369 9.62262 9.78223 9.41057L12.5545 5.9726C12.6612 5.8551 12.6735 5.77371 12.6115 5.65234C12.0071 4.52828 11.6711 3.47674 11.6459 3.2235C11.6514 3.10368 11.7403 3.07509 11.817 3.12789L17.6048 7.11442C17.6815 7.16722 17.6922 7.26445 17.5717 7.30507C17.3209 7.36823 16.2004 7.41653 14.919 7.24167C14.7817 7.22576 14.7157 7.27018 14.632 7.40353L12.289 11.1372C11.9387 10.7948 11.544 10.4667 11.1147 10.1711ZM3.8971 11.3785C3.75911 11.2835 3.75689 11.1584 3.89272 11.016C4.97941 9.87719 7.71443 9.64898 10.2442 11.3914C12.7663 13.1286 13.481 15.7329 12.7623 17.1252C12.6724 17.2992 12.552 17.3399 12.414 17.2448L3.8971 11.3785Z" fill="#5E42CC"/>
</svg>
