<svg width="22" height="22" viewBox="0 0 22 22" fill="none" xmlns="http://www.w3.org/2000/svg">
<path d="M4.58318 18H18.4168C19.2779 18 19.9237 17.7831 20.3542 17.3492C20.7847 16.9154 21 16.2732 21 15.4226V10.9187C21 10.6504 20.9858 10.422 20.9575 10.2336C20.9292 10.0453 20.8782 9.87401 20.8046 9.71988C20.7309 9.56004 20.629 9.39735 20.4987 9.2318L17.7965 5.56697C17.4963 5.15596 17.2215 4.83914 16.9723 4.61651C16.723 4.38818 16.4454 4.22834 16.1395 4.137C15.8393 4.04567 15.4484 4 14.9669 4H8.04159C7.56574 4 7.17203 4.04567 6.86047 4.137C6.55456 4.22834 6.27698 4.38818 6.02773 4.61651C5.78414 4.83914 5.51222 5.15596 5.21199 5.56697L2.50134 9.2318C2.37671 9.40306 2.27758 9.56575 2.20394 9.71988C2.13029 9.87401 2.07648 10.0453 2.04249 10.2336C2.01416 10.422 2 10.6504 2 10.9187V15.4226C2 16.2732 2.2181 16.9154 2.65429 17.3492C3.09049 17.7831 3.73345 18 4.58318 18ZM11.5085 13.1621C11.095 13.1621 10.7409 13.065 10.4463 12.8709C10.1518 12.6712 9.92233 12.4171 9.75805 12.1089C9.59943 11.8006 9.52013 11.4781 9.52013 11.1413V11.0985C9.52013 10.9158 9.46348 10.7503 9.35018 10.6018C9.24255 10.4534 9.07543 10.3792 8.84884 10.3792H3.86091C3.71929 10.3792 3.63432 10.3335 3.60599 10.2422C3.57767 10.1509 3.5975 10.0567 3.66547 9.95963L6.61404 5.91804C6.79532 5.66687 6.99925 5.49276 7.22585 5.39572C7.45244 5.29297 7.70736 5.24159 7.99061 5.24159H15.0179C15.2955 5.24159 15.5476 5.29297 15.7741 5.39572C16.0064 5.49276 16.2103 5.66687 16.386 5.91804L19.3345 9.95963C19.4025 10.0567 19.4195 10.1509 19.3855 10.2422C19.3572 10.3335 19.275 10.3792 19.1391 10.3792H14.1512C13.9246 10.3792 13.7575 10.4534 13.6498 10.6018C13.5422 10.7503 13.4884 10.9158 13.4884 11.0985V11.1413C13.4884 11.4781 13.4062 11.8006 13.2419 12.1089C13.0777 12.4171 12.8482 12.6712 12.5537 12.8709C12.2591 13.065 11.9107 13.1621 11.5085 13.1621ZM14.8564 6.39755H8.14356C8.03593 6.39755 7.94529 6.43751 7.87165 6.51743C7.798 6.59164 7.76118 6.68298 7.76118 6.79144C7.76118 6.90561 7.798 6.9998 7.87165 7.07401C7.94529 7.14822 8.03593 7.18532 8.14356 7.18532H14.8564C14.9697 7.18532 15.0632 7.14822 15.1369 7.07401C15.2105 6.9998 15.2473 6.90561 15.2473 6.79144C15.2473 6.68298 15.2105 6.59164 15.1369 6.51743C15.0632 6.43751 14.9697 6.39755 14.8564 6.39755ZM15.9186 8.21284H7.08989C6.97093 8.21284 6.87179 8.25566 6.79249 8.34128C6.71884 8.4212 6.68202 8.51825 6.68202 8.63242C6.68202 8.74088 6.71884 8.83507 6.79249 8.91498C6.87179 8.9949 6.97093 9.03486 7.08989 9.03486H15.9186C16.0319 9.03486 16.1254 8.9949 16.199 8.91498C16.2783 8.83507 16.318 8.74088 16.318 8.63242C16.318 8.51825 16.2783 8.4212 16.199 8.34128C16.1254 8.25566 16.0319 8.21284 15.9186 8.21284Z" fill="#5E42CC"/>
</svg>
