<svg width="22" height="22" viewBox="0 0 22 22" fill="none" xmlns="http://www.w3.org/2000/svg">
<path fill-rule="evenodd" clip-rule="evenodd" d="M3.00185 11.0001C2.99906 12.2298 2.94419 13.907 3.70494 14.5339C4.41453 15.1187 4.91395 14.968 6.20945 15.0631C7.50587 15.1591 10.242 18.97 12.3512 17.7646C13.4393 16.9089 13.5202 15.1151 13.5202 11.0001C13.5202 6.88515 13.4393 5.09135 12.3512 4.23571C10.242 3.02938 7.50587 6.84121 6.20945 6.93717C4.91395 7.03225 4.41453 6.88157 3.70494 7.46635C2.94419 8.09328 2.99906 9.77049 3.00185 11.0001Z" stroke="#5E42CC" stroke-width="1.5" stroke-linecap="round" stroke-linejoin="round"/>
<path d="M17.5811 7.31445C18.8924 9.60514 18.8924 12.4026 17.5811 14.6861" stroke="#5E42CC" stroke-width="1.5" stroke-linecap="round" stroke-linejoin="round"/>
</svg>
