<svg width="22" height="22" viewBox="0 0 22 22" fill="none" xmlns="http://www.w3.org/2000/svg">
<path d="M10.9951 15.6768V13.1398" stroke="#5E42CC" stroke-width="1.5" stroke-linecap="round" stroke-linejoin="round"/>
<path fill-rule="evenodd" clip-rule="evenodd" d="M17.19 4.3302C18.88 4.3302 20.24 5.7002 20.24 7.3902V10.8302C17.78 12.2702 14.53 13.1402 10.99 13.1402C7.45 13.1402 4.21 12.2702 1.75 10.8302V7.3802C1.75 5.6902 3.12 4.3302 4.81 4.3302H17.19Z" stroke="#5E42CC" stroke-width="1.5" stroke-linecap="round" stroke-linejoin="round"/>
<path d="M14.4951 4.32582V3.95982C14.4951 2.73982 13.5051 1.74982 12.2851 1.74982H9.70512C8.48512 1.74982 7.49512 2.73982 7.49512 3.95982V4.32582" stroke="#5E42CC" stroke-width="1.5" stroke-linecap="round" stroke-linejoin="round"/>
<path d="M1.77441 14.483L1.96341 16.992C2.09141 18.683 3.50041 19.99 5.19541 19.99H16.7944C18.4894 19.99 19.8984 18.683 20.0264 16.992L20.2154 14.483" stroke="#5E42CC" stroke-width="1.5" stroke-linecap="round" stroke-linejoin="round"/>
</svg>
