<svg width="22" height="24" viewBox="0 0 22 24" fill="none" xmlns="http://www.w3.org/2000/svg">
<rect x="1.75" y="2.75" width="18.5" height="18.5" rx="2.25" stroke="#5E42CC" stroke-width="1.5"/>
<circle cx="11" cy="12" r="4.25" stroke="#5E42CC" stroke-width="1.5"/>
<path d="M7.1322 10.7383C7.53993 10.6652 7.81127 10.2755 7.73826 9.8678C7.66525 9.46007 7.27553 9.18873 6.8678 9.26174L7.1322 10.7383ZM14.6322 8.76174C14.2245 8.68873 13.8348 8.96007 13.7617 9.3678C13.6887 9.77553 13.9601 10.1652 14.3678 10.2383L14.6322 8.76174ZM17.25 12.0004C17.25 12.0635 17.2209 12.207 16.9754 12.4219C16.7281 12.6383 16.3233 12.8672 15.748 13.0738C14.6031 13.4851 12.9443 13.7509 11 13.7509V15.2509C13.0598 15.2509 14.901 14.9719 16.255 14.4855C16.9292 14.2434 17.5237 13.9353 17.9633 13.5507C18.4046 13.1644 18.75 12.6426 18.75 12.0004H17.25ZM11 13.7509C9.03643 13.7509 7.36784 13.5507 6.21627 13.2012C5.63689 13.0254 5.23805 12.8264 4.9989 12.6353C4.76809 12.4508 4.75 12.3311 4.75 12.2788H3.25C3.25 12.9318 3.6064 13.4426 4.06246 13.8071C4.51017 14.1649 5.11057 14.4332 5.78069 14.6366C7.12809 15.0455 8.95951 15.2509 11 15.2509V13.7509ZM4.75 12.2788C4.75 11.9706 4.83676 11.7249 5.10623 11.4926C5.41449 11.2269 6.01121 10.939 7.1322 10.7383L6.8678 9.26174C5.63303 9.48285 4.72975 9.83686 4.12696 10.3564C3.48536 10.9093 3.25 11.5921 3.25 12.2788H4.75ZM14.3678 10.2383C15.4646 10.4347 16.2164 10.775 16.6752 11.129C17.1372 11.4856 17.25 11.8072 17.25 12.0004H18.75C18.75 11.1987 18.2907 10.481 17.5916 9.94154C16.8894 9.3996 15.8912 8.98719 14.6322 8.76174L14.3678 10.2383Z" fill="#5E42CC"/>
</svg>
