<svg width="22" height="22" viewBox="0 0 22 22" fill="none" xmlns="http://www.w3.org/2000/svg">
<path d="M10.9893 1C10.8604 1 10.728 1.02958 10.5919 1.08873C10.4631 1.14789 10.3271 1.24032 10.1839 1.36602L3.34362 7.1115C3.11454 7.29636 3 7.55886 3 7.89901C3 8.10605 3.04653 8.29461 3.1396 8.46468C3.23982 8.62736 3.36868 8.75676 3.52617 8.85289C3.69083 8.94902 3.8698 8.99708 4.06309 8.99708C4.19195 8.99708 4.32081 8.9712 4.44966 8.91944C4.57852 8.86768 4.71096 8.78634 4.84698 8.67542L11 3.51781L17.1638 8.67542C17.2926 8.78634 17.4215 8.86768 17.5503 8.91944C17.6792 8.9712 17.8081 8.99708 17.9369 8.99708C18.1302 8.99708 18.3056 8.94902 18.4631 8.85289C18.6277 8.75676 18.7566 8.62736 18.8497 8.46468C18.9499 8.29461 19 8.10605 19 7.89901C19 7.55886 18.889 7.29636 18.6671 7.1115L11.8161 1.36602C11.6729 1.24032 11.5333 1.14789 11.3973 1.08873C11.2685 1.02958 11.1324 1 10.9893 1ZM10.9893 20C11.1324 20 11.2685 19.9704 11.3973 19.9113C11.5333 19.8521 11.6729 19.7597 11.8161 19.634L18.6671 13.8885C18.889 13.7036 19 13.4411 19 13.101C19 12.8939 18.9499 12.7054 18.8497 12.5353C18.7566 12.3652 18.6277 12.2358 18.4631 12.1471C18.3056 12.051 18.1302 12.0029 17.9369 12.0029C17.8081 12.0029 17.6792 12.0288 17.5503 12.0806C17.4215 12.1323 17.2926 12.2137 17.1638 12.3246L11 17.4822L4.84698 12.3246C4.71096 12.2137 4.57852 12.1323 4.44966 12.0806C4.32081 12.0288 4.19195 12.0029 4.06309 12.0029C3.8698 12.0029 3.69083 12.051 3.52617 12.1471C3.36868 12.2358 3.23982 12.3652 3.1396 12.5353C3.04653 12.7054 3 12.8939 3 13.101C3 13.4411 3.11454 13.7036 3.34362 13.8885L10.1839 19.634C10.3271 19.7523 10.4631 19.841 10.5919 19.9002C10.728 19.9667 10.8604 20 10.9893 20Z" fill="#5E42CC"/>
</svg>
