<svg width="22" height="22" viewBox="0 0 22 22" fill="none" xmlns="http://www.w3.org/2000/svg">
<path d="M3.79476 6.05601C3.79476 4.80701 4.80676 3.79501 6.05576 3.79401H7.08476C7.68176 3.79401 8.25376 3.55701 8.67776 3.13701L9.39676 2.41701C10.2778 1.53101 11.7098 1.52701 12.5958 2.40801L12.5968 2.40901L12.6058 2.41701L13.3258 3.13701C13.7498 3.55801 14.3218 3.79401 14.9188 3.79401H15.9468C17.1958 3.79401 18.2088 4.80601 18.2088 6.05601V7.08301C18.2088 7.68001 18.4448 8.25301 18.8658 8.67701L19.5858 9.39701C20.4718 10.278 20.4768 11.71 19.5958 12.596L19.5948 12.597L19.5858 12.606L18.8658 13.326C18.4448 13.749 18.2088 14.321 18.2088 14.918V15.947C18.2088 17.196 17.1968 18.208 15.9478 18.208H15.9468H14.9168C14.3198 18.208 13.7468 18.445 13.3238 18.866L12.6038 19.585C11.7238 20.471 10.2928 20.476 9.40676 19.597C9.40576 19.596 9.40476 19.595 9.40376 19.594L9.39476 19.585L8.67576 18.866C8.25276 18.445 7.67976 18.209 7.08276 18.208H6.05576C4.80676 18.208 3.79476 17.196 3.79476 15.947V14.916C3.79476 14.319 3.55776 13.747 3.13676 13.324L2.41776 12.604C1.53176 11.724 1.52676 10.293 2.40676 9.40701C2.40676 9.40601 2.40776 9.40501 2.40876 9.40401L2.41776 9.39501L3.13676 8.67501C3.55776 8.25101 3.79476 7.67901 3.79476 7.08101V6.05601" stroke="#5E42CC" stroke-width="1.5" stroke-linecap="round" stroke-linejoin="round"/>
<path d="M8.43164 13.5718L13.5716 8.43176" stroke="#5E42CC" stroke-width="1.5" stroke-linecap="round" stroke-linejoin="round"/>
<path d="M13.4955 13.5H13.5045" stroke="#5E42CC" stroke-width="2" stroke-linecap="round" stroke-linejoin="round"/>
<path d="M8.4955 8.5H8.5045" stroke="#5E42CC" stroke-width="2" stroke-linecap="round" stroke-linejoin="round"/>
</svg>
