<svg width="22" height="22" viewBox="0 0 22 22" fill="none" xmlns="http://www.w3.org/2000/svg">
<path d="M9.64645 18.3536C9.84171 18.5488 10.1583 18.5488 10.3536 18.3536L13.5355 15.1716C13.7308 14.9763 13.7308 14.6597 13.5355 14.4645C13.3403 14.2692 13.0237 14.2692 12.8284 14.4645L10 17.2929L7.17157 14.4645C6.97631 14.2692 6.65973 14.2692 6.46447 14.4645C6.2692 14.6597 6.2692 14.9763 6.46447 15.1716L9.64645 18.3536ZM9.5 12L9.5 18L10.5 18L10.5 12L9.5 12Z" fill="#5E42CC"/>
<path d="M9.64645 1.64645C9.84171 1.45118 10.1583 1.45118 10.3536 1.64645L13.5355 4.82843C13.7308 5.02369 13.7308 5.34027 13.5355 5.53553C13.3403 5.7308 13.0237 5.7308 12.8284 5.53553L10 2.70711L7.17157 5.53553C6.97631 5.7308 6.65973 5.7308 6.46447 5.53553C6.2692 5.34027 6.2692 5.02369 6.46447 4.82843L9.64645 1.64645ZM9.5 8L9.5 2L10.5 2L10.5 8L9.5 8Z" fill="#5E42CC"/>
<path d="M18.3536 9.64645C18.5488 9.84171 18.5488 10.1583 18.3536 10.3536L15.1716 13.5355C14.9763 13.7308 14.6597 13.7308 14.4645 13.5355C14.2692 13.3403 14.2692 13.0237 14.4645 12.8284L17.2929 10L14.4645 7.17157C14.2692 6.97631 14.2692 6.65973 14.4645 6.46447C14.6597 6.2692 14.9763 6.2692 15.1716 6.46447L18.3536 9.64645ZM12 9.5L18 9.5V10.5L12 10.5V9.5Z" fill="#5E42CC"/>
<path d="M1.64645 9.64645C1.45118 9.84171 1.45118 10.1583 1.64645 10.3536L4.82843 13.5355C5.02369 13.7308 5.34027 13.7308 5.53553 13.5355C5.7308 13.3403 5.7308 13.0237 5.53553 12.8284L2.70711 10L5.53553 7.17157C5.7308 6.97631 5.7308 6.65973 5.53553 6.46447C5.34027 6.2692 5.02369 6.2692 4.82843 6.46447L1.64645 9.64645ZM8 9.5L2 9.5V10.5L8 10.5V9.5Z" fill="#5E42CC"/>
</svg>
