<svg width="22" height="22" viewBox="0 0 22 22" fill="none" xmlns="http://www.w3.org/2000/svg">
<path d="M10.9937 19C11.602 19 11.9062 18.6492 11.9062 17.9476V12.5754C11.9062 12.0075 12.0481 11.3994 12.332 10.7513C12.6159 10.0965 12.9911 9.44833 13.4575 8.80687C13.9306 8.15874 14.4511 7.56071 15.0189 7.0128C15.5934 6.45821 16.1646 6.00051 16.7324 5.63969L17.5029 5.1586C17.7936 4.9715 17.9389 4.70757 17.9389 4.3668C17.9389 4.11957 17.8612 3.91578 17.7057 3.75541C17.5503 3.59505 17.3373 3.51487 17.067 3.51487C16.8033 3.51487 16.5499 3.59505 16.3065 3.75541L15.7996 4.09618C15.2386 4.457 14.691 4.88798 14.1571 5.38912C13.6231 5.89026 13.133 6.41478 12.6869 6.96269C12.2475 7.5106 11.8792 8.03846 11.5817 8.54628C11.2843 9.04742 11.0984 9.48508 11.0241 9.85926H10.9835C10.9024 9.48508 10.7132 9.04408 10.4157 8.53626C10.1183 8.02844 9.74657 7.50392 9.30045 6.96269C8.86109 6.41478 8.37442 5.89026 7.84043 5.38912C7.30644 4.88798 6.76231 4.457 6.20804 4.09618L5.69095 3.75541C5.44761 3.59505 5.19414 3.51487 4.93052 3.51487C4.66015 3.51487 4.44723 3.59839 4.29176 3.76543C4.1363 3.93248 4.05856 4.12959 4.05856 4.35678C4.05856 4.70423 4.20389 4.9715 4.49454 5.1586L5.27525 5.63969C5.84304 6.00051 6.41082 6.45821 6.97861 7.0128C7.5464 7.56071 8.06349 8.15874 8.52989 8.80687C9.00304 9.44833 9.38157 10.0965 9.66546 10.7513C9.95611 11.3994 10.1014 12.0075 10.1014 12.5754V17.9476C10.1014 18.6492 10.3988 19 10.9937 19ZM4.32218 6.80232L7.14084 3.20416C7.35714 2.93021 7.40445 2.693 7.28278 2.49255C7.16787 2.29209 6.94143 2.18518 6.60347 2.17182L2.76077 2.00143C2.47011 1.98807 2.25719 2.06825 2.12201 2.24198C1.99358 2.41571 1.96654 2.63621 2.04089 2.90348L3.17647 6.54173C3.27786 6.86914 3.44008 7.06292 3.66314 7.12305C3.8862 7.18319 4.10588 7.07628 4.32218 6.80232ZM17.5536 6.7923C17.7632 7.07294 17.9795 7.18653 18.2025 7.13308C18.4324 7.07962 18.6013 6.88919 18.7095 6.56178L19.9465 2.96361C20.0343 2.69634 20.014 2.47584 19.8856 2.30211C19.7572 2.1217 19.551 2.03484 19.2671 2.04152L15.4143 2.09164C15.0696 2.09164 14.8364 2.19186 14.7147 2.39232C14.593 2.59277 14.637 2.83332 14.8465 3.11396L17.5536 6.7923Z" fill="#5E42CC"/>
</svg>
