<svg width="22" height="22" viewBox="0 0 22 22" fill="none" xmlns="http://www.w3.org/2000/svg">
<path d="M20.5449 9.23162H20.6098C20.8815 9.23162 21.1007 9.45218 21.1 9.72306M20.5449 9.23162L21 9.72282M20.5449 9.23162C20.3616 7.4759 19.2099 6.00658 17.6339 5.36564C16.17 3.27318 13.7436 1.9 11.0004 1.9C8.25745 1.9 5.83106 3.2724 4.3666 5.36539C2.7911 6.00633 1.63965 7.47517 1.45618 9.23162H1.3912C1.11999 9.23162 0.9 9.45195 0.9 9.72282C0.9 9.99399 1.12003 10.214 1.3912 10.214H1.45617M20.5449 9.23162L1.45617 10.214M21.1 9.72306L21 9.72282M21.1 9.72306C21.1 9.72298 21.1 9.7229 21.1 9.72282H21M21.1 9.72306C21.0999 9.99421 20.8793 10.214 20.6088 10.214H20.5433M21 9.72282C21 9.93876 20.8242 10.114 20.6088 10.114H20.4523M20.5433 10.214C20.5465 10.1836 20.5494 10.1531 20.552 10.1224L20.4523 10.114M20.5433 10.214C20.3975 11.6144 19.6378 12.8344 18.5355 13.5962M20.5433 10.214H20.4523V10.114M20.4523 10.114L18.5355 13.5962M18.5355 13.5962L18.5422 13.5535L18.4434 13.5381L18.4995 13.6209C18.5115 13.6127 18.5235 13.6045 18.5355 13.5962ZM18.5355 13.5962L17.4338 20.645M18.5355 13.5962L17.335 20.6298M17.4338 20.645L17.335 20.6298M17.4338 20.645L17.4338 20.6452L17.335 20.6298M17.4338 20.645C17.3968 20.8846 17.1909 21.0612 16.9492 21.0612H14.0158C13.7446 21.0612 13.5246 20.8412 13.5246 20.57C13.5246 19.1789 12.3918 18.0456 11.0001 18.0456C9.60843 18.0456 8.4757 19.1778 8.4757 20.57C8.4757 20.8412 8.25567 21.0612 7.9845 21.0612H5.05101C4.80877 21.0612 4.603 20.884 4.56571 20.6452L3.46424 13.5962M17.335 20.6298C17.3055 20.8207 17.1415 20.9612 16.9492 20.9612H14.0158C13.7998 20.9612 13.6246 20.786 13.6246 20.57C13.6246 19.1236 12.4471 17.9456 11.0001 17.9456C9.55321 17.9456 8.3757 19.1226 8.3757 20.57C8.3757 20.786 8.20044 20.9612 7.9845 20.9612H5.05101C4.85828 20.9612 4.69424 20.8201 4.66451 20.6298L3.55637 13.5381M3.46424 13.5962C3.47621 13.6045 3.48823 13.6127 3.50029 13.6209L3.55637 13.5381M3.46424 13.5962C2.3622 12.8349 1.60222 11.6144 1.45617 10.214M3.46424 13.5962L3.45756 13.5535L3.55637 13.5381M3.55637 13.5381L1.45617 10.214M11.0004 2.8824C12.9876 2.8824 14.7882 3.70233 16.08 5.02195C16.0098 5.01873 15.9391 5.01709 15.868 5.01709C13.4398 5.01709 11.4385 6.8672 11.1916 9.23084H10.8084C10.5618 6.86719 8.56049 5.01735 6.13203 5.01735C6.06119 5.01735 5.99076 5.01893 5.9207 5.02211C7.21291 3.70273 9.01283 2.8824 11.0004 2.8824ZM16.9951 6.1769C17.6947 7.27065 18.1044 8.56599 18.111 9.95599L17.6362 12.9964C17.1097 13.2828 16.5083 13.4454 15.8682 13.4454C13.8157 13.4454 12.1454 11.7756 12.1454 9.72282C12.1454 7.67001 13.8157 6.00027 15.8682 6.00027C16.2614 6.00027 16.6393 6.0637 16.9951 6.1769ZM3.89034 9.956C3.89721 8.56599 4.30712 7.27063 5.00604 6.17684C5.36195 6.06325 5.74005 6.00027 6.13281 6.00027C8.18564 6.00027 9.85563 7.67001 9.85563 9.72282C9.85563 11.7754 8.18563 13.4456 6.13281 13.4456C5.49322 13.4456 4.89186 13.2815 4.36531 12.9966L3.89034 9.956ZM2.41052 9.72282C2.41052 8.74439 2.79076 7.85361 3.41069 7.18831L3.0126 10.0533L2.9138 10.0687L2.91382 10.0689C2.91383 10.0689 2.91384 10.069 2.91385 10.0691L3.22088 12.0343C2.71424 11.3987 2.41052 10.5964 2.41052 9.72282ZM17.4553 14.1488L16.529 20.0788H14.4731C14.2336 18.3766 12.7679 17.0632 11.0001 17.0632C9.23263 17.0632 7.76747 18.3766 7.5277 20.0788H5.47147L4.54501 14.1488C5.04101 14.3276 5.57501 14.4278 6.13229 14.4278C8.56076 14.4278 10.562 12.5777 10.8087 10.2138H11.1918C11.4385 12.5777 13.44 14.4278 15.8682 14.4278C16.4257 14.4278 16.9595 14.3276 17.4553 14.1488ZM19.5923 9.72248C19.5917 10.5961 19.2872 11.3983 18.7812 12.0338L19.088 10.0688L18.9892 10.053L19.088 10.0684L19.088 10.0686C19.092 10.0437 19.0939 10.0181 19.0939 9.99301C19.0939 9.00699 18.9156 8.06186 18.591 7.18722C19.2116 7.85234 19.5923 8.74373 19.5923 9.72248Z" fill="#5E42CC" stroke="#5E42CC" stroke-width="0.2"/>
<path d="M6.45418 8.80505C6.62838 8.67191 6.762 8.48861 6.83274 8.27635C6.80005 8.5069 6.65473 8.70236 6.45418 8.80505ZM7.82261 8.17552C7.82261 7.244 7.06481 6.48594 6.13277 6.48594C5.20127 6.48594 4.44346 7.2432 4.44346 8.17552C4.44346 9.10702 5.20099 9.86483 6.13277 9.86483C7.06451 9.86483 7.82261 9.10734 7.82261 8.17552ZM5.90681 7.92776C5.90681 7.99808 5.84871 8.05622 5.77809 8.05622C5.70742 8.05622 5.64963 7.99831 5.64963 7.92776C5.64963 7.85706 5.70757 7.79903 5.77809 7.79903C5.84856 7.79903 5.90681 7.85728 5.90681 7.92776Z" fill="#5E42CC" stroke="#5E42CC" stroke-width="0.2"/>
<path d="M16.2507 8.27654C16.218 8.50741 16.0727 8.70295 15.872 8.80547C16.0463 8.67233 16.18 8.48893 16.2507 8.27654ZM13.8619 8.17552C13.8619 9.10674 14.6189 9.86483 15.5515 9.86483C16.483 9.86483 17.2408 9.10758 17.2408 8.17552C17.2408 7.2435 16.4836 6.48594 15.5515 6.48594C14.6192 6.48594 13.8619 7.24403 13.8619 8.17552ZM15.0683 7.92776C15.0683 7.85713 15.1262 7.79903 15.1971 7.79903C15.2671 7.79903 15.3253 7.85706 15.3253 7.92776C15.3253 7.99831 15.2672 8.05622 15.1971 8.05622C15.1257 8.05622 15.0683 7.99838 15.0683 7.92776Z" fill="#5E42CC" stroke="#5E42CC" stroke-width="0.2"/>
<path d="M13.0491 14.4598H10.818C10.5471 14.4598 10.3268 14.6798 10.3268 14.951C10.3268 15.2219 10.547 15.4422 10.818 15.4422H13.0491C13.3203 15.4422 13.5403 15.2219 13.5403 14.951C13.5403 14.6799 13.3206 14.4598 13.0491 14.4598Z" fill="#5E42CC" stroke="#5E42CC" stroke-width="0.2"/>
</svg>
