<svg width="58" height="58" viewBox="0 0 58 58" fill="none" xmlns="http://www.w3.org/2000/svg">
<g clip-path="url(#clip0_10655_119366)">
<path d="M52.8555 31.7993C52.8555 46.2697 41.1238 58 26.6539 58C23.1041 58 19.7202 57.2942 16.6338 56.015C8.19785 52.5205 1.98419 44.7461 0.6996 35.4004C0.536316 34.2233 0.453125 33.0211 0.453125 31.7993C0.453125 17.3281 12.1835 5.59769 26.6539 5.59769C41.1238 5.59769 52.8555 17.3281 52.8555 31.7993Z" fill="#937DE2"/>
<path d="M26.6538 5.59769C25.2683 5.59769 23.9085 5.7061 22.5814 5.91319C35.118 7.86951 44.7111 18.7131 44.7111 31.7993C44.7111 44.8837 35.1189 55.7269 22.5832 57.6841C23.9098 57.8912 25.2688 58 26.6534 58C41.1237 58 52.8554 46.2697 52.8554 31.7993C52.8554 17.3281 41.1237 5.59769 26.6538 5.59769Z" fill="#7570D6"/>
<path d="M56.1264 29.8625L41.1649 39.7697C40.0989 40.4759 38.8077 40.756 37.5457 40.5543C36.2805 40.3529 34.9862 40.629 33.9176 41.3366L31.9152 42.6637L20.7021 26.1348L23.4532 14.25C23.6669 13.3247 23.7727 12.387 23.7727 11.4529C23.7727 9.0364 23.066 6.65129 21.7106 4.60382C21.3774 4.10025 21.2181 3.53075 21.2181 2.96832C21.2181 2.0072 21.6845 1.06423 22.5465 0.493394C23.7081 -0.276122 25.2476 -0.133193 26.2476 0.836778L28.03 2.56299C30.0682 4.54055 31.6404 6.94822 32.6277 9.61121L33.5941 12.2131L43.5465 5.63752C45.1359 4.58524 47.2861 5.04544 48.3012 6.67342C49.28 8.24166 48.7773 10.3139 47.2352 11.3348C47.2166 11.3472 47.2153 11.3671 47.2215 11.3821C47.2303 11.3985 47.2489 11.4096 47.2697 11.4007C47.6631 11.2494 48.0746 11.1759 48.4826 11.1759C49.134 11.1759 49.7796 11.3635 50.3318 11.7206C50.7124 11.9667 51.0496 12.2937 51.3155 12.6955C51.8293 13.4716 51.9824 14.3819 51.8142 15.2279C51.5505 16.5608 50.5818 17.2475 50.3916 17.3767C50.3593 17.3993 50.3504 17.444 50.373 17.4776C50.373 17.4785 50.3743 17.4798 50.3752 17.4798C50.3964 17.5099 50.4398 17.5183 50.4708 17.4989C50.742 17.4329 51.0182 17.4015 51.2943 17.4015C51.9682 17.4015 52.6386 17.5931 53.2086 17.9564C53.594 18.2029 53.9347 18.5286 54.1984 18.9277C55.233 20.4898 54.8056 22.5952 53.2417 23.6302C53.2032 23.6563 53.1647 23.6824 53.1263 23.7072C53.1041 23.7249 53.0975 23.7532 53.109 23.7731C53.1112 23.778 53.1165 23.7833 53.1214 23.7855C53.1386 23.7992 53.1661 23.8006 53.1886 23.7833C54.1599 23.4523 55.2171 23.6028 56.0676 24.1537C56.4592 24.405 56.8066 24.7436 57.0814 25.1586C58.1164 26.722 57.6885 28.8274 56.1264 29.8625Z" fill="#FDD7BD"/>
<path d="M32.0581 45.8006L25.7462 49.9805L16.6337 56.015C8.19783 52.52 1.98418 44.747 0.699585 35.4004L11.2746 28.3973L17.7121 24.1338C18.4533 23.6426 19.4534 23.8466 19.9446 24.5891L32.5135 43.5668C33.0046 44.3094 32.8006 45.3077 32.0581 45.8006Z" fill="#87DBFF"/>
<path d="M32.0581 45.8006L25.7462 49.9805L11.2745 28.3973L17.7121 24.1338C18.4533 23.6426 19.4534 23.8466 19.9445 24.5891L32.5135 43.5664C33.0046 44.3094 32.8006 45.3077 32.0581 45.8006Z" fill="#6FC7FF"/>
<path d="M50.3319 11.7202L45.3533 14.3845C44.647 14.7615 43.7713 14.5646 43.2965 13.9217L47.2215 11.3821C47.2304 11.3985 47.249 11.4095 47.2698 11.4007C47.6631 11.2494 48.0747 11.1759 48.4827 11.1759C49.1345 11.1759 49.7796 11.3635 50.3319 11.7202Z" fill="#FAC5AA"/>
<path d="M53.2087 17.9564L48.3385 20.5606C47.6322 20.9389 46.7565 20.7424 46.2812 20.0995L50.2063 17.5595L50.3757 17.4798C50.397 17.5099 50.4404 17.5183 50.4713 17.4989C50.7426 17.4329 51.0187 17.4015 51.2948 17.4015C51.9688 17.4015 52.6392 17.5931 53.2087 17.9564Z" fill="#FAC5AA"/>
<path d="M56.0681 24.1537L51.7784 26.4485C51.073 26.8251 50.1978 26.6286 49.7212 25.9857L53.1214 23.7855C53.1391 23.7993 53.1665 23.8006 53.1887 23.7829C54.16 23.4523 55.2171 23.6028 56.0681 24.1537Z" fill="#FAC5AA"/>
</g>
<defs>
<clipPath id="clip0_10655_119366">
<rect width="58" height="58" fill="white"/>
</clipPath>
</defs>
</svg>
