<svg id="Capa_1" enable-background="new 0 0 512 512" height="512" viewBox="0 0 512 512" width="512" xmlns="http://www.w3.org/2000/svg">
  <g>
    <path d="m0 256c0-141.384 114.615-256 255.999-256 141.246 0 256.288 115.288 256 256.534-.182 89.451-46.243 168.132-115.903 213.765-10.616 6.954-23.012 10.701-35.704 10.701h-209.332c-12.122 0-24.006-3.467-34.177-10.063-70.346-45.625-116.883-124.846-116.883-214.937z" fill="#2b4d66" />
    <path d="m460 256c0 112.666-91.334 204-204 204s-204-91.334-204-204 91.334-204 204-204 204 91.334 204 204z" fill="#355f7e" />
    <path d="m492 120c0 5.523-4.477 10-10 10h-211v305c0 8.284-6.716 15-15 15s-15-6.716-15-15v-305h-211c-5.523 0-10-4.477-10-10s4.477-10 10-10h211v-9.229c0-8.284 6.716-15 15-15s15 6.716 15 15v9.229h211c5.523 0 10 4.477 10 10z" fill="#ffa90b" />
    <path d="m271 15v300c0 8.284-6.716 15-15 15s-15-6.716-15-15v-300c0-8.284 6.716-15 15-15s15 6.716 15 15z" fill="#ffc14f" />
    <path d="m362 480h-212c0-23.196 18.804-42 42-42h10.39c5.766-16.313 21.323-28 39.61-28h28c18.287 0 33.844 11.688 39.61 28h10.39c23.196 0 42 18.804 42 42z" fill="#ffc14f" />
    <path d="m362 480h-146.339c0-23.196 18.804-42 42-42h62.339c23.196 0 42 18.804 42 42z" fill="#fff36c" />
    <path d="m396.551 470c-40.344 26.551-88.643 42-140.551 42s-100.207-15.449-140.551-42z" fill="#ffc14f" />
    <path d="m306.106 507.098c-16.204 3.215-32.958 4.902-50.106 4.902-51.908 0-100.207-15.449-140.551-42h100.213c27.015 17.779 57.599 30.58 90.444 37.098z" fill="#ffa90b" />
    <path d="m179.386 337.919c-2.06 0-3.988-1.281-4.714-3.334l-69.672-196.999-69.672 196.999c-.921 2.603-3.782 3.969-6.381 3.047-2.604-.921-3.968-3.777-3.047-6.381l74.386-210.328c.706-1.998 2.595-3.333 4.714-3.333s4.008 1.335 4.714 3.333l74.386 210.328c.921 2.604-.443 5.46-3.047 6.381-.551.195-1.115.287-1.667.287zm303.667-.287c2.604-.921 3.968-3.777 3.047-6.381l-74.386-210.328c-.706-1.998-2.595-3.333-4.714-3.333s-4.008 1.335-4.714 3.333l-74.386 210.328c-.921 2.604.443 5.46 3.047 6.381 2.599.922 5.46-.444 6.381-3.047l69.672-196.999 69.672 196.999c.726 2.053 2.654 3.334 4.714 3.334.552 0 1.116-.092 1.667-.287z" fill="#f29500" />
    <path d="m503.783 338c0 23.196-18.804 42-42 42h-109.566c-23.196 0-42-18.804-42-42zm-453.566 42h109.565c23.196 0 42-18.804 42-42h-193.565c0 23.196 18.804 42 42 42z" fill="#ffc14f" />
    <path d="m503.783 338c0 23.196-18.804 42-42 42h-65.783c-23.196 0-42-18.804-42-42zm-409.783 42h65.783c23.196 0 42-18.804 42-42h-149.783c0 23.196 18.804 42 42 42z" fill="#fff36c" />
    <path d="m210 340c0 5.523-4.477 10-10 10h-190c-5.523 0-10-4.477-10-10s4.477-10 10-10h190c5.523 0 10 4.477 10 10zm292-10h-190c-5.523 0-10 4.477-10 10s4.477 10 10 10h190c5.523 0 10-4.477 10-10s-4.477-10-10-10z" fill="#ffc14f" />
    <path d="m44 340c0 5.523 4.477 10 10 10h-44c-5.523 0-10-4.477-10-10s4.477-10 10-10h44c-5.523 0-10 4.477-10 10zm302 0c0-5.523 4.477-10 10-10h-44c-5.523 0-10 4.477-10 10s4.477 10 10 10h44c-5.523 0-10-4.477-10-10z" fill="#ffa90b" />
    <path d="m160 120c0 5.523-4.477 10-10 10h-80c-5.523 0-10-4.477-10-10 0-5.523 4.477-10 10-10h80c5.523 0 10 4.477 10 10zm290-10h-80c-5.523 0-10 4.477-10 10 0 5.523 4.477 10 10 10h80c5.523 0 10-4.477 10-10 0-5.523-4.477-10-10-10z" fill="#ffc14f" />
    <path d="m312 120v2c0 11.046-8.954 20-20 20h-72c-11.046 0-20-8.954-20-20v-2c0-11.046 8.954-20 20-20h72c11.046 0 20 8.954 20 20z" fill="#ffc14f" />
    <path d="m292 142h-46.468c-11.046 0-20-8.954-20-20v-2c0-11.046 8.954-20 20-20h46.468c11.046 0 20 8.954 20 20v2c0 11.046-8.954 20-20 20z" fill="#fff36c" />
    <path d="m266 121c0 5.523-4.477 10-10 10s-10-4.477-10-10 4.477-10 10-10 10 4.477 10 10z" fill="#f29500" />
    <path d="m413 277.5v25c0 4.142-3.358 7.5-7.5 7.5s-7.5-3.358-7.5-7.5v-25c0-4.142 3.358-7.5 7.5-7.5s7.5 3.358 7.5 7.5zm-49.536 4.358c-2.929-2.929-7.677-2.929-10.606 0s-2.929 7.678 0 10.606l17.678 17.678c2.929 2.929 7.677 2.929 10.606 0 2.929-2.929 2.929-7.678 0-10.606zm94.678 0c-2.929-2.929-7.678-2.929-10.606 0l-17.678 17.678c-2.929 2.929-2.929 7.678 0 10.606 2.929 2.929 7.678 2.929 10.606 0l17.678-17.678c2.929-2.928 2.929-7.677 0-10.606zm-357.642-11.858c-4.142 0-7.5 3.358-7.5 7.5v25c0 4.142 3.358 7.5 7.5 7.5s7.5-3.358 7.5-7.5v-25c0-4.142-3.358-7.5-7.5-7.5zm42.036 11.858-17.678 17.678c-2.929 2.929-2.929 7.678 0 10.606 2.929 2.929 7.678 2.929 10.607 0l17.678-17.678c2.929-2.929 2.929-7.678 0-10.606-2.93-2.929-7.679-2.929-10.607 0zm-84.072 0c-2.929-2.929-7.678-2.929-10.607 0s-2.929 7.678 0 10.606l17.678 17.678c2.929 2.929 7.678 2.929 10.607 0 2.929-2.929 2.929-7.678 0-10.606z" fill="#fff5f5" />
  </g>
</svg>