<svg width="58" height="58" viewBox="0 0 58 58" fill="none" xmlns="http://www.w3.org/2000/svg">
<g clip-path="url(#clip0_10655_119368)">
<path d="M4.6094 43.496L19.0112 56.1464C22.1109 57.3425 25.4785 58 29 58C32.5215 58 35.8891 57.3425 38.9888 56.1464L53.3906 43.496C53.3906 43.496 53.3916 43.4976 53.3917 43.4978C55.5357 39.5598 56.7541 35.0452 56.7541 30.2459C56.7541 14.9177 44.3282 2.49173 29 2.49173C13.6718 2.49173 1.24585 14.9177 1.24585 30.2459C1.24585 35.0467 2.4651 39.5627 4.61042 43.5016L4.6094 43.496Z" fill="#816AE2"/>
<path d="M25.5607 36.6923C26.0238 36.5316 27.7433 36.3125 27.7433 35.4295C27.7433 34.2089 26.7036 33.2285 25.4625 31.7291C25.0676 31.2519 24.9288 30.6131 25.0909 30.0155C25.1684 29.6441 25.4873 28.9334 25.379 27.8473C24.9242 23.2842 21.7112 19.3434 17.5392 17.5706C16.3381 18.1669 14.5292 19.1984 12.8502 20.6821C9.08291 24.0114 7.67154 28.0921 8.76878 32.483C9.97149 37.2968 11.2303 39.4667 12.0632 40.9026C13.042 42.5897 13.305 43.0431 12.0482 45.533C10.9576 47.6935 10.7511 49.6962 10.8487 51.2378C13.2462 53.3128 16.0018 54.9851 19.0118 56.1469C18.9472 54.2844 18.4584 52.4585 17.5801 50.8105C17.5224 50.7022 17.4657 50.5963 17.4103 50.4931C16.7082 49.1848 16.5987 47.639 17.1124 46.2458L17.5186 45.1444C17.5763 44.8606 17.8538 44.6615 18.1356 44.7288C18.9774 44.9302 19.9323 45.5604 21.3486 45.5247C22.0383 45.5072 22.765 45.2214 23.09 44.6128C23.288 44.2421 23.2952 43.9323 23.2733 42.5437C23.2733 42.0714 23.465 41.6193 23.8046 41.291L24.3503 40.7635C24.5541 40.5664 24.637 40.2755 24.5677 40.0005L24.5041 39.7485C24.4825 39.6627 24.5124 39.5722 24.5807 39.5162L25.6398 38.942C25.7071 38.8869 25.746 38.8044 25.746 38.7174L25.4376 36.8655C25.4376 36.7872 25.4868 36.7179 25.5607 36.6923Z" fill="#FFDD40"/>
<path d="M17.9285 14.766C17.7789 14.766 17.627 14.734 17.4825 14.6664C16.9551 14.4197 16.7275 13.7921 16.9741 13.2646C19.1494 8.61402 23.864 5.60901 28.9852 5.60901C29.5676 5.60901 30.0395 6.08105 30.0395 6.66332C30.0395 7.2457 29.5675 7.71763 28.9852 7.71763C24.6791 7.71763 20.7141 10.2456 18.8843 14.158C18.7051 14.5411 18.3251 14.766 17.9285 14.766Z" fill="#49B1F7"/>
<path d="M40.0438 14.7696C39.6471 14.7696 39.2671 14.5445 39.088 14.1614C37.2586 10.2472 33.2931 7.71784 28.9852 7.71784C28.4029 7.71784 27.9309 7.2458 27.9309 6.66353C27.9309 6.08115 28.4029 5.60922 28.9852 5.60922C34.1084 5.60922 38.8238 8.61571 40.9982 13.2686C41.2447 13.7962 41.0169 14.4236 40.4895 14.6701C40.3452 14.7377 40.1933 14.7696 40.0438 14.7696Z" fill="#73C3F9"/>
<path d="M12.1818 13.6298C12.0555 13.6298 11.927 13.607 11.8021 13.5587C11.2589 13.3488 10.9887 12.7384 11.1986 12.1953C12.5706 8.64415 14.9517 5.61071 18.0846 3.42291C21.2912 1.18368 25.0606 0 28.9852 0C29.5676 0 30.0395 0.472043 30.0395 1.05431C30.0395 1.63657 29.5675 2.10873 28.9852 2.10873C25.4946 2.10873 22.1427 3.161 19.2919 5.1518C16.5042 7.09854 14.3858 9.7969 13.1655 12.9552C13.004 13.3734 12.6048 13.6298 12.1818 13.6298Z" fill="#FFB332"/>
<path d="M45.791 13.6354C45.3678 13.6354 44.9687 13.379 44.8072 12.9604C43.5226 9.63196 41.1567 6.73184 38.1456 4.79417C37.6558 4.47913 37.5144 3.82663 37.8295 3.33703C38.1446 2.84732 38.7969 2.70594 39.2866 3.02098C42.6709 5.1987 45.3301 8.45904 46.7745 12.2013C46.9842 12.7445 46.7138 13.3548 46.1705 13.5645C46.0456 13.6128 45.9172 13.6354 45.791 13.6354Z" fill="#FFB332"/>
<path d="M46.1304 14.1258C46.0151 14.1258 45.8981 14.1067 45.7831 14.0667L42.4539 12.906C41.9041 12.7143 41.6137 12.1132 41.8054 11.5633C41.9972 11.0134 42.5981 10.7234 43.1481 10.9149L45.4817 11.7285L46.2953 9.39486C46.4871 8.84477 47.0883 8.55443 47.638 8.74644C48.1879 8.93811 48.4782 9.5393 48.2865 10.0892L47.1259 13.4184C46.9743 13.8532 46.5664 14.1258 46.1304 14.1258Z" fill="#FFB332"/>
<path d="M17.89 15.0086C17.454 15.0086 17.0462 14.736 16.8945 14.3011L15.7338 10.9718C15.5422 10.422 15.8325 9.82079 16.3824 9.62923C16.9323 9.43734 17.5333 9.7279 17.7251 10.2777L18.5387 12.6113L20.8723 11.7977C21.422 11.6059 22.0233 11.8962 22.215 12.4461C22.4067 12.996 22.1163 13.5971 21.5665 13.7887L18.2372 14.9494C18.1224 14.9895 18.0051 15.0086 17.89 15.0086Z" fill="#49B1F7"/>
<path d="M38.7149 4.96206C38.5195 4.96206 38.3219 4.9078 38.1454 4.79418C35.4152 3.0373 32.2476 2.10862 28.9852 2.10862C28.403 2.10862 27.9309 1.63657 27.9309 1.0542C27.9309 0.471816 28.403 0 28.9852 0C32.6531 0 36.2153 1.04468 39.2864 3.02098C39.7762 3.33602 39.9176 3.98852 39.6025 4.47812C39.4011 4.79134 39.0616 4.96206 38.7149 4.96206Z" fill="#FFDD40"/>
<path d="M29 58C31.3686 58 33.667 57.7013 35.8618 57.1426C35.8117 50.7586 32.7591 45.6094 29 45.6094C25.2408 45.6094 22.1881 50.7585 22.1382 57.1426C24.3328 57.7013 26.6314 58 29 58Z" fill="#9181F2"/>
<path d="M0.455816 29.1314C0.348312 32.8468 1.898 36.2023 4.42009 38.5143C5.3302 39.3486 5.74299 40.6123 5.41164 41.8018C5.2415 42.4128 4.9686 42.985 4.60939 43.496C6.24845 46.5072 8.42957 49.1798 11.0204 51.3856C10.9003 49.855 11.0823 47.8233 12.1998 45.6094C14.5726 40.9088 11.5768 43.0203 8.93356 32.4416C6.8041 23.919 14.6215 19.1791 17.7413 17.6582C16.2308 16.986 14.5889 16.5984 12.9025 16.5718C6.19782 16.4667 0.649866 22.4287 0.455816 29.1314Z" fill="#FFB332"/>
<path d="M47.5487 16.8064C46.7552 16.6405 45.9353 16.5588 45.0973 16.5719C38.8635 16.6699 33.2343 21.6931 32.6209 27.8472C32.5127 28.9333 32.8315 29.644 32.909 30.0154C33.0711 30.6131 32.9323 31.2519 32.5374 31.729C31.2964 33.2285 30.2566 34.2088 30.2566 35.4294C30.2566 36.3123 31.9761 36.5315 32.4392 36.6922C32.513 36.7178 32.5623 36.7871 32.5623 36.8652L32.2539 38.7172C32.2539 38.8042 32.2928 38.8866 32.3601 38.9418L33.4192 39.516C33.4875 39.5721 33.5174 39.6626 33.4958 39.7483L33.4322 40.0003C33.3629 40.2752 33.4458 40.5661 33.6496 40.7633L34.1953 41.2908C34.5348 41.6191 34.7266 42.0712 34.7266 42.5435C34.7047 43.9321 34.7118 44.2419 34.9098 44.6126C35.235 45.2212 35.9616 45.5071 36.6513 45.5245C38.0674 45.5602 39.0225 44.93 39.8643 44.7286C40.1459 44.6613 40.4236 44.8604 40.4811 45.1442L40.8874 46.2456C41.4011 47.6388 41.2917 49.1846 40.5894 50.4929C40.534 50.5961 40.4774 50.702 40.4196 50.8103C39.5414 52.4583 39.0525 54.2841 38.988 56.1467C42.0554 54.9628 44.8593 53.2495 47.2885 51.1192C46.3817 49.8659 46.3449 48.2798 46.8452 46.1229C47.7706 42.1324 44.2205 38.7854 41.6739 29.2861C40.0297 23.1527 44.3094 18.9881 47.5487 16.8064Z" fill="#49B1F7"/>
<path d="M57.5441 29.1314C57.3719 23.1847 52.9853 17.8217 47.3157 16.7609C46.6166 17.2389 45.8762 17.8054 45.1626 18.4597C41.7143 21.622 40.4511 25.3809 41.5098 29.3301C42.6276 33.4994 43.9313 36.4717 44.9788 38.86C46.3087 41.8922 47.1875 43.8952 46.6797 46.0845C46.1524 48.3584 46.253 49.9811 47.157 51.2326C49.6699 49.0564 51.789 46.4377 53.3904 43.4959C53.0312 42.985 52.7583 42.4127 52.5882 41.8017C52.2569 40.6122 52.6696 39.3486 53.5797 38.5141C56.1019 36.2023 57.6517 32.8468 57.5441 29.1314Z" fill="#73C3F9"/>
</g>
<defs>
<clipPath id="clip0_10655_119368">
<rect width="58" height="58" fill="white"/>
</clipPath>
</defs>
</svg>
