<svg width="58" height="58" viewBox="0 0 58 58" fill="none" xmlns="http://www.w3.org/2000/svg">
<path d="M58 29C58 37.7544 54.1201 45.6036 47.9859 50.9211C47.2417 51.5668 46.4634 52.1751 45.6557 52.7415C44.208 53.7599 42.664 54.648 41.0384 55.39C38.6731 56.4718 36.1367 57.2444 33.4803 57.6556C32.0201 57.8822 30.5236 58 29 58C27.4764 58 25.9799 57.8822 24.5197 57.6556C21.8644 57.2444 23.0057 51.4624 20.6393 50.3806C19.0137 49.6386 17.2312 48.6867 15.7835 47.6683C14.9758 47.1008 10.7583 51.5656 10.0141 50.9199C3.87988 45.6036 0 37.7544 0 29C0 20.2456 3.87988 12.3964 10.0141 7.08008C10.7583 6.43437 11.5366 5.82605 12.3443 5.25852C13.792 4.24012 15.3371 3.35199 16.9627 2.61C19.3292 1.52816 21.8644 0.755586 24.5197 0.344375C25.9799 0.117812 27.4764 0 29 0C30.5236 0 32.0201 0.117812 33.4803 0.344375C36.1367 0.755586 38.6731 1.52816 41.0384 2.61C42.664 3.35199 44.208 4.24012 45.6557 5.25852C46.4634 5.82492 47.2417 6.43324 47.9859 7.07895C54.1201 12.3964 58 20.2456 58 29Z" fill="#6354B1"/>
<path d="M47.9859 5.90875V52.0912C47.9859 55.1646 45.4949 57.6556 42.4204 57.6556H24.5197C21.8644 57.2444 19.3292 56.4718 16.9627 55.39C16.2537 55.0663 17.474 52.1899 16.7969 51.812C15.9217 51.3234 13.1605 53.3157 12.3442 52.7415C11.5365 52.1739 10.7583 51.5656 10.014 50.9199V5.90875C10.014 2.83543 12.5051 0.344376 15.5795 0.344376H42.4204C45.4949 0.344376 47.9859 2.83543 47.9859 5.90875Z" fill="#5A565E"/>
<path d="M45.7203 5.90873V52.0912C45.7203 52.3144 45.6976 52.5319 45.6557 52.7415C45.3533 54.2504 44.0165 55.39 42.4204 55.39H16.9627C15.3371 54.648 13.792 53.7599 12.3442 52.7415C12.3023 52.5319 12.2797 52.3144 12.2797 52.0912V5.90873C12.2797 5.68557 12.3023 5.46807 12.3442 5.2585C12.6467 3.74959 13.9834 2.60999 15.5795 2.60999H17.537V4.51877C17.537 5.766 18.5509 6.781 19.7993 6.781H38.2007C39.449 6.781 40.4629 5.766 40.4629 4.51877V2.60999H42.4204C44.0165 2.60999 45.3533 3.74959 45.6557 5.2585C45.6976 5.46807 45.7203 5.68557 45.7203 5.90873Z" fill="white"/>
<path d="M19.0833 55.39H16.9627C15.3371 54.648 13.792 53.7599 12.3442 52.7415C12.3023 52.5319 12.2797 52.3144 12.2797 52.0912V5.90873C12.2797 5.68557 12.3023 5.46807 12.3442 5.2585C12.6467 3.74959 13.9834 2.60999 15.5795 2.60999H17.537V2.99627C16.4949 3.55022 15.7835 4.64791 15.7835 5.90873V52.0912C15.7835 53.9105 17.264 55.39 19.0833 55.39Z" fill="#EAF6FF"/>
<path d="M35.4274 4.83676H22.5727C21.9578 4.83676 21.4594 4.33833 21.4594 3.72344C21.4594 3.10854 21.9578 2.61011 22.5727 2.61011H35.4275C36.0424 2.61011 36.5408 3.10854 36.5408 3.72344C36.5408 4.33821 36.0423 4.83676 35.4274 4.83676Z" fill="#413D44"/>
<path d="M26.2699 20.0222L16.1086 37.6223C14.8952 39.7239 16.4119 42.3509 18.8386 42.3509H39.1613C41.588 42.3509 43.1047 39.7239 41.8914 37.6223L31.73 20.0222C30.5167 17.9206 27.4832 17.9206 26.2699 20.0222Z" fill="#FFD15B"/>
<path d="M29 40.2484C30.3289 40.2484 31.4062 39.1711 31.4062 37.8422C31.4062 36.5132 30.3289 35.4359 29 35.4359C27.671 35.4359 26.5938 36.5132 26.5938 37.8422C26.5938 39.1711 27.671 40.2484 29 40.2484Z" fill="#5A565E"/>
<path d="M29.4684 23.767H28.5315C27.1934 23.767 26.1391 24.9073 26.2437 26.2413L26.7122 32.2082C26.8058 33.4022 27.8022 34.3233 28.9999 34.3233C30.1976 34.3233 31.1938 33.4022 31.2876 32.2082L31.756 26.2413C31.8609 24.9073 30.8066 23.767 29.4684 23.767Z" fill="#5A565E"/>
<path d="M5.83734 4.8899L3.23266 19.4883C2.92159 21.2315 4.61435 22.6577 6.27948 22.0554L20.2244 17.0119C21.8895 16.4097 22.2783 14.2307 20.9241 13.0898L9.58389 3.53483C8.22973 2.39398 6.1483 3.14673 5.83734 4.8899Z" fill="#FE646F"/>
<path d="M12.1329 18.1957C13.1026 18.1957 13.8887 17.4096 13.8887 16.4399C13.8887 15.4702 13.1026 14.6842 12.1329 14.6842C11.1633 14.6842 10.3772 15.4702 10.3772 16.4399C10.3772 17.4096 11.1633 18.1957 12.1329 18.1957Z" fill="white"/>
<path d="M8.96145 6.66568L8.31858 6.89825C7.40043 7.23039 6.96 8.27439 7.36294 9.16376L9.16524 13.1419C9.52593 13.9379 10.4381 14.3227 11.2599 14.0255C12.0818 13.7282 12.5367 12.8489 12.3047 12.0063L11.1453 7.79566C10.886 6.85441 9.87959 6.33366 8.96145 6.66568Z" fill="white"/>
<path d="M50.2683 15.9042L39.0311 25.5801C37.6892 26.7354 38.1014 28.9101 39.7728 29.4945L53.771 34.3884C55.4424 34.9728 57.1198 33.5285 56.79 31.7888L54.0291 17.2191C53.6995 15.4793 51.6101 14.7488 50.2683 15.9042Z" fill="#FE646F"/>
<path d="M47.8576 30.5916C48.8272 30.5916 49.6133 29.8055 49.6133 28.8359C49.6133 27.8662 48.8272 27.0801 47.8576 27.0801C46.8879 27.0801 46.1018 27.8662 46.1018 28.8359C46.1018 29.8055 46.8879 30.5916 47.8576 30.5916Z" fill="white"/>
<path d="M51.5697 19.2537L50.9243 19.0281C50.0027 18.7058 49.0018 19.2374 48.7527 20.1815L47.6385 24.4043C47.4155 25.2493 47.8799 26.1237 48.7049 26.4121C49.5298 26.7005 50.4379 26.306 50.79 25.5061L52.5496 21.5088C52.943 20.6154 52.4913 19.576 51.5697 19.2537Z" fill="white"/>
</svg>
