<svg width="154" height="154" viewBox="0 0 154 154" fill="none" xmlns="http://www.w3.org/2000/svg">
<rect width="154" height="154" rx="6" fill="#DCF9FA"/>
<path d="M48.5129 94.1914C46.0439 95.3887 43.8391 96.9906 42 98.9051C49.7148 110.757 62.8309 119.362 77.4932 119.352C90.3357 119.364 101.948 112.77 109.854 103.191C89.5313 100.962 69.0643 97.7373 48.5129 94.1914V94.1914Z" fill="url(#paint0_linear_12111_190122)"/>
<path d="M95.635 91.803C83.5404 91.9657 71.4457 91.9657 59.3512 91.803C55.4354 91.7503 51.7473 92.6234 48.5127 94.1917C56.2459 105.517 69.0414 113.471 83.3877 113.318C93.3244 113.229 102.509 109.303 109.854 103.191C110.98 101.821 112.027 100.39 112.986 98.9054C108.738 94.4868 102.54 91.713 95.635 91.803V91.803Z" fill="url(#paint1_linear_12111_190122)"/>
<path d="M102.976 60.5455C103.071 74.3955 91.5369 85.8803 77.4931 85.9189C63.4494 85.8803 51.9154 74.3955 52.0107 60.5455C52.1484 46.7008 63.6822 34.9025 77.4931 34.8691C91.3041 34.9023 102.838 46.7004 102.976 60.5455Z" fill="#68CBE7"/>
<path d="M80.4944 79.9107C66.4217 79.89 54.9198 68.4609 55.0547 54.5631C55.0813 51.685 55.5987 48.9104 56.5192 46.3105C53.7223 50.4186 52.0475 55.31 52.011 60.5443C51.9156 74.3943 63.4496 85.8791 77.4934 85.9178C88.6477 85.9115 98.1994 78.6148 101.632 68.7385C97.0528 75.41 89.2787 79.9033 80.4944 79.9107V79.9107Z" fill="url(#paint2_linear_12111_190122)"/>
<path d="M103.267 53.149C103.445 67.1664 91.7633 78.727 77.4932 78.7725C63.2229 78.7268 51.5414 67.166 51.7194 53.149C51.9453 39.141 63.6268 27.0365 77.4932 27C91.3596 27.0367 103.041 39.1408 103.267 53.149V53.149Z" fill="url(#paint3_linear_12111_190122)" fill-opacity="0.25"/>
<path d="M102.976 60.5455C103.071 74.3955 91.5369 85.8803 77.4931 85.9189C63.4494 85.8803 51.9154 74.3955 52.0107 60.5455C52.1484 46.7008 63.6822 34.9025 77.4931 34.8691C91.3041 34.9023 102.838 46.7004 102.976 60.5455Z" fill="#68CBE7"/>
<path d="M80.484 79.6002C66.4113 79.5795 54.9094 68.1504 55.0443 54.2525C55.0709 51.3744 55.5883 48.5998 56.5088 46C53.7119 50.108 52.0371 54.9994 52.0006 60.2338C51.9053 74.0838 63.4393 85.5686 77.483 85.6072C88.6373 85.601 98.1891 78.3043 101.622 68.4279C97.0424 75.0994 89.2684 79.5928 80.484 79.6002V79.6002Z" fill="url(#paint4_linear_12111_190122)"/>
<path opacity="0.2" d="M24.7134 119.604C24.9202 118.078 26.7011 117.349 27.9189 118.291L37.5094 125.708C38.7272 126.65 38.4687 128.557 37.044 129.141L25.8249 133.738C24.4002 134.322 22.8779 133.144 23.0847 131.619L24.7134 119.604Z" fill="#2EC0F0"/>
<path opacity="0.2" d="M26.0408 26.3903C26.1793 24.8569 27.9257 24.0484 29.1844 24.935L33.4326 27.9272C34.6913 28.8138 34.5182 30.7305 33.1211 31.3773L28.4057 33.5602C27.0085 34.207 25.4351 33.0987 25.5736 31.5654L26.0408 26.3903Z" fill="#BF8ADB"/>
<path opacity="0.2" d="M120.224 131.643C119.654 133.073 117.749 133.35 116.796 132.141L113.577 128.062C112.624 126.853 113.336 125.065 114.86 124.844L120.002 124.096C121.525 123.875 122.717 125.385 122.147 126.816L120.224 131.643Z" fill="#FF8259"/>
<g opacity="0.2" filter="url(#filter0_d_12111_190122)">
<path d="M133.133 54.5502C133.205 56.0881 131.585 57.1273 130.217 56.4208L122.523 52.4467C121.155 51.7401 121.065 49.8178 122.36 48.9864L129.649 44.3097C130.945 43.4784 132.655 44.3615 132.727 45.8994L133.133 54.5502Z" fill="#FF9D7D"/>
</g>
<defs>
<filter id="filter0_d_12111_190122" x="103.44" y="31.9902" width="47.6947" height="48.6562" filterUnits="userSpaceOnUse" color-interpolation-filters="sRGB">
<feFlood flood-opacity="0" result="BackgroundImageFix"/>
<feColorMatrix in="SourceAlpha" type="matrix" values="0 0 0 0 0 0 0 0 0 0 0 0 0 0 0 0 0 0 127 0" result="hardAlpha"/>
<feOffset dy="6"/>
<feGaussianBlur stdDeviation="9"/>
<feComposite in2="hardAlpha" operator="out"/>
<feColorMatrix type="matrix" values="0 0 0 0 0.462569 0 0 0 0 0.546278 0 0 0 0 0.629097 0 0 0 0.12 0"/>
<feBlend mode="normal" in2="BackgroundImageFix" result="effect1_dropShadow_12111_190122"/>
<feBlend mode="normal" in="SourceGraphic" in2="effect1_dropShadow_12111_190122" result="shape"/>
</filter>
<linearGradient id="paint0_linear_12111_190122" x1="59" y1="81" x2="103.5" y2="125" gradientUnits="userSpaceOnUse">
<stop stop-color="#0085AF"/>
<stop offset="1" stop-color="#4FD5FF"/>
</linearGradient>
<linearGradient id="paint1_linear_12111_190122" x1="16.2662" y1="161.609" x2="102.087" y2="75.7874" gradientUnits="userSpaceOnUse">
<stop stop-color="#52DAF0"/>
<stop offset="1" stop-color="#ABF3FA"/>
</linearGradient>
<linearGradient id="paint2_linear_12111_190122" x1="64.4425" y1="25.5448" x2="117.588" y2="49.9564" gradientUnits="userSpaceOnUse">
<stop stop-color="#0085AF"/>
<stop offset="1" stop-color="#4FD5FF"/>
</linearGradient>
<linearGradient id="paint3_linear_12111_190122" x1="79.2789" y1="83.4286" x2="76.0646" y2="29.8571" gradientUnits="userSpaceOnUse">
<stop stop-color="#BFE2E4"/>
<stop offset="1" stop-color="#BFE2E4" stop-opacity="0"/>
</linearGradient>
<linearGradient id="paint4_linear_12111_190122" x1="64.4321" y1="25.2342" x2="117.577" y2="49.6458" gradientUnits="userSpaceOnUse">
<stop stop-color="#0085AF"/>
<stop offset="1" stop-color="#4FD5FF"/>
</linearGradient>
</defs>
</svg>
