<svg width="58" height="58" viewBox="0 0 58 58" fill="none" xmlns="http://www.w3.org/2000/svg">
<path d="M48.3566 46.3955C52.5023 41.7856 55.0258 35.6877 55.0258 28.9998C55.0258 14.6261 43.3737 2.97394 29 2.97394C14.6263 2.97394 2.97412 14.6261 2.97412 28.9998C2.97412 35.5606 5.40268 41.5536 9.40883 46.1311L48.3566 46.3955Z" fill="#816AE2"/>
<path d="M34.4004 33.6269C34.091 33.5485 33.8161 33.3612 33.642 33.0937C33.0227 32.1418 32.8489 30.7331 32.8136 29.7033C32.3409 30.2539 31.8448 30.7144 31.3708 31.0825C30.5893 31.6895 29.6527 32.0606 28.6718 32.1607C28.6718 33.1201 28.5188 36.3207 26.5486 37.6437C26.4504 37.6499 26.214 37.6727 25.9307 37.7495C27.8046 38.526 30.0033 38.2662 31.6516 36.9863C32.3703 36.4283 33.5774 35.3354 34.5828 33.6767C34.5218 33.6606 34.4619 33.6424 34.4004 33.6269Z" fill="#FFAA7B"/>
<path d="M28.8321 32.1423C28.6016 32.1729 28.3684 32.1893 28.1339 32.1893C26.96 32.1893 25.8204 31.7997 24.8969 31.0825C24.4229 30.7144 23.9267 30.2538 23.4541 29.7033C23.4187 30.7331 23.245 32.1419 22.6256 33.0937C22.4515 33.3612 22.1765 33.5485 21.8672 33.6269C21.8058 33.6426 21.7459 33.6606 21.6848 33.6767C22.6903 35.3355 23.8975 36.4283 24.6161 36.9864C25.1034 37.3648 25.6376 37.6523 26.1961 37.8517C26.4344 37.8052 26.6003 37.8006 26.6003 37.8006C28.6941 36.434 28.8364 33.1087 28.8321 32.1423Z" fill="#FC9460"/>
<path d="M48.1825 44.4969C47.8083 41.2564 46.3467 36.8362 41.2 36.4154C40.5961 36.366 40.2748 36.1318 39.5631 35.7305C38.801 35.3007 38.0324 34.9211 37.2473 34.589C35.9594 36.9178 34.2991 38.4276 33.3458 39.1679C30.7318 41.1975 27.2204 41.4848 24.3539 40.0642C24.3606 40.1155 24.366 40.1662 24.3753 40.2188C23.8615 40.2859 22.2879 40.5259 20.6846 41.118C18.0764 42.0813 16.5708 43.5363 16.331 45.3256C16.0352 47.5303 16.4192 50.0653 16.7935 51.8037C16.8089 51.8752 16.8245 51.9452 16.84 52.0151C20.469 53.9371 24.6073 55.0257 29 55.0257C32.8036 55.0257 36.4158 54.2085 39.6726 52.7418V45.1123C39.6726 44.5099 40.0723 44.1592 40.4462 44.0318C40.8196 43.9048 41.3491 43.9385 41.716 44.4147C42.8411 45.8753 43.4906 47.9213 43.6564 50.5057C45.3834 49.3263 46.9624 47.9458 48.3566 46.3954L48.1825 44.4969Z" fill="#49B1F7"/>
<path d="M16.4886 45.3466C17.0551 41.1226 24.5655 40.3561 24.5655 40.3561C24.5491 40.2841 24.5362 40.2145 24.525 40.1464C23.964 39.884 23.4257 39.5586 22.9222 39.1676C21.9689 38.4274 20.3085 36.9176 19.0205 34.5887C18.2354 34.921 17.467 35.3006 16.7047 35.7304C15.993 36.1317 15.6717 36.3659 15.0678 36.4153C13.4904 36.5443 12.2591 37.049 11.2992 37.7802C9.35599 39.2606 8.48897 41.7642 8.99238 44.1546L9.40868 46.1312C11.542 48.5689 14.1239 50.6034 17.024 52.1096C16.585 50.1742 16.1881 47.5872 16.4886 45.3466Z" fill="#1E9EF4"/>
<path d="M27.9214 7.46502L27.9547 7.48584C27.602 7.80899 26.8281 8.64489 26.7212 9.83962C26.6295 10.8649 27.0533 11.8957 27.9805 12.9033C28.0012 12.9257 28.02 12.9488 28.0396 12.9716C28.4247 12.9826 28.8112 12.9289 29.1811 12.8059C30.2271 12.458 31.8675 12.1096 33.2047 12.7114C34.7786 13.4196 34.6467 15.5861 34.5599 16.785C34.5297 17.2018 34.6288 17.6199 34.8541 17.9733C34.9871 18.182 35.0927 18.4032 35.1764 18.6217C35.2805 18.8934 35.3545 19.3524 35.4003 19.6374C35.6419 19.5203 36.1657 19.3928 36.4611 19.4346C36.4972 18.1812 36.6129 16.6517 36.6129 16.6517C37.8839 10.427 32.6859 7.41988 27.9214 7.46502Z" fill="#56415E"/>
<path d="M26.5686 7.56141C21.8686 8.20185 21.4219 10.8666 21.4198 11.8443C21.4194 12.0493 21.3058 12.2393 21.1214 12.329C18.6766 13.5183 19.9947 19.4287 19.9947 19.4287C20.2402 19.445 20.6757 19.5445 20.8673 19.6373C20.9143 19.3453 20.9908 18.8793 21.0991 18.6013C21.1815 18.3895 21.2846 18.1755 21.4134 17.9734C21.637 17.6226 21.7388 17.2089 21.7084 16.7951C21.6206 15.5993 21.4844 13.4214 23.0629 12.7112C24.4001 12.1095 26.0405 12.4579 27.0865 12.8057C27.4622 12.9307 27.855 12.9839 28.2462 12.9707C28.1993 12.9114 28.1506 12.8527 28.0977 12.7952C25.2599 9.71177 28.2235 7.46581 28.2235 7.46581C27.6642 7.45614 27.1089 7.4878 26.5686 7.56141Z" fill="#47354F"/>
<path d="M36.9893 19.4191C36.6233 19.0836 35.8049 19.2537 35.4896 19.4591C35.5587 19.8892 35.5626 20.3292 35.503 20.7638L35.1309 23.4735C35.1309 23.6919 35.124 23.9063 35.1113 24.1169C36.0186 24.3905 36.5585 23.5761 36.6343 23.0171C36.667 22.7765 36.7205 22.5394 36.7945 22.3079C37.036 21.5541 37.9065 20.2596 36.9893 19.4191Z" fill="#FFAA7B"/>
<path d="M19.2782 19.4191C19.6443 19.0836 20.4626 19.2537 20.7779 19.4591C20.7089 19.8892 20.705 20.3292 20.7645 20.7638L21.1367 23.4735C21.1367 23.6919 21.1436 23.9063 21.1562 24.1169C20.249 24.3905 19.7091 23.5761 19.6332 23.0171C19.6005 22.7765 19.5472 22.5394 19.473 22.3079C19.2317 21.5541 18.361 20.2596 19.2782 19.4191Z" fill="#FC9460"/>
<path d="M35.3547 18.6218C35.271 18.4033 35.1654 18.1821 35.0324 17.9734C34.8071 17.62 34.708 17.2019 34.7383 16.7851C34.8252 15.5861 34.7785 13.2412 33.2046 12.533C31.8674 11.9313 30.2272 12.2798 29.1811 12.6275C28.7114 12.7837 28.2148 12.8293 27.7282 12.7695C26.8188 13.793 26.8016 15.611 26.876 16.6234C26.9073 17.0499 26.8024 17.4765 26.5719 17.8381C26.439 18.0465 26.3327 18.267 26.2478 18.4854C25.9721 19.1938 25.8917 19.9619 25.9949 20.714L26.3786 23.5082C26.3786 27.5252 28.5229 30.2555 30.347 31.672C30.4383 31.743 30.5322 31.8099 30.6276 31.8744C30.8872 31.7355 31.136 31.5746 31.3707 31.3925C33.14 30.0185 35.2199 27.3701 35.2199 23.4735L35.5919 20.7638C35.6911 20.0412 35.6159 19.3035 35.3547 18.6218Z" fill="#FFC7AB"/>
<path d="M30.3628 31.3922C28.5935 30.0183 26.5135 27.3699 26.5135 23.4733L26.1414 20.7631C26.0412 20.0335 26.1192 19.2884 26.3867 18.6014C26.4691 18.3896 26.5722 18.1757 26.701 17.9735C26.9246 17.6228 27.0264 17.209 26.996 16.7953C26.917 15.7199 26.944 13.7067 28.098 12.7955C27.7562 12.7918 27.4148 12.7366 27.0866 12.6275C26.0406 12.2798 24.4004 11.9313 23.0632 12.533C21.4847 13.2432 21.4425 15.5995 21.5303 16.7953C21.5607 17.2089 21.4589 17.6228 21.2353 17.9735C21.1065 18.1757 21.0034 18.3896 20.921 18.6014C20.6536 19.2884 20.5757 20.0336 20.6757 20.7631L21.0478 23.4733C21.0478 27.3699 23.1279 30.0183 24.8971 31.3922C25.8206 32.1094 26.9602 32.4989 28.134 32.4989C29.1024 32.4989 30.0472 32.2331 30.8669 31.7377C30.6929 31.6326 30.5243 31.5178 30.3628 31.3922Z" fill="#FFAA7B"/>
<path d="M34.41 33.6296C33.4241 35.2415 32.2483 36.3047 31.546 36.8502C30.0143 38.0394 27.996 38.3186 26.2344 37.6821C25.817 37.7541 25.1347 37.9535 24.7058 38.5052C24.3625 38.9468 24.2515 39.5228 24.3753 40.2189C24.3518 40.222 24.3254 40.2255 24.2976 40.2293C27.2148 41.6653 30.7862 41.3739 33.4516 39.3043C34.4205 38.5519 36.1041 37.0201 37.4071 34.6578C36.4405 34.2392 35.4495 33.8937 34.41 33.6296Z" fill="#73C3F9"/>
<path d="M24.722 36.8502C24.0197 36.3048 22.8439 35.2415 21.8579 33.6296C20.8184 33.8937 19.8274 34.2392 18.8608 34.6578C20.1639 37.02 21.8474 38.5518 22.8163 39.3041C23.3636 39.7292 23.9516 40.0784 24.5652 40.3547C24.0038 37.8695 26.6002 37.8007 26.6002 37.8007C25.9329 37.6107 25.294 37.2943 24.722 36.8502Z" fill="#49B1F7"/>
<path d="M51.6437 16.1635C48.311 17.3141 42.5637 19.8755 41.2748 24.1712C39.4336 30.3081 42.7612 32.7556 48.3564 34.5887C51.006 35.4568 51.6452 38.1002 52.1614 40.8758C53.9913 37.315 55.0257 33.2785 55.0257 28.9997C55.0257 24.3317 53.7957 19.9515 51.6437 16.1635Z" fill="#9181F2"/>
<path d="M15.7097 16.7173C16.0633 13.7503 14.3542 10.9199 12.554 8.82928C6.70769 13.6017 2.97412 20.8644 2.97412 28.9998C2.97412 32.4898 3.66141 35.8189 4.90767 38.86C5.65232 36.9684 6.97729 34.9044 9.33596 33.6295C14.6066 30.7806 15.0015 22.6597 15.7097 16.7173Z" fill="#9181F2"/>
<path d="M39.5132 52.8119C41.0264 52.1427 42.4644 51.3348 43.8098 50.4019C43.5976 47.3686 42.7379 45.4802 41.8423 44.3176C41.0855 43.3351 39.5133 43.8721 39.5133 45.1123V52.8119H39.5132Z" fill="#1E9EF4"/>
<circle cx="29" cy="29" r="26" stroke="#FE646F" stroke-width="6"/>
<path d="M10.0916 43.978L44.1975 10.0456L48.174 14.022L14.068 47.9545L10.0916 43.978Z" fill="#FE646F"/>
<path d="M31.1245 57.9207C30.4138 57.9739 29.6952 58 28.971 58C12.9702 58 0 45.0157 0 29C0 12.9843 12.9702 0 28.971 0C29.6952 0 30.4138 0.0260547 31.1245 0.0792969C16.1287 1.18152 4.30604 13.7093 4.30604 29C4.30604 44.2907 16.1287 56.8185 31.1245 57.9207Z" fill="#FD4755"/>
</svg>
