<svg width="58" height="58" viewBox="0 0 58 58" fill="none" xmlns="http://www.w3.org/2000/svg">
<g clip-path="url(#clip0_10636_109761)">
<path d="M29.0005 1.57812C18.1442 1.57812 11.4566 7.70179 11.4382 7.71214C11.4382 7.71214 11.1601 8.05911 11.1081 8.28986C10.6858 10.1649 10.2911 12.6778 10.2911 14.5116C10.2911 30.0919 23.43 42.7192 39.0103 42.7192C45.0099 42.7192 51.685 39.8437 56.1525 36.3864C56.2525 36.3091 56.5696 35.7894 56.5696 35.7894C56.5892 35.6692 57.2113 33.1921 57.2113 29.7889C57.2113 14.2085 44.5808 1.57812 29.0005 1.57812Z" fill="#FF4155"/>
<path d="M39.0076 41.9237C23.4272 41.9237 10.7967 29.2932 10.7967 13.7128C10.7967 11.6535 11.0188 9.64691 11.4378 7.71289C4.94995 12.8816 0.789185 20.85 0.789185 29.7897C0.789185 35.318 2.37929 40.4748 5.12724 44.8279L52.8717 44.8306C54.592 42.1054 55.861 39.0587 56.5692 35.7902C51.7502 39.6286 45.6473 41.9237 39.0076 41.9237Z" fill="#E80054"/>
<path d="M16.545 24.7949H40.4922V40.7116H16.545V24.7949Z" fill="#20396B"/>
<path d="M46.9157 39.6561C46.8258 39.6335 46.7353 39.6121 46.6444 39.5919L44.6311 39.1465L35.7247 52.2549L47.56 51.0328C49.6128 49.2395 51.4058 47.1512 52.8714 44.8296C51.821 42.3201 49.6675 40.3489 46.9157 39.6561Z" fill="#20396B"/>
<path d="M18.5598 37.9883L11.3514 39.5882C11.2604 39.6084 11.17 39.6298 11.0802 39.6525C8.33006 40.3468 6.17837 42.318 5.12903 44.8268C6.84981 47.5528 9.02447 49.9637 11.5468 51.9531L23.6357 46.281L18.5598 37.9883Z" fill="#20396B"/>
<path d="M29.0264 43.3492C26.8837 43.3492 25.1466 41.6121 25.1466 39.4694V30.7793H32.9061V39.4694C32.9061 41.6121 31.1691 43.3492 29.0264 43.3492Z" fill="#E09380"/>
<path d="M32.9061 36.1179V31.7461H25.1466V36.1179C25.1466 38.2606 26.8837 39.9977 29.0264 39.9977C31.1691 39.9977 32.9061 38.2606 32.9061 36.1179Z" fill="#D27F6C"/>
<path d="M40.0404 24.7951H39.3556V18.248H40.0404C41.4668 18.248 42.623 19.4043 42.623 20.8306V22.2125C42.6229 23.6387 41.4667 24.7951 40.0404 24.7951Z" fill="#E09380"/>
<path d="M40.0411 22.6646V20.3789C40.539 20.3789 40.9427 20.7825 40.9427 21.2805V21.7629C40.9426 22.2608 40.539 22.6646 40.0411 22.6646Z" fill="#DD5CA2"/>
<path d="M15.3204 22.2125C15.3204 23.6389 16.4767 24.7951 17.903 24.7951H18.501L18.6835 18.248H17.903C16.4767 18.248 15.3204 19.4043 15.3204 20.8306V22.2125Z" fill="#E09380"/>
<path d="M16.9982 21.764C16.9982 22.2638 17.4033 22.6688 17.903 22.6688V20.375C17.4033 20.375 16.9982 20.7801 16.9982 21.2798V21.764Z" fill="#DD5CA2"/>
<path d="M24.2677 22.1543V22.931C24.2677 23.4377 24.6785 23.8485 25.1851 23.8485C25.6918 23.8485 26.1025 23.4377 26.1025 22.931V22.1543H24.2677Z" fill="#E09380"/>
<path d="M31.7423 22.1543V22.931C31.7423 23.4377 32.1531 23.8485 32.6597 23.8485C33.1664 23.8485 33.5772 23.4377 33.5772 22.931V22.1543H31.7423Z" fill="#E09380"/>
<path d="M28.9716 4.94922C28.8683 4.94922 28.7654 4.9507 28.6628 4.95343C24.197 5.0758 20.674 8.80656 20.674 13.2739V28.9406C20.674 29.0257 20.6752 29.1105 20.6778 29.1952C20.8109 33.6327 24.5099 37.1351 28.9492 37.1757L30.4753 37.1897C35.8737 36.4803 40.0409 31.8618 40.0409 26.2697V16.0185C40.0408 9.90515 35.085 4.94922 28.9716 4.94922Z" fill="#EDBC83"/>
<path d="M26.4875 20.204H23.8121C23.3054 20.204 22.8947 19.7932 22.8947 19.2866C22.8947 18.7799 23.3054 18.3691 23.8121 18.3691H26.4875C26.9941 18.3691 27.4049 18.7799 27.4049 19.2866C27.4049 19.7932 26.9941 20.204 26.4875 20.204Z" fill="#26447E"/>
<path d="M34.132 20.204H31.4566C30.95 20.204 30.5392 19.7932 30.5392 19.2866C30.5392 18.7799 30.95 18.3691 31.4566 18.3691H34.132C34.6387 18.3691 35.0494 18.7799 35.0494 19.2866C35.0493 19.7932 34.6387 20.204 34.132 20.204Z" fill="#26447E"/>
<path d="M27.4843 25.2668C27.2562 26.1775 27.6707 27.1696 28.4633 27.4686C28.6228 27.5287 28.7935 27.5613 28.9708 27.5613C29.1481 27.5613 29.3188 27.5288 29.4782 27.4686C30.2708 27.1696 30.6853 26.1775 30.4573 25.2668L29.7012 22.2478C29.5108 21.4877 28.4307 21.4877 28.2404 22.2478L27.4843 25.2668Z" fill="#E09380"/>
<path d="M30.5753 31.5686H27.4778C27.0414 31.5686 26.6876 31.2149 26.6876 30.7785C26.6876 30.342 27.0413 29.9883 27.4778 29.9883H30.5753C31.0117 29.9883 31.3655 30.342 31.3655 30.7785C31.3655 31.2149 31.0117 31.5686 30.5753 31.5686Z" fill="#E09380"/>
<path d="M24.8371 23.8995C23.7811 23.8995 22.922 23.0404 22.922 21.9844H23.8946C23.8946 22.5041 24.3174 22.9269 24.8372 22.9269C25.3571 22.9269 25.7799 22.5041 25.7799 21.9844H26.7525C26.7523 23.0403 25.8932 23.8995 24.8371 23.8995Z" fill="#20396B"/>
<path d="M33.1047 23.8995C32.0487 23.8995 31.1896 23.0404 31.1896 21.9844H32.1622C32.1622 22.5041 32.585 22.9269 33.1048 22.9269C33.6247 22.9269 34.0475 22.5041 34.0475 21.9844H35.0201C35.0199 23.0403 34.1607 23.8995 33.1047 23.8995Z" fill="#20396B"/>
<path d="M30.4223 5.04395C30.4223 5.04384 30.4223 5.04395 30.4223 5.04395C30.3042 5.02849 30.1856 5.01484 30.0665 5.00312C30.0632 5.00278 30.06 5.00256 30.0568 5.00221C29.951 4.99187 29.8448 4.98334 29.7382 4.97606C29.7113 4.97424 29.6843 4.97253 29.6574 4.97094C29.5707 4.9656 29.4838 4.96139 29.3967 4.95809C29.3674 4.95695 29.3381 4.95559 29.3088 4.95479C29.1968 4.95149 29.0845 4.94922 28.9717 4.94922C28.9655 4.94922 28.9592 4.94945 28.9528 4.94945C28.8596 4.94956 28.7666 4.95081 28.6739 4.95331C28.6702 4.95343 28.6666 4.95331 28.6629 4.95343C28.6569 4.95354 28.651 4.95422 28.6451 4.95434C22.6828 5.1272 17.9025 10.0143 17.9025 16.0185V26.1606C17.9025 32.2768 22.8328 37.2179 28.9002 37.2827C28.9136 37.283 28.9268 37.284 28.9402 37.2841C28.9689 37.2843 28.9975 37.2844 29.0262 37.2844C29.2236 37.2844 29.4197 37.279 29.6146 37.2687C29.6174 37.2686 29.6204 37.2685 29.6232 37.2684C29.623 37.2684 29.6229 37.2683 29.6227 37.2682C29.9099 37.2528 30.1941 37.2261 30.4752 37.1891C25.0316 36.4797 20.8036 31.8244 20.8036 26.1606V21.955C20.8036 18.796 23.3144 16.1677 26.473 16.1165C26.5508 16.1152 26.6294 16.115 26.7089 16.1158H31.2335C35.3133 16.1158 39.1995 19.4421 39.3505 23.9394L39.5294 29.2668L39.4381 29.8726C39.8287 28.7437 40.0408 27.5315 40.0408 26.2697V16.0185C40.041 10.3969 35.8502 5.7544 30.4223 5.04395Z" fill="#E09380"/>
<path d="M42.6636 9.93392L40.9064 6.89017C38.4447 2.62649 33.8955 0 28.9722 0C24.049 0 19.4998 2.62649 17.0382 6.89006L15.3483 9.81724C13.8628 12.3902 13.2487 15.3742 13.5973 18.3246L16.038 38.9775L20.0804 37.9879L18.8642 27.5605L18.7775 22.4786C18.7365 20.074 19.7884 17.7806 21.6376 16.243C23.0625 15.0582 24.8571 14.4095 26.7102 14.4095H31.2348C33.0878 14.4095 34.8825 15.0582 36.3074 16.243L36.4951 16.399C38.2363 17.8468 39.2759 19.9697 39.3518 22.233L39.5307 27.5603L37.9396 38.1119L42.3568 38.9775L44.4412 18.1994C44.7292 15.3261 44.1075 12.4347 42.6636 9.93392Z" fill="#26447E"/>
<path d="M18.8503 26.7523L18.1692 20.9892C17.8205 18.0388 18.4347 15.0547 19.9201 12.4818L21.6102 9.55464C24.0717 5.29108 28.621 2.66459 33.5442 2.66459C35.1082 2.66459 36.6345 2.9298 38.0682 3.42825C35.59 1.25121 32.3703 0 28.9724 0C24.0492 0 19.5 2.62649 17.0384 6.89006L15.3483 9.81724C13.8628 12.3902 13.2487 15.3742 13.5973 18.3246L16.0379 38.9775L20.0803 37.9879L18.8641 27.5605L18.8503 26.7523Z" fill="#20396B"/>
<path d="M45.6265 34.082H21.3493L20.6036 55.01L42.8158 54.387C44.5119 53.4327 46.1012 52.3073 47.5596 51.0333V36.015C47.5594 34.9475 46.6941 34.082 45.6265 34.082Z" fill="#817DDB"/>
<path d="M29.001 58.0006C34.001 58.0006 38.7201 56.692 42.8167 54.3873H27.2003C23.9693 54.3873 21.3502 51.7681 21.3502 48.5372V34.082H13.48C12.4124 34.082 11.547 34.9475 11.547 36.015V51.9538C16.3489 55.7405 22.411 58.0006 29.001 58.0006Z" fill="#6E64C2"/>
<path d="M31.27 41.6406H27.8336C27.2767 41.6406 26.7622 41.9377 26.4837 42.42L24.7656 45.396C24.4872 45.8783 24.4872 46.4724 24.7656 46.9547L26.4837 49.9306C26.7621 50.413 27.2767 50.71 27.8336 50.71H31.27C31.8269 50.71 32.3414 50.413 32.6199 49.9306L34.3381 46.9547C34.6165 46.4724 34.6165 45.8783 34.3381 45.396L32.6199 42.42C32.3414 41.9377 31.8269 41.6406 31.27 41.6406Z" fill="#FBF490"/>
<path d="M32.6204 49.9307L33.4795 48.4427L34.3386 46.9548C34.617 46.4726 34.617 45.8783 34.3386 45.3961L33.4795 43.9082L32.6204 42.4202C32.4812 42.1791 32.283 41.9843 32.0499 41.8496L27.0548 50.5013C27.2878 50.6358 27.5558 50.7101 27.8342 50.7101H31.2705C31.8274 50.7101 32.3419 50.4129 32.6204 49.9307Z" fill="#F7E07D"/>
</g>
<defs>
<clipPath id="clip0_10636_109761">
<rect width="58" height="58" fill="white"/>
</clipPath>
</defs>
</svg>
