<svg width="58" height="58" viewBox="0 0 58 58" fill="none" xmlns="http://www.w3.org/2000/svg">
<path d="M0 29C0 12.9837 12.9837 0 29 0C45.0163 0 58 12.9837 58 29C58 37.4692 54.3696 45.0905 48.5799 50.3924C48.2623 50.6832 46.9976 50.7796 46.6854 50.5565C41.9388 47.1665 36.1271 45.1719 29.8496 45.1719C22.767 45.1719 10.9963 51.7367 10.875 51.6394C4.2451 46.3248 0 38.1581 0 29Z" fill="#FF2AAA"/>
<path d="M51.89 29C51.89 41.6418 41.6418 51.89 28.9999 51.89C16.3581 51.89 6.10986 41.6418 6.10986 29C6.10986 16.3581 16.3581 6.10992 28.9999 6.10992C41.6418 6.10992 51.89 16.3581 51.89 29Z" fill="#FF4FB8"/>
<path d="M55.3824 34.7919C55.2972 34.875 55.2583 34.9945 55.2785 35.1117L55.7403 37.8045C55.791 38.0996 55.4811 38.3247 55.2162 38.1854L52.7978 36.914C52.6926 36.8586 52.5669 36.8586 52.4616 36.914L51.6653 37.3327L51.4271 35.1117C51.4472 34.9946 51.4083 34.875 51.3233 34.7919L49.3668 32.8848C49.1523 32.6758 49.2707 32.3116 49.567 32.2686L52.2708 31.8757C52.3884 31.8586 52.4902 31.7848 52.5427 31.6781L53.4894 30.3135L54.1629 31.6781C54.2156 31.7847 54.3173 31.8586 54.4349 31.8757L57.1387 32.2686C57.435 32.3116 57.5533 32.6758 57.3389 32.8848L55.3824 34.7919ZM50.3018 17.6736L49.2911 18.6843C49.1584 18.817 48.9432 18.817 48.8105 18.6843L47.7998 17.6736C47.667 17.5408 47.667 17.3257 47.7998 17.1929L48.8105 16.1822C48.9432 16.0495 49.1584 16.0495 49.2911 16.1822L50.3018 17.1929C50.4345 17.3257 50.4345 17.5408 50.3018 17.6736Z" fill="#FF94D4"/>
<path d="M51.6652 37.3326L50.0432 38.1853C49.7781 38.3246 49.4684 38.0995 49.519 37.8044L49.9809 35.1116C50.0009 34.9945 49.9621 34.8749 49.877 34.7918L47.9205 32.8847C47.7061 32.6757 47.8245 32.3115 48.1207 32.2685L50.8245 31.8756C50.9422 31.8585 51.0439 31.7847 51.0965 31.678L52.3057 29.2279C52.4382 28.9594 52.8211 28.9594 52.9536 29.2279L53.4893 30.3134L52.7783 32.2199C52.7333 32.3405 52.6463 32.4243 52.5457 32.4435L51.2084 33.0562C50.955 33.105 50.8538 33.5171 51.0371 33.7536L52.0015 34.936C52.0743 35.0299 52.1075 35.1653 52.0903 35.2979L51.6652 37.3326Z" fill="#FF73C6"/>
<path d="M20.8649 37.5782C17.3313 38.3779 14.6928 41.5371 14.6928 45.3125V53.8188C14.6928 54.0017 14.4939 54.1173 14.3361 54.0246C13.1233 53.3124 11.9668 52.5146 10.875 51.6394V45.3125C10.875 40.933 14.4252 37.3828 18.8047 37.3828H20.6292C20.6292 37.3828 21.4302 37.4503 20.8649 37.5782Z" fill="#6F3F8B"/>
<path d="M47.125 45.3125V50.7235C45.0064 52.4218 42.6444 53.8289 40.0996 54.884C39.7792 55.0169 39.4557 56.0602 39.1296 56.1817C35.9762 57.3574 32.5631 58 29 58C25.6247 58 22.3839 57.4233 19.3711 56.3632C19.2538 56.322 19.1359 56.0639 19.0194 56.0212C18.6845 55.8985 18.3526 55.7697 18.0236 55.6351C17.9056 55.5869 17.7891 55.7539 17.6719 55.704C16.4974 55.2051 15.3625 54.6311 14.2734 53.9878V45.3125C14.2734 41.4805 16.9916 38.2833 20.6051 37.5439C21.1213 37.4383 21.8172 38.5663 22.3647 38.5663L36.0801 38.375L38.131 37.3828H39.1953C43.5748 37.3828 47.125 40.933 47.125 45.3125Z" fill="#814BA3"/>
<path d="M38.131 37.3828L31.2543 47.5838C30.1765 49.1825 27.8233 49.1825 26.7456 47.5838L19.869 37.3828H21.9199L23.4067 38.0668L34.5702 38.2778L36.0801 37.3828H38.131ZM18.5215 46.2941C18.0523 46.2941 17.6719 46.6745 17.6719 47.1437V55.704C18.2296 55.9409 18.7962 56.1608 19.3711 56.3631V47.1436C19.3711 46.6745 18.9907 46.2941 18.5215 46.2941Z" fill="#6F3F8B"/>
<path d="M30.1087 46.1834C29.4228 46.8582 28.2517 46.7753 27.6849 45.9347L21.9199 37.3828H24.1373L29.9023 45.9347C29.9644 46.0267 30.0337 46.1095 30.1087 46.1834Z" fill="#D5F3F7"/>
<path d="M36.0801 37.3828L30.3151 45.9348C30.2249 46.0684 30.1196 46.183 30.0032 46.2783C29.8869 46.183 29.7814 46.0684 29.6914 45.9348L23.9263 37.3828H36.0801Z" fill="#FFF5F5"/>
<path d="M48.6699 37.2422V41.8464C48.6699 42.9869 48.2416 44.0274 47.5371 44.8159V50.7235H40.7402V44.8159C40.0357 44.0274 39.6074 42.9869 39.6074 41.8464V34.9766C39.6074 34.3509 40.1146 33.8438 40.7402 33.8438C41.3659 33.8438 41.873 34.3509 41.873 34.9766V36.9537C41.873 36.9537 41.8854 37.0495 41.9087 36.959C42.0345 36.4704 42.478 36.1093 43.0059 36.1093C43.6315 36.1093 44.1387 36.6165 44.1387 37.2421C44.1387 36.6165 44.6458 36.1093 45.2715 36.1093C45.897 36.1093 46.4042 36.6163 46.4043 37.2419C46.4044 36.6163 46.9116 36.1093 47.5371 36.1093C48.1628 36.1094 48.6699 36.6166 48.6699 37.2422Z" fill="#FED2A4"/>
<path d="M41.8732 40.0743V37.2329C41.8732 36.6278 42.3323 36.1477 42.9363 36.1116C43.1687 36.0976 43.3871 36.1539 43.5724 36.2611C43.2338 36.457 43.006 36.823 43.006 37.2423V40.0744C43.006 40.3871 42.7524 40.6408 42.4396 40.6408C42.1268 40.6407 41.8732 40.3871 41.8732 40.0743ZM45.2021 36.1116C44.5981 36.1477 44.1389 36.6248 44.1389 37.2299V40.0743C44.1389 40.387 44.3926 40.6407 44.7053 40.6407C45.0181 40.6407 45.2717 40.387 45.2717 40.0743V37.2422C45.2717 36.823 45.4995 36.4568 45.8381 36.261C45.6528 36.1538 45.4344 36.0976 45.2021 36.1116ZM47.4677 36.1116C46.8637 36.1477 46.4045 36.6336 46.4045 37.2386V40.0743C46.4045 40.387 46.6582 40.6407 46.971 40.6407C47.2837 40.6407 47.5374 40.387 47.5374 40.0743V37.2422C47.5374 36.823 47.7652 36.4568 48.1038 36.261C47.9184 36.1538 47.7 36.0976 47.4677 36.1116ZM40.7761 41.3291C40.7625 41.3291 40.749 41.3296 40.7356 41.3305V34.9767C40.7356 34.5564 40.9646 34.1896 41.3044 33.9941C41.1383 33.8986 40.9458 33.8439 40.7404 33.8439C40.1147 33.8439 39.6076 34.3511 39.6076 34.9767V39.6714C39.2196 39.4368 38.7114 39.4499 38.3303 39.743C37.8345 40.1246 37.7417 40.8357 38.1231 41.3316L38.8653 42.2964C38.8821 42.3223 38.9 42.3478 38.9193 42.3727L40.1375 43.9563C40.3046 44.2667 40.5074 44.5551 40.7404 44.8159V50.7235H41.8684V44.8159C41.293 44.1718 40.9018 43.3595 40.7779 42.4619C42.2082 42.4629 43.3714 43.6268 43.3714 45.0573C43.3714 45.37 43.625 45.6237 43.9378 45.6237C44.2507 45.6237 44.5043 45.37 44.5043 45.0573C44.5043 43.0016 42.8318 41.3291 40.7761 41.3291Z" fill="#FFBD86"/>
<path d="M43.0926 40.909C42.7731 40.909 42.5142 40.6501 42.5142 40.3306V40.0799C42.5142 39.7605 42.7731 39.5015 43.0926 39.5015C43.412 39.5015 43.671 39.7605 43.671 40.0799V40.3306C43.6711 40.65 43.412 40.909 43.0926 40.909ZM45.9271 40.3305V40.0798C45.9271 39.7604 45.6681 39.5014 45.3487 39.5014C45.0292 39.5014 44.7703 39.7604 44.7703 40.0798V40.3305C44.7703 40.65 45.0292 40.9089 45.3487 40.9089C45.668 40.909 45.9271 40.65 45.9271 40.3305ZM48.1036 40.3305V40.0798C48.1036 39.7604 47.8446 39.5014 47.5252 39.5014C47.2057 39.5014 46.9467 39.7604 46.9467 40.0798V40.3305C46.9467 40.65 47.2057 40.9089 47.5252 40.9089C47.8446 40.909 48.1036 40.65 48.1036 40.3305Z" fill="#FFE5C2"/>
<path d="M42.8772 15.9589V18.125C42.8772 24.5768 37.9739 29.8834 31.6905 30.5216C25.4072 29.8834 20.5039 24.5768 20.5039 18.125V15.9589C20.5039 9.50712 25.4072 4.20057 31.6905 3.56235C37.9739 4.20057 42.8772 9.50712 42.8772 15.9589Z" fill="#A44F3E"/>
<path d="M31.6905 30.5216C31.2716 30.5642 30.8465 30.5859 30.4162 30.5859H27.584C20.702 30.5859 15.123 25.007 15.123 18.125V15.959C15.123 9.07701 20.702 3.49802 27.584 3.49802H30.4162C30.8465 3.49802 31.2716 3.51988 31.6905 3.56236C25.4072 4.20059 20.5039 9.50713 20.5039 15.959V18.125C20.5039 24.5768 25.4072 29.8834 31.6905 30.5216Z" fill="#883F2E"/>
<path d="M19.3711 23.2227V24.3555C19.3711 25.9195 18.1031 27.1875 16.5391 27.1875C14.975 27.1875 13.707 25.9195 13.707 24.3555V23.2227C13.707 21.6586 14.975 20.3906 16.5391 20.3906C18.1031 20.3906 19.3711 21.6586 19.3711 23.2227Z" fill="#FED2A4"/>
<path d="M15.4062 22.6562V24.9219C15.4062 25.8483 15.8511 26.6708 16.5388 27.1875C14.9749 27.1874 13.707 25.9194 13.707 24.3555V23.2227C13.707 21.6587 14.9749 20.3907 16.5388 20.3906C15.8511 20.9073 15.4062 21.7298 15.4062 22.6562ZM41.4609 20.3906V18.125C41.4609 11.2431 35.8819 5.66406 29 5.66406C22.1181 5.66406 16.5391 11.2431 16.5391 18.125V22.6562C16.5391 28.3601 20.3714 33.1689 25.6016 34.6481V37.3828C25.6016 39.2598 27.123 40.7812 29 40.7812C30.877 40.7812 32.3984 39.2598 32.3984 37.3828V34.6481C36.2031 33.572 39.2679 30.7341 40.6561 27.0715C40.9112 27.1469 41.1814 27.1875 41.4609 27.1875C43.025 27.1875 44.293 25.9195 44.293 24.3555V23.2227C44.293 21.6586 43.025 20.3906 41.4609 20.3906Z" fill="#FFBD86"/>
<path d="M41.4609 18.125V22.6563C41.4609 28.41 37.5612 33.2529 32.2607 34.6861C31.2386 34.9626 30.1599 34.9626 29.1378 34.6861C23.8372 33.2529 19.9375 28.41 19.9375 22.6563V18.125C19.9375 11.8194 24.6211 6.60782 30.6992 5.77905C36.7773 6.60782 41.4609 11.8194 41.4609 18.125Z" fill="#FED2A4"/>
<path d="M30.6426 23.4188C30.2037 23.8577 29.6204 24.0995 29.0001 24.0995C28.3797 24.0995 27.7965 23.8577 27.3575 23.4188C27.0257 23.0868 27.0257 22.549 27.3575 22.2172C27.6893 21.8855 28.2273 21.8855 28.559 22.2172C28.677 22.3352 28.8335 22.4002 29 22.4002C29.1664 22.4002 29.3229 22.3352 29.441 22.2172C29.7728 21.8855 30.3107 21.8855 30.6424 22.2172C30.9744 22.5491 30.9744 23.087 30.6426 23.4188Z" fill="#F6A96C"/>
<path d="M25.3184 18.9746C25.3184 19.913 24.5576 20.6738 23.6191 20.6738C22.6807 20.6738 21.9199 19.913 21.9199 18.9746C21.9199 18.0362 22.6807 17.2754 23.6191 17.2754C24.5576 17.2754 25.3184 18.0362 25.3184 18.9746ZM34.3809 17.2754C33.4424 17.2754 32.6816 18.0362 32.6816 18.9746C32.6816 19.913 33.4424 20.6738 34.3809 20.6738C35.3193 20.6738 36.0801 19.913 36.0801 18.9746C36.0801 18.0362 35.3193 17.2754 34.3809 17.2754Z" fill="#55271A"/>
<path d="M25.6016 18.125C25.6016 18.5942 25.2212 18.9746 24.752 18.9746C24.2827 18.9746 23.9023 18.5942 23.9023 18.125C23.9023 17.6558 24.2827 17.2754 24.752 17.2754C25.2212 17.2754 25.6016 17.6558 25.6016 18.125ZM35.5137 17.2754C35.0445 17.2754 34.6641 17.6558 34.6641 18.125C34.6641 18.5942 35.0445 18.9746 35.5137 18.9746C35.9829 18.9746 36.3633 18.5942 36.3633 18.125C36.3633 17.6558 35.9829 17.2754 35.5137 17.2754Z" fill="#FFF5F5"/>
<path d="M29 30.5859C27.123 30.5859 25.6016 29.0645 25.6016 27.1875C25.6016 26.7183 25.982 26.3379 26.4512 26.3379H31.5488C32.018 26.3379 32.3984 26.7183 32.3984 27.1875C32.3984 29.0645 30.877 30.5859 29 30.5859Z" fill="#FFF5F5"/>
<path d="M29.8496 30.4789C29.5781 30.5488 29.2934 30.5859 29 30.5859C27.1232 30.5859 25.6016 29.0645 25.6016 27.1875C25.6016 26.7183 25.982 26.3379 26.4512 26.3379H28.1504C27.6812 26.3379 27.3008 26.7183 27.3008 27.1875C27.3008 28.7711 28.3839 30.1015 29.8496 30.4789Z" fill="#D5F3F7"/>
<path d="M23.6142 32.8849L21.6577 34.792C21.5725 34.875 21.5337 34.9945 21.5538 35.1117L22.0157 37.8046C22.0663 38.0997 21.7565 38.3247 21.4915 38.1854L19.0732 36.9141C18.968 36.8587 18.8422 36.8587 18.737 36.9141L17.4278 37.6024L17.855 35.1117C17.875 34.9946 17.8362 34.875 17.7511 34.792L15.7946 32.8849C15.5802 32.6759 15.6986 32.3117 15.9948 32.2686L18.6986 31.8758C18.8163 31.8587 18.918 31.7848 18.9706 31.6781L19.7044 30.1913L20.4382 31.6781C20.4908 31.7847 20.5925 31.8587 20.7102 31.8758L23.414 32.2686C23.7103 32.3117 23.8286 32.6759 23.6142 32.8849ZM12.1726 32.2686L9.46877 31.8758C9.35107 31.8587 9.24935 31.7848 9.19678 31.6781L8.46295 30.1913L7.72911 31.6781C7.67655 31.7847 7.57482 31.8587 7.45712 31.8758L4.75333 32.2686C4.45698 32.3117 4.33872 32.6759 4.55305 32.8849L6.50953 34.792C6.59471 34.875 6.63357 34.9945 6.6134 35.1117L6.18622 37.6024L7.49541 36.9141C7.60065 36.8587 7.72639 36.8587 7.83163 36.9141L10.25 38.1854C10.515 38.3247 10.8247 38.0997 10.7741 37.8046L10.3123 35.1117C10.2922 34.9946 10.3311 34.875 10.4161 34.792L12.3726 32.8849C12.5872 32.6759 12.4688 32.3117 12.1726 32.2686ZM34.6555 32.2686L31.9517 31.8758C31.834 31.8587 31.7323 31.7848 31.6797 31.6781L30.9459 30.1913L30.212 31.6781C30.1594 31.7847 30.0576 31.8587 29.9401 31.8758L27.2363 32.2686C26.9399 32.3117 26.8216 32.6759 27.0361 32.8849L28.9926 34.792C29.0776 34.875 29.1165 34.9945 29.0964 35.1117L28.6693 37.6024L29.9785 36.9141C30.0837 36.8587 30.2094 36.8587 30.3147 36.9141L32.733 38.1854C32.9981 38.3247 33.3078 38.0997 33.2572 37.8046L32.7953 35.1117C32.7753 34.9946 32.8141 34.875 32.8992 34.792L34.8557 32.8849C35.0701 32.6759 34.9518 32.3117 34.6555 32.2686ZM45.897 32.2686L43.1932 31.8758C43.0755 31.8587 42.9737 31.7848 42.9212 31.6781L41.712 29.228C41.5795 28.9596 41.1966 28.9596 41.0642 29.228L39.855 31.6781C39.8023 31.7847 39.7006 31.8587 39.583 31.8758L36.8792 32.2686C36.5829 32.3117 36.4646 32.6759 36.679 32.8849L38.6355 34.792C38.7207 34.875 38.7596 34.9945 38.7394 35.1117L38.2775 37.8046C38.2269 38.0997 38.5367 38.3247 38.8017 38.1854L39.6077 37.7617L39.7432 37.46L41.2201 36.6717C41.3254 36.6164 41.4511 36.6164 41.5564 36.6717L41.7688 36.7834L41.8733 37.0806L42.0709 37.1007L44.0424 38.0553C44.3075 38.1946 44.4594 38.0568 44.4088 37.7616L44.269 36.8791L44.302 36.6566L44.037 35.1117C44.0169 34.9946 44.0558 34.875 44.1409 34.792L46.0974 32.8849C46.3116 32.6759 46.1933 32.3117 45.897 32.2686ZM37.8114 46.6255L36.3204 45.1345C36.1876 45.0018 35.9725 45.0018 35.8397 45.1345L34.3487 46.6255C34.216 46.7583 34.216 46.9734 34.3487 47.1062L35.8397 48.5973C35.9725 48.7301 36.1876 48.7301 36.3204 48.5973L37.8114 47.1062C37.944 46.9734 37.944 46.7583 37.8114 46.6255ZM48.8563 26.0735L47.3653 24.5825C47.2325 24.4497 47.0174 24.4497 46.8847 24.5825L45.3937 26.0735C45.2609 26.2063 45.2609 26.4214 45.3937 26.5541L46.8847 28.0453C47.0174 28.178 47.2325 28.178 47.3653 28.0453L48.8563 26.5541C48.989 26.4214 48.989 26.2061 48.8563 26.0735Z" fill="#FFEF31"/>
<path d="M7.98768 29.228L8.52339 30.3135L7.81232 32.22C7.76735 32.3407 7.68035 32.4244 7.57976 32.4436L6.24247 33.0564C5.98906 33.1051 5.8879 33.5172 6.0713 33.7537L7.03567 34.9362C7.10851 35.0301 7.1417 35.1654 7.12448 35.298L6.69934 37.3325L5.07738 38.1852C4.8123 38.3245 4.50259 38.0994 4.55322 37.8043L5.01507 35.1115C5.03512 34.9944 4.99627 34.8748 4.91119 34.7917L2.95471 32.8846C2.74027 32.6756 2.85865 32.3114 3.15488 32.2684L5.85868 31.8755C5.97637 31.8584 6.0781 31.7846 6.13066 31.6779L7.33983 29.2278C7.47237 28.9596 7.85526 28.9596 7.98768 29.228ZM41.3045 33.994C41.3043 33.9939 41.3041 33.9938 41.3039 33.9937C41.138 33.8984 40.9456 33.8438 40.7405 33.8438C40.1148 33.8438 39.6076 34.351 39.6076 34.9766V37.7616L41.2201 36.9139C41.3253 36.8585 41.4511 36.8585 41.5563 36.9139L41.8733 37.0806V34.9766C41.8733 34.5563 41.6444 34.1895 41.3045 33.994ZM44.4988 37.8046L44.3019 36.6566C44.1985 36.8275 44.1389 37.0279 44.1389 37.2422C44.1389 36.6166 43.6317 36.1094 43.0061 36.1094C42.4333 36.1094 41.96 36.5344 41.884 37.0862L43.9746 38.1853C44.2397 38.3247 44.5494 38.0997 44.4988 37.8046ZM18.5813 29.228L17.3721 31.6781C17.3196 31.7847 17.2178 31.8586 17.1001 31.8758L14.3963 32.2686C14.1 32.3117 13.9817 32.6759 14.1962 32.8849L16.1527 34.792C16.2378 34.875 16.2767 34.9945 16.2565 35.1117L15.7947 37.8046C15.744 38.0997 16.0539 38.3247 16.3188 38.1854L17.9408 37.3327L18.3659 35.2982C18.3832 35.1656 18.3499 35.0303 18.2771 34.9364L17.3128 33.754C17.1294 33.5174 17.2305 33.1053 17.4839 33.0566L18.8212 32.4439C18.9218 32.4245 19.0088 32.3409 19.0538 32.2202L19.7649 30.3137L19.2291 29.2283C19.0967 28.9596 18.7138 28.9596 18.5813 29.228ZM29.8228 29.228L28.6136 31.6781C28.5609 31.7847 28.4592 31.8586 28.3416 31.8758L25.6378 32.2686C25.3415 32.3117 25.2232 32.6759 25.4376 32.8849L27.3941 34.792C27.4792 34.875 27.518 34.9945 27.498 35.1117L27.0361 37.8046C26.9855 38.0997 27.2953 38.3247 27.5603 38.1854L29.1823 37.3327L29.6074 35.2982C29.6246 35.1656 29.5913 35.0303 29.5186 34.9364L28.5542 33.754C28.3708 33.5174 28.4721 33.1053 28.7255 33.0566L30.0628 32.4439C30.1634 32.4245 30.2504 32.3409 30.2954 32.2202L31.0064 30.3137L30.4707 29.2283C30.3382 28.9596 29.9553 28.9596 29.8228 29.228Z" fill="#EAD000"/>
<path d="M28.7167 6.89645V9.61758C28.7167 11.4945 27.1953 13.016 25.3183 13.016H22.062C19.4337 13.016 17.303 10.8853 17.303 8.25695C17.303 5.6286 19.4337 3.49789 22.062 3.49789H25.3183C27.1953 3.49801 28.7167 5.01949 28.7167 6.89645Z" fill="#883F2E"/>
<path d="M40.6968 4.1896V8.25708C40.6968 10.8854 38.566 13.0161 35.9377 13.0161H25.3592C22.7308 13.0161 20.6001 10.8854 20.6001 8.25708C20.6001 5.62872 22.7308 3.49802 25.3592 3.49802H40.0052C40.3872 3.49802 40.6968 3.80761 40.6968 4.1896Z" fill="#A44F3E"/>
<path d="M48.58 50.3925C46.3673 52.4189 43.839 54.1065 41.0776 55.3731C40.4404 55.6654 39.1104 56.0443 39.1104 55.973V50.8361C39.1104 50.2104 39.6175 49.7033 40.2432 49.7033H47.5373C48.0055 49.7032 48.4075 49.9873 48.58 50.3925Z" fill="#814BA3"/>
<path d="M42.2361 49.7032C41.6105 49.7032 41.1033 50.2103 41.1033 50.836V55.3612C40.4578 55.658 39.7996 55.9319 39.1296 56.1817C39.117 56.1141 39.1104 56.0443 39.1104 55.9729V50.836C39.1104 50.2103 39.6175 49.7032 40.2432 49.7032H42.2361Z" fill="#6F3F8B"/>
</svg>
