<svg width="58" height="58" viewBox="0 0 58 58" fill="none" xmlns="http://www.w3.org/2000/svg">
<path d="M35.7692 5.63384C22.8758 0.313203 8.11013 6.45322 2.78965 19.3462C1.48443 22.5091 0.869095 25.7837 0.874089 29.0042C0.885905 37.8057 5.52832 46.2007 13.3832 50.7817C14.372 51.36 15.4126 51.8762 16.5012 52.3254C29.3954 57.6464 44.1606 51.5075 49.4812 38.6141C54.8017 25.7212 48.6634 10.9548 35.7692 5.63384Z" fill="#FE646F"/>
<path d="M49.4813 38.6141C48.9718 39.8486 48.3752 41.0204 47.7028 42.1267C50.5693 30.237 44.4347 17.7022 32.7746 12.8905C21.1161 8.07949 7.92769 12.6394 1.57449 23.0893C1.87776 21.8311 2.28043 20.5803 2.78954 19.3466C8.11018 6.45316 22.8758 0.313147 35.7692 5.63379C48.6634 10.9548 54.8017 25.7211 49.4813 38.6141V38.6141Z" fill="#FD4755"/>
<path d="M38.6976 3.43147L24.3688 13.1197C23.3476 13.8098 22.6232 14.8573 22.339 16.056C22.0532 17.2573 21.3313 18.309 20.3079 19.0011L18.3892 20.2972L28.9938 36.3659L40.595 38.2846C41.498 38.4343 42.3724 38.6849 43.2047 39.0284C45.3579 39.9169 47.2232 41.4235 48.5492 43.3841C48.8753 43.8661 49.3242 44.2175 49.8253 44.4243C50.6817 44.7777 51.6934 44.7088 52.519 44.1506C53.6317 43.3986 54.0704 41.9743 53.5739 40.7266L52.6912 38.5037C51.6786 35.9606 50.1114 33.6744 48.1016 31.8156L46.1386 29.9978L55.657 23.5478C57.179 22.5185 57.5596 20.4334 56.4822 18.9304C55.4448 17.4816 53.4136 17.1675 51.9369 18.1662C51.9191 18.1782 51.9008 18.1721 51.8897 18.1611C51.8784 18.1471 51.8753 18.1265 51.8909 18.1112C52.1704 17.8164 52.3871 17.4767 52.5371 17.1132C52.7767 16.5328 52.8469 15.8885 52.7317 15.2652C52.6524 14.8356 52.485 14.415 52.2248 14.0303C51.7222 13.2871 50.9674 12.816 50.1517 12.6547C48.8672 12.3997 47.8991 13.0102 47.714 13.1323C47.682 13.1527 47.6389 13.1442 47.6173 13.1117C47.6165 13.1114 47.6158 13.1097 47.6161 13.1089C47.5971 13.0789 47.6056 13.0372 47.6343 13.0168C47.7928 12.7993 47.9223 12.5648 48.0238 12.3188C48.2716 11.7183 48.3474 11.0505 48.2333 10.4091C48.1554 9.97507 47.9905 9.55172 47.7318 9.16997C46.7204 7.67379 44.6872 7.28051 43.19 8.29333C43.1526 8.31803 43.1152 8.34274 43.0789 8.36793C43.055 8.38113 43.0274 8.37663 43.0138 8.35906C43.0103 8.3553 43.0075 8.34862 43.0074 8.34346C43.0015 8.32304 43.0104 8.29811 43.0341 8.28435C43.6861 7.54061 43.9408 6.54335 43.7626 5.58297C43.6827 5.14162 43.5088 4.70764 43.24 4.31017C42.2275 2.81311 40.1942 2.42022 38.6976 3.43147V3.43147Z" fill="#FDD7BD"/>
<path d="M15.6468 19.0165L9.60155 23.1036L0.874147 29.0042C0.886359 37.8059 5.52759 46.2004 13.3833 50.7817L23.5115 43.9342L29.6774 39.7658C30.3876 39.286 30.5736 38.3199 30.0926 37.6093L17.8045 19.4322C17.3235 18.7215 16.359 18.5362 15.6468 19.0165V19.0165Z" fill="#0ED2B3"/>
<path d="M15.6467 19.0164L9.60153 23.1035L23.5115 43.9341L29.6774 39.7657C30.3876 39.2859 30.5735 38.3198 30.0925 37.6092L17.8049 19.4322C17.3235 18.7214 16.359 18.5361 15.6467 19.0164V19.0164Z" fill="#0AB69F"/>
<path d="M52.7323 15.2654L48.5277 18.7218C47.9321 19.2124 47.7855 20.0651 48.1839 20.7246L51.8898 18.1611C51.8785 18.1472 51.8755 18.1265 51.891 18.1113C52.1705 17.8164 52.3873 17.4767 52.5373 17.1132C52.7769 16.5324 52.847 15.8886 52.7323 15.2654V15.2654Z" fill="#FAC5AA"/>
<path d="M48.2334 10.4091L44.1223 13.7911C43.5255 14.2812 43.3786 15.1338 43.7767 15.7936L47.4831 13.2303L47.6164 13.1086C47.5974 13.0786 47.6058 13.0368 47.6346 13.0164C47.7931 12.799 47.9226 12.5645 48.0241 12.3184C48.2719 11.718 48.3477 11.0502 48.2334 10.4091Z" fill="#FAC5AA"/>
<path d="M43.763 5.58258L40.141 8.56097C39.5461 9.05099 39.3993 9.90312 39.797 10.5642L43.0076 8.34348C43.0019 8.32266 43.0108 8.29773 43.0347 8.28452C43.6863 7.54061 43.941 6.54335 43.763 5.58258V5.58258Z" fill="#FAC5AA"/>
</svg>
